<svg width="318" height="232" viewBox="0 0 318 232" fill="none" xmlns="http://www.w3.org/2000/svg">
<g id="Group">
<g id="Group_2">
<path id="Vector" d="M242.715 77.9127C248.005 53.4927 256.195 28.3927 284.325 25.4127C287.015 21.6827 288.495 17.1827 290.735 13.1827C292.505 10.0127 294.655 1.37271 300.265 5.38271C302.025 6.63271 302.385 10.3827 300.935 15.2227C298.505 23.2227 298.825 23.2227 309.545 18.4227C313.795 16.5227 319.205 20.2327 316.055 25.3127C313.155 29.9927 310.295 29.3127 307.565 32.5927C306.215 34.2427 317.945 34.5927 317.855 41.2127C317.775 47.3127 308.915 45.2627 305.935 44.3227C300.785 42.7127 298.055 41.6927 293.325 40.8727C259.855 44.3927 263.985 75.8727 256.535 102.493C255.535 100.063 255.345 99.2127 254.155 96.4927C251.092 89.8679 247.252 83.6307 242.715 77.9127V77.9127Z" fill="#7F2E55"/>
<path id="Vector_2" d="M0.375282 35.5027C3.18528 27.1627 16.0553 33.5027 15.0053 30.8227C12.8753 25.4327 7.31526 21.3327 7.16526 13.4727C7.00526 4.9427 15.1653 7.5727 20.1653 14.1727C32.7653 30.7727 29.8653 27.9927 40.6153 23.3527C47.0453 20.5827 51.1253 18.0127 54.1653 18.6727C63.8853 20.7927 54.5253 25.3727 52.0253 29.1327C48.8653 33.8827 44.4053 30.4127 43.6653 40.4327C42.9253 50.4527 53.0953 71.8727 62.5553 79.6827C59.4653 91.7627 62.0353 103.523 60.0553 115.423C42.0553 90.2527 34.2153 78.1227 25.6053 48.5627C20.6653 47.1527 18.3353 46.6727 12.5453 45.1927C9.15527 44.3327 -2.19472 43.1327 0.375282 35.5027Z" fill="#7F2E55"/>
<path id="Vector_3" d="M50.7152 119.953C50.7152 119.343 50.7152 118.733 50.6552 118.123C50.1051 105.842 50.2954 93.5401 51.2252 81.2827C51.5052 77.8827 51.8552 74.5127 52.3052 71.2327C54.3952 55.8527 65.4852 42.9427 74.6252 30.0227C75.0752 29.3827 75.5452 28.7527 76.0152 28.1427C91.4452 8.14269 117.715 2.14269 143.185 0.34269C164.585 -1.16731 182.555 2.41269 197.565 9.11269C233.645 25.2227 252.565 59.4127 260.725 84.5327C263.262 91.9292 264.94 99.5929 265.725 107.373C265.885 109.773 266.025 112.113 266.135 114.373C268.195 156.023 261.445 182.603 249.755 199.613C245.099 206.473 239.101 212.321 232.125 216.803C218.235 225.723 201.635 228.673 185.265 229.803C142.445 232.803 111.735 231.453 90.5352 219.703C82.5805 215.31 75.7386 209.152 70.5352 201.703C58.4552 184.523 52.3252 158.473 50.7152 119.953Z" fill="#7F2E55"/>
</g>
<g id="Group_3">
<path id="Vector_4" d="M244.075 110.803C237.795 121.263 222.705 139.053 217.075 137.593C216.985 137.593 207.215 111.823 202.975 114.593C197.455 118.183 193.165 124.593 180.225 134.533C173.485 106.083 164.955 110.673 156.225 118.753L141.545 132.263C134.785 131.343 133.545 99.9027 127.045 105.683C118.645 113.163 99.9453 125.373 99.9453 125.373C89.5653 120.153 82.6353 100.373 82.2653 92.4927C65.1753 95.9027 60.2653 109.793 59.1153 118.083C56.5653 136.843 52.7653 161.823 66.1153 170.083C72.4994 173.91 79.5057 176.587 86.8153 177.993C86.7494 176.874 86.793 175.752 86.9453 174.643C87.7753 168.503 99.2153 148.203 109.715 145.493C109.715 145.493 119.285 163.023 124.235 172.313C128.065 179.493 139.325 148.263 145.015 149.033L153.555 165.703C158.665 175.703 157.295 177.183 176.865 156.353C184.865 169.173 186.775 176.353 190.355 181.213C193.105 184.923 207.355 162.423 207.355 162.423C212.005 162.423 219.265 181.153 222.155 193.033C233.745 193.513 245.685 186.593 248.225 167.873C251.325 145.113 262.935 123.513 244.075 110.803Z" fill="#012430"/>
<path id="Vector_5" d="M99.9053 125.403C99.9053 125.403 118.605 113.193 127.005 105.713C133.505 99.9327 134.745 131.373 141.505 132.293L156.185 118.803C164.965 110.723 173.495 106.133 180.185 134.583C193.125 124.583 197.415 118.233 202.935 114.643C207.175 111.883 216.935 137.643 217.035 137.643C222.655 139.103 237.745 121.313 244.035 110.853C242.004 109.502 239.851 108.344 237.605 107.393C217.605 102.733 222.945 112.333 161.695 104.023C148.395 102.213 127.195 99.3827 109.075 94.5127C97.8053 91.5127 89.0753 91.1727 82.1853 92.5127C82.5953 100.403 89.5253 120.183 99.9053 125.403Z" fill="#FFEFC9"/>
<path id="Vector_6" d="M207.365 162.413C207.295 162.413 193.075 184.913 190.365 181.203C186.785 176.373 184.885 169.203 176.875 156.343C157.305 177.173 158.675 175.653 153.565 165.693L145.025 149.023C139.335 148.253 128.075 179.483 124.245 172.303C119.245 163.013 109.725 145.483 109.725 145.483C99.2253 148.193 87.7853 168.483 86.9553 174.633C86.803 175.742 86.7594 176.864 86.8253 177.983C88.6753 178.363 90.5453 178.693 92.4353 178.983C120.035 182.723 138.245 174.113 157.305 177.203C187.235 182.053 207.355 191.203 219.625 192.833C220.481 192.951 221.342 193.025 222.205 193.053C219.275 181.143 212.015 162.393 207.365 162.413Z" fill="#FFEFC9"/>
</g>
<g id="Group_4">
<path id="Vector_7" d="M150.905 53.9927C148.465 71.9927 131.475 84.5127 112.905 81.9927C94.3353 79.4727 81.3453 62.8627 83.7853 44.8827C86.2253 26.9027 100.095 13.9427 118.625 16.4527C137.155 18.9627 153.345 36.0127 150.905 53.9927Z" fill="#662748"/>
<path id="Vector_8" d="M227.515 64.4027C225.005 82.9227 207.455 95.8027 188.325 93.2327C169.195 90.6627 155.715 73.5127 158.235 54.9927C160.755 36.4727 175.175 23.1327 194.305 25.7327C213.435 28.3327 230.035 45.8727 227.515 64.4027Z" fill="#662748"/>
<path id="Vector_9" d="M146.185 50.9127C144.245 65.1527 130.125 74.9827 114.635 72.9127C99.1453 70.8427 88.1553 57.5627 90.0853 43.3327C92.0153 29.1027 103.025 18.8327 118.515 20.9327C134.005 23.0327 148.115 36.6827 146.185 50.9127Z" fill="#FFE0A8"/>
<path id="Vector_10" d="M166.385 54.8527C164.255 70.6027 174.915 85.0627 190.215 87.1327C205.515 89.2027 219.655 78.1327 221.795 62.3727C223.935 46.6127 210.145 31.7327 194.795 29.6627C179.445 27.5927 168.525 39.0927 166.385 54.8527Z" fill="#FFE0A8"/>
<path id="Vector_11" d="M134.07 46.5726C135.02 39.5785 129.667 33.0777 122.115 32.0526C114.563 31.0274 107.671 35.8662 106.721 42.8602C105.772 49.8543 111.125 56.3552 118.677 57.3803C126.229 58.4054 133.121 53.5666 134.07 46.5726Z" fill="black"/>
<path id="Vector_12" d="M214.165 55.8027C213.165 62.8027 206.325 67.6327 198.775 66.6027C191.225 65.5727 185.865 59.0827 186.775 52.0827C187.685 45.0827 194.625 40.2527 202.175 41.2827C209.725 42.3127 215.115 48.8027 214.165 55.8027Z" fill="black"/>
</g>
</g>
</svg>
