<svg width="121" height="146" viewBox="0 0 121 146" fill="none" xmlns="http://www.w3.org/2000/svg">
<g id="Group" filter="url(#filter0_d)">
<path id="Vector" fill-rule="evenodd" clip-rule="evenodd" d="M4.361 140.379L6.97762 126.372L0 7.31224L3.03454 0.0358887C3.03454 0.0358887 78.0803 7.31224 113.877 0.0358887L121.145 13.6608L114.913 125.917L115.93 138.414L107.699 145.217C107.699 145.217 50.0245 139.233 22.4229 146.036L4.361 140.379Z" fill="url(#paint0_linear)"/>
<path id="Vector_2" fill-rule="evenodd" clip-rule="evenodd" d="M7.23201 4.52951L2.83466 11.0055L8.01336 126.226L10.6845 135.176L24.4762 141.452L83.9132 138.323L103.047 138.942L111.987 127.336L119.674 15.5532L103.52 4.56589L35.615 8.02216L7.23201 4.52951Z" fill="url(#paint1_linear)"/>
<path id="Vector_3" fill-rule="evenodd" clip-rule="evenodd" d="M3.03458 0L7.23205 4.52954L35.615 8.02218L103.52 4.5659L113.804 0C113.804 0 66.7963 6.43957 3.03458 0Z" fill="#9E98BB"/>
<path id="Vector_4" fill-rule="evenodd" clip-rule="evenodd" d="M103.52 4.56591L119.674 15.5532L121 13.625L113.804 0L103.52 4.56591Z" fill="#8079A5"/>
<path id="Vector_5" fill-rule="evenodd" clip-rule="evenodd" d="M3.03454 0L7.23202 4.52953L2.83466 11.0055L0 6.29404L3.03454 0Z" fill="#8079A5"/>
<path id="Vector_6" fill-rule="evenodd" clip-rule="evenodd" d="M24.4762 141.47L22.2957 146C50.6112 142.061 79.3161 141.798 107.699 145.218L103.12 138.996L82.4414 138.451L24.4762 141.47Z" fill="#3A2F66"/>
<path id="Vector_7" fill-rule="evenodd" clip-rule="evenodd" d="M115.785 138.36L111.987 127.336L103.047 138.942L107.626 145.181L115.785 138.36Z" fill="#4F3D70"/>
<path id="Vector_8" fill-rule="evenodd" clip-rule="evenodd" d="M22.3502 146L24.4762 141.452L10.6845 135.176L4.36099 140.379L22.3502 146Z" fill="#4F3D70"/>
<path id="Vector_9" fill-rule="evenodd" clip-rule="evenodd" d="M4.36099 140.379L10.6845 135.176L8.01334 126.227L6.9776 126.372L4.36099 140.379Z" fill="#8079A5"/>
<path id="Vector_10" fill-rule="evenodd" clip-rule="evenodd" d="M116.439 62.6676L111.515 69.0162L110.225 70.6534L115.367 78.2026L116.439 73V62.6676Z" fill="#4F3D70"/>
<path id="Vector_11" fill-rule="evenodd" clip-rule="evenodd" d="M6.55966 93.9377V97.9761V100.923L7.52272 111.637L8.722 102.778L6.55966 93.9377Z" fill="#8579A3"/>
<path id="Vector_12" fill-rule="evenodd" clip-rule="evenodd" d="M5.72385 6.7488L11.1751 5.00247L7.23203 4.52951L5.72385 6.7488Z" fill="#BEBAD3"/>
<path id="Vector_13" fill-rule="evenodd" clip-rule="evenodd" d="M98.6862 4.94793L106.736 6.74883V3.14703L98.6862 4.94793Z" fill="#BEBAD3"/>
<path id="Vector_14" fill-rule="evenodd" clip-rule="evenodd" d="M96.4693 138.396L105.936 135.176L103.047 138.942L96.4693 138.396Z" fill="#8579A3"/>
<path id="Vector_15" fill-rule="evenodd" clip-rule="evenodd" d="M110.225 70.6534L114.695 72.1814L116.439 73L115.367 78.2026L110.225 70.6534Z" fill="#8579A3"/>
<path id="Vector_16" fill-rule="evenodd" clip-rule="evenodd" d="M116.439 62.6676L115.785 48.988L117.675 44.5495L116.439 40.6384L118.583 31.4338L116.439 62.6676Z" fill="#8579A3"/>
<path id="Vector_17" fill-rule="evenodd" clip-rule="evenodd" d="M114.767 86.8978L113.332 91.7366L113.804 100.941L114.767 95.2656V86.8978Z" fill="#8579A3"/>
<g id="Group_2">
<path id="Vector_18" fill-rule="evenodd" clip-rule="evenodd" d="M61.1996 61.1214C61.0823 61.8207 60.8682 62.5003 60.5636 63.1406V63.1406C60.0954 64.3639 59.2836 65.4254 58.2259 66.1969C57.1683 66.9683 55.9102 67.4168 54.6036 67.4882C53.6764 67.4728 52.7676 67.227 51.9588 66.773C51.15 66.3189 50.4666 65.6708 49.97 64.8869C49.8778 64.6209 49.8109 64.3468 49.7701 64.0683C49.6698 63.6068 49.6698 63.1291 49.7701 62.6676C50.8967 57.5559 62.1445 55.7187 61.1996 61.1214Z" fill="url(#paint2_linear)"/>
<path id="Vector_19" fill-rule="evenodd" clip-rule="evenodd" d="M89.3645 129.792C89.3331 129.876 89.2903 129.956 89.2373 130.028C89.0686 130.3 88.8271 130.519 88.5402 130.66C88.2533 130.802 87.9326 130.859 87.6146 130.827C87.2966 130.795 86.9939 130.674 86.7411 130.478C86.4883 130.282 86.2955 130.019 86.1846 129.719V129.628C86.1664 127.154 90.1095 127.918 89.3645 129.792Z" fill="url(#paint3_linear)"/>
<path id="Vector_20" fill-rule="evenodd" clip-rule="evenodd" d="M110.061 82.4775C110.007 82.6605 109.934 82.8374 109.843 83.005C108.48 85.6245 104.664 83.5144 105.664 81.9318C105.803 81.7168 105.99 81.5364 106.209 81.4042C107.117 78.912 110.933 79.858 110.061 82.4775Z" fill="url(#paint4_linear)"/>
<path id="Vector_21" fill-rule="evenodd" clip-rule="evenodd" d="M13.0286 42.221C12.9788 42.5821 12.8873 42.9362 12.756 43.2761C11.8475 45.5318 9.12183 46.0775 9.83049 42.7304H9.68512C9.71771 42.2592 9.78451 41.7911 9.885 41.3297C10.1031 40.2564 10.5392 39.0376 11.375 38.9648C12.7923 38.8375 13.2103 41.3297 13.0286 42.221Z" fill="url(#paint5_linear)"/>
<path id="Vector_22" fill-rule="evenodd" clip-rule="evenodd" d="M13.5919 33.1984C13.3628 34.1671 12.9003 35.0649 12.2446 35.8132C11.5889 36.5616 10.76 37.1378 9.83047 37.4914C8.95646 37.4268 8.13971 37.0319 7.54583 36.3867C6.95195 35.7414 6.6254 34.8943 6.63239 34.0169C6.48355 32.5675 6.6765 31.1033 7.1957 29.7421C7.30389 29.3957 7.43129 29.0556 7.57729 28.7234C8.39498 26.777 9.77596 23.2661 12.4652 24.9943C14.7366 26.4496 14.1915 31.0155 13.5919 33.1984Z" fill="url(#paint6_linear)"/>
<path id="Vector_23" fill-rule="evenodd" clip-rule="evenodd" d="M17.4077 21.8836C16.7172 22.5749 15.3544 22.8114 15.0637 21.5016V21.3743C15.0696 21.2401 15.1069 21.1093 15.1727 20.9923C15.2781 20.7868 15.4267 20.6066 15.6082 20.4641C15.7897 20.3215 15.9999 20.2199 16.2243 20.1664C16.4487 20.1128 16.682 20.1085 16.9083 20.1537C17.1345 20.1989 17.3483 20.2926 17.5349 20.4283C17.6345 20.5261 17.7112 20.6448 17.7596 20.7758C17.8079 20.9068 17.8267 21.0469 17.8145 21.186C17.8024 21.3252 17.7596 21.4599 17.6892 21.5805C17.6189 21.7011 17.5228 21.8046 17.4077 21.8836V21.8836Z" fill="url(#paint7_linear)"/>
<path id="Vector_24" fill-rule="evenodd" clip-rule="evenodd" d="M60.0185 65.56C59.5535 66.7819 58.7449 67.8427 57.6904 68.6143C56.6359 69.3858 55.3807 69.8351 54.0766 69.9076C53.1491 69.8938 52.2397 69.6488 51.4306 69.1945C50.6216 68.7403 49.9384 68.0913 49.443 67.3063C49.3424 67.0429 49.2752 66.7678 49.2431 66.4877V65.087C49.2431 65.087 51.0602 69.1254 54.9306 68.3068C56.872 67.9469 58.6515 66.9862 60.0185 65.56Z" fill="#8579A3"/>
<path id="Vector_25" fill-rule="evenodd" clip-rule="evenodd" d="M89.3645 129.792C89.3331 129.876 89.2903 129.956 89.2373 130.028C89.0686 130.3 88.8271 130.519 88.5402 130.66C88.2533 130.802 87.9326 130.859 87.6146 130.827C87.2966 130.795 86.9939 130.674 86.7411 130.478C86.4883 130.282 86.2955 130.019 86.1846 129.719V129.628C86.3589 129.827 86.5744 129.985 86.816 130.092C87.0577 130.199 87.3196 130.252 87.5837 130.247C88.2113 130.297 88.8378 130.137 89.3645 129.792V129.792Z" fill="#8579A3"/>
<path id="Vector_26" fill-rule="evenodd" clip-rule="evenodd" d="M109.843 83.005C108.48 85.6245 104.664 83.5143 105.664 81.9317C105.907 82.291 106.231 82.5884 106.61 82.8C106.988 83.0116 107.411 83.1317 107.844 83.1505C108.514 83.1741 109.184 83.1253 109.843 83.005Z" fill="#8579A3"/>
<path id="Vector_27" fill-rule="evenodd" clip-rule="evenodd" d="M13.5919 33.1984C13.3628 34.1671 12.9003 35.0649 12.2446 35.8132C11.5889 36.5616 10.76 37.1378 9.83047 37.4914C8.95646 37.4268 8.13971 37.0318 7.54583 36.3866C6.95195 35.7414 6.6254 34.8943 6.63239 34.0169C6.48355 32.5675 6.6765 31.1033 7.1957 29.7421C7.09895 30.6896 7.21157 31.6468 7.52559 32.5459C7.83961 33.445 8.34734 34.264 9.01279 34.9447C11.157 36.8002 13.5919 33.1984 13.5919 33.1984Z" fill="#8579A3"/>
<path id="Vector_28" fill-rule="evenodd" clip-rule="evenodd" d="M12.756 43.3489C11.8475 45.6045 9.12183 46.1503 9.83049 42.8031H9.68512C9.71771 42.332 9.78451 41.8639 9.885 41.4024C10.0122 42.1665 10.4301 43.9674 11.3205 43.9492C11.858 43.9396 12.3715 43.7249 12.756 43.3489V43.3489Z" fill="#8579A3"/>
<path id="Vector_29" fill-rule="evenodd" clip-rule="evenodd" d="M17.4077 21.8836C16.7172 22.5749 15.3544 22.8114 15.0637 21.5016V21.3743C15.0696 21.2401 15.1069 21.1093 15.1727 20.9923C15.2652 21.2474 15.4413 21.4636 15.6723 21.6057C15.9033 21.7477 16.1756 21.8072 16.4447 21.7745C16.7698 21.7422 17.0981 21.7794 17.4077 21.8836V21.8836Z" fill="#8579A3"/>
</g>
<g id="Group_3">
<path id="Vector_30" fill-rule="evenodd" clip-rule="evenodd" d="M83.1319 114.148C80.8242 109.436 89.2737 106.471 89.5644 111.328C89.6853 112.12 89.5416 112.93 89.1556 113.632C88.7695 114.334 88.1628 114.889 87.4296 115.211C86.6963 115.532 85.8775 115.602 85.1004 115.41C84.3233 115.218 83.6313 114.774 83.1319 114.148Z" fill="#8275A0"/>
<path id="Vector_31" fill-rule="evenodd" clip-rule="evenodd" d="M26.3115 122.334C24.0219 117.622 32.4532 114.657 32.7439 119.496C32.8702 120.29 32.7304 121.103 32.3462 121.809C31.9621 122.515 31.3552 123.073 30.6205 123.397C29.8858 123.721 29.0645 123.793 28.285 123.6C27.5054 123.408 26.8114 122.963 26.3115 122.334Z" fill="#8579A3"/>
<path id="Vector_32" fill-rule="evenodd" clip-rule="evenodd" d="M92.3809 104.252C89.3282 105.671 92.9078 107.672 94.198 106.071C94.328 105.928 94.4254 105.759 94.4834 105.575C94.5414 105.391 94.5586 105.196 94.5337 105.005C94.5089 104.813 94.4426 104.629 94.3395 104.466C94.2365 104.303 94.0991 104.164 93.937 104.06C93.7749 103.955 93.5919 103.887 93.4009 103.86C93.2098 103.834 93.0152 103.849 92.8308 103.906C92.6463 103.962 92.4764 104.058 92.3327 104.187C92.1891 104.316 92.0753 104.475 91.9993 104.652L92.3809 104.252Z" fill="#8579A3"/>
<path id="Vector_33" fill-rule="evenodd" clip-rule="evenodd" d="M23.3133 34.1443C22.1685 34.6718 23.5131 35.4176 23.9492 34.7809C23.9944 34.7276 24.0278 34.6652 24.0469 34.598C24.0661 34.5308 24.0707 34.4602 24.0605 34.391C24.0502 34.3218 24.0254 34.2557 23.9875 34.1969C23.9496 34.1381 23.8997 34.0881 23.841 34.0502C23.7822 34.0124 23.7161 33.9875 23.647 33.9772C23.5779 33.967 23.5074 33.9717 23.4403 33.9909C23.3731 34.0101 23.3108 34.0435 23.2576 34.0888C23.2044 34.134 23.1614 34.1902 23.1315 34.2534L23.3133 34.1443Z" fill="#8579A3"/>
<path id="Vector_34" fill-rule="evenodd" clip-rule="evenodd" d="M90.8 93.0463C88.0017 94.3379 91.2724 96.157 92.3809 94.6289C92.477 94.4965 92.5451 94.3459 92.581 94.1862C92.6169 94.0264 92.6197 93.8611 92.5894 93.7002C92.5591 93.5394 92.4962 93.3864 92.4047 93.2508C92.3131 93.1151 92.1949 92.9996 92.0571 92.9114C91.9194 92.8232 91.7651 92.7642 91.6037 92.7378C91.4423 92.7115 91.2772 92.7185 91.1186 92.7584C90.9601 92.7983 90.8113 92.8703 90.6815 92.9698C90.5517 93.0694 90.4436 93.1945 90.3639 93.3374L90.8 93.0463Z" fill="#8579A3"/>
<path id="Vector_35" fill-rule="evenodd" clip-rule="evenodd" d="M10.1939 10.6053C9.04909 11.1328 10.3756 11.8786 10.8299 11.2601C10.8751 11.2068 10.9084 11.1445 10.9275 11.0772C10.9467 11.01 10.9514 10.9394 10.9411 10.8702C10.9309 10.8011 10.906 10.7349 10.8681 10.6761C10.8302 10.6173 10.7803 10.5674 10.7216 10.5295C10.6628 10.4916 10.5967 10.4667 10.5276 10.4565C10.4585 10.4462 10.388 10.4509 10.3209 10.4701C10.2537 10.4893 10.1914 10.5227 10.1382 10.568C10.085 10.6132 10.042 10.6694 10.0122 10.7326L10.1939 10.6053Z" fill="#8579A3"/>
<path id="Vector_36" fill-rule="evenodd" clip-rule="evenodd" d="M75.6091 22.0837C74.4825 22.6112 75.809 23.3571 76.2633 22.7204C76.3085 22.6671 76.3418 22.6047 76.361 22.5375C76.3802 22.4702 76.3848 22.3997 76.3745 22.3305C76.3643 22.2613 76.3394 22.1951 76.3015 22.1364C76.2637 22.0776 76.2137 22.0276 76.155 21.9897C76.0963 21.9518 76.0302 21.9269 75.9611 21.9167C75.892 21.9065 75.8215 21.9111 75.7543 21.9304C75.6872 21.9496 75.6249 21.983 75.5716 22.0282C75.5184 22.0735 75.4754 22.1296 75.4456 22.1929L75.6091 22.0837Z" fill="#8579A3"/>
</g>
</g>
<defs>
<filter id="filter0_d" x="-4" y="0" width="129.145" height="154.036" filterUnits="userSpaceOnUse" color-interpolation-filters="sRGB">
<feFlood flood-opacity="0" result="BackgroundImageFix"/>
<feColorMatrix in="SourceAlpha" type="matrix" values="0 0 0 0 0 0 0 0 0 0 0 0 0 0 0 0 0 0 127 0" result="hardAlpha"/>
<feOffset dy="4"/>
<feGaussianBlur stdDeviation="2"/>
<feComposite in2="hardAlpha" operator="out"/>
<feColorMatrix type="matrix" values="0 0 0 0 0 0 0 0 0 0 0 0 0 0 0 0 0 0 0.25 0"/>
<feBlend mode="normal" in2="BackgroundImageFix" result="effect1_dropShadow"/>
<feBlend mode="normal" in="SourceGraphic" in2="effect1_dropShadow" result="shape"/>
</filter>
<linearGradient id="paint0_linear" x1="60.5091" y1="146" x2="60.5091" y2="-0.000495557" gradientUnits="userSpaceOnUse">
<stop stop-color="#634175"/>
<stop offset="1" stop-color="#686370"/>
</linearGradient>
<linearGradient id="paint1_linear" x1="61.2541" y1="141.452" x2="61.2541" y2="4.52951" gradientUnits="userSpaceOnUse">
<stop stop-color="#7A5E89"/>
<stop offset="1" stop-color="#787291"/>
</linearGradient>
<linearGradient id="paint2_linear" x1="55.494" y1="67.4882" x2="55.494" y2="57.847" gradientUnits="userSpaceOnUse">
<stop stop-color="#705F84"/>
<stop offset="1" stop-color="#4F4170"/>
</linearGradient>
<linearGradient id="paint3_linear" x1="557.79" y1="852.449" x2="557.79" y2="848.204" gradientUnits="userSpaceOnUse">
<stop stop-color="#705F84"/>
<stop offset="1" stop-color="#4F4170"/>
</linearGradient>
<linearGradient id="paint4_linear" x1="832.952" y1="1090.75" x2="832.952" y2="1080.62" gradientUnits="userSpaceOnUse">
<stop stop-color="#705F84"/>
<stop offset="1" stop-color="#4F4170"/>
</linearGradient>
<linearGradient id="paint5_linear" x1="354.73" y1="1353.56" x2="354.73" y2="1332.85" gradientUnits="userSpaceOnUse">
<stop stop-color="#705F84"/>
<stop offset="1" stop-color="#4F4170"/>
</linearGradient>
<linearGradient id="paint6_linear" x1="770.579" y1="2743.59" x2="770.579" y2="2651.31" gradientUnits="userSpaceOnUse">
<stop stop-color="#705F84"/>
<stop offset="1" stop-color="#4F4170"/>
</linearGradient>
<linearGradient id="paint7_linear" x1="303.672" y1="487.882" x2="303.672" y2="484.865" gradientUnits="userSpaceOnUse">
<stop stop-color="#705F84"/>
<stop offset="1" stop-color="#4F4170"/>
</linearGradient>
</defs>
</svg>
