<svg width="197" height="197" viewBox="0 0 197 197" fill="none" xmlns="http://www.w3.org/2000/svg">
<g style="mix-blend-mode:multiply" opacity="0.5">
<path d="M147.102 147.234C174.182 120.129 174.182 76.183 147.102 49.078C120.021 21.973 76.1146 21.973 49.0339 49.078C21.9532 76.183 21.9532 120.129 49.0339 147.234C76.1146 174.339 120.021 174.339 147.102 147.234Z" fill="#6746B3"/>
</g>
<path d="M164.161 115.543C173.108 78.2718 150.174 40.7978 112.935 31.8428C75.6973 22.8878 38.2568 45.8429 29.3099 83.1145C20.3629 120.386 43.2975 157.86 80.5356 166.815C117.774 175.77 155.214 152.815 164.161 115.543Z" fill="url(#paint0_linear)"/>
<path d="M120.354 153.461C151.674 140.783 166.796 105.092 154.129 73.7442C141.462 42.3958 105.804 27.2608 74.4833 39.939C43.1632 52.6173 28.0417 88.3079 40.7086 119.656C53.3755 151.005 89.034 166.14 120.354 153.461Z" fill="url(#paint1_linear)"/>
<path d="M154.116 109.468C161.536 78.4654 142.44 47.3134 111.466 39.8877C80.4918 32.4619 49.3677 51.5742 41.9486 82.5764C34.5295 113.579 53.6248 144.73 84.5991 152.156C115.573 159.582 146.697 140.47 154.116 109.468Z" fill="url(#paint2_radial)"/>
<path style="mix-blend-mode:screen" opacity="0.93" d="M152.814 109.781C160.233 78.7785 141.138 47.6265 110.163 40.2007C79.1892 32.7749 48.0651 51.8873 40.646 82.8894C33.2269 113.892 52.3222 145.044 83.2965 152.469C114.271 159.895 145.395 140.783 152.814 109.781Z" fill="url(#paint3_radial)"/>
<defs>
<linearGradient id="paint0_linear" x1="96.7446" y1="168.728" x2="96.7446" y2="29.9329" gradientUnits="userSpaceOnUse">
<stop stop-color="#8C3832"/>
<stop offset="1" stop-color="#AC4A31"/>
</linearGradient>
<linearGradient id="paint1_linear" x1="97.3652" y1="158.014" x2="97.3652" y2="35.559" gradientUnits="userSpaceOnUse">
<stop stop-color="#79658C"/>
<stop offset="0.99" stop-color="#4F3D70"/>
</linearGradient>
<radialGradient id="paint2_radial" cx="0" cy="0" r="1" gradientUnits="userSpaceOnUse" gradientTransform="translate(187.891 28.9933) rotate(0.130874) scale(201.801 110.564)">
<stop offset="0.01" stop-color="#786C8E"/>
<stop offset="0.95" stop-color="#806D98"/>
</radialGradient>
<radialGradient id="paint3_radial" cx="0" cy="0" r="1" gradientUnits="userSpaceOnUse" gradientTransform="translate(131.593 65.3459) rotate(0.130874) scale(117.668 64.4687)">
<stop offset="0.53"/>
<stop offset="0.91" stop-color="#786B8E"/>
</radialGradient>
</defs>
</svg>
