<svg width="201" height="253" viewBox="0 0 201 253" fill="none" xmlns="http://www.w3.org/2000/svg">
<g id="Group" filter="url(#filter0_d)">
<g id="Group_2">
<g id="Group_3">
<path id="Vector" fill-rule="evenodd" clip-rule="evenodd" d="M200.977 125.868V127.132C200.977 127.132 184.597 197.121 104.595 253C104.595 253 88.2154 244.529 67.1561 224.428C38.2469 196.558 15.4145 163.01 0.0936584 125.891C0.0936584 125.891 24.6396 55.9022 104.689 0.0231352L105.695 0.771932C110.211 3.55652 128.532 15.8415 150.153 41.4878V54.0536L124.414 94.3716L155.02 59.81L160.215 53.9834C176.693 76.1862 190.383 100.328 200.977 125.868V125.868Z" fill="url(#paint0_linear)"/>
<path id="Vector_2" fill-rule="evenodd" clip-rule="evenodd" d="M104.618 -1.90735e-06V11.0682C104.618 11.0682 47.6643 42.8921 7.41754 124.534L0.0701294 125.868C0.0701294 125.868 24.4289 52.3924 104.618 -1.90735e-06Z" fill="#D37B4F"/>
<path id="Vector_3" fill-rule="evenodd" clip-rule="evenodd" d="M150.153 41.3711V53.9368C136.694 37.9105 121.413 23.5081 104.618 11.0214V-1.90735e-06L105.695 0.7722C110.187 3.60359 128.743 16.3565 150.153 41.3711Z" fill="#CD6A46"/>
<path id="Vector_4" fill-rule="evenodd" clip-rule="evenodd" d="M200.977 125.868L194.542 126.477C194.542 126.477 183.217 95.2611 155.02 59.9038L160.215 54.0772C176.91 76.1042 190.616 100.244 200.977 125.868Z" fill="#CD6A46"/>
<path id="Vector_5" fill-rule="evenodd" clip-rule="evenodd" d="M104.618 253V240.879C104.618 240.879 170.44 202.526 194.542 126.5L200.976 125.868C200.976 125.868 184.269 202.55 104.618 253Z" fill="#590A43"/>
<path id="Vector_6" fill-rule="evenodd" clip-rule="evenodd" d="M7.41754 124.534C7.41754 124.534 31.8932 197.8 104.688 240.879V253C104.688 253 38.1174 221.691 0.0701294 125.868L7.41754 124.534Z" fill="url(#paint1_linear)"/>
<path id="Vector_7" fill-rule="evenodd" clip-rule="evenodd" d="M160.215 54.0772L148.492 56.581L124.414 94.4889L160.215 54.0772Z" fill="#630F46"/>
<path id="Vector_8" fill-rule="evenodd" clip-rule="evenodd" d="M178.022 177.091L172.523 173.042L86.7412 228.079L79.6278 234.865L87.3729 229.155L152.821 188.767L162.485 187.433L178.022 177.091Z" fill="#630F46"/>
<path id="Vector_9" fill-rule="evenodd" clip-rule="evenodd" d="M175.471 178.775L152.821 188.767L159.139 191.692L175.471 178.775Z" fill="#843134"/>
<path id="Vector_10" fill-rule="evenodd" clip-rule="evenodd" d="M142.315 74.2714L159.583 65.7538L160.215 54.0772L142.315 74.2714Z" fill="#843134"/>
<path id="Vector_11" fill-rule="evenodd" clip-rule="evenodd" d="M95.8903 16.7543L113.674 18.0881L104.782 6.90297L95.8903 16.7543Z" fill="#FC8B4F"/>
<path id="Vector_12" fill-rule="evenodd" clip-rule="evenodd" d="M12.659 114.262L10.8573 133.356L4.11829 124.534L12.659 114.262Z" fill="#FC8B4F"/>
<path id="Vector_13" fill-rule="evenodd" clip-rule="evenodd" d="M189.254 114.262L197.794 126.5L191.313 135.813L189.254 114.262Z" fill="#FC8B4F"/>
<path id="Vector_14" fill-rule="evenodd" clip-rule="evenodd" d="M91.4678 232.431L109.906 237.509L104.782 246.144L91.4678 232.431Z" fill="#843134"/>
<path id="Vector_15" opacity="0.2" fill-rule="evenodd" clip-rule="evenodd" d="M39.5214 182.051L176.22 90.2535L187.405 110.448L60.6977 206.551L39.5214 182.051Z" fill="#D9772F"/>
<path id="Vector_16" style="mix-blend-mode:multiply" opacity="0.2" fill-rule="evenodd" clip-rule="evenodd" d="M10.8339 133.356L142.315 45.2321L119.102 22.7447L44.8565 65.707C44.8565 65.707 22.3931 95.3547 12.7292 114.238L10.8339 133.356Z" fill="url(#paint2_linear)"/>
</g>
<path id="Vector_17" d="M100.687 186.146C133.292 186.146 159.724 159.714 159.724 127.108C159.724 94.5026 133.292 68.0704 100.687 68.0704C68.0822 68.0704 41.6507 94.5026 41.6507 127.108C41.6507 159.714 68.0822 186.146 100.687 186.146Z" fill="#630F46"/>
<path id="Vector_18" fill-rule="evenodd" clip-rule="evenodd" d="M150.809 107.055C160.613 135.462 146.409 168.971 118.049 178.775C89.6895 188.58 57.7962 170.983 47.9685 142.576C38.1408 114.168 54.9883 88.2177 83.3951 78.4132C111.802 68.6086 141.004 78.6471 150.809 107.055Z" fill="url(#paint3_radial)"/>
<path id="Vector_19" fill-rule="evenodd" clip-rule="evenodd" d="M126.473 78.343L143.929 71.9548L135.201 84.0993L126.473 78.343Z" fill="#630F46"/>
<g id="Vector_20" style="mix-blend-mode:multiply" opacity="0.4">
<path fill-rule="evenodd" clip-rule="evenodd" d="M133.142 117.234C127.737 122.101 102.091 101.883 102.068 93.0147C102.044 84.1461 117.231 81.6423 127.269 85.7373C137.307 89.8323 138.781 112.156 133.142 117.234Z" fill="#8275A0"/>
</g>
<g id="Group_4" opacity="0.53">
<g id="Vector_21" style="mix-blend-mode:multiply" opacity="0.4">
<path fill-rule="evenodd" clip-rule="evenodd" d="M54.9181 112.039C45.8158 116.415 51.8763 139.721 59.949 144.003C68.0218 148.285 80.5872 138.457 80.3298 128.021C80.0724 117.585 63.5759 107.897 54.9181 112.039Z" fill="#8275A0"/>
</g>
<g id="Vector_22" style="mix-blend-mode:multiply" opacity="0.4">
<path fill-rule="evenodd" clip-rule="evenodd" d="M74.5033 145.033C77.6856 137.802 82.9739 138.2 85.618 138.972C88.2621 139.744 85.3606 145.992 82.2251 147.396C79.0896 148.8 73.544 147.209 74.5033 145.033Z" fill="#8275A0"/>
</g>
<g id="Vector_23" style="mix-blend-mode:multiply" opacity="0.4">
<path fill-rule="evenodd" clip-rule="evenodd" d="M140.255 140.166C137.026 138.645 134.031 148.917 135.576 149.83C137.12 150.742 143.742 148.636 144.28 144.986C144.818 141.336 141.964 140.985 140.255 140.166Z" fill="#8275A0"/>
</g>
<g id="Vector_24" style="mix-blend-mode:multiply" opacity="0.4">
<path fill-rule="evenodd" clip-rule="evenodd" d="M133.306 135.439C129.117 133.403 134.944 113.209 140.326 111.056C145.707 108.903 150.762 117.327 150.762 124.3C150.762 131.274 137.705 137.592 133.306 135.439Z" fill="#8275A0"/>
</g>
<g id="Vector_25" style="mix-blend-mode:multiply" opacity="0.4">
<path fill-rule="evenodd" clip-rule="evenodd" d="M64.3481 95.5419C62.6867 101.602 70.5021 105.37 77.8027 102.726C85.1032 100.081 83.3483 85.5735 80.517 84.0057C77.6857 82.4379 66.4774 87.7497 64.3481 95.5419Z" fill="#8275A0"/>
</g>
<g id="Vector_26" style="mix-blend-mode:multiply" opacity="0.4">
<path fill-rule="evenodd" clip-rule="evenodd" d="M111.194 174.985C109.509 171.124 115.499 168.269 117.394 168.901C119.29 169.532 117.394 173.136 115.85 174.329C114.409 175.044 112.776 175.274 111.194 174.985V174.985Z" fill="#8275A0"/>
</g>
<g id="Vector_27" style="mix-blend-mode:multiply" opacity="0.4">
<path fill-rule="evenodd" clip-rule="evenodd" d="M99.096 106.61C102.068 101.766 109.906 106.212 110.655 108.95C111.404 111.688 105.975 112.32 103.448 111.43C100.921 110.541 99.096 106.61 99.096 106.61Z" fill="#8275A0"/>
</g>
</g>
<path id="Vector_28" style="mix-blend-mode:screen" fill-rule="evenodd" clip-rule="evenodd" d="M55.6669 104.457C55.6669 104.457 67.7175 77.992 103.495 77.992C139.273 77.992 146.901 106.774 147.79 117.959C147.79 117.959 135.435 123.084 114.54 114.285C93.644 105.487 92.0294 93.2253 80.5169 93.6699C69.0045 94.1145 57.4218 99.0519 55.6669 104.457Z" fill="url(#paint4_linear)"/>
<path id="Vector_29" style="mix-blend-mode:screen" opacity="0.96" fill-rule="evenodd" clip-rule="evenodd" d="M60.9551 155.071C60.9551 155.071 69.6129 179.384 102.068 179.384C134.523 179.384 145.918 148.707 145.918 148.707C141.31 156.195 134.86 162.379 127.184 166.668C119.507 170.957 110.861 173.208 102.068 173.206C71.672 173.206 60.9551 155.071 60.9551 155.071Z" fill="url(#paint5_linear)"/>
<path id="Vector_30" fill-rule="evenodd" clip-rule="evenodd" d="M129.679 85.1991C129.679 85.1991 125.42 91.0257 129.679 100.9C133.938 110.775 146.573 110.705 146.573 110.705C146.573 110.705 143.133 93.4827 129.679 85.1991Z" fill="white"/>
<path id="Vector_31" fill-rule="evenodd" clip-rule="evenodd" d="M77.8026 173.557C77.8026 173.557 80.9616 170.773 90.0171 171.943C92.4741 172.13 94.8506 172.903 96.9473 174.198C99.0439 175.493 100.8 177.271 102.068 179.384C93.6128 179.562 85.2549 177.555 77.8026 173.557V173.557Z" fill="white"/>
<path id="Vector_32" fill-rule="evenodd" clip-rule="evenodd" d="M76.5859 180.952C76.5859 180.952 85.1968 187.644 101.717 189.352C118.237 191.06 135.201 174.938 135.201 174.938C135.201 174.938 112.223 191.692 76.5859 180.952Z" fill="#A4B64F"/>
<path id="Vector_33" d="M150.926 107.008C155.536 120.583 155.205 135.351 149.989 148.707C147.388 155.402 143.5 161.523 138.547 166.724C133.58 171.943 127.538 176.019 120.839 178.67C114.14 181.321 106.944 182.483 99.7512 182.075C92.6285 181.662 85.6453 179.924 79.1598 176.95C66.0964 170.987 55.5328 160.639 49.3023 147.7C46.1638 141.233 44.4256 134.176 44.2012 126.991C44.009 119.707 45.5741 112.483 48.7641 105.931C51.9531 99.4379 56.4455 93.6708 61.9613 88.9899C67.4651 84.3395 73.7254 80.6671 80.4702 78.1323C93.885 72.5672 108.88 72.1423 122.589 76.9389C129.289 79.4487 135.33 83.4497 140.255 88.6389C145.085 93.9283 148.723 100.192 150.926 107.008V107.008ZM150.691 107.008C148.408 100.34 144.667 94.2646 139.741 89.2239C134.759 84.3342 128.712 80.6658 122.074 78.5067C108.685 74.4735 94.3148 75.1759 81.3827 80.4957C68.5365 85.4799 56.9539 94.5357 50.7999 107.008C47.712 113.208 46.1098 120.042 46.12 126.968C46.2104 133.937 47.7149 140.815 50.5424 147.186C56.2437 160.139 66.5616 170.508 79.4874 176.272C85.8422 179.16 92.7224 180.712 99.7018 180.833C106.681 180.954 113.611 179.64 120.062 176.974C132.933 171.412 143.166 161.104 148.632 148.192C151.452 141.772 153.108 134.903 153.523 127.904C153.898 120.846 152.937 113.78 150.691 107.078V107.008Z" fill="#FFFF3C"/>
<g id="Group_5">
<path id="Vector_34" fill-rule="evenodd" clip-rule="evenodd" d="M116.552 199.672C118.743 201.78 120.26 204.49 120.911 207.46C121.561 210.43 121.317 213.527 120.208 216.358C119.099 219.189 117.175 221.628 114.68 223.366C112.185 225.104 109.231 226.063 106.191 226.121C103.151 226.18 100.162 225.337 97.6018 223.697C95.0415 222.057 93.0249 219.694 91.8071 216.908C90.5893 214.122 90.2249 211.038 90.7601 208.044C91.2953 205.051 92.7061 202.284 94.8139 200.093C97.6437 197.16 101.521 195.468 105.596 195.389C109.671 195.31 113.611 196.85 116.552 199.672Z" fill="#630F46"/>
<path id="Vector_35" fill-rule="evenodd" clip-rule="evenodd" d="M115.335 200.935C117.281 202.805 118.628 205.21 119.207 207.846C119.785 210.482 119.569 213.23 118.585 215.743C117.602 218.256 115.895 220.421 113.681 221.964C111.467 223.507 108.845 224.358 106.147 224.41C103.449 224.463 100.796 223.714 98.5234 222.258C96.2511 220.803 94.4616 218.706 93.3812 216.233C92.3008 213.76 91.9781 211.022 92.4539 208.366C92.9296 205.709 94.1825 203.254 96.0541 201.31C98.562 198.704 102.002 197.202 105.617 197.131C109.233 197.061 112.728 198.429 115.335 200.935V200.935Z" fill="url(#paint6_radial)"/>
<path id="Vector_36" fill-rule="evenodd" clip-rule="evenodd" d="M102.77 200.795C103.261 203.462 107.917 203.93 108.83 202.433C109.743 200.935 107.847 198.97 106.35 198.899C104.852 198.829 102.653 200.163 102.77 200.795Z" fill="#FFFF98"/>
<g id="Vector_37" style="mix-blend-mode:soft-light">
<path fill-rule="evenodd" clip-rule="evenodd" d="M102.653 222.369C103.799 224.826 108.432 224.101 108.947 222.369C109.462 220.638 107.098 219.257 105.624 219.561C104.15 219.866 102.395 221.784 102.653 222.369Z" fill="white"/>
</g>
</g>
<g id="Group_6">
<path id="Vector_38" fill-rule="evenodd" clip-rule="evenodd" d="M116.552 31.9175C118.743 34.0256 120.26 36.736 120.911 39.7062C121.561 42.6763 121.317 45.7727 120.208 48.6038C119.099 51.435 117.175 53.8737 114.68 55.6116C112.185 57.3495 109.231 58.3085 106.191 58.3674C103.151 58.4263 100.162 57.5824 97.6019 55.9425C95.0416 54.3025 93.025 51.9402 91.8072 49.1541C90.5893 46.3681 90.225 43.2835 90.7602 40.2904C91.2954 37.2972 92.7061 34.5301 94.814 32.3387C97.6438 29.4057 101.521 27.7143 105.596 27.6353C109.671 27.5564 113.611 29.0963 116.552 31.9175Z" fill="#630F46"/>
<path id="Vector_39" d="M113.67 54.3335C119.878 50.0649 121.451 41.5715 117.182 35.363C112.914 29.1545 104.421 27.5819 98.2123 31.8505C92.004 36.1191 90.4314 44.6125 94.6999 50.821C98.9684 57.0295 107.462 58.6021 113.67 54.3335Z" fill="url(#paint7_radial)"/>
<path id="Vector_40" fill-rule="evenodd" clip-rule="evenodd" d="M102.77 33.0173C103.261 35.6849 107.918 36.1529 108.83 34.6553C109.743 33.1577 107.847 31.1921 106.35 31.1921C104.852 31.1921 102.653 32.4089 102.77 33.0173Z" fill="#FFFF98"/>
<g id="Vector_41" style="mix-blend-mode:soft-light">
<path fill-rule="evenodd" clip-rule="evenodd" d="M102.653 54.592C103.799 56.932 108.432 56.3236 108.947 54.592C109.462 52.8604 107.099 51.5032 105.624 51.8074C104.15 52.1116 102.395 54.0304 102.653 54.592Z" fill="white"/>
</g>
</g>
<path id="Vector_42" fill-rule="evenodd" clip-rule="evenodd" d="M97.9963 56.1832C97.9963 56.1832 99.8448 59.4592 106.397 60.0442C112.948 60.6292 116.973 53.656 116.973 53.656C115.557 55.1439 113.826 56.2964 111.907 57.0293C109.988 57.7621 107.929 58.0566 105.882 57.8914C99.0258 57.634 97.9963 56.1832 97.9963 56.1832Z" fill="#6DB690"/>
<path id="Vector_43" fill-rule="evenodd" clip-rule="evenodd" d="M96.9199 223.235C97.9467 224.727 99.2747 225.987 100.818 226.934C102.362 227.881 104.087 228.495 105.882 228.734C111.264 229.46 116.411 221.972 116.411 221.972C115.014 223.305 113.36 224.342 111.55 225.017C109.74 225.693 107.812 225.994 105.882 225.903C98.6748 225.903 96.9199 223.235 96.9199 223.235Z" fill="#6DB690"/>
<path id="Vector_44" style="mix-blend-mode:screen" opacity="0.96" fill-rule="evenodd" clip-rule="evenodd" d="M134.967 165.32L124.414 151.912C124.414 151.912 132.651 142.272 135.201 133.356L150.668 138.574C150.668 138.574 151.932 151.842 134.967 165.32Z" fill="url(#paint8_linear)"/>
</g>
</g>
<defs>
<filter id="filter0_d" x="-3.92987" y="-1.90735e-06" width="208.906" height="261" filterUnits="userSpaceOnUse" color-interpolation-filters="sRGB">
<feFlood flood-opacity="0" result="BackgroundImageFix"/>
<feColorMatrix in="SourceAlpha" type="matrix" values="0 0 0 0 0 0 0 0 0 0 0 0 0 0 0 0 0 0 127 0" result="hardAlpha"/>
<feOffset dy="4"/>
<feGaussianBlur stdDeviation="2"/>
<feComposite in2="hardAlpha" operator="out"/>
<feColorMatrix type="matrix" values="0 0 0 0 0 0 0 0 0 0 0 0 0 0 0 0 0 0 0.25 0"/>
<feBlend mode="normal" in2="BackgroundImageFix" result="effect1_dropShadow"/>
<feBlend mode="normal" in="SourceGraphic" in2="effect1_dropShadow" result="shape"/>
</filter>
<linearGradient id="paint0_linear" x1="100.477" y1="252.976" x2="100.477" y2="-0.000266769" gradientUnits="userSpaceOnUse">
<stop stop-color="#8C3832"/>
<stop offset="1" stop-color="#AC4A31"/>
</linearGradient>
<linearGradient id="paint1_linear" x1="-6.85488e-05" y1="188.767" x2="104.618" y2="188.767" gradientUnits="userSpaceOnUse">
<stop stop-color="#893928"/>
<stop offset="1" stop-color="#651D32"/>
</linearGradient>
<linearGradient id="paint2_linear" x1="10.8339" y1="77.992" x2="142.315" y2="77.992" gradientUnits="userSpaceOnUse">
<stop stop-color="#C77CBD"/>
<stop offset="1" stop-color="#974577"/>
</linearGradient>
<radialGradient id="paint3_radial" cx="0" cy="0" r="1" gradientUnits="userSpaceOnUse" gradientTransform="translate(100.072 109.173) rotate(-19.0505) scale(66.1735 66.1748)">
<stop offset="0.01" stop-color="#009F00"/>
<stop offset="0.11" stop-color="#05A100"/>
<stop offset="0.23" stop-color="#13A600"/>
<stop offset="0.37" stop-color="#2AAF00"/>
<stop offset="0.5" stop-color="#4BBB00"/>
<stop offset="0.65" stop-color="#75CB00"/>
<stop offset="0.79" stop-color="#A8DE00"/>
<stop offset="0.94" stop-color="#E3F500"/>
<stop offset="1" stop-color="#FFFF00"/>
</radialGradient>
<linearGradient id="paint4_linear" x1="101.717" y1="119.457" x2="101.717" y2="78.0154" gradientUnits="userSpaceOnUse">
<stop stop-color="#310045"/>
<stop offset="0.96" stop-color="#FFB500"/>
</linearGradient>
<linearGradient id="paint5_linear" x1="103.425" y1="179.384" x2="103.425" y2="148.707" gradientUnits="userSpaceOnUse">
<stop offset="0.04" stop-color="#E2FBEF"/>
<stop offset="1"/>
</linearGradient>
<radialGradient id="paint6_radial" cx="0" cy="0" r="1" gradientUnits="userSpaceOnUse" gradientTransform="translate(106.322 207.941) rotate(-46.1108) scale(14.9991)">
<stop stop-color="#00FF91"/>
<stop offset="1" stop-color="#00C7EF"/>
</radialGradient>
<radialGradient id="paint7_radial" cx="0" cy="0" r="1" gradientUnits="userSpaceOnUse" gradientTransform="translate(13397 -4475.59) rotate(-46.1108) scale(174.89 174.89)">
<stop stop-color="#00FF91"/>
<stop offset="1" stop-color="#00C7EF"/>
</radialGradient>
<linearGradient id="paint8_linear" x1="124.414" y1="149.338" x2="150.691" y2="149.338" gradientUnits="userSpaceOnUse">
<stop/>
<stop offset="0.96" stop-color="#0086FB"/>
</linearGradient>
</defs>
</svg>
