<svg xmlns="http://www.w3.org/2000/svg" xmlns:xlink="http://www.w3.org/1999/xlink" width="30.08mm" height="52.22mm" viewBox="0 0 85.26 148.03">
  <defs>
    <linearGradient id="a" x1="57.16" y1="74.74" x2="57.16" y2="148.03" gradientUnits="userSpaceOnUse">
      <stop offset="0" stop-color="#f9b233"/>
      <stop offset="0.15" stop-color="#f9b02f"/>
      <stop offset="0.29" stop-color="#f7a824"/>
      <stop offset="0.42" stop-color="#f59c11"/>
      <stop offset="0.51" stop-color="#f39200"/>
      <stop offset="0.83" stop-color="#e94e1b"/>
      <stop offset="0.94" stop-color="#e51b15"/>
      <stop offset="1" stop-color="#e30613"/>
    </linearGradient>
    <linearGradient id="b" x1="50.09" y1="32.68" x2="50.09" y2="145.54" xlink:href="#a"/>
    <linearGradient id="c" x1="27.47" y1="0" x2="27.47" y2="114.31" xlink:href="#a"/>
  </defs>
  <g>
    <g>
      <path d="M43.1,148s-15-11.39-5.77-30.86S63.09,92.5,74.65,81a40.68,40.68,0,0,0,5.12-6.3s2.46,13.72-8.78,23C49.12,115.83,40.12,128.74,43.1,148Z" style="fill: url(#a)"/>
      <path d="M68,100.27v0a92.33,92.33,0,0,0-20.79,18C37.64,129.51,43.1,148,43.1,148,40.27,129.65,48.32,117.06,68,100.27Z" style="fill: #12100b;opacity: 0.1"/>
    </g>
    <g>
      <path d="M28.44,145.54S5.33,128,19.56,98,59.22,60,77,42.39a63.42,63.42,0,0,0,7.89-9.71s3.77,21.13-13.53,35.44C37.7,96,23.86,115.84,28.44,145.54Z" style="fill: url(#b)"/>
      <path d="M66.79,72v0a142,142,0,0,0-32,27.78C20,117,28.44,145.54,28.44,145.54,24.07,117.24,36.48,97.85,66.79,72Z" style="fill: #12100b;opacity: 0.1"/>
    </g>
    <path d="M10.81,114.31A67.06,67.06,0,0,1,34.33,69.93S57.06,50.2,54.78,27.79c0,0-2.21,14.35-13.23,21.07S25.67,16.14,41.55,0c0,0-20.71,13.9-26.62,53.79,0,0-9-5.46-3.22-21.11,0,0-8.53,11.13-11.39,34.55C-1.74,84.13,6.63,89.11,10.81,114.31Z" style="fill: url(#c)"/>
    <path d="M29.13,74.74C9,85.67,10.81,114.31,10.81,114.31A67.31,67.31,0,0,1,29.13,74.75Z" style="fill: #12100b;opacity: 0.1"/>
  </g>
</svg>
