<svg width="556" height="403" viewBox="0 0 556 403" fill="none" xmlns="http://www.w3.org/2000/svg">
<g id="Group">
<path id="Vector" d="M487.76 15.32C391.5 -32.57 277.6 47.1 277.6 47.1C277.6 47.1 163.7 -32.57 67.43 15.32C-9.38999 53.55 -26.57 201.08 47.57 266.51C121.71 331.94 277.57 402.88 277.57 402.88C277.57 402.88 433.43 331.94 507.57 266.51C581.71 201.08 564.55 53.55 487.76 15.32Z" fill="#974577"/>
<path id="Vector_2" d="M474.26 32.2503C387.87 -10.7497 277.56 66.2503 277.56 66.2503C277.56 66.2503 172.02 -13.1597 84.08 26.5603C3.05176e-05 64.5603 -18.03 192.91 71.08 263.17C140.8 318.11 277.53 385.56 277.53 385.56C277.53 385.56 433.46 312.91 500.03 254.18C566.6 195.45 543.21 66.5603 474.26 32.2503Z" fill="#BACAD3"/>
<path id="Vector_3" opacity="0.3" d="M539.03 142.97C535.16 95.5 511.65 50.91 474.62 32.49C417.16 3.9 349.62 27.28 310.45 46.87C315.764 49.6762 320.556 53.3731 324.62 57.8C338.29 72.45 345.86 91.56 350.44 110.8C353.63 124.23 348.07 144.08 365.1 148.04C385.38 152.74 412.25 149.15 432.84 148.04C461.46 146.55 490.03 146.78 518.71 145.6C525.556 145.43 532.366 144.548 539.03 142.97V142.97Z" fill="white"/>
<path id="Vector_4" d="M533.24 112.26C506.69 108.46 479.79 118.7 452.52 122.58C398.25 130.28 347.88 111.18 293.95 111.77C265.95 112.08 238.56 119.22 211.15 123.36C178.82 128.24 148.65 124.36 117.15 115.77C91.15 108.72 65.15 98.9401 37.88 98.8701C31.782 98.8738 25.6902 99.2579 19.64 100.02C1.52001 153.13 15.32 219.9 71.13 263.89C140.85 318.89 277.58 386.29 277.58 386.29C277.58 386.29 433.51 313.63 500.08 254.91C539.14 220.43 547.21 161.76 533.24 112.26Z" fill="#E8391C"/>
<path id="Vector_5" d="M533.85 112.26C530.67 111.935 527.476 111.775 524.28 111.78C529.8 155.01 518.83 200.87 486.09 229.78C419.52 288.5 263.59 361.16 263.59 361.16C263.59 361.16 126.86 293.71 57.1401 238.77C44.3384 228.75 33.1397 216.836 23.9302 203.44C33.4802 225.76 49.0001 246.77 71.1201 264.2C140.83 319.15 277.56 386.59 277.56 386.59C277.56 386.59 433.5 313.97 500.06 255.2C539.14 220.71 547.81 161.76 533.85 112.26Z" fill="#D1311C"/>
<path id="Vector_6" d="M308.25 215.97C311.32 201.9 289.94 191.28 277.78 188.97C260.94 185.75 245.35 191.89 240.64 209.77C236.41 225.83 241.47 243.02 248.24 257.93C252.521 267.402 258.37 276.084 265.54 283.61C271.47 289.61 274.84 287.43 283.39 287.45C306.68 287.51 334.49 286.23 351.59 268.59C371.06 248.52 350.96 221.53 329.18 216.8C323.42 215.55 311.02 212.58 305.92 216.8L308.25 215.97Z" fill="#CE1602"/>
<path id="Vector_7" d="M355.88 236.97C356.02 243.31 353.72 249.79 348.01 255.67C330.91 273.32 303.1 274.6 279.81 274.53C271.25 274.53 267.88 276.72 261.96 270.69C254.79 263.164 248.941 254.482 244.66 245.01C243.09 241.56 241.66 238.01 240.33 234.35C242.051 242.482 244.706 250.387 248.24 257.91C252.521 267.382 258.37 276.064 265.54 283.59C271.47 289.59 274.84 287.41 283.39 287.43C306.68 287.49 334.49 286.21 351.59 268.57C361.31 258.56 361.17 246.82 355.88 236.97Z" fill="#B21104"/>
<path id="Vector_8" d="M291.91 210.56C291.047 208.849 289.789 207.368 288.24 206.24C282.96 198.74 267.63 198.06 261.37 203.75C253.75 210.69 255.61 231.37 259.71 239.75C267.4 255.37 274.21 236.93 280.09 231.01C286.76 224.24 297.56 222.17 291.91 210.56Z" fill="#F71706"/>
<path id="Vector_9" d="M206.17 231.8C204.8 229.99 203.42 228.17 202.09 226.32C202.51 227.04 202.94 227.74 203.39 228.41C204.224 229.613 205.153 230.747 206.17 231.8V231.8Z" fill="#F94926"/>
<path id="Vector_10" d="M533.85 112.26C507.29 108.46 505.89 113.811 478.63 117.691C424.36 125.391 373.98 106.291 320.05 106.881C292.05 107.191 239.16 119.22 211.76 123.36C179.42 128.24 149.26 124.36 117.76 115.77C91.7601 108.72 65.7601 98.9401 38.4801 98.8701C32.1828 98.8772 25.8916 99.2612 19.6401 100.02C23.3401 107.11 27.9901 113.63 35.2001 118.88C42.9501 124.53 51.3402 127.16 60.0502 128.6C58.4202 140.6 52.3902 152.04 53.4402 164.46C54.9902 182.84 72.6101 190.07 85.8501 198.86C99.8501 208.14 103.85 218.94 109.49 233.91C113.09 243.49 117.03 255.49 127.49 261.61C129.95 263.05 141.28 264.81 143.49 264.47C121.4 257.92 118.21 234.47 112.49 218.2C106.77 201.93 94.1701 193.85 80.4001 185.3C75.6301 182.3 69.4001 179.8 65.9601 175.18C62.1101 170.04 62.1801 163.1 62.1001 156.93C61.9701 147.18 66.8401 138.64 69.8601 129.8C75.6601 130.32 81.5401 130.62 87.4501 131.19C110.2 133.4 130.2 141.12 152.12 147.53C166.542 151.731 181.499 153.809 196.52 153.7C198.62 160.7 201.88 166.01 199.28 174.7C196.39 184.28 192.5 192.46 192.69 202.62C192.87 211.99 197.14 219.41 202.14 226.35C198.6 220.35 196.14 212.9 196.45 205.87C197.34 187.81 207.85 173.25 206.01 154.81C206.01 154.36 205.94 153.89 205.9 153.43C212.142 153.051 218.36 152.353 224.53 151.34C223.69 153.476 223.096 155.7 222.76 157.97C221.46 167.97 226.41 175.21 228.04 184.33C229.76 193.98 223.95 202.67 221.71 211.74C217.53 228.74 222.81 244.92 236.47 254.74C231.05 249.11 227.14 242.74 225.89 234.3C223.13 215.57 239.25 201.56 234.63 183.24C232.38 174.33 230.09 166.81 231.51 157.44C231.75 155.85 232.51 152.44 231.94 149.94H232.12C259.38 144.38 285.48 137.62 313.4 141.88C323.83 143.47 334.45 146.15 345.14 148.6C345.77 154.79 348.14 162.73 348.01 166.08C347.3 183.15 333.01 201.16 347.26 216.36C346.13 213.09 344.77 209.64 344.76 205.85C344.76 200.68 346.48 195.44 348.14 190.85C351.63 181.16 359.19 169.05 359.3 158.59C359.168 156.132 358.731 153.7 358 151.35C361.75 152.07 365.51 152.68 369.26 153.15C370.57 158.56 373.89 165.15 374.47 166.64C377.98 175.72 373.97 183.5 368.84 191.25C362.61 200.67 362.72 208.95 365.84 219.97C368.42 228.97 373.32 237.29 373.78 246.73C374.29 257.24 367.95 267.82 360.36 274.67C343.76 289.67 316.36 294.56 294.78 294.56H294.24C298.24 295.56 310.1 295.18 316.24 294.56C324.24 293.77 332.17 293.56 339.89 291.32C354.73 287 367.89 281.32 376.02 267.15C385.25 251.15 375.47 234.44 372.17 218.24C370.31 209.13 370.25 200.89 375.48 193.01C381.05 184.63 383.42 179.2 382.89 168.8C382.503 163.741 381.45 158.754 379.76 153.97C383.154 154.1 386.553 154.04 389.94 153.79C393.144 153.535 396.33 153.088 399.48 152.45C399.48 152.68 399.56 152.91 399.61 153.15C401.39 162 401.81 170.52 398.53 178.96C395 188.06 387.39 194.36 383.34 203.14C374.92 221.38 386.71 238.19 386.71 256.89L384.02 266.56C387.43 260.56 390.64 256.03 389.93 248.83C389.32 242.57 387 236.31 385.63 230C383.71 221.12 383.96 213.07 389.25 205.29C394.54 197.51 400.43 190.2 404.85 181.65C409 173.6 412.98 163.65 409.95 154.76C409.425 153.252 408.709 151.817 407.82 150.49C419.76 147.27 431.47 142.64 443.75 140.23C450.93 138.941 458.244 138.555 465.52 139.08C463.88 146.36 472.74 153.21 475.38 159.64C478.79 167.92 476.38 179.42 473.1 187.64C466.68 203.57 450.96 212.48 437.84 222.58C427.98 230.19 416.78 241.02 418.42 254.79L417.34 260.18C420.57 249.51 426.86 237.92 435.73 231.28C446.56 223.17 459.6 218.97 470.97 211.66C486.15 201.89 491.13 183.31 487.63 166.66C485.77 157.84 478.51 150.66 478.63 141.4C478.636 140.975 478.666 140.551 478.72 140.13C484.585 140.703 490.477 140.963 496.37 140.91C514.37 140.53 528.91 130.26 534.87 115.84C534.49 114.61 534.18 113.43 533.85 112.26Z" fill="#F94926"/>
<path id="Vector_11" opacity="0.6" d="M149.02 39.1602C139.9 35.2702 127.02 36.8802 115.45 42.6002L115 42.7302C100.24 47.1102 85.8601 60.7302 74.8001 75.6802C62.5701 92.1902 50.9701 113.29 48.1301 133.98C46.1301 148.79 48.9901 163.47 59.9001 167.07C69.2701 170.15 74.8301 159.16 80.2901 148.89C87.3801 135.58 93.4901 124.18 103.38 113.32C110.825 104.914 120.397 98.6682 131.09 95.2402C139.6 92.3302 152.3 87.7402 158.76 77.8102C170.3 60.1002 160.11 43.9002 149.02 39.1602Z" fill="white"/>
<path id="Vector_12" opacity="0.6" d="M80.3899 209.38C78.4699 200.3 66.95 179.68 56.18 180.38C48.18 180.89 46.3999 187.97 46.5099 194.88C46.5099 195.15 46.5099 195.42 46.5099 195.67C45.2099 204.31 49.5899 211.03 54.7499 218.06C58.9999 223.86 64.8399 232 73.0899 228.74C80.6599 225.76 81.7599 216.06 80.3899 209.38Z" fill="white"/>
</g>
</svg>
