<svg width="564" height="203" viewBox="0 0 564 203" fill="none" xmlns="http://www.w3.org/2000/svg">
<g clip-path="url(#clip0)">
<path d="M545.032 203L18.6376 202.009C15.4138 202.017 12.2437 201.182 9.44268 199.585C6.56917 197.951 4.18084 195.584 2.52179 192.724C0.862747 189.864 -0.00748625 186.615 3.30591e-05 183.309L0.302861 18.6173C0.317444 13.6699 2.29416 8.93048 5.79892 5.43985C9.30368 1.94921 14.0499 -0.0072982 18.9955 2.04587e-05L545.39 0.96395C550.338 0.97853 555.078 2.95509 558.572 6.46042C562.066 9.96576 564.028 14.7139 564.028 19.6639L563.725 184.355C563.703 189.303 561.725 194.041 558.222 197.534C554.72 201.028 549.978 202.993 545.032 203Z" fill="white"/>
<path d="M16.6831 196.913C13.4237 196.432 10.445 194.797 8.28794 192.306C6.13092 189.814 4.93871 186.632 4.92789 183.336L5.23071 18.6167C5.22637 15.8285 6.08199 13.1067 7.68085 10.8228C8.94919 9.01269 10.6345 7.53466 12.5943 6.51363C14.5541 5.49259 16.7309 4.95856 18.9405 4.95667L545.335 5.94816C545.976 5.89183 546.621 5.89183 547.262 5.94816C549.071 6.2018 550.809 6.82093 552.371 7.76785C553.932 8.71477 555.285 9.96967 556.347 11.4562C558.106 13.802 559.07 16.6483 559.1 19.5806L558.797 184.272C558.797 187.924 557.347 191.427 554.765 194.009C552.184 196.591 548.683 198.042 545.032 198.042L18.6377 197.078C17.9832 197.067 17.3302 197.012 16.6831 196.913V196.913Z" fill="#D2DADE"/>
<path d="M221.055 8.70797L12.1809 7.71638C11.4802 7.71754 10.7899 8.14355 10.1682 8.95846C9.54653 9.77336 9.01169 10.9533 8.6088 12.3987C8.09905 14.2292 7.82796 16.4143 7.83321 18.6509L7.71304 183.358C7.71383 185.29 7.9161 187.187 8.29957 188.86C8.68304 190.532 9.23421 191.921 9.8978 192.887C10.5617 193.851 11.3165 194.346 12.0826 194.32L220.968 195.284C222.126 195.284 223.238 194.123 224.057 192.057C224.877 189.991 225.337 187.188 225.337 184.266L225.457 19.5323C225.465 18.0804 225.357 16.6395 225.14 15.2945C224.923 13.9494 224.601 12.7276 224.194 11.7008C223.787 10.6741 223.302 9.86322 222.769 9.31611C222.235 8.76899 221.664 8.49665 221.088 8.51515L221.055 8.70797Z" fill="#D2DADE"/>
<path d="M22.2543 22.1547L22.2361 32.5924L53.5373 32.6471L53.5555 22.2093L22.2543 22.1547Z" fill="white"/>
<path d="M62.8767 22.2099L62.8585 32.6477L94.1596 32.7023L94.1778 22.2645L62.8767 22.2099Z" fill="white"/>
<path d="M103.539 22.3162L103.518 32.7539L134.82 32.814L134.84 22.3763L103.539 22.3162Z" fill="white"/>
<path d="M144.196 22.4534L144.176 32.8911L175.477 32.9513L175.497 22.5135L144.196 22.4534Z" fill="white"/>
<path d="M184.852 22.5367L184.832 32.9745L216.133 33.0346L216.153 22.5968L184.852 22.5367Z" fill="white"/>
<path d="M225.503 22.5958L225.485 33.0336L256.786 33.0882L256.804 22.6505L225.503 22.5958Z" fill="white"/>
<path d="M266.111 22.6752L266.091 33.113L297.42 33.1732L297.44 22.7354L266.111 22.6752Z" fill="white"/>
<path d="M306.692 22.6791L306.673 33.117L337.975 33.1716L337.993 22.7338L306.692 22.6791Z" fill="white"/>
<path d="M347.342 22.7626L347.324 33.2003L378.653 33.255L378.671 22.8173L347.342 22.7626Z" fill="white"/>
<path d="M387.991 22.8446L387.973 33.2824L419.274 33.3371L419.292 22.8993L387.991 22.8446Z" fill="white"/>
<path d="M428.628 22.8958L428.608 33.3335L459.909 33.3936L459.929 22.9559L428.628 22.8958Z" fill="white"/>
<path d="M469.346 23.0382L469.328 33.476L500.657 33.5307L500.675 23.0929L469.346 23.0382Z" fill="white"/>
<path d="M509.885 23.0382L509.867 33.476L541.169 33.5307L541.187 23.0929L509.885 23.0382Z" fill="white"/>
<g filter="url(#filter0_d)">
<path d="M22.21 39.7937L22.1715 61.826L53.4727 61.8806L53.5111 39.8483L22.21 39.7937Z" fill="#E9E3FF"/>
</g>
<g filter="url(#filter1_d)">
<path d="M62.8927 39.9308L62.8504 61.963L94.1515 62.0231L94.1938 39.9909L62.8927 39.9308Z" fill="#E9E3FF"/>
</g>
<g filter="url(#filter2_d)">
<path d="M103.522 39.9873L103.48 62.0196L134.781 62.0797L134.823 40.0475L103.522 39.9873Z" fill="#E9E3FF"/>
</g>
<g filter="url(#filter3_d)">
<path d="M144.186 40.0694L144.148 62.1016L175.449 62.1563L175.487 40.124L144.186 40.0694Z" fill="#E9E3FF"/>
</g>
<path d="M184.808 40.1527L184.766 62.1849L216.067 62.2451L216.109 40.2128L184.808 40.1527Z" fill="white"/>
<path d="M225.458 40.236L225.419 62.2682L256.72 62.3228L256.759 40.2906L225.458 40.236Z" fill="white"/>
<path d="M266.053 40.236L266.015 62.2682L297.316 62.3229L297.354 40.2907L266.053 40.236Z" fill="white"/>
<path d="M306.751 40.3733L306.708 62.4055L338.037 62.4657L338.079 40.4335L306.751 40.3733Z" fill="white"/>
<path d="M347.296 40.4015L347.258 62.4338L378.587 62.4885L378.625 40.4562L347.296 40.4015Z" fill="white"/>
<path d="M388.001 40.5387L387.962 62.5709L419.263 62.6255L419.302 40.5933L388.001 40.5387Z" fill="white"/>
<path d="M428.584 40.5117L428.542 62.544L459.843 62.6041L459.885 40.5718L428.584 40.5117Z" fill="white"/>
<path d="M469.323 40.6772L469.281 62.7095L500.582 62.7696L500.624 40.7373L469.323 40.6772Z" fill="white"/>
<path d="M509.868 40.6771L509.829 62.7094L541.131 62.764L541.169 40.7318L509.868 40.6771Z" fill="white"/>
<path d="M22.0431 156.762L22.0008 178.794L53.302 178.855L53.3443 156.822L22.0431 156.762Z" fill="white"/>
<path d="M62.6939 156.824L62.6555 178.856L93.9566 178.911L93.9951 156.879L62.6939 156.824Z" fill="white"/>
<path d="M103.33 156.899L103.287 178.931L134.588 178.992L134.631 156.959L103.33 156.899Z" fill="white"/>
<path d="M387.783 157.394H378.45L347.149 157.339L337.817 157.311L306.515 157.256L297.183 157.228L265.854 157.173H256.549L225.22 157.118L215.888 157.091L184.586 157.036L143.953 156.953L143.898 178.985L184.531 179.068L215.86 179.123H225.193L256.494 179.178L265.826 179.206L297.128 179.261L306.46 179.288L337.761 179.343L347.094 179.371L378.423 179.426H387.755L408.072 179.481H419.057L419.112 157.449H408.1L387.783 157.394Z" fill="white"/>
<path d="M428.421 168.512L428.402 179.529L459.703 179.583L459.722 168.567L428.421 168.512Z" fill="white"/>
<path d="M469.02 157.507L468.977 179.54L500.306 179.6L500.348 157.567L469.02 157.507Z" fill="white"/>
<path d="M509.638 168.596L509.618 179.612L540.919 179.667L540.939 168.651L509.638 168.596Z" fill="white"/>
<path d="M83.1111 69.1252L83.0688 91.1575L114.37 91.2176L114.412 69.1854L83.1111 69.1252Z" fill="white"/>
<path d="M123.768 69.1804L123.726 91.2127L155.027 91.2728L155.07 69.2405L123.768 69.1804Z" fill="white"/>
<path d="M164.429 69.3417L164.39 91.374L195.691 91.4286L195.73 69.3964L164.429 69.3417Z" fill="white"/>
<path d="M205.082 69.4292L205.039 91.4614L236.341 91.5215L236.383 69.4893L205.082 69.4292Z" fill="white"/>
<path d="M245.738 69.5125L245.695 91.5447L277.024 91.6049L277.066 69.5727L245.738 69.5125Z" fill="white"/>
<path d="M286.323 69.4788L286.284 91.5111L317.585 91.5658L317.624 69.5335L286.323 69.4788Z" fill="white"/>
<path d="M326.942 69.5676L326.9 91.5999L358.201 91.66L358.243 69.6277L326.942 69.5676Z" fill="white"/>
<path d="M367.653 69.7331L367.611 91.7653L398.912 91.8254L398.954 69.7932L367.653 69.7331Z" fill="white"/>
<path d="M408.298 69.8109L408.26 91.8432L439.561 91.8978L439.6 69.8656L408.298 69.8109Z" fill="white"/>
<path d="M448.838 69.7827L448.799 91.815L480.1 91.8697L480.139 69.8374L448.838 69.7827Z" fill="white"/>
<path d="M488.183 69.9604L488.14 91.9926L541.19 92.0945L541.232 70.0622L488.183 69.9604Z" fill="white"/>
<path d="M75.2111 91.1869L75.2386 69.1546L53.4902 69.1271L22.189 69.0445L22.1339 91.0768L53.4626 91.1594L75.2111 91.1869Z" fill="white"/>
<path d="M103.371 98.3639L103.333 120.396L134.634 120.451L134.673 98.4186L103.371 98.3639Z" fill="white"/>
<path d="M144.014 98.4568L143.971 120.489L175.273 120.549L175.315 98.5169L144.014 98.4568Z" fill="white"/>
<path d="M184.725 98.5952L184.682 120.628L215.984 120.688L216.026 98.6553L184.725 98.5952Z" fill="white"/>
<path d="M225.347 98.6948L225.309 120.727L256.61 120.782L256.649 98.7495L225.347 98.6948Z" fill="white"/>
<path d="M265.929 98.6787L265.887 120.711L297.188 120.771L297.23 98.7388L265.929 98.6787Z" fill="white"/>
<path d="M306.64 98.8158L306.598 120.848L337.899 120.908L337.942 98.8759L306.64 98.8158Z" fill="white"/>
<path d="M347.214 98.8333L347.176 120.866L378.477 120.92L378.516 98.8879L347.214 98.8333Z" fill="white"/>
<path d="M387.898 98.9813L387.856 121.014L419.157 121.074L419.2 99.0414L387.898 98.9813Z" fill="white"/>
<path d="M428.556 99.0376L428.514 121.07L459.842 121.13L459.885 99.0977L428.556 99.0376Z" fill="white"/>
<path d="M469.212 99.1197L469.17 121.152L500.471 121.212L500.513 99.1798L469.212 99.1197Z" fill="white"/>
<path d="M83.056 127.623L83.0137 149.655L114.315 149.715L114.357 127.683L83.056 127.623Z" fill="white"/>
<path d="M123.696 127.718L123.658 149.751L154.959 149.805L154.997 127.773L123.696 127.718Z" fill="white"/>
<path d="M164.342 127.788L164.3 149.821L195.601 149.881L195.644 127.849L164.342 127.788Z" fill="white"/>
<path d="M203.719 126.191V148.223H235.021V126.191H203.719Z" fill="white"/>
<path d="M245.617 127.939L245.578 149.971L276.88 150.026L276.918 127.994L245.617 127.939Z" fill="white"/>
<path d="M286.266 128.022L286.228 150.055L317.556 150.109L317.595 128.077L286.266 128.022Z" fill="white"/>
<path d="M326.831 128.01L326.788 150.042L358.089 150.103L358.132 128.07L326.831 128.01Z" fill="white"/>
<path d="M367.543 128.176L367.501 150.208L398.829 150.268L398.872 128.236L367.543 128.176Z" fill="white"/>
<path d="M408.105 128.188L408.067 150.22L439.368 150.275L439.406 128.242L408.105 128.188Z" fill="white"/>
<path d="M448.848 128.302L448.802 150.334L480.103 150.4L480.149 128.368L448.848 128.302Z" fill="white"/>
<path d="M75.1284 127.595L53.3799 127.568L22.0787 127.513L22.0237 149.545L53.3524 149.6L75.1008 149.627L75.1284 127.595Z" fill="white"/>
<path d="M507.647 128.394L493.497 128.366H488.018L487.963 150.398H493.442L541.04 150.509V139.492L541.068 128.476L541.123 99.2285L507.674 99.1734L507.647 128.394Z" fill="white"/>
<path d="M94.0413 120.435L94.0964 98.4028L64.5846 98.3752L22.1339 98.2926L22.0788 120.325L64.5571 120.408L94.0413 120.435Z" fill="white"/>
</g>
<defs>
<filter id="filter0_d" x="20.1715" y="38.7937" width="35.3396" height="26.0869" filterUnits="userSpaceOnUse" color-interpolation-filters="sRGB">
<feFlood flood-opacity="0" result="BackgroundImageFix"/>
<feColorMatrix in="SourceAlpha" type="matrix" values="0 0 0 0 0 0 0 0 0 0 0 0 0 0 0 0 0 0 127 0" result="hardAlpha"/>
<feOffset dy="1"/>
<feGaussianBlur stdDeviation="1"/>
<feComposite in2="hardAlpha" operator="out"/>
<feColorMatrix type="matrix" values="0 0 0 0 0 0 0 0 0 0 0 0 0 0 0 0 0 0 0.25 0"/>
<feBlend mode="normal" in2="BackgroundImageFix" result="effect1_dropShadow"/>
<feBlend mode="normal" in="SourceGraphic" in2="effect1_dropShadow" result="shape"/>
</filter>
<filter id="filter1_d" x="60.8504" y="38.9308" width="35.3434" height="26.0924" filterUnits="userSpaceOnUse" color-interpolation-filters="sRGB">
<feFlood flood-opacity="0" result="BackgroundImageFix"/>
<feColorMatrix in="SourceAlpha" type="matrix" values="0 0 0 0 0 0 0 0 0 0 0 0 0 0 0 0 0 0 127 0" result="hardAlpha"/>
<feOffset dy="1"/>
<feGaussianBlur stdDeviation="1"/>
<feComposite in2="hardAlpha" operator="out"/>
<feColorMatrix type="matrix" values="0 0 0 0 0 0 0 0 0 0 0 0 0 0 0 0 0 0 0.25 0"/>
<feBlend mode="normal" in2="BackgroundImageFix" result="effect1_dropShadow"/>
<feBlend mode="normal" in="SourceGraphic" in2="effect1_dropShadow" result="shape"/>
</filter>
<filter id="filter2_d" x="101.48" y="38.9873" width="35.3434" height="26.0924" filterUnits="userSpaceOnUse" color-interpolation-filters="sRGB">
<feFlood flood-opacity="0" result="BackgroundImageFix"/>
<feColorMatrix in="SourceAlpha" type="matrix" values="0 0 0 0 0 0 0 0 0 0 0 0 0 0 0 0 0 0 127 0" result="hardAlpha"/>
<feOffset dy="1"/>
<feGaussianBlur stdDeviation="1"/>
<feComposite in2="hardAlpha" operator="out"/>
<feColorMatrix type="matrix" values="0 0 0 0 0 0 0 0 0 0 0 0 0 0 0 0 0 0 0.25 0"/>
<feBlend mode="normal" in2="BackgroundImageFix" result="effect1_dropShadow"/>
<feBlend mode="normal" in="SourceGraphic" in2="effect1_dropShadow" result="shape"/>
</filter>
<filter id="filter3_d" x="142.148" y="39.0694" width="35.3396" height="26.0869" filterUnits="userSpaceOnUse" color-interpolation-filters="sRGB">
<feFlood flood-opacity="0" result="BackgroundImageFix"/>
<feColorMatrix in="SourceAlpha" type="matrix" values="0 0 0 0 0 0 0 0 0 0 0 0 0 0 0 0 0 0 127 0" result="hardAlpha"/>
<feOffset dy="1"/>
<feGaussianBlur stdDeviation="1"/>
<feComposite in2="hardAlpha" operator="out"/>
<feColorMatrix type="matrix" values="0 0 0 0 0 0 0 0 0 0 0 0 0 0 0 0 0 0 0.25 0"/>
<feBlend mode="normal" in2="BackgroundImageFix" result="effect1_dropShadow"/>
<feBlend mode="normal" in="SourceGraphic" in2="effect1_dropShadow" result="shape"/>
</filter>
<clipPath id="clip0">
<rect width="564" height="203" fill="white"/>
</clipPath>
</defs>
</svg>
