<svg width="90" height="54" viewBox="0 0 90 54" fill="none" xmlns="http://www.w3.org/2000/svg">
<g id="Layer 2">
<g id="Layer 1">
<path id="Vector" d="M85.94 26.53C86.73 25.78 87.26 25.82 88.27 24.32C89.28 22.82 87.55 22.17 86.27 22.85C83.07 24.54 83.5 24.92 84.04 22.22C84.37 20.61 83.96 20.02 83.59 19.86C82.42 19.36 81.98 20.29 81.32 22.3C80.9784 23.4952 80.5055 24.6489 79.91 25.74C79.91 25.74 74.09 29.6 69.61 33.18C69.77 34.85 69.92 36.54 70.06 38.26C70.12 38.94 76.55 31.35 76.6 32C80.38 28.18 79.01 30.9 82.26 29.61C82.26 29.61 84.1 29.61 85.7 29.61C86.62 29.61 89.22 29.61 89.17 28.07C89.12 26.53 85.55 26.9 85.94 26.53Z" fill="#721950"/>
<path id="Vector_2" d="M9.21001 33.54C8.59916 32.4593 8.10632 31.3161 7.74001 30.13C7.04001 28.13 6.58001 27.21 5.42001 27.73C5.05001 27.9 4.66001 28.5 5.01001 30.1C5.60001 32.79 6.01001 32.4 2.79001 30.77C1.51001 30.12 -0.309985 30.67 0.790015 32.28C1.89001 33.89 2.36001 33.71 3.16001 34.44C3.56001 34.8 1.45368e-05 34.44 -0.0299855 36.08C-0.0599855 37.72 2.54001 37.57 3.47001 37.55C5.07001 37.55 6.90001 37.45 6.90001 37.45C10.16 39.45 15.68 45.4 19.63 48.91C19.7967 46.1833 20.05 43.5167 20.39 40.91C15.79 37.79 9.21001 33.54 9.21001 33.54Z" fill="#721950"/>
<path id="Vector_3" d="M69.08 33.58C69.08 33.22 68.99 32.85 68.94 32.48C68.82 31.54 68.69 30.62 68.55 29.7C67.43 22.09 65.78 15.46 62.68 10.41C61.3994 8.28255 59.7543 6.39712 57.82 4.84C53.93 1.75 48.66 -4.2934e-06 41.4 -4.2934e-06C35.245 -0.124852 29.1998 1.64124 24.08 5.06C21.7847 6.65926 19.7362 8.58642 18 10.78C14.7733 14.9248 12.5148 19.7391 11.39 24.87C11.06 26.3 10.8 27.77 10.61 29.26C10.3648 31.2305 10.2412 33.2143 10.24 35.2C10.24 48.72 12.4 52.08 21.91 52.52C23.1337 52.5599 24.3587 52.5365 25.58 52.45C26.58 52.39 27.58 52.32 28.67 52.23C31.59 52 35 51.75 39 51.8C43 51.85 46 52.14 48.65 52.43L51.98 52.79C53.9679 53.0623 55.9785 53.1293 57.98 52.99C69.1 52 70.67 46.71 69.08 33.58Z" fill="#892B65"/>
<path id="Vector_4" d="M36.78 25.59C36.78 29.17 33.56 32.07 29.58 32.07C25.6 32.07 22.39 29.17 22.39 25.59C22.39 22.01 25.61 19.12 29.58 19.12C33.55 19.12 36.78 22 36.78 25.59Z" fill="#FFEED4"/>
<path id="Vector_5" d="M55.67 27C55.67 30.85 52.2 34 47.92 34C43.64 34 40.17 30.88 40.17 27C40.17 23.12 43.64 20 47.92 20C52.2 20 55.67 23.13 55.67 27Z" fill="#FFEED4"/>
<path id="Vector_6" d="M28.12 25.59C28.1527 26.4544 27.8436 27.2969 27.2597 27.9351C26.6757 28.5733 25.8639 28.9559 25 29C24.1316 28.9611 23.3141 28.579 22.7273 27.9377C22.1404 27.2965 21.832 26.4484 21.87 25.58C21.8348 24.7132 22.1443 23.8678 22.7309 23.2287C23.3175 22.5896 24.1334 22.2089 25 22.17C25.8657 22.2141 26.6791 22.598 27.2633 23.2384C27.8475 23.8788 28.1554 24.7239 28.12 25.59V25.59Z" fill="black"/>
<path id="Vector_7" d="M44.3 26.53C44.2554 27.034 44.0653 27.5142 43.7528 27.9121C43.4403 28.31 43.0188 28.6085 42.5397 28.7713C42.0606 28.934 41.5446 28.954 41.0543 28.8288C40.5641 28.7036 40.1208 28.4386 39.7785 28.0661C39.4361 27.6935 39.2094 27.2295 39.1259 26.7305C39.0425 26.2314 39.1059 25.7189 39.3084 25.2552C39.511 24.7915 39.8439 24.3967 40.2667 24.1189C40.6896 23.841 41.1841 23.692 41.69 23.69C42.4116 23.7238 43.0906 24.0411 43.5794 24.573C44.0682 25.1048 44.3272 25.8082 44.3 26.53V26.53Z" fill="black"/>
<path id="Vector_8" d="M39.48 43.28C39.48 43.28 39.48 45.38 39.27 45.1C38.9067 44.5171 38.573 43.9164 38.27 43.3C37.42 45.23 37.48 45.09 37.15 44.3C36.9 43.73 36.6 43.02 36.6 43.02C36.31 43.02 35.6 45.71 35.36 45.16C35.12 44.61 34.46 42.94 34.46 42.94C33.9038 43.3576 33.452 43.8984 33.14 44.52C33.7116 45.1692 34.4693 45.6266 35.31 45.83C35.6382 45.9039 35.9736 45.9407 36.31 45.94C37.7177 46.0353 39.1068 45.5759 40.18 44.66C39.94 43.94 39.64 43.24 39.48 43.28Z" fill="#F9FFD5"/>
<path id="Vector_9" d="M34.3 41.66C34.742 41.0411 35.1526 40.4003 35.53 39.74C35.82 39.19 37.36 39.43 37.71 39.43C37.71 39.43 36.81 41.06 37.1 40.49C37.49 39.73 37.89 39.26 38.43 41.49C39.01 40.49 39.19 39.95 39.43 39.6C39.67 39.25 40.3 41.33 40.31 41.33C40.55 41.33 41.06 39.95 41.37 38.93C41.3371 38.7446 41.2398 38.5768 41.0953 38.4561C40.9508 38.3354 40.7683 38.2695 40.58 38.27C39.5 38.27 39.11 38.99 37.3 39.16C36.2096 39.1695 35.1273 38.9727 34.11 38.58C33.7316 38.4322 33.3191 38.394 32.92 38.47C33.22 39.59 33.86 41.42 34.3 41.66Z" fill="#F9FFD5"/>
<path id="Vector_10" d="M41.55 40.7C41.5722 40.1282 41.515 39.5561 41.38 39C41.07 40 40.56 41.45 40.32 41.4C40.32 41.4 39.64 39.4 39.44 39.67C39.24 39.94 39.01 40.59 38.44 41.56C37.9 39.3 37.5 39.77 37.11 40.56C36.82 41.13 37.72 39.5 37.72 39.5C37.37 39.5 35.83 39.26 35.54 39.81C35.1626 40.4703 34.752 41.1111 34.31 41.73C33.87 41.49 33.23 39.66 32.94 38.57H32.86C32 39.22 32 40.9 32 41.8C31.9971 42.1068 32.0341 42.4127 32.11 42.71C32.2854 43.3968 32.6291 44.0292 33.11 44.55C33.423 43.9403 33.871 43.4102 34.42 43C34.42 43 35.01 44.52 35.32 45.22C35.63 45.92 36.32 43.08 36.56 43.08C36.56 43.08 36.86 43.79 37.11 44.36C37.44 45.12 37.38 45.26 38.23 43.36C38.533 43.9764 38.8667 44.5771 39.23 45.16C39.39 45.44 39.43 43.34 39.44 43.34C39.6 43.34 39.9 44 40.13 44.75C40.637 44.212 41.0254 43.5735 41.2701 42.8758C41.5147 42.1781 41.61 41.4369 41.55 40.7Z" fill="#070F1B"/>
</g>
</g>
</svg>
