<svg width="109" height="116" viewBox="0 0 109 116" fill="none" xmlns="http://www.w3.org/2000/svg">
<path d="M41.4167 77.7972C40.6571 77.9293 39.68 78.1118 39.0843 78.2188L39.1253 78.1779C39.182 78.1558 39.2072 78.1433 39.182 78.1464H39.1473C39.5811 77.5987 39.9473 77.0009 40.2379 76.3658C39.6525 77.0661 38.951 77.661 38.1639 78.1244C38.0599 78.1496 37.9559 78.1716 37.8487 78.1904C37.6124 78.1446 37.3847 78.0618 37.1742 77.9451C37.0923 77.8979 37.0135 77.8444 36.9347 77.7909C37.0156 77.64 37.0852 77.4834 37.1427 77.3222L37.1963 77.083C37.2247 76.9698 37.1774 77.0075 37.1963 76.9132C37.0418 76.9591 36.8851 76.9969 36.7267 77.0264C36.6592 77.0394 36.5905 77.0446 36.5218 77.0421C36.4898 77.0406 36.458 77.0353 36.4272 77.0264C36.3053 76.9995 36.1891 76.9516 36.0837 76.8848C35.8457 76.7358 35.6329 76.55 35.4533 76.3343C35.0659 75.8476 34.733 75.3201 34.4604 74.7613C34.0381 73.9276 34.2304 73.1883 34.1925 72.3294C34.2134 72.1824 34.2559 72.0393 34.3186 71.9047C34.5329 71.4737 34.8639 71.3007 35.0877 70.9231C35.4501 70.2939 36.2476 69.2935 36.3484 68.6926C35.6633 69.4964 34.8 70.1297 33.8269 70.5425L34.5235 69.9668C34.5235 69.9668 34.5676 69.9133 34.6212 69.8566C32.4684 69.2557 33.4676 65.3169 31.4945 64.134C31.8097 63.5772 31.8507 63.1902 31.712 62.9385C31.8097 62.863 31.9043 62.7844 32.002 62.7152C32.8136 62.1383 33.6552 61.6048 34.5235 61.117C35.0751 60.8024 35.4029 60.5979 35.4691 60.5507L34.0318 60.9849L32.9255 61.3341C32.8845 60.8936 32.6639 60.5067 32.645 60.0505C32.5851 60.4689 32.5788 60.9943 32.4653 61.4756L32.3833 61.5008L31.3747 61.8374L30.8295 62.0293C30.7097 62.0765 30.7065 62.0734 30.6813 62.0828L30.6088 62.1017V61.9916C30.6088 61.9916 30.6088 61.9727 30.6088 61.9444V61.872C30.5868 61.677 30.5552 61.4788 30.5206 61.2806C30.4512 60.8779 30.363 60.4689 30.2558 60.0536C30.0415 59.2262 29.761 58.3737 29.471 57.5054C29.2314 56.7818 29.0077 56.0802 28.8154 55.4007C29.2215 55.0109 29.5967 54.5901 29.9375 54.1423C29.433 54.1096 28.935 54.0112 28.4561 53.8497C28.4561 53.8182 28.4561 53.7836 28.434 53.749C28.2384 52.7204 28.2448 51.6637 28.4529 50.6376C28.6107 49.9306 28.8753 49.2517 29.2377 48.6241C29.4994 48.1774 29.679 47.9415 29.679 47.9352C29.5014 48.1033 29.3141 48.2608 29.118 48.4071C28.8748 48.5853 28.6045 48.7234 28.3174 48.816C28.1592 48.869 27.9982 48.9131 27.8351 48.9482L27.5925 48.9985H27.5609L27.5861 48.9765C27.6045 48.9613 27.6214 48.9445 27.6366 48.9262C27.6707 48.8917 27.7023 48.8549 27.7311 48.816C27.8195 48.68 27.8985 48.5381 27.9675 48.3913C28.0512 48.2166 28.169 48.0604 28.3142 47.932L28.5443 47.7558H28.2575C28.1694 47.7589 28.084 47.7873 28.0117 47.8376L27.8415 47.9446C27.7564 47.9949 27.6839 48.0579 27.5893 48.039C27.5483 48.0201 27.5326 47.9729 27.5042 47.9415L27.4191 47.803C27.3529 47.6898 27.293 47.5734 27.2363 47.4538C26.9987 46.9344 26.8098 46.3941 26.6721 45.8399C26.3569 44.6664 26.152 43.3231 25.8463 41.8979C25.7699 41.5269 25.6731 41.1604 25.5563 40.8C25.4954 40.6033 25.4163 40.4126 25.3199 40.2306C25.2615 40.1249 25.1906 40.0267 25.1088 39.938C24.9894 39.8145 24.8293 39.7385 24.658 39.724C24.4838 39.7185 24.3128 39.7717 24.1726 39.8751C24.0695 39.9477 23.9763 40.0333 23.8953 40.1299C23.8384 40.1913 23.7857 40.2565 23.7377 40.3249C23.703 40.0795 23.6746 39.8279 23.6494 39.5793C23.599 39.1546 23.5612 38.7205 23.5297 38.2863C23.5297 38.0692 23.5107 37.849 23.5013 37.6319V37.3173L25.7076 35.4958L23.558 36.7196L23.2428 36.6661C23.1564 36.6523 23.0711 36.6323 22.9875 36.6063C22.9089 36.5773 22.8321 36.5437 22.7574 36.5057C22.5996 36.4237 22.4506 36.3257 22.313 36.2131C22.0213 35.9748 21.7551 35.707 21.5187 35.414C21.0233 34.807 20.5794 34.1598 20.1918 33.4792L20.1288 33.3628V33.2999C20.1603 31.7269 21.4935 31.9219 21.96 30.61C21.5609 30.9399 21.0919 31.175 20.5886 31.2976C20.0852 31.4202 19.5604 31.4271 19.054 31.3179C18.6505 30.481 18.2849 29.641 17.9539 28.8011C17.647 28.0421 17.3819 27.2671 17.1597 26.4793L16.4978 24.2079C15.6625 21.238 14.9407 18.545 14.3387 16.2925C13.2166 12.1209 12.5863 9.39954 12.4885 9.02202C12.4879 9.01469 12.4879 9.00733 12.4885 9C12.4879 9.01153 12.4879 9.02308 12.4885 9.03461C12.539 9.68898 13.3238 16.8367 14.345 25.5386C14.6318 27.9768 15.3158 28.2128 15.6846 28.1498L14.6098 28.5808L15.2559 31.1952C15.2899 31.4705 15.3599 31.7402 15.4639 31.9974C15.5313 32.1484 15.6294 32.2838 15.752 32.3948C15.8747 32.5059 16.0192 32.5902 16.1763 32.6423C16.374 32.7048 16.5804 32.7356 16.7877 32.7336C16.7877 33.4068 16.6396 34.0266 16.0029 34.3286C16.5061 34.2342 16.9919 34.0634 17.4433 33.8221C17.2759 33.9845 17.1602 34.1927 17.1109 34.4205C17.0615 34.6483 17.0807 34.8856 17.166 35.1025C17.3362 35.0805 17.6734 35.1025 17.831 35.0805L17.9697 35.2032V35.2315C17.726 35.8691 17.3501 36.448 16.8665 36.9304L15.7382 38.0692C15.4312 38.3936 15.1429 38.7349 14.8745 39.0917V39.0917C14.8745 39.0917 11.9969 40.0355 12 40.0355C12.0032 40.0355 14.9628 39.2018 15.1519 39.2867C15.4698 39.3889 15.8091 39.4051 16.1353 39.3339C16.5198 39.2867 17.0178 39.2081 17.2259 39.4315C17.359 39.5782 17.4513 39.7572 17.4938 39.9506V39.9883C17.4938 39.9883 17.4938 39.9883 17.4938 40.0386C17.4938 40.089 17.4938 40.1865 17.4938 40.2557V40.6962C17.4981 40.9213 17.4651 41.1456 17.3961 41.36L17.1124 42.0552L17.8436 41.7815C17.9037 41.7648 17.9619 41.7416 18.017 41.7123L18.1399 41.6526C18.184 41.6305 18.1714 41.6526 18.1746 41.6526C18.1759 41.6641 18.1759 41.6757 18.1746 41.6872C18.1663 41.7347 18.1525 41.7812 18.1336 41.8256C18.0138 42.049 17.8814 42.2786 17.7743 42.4548C17.6655 42.6425 17.5377 42.8186 17.3929 42.9802C17.5596 43.0059 17.7241 43.0448 17.8846 43.0966C17.972 43.1297 18.0615 43.157 18.1525 43.1784C18.2711 43.2019 18.3932 43.2019 18.5118 43.1784C18.6415 43.1484 18.7689 43.1095 18.8932 43.062L19.1485 42.9676C19.1989 43.0903 19.3849 43.4835 19.5299 43.8516C19.6828 44.2537 19.8154 44.6632 19.927 45.0786C20.0575 45.5456 20.1627 46.0192 20.2422 46.4974C20.2832 46.746 20.3147 47.0008 20.3525 47.2619C20.3883 47.5119 20.3989 47.7649 20.3841 48.017C20.3462 48.7059 20.2548 49.4012 20.217 50.0619C20.1982 50.3888 20.1982 50.7165 20.217 51.0434C20.2268 51.2059 20.2457 51.3676 20.2737 51.5279C20.2921 51.6093 20.3163 51.6892 20.3462 51.767C20.3562 51.7885 20.3689 51.8086 20.3841 51.8268C20.3841 51.8268 20.3651 51.852 20.3525 51.8677L20.3242 51.8929L20.2548 51.9463C20.154 52.025 20.0563 52.0942 19.9554 52.1634C19.7568 52.2955 19.5614 52.4119 19.3723 52.5221C18.9909 52.7391 18.6505 52.9153 18.3637 53.06C17.8594 53.3149 17.5537 53.4879 17.4906 53.5256L16.8003 53.6452C15.8877 53.4094 15.0032 53.0761 14.1622 52.651C14.7131 53.0893 15.3141 53.461 15.9525 53.7584C15.7571 53.7931 15.6373 53.8182 15.6373 53.8214C15.8016 53.8389 15.967 53.8452 16.1321 53.8402C16.6837 54.1077 17.2322 54.3593 17.7081 54.633C18.7072 55.2056 19.8608 56.6276 20.7087 56.8353C20.7907 57.3103 20.6677 58.2195 20.8947 58.6631C20.9419 58.7512 21.793 59.6856 21.7898 59.673C22.1334 60.8653 22.2878 61.9287 21.4967 62.8001C21.2634 62.9385 21.0207 63.077 20.7591 63.2248C20.4975 63.3727 19.9838 62.9889 19.7316 63.1776C19.5835 63.2877 19.4385 63.7848 19.4164 63.8068C19.3156 63.854 19.1737 64.3354 18.9499 64.4518C18.786 64.5399 18.2502 64.3983 18.0044 64.5053C16.9769 64.9457 16.047 65.2855 15.1424 65.9178C16.4032 65.0936 18.7356 64.7601 20.154 64.8954C20.113 64.7003 20.154 64.414 20.1067 64.2662C20.4502 64.3826 20.9892 64.2473 21.3359 64.3542C21.288 64.1349 21.2606 63.9117 21.254 63.6873C22.3256 63.9138 23.3248 63.9107 24.242 63.3727C24.3957 63.6238 24.5674 63.8635 24.7557 64.09L24.8125 64.4046C25.1037 66.1977 25.5585 67.9605 26.1709 69.671C26.2497 69.8692 26.3317 70.0643 26.4199 70.253L26.5492 70.5362L26.5838 70.6054C26.5838 70.6306 26.5838 70.6243 26.5838 70.6306C26.5838 70.6368 26.5838 70.6526 26.6028 70.662C26.6217 70.6715 26.4326 70.8728 26.3191 71.0049L25.9409 71.4517L24.5288 73.0719C23.6589 74.0629 22.9781 74.884 22.5368 75.4691C22.1491 75.9788 19.7001 77.4637 19.6339 77.5392L21.8718 76.3878C22.3833 76.3517 22.8912 76.2759 23.391 76.1613C23.8543 76.0669 24.4027 75.9473 25.0079 75.79L25.4271 75.6768H25.4492C25.4492 75.6768 25.4775 75.6768 25.4807 75.6768C25.4838 75.6768 25.4807 75.6768 25.4807 75.7019C25.478 75.709 25.478 75.7169 25.4807 75.724C25.4618 75.7396 25.4439 75.7564 25.4271 75.7743L25.3452 75.853L24.7431 76.4161C24.6517 76.501 24.554 76.5828 24.4689 76.6583L24.3397 76.7622L24.2609 76.8156C24.233 76.8356 24.2076 76.8588 24.1853 76.8848C23.5895 77.4637 23.2397 77.8538 23.1798 77.9042L23.0001 78.0174C22.4612 78.332 21.0113 79.1248 21.254 79.0776L21.4683 78.9455L21.254 79.0776C21.4273 79.0493 24.1285 77.7028 24.3523 77.7626C24.4725 77.7954 24.583 77.8565 24.6746 77.9409C24.7662 78.0252 24.8362 78.1302 24.8787 78.2471C25.0581 78.7585 25.1226 79.303 25.0678 79.8421C24.8724 80.83 24.7999 81.7989 25.0678 82.5036C26.275 82.189 26.6658 84.1207 25.2065 84.5265C26.2812 84.4884 27.3516 84.6804 28.3458 85.0897C29.3638 85.4829 29.7294 86.3009 30.8893 86.0901C30.8421 87.4492 31.3022 88.8083 31.1005 90.2271C33.2564 89.7835 31.6962 92.1336 32.1533 92.9233C32.8025 94.0558 34.4069 93.7853 35.2453 94.6221C34.3344 95.6037 33.6693 96.9691 34.4352 98.2023C34.6997 98.1184 34.9569 98.0132 35.2043 97.8877C35.7192 98.5515 36.3789 99.0895 37.1333 99.4607C38.0221 99.8697 39.0843 99.7501 39.888 100.59C41.0259 101.779 42.2519 104.391 42.9138 105.992C44.3637 109.487 47.9128 112.303 49.4824 115.936C48.6188 113.81 47.4904 111.847 46.7718 109.688C45.9271 107.14 44.121 104.724 43.1502 102.138C42.5199 100.442 41.8485 97.5259 41.382 95.3866C41.174 94.4428 41.1771 93.0869 41.0668 92.184C41.0132 91.6995 42.3591 89.8087 40.1811 90.2523C39.6831 87.6411 37.7605 85.6622 37.3129 82.9221C38.6241 82.8025 38.4697 81.8272 37.2814 81.4088C37.6186 80.9495 37.9118 80.465 38.1986 80.0214H38.3152C38.4986 79.9329 38.6774 79.8353 38.851 79.7289C39.2419 79.4898 43.3047 77.7028 43.5222 77.4574C43.7901 77.1648 42.4537 77.5046 41.4167 77.7972Z" fill="black"/>
<path d="M16.5257 66.2898L16.5169 66.2927H16.5228L16.5257 66.2898Z" fill="black"/>
<path d="M52.7322 2.49481L52.7606 2.51998C52.7537 2.50912 52.7439 2.5004 52.7322 2.49481V2.49481Z" fill="black"/>
<path d="M65.86 36.8997C65.2706 37.1608 64.5834 37.51 63.8081 37.919C63.4172 38.1235 63.0075 38.3406 62.5725 38.5482C62.355 38.6552 62.1313 38.7621 61.898 38.8628L61.7247 38.9415C61.7048 38.9517 61.6836 38.9591 61.6616 38.9635C61.6333 38.9635 61.5986 38.9918 61.5828 38.9824C61.5828 38.9037 61.6143 38.9824 61.545 38.6331C61.4818 38.3867 61.3909 38.1482 61.2739 37.9221C61.0211 37.467 60.7025 37.0514 60.3284 36.6889C59.5845 35.9401 59.4458 34.6157 58.5822 33.9487C58.1347 33.6058 56.9527 33.9487 56.606 33.5743C56.4367 33.3993 56.2915 33.2025 56.1742 32.9892C56.1181 32.8905 56.0757 32.7846 56.0481 32.6746C56.0303 32.6192 56.0176 32.5624 56.0103 32.5047C56.0103 32.3914 55.9914 32.2687 55.9819 32.1429L55.5879 32.0265L55.383 31.9604C55.2538 31.9132 55.134 31.8692 55.0143 31.8157C54.7778 31.7145 54.5483 31.5978 54.3272 31.4665C54.1065 31.3344 53.8985 31.1959 53.6968 31.0512L53.432 30.853L53.3564 30.7995L53.4226 30.7366L53.6842 30.529L54.2484 30.098L55.2853 29.2926C55.9346 28.7829 56.4894 28.3142 56.9275 27.9209C57.7533 27.1816 58.2071 26.7003 58.267 26.6437L57.6366 27.0275C57.0239 27.4102 56.3719 27.7266 55.6919 27.9713C55.2042 28.1413 54.6949 28.2419 54.179 28.2701C53.5742 28.2944 52.969 28.2309 52.3824 28.0814L52.2437 28.0468C52.228 28.0468 52.1807 28.0468 52.1965 28.0185L52.2154 27.9524L52.2627 27.7951L52.3288 27.5529L52.5778 26.5587C52.6629 26.2189 52.7544 25.8729 52.8615 25.5237C52.9183 25.3381 52.9561 25.2091 53.079 24.8945C53.1862 24.6145 54.3744 23.1295 54.4627 22.8716C54.1475 23.0163 52.6976 24.3722 52.3635 24.4446C52.3025 24.463 52.2404 24.4777 52.1776 24.4886L52.0326 24.5138C51.9286 24.5138 51.8245 24.539 51.7174 24.5453C51.2933 24.5615 50.8691 24.5191 50.4566 24.4194C49.5779 24.185 48.7411 23.8157 47.9761 23.3246C47.1596 22.8118 46.3897 22.2286 45.6752 21.5817C45.3033 21.2671 44.9408 20.9116 44.5941 20.5467C44.4176 20.3705 44.2474 20.1817 44.0803 19.9961L43.8471 19.735H43.866L43.9007 19.7161C43.9536 19.6872 44.0024 19.6512 44.0456 19.6092L44.2127 19.455L44.1181 19.2474C43.9345 18.8662 43.6528 18.5406 43.3018 18.3036C42.9539 18.0897 42.5841 17.9136 42.1986 17.7782C41.8571 17.6587 41.5287 17.5048 41.2184 17.3188C40.9125 17.1201 40.6208 16.9004 40.3453 16.6613C40.0385 16.3511 39.7601 16.0142 39.5132 15.6546C39.2327 15.2865 38.9333 14.931 38.6244 14.5944C38.0077 13.9357 37.3497 13.3168 36.6544 12.7414C36.5756 12.6753 36.4937 12.6155 36.4181 12.5495C36.5385 12.3555 36.6157 12.138 36.6445 11.9117C36.6733 11.6853 36.6531 11.4554 36.5851 11.2376C37.1146 11.4106 37.931 11.2061 38.4573 11.3823C38.5929 11.2093 38.533 10.9796 38.6244 10.7814C39.6614 10.8412 40.566 10.3221 41.2751 9.52301C41.1774 9.52301 41.086 9.55447 40.9915 9.5702C41.6565 9.23357 42.3688 8.94099 43.0307 8.57605C42.2309 8.95152 41.3853 9.22121 40.5155 9.37829L40.2571 9.7275C37.8931 10.1931 36.0556 10.816 33.4931 10.3001C33.2 10.0767 32.91 9.85334 32.6263 9.62683C31.3656 8.65471 30.2246 7.62281 29.1214 6.71046C28.0182 5.79812 26.9781 4.93925 25.9979 4.19365C24.0437 2.70873 22.3322 1.63593 21.0305 1.09796C20.5342 0.877761 20.0105 0.725378 19.4734 0.644935H19.4482C18.9735 0.404416 18.4864 0.189136 17.9889 0C18.0866 0.0471903 18.509 0.248536 19.1677 0.629204C18.9912 0.629204 18.8998 0.629204 18.8998 0.629204C18.9964 0.62427 19.0932 0.62427 19.1898 0.629204C20.212 1.23329 21.1933 1.90379 22.1273 2.63637C23.515 3.72084 24.832 4.89248 26.0704 6.14418C26.7669 6.84574 27.4761 7.60079 28.1758 8.40302C28.5257 8.80571 28.8787 9.22414 29.216 9.66143C29.5607 10.0798 29.8716 10.5247 30.1458 10.9922C30.2381 11.1545 30.2991 11.3328 30.3254 11.5176C30.3297 11.5716 30.3199 11.6258 30.2971 11.6749C30.2861 11.6927 30.2722 11.7087 30.2561 11.7221V11.7221C30.245 11.7318 30.2322 11.7393 30.2183 11.7441C30.1536 11.7741 30.0843 11.7932 30.0134 11.8007L29.8779 12.0839L29.7486 12.367C29.8716 12.496 30.0165 12.6218 30.1552 12.7445L30.3853 12.9427L30.8329 13.3014L31.7186 13.9872L33.4301 15.2676C33.9816 15.6798 34.5112 16.0825 35.006 16.4789L35.5765 16.9539L35.6994 17.0577L35.7719 17.1238C35.7719 17.1238 35.794 17.1427 35.794 17.149H35.7625C35.6705 17.1363 35.5779 17.129 35.4851 17.1269H35.2046H34.8421C34.3662 17.1269 33.9186 17.1647 33.4962 17.2087C32.7804 17.2839 32.0692 17.3973 31.3656 17.5485C30.7715 17.6665 30.1844 17.8166 29.6068 17.9984H29.5753C29.5753 17.9984 30.7163 18.0645 32.5507 18.3759C33.6273 18.5448 34.6835 18.8241 35.7026 19.2096C36.2703 19.4089 36.7786 19.7475 37.1808 20.1943C37.3428 20.4099 37.4191 20.6778 37.3951 20.9462C37.3862 21.0165 37.3714 21.086 37.351 21.1538V21.2042L37.3258 21.286C37.2948 21.3677 37.259 21.4475 37.2186 21.5251C37.0327 21.8397 36.749 22.2675 36.5347 22.6073L37.6473 22.1826C37.8123 22.1292 37.9808 22.0872 38.1516 22.0568C38.2399 22.0568 38.3344 22.0222 38.4416 21.9938C38.6561 21.9314 38.8548 21.8242 39.0247 21.6792L39.135 21.5849L39.1697 21.6226L39.425 21.912C39.1508 22.2896 38.7284 22.5664 38.6811 23.0792C38.574 24.1646 39.2957 23.894 39.778 24.432C40.2602 24.97 39.8662 25.6495 41.0072 25.6432C41.0576 26.5304 41.1049 27.5057 41.7385 28.223C41.6984 28.4016 41.6489 28.578 41.5903 28.7515C41.7563 28.7728 41.9205 28.8054 42.082 28.849C41.0356 30.1483 39.7622 30.9852 38.4825 32.0485C38.9803 31.7723 39.5317 31.606 40.0995 31.5609C39.9576 31.715 39.8725 31.822 39.8442 31.8598C40.1457 31.7055 40.4626 31.5832 40.7897 31.4948C42.0505 31.4193 43.4405 31.5294 44.1749 31.4948C43.7633 31.8028 43.3823 32.1494 43.037 32.5299C43.1694 32.4103 43.5067 32.2341 43.6895 32.102C43.9826 32.2373 44.3451 32.1932 44.6161 32.3002L44.7012 32.0831C46.5924 32.8759 46.0408 35.5972 46.3938 37.0601C46.7468 37.0601 47.0242 37.3055 47.3173 37.3496C47.1976 37.5415 47.2165 37.897 47.1061 38.0889C47.248 38.0889 47.3488 38.0291 47.5033 38.0291C46.9328 38.6394 45.8927 39.2623 45.1457 39.7626C46.211 39.6147 47.3867 38.9383 48.515 39.0673C49.7569 39.2057 49.9901 40.1244 50.4661 41.2695C49.697 41.6816 48.7294 42.5279 48.556 43.3427C47.995 43.283 48.058 43.2861 47.8973 43.931C47.302 43.9438 46.7358 44.1902 46.3213 44.6169C45.6216 43.7549 45.5144 42.4744 44.8116 41.5023C44.8494 42.5594 45.8107 43.9814 45.9305 45.1926C45.8601 45.3454 45.7516 45.4775 45.6153 45.5764C45.4325 45.3059 45.2056 45.0321 45.029 44.7396C45.0786 45.091 45.1631 45.4367 45.2812 45.7715L45.2339 45.7935C45.4482 46.2371 45.278 46.6618 44.9187 47.0519L45.0259 47.0173C44.6384 47.3638 44.2084 47.6598 43.7462 47.8982C44.1765 47.675 44.5716 47.3898 44.9187 47.0519C43.7746 47.4389 42.4981 48.3606 41.7448 48.7287C42.3701 48.5361 42.9775 48.2897 43.5603 47.9926C44.2915 47.8478 45.9179 47.4389 45.8548 46.8757C46.1526 46.8655 46.444 46.964 46.6743 47.1526C46.5703 46.9418 46.5546 46.4793 46.4222 46.2276C48.4079 45.416 50.4314 44.3809 52.4108 43.5472C52.2802 43.8238 52.1103 44.0802 51.9065 44.3086L50.6836 45.5292C49.8735 46.2528 48.9815 46.9481 48.4394 47.3917C49.3358 47.0792 50.2492 46.8177 51.1753 46.6083C51.1286 46.7297 51.0928 46.855 51.0681 46.9827C51.2388 46.9851 51.408 47.0149 51.5692 47.0708C51.4643 47.2854 51.4022 47.5183 51.3864 47.7566C51.4057 48.0947 51.4769 48.4279 51.5976 48.7445C51.6449 48.8892 51.6827 49.0307 51.7174 49.1723C51.5993 50.163 51.5993 51.1641 51.7174 52.1547C51.6985 52.2837 51.6827 52.4127 51.6733 52.5386C51.6315 52.838 51.6052 53.1393 51.5945 53.4415C50.8692 54.5772 50.0238 55.6319 49.0729 56.5875C48.2787 57.1097 47.5506 57.8176 46.7941 58.3084C47.5443 58.107 48.1179 57.6257 48.7987 57.3646C49.3566 57.1601 50.1856 57.2261 50.5228 56.9021C50.7078 56.9987 50.8812 57.1158 51.0397 57.2513C50.9687 57.6815 50.9687 58.1204 51.0397 58.5506C51.0771 58.731 51.1331 58.9071 51.2068 59.076C51.2068 59.1326 51.2068 59.1861 51.2068 59.2396C51.4133 58.5631 51.6769 57.9053 51.9947 57.2733C52.2532 56.7542 52.5778 56.2603 52.8773 55.7664C52.8837 55.7576 52.889 55.7481 52.893 55.7381C52.761 55.526 52.6602 55.2961 52.5936 55.0554C52.8417 55.5442 53.1385 56.0069 53.4793 56.4365C53.8638 56.9178 53.8449 57.6949 54.4249 58.0881C54.7873 58.343 55.7392 58.0535 55.9346 58.2423C56.8802 59.1515 56.2813 59.6706 57.0472 61.0297C58.4278 60.6836 58.1693 61.92 58.9195 62.1025C59.7378 62.3081 60.5934 62.3167 61.4158 62.1276C61.0817 63.0714 59.9092 64.2575 58.8092 64.8489C60.8012 63.9775 63.1651 63.9051 64.4983 65.088C64.1075 64.8143 65.5857 67.4192 65.5952 67.0354C65.57 67.9069 64.6055 68.7374 63.9499 69.203C64.5803 69.7788 64.4038 70.0399 65.3903 69.892C66.6889 73.4439 67.6345 76.6748 68.8007 80.5004C71.3506 79.3364 73.7838 83.8289 74.9122 85.4428C75.7254 86.6005 79.8891 90.9704 76.983 91.8701C79.1893 91.6247 81.6163 99.0399 82.1837 101.053C81.9851 99.1028 80.9702 96.9321 80.6077 95.0004C80.2439 92.9165 79.7062 90.8665 79.0002 88.872C78.2217 86.7673 78.1303 84.8828 77.8939 82.7907C77.6544 80.6262 78.2438 78.9746 75.946 77.7917C76.1219 77.4033 76.1439 76.9629 76.0077 76.559C75.8714 76.1551 75.587 75.8177 75.2117 75.6146C77.8939 74.309 79.2744 73.4785 82.3475 73.0978C80.5825 72.6951 76.8601 73.0412 75.218 73.7836C74.7704 72.3491 73.434 71.2196 73.8185 69.6655C72.9011 69.8756 71.9717 70.029 71.0354 70.1248C71.7004 69.0929 73.2165 68.0673 72.6271 66.6107C72.4002 66.6107 72.2394 66.7491 72.0125 66.7743C71.8202 64.3047 74.6254 65.3208 72.728 62.738C71.5365 61.1209 70.3987 60.2463 69.4689 58.2895C69.201 57.7263 68.7061 56.6221 68.4855 56.2414C68.3594 56.0212 68.4414 55.436 68.1955 55.0302C67.8803 54.4797 67.2878 54.7534 66.9001 54.2815C66.1342 53.3565 64.6244 50.8837 65.5416 49.5089C64.388 48.3355 64.8135 46.9481 65.6961 45.9067C66.1595 45.8963 66.6231 45.9205 67.0829 45.9791L67.0293 45.9351L66.4966 45.5041L66.2476 45.3027C66.213 45.265 66.1941 45.2555 66.1941 45.2461L66.2287 45.2209L66.2729 45.1611C66.3032 45.1168 66.3305 45.0706 66.3548 45.0227C66.4597 44.8203 66.4899 44.5875 66.4399 44.3652C66.3422 44.0065 65.0026 44.3935 64.3565 44.4218L63.8459 43.8461C63.8648 43.2924 64.2336 42.5877 63.723 42.3801C63.3447 42.229 62.9697 42.0969 62.6009 41.9679L62.0493 41.7917L61.9138 41.7477H61.898C61.898 41.7477 61.898 41.7477 61.9169 41.7131C61.9894 41.5935 62.0682 41.4771 62.1502 41.367C62.315 41.1469 62.4929 40.9368 62.6828 40.7378C63.052 40.3539 63.4469 39.9954 63.8648 39.665C64.6654 39.0358 65.4408 38.4853 66.0396 37.9945C66.693 37.4952 67.2789 36.9136 67.7826 36.2642V36.2642C67.1247 36.4208 66.4815 36.6334 65.86 36.8997Z" fill="black"/>
<path d="M99.3709 55.7884C98.605 55.1592 98.3213 54.2374 97.9116 52.4096C96.4018 52.6833 95.9826 51.2141 96.7391 50.113C96.446 50.1381 96.1087 50.0752 95.8313 50.113C96.1182 49.597 96.1465 48.9961 96.6729 48.54C95.1442 47.7503 93.7984 47.3225 92.7929 46.1018C92.7929 44.6798 91.5574 44.7805 90.8797 43.8241C90.8482 43.78 90.823 43.7297 90.7946 43.6825C90.8419 43.5567 90.8955 43.4277 90.9553 43.3018C90.8513 43.2389 90.7442 43.176 90.6402 43.1036C90.5361 43.0313 90.5078 43.0061 90.4195 42.9495C90.1831 42.3769 89.9972 41.732 89.8049 41.1468C89.9541 40.7698 90.1422 40.4092 90.3659 40.0709C90.6118 39.6839 90.8892 39.3033 91.1697 38.9037C91.3084 38.7055 91.447 38.4979 91.5794 38.2745C91.6263 38.2012 91.6694 38.1256 91.7087 38.048C91.7591 37.963 91.8001 37.8718 91.841 37.7869C91.916 37.6162 91.9822 37.4419 92.0396 37.2646L91.3872 37.3275L91.0499 37.3779L90.8104 37.4251C90.5244 37.4909 90.2432 37.576 89.9688 37.6799C89.4267 37.875 88.8972 38.2368 88.5126 38.1518C88.2786 38.0897 88.0626 37.9732 87.8822 37.812C87.6726 37.6386 87.4746 37.4516 87.2897 37.252C86.9282 36.8418 86.6345 36.3766 86.4198 35.8741C86.1613 35.3613 89.351 31.8409 89.351 31.8409C86.2559 33.9424 85.1685 34.1092 85.0424 34.0116L84.9352 33.8858C84.8848 33.8229 84.8312 33.7663 84.7776 33.7065C84.5619 33.4729 84.3325 33.2522 84.0905 33.0458C83.6114 32.6274 83.1134 32.2499 82.6627 31.8377C82.5555 31.7339 82.4452 31.627 82.3475 31.5231L82.2088 31.3753L82.2687 31.3375C82.399 31.2563 82.5232 31.1658 82.6406 31.067L82.9558 30.7807C82.7256 30.6173 82.4856 30.4681 82.2372 30.3339C82.1805 30.3025 82.0859 30.2616 82.0544 30.2459L81.9378 30.1987L81.7014 30.1137C81.3862 30.0068 81.071 29.925 80.7747 29.8369C80.4831 29.76 80.1967 29.6643 79.9174 29.5506L79.7157 29.4594L79.6369 29.4216L79.7031 29.3713L79.7913 29.2895L79.9552 29.1385L80.242 28.871L79.9268 28.6414C79.4154 28.28 78.9279 27.8859 78.4675 27.4616C78.2374 27.2477 82.3097 24.0325 82.089 23.8028L79.1767 25.423C79.3185 25.3066 78.9435 25.423 77.3234 26.1214C77.0555 26.2378 77.2288 25.53 77.1595 25.1776C77.1285 24.9971 77.0767 24.8208 77.005 24.6522C76.989 24.6065 76.969 24.5623 76.9452 24.5201C76.9173 24.4548 76.8778 24.3951 76.8285 24.3439C76.7602 24.2693 76.6853 24.2008 76.6047 24.1394C76.3086 23.9295 75.9918 23.7503 75.6592 23.6046C75.3894 23.4858 75.1388 23.3278 74.9153 23.1358C74.8737 23.091 74.8347 23.0437 74.7987 22.9943C74.7713 22.9593 74.7499 22.92 74.7357 22.8779C74.699 22.7428 74.6737 22.605 74.66 22.4657C74.6332 22.1727 74.6332 21.8779 74.66 21.5849C74.6821 21.3772 74.7104 21.1727 74.7514 20.9745C74.596 21.0953 74.4292 21.2006 74.2534 21.2891C74.1611 21.3331 74.0664 21.3719 73.9698 21.4055C73.9987 21.1456 74.0461 20.888 74.1116 20.6348C74.0591 20.6689 74.0043 20.6994 73.9477 20.726C73.4509 20.9778 72.8754 21.0263 72.3434 20.8613C71.8244 20.6741 71.3674 20.3475 71.0227 19.9175C70.8445 19.7042 70.6822 19.4782 70.5373 19.2411L70.0803 18.5018C69.0342 16.8761 67.8712 15.3284 66.6006 13.8708C66.5981 12.9257 66.4924 11.9837 66.2854 11.0614C66.3295 10.9891 66.3737 10.9167 66.4147 10.8443C67.4359 10.7657 67.5998 9.79042 67.5273 8.78999C66.6983 9.88166 65.551 11.1243 64.2461 11.3603C63.4865 10.6084 62.7238 9.91626 61.9673 9.2965C60.5836 8.17651 59.2409 7.2799 58.0716 6.48081L58.0148 6.44306C57.7784 6.23856 57.5357 6.04037 57.2899 5.8516C56.6375 5.35453 55.9503 4.87319 55.2601 4.39185L54.7369 3.98287C53.6085 3.11771 52.9056 2.62379 52.7512 2.51053C52.8615 2.59547 53.2176 2.87232 53.7818 3.32535C53.5717 3.16176 53.3511 3.00131 53.1199 2.84401C52.9371 2.68671 52.8047 2.5703 52.7543 2.52941C52.7984 2.57345 52.8804 2.65525 53.0002 2.7685C53.3469 3.10198 54.0151 3.71231 55.0268 4.50825L55.1403 4.59634C55.9756 5.59992 57.4727 7.61967 58.1882 7.36484C58.2166 7.43091 58.5223 7.99404 58.6704 8.28348C58.5841 8.24158 58.4931 8.20991 58.3994 8.1891C58.5108 8.53357 58.7483 8.82343 59.0644 9.00077C58.6925 9.27762 58.1693 9.57649 57.8604 9.83132C58.4498 9.68346 59.0739 9.49155 59.6727 9.30279C60.0395 9.43636 60.393 9.60383 60.7286 9.80301C60.8137 9.85844 60.8957 9.9183 60.9745 9.98233C61.2707 10.2969 61.6048 10.665 61.92 11.0362C62.1147 11.3392 62.2895 11.6545 62.4433 11.9801C62.7584 12.6093 62.8971 14.1477 63.3352 14.629C63.5905 14.909 64.5519 15.211 64.8608 15.5948C64.0476 16.1674 62.2573 16.9287 60.8484 17.9355L66.0963 16.5795C66.0679 17.4384 66.878 18.9768 66.0333 19.5997C67.0419 19.5745 67.1963 20.8581 68.1986 20.2856C68.1689 20.56 68.1764 20.8373 68.2207 21.1098C67.6912 21.975 68.9047 22.3682 69.6863 22.8716C69.8413 23.4721 69.9363 24.0865 69.97 24.7057C69.9931 25.2308 69.9731 25.7569 69.9101 26.2787L69.8534 26.6846L69.8187 26.8828L69.8029 26.9834L69.7651 27.169C69.7084 27.4396 69.639 27.7165 69.5697 27.9996L69.3806 28.7861L70.2852 27.9933C70.3826 27.915 70.4883 27.8475 70.6004 27.792C70.6508 27.7636 70.7012 27.7416 70.758 27.7165L70.8494 27.6818L71.0038 27.6189L70.9723 27.7888C70.9534 27.8769 70.9345 27.9713 70.9061 28.0688L70.7107 28.6666L71.2938 28.5942C71.439 28.561 71.5775 28.5036 71.7035 28.4243C72.1646 29.224 72.7064 29.9746 73.3205 30.6643C73.9733 31.389 74.5717 32.1608 75.1107 32.9735C75.3488 33.3418 75.5245 33.7468 75.6308 34.1721C75.7244 34.5725 75.6981 34.9914 75.5552 35.377C75.3883 35.7768 75.1477 36.1418 74.846 36.453C74.6915 36.6197 74.5308 36.7676 74.3574 36.9343L74.0958 37.1702L73.623 37.5761C73.2732 37.875 72.9328 38.177 72.6775 38.4381L71.9967 39.1522L71.6437 39.5235L71.4797 39.6997V39.7185C71.4262 39.7783 71.3631 39.8632 70.8052 40.4641L72.6397 39.3221C72.854 39.1868 73.125 39.0075 73.2227 38.9729C73.3205 38.9383 73.5033 38.8219 73.6167 38.7653C73.8374 38.6646 74.0517 38.5702 74.2471 38.4979L74.5434 38.3815L74.805 38.2808L76.0437 37.8435C76.4535 37.6956 76.8664 37.5289 77.2666 37.3559C77.4697 37.2617 77.6675 37.1566 77.8592 37.0413L77.979 36.9658L78.001 36.95L78.0452 36.9123C78.0532 36.9379 78.0627 36.9631 78.0735 36.9878C78.1433 37.1477 78.2266 37.3013 78.3225 37.4471C78.5066 37.7351 78.7281 37.9975 78.9813 38.2273C79.4661 38.6608 79.9847 39.0553 80.532 39.4071C81.0374 39.727 81.5131 40.0912 81.9535 40.4956C82.1497 40.6829 82.3212 40.8944 82.4641 41.1248C82.4973 41.1805 82.5267 41.2383 82.5524 41.2978L82.5934 41.3859L82.6249 41.4551C82.6249 41.4992 82.6659 41.559 82.6564 41.5967C82.5934 41.5967 82.5744 41.5967 82.4704 41.6187C82.3158 41.6391 82.1629 41.6718 82.0134 41.7162C81.8524 41.7613 81.7008 41.8349 81.5658 41.9333C81.4162 42.0443 81.3156 42.209 81.2853 42.3926C81.2761 42.7012 81.3894 43.0008 81.6005 43.2263C81.6825 43.3302 81.7802 43.4371 81.8621 43.5221L81.9315 43.585L81.9693 43.6133C81.9693 43.6133 81.9945 43.6353 81.9693 43.6416C81.9404 43.659 81.9139 43.6802 81.8905 43.7045L81.7739 43.8304C81.6761 43.9342 81.5847 44.0412 81.4996 44.145C81.4145 44.2488 81.3263 44.3495 81.238 44.4596C81.0732 44.623 80.8839 44.7599 80.677 44.8654C80.677 44.8654 80.6959 44.8937 80.7243 44.9063C80.2389 45.0699 79.8071 44.9283 79.3122 45.158C78.8016 44.7113 78.6818 44.1135 78.5495 43.4906C78.6913 45.3782 77.6228 45.9539 75.9239 46.9135C77.9443 46.5989 78.6472 45.1958 80.7495 45.9697C81.0231 45.7228 81.3532 45.5467 81.7108 45.4569C81.755 45.4946 81.8022 45.5324 81.8432 45.5733C82.0925 45.8206 82.3048 46.1024 82.4736 46.4101C82.7791 46.9814 83.007 47.5908 83.1512 48.2222C83.3796 49.2349 83.5198 50.2654 83.5704 51.3022C83.5704 51.3651 83.5704 51.4186 83.5704 51.4784C83.1954 52.1264 82.2687 52.7368 81.8495 53.1866C82.0985 53.5516 81.383 54.2091 80.5887 54.7597C80.6833 54.7376 80.7779 54.7219 80.8724 54.7093L80.346 54.9201C80.428 54.8698 80.5068 54.8163 80.5887 54.7597C80.1542 54.8602 79.7486 55.0594 79.4036 55.3417C78.7857 55.6375 78.2459 56.0739 77.8277 56.6158C78.5558 56.0684 80.7085 55.005 81.4713 55.3196C81.6131 54.9201 81.7865 54.9642 82.026 54.9484L82.0512 54.9044C82.4318 54.3547 82.8703 53.8474 83.3593 53.3911L83.3309 53.4195L83.3782 53.3754L83.3593 53.3911L83.4696 53.2842C85.1149 53.2842 85.7925 53.6239 86.7633 55.1403C87.9547 53.9606 88.9696 56.0841 89.4487 57.201C90.0476 58.6072 89.7639 59.5699 90.2588 61.0926C91.2548 64.1568 95.0213 65.2957 93.3855 68.621C94.1482 69.1653 95.16 69.0709 95.9354 68.8884C95.7683 69.5743 96.0677 69.6466 96.093 70.2947C96.7612 69.7284 97.609 69.3509 98.1606 69.9958C94.662 70.71 103.399 79.651 104.423 81.1233C107.301 85.2446 107.868 89.9982 108.991 94.7833C108.675 90.6306 108.508 83.8069 105.325 80.4595C106.86 78.4744 104.263 79.4213 103.97 78.5562C103.676 77.691 104.789 76.7409 104.732 75.7877C107.717 73.9535 103.434 64.5658 100.751 64.2355C100.581 63.5842 99.7176 60.9636 99.8248 60.4602C99.8839 60.1889 99.9906 59.9301 100.14 59.6958L100.301 59.9003C100.276 59.7938 100.246 59.6888 100.209 59.5857C100.373 59.3434 100.565 59.1106 100.758 58.8747C101.457 58.2266 101.974 57.2545 102.602 56.6504C103.547 55.7475 105.038 55.2253 104.988 53.9606C103.188 54.9956 101.331 55.8073 99.3709 55.7884ZM53.1924 2.90378C53.4635 3.10513 53.7346 3.30647 54.0119 3.50467L54.4626 3.87276C54.5667 3.96399 54.6644 4.06152 54.7589 4.15904C54.0529 3.62737 53.5297 3.19322 53.1924 2.90378Z" fill="black"/>
<path d="M38.4636 32.0297C38.3274 32.1154 38.2051 32.2215 38.1011 32.3443L38.4636 32.0297Z" fill="black"/>
<path d="M53.016 2.75278C52.3867 2.28111 51.7877 1.77045 51.2225 1.22382C51.7523 1.80804 52.355 2.3219 53.016 2.75278V2.75278Z" fill="black"/>
<path d="M32.5286 86.9592C32.9467 86.8669 33.3256 86.647 33.6128 86.33C33.2202 86.4809 32.8542 86.6933 32.5286 86.9592Z" fill="black"/>
<path d="M15.6754 75.5989L15.8235 75.6335C15.9401 75.3378 15.7888 75.4762 15.6754 75.5989Z" fill="black"/>
</svg>
