<svg width="299" height="286" viewBox="0 0 299 286" fill="none" xmlns="http://www.w3.org/2000/svg">
<g id="Girl5G">
<g id="Girl5G_2">
<g id="Girl5G_3">
<path id="Girl5V" d="M60.3869 258.323L248.828 278.246C248.828 278.246 275.976 21.9905 155.557 21.9905C35.1384 21.9905 60.3869 258.323 60.3869 258.323Z" fill="#60452D"/>
<g id="Girl5G_4">
<g id="Girl5G_5">
<path id="Girl5V_2" d="M182.611 262.232C182.068 259.192 182.611 223.472 182.611 223.472L155.557 230.828L128.49 223.472C128.49 223.472 129.033 259.192 128.49 262.232C127.947 265.272 91.2959 281.313 91.2959 281.313C112.629 283.769 134.084 285.01 155.557 285.032C177.027 285.01 198.477 283.768 219.805 281.313C219.805 281.313 183.154 265.272 182.611 262.232Z" fill="url(#Girl5P0_linear)"/>
<g id="Girl5V_3" style="mix-blend-mode:multiply" opacity="0.6">
<path d="M128.68 240.246C128.68 240.246 155.395 257.631 182.367 252.46L182.611 223.513H128.49L128.68 240.246Z" fill="#D177B8"/>
</g>
</g>
<g id="Girl5G_6">
<path id="Girl5V_4" d="M258.682 145.246C258.262 147.255 257.8 149.06 257.325 150.675V150.756C253.755 162.278 248.325 164.993 246.153 170.19C244.266 174.683 236.841 183.762 229.497 174.262C229.497 174.262 232.986 136.099 235.796 129.164C235.796 129.164 239.868 118.755 247.144 117.18C256.429 115.131 262.334 127.454 258.682 145.246Z" fill="url(#Girl5P1_linear)"/>
<path id="Girl5V_5" style="mix-blend-mode:multiply" opacity="0.6" d="M231.954 150.566C231.954 150.566 246.628 129.273 253.674 127.875C260.719 126.477 257.176 144.541 255.778 150.566C255.052 153.904 253.864 157.124 252.248 160.134C253.278 155.91 253.986 151.613 254.366 147.282C254.855 139.017 252.235 131.933 249.289 132.598C246.343 133.263 242.38 143.658 242.122 144.812C241.864 145.965 244.076 148.096 243.954 154.515C243.832 160.935 240.751 167.897 239.095 167.816C237.439 167.734 238.144 162.536 238.144 156.538C238.144 150.539 233.461 151.706 231.357 155.601L231.954 150.566Z" fill="url(#Girl5P2_linear)"/>
<path id="Girl5V_6" style="mix-blend-mode:multiply" opacity="0.6" d="M231.344 155.642C231.344 155.642 235.117 149.942 237.384 152.534C239.651 155.126 238.009 162.305 239.746 163.16C241.484 164.015 243.819 158.22 243.357 152.914C242.895 147.608 240.791 142.83 237.791 143.726L231.954 150.512L231.344 155.642Z" fill="url(#Girl5P3_linear)"/>
<path id="Girl5V_7" d="M257.271 150.675C253.701 162.197 248.271 164.911 246.099 170.109C244.212 174.601 236.787 183.68 229.443 174.18C229.878 174.547 234.126 177.994 238.429 176.433C242.977 174.778 244.429 170.53 246.357 167.232C248.285 163.934 253.198 161.776 257.271 150.675Z" fill="#DD6B7C"/>
</g>
<g id="Girl5G_7">
<path id="Girl5V_8" d="M50.5726 145.246C50.9934 147.255 51.4549 149.06 51.93 150.675V150.756C55.5001 162.278 60.9299 164.993 63.1018 170.19C64.9887 174.683 72.4139 183.762 79.7577 174.262C79.7577 174.262 76.269 136.099 73.4591 129.164C73.4591 129.164 69.3868 118.755 62.1244 117.18C52.8259 115.131 46.9211 127.454 50.5726 145.246Z" fill="url(#Girl5P4_linear)"/>
<path id="Girl5V_9" style="mix-blend-mode:multiply" opacity="0.6" d="M77.3007 150.566C77.3007 150.566 62.6267 129.273 55.5816 127.875C48.5364 126.477 52.0658 144.541 53.4775 150.566C54.2128 153.92 55.4145 157.154 57.0476 160.175C56.0176 155.95 55.3097 151.654 54.93 147.323C54.4277 139.058 57.0612 131.973 60.0068 132.638C62.9525 133.303 66.9162 143.699 67.1606 144.853C67.4049 146.006 65.2194 148.137 65.3416 154.556C65.4638 160.975 68.5316 167.938 70.2012 167.856C71.8709 167.775 71.1515 162.577 71.1515 156.578C71.1515 150.58 75.8346 151.747 77.9387 155.642L77.3007 150.566Z" fill="url(#Girl5P5_linear)"/>
<path id="Girl5V_10" style="mix-blend-mode:multiply" opacity="0.6" d="M77.9115 155.642C77.9115 155.642 74.1378 149.942 71.8709 152.534C69.604 155.126 71.2329 162.305 69.5089 163.16C67.785 164.015 65.4366 158.22 65.8981 152.914C66.3597 147.608 68.4637 142.83 71.4637 143.726L77.3007 150.512L77.9115 155.642Z" fill="url(#Girl5P6_linear)"/>
<path id="Girl5V_11" d="M51.9843 150.675C55.5544 162.197 60.9842 164.911 63.1561 170.109C65.043 174.601 72.4682 183.68 79.812 174.18C79.3776 174.547 75.1288 177.994 70.8121 176.433C66.2782 174.778 64.8258 170.53 62.8982 167.232C60.9706 163.934 56.0567 161.776 51.9843 150.675Z" fill="#DD6B7C"/>
</g>
<g id="Girl5G_8">
<path id="Girl5V_12" d="M239.447 125.35C237.601 134.688 235.375 144.513 233.773 155.778C229.619 185.513 220.769 199.206 200.57 212.303C179.407 226.064 173.055 231.425 154.77 232.103C136.499 231.425 130.146 226.064 108.983 212.303C88.7844 199.166 79.9203 185.513 75.7937 155.778C74.8706 149.155 73.7032 143.02 72.5358 137.212C71.667 132.896 70.7847 128.743 69.9838 124.672V124.496C67.0653 109.567 65.3006 95.8191 69.2915 79.1805C73.3639 61.9855 87.6442 40.6376 109.295 27.1612C122.922 18.5821 138.694 14.0237 154.797 14.0105C201.724 14.0105 233.8 51.8341 240.316 79.1534C244.375 96.1312 242.461 110.11 239.447 125.35Z" fill="url(#Girl5P7_linear)"/>
<g id="Girl5V_13" style="mix-blend-mode:multiply" opacity="0.6">
<path d="M239.434 125.405C237.588 134.742 235.362 144.568 233.76 155.832C229.606 185.567 220.756 199.261 200.557 212.357C179.394 226.118 173.041 231.479 154.757 232.158C136.485 231.479 130.132 226.118 108.97 212.357C88.7711 199.22 79.907 185.567 75.7803 155.832C74.1786 144.283 71.8302 134.253 69.9705 124.726C70.5542 127.033 75.4003 146.155 80.1377 165.549C85.201 186.245 92.6534 198.989 115.078 214.813C135.942 229.538 148.091 230.773 154.268 230.828H155.327C161.503 230.828 173.652 229.538 194.516 214.813C216.941 198.989 224.38 186.245 229.457 165.549C233.882 147.445 238.389 129.598 239.434 125.405Z" fill="#D177B8"/>
</g>
<path id="Girl5V_14" style="mix-blend-mode:multiply" opacity="0.6" d="M109.241 27.1748C108.305 27.8669 84.2372 45.5777 82.5133 61.9719C80.735 78.6919 81.8074 97.5291 76.4319 113.313C73.2453 123.081 72.6513 133.51 74.708 143.577C74.5722 143.224 73.7306 140.931 72.5225 137.28C71.6537 132.964 70.7714 128.811 69.9705 124.74V124.563C67.052 109.635 65.2873 95.8869 69.2782 79.2484C73.3505 62.0534 87.6308 40.7055 109.282 27.2291L109.241 27.1748Z" fill="url(#Girl5P8_linear)"/>
<path id="Girl5V_15" style="mix-blend-mode:multiply" opacity="0.6" d="M200.299 27.1748C201.235 27.8669 225.303 45.5777 227.027 61.9719C228.792 78.6919 227.719 97.5291 233.095 113.313C236.289 123.08 236.883 133.51 234.819 143.577C234.954 143.224 235.796 140.931 237.004 137.28C237.886 132.964 238.769 128.811 239.57 124.74V124.563C242.475 109.635 244.239 95.8869 240.248 79.2484C236.176 62.0534 221.896 40.7055 200.258 27.2291L200.299 27.1748Z" fill="url(#Girl5P9_linear)"/>
</g>
</g>
<g id="Girl5G_9">
<path id="Girl5V_16" d="M296.04 245.675C296.04 245.675 297.044 272.004 270.058 277.12C243.072 282.237 226.321 272.004 226.321 272.004C229.036 275.397 237.398 278.79 237.398 278.79C221.448 279.794 201.032 269.29 203.096 238.401C205.159 207.513 225.643 203.631 226.688 197.822C227.733 192.014 217.186 182.107 219.901 164.505C222.616 146.902 235.986 112.757 215.828 92.5761C195.67 72.3953 204.969 56.3675 194.408 40.6382C188.987 32.9078 180.89 27.4627 171.684 25.3568C169.463 24.767 167.19 24.3898 164.897 24.2303C164.897 24.2303 147.549 57.8468 122.626 65.7046C97.7035 73.5625 80.8576 105.197 89.7217 123.057C98.5858 140.917 86.2059 160.596 86.5045 172.566C86.8032 184.536 101.925 187.834 103.513 213.104C105.102 238.374 89.6266 237.709 91.2963 260.034C92.9117 281.341 111.658 276.469 113.436 276.008C113.453 276.016 113.472 276.02 113.491 276.02C113.509 276.02 113.528 276.016 113.545 276.008C113.545 276.008 110.124 283.187 95.2193 281.816C84.1833 280.771 81.0747 270.498 80.1788 265.232C80.1992 265.161 80.1992 265.086 80.1788 265.015C80.2015 264.857 80.2015 264.697 80.1788 264.54C79.7173 275.682 55.2833 275.288 55.2833 275.288C55.2833 275.288 64.6632 273.619 65.9664 268.394C65.954 268.359 65.954 268.32 65.9664 268.285C66.1131 267.355 66.0684 266.405 65.835 265.492C65.6016 264.58 65.1844 263.725 64.6089 262.979C58.5412 253.479 1.88137 263.454 0.0759713 232.145C-1.72943 200.835 29.2203 189.842 31.4873 171.195C33.7542 152.548 22.9625 149.318 22.7046 123.098C22.3245 95.3582 40.8944 67.5503 56.41 51.6039C71.9256 35.6575 67.1202 21.9232 91.2963 6.37034C114.454 -8.55823 144.237 6.9132 165.413 10.8082C169.092 11.5003 172.702 12.1653 176.272 12.7218C197.761 16.3996 216.086 19.3582 225.398 27.1482C242.638 41.5746 242.923 65.3789 257.285 75.2996C271.647 85.2204 267.71 96.0368 268.036 119.936C268.361 143.835 317.596 172.2 289.239 204.337C287.583 206.21 285.995 208.082 284.597 209.955C284.379 210.24 284.189 210.457 284.013 210.675C283.773 210.932 283.555 211.209 283.361 211.503C283.117 211.828 282.927 212.045 282.859 212.154C260.936 241.292 261.832 267.403 277.198 265.205C293.868 262.911 296.04 245.675 296.04 245.675Z" fill="#60452D"/>
<path id="Girl5V_17" d="M172.675 15.9105L171.589 25.4105C169.367 24.8207 167.095 24.4435 164.802 24.2841C164.802 24.2841 147.453 57.9005 122.531 65.7584C97.6081 73.6162 80.7622 105.251 89.6263 123.111C98.4904 140.971 86.2055 160.596 86.5042 172.566C86.8028 184.536 101.925 187.833 103.513 213.103C105.101 238.373 89.6263 237.708 91.2959 260.033C92.9113 281.34 111.658 276.468 113.436 276.007C104.748 280.77 87.6444 278.884 88.0788 263.453C88.5132 248.023 97.2823 237.885 98.504 220.608C99.7257 203.332 78.0201 192.108 79.4997 178.456C80.9794 164.803 94.4316 140.008 88.0788 129.978C81.726 119.949 68.8574 112.878 80.8708 93.6748C92.8842 74.4712 110.124 66.3826 128.123 58.3891C146.123 50.3955 160.471 20.0769 160.471 20.0769C155.245 18.0684 137.395 18.2855 122.531 20.2941C107.667 22.3026 111.495 35.3719 104.667 54.2226C97.8388 73.0734 75.9568 79.0312 66.9026 100.664C57.8485 122.297 76.4048 146.902 69.9705 174.316C63.5362 201.731 62.0701 215.926 74.5858 238.292C87.1014 260.658 80.1785 265.055 80.1785 265.055C80.1988 264.984 80.1988 264.909 80.1785 264.838C80.1924 264.657 80.1924 264.475 80.1785 264.295C80.1785 264.295 80.1785 264.295 80.1785 264.213C80.1785 264.132 80.1785 264.105 80.1785 264.078C78.3595 254.835 60.0204 244.779 53.6268 232.103C47.0296 219.048 66.6176 190.276 66.9026 175.456C67.1877 160.636 54.1291 152.846 51.9708 130.372C49.8124 107.898 74.803 88.2462 85.1467 68.9205C95.4905 49.5948 88.5403 32.2777 105.169 22.0041C121.363 12.0562 157.797 18.0005 159.793 18.3262C158.232 17.5255 126.63 1.44337 104.49 9.70837C81.7938 18.1769 81.2509 46.3512 66.9705 56.1498C52.6902 65.9484 31.0797 75.3126 28.8127 103.324C26.5458 131.336 59.5453 152.521 62.8982 167.3C66.2511 182.079 17.8446 202.395 17.4102 215.166C16.9758 227.937 61.3914 245.675 66.9026 254.252C72.1695 262.395 66.4411 267.891 65.9253 268.353C69.0338 261.974 63.6991 256.627 34.704 251.443C5.51897 246.204 1.79957 217.582 27.6318 196.546C53.4639 175.51 40.4053 163.513 28.5277 133.005C16.65 102.496 34.704 74.2134 60.8892 55.3219C87.0743 36.4305 81.4137 1.33478 117.902 5.66407C154.39 9.99335 172.675 15.9105 172.675 15.9105Z" fill="white"/>
<path id="Girl5V_18" style="mix-blend-mode:multiply" d="M171.589 25.3969C171.589 25.3969 194.367 27.7041 203.937 33.1598C213.507 38.6155 203.421 67.1562 209.747 78.9498C216.072 90.7434 230.258 93.2948 238.117 104.057C245.977 114.819 221.719 151.733 226.918 174.438C232.117 197.143 242.04 191.009 244.565 199.559C247.09 208.109 214.769 206.698 208.05 232.13C201.33 257.563 215 271.881 215 271.881C215 271.881 205.036 250.737 219.765 232.13C234.493 213.524 250.198 212.167 254.312 202.938C258.425 193.71 235.986 191.891 230 178.347C224.013 164.803 235.877 133.371 239.393 128.811C242.909 124.251 264.099 158.18 275.488 170.028C286.877 181.876 279.56 199.64 257.23 211.488C234.9 223.336 219.534 259.721 228.656 274.175L237.384 276.36C237.384 276.36 228.941 253.94 244.606 229.579C260.271 205.218 285.492 202.436 287.61 181.061C289.727 159.686 244.633 141.473 244.592 118.103C244.552 94.7334 254.569 96.5248 233.611 86.9569C212.652 77.3891 209.014 58.4569 212.652 37.2991C216.29 16.1412 172.675 19.0319 172.675 19.0319L171.589 25.3969Z" fill="url(#Girl5P10_linear)"/>
<path id="Girl5V_19" style="mix-blend-mode:multiply" d="M289.212 204.35C287.555 206.223 285.967 208.095 284.569 209.968C288.275 204.96 296.65 192.258 295.714 180.437C294.478 165.21 270.75 146.753 264.072 132.245C257.393 117.737 263.569 106.459 261.52 91.7476C259.47 77.0362 247.009 81.189 235.905 69.8976C224.801 58.6062 234.547 37.6519 220.28 26.469C206.014 15.2862 172.675 15.9376 172.675 15.9376L176.245 12.7619C197.733 16.4398 216.059 19.3983 225.371 27.1883C242.61 41.6147 242.895 65.419 257.257 75.3398C271.619 85.2605 267.682 96.0769 268.008 119.976C268.334 143.875 317.569 172.213 289.212 204.35Z" fill="url(#Girl5P11_linear)"/>
<path id="Girl5V_20" style="mix-blend-mode:multiply" d="M228.656 274.175C228.656 274.175 215.285 246.082 246.696 219.428C246.696 219.428 231.764 245.213 237.384 276.36L228.656 274.175Z" fill="url(#Girl5P12_linear)"/>
<g id="Girl5V_21" style="mix-blend-mode:soft-light">
<path d="M153.195 33.0377C153.195 33.0377 141.63 50.8977 133.811 55.1455C133.811 55.1455 138.155 48.0884 137.585 46.6091C137.015 45.1298 122.436 42.3884 117.766 38.4662C113.097 34.5441 112.336 28.2469 110.653 30.6219C110.653 30.6219 113.287 21.3255 122.531 20.3212C121.763 21.4977 121.308 22.851 121.211 24.2525C121.114 25.6539 121.376 27.057 121.974 28.3284C123.915 33.2277 135.074 33.567 140.205 33.757C144.546 33.8111 148.886 33.5708 153.195 33.0377V33.0377Z" fill="#FFD9BB"/>
</g>
<g id="Girl5V_22" style="mix-blend-mode:soft-light">
<path d="M98.1239 28.2605C98.1239 28.2605 102.834 19.2219 119.979 17.2269C116.331 17.4236 112.673 17.0945 109.119 16.2498C104.395 14.8926 104.49 9.70837 104.49 9.70837C104.49 9.70837 93.2914 14.2141 88.201 22.9405L98.1239 28.2605Z" fill="#FFD9BB"/>
</g>
<g id="Girl5V_23" style="mix-blend-mode:soft-light">
<path d="M194.543 35.2091C194.543 35.2091 200.231 41.8183 202.294 53.7748L206.272 52.6348C206.272 52.6348 208.443 45.3469 206.272 39.9998C204.809 36.6848 202.111 34.0705 198.751 32.7119L194.543 35.2091Z" fill="#FFD9BB"/>
</g>
<g id="Girl5V_24" style="mix-blend-mode:soft-light">
<path d="M210.262 24.9626C211.831 26.6535 212.946 28.7137 213.504 30.9514C214.062 33.1891 214.044 35.5315 213.452 37.7605C211.593 45.9034 212.652 50.7076 212.652 50.7076C212.652 50.7076 216.642 45.8084 225.642 43.2434C225.642 43.2434 225.031 32.7119 221.461 29.7534C217.891 26.7948 210.262 24.9626 210.262 24.9626Z" fill="#FFD9BB"/>
</g>
<g id="Girl5V_25" style="mix-blend-mode:soft-light">
<path d="M243.357 184.861C243.357 184.861 257.271 191.009 257.271 201.255C259.121 199.32 260.776 197.206 262.212 194.945C265.619 189.991 278.27 184.861 278.27 184.861C278.27 184.861 281.691 177.343 273.316 170.679C273.74 171.758 273.766 172.952 273.391 174.048C273.015 175.144 272.262 176.072 271.266 176.664C267.669 178.713 243.357 184.861 243.357 184.861Z" fill="#FFD9BB"/>
</g>
<g id="Girl5V_26" style="mix-blend-mode:soft-light">
<path d="M285.492 168.318C286.878 170.095 287.858 172.155 288.362 174.352C288.866 176.549 288.883 178.83 288.411 181.034L294.723 179.677C294.723 179.677 293.705 171.412 289.999 168.399L285.492 168.318Z" fill="#FFD9BB"/>
</g>
<g id="Girl5V_27" style="mix-blend-mode:soft-light">
<path d="M69.9162 124.496L75.726 119.976C75.726 119.976 71.6537 100.868 79.4997 92.9555L69.9976 98.1534C69.9976 98.1534 57.9978 115.728 69.9162 124.496Z" fill="#FFD9BB"/>
</g>
<g id="Girl5V_28" style="mix-blend-mode:soft-light">
<path d="M63.9841 96.0362C63.9841 96.0362 39.2243 100.786 30.3331 94.2991C27.8668 102.65 28.2053 111.578 31.2969 119.718C31.2969 119.718 30.5095 113.516 32.5593 111.358C34.609 109.2 50.3961 109.703 51.9843 110.205C53.5725 110.707 54.4277 114.968 54.4277 114.968C54.4277 114.968 58.6765 100.8 63.9841 96.0362Z" fill="#FFD9BB"/>
</g>
</g>
<path id="Girl5V_29" style="mix-blend-mode:multiply" opacity="0.6" d="M136.553 110.612C138.454 124.519 138.417 138.623 136.445 152.52C136.445 152.52 127.078 161.6 104.735 157.949C82.3911 154.298 84.8888 109.567 88.3774 96.3891C93.4543 77.3891 129.942 91.5034 136.553 110.612Z" fill="url(#Girl5P13_linear)"/>
<path id="Girl5V_30" style="mix-blend-mode:multiply" opacity="0.6" d="M173.639 106.513C171.738 120.421 171.775 134.524 173.747 148.422C173.747 148.422 183.114 157.501 205.457 153.85C227.801 150.2 228.357 116.353 224.869 103.215C219.792 84.0662 180.168 87.4048 173.639 106.513Z" fill="url(#Girl5P14_linear)"/>
</g>
<g id="Girl5G_10">
<path id="Girl5V_31" d="M186.331 141.175C186.331 141.175 202.973 144.513 214.281 133.032L213.452 128.879C213.452 128.879 204.385 139.505 186.331 141.175Z" fill="#DD6B7C"/>
<path id="Girl5V_32" d="M176.856 134.389C178.213 140.944 188.123 143.088 199.484 140.184C215.855 136.018 216.534 123.803 214.09 117.113C211.647 110.422 205.294 105.618 191.584 109.621C177.874 113.625 174.996 125.5 176.856 134.389Z" fill="url(#Girl5P15_linear)"/>
<path id="Girl5V_33" d="M176.53 132.435C176.524 134.64 176.765 136.839 177.249 138.99C177.915 140.713 186.833 141.243 186.833 141.243C186.833 141.243 177.453 140.7 176.53 132.435Z" fill="#DD6B7C"/>
<path id="Girl5V_34" d="M192.846 137.958C199.751 137.958 205.349 132.362 205.349 125.459C205.349 118.556 199.751 112.96 192.846 112.96C185.942 112.96 180.344 118.556 180.344 125.459C180.344 132.362 185.942 137.958 192.846 137.958Z" fill="url(#Girl5P16_linear)"/>
<path id="Girl5V_35" d="M192.846 137.225C199.346 137.225 204.615 131.957 204.615 125.459C204.615 118.961 199.346 113.693 192.846 113.693C186.347 113.693 181.077 118.961 181.077 125.459C181.077 131.957 186.347 137.225 192.846 137.225Z" fill="url(#Girl5P17_linear)"/>
<path id="Girl5V_36" style="mix-blend-mode:multiply" d="M200.53 125.459C200.53 126.971 200.081 128.449 199.241 129.705C198.4 130.962 197.206 131.942 195.809 132.519C194.411 133.097 192.874 133.248 191.391 132.952C189.908 132.656 188.547 131.927 187.478 130.857C186.41 129.787 185.683 128.424 185.39 126.941C185.097 125.458 185.25 123.922 185.83 122.526C186.411 121.13 187.393 119.937 188.651 119.099C189.91 118.262 191.389 117.816 192.901 117.818C193.904 117.818 194.897 118.016 195.823 118.4C196.75 118.784 197.591 119.347 198.3 120.057C199.009 120.767 199.57 121.609 199.953 122.536C200.335 123.463 200.531 124.456 200.53 125.459V125.459Z" fill="url(#Girl5P18_linear)"/>
<g id="Girl5V_37" style="mix-blend-mode:multiply" opacity="0.6">
<path d="M176.53 132.435C176.53 132.435 177.752 117.968 191.231 113.693C206.434 108.861 214.308 117.886 214.308 117.886C214.308 117.886 210.588 104.871 193.797 107.246C177.005 109.621 176.245 124.495 176.53 132.435Z" fill="#D177B8"/>
</g>
<path id="Girl5V_38" d="M203.054 122.826C202.294 123.505 205.769 123.668 208.416 122.636C210.751 121.713 211.878 120.207 211.661 119.922C208.545 119.881 205.508 120.906 203.054 122.826V122.826Z" fill="white"/>
<path id="Girl5V_39" d="M201.059 123.532C200.068 123.193 198.901 123.708 198.86 124.238C198.819 124.767 200.054 125.432 200.625 125.215C201.195 124.998 201.616 123.681 201.059 123.532Z" fill="white"/>
<path id="Girl5V_40" d="M177.317 122.555C177.317 122.555 180.032 105.346 194.136 103.623C207.941 101.953 213.303 114.48 213.303 114.48C213.303 114.48 191.435 96.7419 177.317 122.555Z" fill="#DD4C6A"/>
<path id="Girl5V_41" d="M176.829 124.78C176.829 124.78 182.082 111.318 195.412 109.96C208.742 108.603 214.104 117.085 214.104 117.085L218.421 111.779H215.461C212.264 109.285 208.538 107.554 204.569 106.719C200.601 105.884 196.493 105.967 192.561 106.961C179.136 110.503 176.829 124.78 176.829 124.78Z" fill="#4E1B3D"/>
</g>
<g id="Girl5G_11">
<path id="Girl5V_42" d="M124.513 141.718C124.513 141.718 107.87 145.056 96.5628 133.575L97.4044 129.503C97.4044 129.503 106.486 140.021 124.513 141.718Z" fill="#DD6B7C"/>
<path id="Girl5V_43" d="M134.015 134.878C132.657 141.433 122.762 143.577 111.4 140.673C95.0289 136.506 94.3366 124.292 96.7936 117.601C99.2506 110.91 105.576 106.093 119.286 110.11C132.997 114.127 135.861 126.015 134.015 134.878Z" fill="url(#Girl5P19_linear)"/>
<path id="Girl5V_44" d="M134.327 132.951C134.34 135.155 134.103 137.354 133.621 139.505C132.942 141.229 124.038 141.758 124.038 141.758C124.038 141.758 133.377 141.175 134.327 132.951Z" fill="#DD6B7C"/>
<path id="Girl5V_45" d="M118.024 138.474C124.929 138.474 130.526 132.878 130.526 125.975C130.526 119.072 124.929 113.475 118.024 113.475C111.119 113.475 105.522 119.072 105.522 125.975C105.522 132.878 111.119 138.474 118.024 138.474Z" fill="url(#Girl5P20_linear)"/>
<path id="Girl5V_46" d="M118.024 137.741C124.524 137.741 129.793 132.473 129.793 125.975C129.793 119.476 124.524 114.208 118.024 114.208C111.524 114.208 106.255 119.476 106.255 125.975C106.255 132.473 111.524 137.741 118.024 137.741Z" fill="url(#Girl5P21_linear)"/>
<path id="Girl5V_47" style="mix-blend-mode:multiply" d="M110.395 125.975C110.395 127.483 110.843 128.958 111.681 130.212C112.519 131.466 113.711 132.444 115.105 133.021C116.499 133.599 118.033 133.75 119.512 133.455C120.992 133.161 122.352 132.435 123.418 131.368C124.485 130.301 125.212 128.942 125.506 127.463C125.801 125.983 125.65 124.45 125.072 123.056C124.495 121.662 123.517 120.471 122.262 119.633C121.008 118.795 119.533 118.348 118.024 118.348C117.022 118.348 116.03 118.545 115.105 118.928C114.179 119.312 113.338 119.873 112.63 120.582C111.921 121.29 111.359 122.131 110.976 123.056C110.593 123.981 110.395 124.973 110.395 125.975V125.975Z" fill="url(#Girl5P22_linear)"/>
<g id="Girl5V_48" style="mix-blend-mode:multiply" opacity="0.6">
<path d="M134.327 132.951C134.327 132.951 133.119 118.497 119.626 114.208C104.422 109.39 96.5493 118.402 96.5493 118.402C96.5493 118.402 100.269 105.387 117.06 107.775C133.852 110.164 134.626 125.011 134.327 132.951Z" fill="#D177B8"/>
</g>
<path id="Girl5V_49" d="M107.816 123.355C108.576 124.02 105.101 124.183 102.386 123.152C100.038 122.243 98.9112 120.736 99.142 120.438C102.281 120.398 105.34 121.427 107.816 123.355V123.355Z" fill="white"/>
<path id="Girl5V_50" d="M109.812 124.02C110.802 123.681 111.956 124.197 112.011 124.726C112.065 125.255 110.816 125.907 110.246 125.69C109.676 125.473 109.255 124.21 109.812 124.02Z" fill="white"/>
<path id="Girl5V_51" d="M133.553 123.084C133.553 123.084 130.838 105.862 116.721 104.152C102.916 102.469 97.5673 115.077 97.5673 115.077C97.5673 115.077 119.422 97.2712 133.553 123.084Z" fill="#DD4C6A"/>
<path id="Girl5V_52" d="M134.015 125.296C134.015 125.296 128.761 111.874 115.431 110.449C102.101 109.024 96.7664 117.615 96.7664 117.615L92.4498 112.295H95.3954C98.5962 109.801 102.324 108.071 106.295 107.236C110.266 106.401 114.375 106.484 118.309 107.477C131.734 111.019 134.015 125.296 134.015 125.296Z" fill="#4E1B3D"/>
</g>
<g id="Girl5G_12">
<path id="Girl5V_53" d="M174.602 104.83C174.602 104.83 175.892 97.0812 177.494 94.5298C177.494 94.5298 191.57 90.9062 199.484 89.9155C208.986 88.7619 211.769 89.4812 211.769 89.4812C211.769 89.4812 216.52 91.3405 220.158 99.7955C220.158 99.7955 215 93.9733 211.063 93.7969C199.023 93.2676 181.96 99.1034 174.602 104.83Z" fill="#3F3934"/>
<path id="Girl5V_54" d="M174.602 104.831C174.602 104.831 173.856 98.2212 175.376 95.0998H173.924C173.307 98.3476 173.54 101.7 174.602 104.831V104.831Z" fill="#3F3934"/>
</g>
<g id="Girl5G_13">
<path id="Girl5V_55" d="M134.313 106.432C134.313 106.432 132.956 98.669 131.422 96.1312C131.422 96.1312 120.128 86.5498 109.513 84.2833C100.228 82.3019 97.2959 83.849 97.2959 83.849C97.2959 83.849 92.4633 92.9419 88.8254 101.397C88.8254 101.397 94.866 88.2597 98.789 87.9476C116.273 86.5497 119.083 101.56 134.313 106.432Z" fill="#3F3934"/>
<path id="Girl5V_56" d="M134.313 106.432C134.313 106.432 135.06 99.8226 133.526 96.6876H134.992C135.601 99.9404 135.367 103.295 134.313 106.432V106.432Z" fill="#3F3934"/>
</g>
<g id="Girl5G_14">
<path id="Girl5V_57" d="M139.594 169.281C139.594 169.281 135.331 151.951 155.435 151.951C175.539 151.951 172.159 168.942 172.159 168.942L171.263 169.281C171.263 169.281 165.833 173.122 155.435 173.122C145.037 173.122 139.594 169.281 139.594 169.281Z" fill="url(#Girl5P23_linear)"/>
<g id="Girl5V_58" style="mix-blend-mode:multiply" opacity="0.6">
<path d="M155.435 167.924C150.121 167.785 144.807 168.24 139.594 169.281C145.024 169.118 149.286 173.068 155.435 173.122C161.584 173.176 165.888 169.051 171.263 169.281C166.046 168.297 160.743 167.843 155.435 167.924V167.924Z" fill="#D177B8"/>
</g>
<path id="Girl5V_59" style="mix-blend-mode:multiply" opacity="0.5" d="M163.607 171.127C164.583 170.135 165.818 169.437 167.171 169.11C168.524 168.784 169.942 168.843 171.263 169.281L163.607 171.127Z" fill="url(#Girl5P24_linear)"/>
<path id="Girl5V_60" style="mix-blend-mode:multiply" opacity="0.5" d="M139.594 169.281C139.594 169.281 142.757 167.544 146.978 171.032L139.594 169.281Z" fill="url(#Girl5P25_linear)"/>
<g id="Girl5V_61" style="mix-blend-mode:multiply" opacity="0.6">
<path d="M141.616 157.081C140.205 158.67 139.241 160.605 138.821 162.689C138.401 164.773 138.541 166.93 139.227 168.942C139.456 164.895 140.26 160.901 141.616 157.081V157.081Z" fill="#D177B8"/>
</g>
<g id="Girl5V_62" style="mix-blend-mode:multiply" opacity="0.6">
<path d="M169.77 157.081C171.185 158.668 172.152 160.603 172.572 162.688C172.992 164.772 172.849 166.931 172.159 168.942C171.931 164.895 171.126 160.901 169.77 157.081V157.081Z" fill="#D177B8"/>
</g>
<g id="Girl5V_63" style="mix-blend-mode:multiply" opacity="0.6">
<path d="M139.594 169.281C139.594 169.281 148.227 177.614 155.435 177.614C162.643 177.614 171.263 169.281 171.263 169.281C171.263 169.281 153.603 166.336 139.594 169.281Z" fill="#D177B8"/>
</g>
<path id="Girl5V_64" d="M162.25 165.02C162.258 164.508 162.458 164.018 162.81 163.647C163.162 163.275 163.64 163.048 164.15 163.011C165.005 163.12 164.571 165.264 164.15 165.725C163.729 166.187 162.25 165.02 162.25 165.02Z" fill="#FFCCB8"/>
</g>
<g id="Girl5G_15">
<path id="Girl5V_65" d="M124.01 187.114C124.01 187.114 136.377 212.669 155.815 212.669C175.254 212.669 187.62 187.209 187.62 187.209L156.25 199.423L124.01 187.114Z" fill="#EA336B"/>
<path id="Girl5V_66" d="M155.815 191.986C144.107 192.034 132.528 189.538 121.879 184.671C121.879 184.671 137.096 202.545 155.815 202.545C174.535 202.545 189.819 184.671 189.819 184.671C179.15 189.548 167.547 192.044 155.815 191.986V191.986Z" fill="#842751"/>
<path id="Girl5V_67" d="M170.055 187.847C160.588 186.691 151.016 186.691 141.549 187.847C133.648 189.001 123.983 185.662 123.983 185.662C134.019 189.992 144.859 192.148 155.788 191.986C166.718 192.148 177.557 189.992 187.593 185.662C187.593 185.662 177.955 189.001 170.055 187.847Z" fill="#BD336B"/>
<path id="Girl5V_68" d="M127.73 187.114L129.847 188.851C129.847 188.851 140.707 197.903 155.137 197.903C164.272 197.671 173.148 194.822 180.711 189.693L183.819 187.128C174.845 190.568 165.343 192.432 155.734 192.638C146.148 192.445 136.67 190.576 127.73 187.114V187.114Z" fill="#FFE0EE"/>
<g id="Girl5V_69" style="mix-blend-mode:multiply" opacity="0.6">
<path d="M137.028 204.418C137.028 204.418 146.612 214.433 154.757 215.207C162.901 215.98 175.376 203.78 175.376 203.78C175.376 203.78 156.643 220.418 137.028 204.418Z" fill="#D177B8"/>
</g>
</g>
<g id="Girl5G_16">
<g id="Girl5G_17">
<path id="Girl5V_70" d="M147.019 139.22V143.305H154.811H162.616V139.22H154.811H147.019Z" fill="#FF7C50"/>
<g id="Girl5V_71" style="mix-blend-mode:multiply">
<path d="M149.802 139.22H147.006V143.292H152.042C151.373 142.838 150.822 142.233 150.433 141.525C150.044 140.817 149.827 140.028 149.802 139.22V139.22Z" fill="#FF7C50"/>
</g>
<g id="Girl5V_72" style="mix-blend-mode:multiply">
<path d="M159.806 139.22C159.781 140.028 159.565 140.817 159.175 141.525C158.786 142.233 158.235 142.838 157.566 143.292H162.643V139.22H159.806Z" fill="#FF7C50"/>
</g>
<path id="Girl5V_73" d="M154.81 125.283H128.924V127.332H154.81H180.71V125.283H154.81Z" fill="#FF7C50"/>
<g id="Girl5V_74" style="mix-blend-mode:multiply">
<path d="M172.498 125.283C172.483 125.963 172.434 126.643 172.349 127.318H180.711V125.283H172.498Z" fill="#FF7C50"/>
</g>
<g id="Girl5V_75" style="mix-blend-mode:multiply">
<path d="M136.73 125.283H128.884V127.318H136.879C136.794 126.643 136.745 125.963 136.73 125.283V125.283Z" fill="#FF7C50"/>
</g>
</g>
<path id="Girl5V_76" d="M142.309 160.283C149.313 156.212 151.96 148.531 150.236 144.31C148.512 140.089 139.54 120.804 112.866 124.238C86.1919 127.671 74.8573 130.046 75.8754 137.307C76.8934 144.568 79.8391 142.735 81.5631 149.806C83.287 156.877 83.2734 163.459 108.373 161.6C133.472 159.74 142.309 160.283 142.309 160.283Z" fill="#FF5E43"/>
<g id="Girl5V_77" style="mix-blend-mode:multiply">
<path d="M150.304 144.31C148.371 139.616 145.417 135.411 141.657 132C144.263 134.914 146.36 138.244 147.861 141.853C149.571 146.088 146.938 153.742 139.933 157.84C139.933 157.84 131.083 157.311 105.997 159.198C93.5765 160.107 87.3051 158.953 83.925 156.7C86.382 160.46 92.0697 162.848 108.44 161.64C133.54 159.795 142.377 160.283 142.377 160.283C149.313 156.185 151.96 148.53 150.304 144.31Z" fill="#FF5E43"/>
</g>
<path id="Girl5V_78" d="M167.313 160.283C160.322 156.212 157.675 148.531 159.399 144.31C161.123 140.089 170.096 120.804 196.769 124.238C223.443 127.671 234.778 130.046 233.746 137.307C232.715 144.568 229.796 142.735 228.072 149.806C226.348 156.877 226.362 163.459 201.263 161.6C176.163 159.74 167.313 160.283 167.313 160.283Z" fill="#FF5E43"/>
<g id="Girl5V_79" style="mix-blend-mode:multiply">
<path d="M230.76 131.593C231.307 132.59 231.499 133.744 231.303 134.864C230.244 142.125 227.339 140.293 225.629 147.363C223.918 154.434 223.905 161.003 198.819 159.157C173.734 157.311 164.883 157.8 164.883 157.8C164.052 157.313 163.262 156.759 162.521 156.144C163.869 157.775 165.496 159.154 167.326 160.215C167.326 160.215 176.177 159.686 201.263 161.573C226.348 163.459 226.362 156.823 228.072 149.779C229.783 142.735 232.701 144.541 233.746 137.28C234.099 134.959 233.108 133.113 230.76 131.593Z" fill="#FF5E43"/>
</g>
<path id="Girl5V_80" d="M136.472 175.225C126.861 184.834 105.02 183.545 95.409 173.95C85.7983 164.355 79.6083 144.853 89.219 135.258C98.8298 125.663 129.861 126.3 139.445 135.896C149.028 145.491 146.069 165.603 136.472 175.225Z" fill="#332A31"/>
<g id="Girl5G_18">
<g id="Girl5V_81" style="mix-blend-mode:overlay">
<path d="M118.852 128.608L84.4137 147.743C84.3959 151.404 84.9924 155.042 86.1784 158.505L134.123 132.326C129.28 130.233 124.116 128.976 118.852 128.608V128.608Z" fill="white"/>
</g>
<g id="Girl5V_82" style="mix-blend-mode:overlay">
<path d="M141.291 138.08C140.744 137.3 140.131 136.569 139.458 135.895C138.885 135.331 138.268 134.814 137.612 134.348L87.3865 161.749C88.0427 163.299 88.7907 164.808 89.6263 166.268L141.291 138.08Z" fill="white"/>
</g>
<g id="Girl5V_83" style="mix-blend-mode:overlay">
<path d="M144.739 158.492C145.119 156.492 145.319 154.461 145.336 152.426L99.78 177.288C101.594 178.353 103.514 179.226 105.508 179.894L144.739 158.492Z" fill="white"/>
</g>
</g>
<path id="Girl5V_84" d="M173.163 175.225C182.774 184.834 204.616 183.545 214.213 173.95C223.81 164.355 230.027 144.853 220.416 135.258C210.805 125.663 179.774 126.3 170.191 135.896C160.607 145.491 163.566 165.603 173.163 175.225Z" fill="#332A31"/>
<g id="Girl5V_85" style="mix-blend-mode:multiply" opacity="0.3">
<path d="M89.2191 143.414C98.8162 133.819 129.861 134.457 139.445 144.052C142.616 147.418 144.59 151.734 145.064 156.334C146.001 148.653 144.413 140.863 139.445 135.896C129.847 126.3 98.8026 125.663 89.2191 135.258C84.8888 139.587 83.7893 145.925 84.7395 152.466C85.2436 149.053 86.8111 145.886 89.2191 143.414V143.414Z" fill="#332A31"/>
</g>
<g id="Girl5G_19">
<g id="Girl5V_86" style="mix-blend-mode:overlay">
<path d="M203 128.73L164.354 150.2C164.151 153.92 164.54 157.649 165.507 161.247L217.362 132.937C212.915 130.562 208.026 129.13 203 128.73V128.73Z" fill="white"/>
</g>
<g id="Girl5V_87" style="mix-blend-mode:overlay">
<path d="M223.335 139.343C222.593 137.834 221.607 136.458 220.416 135.271L166.593 164.572C167.17 166.16 167.874 167.698 168.697 169.173L223.335 139.343Z" fill="white"/>
</g>
<g id="Girl5V_88" style="mix-blend-mode:overlay">
<path d="M187.023 181.455L221.95 162.455C222.968 160.183 223.768 157.82 224.339 155.398L179.924 179.65C182.207 180.539 184.592 181.145 187.023 181.455V181.455Z" fill="white"/>
</g>
</g>
<g id="Girl5V_89" style="mix-blend-mode:multiply" opacity="0.3">
<path d="M170.177 144.052C179.774 134.457 210.819 133.819 220.403 143.414C222.811 145.886 224.378 149.053 224.882 152.466C225.846 145.925 224.733 139.587 220.403 135.258C210.805 125.663 179.761 126.3 170.177 135.896C165.209 140.863 163.621 148.653 164.557 156.334C165.031 151.734 167.006 147.418 170.177 144.052V144.052Z" fill="#332A31"/>
</g>
</g>
</g>
</g>
<defs>
<linearGradient id="Girl5P0_linear" x1="155.557" y1="285.032" x2="155.557" y2="223.472" gradientUnits="userSpaceOnUse">
<stop stop-color="#FFB39D"/>
<stop offset="0.23" stop-color="#FF9B8E"/>
<stop offset="0.48" stop-color="#FF8781"/>
<stop offset="0.74" stop-color="#FF7B7A"/>
<stop offset="1" stop-color="#FF7777"/>
</linearGradient>
<linearGradient id="Girl5P1_linear" x1="6268.98" y1="17724.2" x2="6268.98" y2="14941.2" gradientUnits="userSpaceOnUse">
<stop stop-color="#FFB39D"/>
<stop offset="0.23" stop-color="#FF9B8E"/>
<stop offset="0.48" stop-color="#FF8781"/>
<stop offset="0.74" stop-color="#FF7B7A"/>
<stop offset="1" stop-color="#FF7777"/>
</linearGradient>
<linearGradient id="Girl5P2_linear" x1="244.606" y1="167.856" x2="244.606" y2="127.793" gradientUnits="userSpaceOnUse">
<stop stop-color="#FFEADB"/>
<stop offset="0.99" stop-color="#D177F4"/>
</linearGradient>
<linearGradient id="Girl5P3_linear" x1="2575.24" y1="5546.47" x2="2575.24" y2="5262.46" gradientUnits="userSpaceOnUse">
<stop stop-color="#FFEADB"/>
<stop offset="0.99" stop-color="#D177F4"/>
</linearGradient>
<linearGradient id="Girl5P4_linear" x1="-16462.7" y1="17724.2" x2="-16462.7" y2="14941.2" gradientUnits="userSpaceOnUse">
<stop stop-color="#FFB39D"/>
<stop offset="0.23" stop-color="#FF9B8E"/>
<stop offset="0.48" stop-color="#FF8781"/>
<stop offset="0.74" stop-color="#FF7B7A"/>
<stop offset="1" stop-color="#FF7777"/>
</linearGradient>
<linearGradient id="Girl5P5_linear" x1="-14373.3" y1="11290.6" x2="-14373.3" y2="10108.1" gradientUnits="userSpaceOnUse">
<stop stop-color="#FFEADB"/>
<stop offset="0.99" stop-color="#D177F4"/>
</linearGradient>
<linearGradient id="Girl5P6_linear" x1="-6058.16" y1="5546.47" x2="-6058.16" y2="5262.46" gradientUnits="userSpaceOnUse">
<stop stop-color="#FFEADB"/>
<stop offset="0.99" stop-color="#D177F4"/>
</linearGradient>
<linearGradient id="Girl5P7_linear" x1="154.77" y1="232.158" x2="154.77" y2="13.9969" gradientUnits="userSpaceOnUse">
<stop stop-color="#FFAA96"/>
<stop offset="0.43" stop-color="#F9AB99"/>
<stop offset="0.55" stop-color="#FBA38F"/>
<stop offset="0.78" stop-color="#FE9983"/>
<stop offset="1" stop-color="#FF967F"/>
</linearGradient>
<linearGradient id="Girl5P8_linear" x1="3628.83" y1="30380.2" x2="3628.83" y2="20396.4" gradientUnits="userSpaceOnUse">
<stop stop-color="#FFEADB"/>
<stop offset="0.99" stop-color="#D177F4"/>
</linearGradient>
<linearGradient id="Girl5P9_linear" x1="-32828.4" y1="30380.2" x2="-32828.4" y2="20396.4" gradientUnits="userSpaceOnUse">
<stop stop-color="#FFEADB"/>
<stop offset="0.99" stop-color="#D177F4"/>
</linearGradient>
<linearGradient id="Girl5P10_linear" x1="15556.3" y1="84787.9" x2="37872.6" y2="67358.5" gradientUnits="userSpaceOnUse">
<stop stop-color="#FFEADB"/>
<stop offset="0.99" stop-color="#D177F4"/>
</linearGradient>
<linearGradient id="Girl5P11_linear" x1="21191.3" y1="54116.3" x2="31973.7" y2="42247.5" gradientUnits="userSpaceOnUse">
<stop stop-color="#FFEADB"/>
<stop offset="0.99" stop-color="#D177F4"/>
</linearGradient>
<linearGradient id="Girl5P12_linear" x1="225.52" y1="272.302" x2="253.732" y2="223.426" gradientUnits="userSpaceOnUse">
<stop offset="0.01" stop-color="#D177F4"/>
<stop offset="1" stop-color="#FFEADB"/>
</linearGradient>
<linearGradient id="Girl5P13_linear" x1="5364.63" y1="19513.9" x2="5364.63" y2="15756" gradientUnits="userSpaceOnUse">
<stop stop-color="#FFEADB"/>
<stop offset="0.99" stop-color="#D177F4"/>
</linearGradient>
<linearGradient id="Girl5P14_linear" x1="-37493.8" y1="17385.4" x2="-37493.8" y2="14339.9" gradientUnits="userSpaceOnUse">
<stop stop-color="#FFEADB"/>
<stop offset="0.99" stop-color="#D177F4"/>
</linearGradient>
<linearGradient id="Girl5P15_linear" x1="195.751" y1="141.419" x2="195.751" y2="108.142" gradientUnits="userSpaceOnUse">
<stop stop-color="#EEE2FF"/>
<stop offset="1" stop-color="#BDC9FB"/>
</linearGradient>
<linearGradient id="Girl5P16_linear" x1="192.846" y1="137.945" x2="192.846" y2="112.96" gradientUnits="userSpaceOnUse">
<stop stop-color="#72791A"/>
<stop offset="1" stop-color="#594A0B"/>
</linearGradient>
<linearGradient id="Girl5P17_linear" x1="192.846" y1="137.212" x2="192.846" y2="113.693" gradientUnits="userSpaceOnUse">
<stop stop-color="#A68D18"/>
<stop offset="1" stop-color="#402F40"/>
</linearGradient>
<linearGradient id="Girl5P18_linear" x1="192.846" y1="133.086" x2="192.846" y2="117.818" gradientUnits="userSpaceOnUse">
<stop stop-color="#CAA7DB"/>
<stop offset="0.99" stop-color="#8460B8"/>
</linearGradient>
<linearGradient id="Girl5P19_linear" x1="-24023.1" y1="8751.48" x2="-24023.1" y2="7934.71" gradientUnits="userSpaceOnUse">
<stop stop-color="#EEE2FF"/>
<stop offset="1" stop-color="#BDC9FB"/>
</linearGradient>
<linearGradient id="Girl5P20_linear" x1="-15111.4" y1="6328" x2="-15111.4" y2="5867.53" gradientUnits="userSpaceOnUse">
<stop stop-color="#72791A"/>
<stop offset="1" stop-color="#594A0B"/>
</linearGradient>
<linearGradient id="Girl5P21_linear" x1="-14174.5" y1="5939.33" x2="-14174.5" y2="5531.27" gradientUnits="userSpaceOnUse">
<stop stop-color="#A68D18"/>
<stop offset="1" stop-color="#402F40"/>
</linearGradient>
<linearGradient id="Girl5P22_linear" x1="-8908.85" y1="3984.09" x2="-8908.85" y2="3812.63" gradientUnits="userSpaceOnUse">
<stop stop-color="#CAA7DB"/>
<stop offset="0.99" stop-color="#8460B8"/>
</linearGradient>
<linearGradient id="Girl5P23_linear" x1="155.788" y1="173.122" x2="155.788" y2="151.951" gradientUnits="userSpaceOnUse">
<stop stop-color="#F97A7E"/>
<stop offset="0.08" stop-color="#FA7D7E"/>
<stop offset="0.54" stop-color="#FE897F"/>
<stop offset="1" stop-color="#FF8D7F"/>
</linearGradient>
<linearGradient id="Girl5P24_linear" x1="163.607" y1="170.028" x2="171.263" y2="170.028" gradientUnits="userSpaceOnUse">
<stop offset="0.02" stop-color="#7C51B3"/>
<stop offset="0.99" stop-color="#BD89C4"/>
</linearGradient>
<linearGradient id="Girl5P25_linear" x1="1041.32" y1="780.589" x2="1081.49" y2="780.589" gradientUnits="userSpaceOnUse">
<stop offset="0.02" stop-color="#7C51B3"/>
<stop offset="0.99" stop-color="#BD89C4"/>
</linearGradient>
</defs>
</svg>
