<svg width="229" height="246" viewBox="0 0 229 246" fill="none" xmlns="http://www.w3.org/2000/svg">
<g id="Girl3-G">
<path id="Girl-3V" d="M51.2281 59.1252C51.2281 59.1252 14.9391 186.257 53.1732 241.525H188.189C188.189 241.525 188.189 190.988 186.129 129.574C184.069 68.1601 160.682 39.3637 160.682 39.3637C160.682 39.3637 98.543 -4.17619 51.2281 59.1252Z" fill="url(#Girl-3P0_linear)"/>
<g id="Girl3-G_2">
<path id="Girl-3V_2" d="M137.295 226.011C136.846 223.513 137.295 194.176 137.295 194.176L115.082 200.218L92.8689 194.13C92.8689 194.13 93.3178 223.467 92.8689 225.965C92.42 228.462 62.3461 241.64 62.3461 241.64C97.3934 245.707 132.793 245.707 167.841 241.64C167.841 241.64 137.755 228.462 137.295 226.011Z" fill="url(#Girl-3P1_linear)"/>
<g id="Girl-3V_3" style="mix-blend-mode:multiply" opacity="0.08">
<path d="M93.0185 207.93C93.0185 207.93 114.944 222.213 137.099 217.92L137.295 194.13H92.8689L93.0185 207.93Z" fill="#353535"/>
</g>
</g>
<g id="Girl3-G_3">
<path id="Girl-3V_4" d="M199.745 129.85C199.411 131.508 199.02 132.981 198.594 134.316C195.659 143.788 191.205 146.009 189.386 150.279C187.844 153.974 181.744 161.374 175.713 153.732C175.713 153.732 178.579 122.427 180.881 116.672C180.881 116.672 184.219 108.132 190.203 106.831C197.892 105.163 202.749 115.291 199.745 129.85Z" fill="url(#Girl-3P2_linear)"/>
<path id="Girl-3V_5" style="mix-blend-mode:multiply" opacity="0.6" d="M177.808 134.27C177.808 134.27 189.847 116.787 195.601 115.636C201.356 114.485 198.479 129.321 197.328 134.27C196.73 137.01 195.757 139.655 194.439 142.131C195.284 138.662 195.861 135.134 196.165 131.577C196.58 124.786 194.416 118.916 191.999 119.526C189.582 120.136 186.336 128.607 186.129 129.574C185.922 130.541 187.729 132.279 187.614 137.55C187.499 142.821 185.001 148.53 183.632 148.461C182.262 148.392 182.849 144.133 182.849 139.253C182.849 134.373 179.005 135.294 177.301 138.482L177.808 134.27Z" fill="url(#Girl-3P3_linear)"/>
<path id="Girl-3V_6" style="mix-blend-mode:multiply" opacity="0.6" d="M177.301 138.436C177.301 138.436 180.397 133.763 182.262 135.881C184.126 137.999 182.78 143.938 184.207 144.617C185.634 145.296 187.533 140.554 187.165 136.192C186.797 131.83 185.059 127.928 182.561 128.653L177.773 134.27L177.301 138.436Z" fill="url(#Girl-3P4_linear)"/>
<path id="Girl-3V_7" d="M198.594 134.373C195.659 143.846 191.205 146.067 189.386 150.337C187.844 154.031 181.744 161.432 175.713 153.79C176.07 154.089 179.569 156.92 183.102 155.631C186.831 154.273 188.028 150.786 189.605 148.081C191.182 145.376 195.302 143.477 198.594 134.373Z" fill="#880A2C"/>
</g>
<g id="Girl3-G_4">
<path id="Girl-3V_8" d="M28.8885 129.85C29.2337 131.508 29.6135 132.981 30.0394 134.316C32.9743 143.788 37.4284 146.009 39.2469 150.279C40.8006 153.974 46.9006 161.374 52.92 153.732C52.92 153.732 50.0657 122.427 47.7523 116.672C47.7523 116.672 44.4261 108.132 38.4412 106.831C30.7184 105.163 25.896 115.291 28.8885 129.85Z" fill="url(#Girl-3P5_linear)"/>
<path id="Girl-3V_9" style="mix-blend-mode:multiply" opacity="0.6" d="M50.8368 134.27C50.8368 134.27 38.775 116.787 33.0203 115.636C27.2656 114.485 30.143 129.321 31.3054 134.27C31.89 137.011 32.8546 139.657 34.1712 142.131C33.3401 138.68 32.7707 135.171 32.4679 131.634C32.065 124.844 34.2173 118.974 36.6342 119.584C39.0512 120.194 42.3083 128.665 42.5155 129.632C42.7227 130.598 40.9157 132.336 41.0193 137.608C41.1229 142.879 43.6434 148.587 45.013 148.518C46.3827 148.449 45.7957 144.191 45.7957 139.311C45.7957 134.431 49.6283 135.352 51.3317 138.54L50.8368 134.27Z" fill="url(#Girl-3P6_linear)"/>
<path id="Girl-3V_10" style="mix-blend-mode:multiply" opacity="0.6" d="M51.3316 138.436C51.3316 138.436 48.2356 133.763 46.3826 135.881C44.5296 137.999 45.8647 143.938 44.4375 144.617C43.0104 145.296 41.0768 140.554 41.4796 136.238C41.8824 131.922 43.5743 127.974 46.0833 128.699L50.8827 134.316L51.3316 138.436Z" fill="url(#Girl-3P7_linear)"/>
<path id="Girl-3V_11" d="M30.0509 134.373C32.9858 143.846 37.4399 146.067 39.2584 150.337C40.8121 154.031 46.9121 161.432 52.9315 153.79C52.5747 154.089 49.0874 156.92 45.554 155.631C41.8135 154.273 40.628 150.786 39.0397 148.081C37.4514 145.376 33.3886 143.477 30.0509 134.373Z" fill="#880A2C"/>
</g>
<g id="Girl3-G_5">
<path id="Girl-3V_12" d="M183.965 113.564C182.446 121.23 180.582 129.298 179.293 138.551C175.84 162.963 168.623 174.23 152.038 184.957C134.659 196.271 129.446 200.667 114.437 201.231C99.4753 200.667 94.2271 196.271 76.8479 184.957C60.263 174.219 52.9776 163.009 49.5938 138.597C48.8342 133.153 47.8789 128.124 46.9121 123.347C46.1986 119.802 45.4735 116.442 44.8174 113.058V112.908C42.4235 100.662 40.9733 89.3602 44.2535 75.6986C47.6372 61.5767 59.3192 44.0364 77.0896 32.9759C88.2745 25.9335 101.22 22.1914 114.437 22.1802C152.959 22.1802 179.293 53.2554 184.644 75.7102C188.005 89.5674 186.428 101.054 183.965 113.564Z" fill="url(#Girl-3P8_linear)"/>
<g id="Girl-3V_13" style="mix-blend-mode:multiply">
<path d="M183.954 113.61C182.435 121.276 180.57 129.344 179.281 138.597C175.828 163.008 168.612 174.276 152.027 185.003C134.648 196.317 129.434 200.713 114.426 201.277C99.4638 200.713 94.2155 196.317 76.8364 185.003C60.2629 174.219 52.9775 163.008 49.5938 138.597C48.2702 129.113 46.3481 120.884 44.8174 113.058C45.3008 114.957 49.283 130.644 53.1732 146.573C57.328 163.572 63.4395 174.034 81.8545 187.029C98.9804 199.125 108.959 200.138 114.023 200.184H114.898C119.962 200.184 129.941 199.125 147.124 187.029C165.539 174.034 171.65 163.572 175.805 146.573C179.385 131.703 183.079 117.052 183.954 113.61Z" fill="#D077B7"/>
</g>
<path id="Girl-3V_14" style="mix-blend-mode:multiply" opacity="0.6" d="M77.0551 32.9299C76.284 33.5053 56.5224 48.0417 55.1068 61.5076C53.6566 75.2382 54.5428 90.7068 50.1232 103.666C47.5032 111.686 47.0153 120.25 48.7076 128.515C48.604 128.239 47.9135 126.351 46.9121 123.347C46.1986 119.802 45.4735 116.442 44.8174 113.058V112.908C42.4235 100.662 40.9733 89.3602 44.2535 75.6986C47.6372 61.5766 59.3192 44.0364 77.0896 32.9759L77.0551 32.9299Z" fill="url(#Girl-3P9_linear)"/>
<path id="Girl-3V_15" style="mix-blend-mode:multiply" opacity="0.6" d="M151.808 32.9299C152.579 33.5053 172.341 48.0417 173.757 61.5076C175.207 75.2382 174.332 90.7068 178.74 103.666C181.36 111.686 181.848 120.25 180.156 128.515C180.271 128.239 180.961 126.351 181.951 123.347C182.665 119.802 183.39 116.442 184.057 113.058C184.062 113.008 184.062 112.958 184.057 112.908C186.451 100.662 187.902 89.3602 184.621 75.6986C181.238 61.5766 169.567 44.0364 151.785 32.9759L151.808 32.9299Z" fill="url(#Girl-3P10_linear)"/>
<path id="Girl-3V_16" style="mix-blend-mode:multiply" d="M144.592 48.2949C144.834 48.5941 145.662 49.6645 146.894 51.4254C146.123 50.3781 145.363 49.3422 144.592 48.2949Z" fill="url(#Girl-3P11_linear)"/>
<path id="Girl-3V_17" style="mix-blend-mode:multiply" opacity="0.16" d="M90.2218 95.5868C90.2218 95.5868 97.3231 143.604 89.5543 151.983C81.7854 160.361 58.479 158.969 43.2637 148.979C28.0483 138.989 29.5675 102.009 29.5675 102.009C29.5675 102.009 44.852 78.5875 68.2274 80.7283C91.6029 82.869 90.2218 95.5868 90.2218 95.5868Z" fill="url(#Girl-3P12_linear)"/>
<path id="Girl-3V_18" style="mix-blend-mode:multiply" opacity="0.16" d="M134.21 92.9051C134.21 92.9051 124.888 139.76 132.657 148.092C140.426 156.425 163.732 155.079 178.947 145.088C194.163 135.098 192.597 98.1649 192.597 98.1649C192.597 98.1649 178.614 86.5865 155.238 88.7272C131.863 90.8679 134.21 92.9051 134.21 92.9051Z" fill="url(#Girl-3P13_linear)"/>
</g>
<g id="Girl3-G_6">
<path id="Girl-3V_19" d="M85.3073 139.173C85.3073 139.173 69.7812 142.28 59.2271 131.542L60.0097 127.675C60.0097 127.675 68.4691 137.573 85.3073 139.173Z" fill="#880A2C"/>
<path id="Girl-3V_20" d="M94.1465 132.785C92.8689 138.896 83.65 140.842 73.0383 138.194C57.7654 134.304 57.19 122.91 59.4113 116.672C61.6326 110.434 67.6174 105.945 80.4043 109.686C93.1912 113.426 95.8844 124.51 94.1465 132.785Z" fill="url(#Girl-3P14_linear)"/>
<path id="Girl-3V_21" d="M94.4572 130.99C94.465 133.045 94.2411 135.095 93.7896 137.101C93.1681 138.712 84.8469 139.196 84.8469 139.196C84.8469 139.196 93.5594 138.701 94.4572 130.99Z" fill="#880A2C"/>
<path id="Girl-3V_22" d="M79.2418 136.134C85.6809 136.134 90.9008 130.914 90.9008 124.475C90.9008 118.036 85.6809 112.816 79.2418 112.816C72.8027 112.816 67.5828 118.036 67.5828 124.475C67.5828 130.914 72.8027 136.134 79.2418 136.134Z" fill="url(#Girl-3P15_linear)"/>
<path id="Girl-3V_23" d="M79.2418 135.455C85.3059 135.455 90.2217 130.539 90.2217 124.475C90.2217 118.411 85.3059 113.495 79.2418 113.495C73.1778 113.495 68.2619 118.411 68.2619 124.475C68.2619 130.539 73.1778 135.455 79.2418 135.455Z" fill="url(#Girl-3P16_linear)"/>
<path id="Girl-3V_24" style="mix-blend-mode:multiply" d="M72.1521 124.475C72.1521 125.884 72.5699 127.262 73.3528 128.433C74.1356 129.605 75.2482 130.518 76.55 131.057C77.8518 131.597 79.2843 131.738 80.6663 131.463C82.0482 131.188 83.3177 130.509 84.314 129.513C85.3104 128.517 85.9889 127.247 86.2638 125.865C86.5387 124.483 86.3976 123.051 85.8584 121.749C85.3191 120.447 84.406 119.335 83.2344 118.552C82.0628 117.769 80.6854 117.351 79.2764 117.351C77.3869 117.351 75.5748 118.102 74.2388 119.438C72.9027 120.774 72.1521 122.586 72.1521 124.475V124.475Z" fill="url(#Girl-3P17_linear)"/>
<g id="Girl-3V_25" style="mix-blend-mode:multiply" opacity="0.6">
<path d="M94.4572 130.99C94.4572 130.99 93.3062 117.489 80.738 113.495C66.547 108.995 59.181 117.409 59.181 117.409C59.181 117.409 62.6338 105.266 78.3096 107.476C93.9853 109.686 94.7219 123.578 94.4572 130.99Z" fill="#D077B7"/>
</g>
<path id="Girl-3V_26" d="M69.7121 122.024C70.4141 122.645 67.1455 122.795 64.7055 121.84C62.5187 120.976 61.4714 119.538 61.6786 119.331C61.8857 119.123 66.9268 119.549 69.7121 122.024Z" fill="white"/>
<path id="Girl-3V_27" d="M71.5766 122.645C72.4973 122.323 73.5792 122.806 73.6253 123.301C73.6713 123.796 72.4743 124.452 71.9794 124.199C71.4845 123.946 71.0587 122.818 71.5766 122.645Z" fill="white"/>
<path id="Girl-3V_28" d="M93.7321 121.771C93.7321 121.771 91.2346 105.657 78.0218 104.104C65.1429 102.538 60.1478 114.289 60.1478 114.289C60.1478 114.289 80.5424 97.6815 93.7321 121.771Z" fill="#B21D51"/>
<path id="Girl-3V_29" d="M94.1695 123.842C94.1695 123.842 89.278 111.32 76.8364 109.974C64.3948 108.627 59.4112 116.672 59.4112 116.672L55.3945 111.711H58.1452C61.1314 109.386 64.6088 107.774 68.3126 106.996C72.0164 106.218 75.8488 106.296 79.5181 107.223C92.0287 110.514 94.1695 123.842 94.1695 123.842Z" fill="black"/>
</g>
<g id="Girl3-G_7">
<path id="Girl-3V_30" d="M145.305 139.173C145.305 139.173 160.832 142.28 171.386 131.542L170.603 127.675C170.603 127.675 162.144 137.573 145.305 139.173Z" fill="#880A2C"/>
<path id="Girl-3V_31" d="M136.455 132.785C137.744 138.896 146.963 140.842 157.574 138.194C172.847 134.304 173.48 122.91 171.19 116.66C168.9 110.411 162.995 105.934 150.209 109.674C137.422 113.415 134.728 124.51 136.455 132.785Z" fill="url(#Girl-3P18_linear)"/>
<path id="Girl-3V_32" d="M136.156 130.99C136.148 133.045 136.372 135.095 136.823 137.101C137.445 138.712 145.766 139.196 145.766 139.196C145.766 139.196 137.053 138.701 136.156 130.99Z" fill="#880A2C"/>
<path id="Girl-3V_33" d="M151.371 136.134C157.81 136.134 163.03 130.914 163.03 124.475C163.03 118.036 157.81 112.816 151.371 112.816C144.932 112.816 139.712 118.036 139.712 124.475C139.712 130.914 144.932 136.134 151.371 136.134Z" fill="url(#Girl-3P19_linear)"/>
<path id="Girl-3V_34" d="M151.371 135.455C157.435 135.455 162.351 130.539 162.351 124.475C162.351 118.411 157.435 113.495 151.371 113.495C145.307 113.495 140.391 118.411 140.391 124.475C140.391 130.539 145.307 135.455 151.371 135.455Z" fill="url(#Girl-3P20_linear)"/>
<path id="Girl-3V_35" style="mix-blend-mode:multiply" d="M158.472 124.475C158.472 125.884 158.054 127.262 157.271 128.433C156.489 129.605 155.376 130.518 154.074 131.057C152.772 131.597 151.34 131.738 149.958 131.463C148.576 131.188 147.307 130.509 146.31 129.513C145.314 128.517 144.635 127.247 144.36 125.865C144.086 124.483 144.227 123.051 144.766 121.749C145.305 120.447 146.218 119.335 147.39 118.552C148.561 117.769 149.939 117.351 151.348 117.351C153.237 117.351 155.049 118.102 156.385 119.438C157.722 120.774 158.472 122.586 158.472 124.475V124.475Z" fill="url(#Girl-3P21_linear)"/>
<g id="Girl-3V_36" style="mix-blend-mode:multiply" opacity="0.6">
<path d="M136.156 130.99C136.156 130.99 137.306 117.489 149.875 113.495C164.066 108.995 171.432 117.409 171.432 117.409C171.432 117.409 167.979 105.266 152.303 107.476C136.627 109.686 135.891 123.578 136.156 130.99Z" fill="#D077B7"/>
</g>
<path id="Girl-3V_37" d="M160.901 122.024C160.199 122.645 163.467 122.795 165.907 121.84C168.083 120.976 169.141 119.538 168.934 119.331C168.727 119.123 163.686 119.549 160.901 122.024Z" fill="white"/>
<path id="Girl-3V_38" d="M159.036 122.645C158.115 122.323 157.033 122.806 156.987 123.301C156.941 123.796 158.138 124.452 158.633 124.199C159.128 123.946 159.554 122.818 159.036 122.645Z" fill="white"/>
<path id="Girl-3V_39" d="M136.881 121.771C136.881 121.771 139.378 105.657 152.579 104.104C165.47 102.538 170.465 114.289 170.465 114.289C170.465 114.289 150.07 97.6815 136.881 121.771Z" fill="#B21D51"/>
<path id="Girl-3V_40" d="M136.432 123.842C136.432 123.842 141.335 111.32 153.776 109.974C166.218 108.627 171.19 116.672 171.19 116.672L175.218 111.711H172.468C169.481 109.386 166.004 107.774 162.3 106.996C158.596 106.218 154.764 106.296 151.095 107.223C138.584 110.514 136.432 123.842 136.432 123.842Z" fill="black"/>
</g>
<g id="Girl3-G_8">
<path id="Girl-3V_41" d="M131.264 102.435C131.264 102.435 131.586 94.8732 132.818 92.2491C132.818 92.2491 145.846 87.1274 153.305 85.2629C162.178 83.0416 164.998 83.3984 164.998 83.3984C164.998 83.3984 169.751 84.6184 174.206 92.2836C174.206 92.2836 168.589 87.3116 164.802 87.6108C153.259 88.5086 137.629 96.1508 131.264 102.435Z" fill="url(#Girl-3P22_linear)"/>
<path id="Girl-3V_42" d="M131.264 102.435C131.264 102.435 129.779 96.2083 130.861 93.0317L129.48 93.2044C129.48 93.2044 128.905 96.8874 131.264 102.435Z" fill="url(#Girl-3P23_linear)"/>
</g>
<g id="Girl3-G_9">
<path id="Girl-3V_43" d="M98.52 99.8798C98.52 99.8798 97.277 92.4103 95.7347 89.9588C95.7347 89.9588 84.8469 80.7513 74.6266 78.5415C65.6838 76.6309 62.795 78.1272 62.795 78.1272C62.795 78.1272 58.1337 86.8858 54.6348 95.0344C54.6348 95.0344 60.4586 82.3741 64.2451 82.0749C81.1408 80.7283 83.834 95.184 98.52 99.8798Z" fill="url(#Girl-3P24_linear)"/>
<path id="Girl-3V_44" d="M98.5199 99.8798C98.5199 99.8798 99.2335 93.5151 97.7603 90.4997H99.1645C99.1645 90.4997 100.177 94.0791 98.5199 99.8798Z" fill="url(#Girl-3P25_linear)"/>
</g>
<path id="Girl-3V_45" style="mix-blend-mode:multiply" d="M59.2961 220.429C55.8628 212.432 53.4089 204.05 51.9877 195.465C53.7897 203.959 56.2328 212.304 59.2961 220.429Z" fill="url(#Girl-3P26_linear)"/>
<g id="Girl3-G_10">
<path id="Girl-3V_46" d="M217.711 242.722C217.711 242.814 217.619 242.906 217.584 242.999C216.618 243.514 215.589 243.901 214.523 244.149C214.523 244.149 214.523 244.149 214.408 244.149C210.401 245.041 206.299 245.428 202.196 245.3C200.435 245.3 198.686 245.208 196.959 245.116C188.604 244.644 181.203 243.459 181.203 243.459C184.449 235.932 182.837 223.893 182.837 223.893C180.766 235.333 174.574 240.213 174.574 240.213L167.265 239.062C169.888 235.693 172.16 232.064 174.044 228.232L174.459 227.311C176.565 222.708 177.992 217.482 176.657 213.166C176.018 211.184 175.141 209.286 174.044 207.515C174.044 207.515 174.044 207.515 174.044 207.458C170.005 200.886 164.181 195.948 165.251 181.987C166.552 164.355 180.8 130.955 175.529 116.085C170.258 101.215 166.909 71.797 163.789 56.3975C160.67 40.998 144.949 35.1743 144.949 35.1743C144.949 35.1743 81.5782 41.2742 67.3642 58.0318C67.3642 58.0318 67.3642 58.0318 67.3642 58.0894C66.4072 59.1728 65.6616 60.4259 65.1659 61.7839C65.1659 61.8414 65.1659 61.8644 65.1659 61.899C64.5214 63.8325 63.9229 65.8467 63.4165 67.9298C60.4356 79.3932 59.4918 92.79 59.4918 106.175V106.314C59.4918 107.361 59.4918 108.431 59.4918 109.502V109.709C59.5609 118.088 59.9752 126.386 60.5392 134.051C62.231 157.265 46.8085 177.533 47.0732 185.153C47.3379 192.772 71.0011 205.685 68.5266 216.539C66.0521 227.392 59.8716 245.404 59.8716 245.404L56.5454 245.312L51.1936 245.162L34.5511 244.713C38.4757 238.475 40.1906 225.93 40.4669 223.617C40.3189 224.504 40.0995 225.378 39.8108 226.229C37.7852 232.088 32.9052 238.003 29.4524 241.652C29.2107 241.928 28.9805 242.135 28.7734 242.366C28.2324 242.964 27.726 243.436 27.2771 243.85C27.139 244 26.9894 244.126 26.8628 244.276C26.483 244.633 26.1492 244.921 25.9421 245.105C25.7349 245.289 25.827 245.197 25.7694 245.254C25.7694 245.254 25.7119 245.323 25.6773 245.323L25.6198 245.381C21.8447 245.381 12.0963 242.883 12.0963 242.883C12.0963 242.883 18.2768 237.232 12.6603 226.529C9.29955 220.175 0 210.416 0 193.957C0 178.995 11.8201 175.404 11.8201 156.863C11.8201 141.405 1.12792 137.297 3.92469 115.13C4.89453 108.755 6.48659 102.491 8.67804 96.427C8.68407 96.3889 8.68407 96.35 8.67804 96.3119C8.70117 96.2069 8.73997 96.106 8.79314 96.0126C8.82943 95.958 8.84939 95.8941 8.85068 95.8285C8.85907 95.7481 8.8825 95.67 8.91974 95.5983C8.97729 95.4487 9.05785 95.2415 9.12691 95.0344C18.2193 69.1959 38.0729 33.563 64.7055 18.8195C109.385 -5.97164 139.608 0.772841 143.924 5.29601C148.24 9.81919 146.226 27.1638 146.226 27.1638C150.008 27.0665 153.786 27.4768 157.459 28.3838C158.023 28.4988 158.61 28.6139 159.151 28.7635C165.119 30.4849 170.751 33.2093 175.805 36.8201C193.311 49.0085 205.05 69.9095 207.134 82.3626C209.09 94.0791 216.169 108.523 220.715 122.312L220.853 122.783L221.716 125.546C223.834 132.451 225.111 139.196 224.57 145.192C222.878 163.952 216.099 162.583 216.099 173.586C216.099 184.589 222.499 186.062 227.609 198.814C232.512 210.945 219.161 239.695 217.711 242.722Z" fill="url(#Girl-3P27_linear)"/>
<path id="Girl-3V_47" style="mix-blend-mode:multiply" d="M144.914 35.3354C144.914 35.3354 71.7953 42.3791 65.0393 62.0946C64.3948 64.0282 63.7963 66.0423 63.2899 68.1255C63.7689 62.0389 65.5342 56.1232 68.4691 50.7694C73.0728 42.2065 87.517 32.8954 88.5874 32.2164C87.6667 32.4581 72.693 36.6475 67.0419 47.731C61.2872 59.1828 62.3461 87.7144 49.9736 117.938C37.601 148.162 18.4379 147.609 15.9749 173.183C13.5119 198.757 51.4352 202.808 56.5109 216.504C61.3908 229.648 56.9252 244.126 56.5109 245.277C56.504 245.308 56.504 245.339 56.5109 245.369H51.0784C51.1237 245.292 51.1623 245.211 51.1935 245.128C52.5056 243.022 61.5519 227.472 53.8407 218.656C45.577 209.173 22.2706 214.168 15.0197 201.151C7.76878 188.133 9.04632 173.068 26.2873 148.208C43.5283 123.347 44.8634 112.011 51.6079 88.359C58.1797 65.4669 62.7834 50.4587 63.0482 49.538C61.8052 50.6889 23.9164 85.8614 19.5083 103.574C15.0197 121.586 22.1555 138.102 20.0723 149.612C17.9891 161.121 11.5438 161.789 4.97201 185.095C-1.59982 208.401 40.5244 223.387 40.5244 223.387C40.5179 223.505 40.5179 223.625 40.5244 223.743C40.3765 224.631 40.1571 225.504 39.8683 226.356C37.8197 232.652 32.3412 238.924 28.8424 242.469C28.3015 243.068 27.795 243.539 27.3462 243.954C27.2081 244.103 27.0584 244.23 26.9318 244.38C26.552 244.736 26.2183 245.024 26.0111 245.208L25.8385 245.381C25.8385 245.381 25.7809 245.45 25.7464 245.45C25.7119 245.45 25.7464 245.381 25.8385 245.358C26.7247 244.38 31.5931 238.694 29.2913 233.699C26.8513 228.209 7.71123 218.737 2.81976 199.079C-2.07171 179.421 21.4074 164.044 12.3725 140.842C3.33769 117.639 13.7997 99.5575 49.26 60.8861C84.7203 22.2148 118.696 11.7182 118.696 11.7182C111.503 10.855 83.2931 16.391 53.8407 37.6143C26.2183 57.5254 10.7037 91.8233 8.86217 96.0472C8.89648 95.9068 8.93875 95.7685 8.98877 95.6329C11.0029 90.4537 22.8 61.7148 47.0617 38.7422C73.8439 13.4216 120.514 3.0632 130.286 9.63504C140.057 16.2069 144.914 35.3354 144.914 35.3354Z" fill="url(#Girl-3P28_linear)"/>
<path id="Girl-3V_48" style="mix-blend-mode:multiply" d="M146.33 27.1868C146.33 27.1868 142.624 11.419 136.432 6.7692C130.24 2.11942 117.81 1.21017 117.81 1.21017C117.81 1.21017 135.753 0.15132 141.507 3.74224C147.262 7.33315 146.33 27.1868 146.33 27.1868Z" fill="url(#Girl-3P29_linear)"/>
<path id="Girl-3V_49" style="mix-blend-mode:multiply" d="M68.5266 216.538C68.0432 207.953 61.4713 202.267 43.0794 191.356C24.6875 180.445 32.721 174.184 46.9466 149.416C57.5582 131.001 59.3076 116.039 59.4802 109.651C59.5493 118.03 59.9636 126.328 60.5276 133.993C62.2195 157.208 46.7969 177.476 47.0616 185.095C47.3264 192.714 71.0011 205.685 68.5266 216.538Z" fill="url(#Girl-3P30_linear)"/>
<path id="Girl-3V_50" style="mix-blend-mode:multiply" d="M217.711 242.722C217.711 242.814 217.619 242.906 217.584 242.999L214.523 244.149H214.408C214.5 243.206 216.376 224.584 209.24 208.183C201.897 191.448 200.642 189.192 202.196 178.074C203.75 166.956 212.037 151.741 207.813 142.591C203.589 133.441 187.867 122.427 182.837 115.981C182.837 115.981 183.988 123.831 191.492 145.411C198.997 166.991 183.436 179.686 186.969 199.804C190.503 219.922 203.174 226.943 202.196 245.404H196.959V245.22C195.73 231.35 191.866 217.843 185.577 205.421C174.873 184.025 190.721 162.145 188.673 146.297C187.392 137.775 184.992 129.458 181.537 121.563C183.171 127.456 183.735 137.769 177.704 153.582C167.116 181.205 163.456 192.714 171.95 204.224C172.75 205.312 173.455 206.467 174.056 207.676C170.016 201.105 164.192 196.167 165.263 182.206C166.563 164.574 180.812 131.174 175.541 116.304C170.269 101.434 166.92 72.0157 163.801 56.6162C160.682 41.2167 144.96 35.393 144.96 35.393C144.96 35.393 158.771 34.15 165.355 41.8728C171.938 49.5955 163.651 74.2715 171.95 95.3797C180.248 116.488 205.891 132.06 212.647 144.421C219.403 156.782 202.288 184.704 205.591 197.042C208.895 209.38 225.79 222.984 217.711 242.722Z" fill="url(#Girl-3P31_linear)"/>
<path id="Girl-3V_51" style="mix-blend-mode:multiply" d="M146.618 29.293C146.618 29.293 165.435 27.1868 174.585 40.2729C183.735 53.359 180.075 79.842 192.183 100.824C204.291 121.805 221.866 125.569 221.866 125.569L220.853 122.334C220.853 122.334 206.512 117.155 195.337 101.249C184.161 85.3435 184.783 55.1085 178.947 41.7346C173.112 28.3607 146.33 27.1868 146.33 27.1868L146.618 29.293Z" fill="url(#Girl-3P32_linear)"/>
<path id="Girl-3V_52" style="mix-blend-mode:multiply" d="M144.914 35.3354C144.914 35.3354 81.5437 41.4353 67.3297 58.1929C72.9329 49.7212 79.6405 42.0343 87.2753 35.3354C103.63 20.684 115.07 7.98916 126.154 11.4995C137.237 15.0099 144.914 35.3354 144.914 35.3354Z" fill="url(#Girl-3P33_linear)"/>
<g id="Girl-3V_53" style="mix-blend-mode:soft-light">
<path d="M49.4211 40.9864C49.4211 40.9864 55.3254 36.9006 57.869 37.0387C60.4126 37.1769 64.625 45.6478 64.625 45.6478L83.8341 30.3518C81.118 31.4208 78.2444 32.0351 75.3287 32.1703C71.2774 32.1703 70.2761 27.1752 70.2761 27.1752C70.2761 27.1752 57.19 34.0003 49.4211 40.9864Z" fill="#FFD8FF"/>
</g>
<g id="Girl-3V_54" style="mix-blend-mode:soft-light">
<path d="M50.1462 35.9454C50.1462 35.9454 53.599 24.298 68.8604 23.17C68.8604 23.17 56.8332 29.6268 50.1462 35.9454Z" fill="#FFD8FF"/>
</g>
<g id="Girl-3V_55" style="mix-blend-mode:soft-light">
<path d="M38.9361 136.238C38.9361 136.238 30.0279 146.262 24.1121 152.892C18.1963 159.521 16.1361 171.41 16.1361 171.41C16.9105 169.262 18.243 167.359 19.9968 165.896C21.7506 164.434 23.8623 163.465 26.1147 163.089C33.9986 161.696 38.8671 159.705 42.9184 154.561C46.9696 149.416 48.7536 140.473 48.7536 140.473C48.7536 140.473 41.9976 139.691 38.9361 136.238Z" fill="#FFD8FF"/>
</g>
<g id="Girl-3V_56" style="mix-blend-mode:soft-light">
<path d="M22.0519 149.393C22.7764 145.816 24.356 142.467 26.6556 139.633C30.4997 134.845 34.551 130.817 34.551 130.817C34.551 130.817 31.4435 144.041 22.0519 149.393Z" fill="#FFD8FF"/>
</g>
<g id="Girl-3V_57" style="mix-blend-mode:soft-light">
<path d="M165.309 41.8612C165.309 41.8612 168.128 43.6911 168.071 59.1827C168.071 59.1827 175.448 53.923 178.947 54.8207C178.947 54.8207 178.222 44.186 173.48 38.8687C173.48 38.8687 174.24 41.1015 173.814 42.0108C173.388 42.92 165.309 41.8612 165.309 41.8612Z" fill="#FFD8FF"/>
</g>
<g id="Girl-3V_58" style="mix-blend-mode:soft-light">
<path d="M178.579 40.8369C178.579 40.8369 180.628 43.7257 182.4 51.1147H190.008C186.884 46.9951 183.006 43.5071 178.579 40.8369V40.8369Z" fill="#FFD8FF"/>
</g>
<g id="Girl-3V_59" style="mix-blend-mode:soft-light">
<path d="M196.453 126.547C196.453 126.547 210.54 138.333 213.153 145.411C213.096 145.445 218.758 133.407 196.453 126.547Z" fill="#FFD8FF"/>
</g>
<g id="Girl-3V_60" style="mix-blend-mode:soft-light">
<path d="M189.225 135.985C189.225 135.985 194.692 141.797 195.337 152.213C195.337 152.213 201.529 150.659 207.675 149.255C207.675 149.255 209.976 145.261 206.052 140.818C202.127 136.376 196.453 129.01 196.453 129.01C196.453 129.01 195.636 135.87 189.225 135.985Z" fill="#FFD8FF"/>
</g>
</g>
<g id="Girl3-G_11">
<g id="Girl-3V_61" style="mix-blend-mode:multiply" opacity="0.79">
<path d="M105.391 181.124C105.391 181.124 115.531 191.391 127.719 187.293C138.722 183.587 139.712 167.543 139.712 167.543C139.712 167.543 126.096 183.76 105.391 181.124Z" fill="#D077B7"/>
</g>
<path id="Girl-3V_62" d="M97.8985 174.587C97.8985 174.587 111.146 190.7 128.007 184.508C139.712 180.192 140.989 164.309 140.989 164.309C128.387 172.936 113.038 176.597 97.8985 174.587V174.587Z" fill="#E58888"/>
<path id="Girl-3V_63" d="M92.8689 173.632C92.8689 173.632 124.266 178.028 144.926 160.5C144.914 160.5 127.685 181.389 92.8689 173.632Z" fill="#72093B"/>
<path id="Girl-3V_64" d="M140.518 163.86C139.878 164.388 139.21 164.88 138.515 165.334L137.755 165.84C132.381 169.35 119.893 176.037 104.125 174.76C103.354 174.76 102.571 174.622 101.823 174.518H101.57C100.822 174.426 100.062 174.299 99.2681 174.173C104.701 174.334 108.073 165.851 118.915 162.491C131.886 158.37 137.318 165.828 140.518 163.86Z" fill="#E27474"/>
<g id="Girl-3V_65" style="mix-blend-mode:multiply">
<path d="M141.024 160.603C141.024 160.603 145.536 160.005 148.586 162.594C148.586 162.594 146.284 157.806 143.982 157.438C141.68 157.07 141.024 160.603 141.024 160.603Z" fill="#D077B7"/>
</g>
<g id="Girl-3V_66" style="mix-blend-mode:multiply">
<path d="M140.518 163.86C139.878 164.388 139.21 164.88 138.515 165.333C137.778 165.333 131.368 162.306 126.568 162.168C121.769 162.03 112.446 163.768 108.798 170.098C107.766 172.113 106.122 173.749 104.102 174.771C103.576 175.054 102.984 175.193 102.387 175.174L99.2566 174.15C104.689 174.311 108.061 165.828 118.903 162.468C131.886 158.37 137.318 165.828 140.518 163.86Z" fill="#D077B7"/>
</g>
<g id="Girl-3V_67" style="mix-blend-mode:multiply" opacity="0.6">
<path d="M103.227 175.024C103.227 175.024 102.974 175.105 102.318 176.693C101.662 178.281 112.941 188.502 126.223 184.14C139.505 179.778 139.309 165.529 139.309 165.529L141.013 164.309C141.013 164.309 140.391 180.48 126.281 185.279C112.17 190.079 97.9215 174.587 97.9215 174.587L103.227 175.024Z" fill="#D077B7"/>
</g>
</g>
<g id="Girl3-G_12">
<path id="Girl-3V_68" d="M128.099 152.075C128.099 152.075 127.869 152.972 125.095 153.099C122.321 153.226 119.743 156.241 115.059 156.241C110.375 156.241 108.015 153.237 105.253 153.099C102.491 152.961 102.007 152.075 102.007 152.075C101.658 149.967 101.784 147.809 102.376 145.756V145.756C102.928 143.765 103.79 141.874 104.931 140.151C107.949 138.212 111.46 137.181 115.047 137.181C118.635 137.181 122.146 138.212 125.164 140.151C125.95 141.328 126.599 142.59 127.098 143.914V143.914C128.168 146.493 128.514 149.314 128.099 152.075Z" fill="url(#Girl-3P34_linear)"/>
<path id="Girl-3V_69" d="M121.826 154.204C121.826 154.204 123.956 151.902 126.591 152.915L121.826 154.204Z" fill="#842751"/>
<path id="Girl-3V_70" d="M103.837 152.938C104.798 152.684 105.81 152.705 106.759 153C107.708 153.296 108.554 153.852 109.201 154.607L103.837 152.938Z" fill="#842751"/>
<g id="Girl-3V_71" style="mix-blend-mode:multiply" opacity="0.6">
<path d="M128.099 152.075C128.099 152.075 127.869 152.972 125.095 153.099C122.321 153.226 119.743 156.241 115.059 156.241C110.375 156.241 108.015 153.237 105.253 153.099C102.491 152.961 102.007 152.075 102.007 152.075C101.658 149.967 101.784 147.809 102.376 145.756C102.272 146.309 101.685 149.853 102.79 150.717C103.895 151.58 110.789 151.108 115.059 151.108C119.329 151.108 126.568 151.108 127.408 149.715C128.249 148.323 127.213 144.248 127.121 143.869C128.191 146.463 128.53 149.301 128.099 152.075V152.075Z" fill="#D177B8"/>
</g>
<path id="Girl-3V_72" style="mix-blend-mode:multiply" opacity="0.6" d="M125.176 140.082C124.336 143.343 123.888 146.693 123.841 150.061C123.841 150.061 122.69 146.044 124.209 139.529L125.176 140.082Z" fill="url(#Girl-3P35_linear)"/>
<path id="Girl-3V_73" style="mix-blend-mode:multiply" opacity="0.6" d="M105.184 140.082C106.024 143.343 106.472 146.693 106.519 150.061C106.519 150.061 107.67 146.044 106.151 139.529L105.184 140.082Z" fill="url(#Girl-3P36_linear)"/>
<g id="Girl-3V_74" style="mix-blend-mode:multiply" opacity="0.6">
<path d="M102.79 150.717C102.48 151.139 102.217 151.594 102.007 152.075C101.881 152.535 108.084 159.82 115.059 159.82C122.034 159.82 127.972 152.915 128.099 152.075C128.226 151.234 127.098 150.061 127.098 150.061C123.122 150.749 119.094 151.1 115.059 151.108C108.476 151.108 102.79 150.717 102.79 150.717Z" fill="#D177B8"/>
</g>
<path id="Girl-3V_75" d="M120.618 149.117C119.628 148.415 121.378 146.378 121.849 146.458C122.321 146.539 122.575 147.862 122.31 148.76C122.045 149.658 121.032 149.405 120.618 149.117Z" fill="#FFCFBF"/>
</g>
<g id="Girl3-G_13">
<g id="Girl3-G_14">
<path id="Girl-3V_76" d="M51.7576 32.2969C61.9318 32.2969 69.5625 16.5867 69.5625 16.5867C69.5625 16.5867 75.0179 32.2969 90.2793 32.2969C103.101 32.2969 108.222 21.2134 109.534 17.6685V16.4485C109.534 16.4485 109.604 16.6902 109.742 17.0931L109.903 16.5867V17.5419C111.215 21.0868 116.348 32.1703 129.158 32.1703C144.419 32.1703 149.875 16.4485 149.875 16.4485C149.875 16.4485 157.505 32.1703 167.68 32.1703C177.854 32.1703 182.941 16.4485 182.941 16.4485V46.2232L109.903 46.8562V46.9828L36.4731 46.3498V16.5406C36.4731 16.5406 41.5833 32.2969 51.7576 32.2969Z" fill="#FFAC54"/>
<path id="Girl-3V_77" d="M109.903 48.2259L36.4732 47.6159C36.315 47.6163 36.1584 47.5841 36.0133 47.5212C35.8681 47.4584 35.7375 47.3664 35.6295 47.2508C35.5215 47.1352 35.4384 46.9987 35.3856 46.8496C35.3327 46.7005 35.3111 46.5421 35.3222 46.3844V16.5406C35.3127 16.2592 35.4018 15.9833 35.5742 15.7605C35.7465 15.5378 35.9912 15.3822 36.266 15.3207C36.5385 15.2813 36.8161 15.341 37.0484 15.4888C37.2806 15.6366 37.4522 15.8628 37.532 16.1263C37.532 16.2759 42.481 31.0194 51.723 31.0194C60.965 31.0194 68.4461 16.1148 68.5267 15.9537C68.6353 15.7681 68.7937 15.6166 68.984 15.5165C69.1743 15.4164 69.3889 15.3716 69.6033 15.3871C69.8178 15.4027 70.0236 15.4781 70.1975 15.6046C70.3713 15.7312 70.5062 15.904 70.5869 16.1033C70.8055 16.7133 75.9732 31.0654 90.2448 31.0654C102.122 31.0654 107.037 20.9027 108.372 17.4268V16.4486C108.351 16.1611 108.439 15.8763 108.618 15.6504C108.797 15.4245 109.054 15.2739 109.339 15.2286C109.578 15.1925 109.822 15.2414 110.029 15.3667C110.316 15.4095 110.576 15.5588 110.758 15.785C110.939 16.0112 111.028 16.2975 111.008 16.5867V17.2887C112.331 20.7415 117.257 30.9388 129.123 30.9388C143.395 30.9388 148.563 16.6212 148.781 15.9767C148.85 15.7619 148.981 15.5721 149.157 15.4309C149.333 15.2897 149.547 15.2033 149.771 15.1825C149.994 15.1765 150.214 15.2353 150.404 15.3518C150.594 15.4682 150.746 15.6374 150.842 15.8386C150.922 15.9882 158.277 30.9043 167.645 30.9043C177.014 30.9043 181.79 16.1608 181.836 16.0112C181.916 15.7477 182.088 15.5215 182.32 15.3737C182.552 15.2259 182.83 15.1662 183.102 15.2056C183.381 15.2558 183.631 15.4068 183.805 15.6297C183.979 15.8526 184.065 16.1319 184.046 16.4141V46.1887C184.057 46.3465 184.035 46.5049 183.983 46.6539C183.93 46.803 183.847 46.9396 183.739 47.0552C183.631 47.1707 183.5 47.2628 183.355 47.3256C183.21 47.3884 183.053 47.4206 182.895 47.4202L110.386 48.0532C110.242 48.1509 110.076 48.2103 109.903 48.2259V48.2259ZM37.6241 45.1183L109.396 45.7514C109.549 45.6694 109.718 45.6259 109.891 45.6247L181.813 44.9917V21.9731C179.304 26.8415 174.643 33.3558 167.68 33.3558C159.151 33.3558 152.51 23.4463 149.978 19.0382C147.746 23.5268 141.461 33.3558 129.158 33.3558C117.649 33.3558 112.009 24.8734 109.753 20.0855C107.532 24.8389 101.881 33.4939 90.2793 33.4939C77.9759 33.4939 71.6918 23.6649 69.4589 19.1648C66.9269 23.5729 60.2515 33.4939 51.7576 33.4939C44.852 33.4939 40.1331 26.9681 37.6241 22.1112V45.1183Z" fill="#120F0E"/>
</g>
<path id="Girl-3V_78" d="M180.11 27.9809C179.18 29.2759 178.124 30.475 176.956 31.5603C175.804 32.6386 174.496 33.5385 173.078 34.2305C171.677 34.9138 170.164 35.3388 168.612 35.485C168.221 35.485 167.829 35.5541 167.461 35.485H166.31C165.533 35.3971 164.763 35.2509 164.008 35.0477C162.489 34.637 161.039 34.0049 159.704 33.1717C158.349 32.3302 157.074 31.3671 155.894 30.2943C153.531 28.0817 151.437 25.5976 149.656 22.8938H150.554C148.433 26.5828 145.515 29.7519 142.014 32.1703C138.553 34.4278 134.563 35.7409 130.438 35.9791C126.313 36.2174 122.198 35.3725 118.5 33.5284C116.627 32.5686 114.89 31.365 113.333 29.949C111.754 28.4898 110.356 26.8477 109.166 25.0575H110.409C109.231 26.8667 107.835 28.5248 106.254 29.9951C104.705 31.4276 102.971 32.6469 101.098 33.6205C97.404 35.521 93.2623 36.3804 89.1169 36.1065C88.095 36.0567 87.0767 35.9491 86.0669 35.7843L84.5592 35.4505C84.0643 35.3469 83.5809 35.1628 83.086 35.0246C81.1061 34.3753 79.2213 33.4658 77.481 32.3199C73.9684 29.8945 71.0395 26.7179 68.9065 23.0204H69.8503C68.0731 25.7269 65.9789 28.2114 63.6122 30.4209C62.4353 31.4973 61.1598 32.4606 59.8026 33.2982C58.4667 34.1324 57.0167 34.7682 55.4981 35.1858C54.7438 35.3908 53.9739 35.5332 53.1962 35.6116H52.0453C51.6655 35.6116 51.2742 35.6116 50.8944 35.6116C49.3413 35.472 47.8273 35.0467 46.4288 34.3571C45.0128 33.6653 43.706 32.7696 42.5501 31.6985C41.3823 30.6091 40.3259 29.4062 39.3965 28.1075C41.2823 30.6186 43.7406 32.6429 46.5669 34.0118C47.9478 34.6172 49.4242 34.9756 50.9289 35.0707C51.3087 35.0707 51.677 35.0707 52.0798 35.0707L53.2308 34.9901C53.9715 34.8826 54.7027 34.7171 55.4176 34.4952C56.8651 34.0497 58.2411 33.3985 59.5034 32.5617C60.7908 31.7113 62.0001 30.7484 63.1173 29.6843C65.3252 27.4496 67.2713 24.9706 68.918 22.2953C68.954 22.2326 69.0029 22.1783 69.0615 22.1361C69.1202 22.0939 69.1872 22.0647 69.2581 22.0505C69.3289 22.0364 69.402 22.0375 69.4724 22.0539C69.5428 22.0704 69.6088 22.1016 69.6661 22.1457C69.7374 22.1819 69.8002 22.2329 69.8503 22.2953C71.94 25.7997 74.7871 28.7923 78.183 31.0539C79.8308 32.1192 81.6158 32.9555 83.4888 33.5399C83.9607 33.6665 84.4211 33.8392 84.893 33.9312L86.3201 34.2305C87.2768 34.3795 88.2414 34.4717 89.209 34.5067H89.9456H90.3024H90.6707L92.1209 34.4492L93.5595 34.2765C94.0429 34.219 94.5148 34.1039 94.9867 34.0233C96.894 33.6202 98.7373 32.9581 100.465 32.0552C102.221 31.1221 103.847 29.9611 105.299 28.6024C106.775 27.2318 108.077 25.6857 109.178 23.9987C109.231 23.9122 109.302 23.8379 109.385 23.7805C109.469 23.7231 109.564 23.6839 109.664 23.6655C109.763 23.647 109.866 23.6497 109.965 23.6734C110.063 23.6971 110.156 23.7413 110.237 23.803C110.307 23.8595 110.369 23.9253 110.421 23.9987C111.523 25.6873 112.83 27.2336 114.311 28.6024C115.767 29.9347 117.392 31.0686 119.145 31.9747C120.869 32.8683 122.709 33.519 124.612 33.9082C125.084 33.9888 125.556 34.1154 126.039 34.1614L127.478 34.3226L128.916 34.3916C129.4 34.3916 129.883 34.3916 130.366 34.3916C134.276 34.2615 138.076 33.0678 141.358 30.9388C144.735 28.6748 147.568 25.6916 149.656 22.2033V22.2033C149.692 22.1405 149.741 22.0863 149.8 22.044C149.858 22.0018 149.925 21.9726 149.996 21.9584C150.067 21.9443 150.14 21.9454 150.21 21.9618C150.281 21.9783 150.347 22.0096 150.404 22.0536C150.462 22.0916 150.509 22.1429 150.542 22.2033C152.235 24.8696 154.228 27.3333 156.481 29.5462C157.596 30.61 158.805 31.5694 160.095 32.412C161.357 33.2525 162.733 33.9075 164.181 34.3571C164.896 34.579 165.627 34.7445 166.368 34.852L167.519 34.9326C167.887 34.9326 168.255 34.9326 168.67 34.9326C170.176 34.8404 171.654 34.4778 173.032 33.8622C175.825 32.4924 178.252 30.4762 180.11 27.9809V27.9809Z" fill="#694C1A"/>
<g id="Girl3-G_15">
<path id="Girl-3V_79" d="M188.247 15.0445C188.169 14.1553 187.834 13.308 187.283 12.6057C186.732 11.9034 185.989 11.3764 185.144 11.0889C184.299 10.8014 183.388 10.7657 182.523 10.9863C181.658 11.2069 180.876 11.6741 180.272 12.3312C179.668 12.9882 179.268 13.8067 179.12 14.6871C178.973 15.5674 179.085 16.4717 179.442 17.2897C179.799 18.1077 180.386 18.8042 181.132 19.2945C181.878 19.7848 182.751 20.0476 183.643 20.051C184.916 19.9942 186.115 19.4357 186.978 18.4975C187.841 17.5594 188.297 16.318 188.247 15.0445V15.0445Z" fill="#FF5252"/>
<path id="Girl-3V_80" d="M183.655 21.2825C182.399 21.3844 181.141 21.105 180.047 20.4808C178.952 19.8567 178.071 18.9168 177.52 17.784C176.968 16.6512 176.77 15.3783 176.954 14.1317C177.137 12.8851 177.692 11.7227 178.546 10.7966C179.401 9.87042 180.515 9.22361 181.742 8.94069C182.97 8.65777 184.255 8.75191 185.428 9.21079C186.602 9.66968 187.61 10.4719 188.32 11.5127C189.03 12.5535 189.41 13.7844 189.409 15.0444C189.472 16.6343 188.901 18.1839 187.822 19.3534C186.743 20.5229 185.244 21.2166 183.655 21.2825V21.2825ZM183.655 11.2808C182.897 11.2159 182.138 11.3813 181.476 11.7552C180.814 12.1292 180.28 12.6943 179.945 13.3765C179.609 14.0588 179.488 14.8265 179.596 15.579C179.704 16.3316 180.037 17.034 180.551 17.5942C181.065 18.1544 181.736 18.5464 182.476 18.7189C183.217 18.8913 183.992 18.8361 184.701 18.5605C185.409 18.285 186.018 17.8019 186.448 17.1745C186.877 16.5471 187.107 15.8047 187.107 15.0444C187.145 14.0884 186.803 13.1564 186.156 12.4514C185.51 11.7464 184.61 11.3257 183.655 11.2808V11.2808Z" fill="#120F0E"/>
</g>
<g id="Girl3-G_16">
<path id="Girl-3V_81" d="M155.019 15.0445C154.941 14.1553 154.606 13.308 154.055 12.6057C153.504 11.9034 152.761 11.3764 151.916 11.0889C151.071 10.8014 150.161 10.7657 149.296 10.9863C148.431 11.2069 147.649 11.6741 147.044 12.3312C146.44 12.9882 146.04 13.8067 145.893 14.6871C145.745 15.5674 145.857 16.4717 146.214 17.2897C146.571 18.1077 147.159 18.8042 147.905 19.2945C148.651 19.7848 149.523 20.0476 150.416 20.051C151.689 19.9942 152.888 19.4357 153.75 18.4975C154.613 17.5594 155.069 16.318 155.019 15.0445V15.0445Z" fill="#FF5252"/>
<path id="Girl-3V_82" d="M150.416 21.2825C149.16 21.3844 147.902 21.105 146.808 20.4808C145.713 19.8567 144.832 18.9168 144.281 17.784C143.729 16.6512 143.531 15.3783 143.715 14.1317C143.898 12.8851 144.453 11.7227 145.307 10.7966C146.162 9.87042 147.276 9.22361 148.503 8.94069C149.731 8.65777 151.016 8.75191 152.189 9.21079C153.363 9.66968 154.371 10.4719 155.081 11.5127C155.791 12.5535 156.171 13.7844 156.17 15.0444C156.233 16.6343 155.662 18.1839 154.583 19.3534C153.504 20.5229 152.005 21.2166 150.416 21.2825V21.2825ZM150.416 11.2808C149.658 11.2159 148.899 11.3813 148.237 11.7552C147.575 12.1292 147.041 12.6943 146.706 13.3765C146.37 14.0588 146.249 14.8265 146.357 15.579C146.465 16.3316 146.798 17.034 147.312 17.5942C147.826 18.1544 148.497 18.5464 149.237 18.7189C149.978 18.8913 150.753 18.8361 151.462 18.5605C152.17 18.285 152.779 17.8019 153.209 17.1745C153.638 16.5471 153.868 15.8047 153.868 15.0444C153.906 14.0884 153.564 13.1564 152.917 12.4514C152.27 11.7464 151.371 11.3257 150.416 11.2808V11.2808Z" fill="#120F0E"/>
</g>
<g id="Girl3-G_17">
<path id="Girl-3V_83" d="M31.1904 15.0445C31.2685 14.1553 31.6034 13.308 32.1543 12.6057C32.7053 11.9034 33.4485 11.3764 34.2936 11.0889C35.1386 10.8014 36.049 10.7657 36.9139 10.9863C37.7789 11.2069 38.561 11.6741 39.1652 12.3312C39.7694 12.9882 40.1696 13.8067 40.317 14.6871C40.4644 15.5674 40.3526 16.4717 39.9954 17.2897C39.6382 18.1077 39.0509 18.8042 38.305 19.2945C37.559 19.7848 36.6867 20.0476 35.7941 20.051C34.5209 19.9942 33.3219 19.4357 32.4593 18.4975C31.5966 17.5594 31.1404 16.318 31.1904 15.0445V15.0445Z" fill="#FF5252"/>
<path id="Girl-3V_84" d="M35.7826 21.2825C34.5267 21.3844 33.2692 21.105 32.1747 20.4808C31.0801 19.8567 30.1993 18.9168 29.6475 17.784C29.0956 16.6512 28.8984 15.3783 29.0816 14.1317C29.2648 12.8851 29.8198 11.7227 30.6742 10.7966C31.5286 9.87042 32.6425 9.22361 33.8703 8.94069C35.0982 8.65777 36.3829 8.75191 37.5564 9.21079C38.7298 9.66968 39.7376 10.4719 40.4478 11.5127C41.1581 12.5535 41.5378 13.7844 41.5372 15.0444C41.5996 16.6343 41.0287 18.1839 39.9498 19.3534C38.871 20.5229 37.3723 21.2166 35.7826 21.2825ZM35.7826 11.2808C35.0251 11.2159 34.2656 11.3813 33.6036 11.7552C32.9417 12.1292 32.408 12.6943 32.0726 13.3765C31.7371 14.0588 31.6155 14.8265 31.7236 15.579C31.8318 16.3316 32.1646 17.034 32.6786 17.5942C33.1925 18.1544 33.8637 18.5464 34.6042 18.7189C35.3447 18.8913 36.1199 18.8361 36.8285 18.5605C37.5371 18.285 38.146 17.8019 38.5755 17.1745C39.0049 16.5471 39.2349 15.8047 39.2354 15.0444C39.2729 14.0884 38.931 13.1564 38.2842 12.4514C37.6374 11.7464 36.7382 11.3257 35.7826 11.2808V11.2808Z" fill="#120F0E"/>
</g>
<g id="Girl3-G_18">
<path id="Girl-3V_85" d="M64.4408 15.0445C64.519 14.1553 64.8539 13.308 65.4048 12.6057C65.9558 11.9034 66.699 11.3764 67.5441 11.0889C68.3891 10.8014 69.2995 10.7657 70.1644 10.9863C71.0294 11.2069 71.8115 11.6741 72.4157 12.3312C73.0199 12.9882 73.4201 13.8067 73.5675 14.6871C73.7148 15.5674 73.6031 16.4717 73.2459 17.2897C72.8887 18.1077 72.3014 18.8042 71.5555 19.2945C70.8095 19.7848 69.9372 20.0476 69.0446 20.051C67.7714 19.9942 66.5724 19.4357 65.7098 18.4975C64.8471 17.5594 64.3909 16.318 64.4408 15.0445V15.0445Z" fill="#FF5252"/>
<path id="Girl-3V_86" d="M69.0331 21.2825C67.7772 21.3844 66.5198 21.105 65.4252 20.4808C64.3307 19.8567 63.4499 18.9168 62.898 17.784C62.3462 16.6512 62.149 15.3783 62.3321 14.1317C62.5153 12.8851 63.0704 11.7227 63.9248 10.7966C64.7791 9.87042 65.893 9.22361 67.1209 8.94069C68.3488 8.65777 69.6334 8.75191 70.8069 9.21079C71.9804 9.66968 72.9881 10.4719 73.6984 11.5127C74.4086 12.5535 74.7883 13.7844 74.7878 15.0444C74.8501 16.6343 74.2792 18.1839 73.2004 19.3534C72.1215 20.5229 70.6229 21.2166 69.0331 21.2825ZM69.0331 11.2808C68.2756 11.2159 67.5162 11.3813 66.8542 11.7552C66.1922 12.1292 65.6586 12.6943 65.3231 13.3765C64.9877 14.0588 64.866 14.8265 64.9742 15.579C65.0823 16.3316 65.4151 17.034 65.9291 17.5942C66.4431 18.1544 67.1143 18.5464 67.8547 18.7189C68.5952 18.8913 69.3705 18.8361 70.0791 18.5605C70.7877 18.285 71.3966 17.8019 71.826 17.1745C72.2555 16.5471 72.4855 15.8047 72.4859 15.0444C72.5234 14.0884 72.1815 13.1564 71.5348 12.4514C70.888 11.7464 69.9888 11.3257 69.0331 11.2808V11.2808Z" fill="#120F0E"/>
</g>
<g id="Girl3-G_19">
<path id="Girl-3V_87" d="M114.322 15.0445C114.244 14.1553 113.909 13.308 113.358 12.6057C112.807 11.9034 112.064 11.3764 111.219 11.0889C110.374 10.8014 109.464 10.7657 108.599 10.9863C107.734 11.2069 106.952 11.6741 106.347 12.3312C105.743 12.9882 105.343 13.8067 105.196 14.6871C105.048 15.5674 105.16 16.4717 105.517 17.2897C105.874 18.1077 106.462 18.8042 107.208 19.2945C107.954 19.7848 108.826 20.0476 109.719 20.051C110.992 19.9942 112.191 19.4357 113.053 18.4975C113.916 17.5594 114.372 16.318 114.322 15.0445V15.0445Z" fill="#FF5252"/>
<path id="Girl-3V_88" d="M109.719 21.2825C108.463 21.3844 107.205 21.105 106.111 20.4808C105.016 19.8567 104.135 18.9168 103.584 17.784C103.032 16.6512 102.834 15.3783 103.018 14.1317C103.201 12.8851 103.756 11.7227 104.61 10.7966C105.465 9.87042 106.579 9.22361 107.806 8.94069C109.034 8.65777 110.319 8.75191 111.492 9.21079C112.666 9.66968 113.674 10.4719 114.384 11.5127C115.094 12.5535 115.474 13.7844 115.473 15.0444C115.536 16.6343 114.965 18.1839 113.886 19.3534C112.807 20.5229 111.308 21.2166 109.719 21.2825V21.2825ZM109.719 11.2808C108.961 11.2159 108.202 11.3813 107.54 11.7552C106.878 12.1292 106.344 12.6943 106.009 13.3765C105.673 14.0588 105.552 14.8265 105.66 15.579C105.768 16.3316 106.101 17.034 106.615 17.5942C107.129 18.1544 107.8 18.5464 108.54 18.7189C109.281 18.8913 110.056 18.8361 110.765 18.5605C111.473 18.285 112.082 17.8019 112.511 17.1745C112.941 16.5471 113.171 15.8047 113.171 15.0444C113.209 14.0884 112.867 13.1564 112.22 12.4514C111.573 11.7464 110.674 11.3257 109.719 11.2808V11.2808Z" fill="#120F0E"/>
</g>
<path id="Girl-3V_89" d="M107.244 15.0444C107.342 15.6298 107.645 16.1614 108.098 16.5448C108.551 16.9282 109.125 17.1387 109.719 17.1387C110.312 17.1387 110.886 16.9282 111.339 16.5448C111.793 16.1614 112.095 15.6298 112.193 15.0444C112.307 15.4239 112.33 15.8248 112.26 16.2147C112.19 16.6047 112.029 16.9726 111.79 17.2887C111.55 17.6141 111.238 17.8799 110.879 18.0655C110.52 18.2511 110.123 18.3516 109.719 18.3591C109.316 18.3524 108.92 18.2523 108.562 18.0665C108.205 17.8808 107.895 17.6145 107.658 17.2887C107.419 16.9732 107.256 16.6057 107.184 16.2159C107.112 15.8261 107.133 15.4248 107.244 15.0444Z" fill="#120F0E"/>
<path id="Girl-3V_90" d="M147.93 15.0444C148.028 15.6298 148.33 16.1614 148.783 16.5448C149.236 16.9282 149.811 17.1387 150.404 17.1387C150.998 17.1387 151.572 16.9282 152.025 16.5448C152.478 16.1614 152.781 15.6298 152.879 15.0444C152.99 15.4248 153.011 15.8261 152.939 16.2159C152.867 16.6057 152.704 16.9732 152.464 17.2887C152.23 17.6189 151.921 17.8882 151.561 18.074C151.202 18.2598 150.803 18.3568 150.398 18.3568C149.994 18.3568 149.595 18.2598 149.236 18.074C148.876 17.8882 148.566 17.6189 148.332 17.2887C148.092 16.9735 147.93 16.6055 147.86 16.2152C147.79 15.825 147.814 15.4236 147.93 15.0444V15.0444Z" fill="#120F0E"/>
<path id="Girl-3V_91" d="M181.18 15.0444C181.278 15.6298 181.581 16.1614 182.034 16.5448C182.487 16.9282 183.061 17.1387 183.655 17.1387C184.248 17.1387 184.822 16.9282 185.275 16.5448C185.729 16.1614 186.031 15.6298 186.129 15.0444C186.241 15.4248 186.261 15.8261 186.189 16.2159C186.117 16.6057 185.955 16.9732 185.715 17.2887C185.478 17.6145 185.168 17.8808 184.811 18.0665C184.453 18.2523 184.057 18.3524 183.655 18.3591C183.25 18.3516 182.853 18.2511 182.494 18.0655C182.135 17.8799 181.823 17.6141 181.583 17.2887C181.345 16.9722 181.185 16.6043 181.115 16.2145C181.045 15.8247 181.067 15.424 181.18 15.0444Z" fill="#120F0E"/>
<path id="Girl-3V_92" d="M33.3081 15.0444C33.4062 15.6298 33.7087 16.1614 34.1617 16.5448C34.6148 16.9282 35.1891 17.1387 35.7826 17.1387C36.3761 17.1387 36.9504 16.9282 37.4035 16.5448C37.8565 16.1614 38.159 15.6298 38.2571 15.0444C38.3739 15.4235 38.3983 15.8251 38.3282 16.2155C38.2581 16.6059 38.0956 16.9739 37.8543 17.2887C37.6203 17.6189 37.3107 17.8882 36.9512 18.074C36.5918 18.2598 36.193 18.3568 35.7884 18.3568C35.3837 18.3568 34.985 18.2598 34.6255 18.074C34.2661 17.8882 33.9564 17.6189 33.7224 17.2887C33.4825 16.9732 33.32 16.6057 33.2481 16.2159C33.1761 15.8261 33.1967 15.4248 33.3081 15.0444Z" fill="#120F0E"/>
<path id="Girl-3V_93" d="M66.5586 15.0444C66.6638 15.6256 66.9697 16.1514 67.423 16.5301C67.8763 16.9087 68.4482 17.1161 69.0389 17.1161C69.6295 17.1161 70.2014 16.9087 70.6547 16.5301C71.108 16.1514 71.4139 15.6256 71.5191 15.0444C71.6305 15.4248 71.6511 15.8261 71.5791 16.2159C71.5072 16.6057 71.3447 16.9732 71.1048 17.2887C70.8708 17.6189 70.5611 17.8882 70.2017 18.074C69.8423 18.2598 69.4435 18.3568 69.0389 18.3568C68.6342 18.3568 68.2355 18.2598 67.876 18.074C67.5166 17.8882 67.2069 17.6189 66.9729 17.2887C66.733 16.9732 66.5705 16.6057 66.4986 16.2159C66.4266 15.8261 66.4472 15.4248 66.5586 15.0444Z" fill="#120F0E"/>
<path id="Girl-3V_94" d="M36.266 47.2361C35.6659 46.0363 35.3448 44.7164 35.3269 43.375C35.309 42.0337 35.5946 40.7057 36.1624 39.4903C40.0296 40.3075 67.6405 45.7744 109.822 45.5442C152.315 45.314 180.029 39.4673 183.574 38.6386C184.45 39.7442 184.919 41.1175 184.902 42.5278C184.885 43.9382 184.384 45.2999 183.482 46.3844C180.961 47.0174 154.26 53.4972 109.822 53.7389C65.8565 54.0036 39.2354 47.9497 36.266 47.2361Z" fill="white"/>
<g id="Girl3-G_20">
<path id="Girl-3V_95" d="M36.266 47.3397C35.6659 46.1399 35.3448 44.82 35.3269 43.4786C35.309 42.1373 35.5946 40.8092 36.1624 39.5939C40.0296 40.411 67.6405 45.878 109.822 45.6478C152.315 45.4176 180.029 39.5709 183.574 38.7422C184.45 39.8478 184.919 41.221 184.902 42.6314C184.885 44.0418 184.384 45.4035 183.482 46.488C180.961 47.1325 154.26 53.6007 109.822 53.8424C65.8565 54.1072 39.2354 48.0532 36.266 47.3397Z" fill="#FFAC54"/>
<path id="Girl-3V_96" d="M37.1177 41.5389C37.1177 41.5389 49.9161 49.5954 108.775 49.5954C167.38 49.5954 182.872 40.6412 182.872 40.6412C183.235 41.3085 183.404 42.0637 183.362 42.822C183.319 43.5804 183.066 44.3118 182.63 44.9342C177.9 46.0851 151.992 51.8398 109.834 52.1045H107.313C67.5139 52.1045 42.5616 46.9598 37.3594 45.7859C36.8504 44.4274 36.7661 42.9463 37.1177 41.5389V41.5389Z" fill="#694C1A"/>
</g>
<g id="Girl3-G_21">
<path id="Girl-3V_97" d="M180.467 48.6056L181.813 48.3064C183.217 47.9842 183.965 47.7885 184.011 47.777H184.196L184.334 47.6159C188.673 42.5517 184.334 37.4761 184.334 37.4301L184.08 37.1309L183.724 37.2114C183.436 37.2805 155.065 43.8868 109.857 44.117C64.648 44.3472 36.2545 38.0631 35.9782 37.9941L35.5294 37.8904L35.2762 38.3163C34.4501 39.8496 34.0177 41.564 34.0177 43.3056C34.0177 45.0472 34.4501 46.7616 35.2762 48.2949L35.4143 48.5366L35.679 48.6056C35.679 48.6056 36.6458 48.8474 38.3837 49.2157L39.8108 49.5149C49.0183 51.3679 73.5908 55.4422 109.845 55.2696C146.963 55.0164 171.685 50.4932 180.467 48.6056ZM109.845 53.7734C65.8565 54.0035 39.2354 47.9496 36.266 47.2361C35.6658 46.0363 35.3448 44.7164 35.3269 43.375C35.3089 42.0337 35.5946 40.7056 36.1624 39.4903C40.0295 40.3074 67.6404 45.7744 109.822 45.5442C152.315 45.314 180.029 39.4673 183.574 38.6386C184.45 39.7442 184.919 41.1174 184.902 42.5278C184.885 43.9382 184.384 45.2998 183.482 46.3843C180.984 47.0519 154.283 53.5317 109.845 53.7734Z" fill="#120F0E"/>
<path id="Girl-3V_98" d="M180.467 48.6056L181.813 48.3064C183.217 47.9842 183.965 47.7885 184.011 47.777H184.196L184.334 47.6159C188.673 42.5517 184.334 37.4761 184.334 37.4301L184.08 37.1309L183.724 37.2114C183.436 37.2805 155.065 43.8868 109.857 44.117C64.648 44.3472 36.2545 38.0631 35.9782 37.9941L35.5294 37.8904L35.2762 38.3163C34.4501 39.8496 34.0177 41.564 34.0177 43.3056C34.0177 45.0472 34.4501 46.7616 35.2762 48.2949L35.4143 48.5366L35.679 48.6056C35.679 48.6056 36.6458 48.8474 38.3837 49.2157L39.8108 49.5149C49.0183 51.3679 73.5908 55.4422 109.845 55.2696C146.963 55.0164 171.685 50.4932 180.467 48.6056ZM109.845 53.7734C65.8565 54.0035 39.2354 47.9496 36.266 47.2361C35.6658 46.0363 35.3448 44.7164 35.3269 43.375C35.3089 42.0337 35.5946 40.7056 36.1624 39.4903C40.0295 40.3074 67.6404 45.7744 109.822 45.5442C152.315 45.314 180.029 39.4673 183.574 38.6386C184.45 39.7442 184.919 41.1174 184.902 42.5278C184.885 43.9382 184.384 45.2998 183.482 46.3843C180.984 47.0519 154.283 53.5317 109.845 53.7734Z" fill="#120F0E"/>
</g>
<path id="Girl-3V_99" d="M180.674 29.8109V36.2561C176.001 37.4607 171.246 38.3223 166.448 38.8342V36.6819C166.448 36.6819 173.952 38.4083 180.674 29.8109Z" fill="#120F0E"/>
<path id="Girl-3V_100" d="M160.924 35.8303C160.924 35.8303 153.017 31.5258 150.646 26.3696V40.2728C154.092 40.1923 157.527 39.8576 160.924 39.2715V35.8303Z" fill="#694C1A"/>
<path id="Girl-3V_101" d="M144.327 32.389C144.327 32.389 138.803 36.2561 136.029 36.682V41.7C138.824 41.5652 141.601 41.18 144.327 40.5491V32.389Z" fill="#FFDF96"/>
<path id="Girl-3V_102" d="M38.8555 29.8109V36.2561C43.5246 37.4599 48.2752 38.3216 53.0696 38.8342V36.6819C53.0696 36.6819 45.5655 38.4083 38.8555 29.8109Z" fill="#120F0E"/>
<path id="Girl-3V_103" d="M58.6057 35.8303C58.6057 35.8303 66.5011 31.5258 68.872 26.3696V40.2728C65.4299 40.1921 61.9985 39.8575 58.6057 39.2715V35.8303Z" fill="#694C1A"/>
<path id="Girl-3V_104" d="M75.2021 32.389C75.2021 32.389 80.7266 36.2561 83.4888 36.682V41.7C80.6977 41.5649 77.9244 41.1797 75.2021 40.5491V32.389Z" fill="#FFDF96"/>
</g>
</g>
<defs>
<linearGradient id="Girl-3P0_linear" x1="35.6559" y1="133.13" x2="188.189" y2="133.13" gradientUnits="userSpaceOnUse">
<stop stop-color="#2D1606"/>
<stop offset="1" stop-color="#35120A"/>
</linearGradient>
<linearGradient id="Girl-3P1_linear" x1="115.082" y1="244.69" x2="115.082" y2="194.13" gradientUnits="userSpaceOnUse">
<stop stop-color="#FFAA96"/>
<stop offset="0.43" stop-color="#F9AB99"/>
<stop offset="0.55" stop-color="#FBA38F"/>
<stop offset="0.78" stop-color="#FE9983"/>
<stop offset="1" stop-color="#FF967F"/>
</linearGradient>
<linearGradient id="Girl-3P2_linear" x1="188.178" y1="157.104" x2="188.178" y2="106.659" gradientUnits="userSpaceOnUse">
<stop stop-color="#C34433"/>
<stop offset="0.08" stop-color="#B73B31"/>
<stop offset="0.31" stop-color="#9B272C"/>
<stop offset="0.54" stop-color="#871828"/>
<stop offset="0.77" stop-color="#7B0F26"/>
<stop offset="1" stop-color="#770C25"/>
</linearGradient>
<linearGradient id="Girl-3P3_linear" x1="188.189" y1="148.472" x2="188.189" y2="115.579" gradientUnits="userSpaceOnUse">
<stop stop-color="#FFE9DA"/>
<stop offset="0.99" stop-color="#D077F3"/>
</linearGradient>
<linearGradient id="Girl-3P4_linear" x1="2116.38" y1="8707.85" x2="2116.38" y2="8482.06" gradientUnits="userSpaceOnUse">
<stop stop-color="#FFE9DA"/>
<stop offset="0.99" stop-color="#D077F3"/>
</linearGradient>
<linearGradient id="Girl-3P5_linear" x1="-15801.9" y1="27486.1" x2="-15801.9" y2="25276.6" gradientUnits="userSpaceOnUse">
<stop stop-color="#C34433"/>
<stop offset="0.08" stop-color="#B73B31"/>
<stop offset="0.31" stop-color="#9B272C"/>
<stop offset="0.54" stop-color="#871828"/>
<stop offset="0.77" stop-color="#7B0F26"/>
<stop offset="1" stop-color="#770C25"/>
</linearGradient>
<linearGradient id="Girl-3P6_linear" x1="-13715.3" y1="17762.5" x2="-13715.3" y2="16820.9" gradientUnits="userSpaceOnUse">
<stop stop-color="#FFE9DA"/>
<stop offset="0.99" stop-color="#D077F3"/>
</linearGradient>
<linearGradient id="Girl-3P7_linear" x1="-5800.09" y1="8682.93" x2="-5800.09" y2="8457.8" gradientUnits="userSpaceOnUse">
<stop stop-color="#FFE9DA"/>
<stop offset="0.99" stop-color="#D077F3"/>
</linearGradient>
<linearGradient id="Girl-3P8_linear" x1="19763.6" y1="104142" x2="19763.6" y2="76271" gradientUnits="userSpaceOnUse">
<stop stop-color="#FFAA96"/>
<stop offset="0.43" stop-color="#F9AB99"/>
<stop offset="0.55" stop-color="#FBA38F"/>
<stop offset="0.78" stop-color="#FE9983"/>
<stop offset="1" stop-color="#FF967F"/>
</linearGradient>
<linearGradient id="Girl-3P9_linear" x1="3140.35" y1="49573.7" x2="3140.35" y2="41635.4" gradientUnits="userSpaceOnUse">
<stop stop-color="#FFE9DA"/>
<stop offset="0.99" stop-color="#D077F3"/>
</linearGradient>
<linearGradient id="Girl-3P10_linear" x1="-30244.8" y1="49573.7" x2="-30244.8" y2="41635.4" gradientUnits="userSpaceOnUse">
<stop stop-color="#FFE9DA"/>
<stop offset="0.99" stop-color="#D077F3"/>
</linearGradient>
<linearGradient id="Girl-3P11_linear" x1="145.731" y1="51.4254" x2="145.731" y2="48.2949" gradientUnits="userSpaceOnUse">
<stop offset="0.01" stop-color="#D077F3"/>
<stop offset="1" stop-color="#FFE9DA"/>
</linearGradient>
<linearGradient id="Girl-3P12_linear" x1="61.3679" y1="157.404" x2="61.3679" y2="80.5901" gradientUnits="userSpaceOnUse">
<stop stop-color="#FFEADB"/>
<stop offset="0.99" stop-color="#D177F4"/>
</linearGradient>
<linearGradient id="Girl-3P13_linear" x1="12848.4" y1="35243" x2="12848.4" y2="31561.2" gradientUnits="userSpaceOnUse">
<stop stop-color="#FFEADB"/>
<stop offset="0.99" stop-color="#D177F4"/>
</linearGradient>
<linearGradient id="Girl-3P14_linear" x1="76.5257" y1="139.368" x2="76.5257" y2="108.305" gradientUnits="userSpaceOnUse">
<stop stop-color="#EDE1FF"/>
<stop offset="1" stop-color="#BCC8FA"/>
</linearGradient>
<linearGradient id="Girl-3P15_linear" x1="79.2418" y1="136.134" x2="79.2418" y2="112.816" gradientUnits="userSpaceOnUse">
<stop stop-color="#77401B"/>
<stop offset="1" stop-color="#3D2B0E"/>
</linearGradient>
<linearGradient id="Girl-3P16_linear" x1="79.2418" y1="135.444" x2="79.2418" y2="113.495" gradientUnits="userSpaceOnUse">
<stop stop-color="#60360D"/>
<stop offset="1" stop-color="#402F40"/>
</linearGradient>
<linearGradient id="Girl-3P17_linear" x1="79.2303" y1="131.588" x2="79.2303" y2="117.351" gradientUnits="userSpaceOnUse">
<stop stop-color="#C9A6DA"/>
<stop offset="0.99" stop-color="#8360B7"/>
</linearGradient>
<linearGradient id="Girl-3P18_linear" x1="24445" y1="16489" x2="24445" y2="15651.2" gradientUnits="userSpaceOnUse">
<stop stop-color="#EDE1FF"/>
<stop offset="1" stop-color="#BCC8FA"/>
</linearGradient>
<linearGradient id="Girl-3P19_linear" x1="15491.9" y1="11883.7" x2="15491.9" y2="11411.3" gradientUnits="userSpaceOnUse">
<stop stop-color="#77401B"/>
<stop offset="1" stop-color="#3D2B0E"/>
</linearGradient>
<linearGradient id="Girl-3P20_linear" x1="14561.3" y1="11158.3" x2="14561.3" y2="10739.5" gradientUnits="userSpaceOnUse">
<stop stop-color="#60360D"/>
<stop offset="1" stop-color="#402F40"/>
</linearGradient>
<linearGradient id="Girl-3P21_linear" x1="9320.11" y1="7540.3" x2="9320.11" y2="7364.04" gradientUnits="userSpaceOnUse">
<stop stop-color="#C9A6DA"/>
<stop offset="0.99" stop-color="#8360B7"/>
</linearGradient>
<linearGradient id="Girl-3P22_linear" x1="7672.27" y1="8508.49" x2="9297.42" y2="8308.95" gradientUnits="userSpaceOnUse">
<stop stop-color="#2D1606"/>
<stop offset="1" stop-color="#35120A"/>
</linearGradient>
<linearGradient id="Girl-3P23_linear" x1="970.563" y1="4666.92" x2="961.224" y2="4590.85" gradientUnits="userSpaceOnUse">
<stop stop-color="#2D1606"/>
<stop offset="1" stop-color="#35120A"/>
</linearGradient>
<linearGradient id="Girl-3P24_linear" x1="-31885.6" y1="10869.4" x2="-33559" y2="10869.4" gradientUnits="userSpaceOnUse">
<stop stop-color="#2D1606"/>
<stop offset="1" stop-color="#35120A"/>
</linearGradient>
<linearGradient id="Girl-3P25_linear" x1="-459.568" y1="4718.74" x2="-459.568" y2="4642.29" gradientUnits="userSpaceOnUse">
<stop stop-color="#2D1606"/>
<stop offset="1" stop-color="#35120A"/>
</linearGradient>
<linearGradient id="Girl-3P26_linear" x1="677.955" y1="15127.5" x2="677.955" y2="14586.1" gradientUnits="userSpaceOnUse">
<stop stop-color="#FFE9DA"/>
<stop offset="0.99" stop-color="#D077F3"/>
</linearGradient>
<linearGradient id="Girl-3P27_linear" x1="31259" y1="151550" x2="31259" y2="99617.3" gradientUnits="userSpaceOnUse">
<stop stop-color="#2D1606"/>
<stop offset="1" stop-color="#35120A"/>
</linearGradient>
<linearGradient id="Girl-3P28_linear" x1="73.5217" y1="245.404" x2="73.5217" y2="7.70147" gradientUnits="userSpaceOnUse">
<stop stop-color="#DCD0E4"/>
<stop offset="0.99" stop-color="#944092"/>
</linearGradient>
<linearGradient id="Girl-3P29_linear" x1="4463.65" y1="11240.2" x2="4463.65" y2="10647.5" gradientUnits="userSpaceOnUse">
<stop stop-color="#DCD0E4"/>
<stop offset="0.99" stop-color="#944092"/>
</linearGradient>
<linearGradient id="Girl-3P30_linear" x1="2982.24" y1="63683" x2="2982.24" y2="53756.4" gradientUnits="userSpaceOnUse">
<stop stop-color="#DCD0E4"/>
<stop offset="0.99" stop-color="#944092"/>
</linearGradient>
<linearGradient id="Girl-3P31_linear" x1="14812.7" y1="130256" x2="14812.7" y2="91899" gradientUnits="userSpaceOnUse">
<stop stop-color="#DCD0E4"/>
<stop offset="0.99" stop-color="#944092"/>
</linearGradient>
<linearGradient id="Girl-3P32_linear" x1="15047.3" y1="50765.7" x2="15047.3" y2="42356" gradientUnits="userSpaceOnUse">
<stop stop-color="#DCD0E4"/>
<stop offset="0.99" stop-color="#944092"/>
</linearGradient>
<linearGradient id="Girl-3P33_linear" x1="10116.1" y1="21628.3" x2="10116.1" y2="19685.9" gradientUnits="userSpaceOnUse">
<stop stop-color="#DCD0E4"/>
<stop offset="0.99" stop-color="#944092"/>
</linearGradient>
<linearGradient id="Girl-3P34_linear" x1="3733.57" y1="10475.1" x2="3733.57" y2="10158.3" gradientUnits="userSpaceOnUse">
<stop stop-color="#FFAA96"/>
<stop offset="0.43" stop-color="#F9AB99"/>
<stop offset="0.55" stop-color="#FBA38F"/>
<stop offset="0.78" stop-color="#FE9983"/>
<stop offset="1" stop-color="#FF967F"/>
</linearGradient>
<linearGradient id="Girl-3P35_linear" x1="378.117" y1="5794.82" x2="378.117" y2="5698.46" gradientUnits="userSpaceOnUse">
<stop stop-color="#FFEADB"/>
<stop offset="0.99" stop-color="#D177F4"/>
</linearGradient>
<linearGradient id="Girl-3P36_linear" x1="-195.073" y1="5794.82" x2="-195.073" y2="5698.46" gradientUnits="userSpaceOnUse">
<stop stop-color="#FFEADB"/>
<stop offset="0.99" stop-color="#D177F4"/>
</linearGradient>
</defs>
</svg>
