<svg width="176" height="283" viewBox="0 0 176 283" fill="none" xmlns="http://www.w3.org/2000/svg">
<g id="Girl4G">
<g id="Girl4G_2">
<g id="Girl4G_3">
<g id="Girl4G_4">
<path id="Girl4V" d="M36.9238 195.856C36.9238 195.856 20.5895 252.699 89.2601 252.699C157.931 252.699 147.81 196.803 138.73 186.429C129.649 176.055 53.0047 172.188 36.9238 195.856Z" fill="#191919"/>
<path id="Girl4V_2" d="M130.662 180.109C130.662 180.109 149.717 202.363 147.37 222.578C145.023 242.792 122.249 246.579 122.249 246.579C122.249 246.579 152.797 243.672 153.21 220.564C153.624 197.456 138.116 182.682 138.116 182.682L130.662 180.109Z" fill="#191919"/>
<path id="Girl4V_3" d="M36.9238 222.858C36.9238 222.858 35.4037 242.499 46.0176 249.073C56.6316 255.646 78.9395 251.739 78.9395 251.739L73.4992 250.939C73.4992 250.939 54.3514 255.046 46.9377 247.979C40.7507 242.059 44.2709 232.058 44.2709 232.058L36.9238 222.858Z" fill="#141414"/>
</g>
<g id="Girl4G_5">
<path id="Girl4V_4" d="M115.808 259.34C115.302 256.446 115.808 222.458 115.808 222.458L90.1135 229.458L64.3787 222.458C64.3787 222.458 64.8854 256.446 64.3787 259.34C63.872 262.233 29.0034 277.487 29.0034 277.487C49.2901 279.821 69.693 281.001 90.1135 281.021C110.534 281.001 130.937 279.821 151.224 277.487C151.224 277.487 116.328 262.233 115.808 259.34Z" fill="url(#Girl4P0_linear)"/>
<g id="Girl4V_5" style="mix-blend-mode:multiply" opacity="0.6">
<path d="M64.5121 238.445C64.5121 238.445 89.8469 254.993 115.582 250.006L115.808 222.458H64.3387L64.5121 238.445Z" fill="#D177B8"/>
</g>
</g>
<g id="Girl4G_6">
<path id="Girl4V_6" d="M175.145 147.813C174.825 149.725 174.465 151.445 174.065 152.974V153.054C171.278 164.014 167.038 166.601 165.331 171.548C163.864 175.815 158.064 184.402 152.344 175.482C152.344 175.482 155.011 139.173 157.264 132.573C157.264 132.573 160.424 122.665 166.118 121.172C173.385 119.252 177.999 130.946 175.145 147.813Z" fill="url(#Girl4P1_linear)"/>
<path id="Girl4V_7" style="mix-blend-mode:multiply" opacity="0.6" d="M154.291 152.934C154.291 152.934 165.731 132.666 171.211 131.346C176.692 130.026 173.945 147.2 172.852 152.934C172.297 156.068 171.371 159.126 170.091 162.041C170.903 158.005 171.455 153.92 171.745 149.814C172.132 141.946 170.078 135.146 167.745 135.839C165.411 136.533 162.411 146.36 162.158 147.493C161.904 148.627 163.678 150.627 163.584 156.721C163.491 162.814 161.091 169.455 159.784 169.375C158.477 169.295 159.051 164.361 159.051 158.707C159.051 153.054 155.397 154.107 153.717 157.814L154.291 152.934Z" fill="url(#Girl4P2_linear)"/>
<path id="Girl4V_8" style="mix-blend-mode:multiply" opacity="0.6" d="M153.81 157.761C153.81 157.761 156.757 152.334 158.517 154.8C160.278 157.267 159.024 164.134 160.371 164.921C161.718 165.708 163.544 160.214 163.184 155.16C162.824 150.107 161.184 145.573 158.851 146.427L154.291 152.934L153.81 157.761Z" fill="url(#Girl4P3_linear)"/>
<path id="Girl4V_9" d="M174.118 153.054C171.331 164.014 167.091 166.601 165.384 171.548C163.918 175.815 158.117 184.402 152.397 175.482C152.73 175.815 156.051 179.095 159.411 177.615C162.771 176.135 164.091 172.001 165.598 168.868C167.105 165.734 170.865 163.601 174.118 153.054Z" fill="#DD6B7C"/>
</g>
<g id="Girl4G_7">
<path id="Girl4V_10" d="M0.855074 147.987C1.17509 149.894 1.53512 151.614 1.92181 153.147V153.227C4.70863 164.188 8.94887 166.775 10.6423 171.721C12.1224 175.988 17.9094 184.576 23.643 175.642C23.643 175.642 20.9762 139.333 18.7228 132.733C18.7228 132.733 15.5626 122.825 9.86892 121.332C2.61518 119.385 -1.99842 131.106 0.855074 147.987Z" fill="url(#Girl4P4_linear)"/>
<path id="Girl4V_11" style="mix-blend-mode:multiply" opacity="0.6" d="M21.7096 153.094C21.7096 153.094 10.2556 132.839 4.77531 131.519C-0.704998 130.199 2.10849 147.373 3.14855 153.094C3.70015 156.228 4.62222 159.285 5.89537 162.201C5.08954 158.146 4.54175 154.044 4.25529 149.92C3.8686 142.066 5.90871 135.319 8.25551 135.959C10.6023 136.599 13.5892 146.48 13.8425 147.6C14.0959 148.72 12.3224 150.734 12.4158 156.841C12.5091 162.948 14.9092 169.575 16.216 169.495C17.5227 169.415 16.9493 164.468 16.9493 158.827C16.9493 153.187 20.6029 154.227 22.283 157.934L21.7096 153.094Z" fill="url(#Girl4P5_linear)"/>
<path id="Girl4V_12" style="mix-blend-mode:multiply" opacity="0.6" d="M22.1763 157.921C22.1763 157.921 19.2428 152.494 17.4693 154.96C15.6959 157.427 16.976 164.294 15.6292 165.081C14.2825 165.868 12.4557 160.374 12.8157 155.321C13.1758 150.267 14.8159 145.733 17.1493 146.587L21.7096 153.08L22.1763 157.921Z" fill="url(#Girl4P6_linear)"/>
<path id="Girl4V_13" d="M1.94846 153.227C4.73528 164.188 8.97552 166.775 10.669 171.721C12.149 175.988 17.936 184.576 23.6697 175.642C23.3363 175.988 20.0162 179.269 16.6426 177.788C13.2691 176.308 11.9757 172.161 10.4689 169.041C8.96219 165.921 5.12197 163.761 1.94846 153.227Z" fill="#DD6B7C"/>
</g>
<g id="Girl4G_8">
<path id="Girl4V_14" d="M163.691 132.266C162.024 141.72 159.984 151.68 158.571 163.108C154.851 193.229 146.89 207.11 128.716 220.377C109.688 234.338 103.968 239.765 87.54 240.459C71.0991 239.765 65.3921 234.338 46.351 220.377C28.19 207.043 20.2295 193.229 16.5093 163.108C15.6826 156.441 14.6292 150.174 13.5758 144.28C12.7891 139.906 12.0024 135.693 11.2823 131.572V131.399C8.61552 116.278 7.06877 102.331 10.669 85.4765C14.3759 68.0355 27.1632 46.4076 46.671 32.7535C58.5936 24.1621 72.898 19.5012 87.5934 19.4194C129.782 19.4194 158.624 57.7416 164.518 85.4765C168.105 102.651 166.385 116.825 163.691 132.266Z" fill="url(#Girl4P7_linear)"/>
<path id="Girl4V_15" style="mix-blend-mode:multiply" opacity="0.6" d="M70.1124 115.918C71.8778 130.486 71.842 145.215 70.0057 159.774C70.0057 159.774 61.2985 169.268 40.5507 165.401C19.8028 161.534 20.0162 118.972 23.2164 105.238C27.9766 85.2498 64.0187 95.9037 70.1124 115.918Z" fill="url(#Girl4P8_linear)" fill-opacity="0.3"/>
<path id="Girl4V_16" style="mix-blend-mode:multiply" opacity="0.6" d="M104.914 115.918C103.149 130.486 103.185 145.215 105.021 159.774C105.021 159.774 113.728 169.268 134.476 165.401C155.224 161.534 155.731 126.145 152.49 112.411C147.783 92.4235 111.021 95.9037 104.914 115.918Z" fill="url(#Girl4P9_linear)" fill-opacity="0.3"/>
<g id="Girl4V_17" style="mix-blend-mode:multiply" opacity="0.6">
<path d="M163.678 132.319C162.011 141.773 159.971 151.734 158.557 163.161C154.837 193.283 146.877 207.163 128.702 220.431C109.675 234.392 103.954 239.819 87.5267 240.512C71.0858 239.819 65.3788 234.392 46.3377 220.431C28.1767 207.097 20.2162 193.283 16.496 163.161C15.0559 151.454 12.9491 141.293 11.269 131.626C11.7891 133.973 16.1627 153.347 20.4162 172.961C24.9765 193.936 31.6702 206.843 51.8314 222.884C70.5924 237.819 81.5264 239.059 87.0734 239.112H88.0334C93.5804 239.112 104.514 237.779 123.275 222.884C143.45 206.883 150.117 193.923 154.691 173.001C158.664 154.654 162.718 136.586 163.678 132.319Z" fill="#D177B8"/>
</g>
<path id="Girl4V_18" style="mix-blend-mode:multiply" opacity="0.6" d="M46.5777 32.7535C45.7376 33.4602 24.0964 51.4212 22.5763 68.0088C20.9896 84.9565 21.963 104.011 17.1227 120.012C14.2505 129.979 13.7211 140.475 15.5759 150.68C15.4559 150.334 14.6959 148.013 13.6025 144.293C12.8158 139.92 12.0291 135.706 11.309 131.586V131.412C8.64219 116.292 7.09544 102.344 10.6956 85.4898C14.4025 68.0488 27.1899 46.4209 46.6977 32.7668L46.5777 32.7535Z" fill="url(#Girl4P10_linear)"/>
<path id="Girl4V_19" style="mix-blend-mode:multiply" opacity="0.6" d="M128.476 32.7535C129.316 33.4602 150.957 51.4212 152.477 68.0088C154.064 84.9565 153.104 104.011 157.944 120.012C160.816 129.979 161.346 140.475 159.491 150.68C159.611 150.334 160.371 148.013 161.464 144.293C162.238 139.92 163.038 135.706 163.758 131.586V131.412C166.425 116.292 167.958 102.344 164.371 85.4898C160.664 68.0488 147.863 46.4209 128.369 32.7668L128.476 32.7535Z" fill="url(#Girl4P11_linear)"/>
</g>
<path id="Girl4V_20" d="M104.261 102.784C104.261 102.784 105.808 109.291 108.888 113.118C108.888 113.118 133.863 98.9573 145.837 101.984C157.811 105.011 159.597 111.838 159.597 111.838C159.597 111.838 155.931 99.7707 152.77 94.5037L153.424 97.1039C153.424 97.1039 151.664 93.3703 142.903 92.8636C134.143 92.3569 114.568 100.317 108.595 100.571C108.595 100.571 107.741 103.771 109.088 109.998C107.516 107.433 106.326 104.652 105.554 101.744L104.261 102.784Z" fill="#1C1C1C"/>
<path id="Girl4V_21" d="M74.4993 102.784C74.4993 102.784 72.9525 109.291 69.8724 113.118C69.8724 113.118 44.8976 98.9573 32.9236 101.984C20.9496 105.011 19.1494 111.838 19.1494 111.838C19.1494 111.838 22.8297 99.7707 25.9898 94.5037L25.3231 97.1038C25.3231 97.1038 27.0966 93.3703 35.8571 92.8636C44.6176 92.3569 64.192 100.344 70.1124 100.584C70.1124 100.584 70.9524 103.784 69.6057 110.011C71.1851 107.448 72.3801 104.667 73.1525 101.757L74.4993 102.784Z" fill="#191919"/>
<g id="Girl4G_9">
<path id="Girl4V_22" d="M61.7252 200.99C61.7252 200.99 66.4055 202.323 69.7257 201.416C73.0459 200.51 79.8996 193.096 90.1268 193.096C100.354 193.096 108.795 200.563 111.195 201.416C113.595 202.27 116.942 200.99 116.942 200.99C116.942 200.99 113.955 203.35 111.195 202.883C108.435 202.417 96.3939 200.216 88.6467 200.216C80.8996 200.216 69.379 203.15 67.9122 202.977C65.8078 202.453 63.7408 201.79 61.7252 200.99V200.99Z" fill="#BD336B"/>
<path id="Girl4V_23" d="M116.475 201.923C116.475 201.923 121.915 200.51 121.915 199.923C121.915 199.336 120.369 198.056 120.369 198.056L116.475 201.923Z" fill="#DD6B7C"/>
<path id="Girl4V_24" d="M63.632 201.87L59.2184 198.016L58.3117 201.136L63.632 201.87Z" fill="#DD6B7C"/>
<path id="Girl4V_25" d="M61.7252 200.99C61.7252 200.99 67.7122 212.924 90.0735 212.924C112.435 212.924 116.888 200.99 116.888 200.99L109.941 203.257C109.941 203.257 102.794 200.163 87.9934 200.163C73.1925 200.163 67.8589 203.857 67.8589 203.857L61.7252 200.99Z" fill="#EA336B"/>
<path id="Girl4V_26" d="M112.021 201.923C107.474 202.27 97.6473 199.87 89.4468 199.87C81.2463 199.87 71.4458 202.283 66.8855 201.923C64.1438 201.718 61.4612 201.022 58.9651 199.87C61.3252 201.923 67.8589 203.87 67.8589 203.87L73.1125 202.643C78.4668 201.307 83.9364 200.486 89.4468 200.19C94.9616 200.486 100.436 201.308 105.794 202.643L111.048 203.87C111.048 203.87 117.568 201.923 119.942 199.87C117.446 201.022 114.763 201.718 112.021 201.923Z" fill="#842751"/>
<g id="Girl4V_27" style="mix-blend-mode:multiply" opacity="0.6">
<path d="M66.3921 206.11C66.3921 206.11 73.8459 216.964 89.7134 216.964C105.581 216.964 115.048 203.883 115.048 203.883C115.048 203.883 108.021 211.55 89.7134 211.55C71.4057 211.55 66.3921 206.11 66.3921 206.11Z" fill="#D177B8"/>
</g>
<g id="Girl4V_28" style="mix-blend-mode:soft-light">
<path d="M96.3005 201.923C97.4467 203.874 98.2495 206.008 98.674 208.23L103.648 206.59C102.684 204.983 101.437 203.565 99.9674 202.403L96.3005 201.923Z" fill="#FFD9FF"/>
</g>
</g>
<g id="Girl4G_10">
<path id="Girl4V_29" d="M110.448 176.402C110.448 176.402 110.061 177.562 105.608 177.735C101.154 177.908 96.9805 181.735 89.4201 181.735C81.8597 181.735 78.0728 177.855 73.6192 177.735C69.1656 177.615 68.3923 176.402 68.3923 176.402C67.8296 173.675 68.0327 170.846 68.9789 168.228V168.228V168.148C69.9143 165.509 71.3043 163.054 73.0858 160.894C78.1511 158.369 83.7336 157.054 89.3935 157.054C95.0533 157.054 100.636 158.369 105.701 160.894C106.942 162.379 107.99 164.014 108.821 165.761C110.554 169.021 111.128 172.773 110.448 176.402V176.402Z" fill="url(#Girl4P12_linear)" fill-opacity="0.6"/>
<path id="Girl4V_30" d="M100.327 179.162C101.391 178.309 102.639 177.714 103.972 177.425C105.304 177.136 106.686 177.16 108.008 177.495L100.327 179.162Z" fill="#842751"/>
<path id="Girl4V_31" d="M71.3391 177.522C72.8506 177.193 74.4175 177.217 75.9183 177.591C77.4191 177.966 78.8134 178.681 79.9929 179.682L71.3391 177.522Z" fill="#842751"/>
<g id="Girl4V_32" style="mix-blend-mode:multiply" opacity="0.6">
<path d="M110.448 176.402C110.448 176.402 110.061 177.562 105.608 177.735C101.154 177.908 96.9806 181.735 89.4201 181.735C81.8597 181.735 78.0728 177.855 73.6192 177.735C69.1657 177.615 68.3923 176.402 68.3923 176.402C67.8296 173.675 68.0327 170.846 68.979 168.228C68.819 168.935 67.8722 173.562 69.659 174.655C71.4458 175.748 82.5398 175.148 89.4335 175.148C96.3272 175.148 108.021 175.148 109.328 173.348C110.635 171.548 109.021 166.281 108.861 165.788C110.575 169.045 111.134 172.786 110.448 176.402V176.402Z" fill="#D177B8"/>
</g>
<path id="Girl4V_33" style="mix-blend-mode:multiply" opacity="0.6" d="M105.728 160.881C105.728 160.881 103.274 168.481 103.568 173.788C103.568 173.788 101.741 168.601 104.168 160.174L105.728 160.881Z" fill="url(#Girl4P13_linear)"/>
<path id="Girl4V_34" style="mix-blend-mode:multiply" opacity="0.6" d="M73.4992 160.881C73.4992 160.881 75.9527 168.481 75.6594 173.788C75.6594 173.788 77.4861 168.601 75.0727 160.174L73.4992 160.881Z" fill="url(#Girl4P14_linear)"/>
<g id="Girl4V_35" style="mix-blend-mode:multiply" opacity="0.6">
<path d="M69.659 174.655C69.1667 175.183 68.7413 175.77 68.3923 176.402C68.1789 176.988 78.1795 186.429 89.4201 186.429C100.661 186.429 110.248 177.548 110.448 176.402C110.648 175.255 108.821 173.735 108.821 173.735C102.397 174.623 95.919 175.068 89.4335 175.068C78.8195 175.148 69.659 174.655 69.659 174.655Z" fill="#D177B8"/>
</g>
<path id="Girl4V_36" d="M98.394 172.588C96.7939 171.682 99.6074 169.041 100.367 169.148C101.127 169.255 101.541 170.961 101.127 172.055C100.714 173.148 99.0607 172.948 98.394 172.588Z" fill="#FFCFBF"/>
</g>
<g id="Girl4G_11">
<path id="Girl4V_37" d="M131.582 30.3401C131.582 30.3401 118.915 6.56535 105.474 1.51173C92.0336 -3.54189 69.4723 19.2994 36.137 38.5672C1.96176 58.3017 25.6831 136.639 25.6831 136.639C25.6831 136.639 22.9363 79.0762 38.6972 47.9944C47.4577 30.7267 57.9516 27.2732 74.2459 16.1659C90.5402 5.05861 98.7406 -0.715059 113.475 9.76554C120.93 15.231 127.108 22.2511 131.582 30.3401V30.3401Z" fill="#212121"/>
<path id="Girl4V_38" d="M160.971 150.48C160.331 152.867 159.931 154.214 159.931 154.214C159.931 154.214 160.011 153.094 160.131 151.2C160.624 142.773 161.531 118.972 156.824 109.865C151.037 98.7573 150.624 63.0486 146.25 55.1948C141.876 47.341 128.289 38.1272 125.436 38.1272C122.582 38.1272 109.435 51.7813 79.3129 69.969C66.4638 77.7279 53.0985 84.5977 39.3106 90.5302C32.7236 93.357 27.9633 95.1171 25.8032 95.8638C25.0698 96.1305 24.6564 96.2638 24.5498 96.2905L38.7639 77.0894C33.7033 81.705 29.3018 86.9948 25.6832 92.8103C25.3765 93.317 25.0565 93.8103 24.7498 94.3037C24.6564 94.477 24.5498 94.6371 24.4564 94.7971C24.1631 95.2771 23.8831 95.7571 23.6164 96.2105C23.3497 96.6638 23.083 97.0905 22.843 97.5439C22.603 97.9972 22.2163 98.6506 21.9496 99.144L21.5629 99.8374L21.2162 100.477V100.544L20.7095 101.491C20.5629 101.784 20.4295 102.011 20.3495 102.184C20.2695 102.357 20.2562 102.371 20.2028 102.451C17.816 107.091 16.496 110.451 16.376 110.705L15.9893 102.477C11.989 116.918 16.3093 157.654 16.576 160.281C16.0293 157.761 7.49545 94.077 7.48212 74.1559C7.48212 38.1538 32.8169 46.4476 41.8841 31.1801C58.9251 2.52512 98.9807 2.56513 111.355 9.64553C123.729 16.7259 136.129 36.1137 136.129 36.1137C136.129 36.1137 159.024 42.6474 167.798 63.6619C169.755 68.4022 170.874 73.4463 171.105 78.5695C172.318 105.798 163.971 139.4 160.971 150.48Z" fill="#161616"/>
<g id="Girl4V_39" style="mix-blend-mode:soft-light">
<path d="M72.0591 70.3557C72.0591 70.3557 72.7658 66.1821 70.0724 63.8353C67.3789 61.4885 54.0714 62.2486 48.0444 59.6751C42.0174 57.1016 43.5108 50.3412 40.5107 48.8478C37.5105 47.3544 31.3368 47.5144 27.0299 44.6342C22.723 41.754 24.1631 38.5672 24.1631 38.5672L35.6571 32.3802C35.6571 32.3802 33.8703 40.6873 35.6571 44.2875C37.4438 47.8877 42.8841 46.9543 44.2309 47.581C45.5776 48.2077 44.7909 53.3014 46.7643 55.8349C48.7378 58.3683 75.9927 50.8612 83.2198 52.0346C90.4469 53.208 91.8603 55.6215 91.8603 55.6215L72.0591 70.3557Z" fill="#FFD9BB"/>
</g>
<g id="Girl4V_40" style="mix-blend-mode:soft-light">
<path d="M149.85 60.5818C151.37 65.4764 152.63 70.4481 153.624 75.476C153.624 75.476 154.664 71.0091 156.824 69.8357C158.984 68.6623 163.158 70.089 163.624 66.5555C163.712 65.5856 164.068 64.6592 164.652 63.8799C165.236 63.1005 166.025 62.4988 166.931 62.1419C165.666 59.3896 164.091 56.7905 162.238 54.3948C162.238 54.3948 164.344 58.475 164.024 60.9951C163.704 63.5153 162.118 64.2753 162.118 66.0488C162.118 67.8222 158.117 67.7822 155.171 64.942C153.548 63.3133 151.766 61.8525 149.85 60.5818V60.5818Z" fill="#FFD9BB"/>
</g>
<g id="Girl4V_41" style="mix-blend-mode:multiply" opacity="0.9">
<path d="M160.971 150.48L160.131 151.2C160.624 142.773 161.531 118.972 156.824 109.865C151.037 98.7573 150.624 63.0486 146.25 55.1948C141.876 47.3411 128.289 38.1272 125.435 38.1272C122.582 38.1272 109.435 51.7813 79.3128 69.969C66.4638 77.728 53.0985 84.5978 39.3106 90.5302C45.439 87.4774 51.4072 84.1127 57.1916 80.4496C78.9928 66.8088 117.955 35.1137 117.955 35.1137C117.955 35.1137 99.8474 27.5399 88.14 33.9803C76.4327 40.4207 38.7105 77.1427 38.7105 77.1427C33.9903 80.5696 29.1767 87.2233 25.6298 92.8637C25.3231 93.3704 25.0031 93.8637 24.6964 94.3571C24.6031 94.5304 24.4964 94.6904 24.4031 94.8504C24.1097 95.3304 23.8297 95.8105 23.563 96.2638C23.2963 96.7172 23.043 97.1572 22.7896 97.5972C22.5363 98.0373 22.1629 98.704 21.8962 99.1974L21.5096 99.8907L21.1629 100.531V100.597L20.6562 101.544C20.5095 101.837 20.3762 102.064 20.2962 102.238C20.2162 102.411 20.2028 102.424 20.1495 102.504C20.6428 101.171 28.7366 79.8362 43.1641 64.822C58.0716 49.2878 89.2468 17.7127 89.2468 17.7127C89.2468 17.7127 52.458 34.2603 39.1106 50.5546C25.9898 66.5555 16.5759 109.478 16.2959 110.825C16.2959 110.825 19.9495 71.7424 35.9104 51.5413C51.8713 31.3401 98.1939 8.13881 109.901 10.6056C121.609 13.0724 136.049 37.0071 136.049 37.0071C140.7 41.4655 144.736 46.5236 148.05 52.048C154.344 62.1019 156.051 96.3572 156.051 96.3572C157.164 87.5889 157.409 78.7322 156.784 69.9157C155.864 54.9015 139.85 40.2206 138.863 39.3139C139.77 39.9406 152.97 49.4478 158.024 65.5554C163.264 82.2497 161.851 104.384 161.851 104.384C163.999 96.913 165.682 89.3158 166.891 81.6363C168.411 72.7025 168.091 66.9688 167.598 63.8086C169.555 68.5489 170.674 73.593 170.905 78.7162C172.318 105.798 163.971 139.4 160.971 150.48Z" fill="#D177B8"/>
</g>
</g>
<g id="Girl4G_12">
<path id="Girl4V_42" d="M48.0844 268.714L45.8843 266.834L41.7241 270.5L27.95 277.074C27.95 277.074 88.9134 289.075 155.131 277.074L127.742 265.447L126.742 263.047L123.155 264.26C98.789 271.394 73.1234 272.916 48.0844 268.714V268.714Z" fill="url(#Girl4P15_linear)"/>
<g id="Girl4V_43" style="mix-blend-mode:multiply" opacity="0.9">
<path d="M126.742 263.047C121.461 269.209 114.602 273.818 106.901 276.381C106.901 276.381 119.155 274.234 127.742 265.393L126.742 263.047Z" fill="#D177B8"/>
</g>
<g id="Girl4V_44" style="mix-blend-mode:multiply" opacity="0.9">
<path d="M45.8843 266.834C45.8843 266.834 47.2177 274.367 65.4587 278.341C56.9385 278.175 48.6666 275.442 41.7241 270.5L45.8843 266.834Z" fill="#D177B8"/>
</g>
</g>
<g id="Girl4G_13">
<g id="Girl4G_14">
<path id="Girl4V_45" d="M107.875 149.374C108.035 151.427 120.809 154.707 133.036 153.787C145.263 152.867 147.943 147.12 148.343 144.147C148.744 141.173 147.143 121.212 132.756 121.212C117.088 121.212 107.448 144.24 107.875 149.374Z" fill="url(#Girl4P16_linear)"/>
<path id="Girl4V_46" d="M110.301 140.586C110.301 140.586 116.968 124.679 130.849 123.252C144.73 121.825 147.263 135.053 147.263 135.053C147.263 135.053 146.05 119.745 131.516 119.745C116.982 119.745 110.301 140.586 110.301 140.586Z" fill="#DD4C6A"/>
<g id="Girl4G_15">
<path id="Girl4V_47" d="M127.502 151.8C134.056 151.8 139.37 146.487 139.37 139.933C139.37 133.379 134.056 128.066 127.502 128.066C120.948 128.066 115.635 133.379 115.635 139.933C115.635 146.487 120.948 151.8 127.502 151.8Z" fill="url(#Girl4P17_linear)"/>
<path id="Girl4V_48" d="M127.502 151.094C133.666 151.094 138.663 146.097 138.663 139.933C138.663 133.769 133.666 128.772 127.502 128.772C121.338 128.772 116.342 133.769 116.342 139.933C116.342 146.097 121.338 151.094 127.502 151.094Z" fill="url(#Girl4P18_linear)"/>
<path id="Girl4V_49" style="mix-blend-mode:multiply" d="M134.743 139.933C134.745 141.368 134.322 142.772 133.527 143.967C132.731 145.161 131.599 146.093 130.274 146.644C128.949 147.195 127.49 147.341 126.082 147.062C124.674 146.784 123.38 146.094 122.365 145.08C121.349 144.066 120.657 142.774 120.376 141.366C120.095 139.959 120.237 138.5 120.786 137.174C121.335 135.847 122.264 134.714 123.458 133.916C124.651 133.118 126.054 132.693 127.489 132.693C129.41 132.693 131.253 133.455 132.613 134.812C133.973 136.17 134.739 138.011 134.743 139.933V139.933Z" fill="url(#Girl4P19_linear)"/>
</g>
<path id="Girl4V_50" d="M135.449 137.84C134.729 138.48 138.116 138.626 140.543 137.653C142.77 136.786 143.837 135.359 143.623 135.106C140.667 135.059 137.783 136.024 135.449 137.84V137.84Z" fill="white"/>
<path id="Girl4V_51" d="M133.529 138.466C132.596 138.146 131.489 138.64 131.449 139.133C131.409 139.626 132.569 140.266 133.116 140.053C133.663 139.84 134.116 138.653 133.529 138.466Z" fill="white"/>
<path id="Girl4V_52" d="M108.595 145.187C108.595 145.187 109.421 149.947 111.435 151.52C111.435 151.52 107.608 150.467 107.434 149.72C107.681 148.177 108.069 146.659 108.595 145.187V145.187Z" fill="#DD4C6A"/>
<path id="Girl4V_53" d="M114.115 152.267C120.463 154.284 127.147 155.027 133.783 154.454C144.583 153.454 149.704 148.093 149.704 148.093L147.957 145.68C147.957 145.68 145.503 152.587 134.116 153.774C127.414 154.538 120.627 154.027 114.115 152.267V152.267Z" fill="#DD4C6A"/>
<g id="Girl4V_54" style="mix-blend-mode:multiply" opacity="0.6">
<path d="M108.595 145.187C108.595 145.187 115.382 128.959 130.649 128.066C145.917 127.172 148.09 139.253 148.09 139.253C148.09 139.253 146.65 123.172 132.609 122.732C118.568 122.292 110.435 139.08 108.595 145.187Z" fill="#D177B8"/>
</g>
<path id="Girl4V_55" d="M109.848 141.68C109.848 141.68 117.448 125.319 131.396 124.039C145.343 122.759 148.263 140.586 148.263 140.586L154.331 137.519L150.117 133.799C150.117 133.799 144.21 119.052 130.823 121.332C117.048 123.665 109.848 141.68 109.848 141.68Z" fill="#4E1B3D"/>
</g>
</g>
<g id="Girl4G_16">
<g id="Girl4G_17">
<path id="Girl4V_56" d="M70.4591 149.374C70.299 151.427 57.525 154.707 45.2976 153.787C33.0703 152.867 30.3901 147.12 29.9901 144.147C29.5901 141.173 31.1902 121.212 45.5776 121.212C61.2452 121.212 70.8857 144.24 70.4591 149.374Z" fill="url(#Girl4P20_linear)"/>
<path id="Girl4V_57" d="M68.0323 140.586C68.0323 140.586 61.3652 124.679 47.4844 123.252C33.6036 121.825 31.0701 135.053 31.0701 135.053C31.0701 135.053 32.2835 119.745 46.8177 119.745C61.3519 119.745 68.0323 140.586 68.0323 140.586Z" fill="#DD4C6A"/>
<g id="Girl4G_18">
<path id="Girl4V_58" d="M50.8313 151.8C44.2771 151.8 38.9639 146.487 38.9639 139.933C38.9639 133.379 44.2771 128.066 50.8313 128.066C57.3854 128.066 62.6986 133.379 62.6986 139.933C62.6986 146.487 57.3854 151.8 50.8313 151.8Z" fill="url(#Girl4P21_linear)"/>
<path id="Girl4V_59" d="M50.8312 151.094C44.6674 151.094 39.6706 146.097 39.6706 139.933C39.6706 133.769 44.6674 128.772 50.8312 128.772C56.9951 128.772 61.9919 133.769 61.9919 139.933C61.9919 146.097 56.9951 151.094 50.8312 151.094Z" fill="url(#Girl4P22_linear)"/>
<path id="Girl4V_60" style="mix-blend-mode:multiply" d="M43.5909 139.933C43.5882 141.368 44.0114 142.772 44.8069 143.967C45.6023 145.161 46.7342 146.093 48.0595 146.644C49.3847 147.195 50.8436 147.341 52.2516 147.062C53.6595 146.784 54.9533 146.094 55.9691 145.08C56.9848 144.066 57.677 142.774 57.958 141.366C58.239 139.959 58.0961 138.5 57.5475 137.174C56.9988 135.847 56.0691 134.714 54.876 133.916C53.6828 133.118 52.2798 132.693 50.8446 132.693C48.9231 132.693 47.0801 133.455 45.7202 134.812C44.3602 136.17 43.5944 138.011 43.5909 139.933V139.933Z" fill="url(#Girl4P23_linear)"/>
</g>
<path id="Girl4V_61" d="M42.8841 137.84C43.6042 138.48 40.2173 138.626 37.7905 137.653C35.5637 136.786 34.497 135.359 34.7103 135.106C37.6668 135.059 40.5506 136.024 42.8841 137.84V137.84Z" fill="white"/>
<path id="Girl4V_62" d="M44.8043 138.466C45.7377 138.146 46.8444 138.64 46.8844 139.133C46.9244 139.626 45.7644 140.266 45.2177 140.053C44.671 139.84 44.2176 138.653 44.8043 138.466Z" fill="white"/>
<path id="Girl4V_63" d="M69.739 145.187C69.739 145.187 68.9123 149.947 66.8989 151.52C66.8989 151.52 70.7257 150.467 70.8991 149.72C70.6526 148.177 70.2642 146.659 69.739 145.187V145.187Z" fill="#DD4C6A"/>
<path id="Girl4V_64" d="M64.2187 152.267C57.8708 154.284 51.1868 155.027 44.5509 154.454C33.7503 153.454 28.63 148.093 28.63 148.093L30.3767 145.68C30.3767 145.68 32.8302 152.587 44.2175 153.774C50.9199 154.538 57.7064 154.027 64.2187 152.267V152.267Z" fill="#DD4C6A"/>
<g id="Girl4V_65" style="mix-blend-mode:multiply" opacity="0.6">
<path d="M69.739 145.187C69.739 145.187 62.952 128.959 47.6844 128.066C32.4169 127.172 30.2434 139.253 30.2434 139.253C30.2434 139.253 31.6835 123.172 45.7243 122.732C59.7651 122.292 67.8989 139.08 69.739 145.187Z" fill="#D177B8"/>
</g>
<path id="Girl4V_66" d="M68.4856 141.68C68.4856 141.68 60.8852 125.319 46.9377 124.039C32.9902 122.759 30.0701 140.586 30.0701 140.586L24.0031 137.519L28.2166 133.799C28.2166 133.799 34.1236 119.052 47.5111 121.332C61.2852 123.665 68.4856 141.68 68.4856 141.68Z" fill="#4E1B3D"/>
</g>
</g>
</g>
<g id="Girl4G_19">
<path id="Girl4V_67" d="M152.277 21.9129C141.063 13.2725 118.715 5.72536 90.5269 5.72536C62.3386 5.72536 39.9907 13.3258 28.7767 21.9129C8.8689 37.2205 6.4821 78.8629 7.25548 86.5166C9.04225 87.5034 11.6157 87.45 14.9359 86.7433L13.7092 87.2767C12.3758 88.9568 14.0425 115.865 22.2163 123.279C29.2567 129.706 47.0311 105.851 90.5269 105.851C134.023 105.851 151.797 129.706 158.837 123.279C167.011 115.825 168.705 88.9168 167.345 87.2767L166.158 86.7433C169.451 87.45 172.012 87.5034 173.798 86.5166C174.585 78.9162 172.185 37.2738 152.277 21.9129ZM98.8074 3.45856C98.8074 1.19177 95.1005 1.19177 90.5269 1.19177C85.9533 1.19177 82.2598 1.19177 82.2598 3.45856C82.2598 5.72536 85.9533 5.72536 90.5269 5.72536C95.1005 5.72536 98.8074 5.77869 98.8074 3.51189V3.45856Z" fill="#ABB7B7"/>
<g id="Girl4G_20" opacity="0.3">
<path id="Girl4V_68" opacity="0.3" d="M129.449 21.3929C129.236 22.8063 126.929 23.7664 124.315 23.5264C121.702 23.2864 119.742 21.9663 119.955 20.5529C120.169 19.1394 122.475 18.1794 125.089 18.4061C127.702 18.6327 129.662 19.9795 129.449 21.3929Z" fill="black"/>
</g>
<g id="Girl4G_21" opacity="0.3">
<path id="Girl4V_69" opacity="0.3" d="M51.6313 21.5396C51.9247 22.9396 54.2981 23.833 56.8716 23.513C59.4451 23.193 61.3652 21.8062 61.0719 20.4062C60.7785 19.0061 58.405 18.1127 55.8316 18.4194C53.2581 18.7261 51.3513 20.1261 51.6313 21.5396Z" fill="black"/>
</g>
<g id="Girl4G_22">
<path id="Girl4V_70" d="M159.597 84.8365H158.717L158.877 83.1697C160.038 70.6224 163.131 37.2738 148.397 24.2997C138.116 15.2458 128.622 9.0855 91.8603 6.152L91.9669 5.48529C129.036 8.44546 138.636 14.6858 149.064 23.8597C164.051 37.0471 160.931 70.529 159.731 83.2231L159.597 84.8365Z" fill="#0F0F0F"/>
<path id="Girl4V_71" d="M125.089 24.473C124.782 24.4925 124.475 24.4925 124.169 24.473C122.784 24.3885 121.444 23.9526 120.275 23.2063C119.8 22.9479 119.408 22.5604 119.143 22.0885C118.879 21.6166 118.754 21.0796 118.782 20.5395C119.075 18.646 121.875 17.3126 125.236 17.606C128.596 17.8993 130.916 19.6461 130.569 21.6062C130.356 23.2463 128.036 24.473 125.089 24.473ZM124.315 19.2727C122.649 19.2727 121.249 19.8861 121.129 20.6062C121.049 21.1395 121.555 21.5662 121.862 21.7662C122.641 22.256 123.531 22.5405 124.449 22.5929C126.382 22.7663 128.142 22.1129 128.262 21.2595C128.382 20.4061 126.849 19.4461 124.956 19.2727H124.315Z" fill="#515151"/>
<path id="Girl4V_72" d="M10.7357 87.7834C9.40779 87.8336 8.0895 87.5396 6.90877 86.93L6.68209 86.81V86.5966C6.12206 81.023 7.37546 37.8072 28.39 21.6463C38.6439 13.7525 60.3918 5.32532 90.5536 5.32532C120.715 5.32532 142.463 13.7525 152.717 21.6463C173.732 37.8072 174.985 81.023 174.425 86.5966V86.81L174.212 86.93C173.026 87.5384 171.703 87.8322 170.371 87.7834C166.158 87.7834 160.064 85.6499 152.344 82.9697C137.556 77.8094 117.302 70.7557 90.8869 70.7557H90.2602C63.8587 70.7557 43.5909 77.8094 28.8167 82.9697C21.0962 85.6366 15.0026 87.7834 10.789 87.7834H10.7357ZM7.81549 86.3166C8.73512 86.7181 9.73273 86.9094 10.7357 86.8766V86.8766C14.7359 86.8766 20.6829 84.7832 28.27 82.143C43.1642 76.9561 63.552 69.849 90.2069 69.849H90.8336C117.502 69.849 137.89 76.9561 152.784 82.143C160.371 84.8099 166.371 86.8766 170.318 86.8766C171.321 86.9122 172.319 86.7207 173.238 86.3166C174.078 76.8761 170.798 36.8471 151.904 22.313C141.823 14.5392 120.409 6.24537 90.5669 6.24537C60.7252 6.24537 39.3239 14.5392 29.23 22.313C10.2556 36.8471 6.97544 76.8761 7.81549 86.3166Z" fill="#0F0F0F"/>
<path id="Girl4V_73" d="M25.1631 124.932C23.9083 124.967 22.6892 124.513 21.7629 123.665C13.5891 116.212 11.549 89.1301 13.2024 87.09L14.2158 87.5701L13.7091 87.33L14.2158 87.5701C13.0958 89.0635 14.5358 115.665 22.683 123.092C25.0564 125.266 28.87 123.479 36.5638 119.572C47.6311 113.972 64.3387 105.491 90.5268 105.491C116.715 105.491 133.423 113.972 144.49 119.572C152.184 123.479 155.997 125.252 158.384 123.092C166.518 115.665 167.958 89.0635 166.838 87.5701L167.851 87.09C169.505 89.1301 167.465 116.212 159.291 123.665C156.117 126.559 151.29 124.079 143.837 120.332C132.889 114.785 116.355 106.398 90.5002 106.398C64.6454 106.398 48.1378 114.785 37.1638 120.332C32.0702 122.932 28.15 124.932 25.1631 124.932Z" fill="#0F0F0F"/>
<path id="Girl4V_74" d="M21.4563 84.8366L21.2962 83.2498C20.1228 70.6224 17.0027 37.0738 31.9635 23.8864C42.3908 14.7125 51.9647 8.47219 89.0868 5.51202L89.1668 6.17873C52.418 9.11223 42.9241 15.2726 32.6436 24.3264C17.9761 37.3005 21.0029 70.6491 22.1763 83.1965L22.323 84.8632L21.4563 84.8366Z" fill="#0F0F0F"/>
<path id="Girl4V_75" d="M29.11 116.745C28.4163 116.768 27.7336 116.567 27.1632 116.172L27.5766 115.838C28.1263 116.215 28.797 116.372 29.4567 116.278V116.732L29.11 116.745ZM151.517 116.745C150.743 116.652 149.982 116.468 149.25 116.198L149.49 115.785C150.164 116.04 150.868 116.21 151.584 116.292L151.517 116.745ZM152.77 116.678L152.61 116.238C153.121 116.141 153.588 115.885 153.944 115.505L154.117 115.252L154.611 115.492L154.33 115.798C153.915 116.237 153.375 116.539 152.784 116.665L152.77 116.678ZM30.6968 116.585L30.5101 116.158C31.2074 115.976 31.8895 115.74 32.5502 115.452L32.8436 115.852C32.1464 116.147 31.429 116.392 30.6968 116.585V116.585ZM148.197 115.838C147.623 115.612 146.97 115.305 146.21 114.945L146.517 114.558C147.277 114.918 147.85 115.212 148.49 115.452L148.197 115.838ZM26.4032 115.505C25.9929 115.014 25.627 114.487 25.3098 113.932L25.8432 113.745C26.1562 114.277 26.5083 114.785 26.8965 115.265L26.4032 115.505ZM33.8436 115.412L33.5503 115.025L35.497 114.105L35.8037 114.478C35.1237 114.758 34.457 115.065 33.8436 115.345V115.412ZM155.184 114.745L154.651 114.532C155.002 114.027 155.322 113.501 155.611 112.958L156.144 113.118C155.871 113.654 155.568 114.175 155.237 114.678L155.184 114.745ZM145.17 114.478L143.317 113.545H143.237L143.557 113.158H143.637L145.49 114.078L145.17 114.478ZM36.7771 113.918L36.4571 113.545L38.3905 112.585L38.7105 112.958L36.7771 113.918ZM24.7764 113.038C24.5097 112.531 24.2564 111.971 23.9897 111.358L24.5631 111.225C24.8031 111.811 25.0698 112.371 25.3231 112.865L24.7764 113.038ZM142.263 112.958C141.65 112.638 141.01 112.331 140.33 111.998L140.65 111.625L142.583 112.571L142.263 112.958ZM39.5906 112.478L39.2706 112.105L41.2174 111.158L41.5374 111.531L39.5906 112.478ZM156.531 112.211L155.971 112.065C156.224 111.545 156.451 110.998 156.677 110.411L157.251 110.531C157.082 111.145 156.868 111.709 156.611 112.225L156.531 112.211ZM139.45 111.545L137.503 110.625L137.81 110.238L139.77 111.158L139.45 111.545ZM42.6174 111.091L42.2974 110.705L44.2842 109.798L44.5776 110.185C43.8708 110.491 43.2175 110.785 42.5908 111.091H42.6174ZM23.7497 110.531C23.5364 109.985 23.3363 109.411 23.1363 108.825L23.7097 108.718C23.9097 109.305 24.1097 109.865 24.3097 110.411L23.7497 110.531ZM136.516 110.171L134.516 109.305L134.809 108.905L136.809 109.785L136.516 110.171ZM45.5776 109.745L45.2843 109.345C45.9376 109.065 46.6177 108.771 47.2977 108.491L47.5777 108.878C46.8577 109.171 46.191 109.451 45.5509 109.745H45.5776ZM157.677 109.745L157.104 109.625C157.304 109.078 157.477 108.518 157.664 107.931L158.237 108.038C158.037 108.585 157.837 109.145 157.651 109.691L157.677 109.745ZM133.516 108.931C132.863 108.651 132.183 108.385 131.489 108.105L131.756 107.704C132.463 107.985 133.089 108.251 133.796 108.531L133.516 108.931ZM48.5911 108.518L48.3111 108.131C48.9778 107.851 49.6445 107.584 50.3646 107.318L50.6312 107.718L48.5911 108.518ZM22.8696 108.025C22.6963 107.464 22.5363 106.891 22.3763 106.304L22.9496 106.211C23.1097 106.798 23.2697 107.358 23.443 107.918L22.8696 108.025ZM130.462 107.718L128.396 106.958L128.649 106.544C129.356 106.798 130.049 107.051 130.729 107.318L130.462 107.718ZM51.658 107.344L51.4046 106.931L53.4981 106.184L53.7381 106.598C53.0047 106.784 52.3113 107.038 51.6313 107.251L51.658 107.344ZM158.491 107.171L157.917 107.078C158.077 106.518 158.224 105.944 158.371 105.358L158.957 105.451C158.784 105.918 158.624 106.558 158.464 107.118L158.491 107.171ZM127.356 106.598C126.676 106.358 126.022 106.131 125.249 105.904L125.476 105.478L127.596 106.184L127.356 106.598ZM54.7915 106.238L54.5515 105.824L56.6849 105.158L56.8983 105.571L54.7915 106.238ZM124.129 105.571L121.995 104.944L122.195 104.518L124.355 105.144L124.129 105.571ZM22.1096 105.384C21.9763 104.811 21.8296 104.238 21.7096 103.651L22.2963 103.571C22.4118 104.158 22.5452 104.731 22.6963 105.291L22.1096 105.384ZM57.9383 105.198L57.7116 104.784L59.8851 104.171L60.0851 104.598L57.9383 105.198ZM120.929 104.584L118.755 104.024L118.942 103.598C119.675 103.784 120.409 103.971 121.115 104.171L120.929 104.584ZM159.131 104.518L158.544 104.438C158.664 103.878 158.797 103.291 158.917 102.718L159.504 102.784C159.451 103.371 159.264 103.958 159.144 104.584L159.131 104.518ZM61.1652 104.304L60.9785 103.878L63.1786 103.344L63.352 103.771L61.1652 104.304ZM117.662 103.771L115.448 103.251L115.595 102.811L117.822 103.304L117.662 103.771ZM64.4454 103.518L64.2854 103.091C65.0187 102.918 65.7521 102.771 66.5121 102.624L66.6588 103.051L64.4454 103.518ZM114.355 103.051L112.128 102.624L112.261 102.184L114.502 102.611L114.355 103.051ZM67.7656 102.838L67.6322 102.398C68.3656 102.264 69.1123 102.118 69.8723 101.997L70.0057 102.438C69.259 102.571 68.5123 102.691 67.7789 102.838H67.7656ZM21.5229 102.771C21.4029 102.198 21.2962 101.611 21.1895 101.024H21.7763C21.8829 101.597 21.9896 102.184 22.1096 102.758L21.5229 102.771ZM111.008 102.438C110.275 102.304 109.515 102.184 108.755 102.077L108.875 101.637C109.635 101.744 110.395 101.864 111.128 101.997L111.008 102.438ZM71.1257 102.251L71.0057 101.811L73.2725 101.477L73.3792 101.931C72.6325 102.024 71.8725 102.144 71.1391 102.251H71.1257ZM107.634 101.917L105.368 101.637L105.461 101.184L107.741 101.477L107.634 101.917ZM159.637 101.917L159.051 101.851C159.157 101.277 159.264 100.691 159.357 100.117H159.944C159.904 100.757 159.797 101.331 159.691 101.917H159.637ZM74.4726 101.771L74.3659 101.331L76.6594 101.064L76.7394 101.504L74.4726 101.771ZM104.194 101.504L101.914 101.291L101.981 100.837L104.274 101.064L104.194 101.504ZM77.8728 101.397L77.8061 100.944L80.0996 100.744V101.197C79.3973 101.251 78.6728 101.317 77.9261 101.397H77.8728ZM100.781 101.197C100.021 101.131 99.2607 101.077 98.4873 101.037V100.584C99.2607 100.584 100.021 100.677 100.781 100.744V101.197ZM81.2997 101.117V100.664L83.5931 100.517V100.971L81.2997 101.117ZM97.3006 100.971L95.0071 100.877V100.424L97.3006 100.517V100.971ZM84.6865 100.971V100.517H86.9933V100.957L84.6865 100.971ZM93.8737 100.891H91.5669V100.437C92.3403 100.437 93.1137 100.437 93.8737 100.437V100.891ZM88.1267 100.891V100.437H90.4335V100.891H88.1267ZM20.9629 100.224C20.8695 99.6374 20.7762 99.0507 20.6962 98.4773H21.2829C21.3629 99.064 21.4429 99.6374 21.5496 100.224H20.9629ZM160.037 99.3574H159.451C159.544 98.7707 159.624 98.1973 159.704 97.6106H160.291C160.304 98.1173 160.224 98.704 160.131 99.2507L160.037 99.3574ZM20.6695 97.5306C20.5895 96.9439 20.5228 96.3572 20.4562 95.7705H21.0429C21.0429 96.3438 21.1762 96.9305 21.2562 97.5172L20.6695 97.5306ZM160.491 96.6639H159.904C159.984 96.0772 160.037 95.4905 160.091 94.9171H160.678C160.624 95.4905 160.571 96.0772 160.491 96.6639ZM20.3762 94.8904C20.3762 94.3037 20.2695 93.717 20.2295 93.1437H20.8162C20.8162 93.717 20.9095 94.2904 20.9629 94.8904H20.3762ZM160.784 94.0237H160.197C160.197 93.437 160.291 92.837 160.317 92.277H160.918C160.851 92.837 160.784 93.4237 160.784 94.0237ZM20.1762 92.2503C20.1762 91.6547 20.1495 91.068 20.0962 90.4902H20.6829C20.6829 91.0502 20.6829 91.6369 20.7629 92.237L20.1762 92.2503ZM160.931 91.3836H160.344C160.344 90.7835 160.344 90.1968 160.344 89.6368H160.931C160.958 90.2057 160.958 90.788 160.931 91.3836ZM20.0828 89.6101V89.2768C20.0828 88.7834 20.0828 88.3034 20.0828 87.85H20.6695C20.6695 88.3034 20.6695 88.7701 20.6695 89.2634V89.5968L20.0828 89.6101ZM160.384 88.7434C160.384 88.13 160.384 87.5433 160.304 86.9966H160.904C160.904 87.5567 160.904 88.1434 160.904 88.7701L160.384 88.7434ZM20.7762 86.9966H20.1895C20.1895 86.3299 20.3095 85.7299 20.3895 85.2232H20.9762C20.8562 85.7566 20.7762 86.3433 20.7762 86.9966ZM160.277 86.1299C160.252 85.8347 160.212 85.541 160.157 85.2499H160.758C160.758 85.5299 160.838 85.8366 160.864 86.1433L160.277 86.1299Z" fill="#0F0F0F"/>
<path id="Girl4V_76" d="M31.5768 110.451C31.2891 110.468 31.0011 110.423 30.732 110.32C30.463 110.216 30.2192 110.056 30.0167 109.851L29.7234 109.505L30.2167 109.278L30.4968 109.585C30.6679 109.758 30.8791 109.886 31.1117 109.958C31.3443 110.03 31.5911 110.044 31.8302 109.998V110.438L31.5768 110.451ZM149.677 110.451V109.998C150.026 109.986 150.356 109.838 150.597 109.585C150.767 109.402 150.928 109.211 151.077 109.011L151.597 109.225C151.424 109.451 151.25 109.665 151.077 109.851C150.895 110.04 150.678 110.19 150.438 110.293C150.197 110.396 149.938 110.45 149.677 110.451V110.451ZM148.45 110.331C147.71 110.149 146.988 109.904 146.29 109.598L146.57 109.198C147.23 109.484 147.912 109.716 148.61 109.891L148.45 110.331ZM33.0169 110.225L32.8169 109.798C33.5064 109.589 34.1832 109.339 34.8437 109.051L35.137 109.438C34.4469 109.743 33.7389 110.005 33.0169 110.225V110.225ZM145.277 109.158L143.303 108.251L143.61 107.865C144.317 108.198 144.943 108.505 145.583 108.771L145.277 109.158ZM36.1371 108.998L35.8437 108.611L37.8038 107.704L38.1105 108.091C37.4038 108.425 36.7771 108.731 36.1371 108.998V108.998ZM29.15 108.718C28.8189 108.188 28.5249 107.635 28.27 107.064L28.83 106.918C29.0736 107.476 29.3589 108.016 29.6834 108.531L29.15 108.718ZM152.09 108.425L151.544 108.238C151.855 107.721 152.126 107.182 152.357 106.624L152.917 106.758C152.676 107.33 152.4 107.887 152.09 108.425V108.425ZM142.316 107.798L140.356 106.878L140.663 106.491L142.636 107.411L142.316 107.798ZM39.0972 107.624L38.7772 107.251C39.4039 106.958 40.1106 106.638 40.7507 106.331L41.0574 106.718C40.364 107.024 39.7106 107.331 39.0972 107.624V107.624ZM139.37 106.424L137.396 105.544L137.676 105.144L139.676 106.038L139.37 106.424ZM42.0308 106.264L41.7241 105.878L43.7242 104.984L44.0175 105.384C43.3375 105.678 42.6708 105.918 42.1108 106.264H42.0308ZM27.9099 106.264C27.7099 105.731 27.5099 105.158 27.3366 104.544L27.9099 104.451C28.0788 105.047 28.2655 105.607 28.47 106.131L27.9099 106.264ZM153.25 105.944L152.677 105.824C152.864 105.304 153.05 104.731 153.224 104.131L153.797 104.224C153.624 104.798 153.45 105.371 153.25 105.918V105.944ZM136.396 105.144L134.369 104.304L134.649 103.918L136.676 104.758L136.396 105.144ZM45.0309 104.998L44.7776 104.584C45.4176 104.304 46.111 104.038 46.8044 103.758L47.071 104.144L45.0309 104.998ZM133.356 103.904L131.303 103.118L131.556 102.718L133.623 103.504L133.356 103.904ZM48.0178 103.758L47.7511 103.358L49.8179 102.584L50.0845 102.984L48.0178 103.758ZM27.0432 103.678C26.8966 103.118 26.7632 102.531 26.6299 101.944L27.2166 101.864C27.3499 102.451 27.4833 103.038 27.6299 103.584L27.0432 103.678ZM153.984 103.358L153.397 103.278C153.544 102.718 153.677 102.144 153.784 101.544L154.37 101.624C154.304 102.171 154.117 102.758 154.037 103.318L153.984 103.358ZM130.209 102.744L128.116 102.024L128.356 101.611L130.462 102.344L130.209 102.744ZM51.1113 102.611L50.8713 102.211L52.978 101.491L53.2181 101.904L51.1113 102.611ZM127.116 101.691C126.422 101.464 125.716 101.251 124.982 101.037L125.209 100.611L127.342 101.264L127.116 101.691ZM54.3248 101.557L54.0981 101.144L56.2449 100.491L56.4582 100.917L54.3248 101.557ZM26.5099 101.064C26.4032 100.491 26.3099 99.9041 26.2165 99.3174H26.8032C26.8965 99.9041 26.9899 100.491 27.0966 101.051L26.5099 101.064ZM154.597 100.744H154.01C154.117 100.171 154.21 99.584 154.29 98.9973H154.877C154.797 99.544 154.704 100.131 154.597 100.704V100.744ZM123.929 100.744C123.222 100.544 122.515 100.344 121.769 100.157L121.969 99.7307L124.142 100.317L123.929 100.744ZM57.525 100.584L57.325 100.157L59.4984 99.5707L59.6984 99.9974C58.9517 100.171 58.2317 100.371 57.525 100.584ZM120.675 99.824L118.475 99.304L118.648 98.864L120.849 99.3974L120.675 99.824ZM60.7785 99.7174L60.6051 99.2774L62.8053 98.7706L62.9786 99.1974C62.2319 99.3707 61.4985 99.5307 60.7785 99.7174ZM117.382 99.0507L115.168 98.584L115.315 98.1573L117.542 98.6106L117.382 99.0507ZM64.0453 98.9573L63.8853 98.5173C64.6187 98.3706 65.3654 98.2106 66.1255 98.0773L66.2588 98.504L64.0453 98.9573ZM26.1098 98.3973C26.0298 97.8239 25.9498 97.2372 25.8832 96.6505H26.4832C26.4832 97.2372 26.6165 97.8106 26.6965 98.3973H26.1098ZM114.115 98.3973L111.888 98.0106L112.008 97.5706C112.768 97.6906 113.515 97.8239 114.262 97.9706L114.115 98.3973ZM67.4455 98.3306L67.3122 97.8906L69.5657 97.5039L69.6857 97.9439L67.4455 98.3306ZM155.037 98.1173H154.451C154.531 97.5439 154.597 96.9572 154.664 96.3705H155.251C155.144 96.9172 155.077 97.5039 154.997 98.0906L155.037 98.1173ZM110.728 97.8373L108.475 97.5039L108.581 97.0639L110.848 97.3839L110.728 97.8373ZM70.8057 97.8373L70.6991 97.3972C71.4458 97.2772 72.2058 97.1706 72.9658 97.0772L73.0725 97.5172L70.8057 97.8373ZM107.341 97.4239L105.074 97.1572L105.154 96.7172L107.434 96.9839L107.341 97.4239ZM74.1926 97.4239L74.1126 96.9839L76.3927 96.7305L76.4727 97.1706L74.1926 97.4239ZM103.941 97.1039C103.194 97.0239 102.434 96.9572 101.661 96.9039L101.728 96.4505L104.008 96.6505L103.941 97.1039ZM77.6061 97.1039L77.5395 96.6505L79.8329 96.4505V96.9039C79.0729 96.7839 78.3128 96.8372 77.5661 96.9172L77.6061 97.1039ZM100.514 96.8505L98.234 96.7172V96.2638L100.527 96.3972L100.514 96.8505ZM81.033 96.8505V96.3972L83.3264 96.2638V96.7172L81.033 96.8505ZM97.0339 96.6772L94.7404 96.5972V96.1438L97.0472 96.2372L97.0339 96.6772ZM84.4198 96.6772V96.2238L86.7266 96.1438V96.5972C85.9399 96.3838 85.1799 96.4238 84.4332 96.4505L84.4198 96.6772ZM93.5937 96.5839H91.3002V96.1305H93.607L93.5937 96.5839ZM87.8467 96.5839V96.1305H90.1135V96.5705L87.8467 96.5839ZM25.7765 96.0105C25.7765 95.4238 25.6698 94.8371 25.6298 94.2504H26.2165C26.2165 94.8371 26.3099 95.4105 26.3632 95.9972L25.7765 96.0105ZM155.277 95.6905H154.691C154.691 95.0904 154.784 94.5171 154.837 93.9304H155.424C155.451 94.2637 155.344 94.8638 155.291 95.4505L155.277 95.6905ZM25.5765 93.3703C25.5765 92.7703 25.4965 92.1836 25.4698 91.6102H26.1098L26.1898 93.357L25.5765 93.3703ZM155.477 93.0503H154.891C154.891 92.4503 154.891 91.8636 154.971 91.2902H155.557C155.557 91.708 155.522 92.2147 155.451 92.8103L155.477 93.0503ZM25.4431 90.7302C25.4431 90.1168 25.4431 89.5301 25.4431 88.9701H26.0432C26.0432 89.5301 26.0432 90.1168 26.0432 90.7169L25.4431 90.7302ZM155.584 90.4102H154.997C154.997 89.8101 154.997 89.2234 154.997 88.6634H155.597C155.624 88.9701 155.624 89.5568 155.597 90.1702L155.584 90.4102ZM26.0032 88.09H25.4031C25.4031 87.4633 25.4031 86.8633 25.4031 86.3299H26.1098C26.0298 86.6366 26.0165 87.25 26.0165 87.85L26.0032 88.09ZM155.024 87.77C155.024 87.1433 155.024 86.5566 155.024 86.0233H155.611C155.611 86.5566 155.611 87.1433 155.611 87.7833L155.024 87.77ZM26.1098 85.2232H25.5231C25.5231 84.5032 25.6032 83.8898 25.6565 83.4498H26.2432C26.1098 83.9031 26.1098 84.5832 26.1098 85.2232ZM155.011 84.9032C155.011 84.3165 154.931 83.8365 154.891 83.4764H155.477C155.477 83.8498 155.571 84.3298 155.597 84.9299L155.011 84.9032Z" fill="#0F0F0F"/>
<path id="Girl4V_77" d="M33.8036 104.918L33.7236 104.478C34.4251 104.359 35.1099 104.158 35.7638 103.878L36.0304 104.278C35.3185 104.585 34.5702 104.8 33.8036 104.918ZM147.023 104.918C146.266 104.772 145.527 104.539 144.823 104.224L145.103 103.824C145.758 104.115 146.442 104.334 147.143 104.478L147.023 104.918ZM148.357 104.731L147.957 104.398C148.014 104.362 148.06 104.311 148.09 104.251C148.367 103.829 148.603 103.383 148.797 102.918L149.357 103.064C149.15 103.554 148.905 104.027 148.624 104.478C148.552 104.566 148.466 104.643 148.37 104.704L148.357 104.731ZM32.4836 104.571L32.4036 104.451C32.0919 103.951 31.8242 103.424 31.6035 102.878L32.1636 102.744C32.3752 103.269 32.634 103.773 32.9369 104.251C32.9313 104.273 32.9313 104.296 32.9369 104.318L32.4836 104.571ZM37.0572 103.891L36.7638 103.491L38.7639 102.624L39.0573 103.011L37.0572 103.891ZM143.797 103.811L141.783 102.931L142.09 102.544L144.077 103.411L143.797 103.811ZM40.0573 102.571L39.7507 102.184L41.7641 101.304L42.0441 101.704L40.0573 102.571ZM140.796 102.491L138.796 101.624L139.09 101.237L141.09 102.104L140.796 102.491ZM149.69 102.184L149.117 102.064C149.31 101.509 149.475 100.943 149.61 100.371L150.197 100.451C150.063 101.028 149.898 101.598 149.704 102.157L149.69 102.184ZM31.2835 102.024C31.0901 101.455 30.9254 100.876 30.7901 100.291L31.3768 100.211C31.5033 100.789 31.6636 101.358 31.8569 101.917L31.2835 102.024ZM43.0575 101.277L42.7642 100.877L44.8043 100.051L45.0843 100.451L43.0575 101.277ZM137.73 101.197L135.703 100.371L135.983 99.9707L138.023 100.811L137.73 101.197ZM46.111 100.024L45.8443 99.624L47.9111 98.8373L48.1645 99.2507L46.111 100.024ZM134.756 99.944L132.689 99.1707L132.943 98.7706L135.023 99.544L134.756 99.944ZM150.41 99.5573H149.824C149.93 99.0106 150.024 98.4239 150.104 97.8106H150.69C150.61 98.4151 150.517 98.9973 150.41 99.5573V99.5573ZM30.6168 99.384C30.5101 98.8373 30.4168 98.2506 30.3368 97.6372H30.9235C31.0035 98.2373 31.0968 98.824 31.2035 99.3707L30.6168 99.384ZM49.2045 98.8773L48.9512 98.464L51.0713 97.7439L51.298 98.1573C50.5779 98.3839 49.8846 98.624 49.2045 98.8773V98.8773ZM131.649 98.8106L129.556 98.0906L129.796 97.6772L131.903 98.3973L131.649 98.8106ZM52.3514 97.8106L52.1247 97.3972C52.8181 97.1705 53.5381 96.9439 54.2715 96.7305L54.4848 97.1572C53.7514 97.3705 53.0447 97.5839 52.3514 97.8106V97.8106ZM128.502 97.8106L126.369 97.1572L126.582 96.7438C127.316 96.9572 128.036 97.1705 128.729 97.3972L128.502 97.8106ZM150.797 96.9839H150.21C150.277 96.4238 150.33 95.8371 150.37 95.2504H150.957C150.913 95.7927 150.859 96.3483 150.797 96.9172V96.9839ZM55.5516 96.9039L55.3515 96.4772L57.5117 95.8905L57.7117 96.3172L55.5516 96.9039ZM125.302 96.9039L123.142 96.3172L123.329 95.8905C124.075 96.0771 124.795 96.2772 125.502 96.4772L125.302 96.9039ZM30.2301 96.9039C30.2301 96.3305 30.1234 95.7438 30.0834 95.1438H30.6701C30.6701 95.7438 30.7635 96.3305 30.8301 96.8905L30.2301 96.9039ZM58.8051 96.1038L58.6184 95.6771L60.8185 95.1438L60.9785 95.5838L58.8051 96.1038ZM122.049 96.1038C121.342 95.9171 120.609 95.7438 119.862 95.5705L120.035 95.1438C120.782 95.3171 121.529 95.4905 122.235 95.6771L122.049 96.1038ZM62.1119 95.2504L61.9519 94.8237L64.1787 94.3437L64.3254 94.7837C63.5387 94.8637 62.8053 95.0237 62.1119 95.2504ZM118.795 95.2504L116.582 94.7837L116.728 94.3437L118.955 94.8104L118.795 95.2504ZM65.4588 94.6104L65.3121 94.1704L67.5656 93.757L67.6989 94.197L65.4588 94.6104ZM115.488 94.6104C114.768 94.4637 114.022 94.3304 113.262 94.2104L113.382 93.7703C114.155 93.8904 114.902 94.0237 115.635 94.1704L115.488 94.6104ZM151.064 94.4237H150.477C150.477 93.837 150.477 93.2503 150.477 92.677H151.077C151.064 93.1036 151.037 93.6903 151.01 94.277L151.064 94.4237ZM30.1101 94.117C30.1101 93.5303 30.1101 92.9436 30.1101 92.3569H30.6968C30.6968 92.9303 30.6968 93.517 30.6968 94.1037L30.1101 94.117ZM68.779 93.9037L68.659 93.4637L70.9258 93.117L71.0324 93.5703L68.779 93.9037ZM112.101 93.9037L109.848 93.5703L109.955 93.117L112.221 93.4637L112.101 93.9037ZM72.0992 93.437L72.0058 92.997L74.286 92.7036L74.366 93.157L72.0992 93.437ZM108.661 93.437L106.394 93.157L106.474 92.717C107.257 92.797 108.017 92.8903 108.755 92.997L108.661 93.437ZM75.4993 93.0636L75.446 92.5836L77.7395 92.3569L77.8062 92.8103C77.0461 92.8503 76.2861 92.917 75.5394 93.0103L75.4993 93.0636ZM105.261 93.0636L102.981 92.837V92.3969L105.274 92.6103L105.261 93.0636ZM78.9262 92.7703V92.3169L81.2197 92.1569V92.6103C80.4641 92.5925 79.7129 92.6192 78.9662 92.6903L78.9262 92.7703ZM101.848 92.7703L99.5541 92.6103V92.1703C100.327 92.1703 101.101 92.2636 101.848 92.3303V92.7703ZM82.3531 92.5569V92.1169C83.1131 92.1169 83.8732 92.0369 84.6465 91.9969V92.4503L82.3531 92.5569ZM98.354 92.5569L96.0605 92.4636V92.0103L98.354 92.1169V92.5569ZM85.7399 92.4236V91.9836L88.0467 91.9169V92.3703L85.7399 92.4236ZM94.9138 92.4236H92.6203V91.9702H94.9271L94.9138 92.4236ZM89.1801 92.4236V91.9702H91.4869V92.4236H89.1801ZM150.997 91.8236H150.397V91.1835C150.397 90.8102 150.397 90.4368 150.397 90.0635H150.984C150.984 90.4368 150.984 90.8102 150.984 91.1835L150.997 91.8236ZM29.8701 91.6636V91.1835C29.8701 90.7568 29.8701 90.3168 29.8701 89.8501H30.4568C30.4568 90.2768 30.4568 90.7035 30.4568 91.1835V91.6636H29.8701ZM150.384 89.1968C150.384 88.5967 150.384 88.01 150.317 87.4366H150.917C150.917 88.01 150.917 88.5967 150.917 89.1968H150.384ZM30.4835 89.0367H29.8968C29.8968 88.4367 29.8968 87.85 29.8968 87.2766H30.4968C30.6168 87.6633 30.6035 88.25 30.5768 88.8501L30.4835 89.0367ZM150.29 86.5566C150.29 85.9566 150.29 85.3699 150.197 84.8098H150.784C150.784 85.3832 150.85 85.9699 150.877 86.5699L150.29 86.5566ZM30.5901 86.3966H30.1101C30.1101 85.7966 30.1101 85.2098 30.2034 84.6365H30.8035C30.7368 85.0232 30.7101 85.6099 30.6835 86.2099L30.5901 86.3966ZM150.144 83.9298L150.037 82.1697H150.637L150.744 83.9164L150.144 83.9298ZM30.7235 83.7698H30.1368L30.2434 82.023H30.8435L30.7235 83.7698Z" fill="#0F0F0F"/>
<path id="Girl4V_78" d="M170.491 84.5832C169.921 84.5776 169.351 84.542 168.785 84.4765L168.878 84.0365C169.619 84.0942 170.364 84.0942 171.105 84.0365V84.4898L170.491 84.5832ZM10.5623 84.5832H10.3889V84.1298H10.5489C11.2408 84.1251 11.9314 84.0716 12.6157 83.9698L12.7224 84.4232C12.0067 84.5241 11.2851 84.5776 10.5623 84.5832V84.5832ZM9.22886 84.4898C8.44916 84.3991 7.69118 84.1735 6.98874 83.8231L7.32209 83.4498C7.95304 83.7659 8.63448 83.969 9.33553 84.0498L9.22886 84.4898ZM172.358 84.4898L172.212 84.0498C172.758 83.945 173.287 83.7655 173.785 83.5164L174.118 83.8898C173.55 84.1555 172.949 84.3438 172.332 84.4498L172.358 84.4898ZM167.665 84.3832C166.971 84.2632 166.238 84.1031 165.424 83.9165L165.611 83.4764C166.398 83.6764 167.118 83.8231 167.798 83.9298L167.665 84.3832ZM13.9091 84.3031L13.7625 83.8631C14.4425 83.7298 15.0959 83.5698 15.9492 83.3698L16.1359 83.7965C15.2959 83.9698 14.5625 84.1298 13.8825 84.2631L13.9091 84.3031ZM164.318 83.6231C163.624 83.4364 162.904 83.2364 162.158 83.0098L162.371 82.5831L164.518 83.2098L164.318 83.6231ZM17.2293 83.5031L17.0293 83.0898L19.1628 82.4497L19.3894 82.8764C18.6161 83.0631 17.896 83.2498 17.2027 83.4631L17.2293 83.5031ZM161.091 82.6764L158.957 81.983L159.197 81.5697L161.318 82.263L161.091 82.6764ZM20.4562 82.5297L20.2295 82.1164L22.3363 81.423L22.5763 81.8363L20.4562 82.5297ZM157.904 81.623L155.811 80.903L156.051 80.4896L158.144 81.2096L157.904 81.623ZM23.6297 81.4763L23.3897 81.063L25.4831 80.3429L25.7231 80.7563L23.6297 81.4763ZM154.757 80.5429L152.664 79.8096L152.904 79.3962L154.997 80.1296L154.757 80.5429ZM26.7499 80.3829L26.5099 79.9696L28.6033 79.2495L28.8433 79.6496L26.7499 80.3829ZM151.584 79.4362L149.49 78.7162L149.73 78.3028L151.837 79.0362L151.584 79.4362ZM29.8967 79.2495L29.6434 78.8362L31.7502 78.1161L31.9902 78.5295L29.8967 79.2495ZM148.437 78.3161L146.343 77.6094L146.57 77.1961C147.29 77.4228 147.997 77.6628 148.677 77.9028L148.437 78.3161ZM33.0436 78.1695L32.8035 77.7561L34.9103 77.0494L35.1503 77.4628L33.0436 78.1695ZM145.277 77.2494L143.17 76.5694L143.397 76.1427L145.517 76.8361L145.277 77.2494ZM36.2037 77.1161L35.9637 76.7027L38.0838 76.0094L38.3105 76.4227L36.2037 77.1161ZM142.103 76.236C141.41 76.0094 140.703 75.7827 139.97 75.5693L140.196 75.1426L142.33 75.8093L142.103 76.236ZM39.4306 76.0894L39.2039 75.676L41.3507 75.0093L41.564 75.436L39.4306 76.0894ZM138.956 75.2493L136.823 74.6093L137.023 74.1959C137.756 74.3959 138.476 74.6093 139.17 74.8226L138.956 75.2493ZM42.6308 75.116L42.4174 74.7026L44.5775 74.0626L44.7776 74.4892L42.6308 75.116ZM135.729 74.3026L133.569 73.7025L133.769 73.2892C134.503 73.4759 135.223 73.6759 135.943 73.8892L135.729 74.3026ZM45.8576 74.1826L45.6576 73.7559L47.8311 73.1692L48.0177 73.5959L45.8576 74.1826ZM132.529 73.4225L130.356 72.8625L130.542 72.4358L132.729 72.9958L132.529 73.4225ZM49.1511 73.3025L48.9645 72.8758L51.1513 72.3158L51.3246 72.7558L49.1511 73.3025ZM129.262 72.5958C128.542 72.4091 127.809 72.2491 127.062 72.0758L127.236 71.6358L129.436 72.1691L129.262 72.5958ZM52.4313 72.4891L52.2447 72.0625C52.978 71.8758 53.7114 71.7024 54.4581 71.5424L54.6181 71.9691L52.4313 72.4891ZM125.956 71.8224L123.755 71.3557L123.915 70.9157C124.662 71.0757 125.395 71.2224 126.129 71.3957L125.956 71.8224ZM55.7249 71.7291L55.4448 71.2491L57.6583 70.7824L57.8183 71.2091L55.7249 71.7291ZM122.649 71.1157L120.422 70.689L120.555 70.249C121.315 70.3957 122.062 70.529 122.795 70.689L122.649 71.1157ZM59.045 71.0357L58.8984 70.5957L61.1385 70.169L61.2718 70.609L59.045 71.0357ZM119.302 70.4757L117.062 70.089L117.182 69.649C117.942 69.7823 118.702 69.9023 119.435 70.049L119.302 70.4757ZM62.3919 70.3957L62.1119 69.9157L64.3654 69.5423L64.4854 69.9823L62.3919 70.3957ZM115.848 69.9157L113.595 69.569L113.702 69.129L115.968 69.4623L115.848 69.9157ZM65.6588 69.8357L65.5521 69.3956L67.8189 69.0623L67.9256 69.5023L65.6588 69.8357ZM112.461 69.409L110.195 69.1156L110.288 68.6756C111.061 68.7556 111.821 68.8623 112.568 68.9689L112.461 69.409ZM69.0456 69.3423L68.9523 68.9023L71.2191 68.6089L71.3124 69.0623L69.0456 69.3423ZM109.048 68.9823L106.781 68.7289L106.848 68.2889L109.141 68.5289L109.048 68.9823ZM72.4325 68.9823L72.3525 68.5289L74.6326 68.2889L74.7126 68.7423C73.9659 68.7556 73.2059 68.8489 72.4458 68.9289L72.4325 68.9823ZM105.634 68.6756L103.354 68.4756L103.421 68.0356L105.701 68.2222L105.634 68.6756ZM75.8593 68.6756L75.7793 68.2222L78.0728 68.0356L78.1395 68.4889L75.8593 68.6756ZM102.221 68.4356L99.9274 68.2756V67.8355L102.234 67.9822L102.221 68.4356ZM79.2729 68.4356V67.9822L81.5797 67.8489V68.3022L79.2729 68.4356ZM98.7806 68.2622L96.4872 68.1556V67.7022L98.794 67.8089L98.7806 68.2622ZM82.7797 68.2622V67.8089L85.0865 67.7155V68.1689L82.7797 68.2622ZM95.4071 68.1422H93.1137V67.6889H95.4204L95.4071 68.1422ZM86.2199 68.1422V67.7022H88.5401V68.1556L86.2199 68.1422ZM91.9536 68.1422H89.6601V67.6889H91.9669L91.9536 68.1422Z" fill="#0F0F0F"/>
<path id="Girl4V_79" d="M55.8315 24.4864C53.018 24.4864 50.8179 23.3264 50.4979 21.6729C50.0979 19.7528 52.3647 17.926 55.6715 17.526C56.0715 17.526 56.4849 17.4594 56.8983 17.4594C59.7117 17.4594 61.9119 18.6061 62.2319 20.2595C62.6319 22.1929 60.3651 24.0064 57.0583 24.4064C56.6516 24.46 56.2418 24.4867 55.8315 24.4864V24.4864ZM56.8716 19.2594C56.5875 19.2391 56.3023 19.2391 56.0182 19.2594C54.1248 19.4861 52.618 20.4595 52.8047 21.3396C52.9914 22.2196 54.2581 22.673 55.8315 22.673C56.1249 22.673 56.4049 22.673 56.6982 22.673C58.5784 22.433 60.0851 21.4596 59.8984 20.5795C59.7117 19.6995 58.445 19.2461 56.8716 19.2461V19.2594Z" fill="#515151"/>
<path id="Girl4V_80" d="M90.5269 6.21871C85.7666 6.21871 81.6597 6.21871 81.6597 3.55189C81.6597 0.885071 85.7666 0.885071 90.5269 0.885071C95.2871 0.885071 99.394 0.885071 99.394 3.55189C99.394 6.21871 95.2871 6.21871 90.5269 6.21871ZM90.5269 1.69845C85.7666 1.69845 82.8464 1.79179 82.8464 3.51189C82.8464 5.23199 85.7666 5.32533 90.5269 5.32533C95.2871 5.32533 98.2073 5.23199 98.2073 3.51189C98.2073 1.79179 95.2871 1.69845 90.5269 1.69845Z" fill="#0F0F0F"/>
</g>
</g>
<g id="Girl4G_23">
<path id="Girl4V_81" d="M81.393 31.0468C84.1959 30.6264 87.0259 30.4125 89.8601 30.4067C95.5805 30.4067 99.6607 31.7402 102.354 34.247C105.048 36.7538 106.701 40.3406 106.701 45.3276C106.812 47.5232 106.476 49.7184 105.716 51.7809C104.955 53.8434 103.784 55.7305 102.274 57.3283C99.3807 60.2218 94.6204 61.7685 88.6334 61.7685C86.2151 61.7831 83.7979 61.6629 81.393 61.4085V31.0468ZM85.3932 58.3283C86.7183 58.5122 88.0561 58.588 89.3935 58.555C97.9006 58.555 102.528 53.7948 102.528 45.4609C102.528 38.1805 98.5273 33.5669 90.0335 33.5669C88.4678 33.544 86.9039 33.6825 85.3666 33.9803L85.3932 58.3283Z" fill="black"/>
<path id="Girl4V_82" d="M88.6334 62.7019C86.1793 62.7178 83.7262 62.5932 81.2863 62.3286L80.4596 62.2352V30.2334L81.2596 30.1134C84.1064 29.6838 86.9811 29.4654 89.8601 29.46C95.7405 29.46 100.047 30.7934 103.008 33.5669C104.578 35.081 105.804 36.9145 106.605 38.9434C107.405 40.9723 107.761 43.1494 107.648 45.3276C107.754 47.648 107.391 49.9661 106.58 52.1428C105.769 54.3195 104.527 56.31 102.928 57.995C99.8474 61.0752 94.9004 62.7019 88.6334 62.7019ZM86.3133 57.5016C87.3 57.595 88.5134 57.6083 89.4068 57.6083C97.2739 57.6083 101.607 53.3014 101.607 45.4609C101.707 44.0105 101.513 42.5549 101.039 41.1806C100.565 39.8063 99.8198 38.5412 98.8473 37.4605C96.8739 35.487 93.9137 34.4736 90.0468 34.4736C88.7977 34.4627 87.5495 34.5474 86.3133 34.727V57.5016Z" fill="#666666"/>
</g>
</g>
</g>
<defs>
<linearGradient id="Girl4P0_linear" x1="90.0735" y1="281.021" x2="90.0735" y2="222.458" gradientUnits="userSpaceOnUse">
<stop stop-color="#FFB39D"/>
<stop offset="0.23" stop-color="#FF9B8E"/>
<stop offset="0.48" stop-color="#FF8781"/>
<stop offset="0.74" stop-color="#FF7B7A"/>
<stop offset="1" stop-color="#FF7777"/>
</linearGradient>
<linearGradient id="Girl4P1_linear" x1="4990.76" y1="15899.3" x2="4990.76" y2="13338.3" gradientUnits="userSpaceOnUse">
<stop stop-color="#FFB39D"/>
<stop offset="0.23" stop-color="#FF9B8E"/>
<stop offset="0.48" stop-color="#FF8781"/>
<stop offset="0.74" stop-color="#FF7B7A"/>
<stop offset="1" stop-color="#FF7777"/>
</linearGradient>
<linearGradient id="Girl4P2_linear" x1="164.158" y1="169.375" x2="164.158" y2="131.279" gradientUnits="userSpaceOnUse">
<stop stop-color="#FFEADB"/>
<stop offset="0.99" stop-color="#D177F4"/>
</linearGradient>
<linearGradient id="Girl4P3_linear" x1="2040.62" y1="4988.67" x2="2040.62" y2="4727.05" gradientUnits="userSpaceOnUse">
<stop stop-color="#FFEADB"/>
<stop offset="0.99" stop-color="#D177F4"/>
</linearGradient>
<linearGradient id="Girl4P4_linear" x1="-12265.3" y1="15910.3" x2="-12265.3" y2="13349.3" gradientUnits="userSpaceOnUse">
<stop stop-color="#FFB39D"/>
<stop offset="0.23" stop-color="#FF9B8E"/>
<stop offset="0.48" stop-color="#FF8781"/>
<stop offset="0.74" stop-color="#FF7B7A"/>
<stop offset="1" stop-color="#FF7777"/>
</linearGradient>
<linearGradient id="Girl4P5_linear" x1="-10708.4" y1="10127.5" x2="-10708.4" y2="9040.08" gradientUnits="userSpaceOnUse">
<stop stop-color="#FFEADB"/>
<stop offset="0.99" stop-color="#D177F4"/>
</linearGradient>
<linearGradient id="Girl4P6_linear" x1="-4473.23" y1="4991.26" x2="-4473.23" y2="4729.64" gradientUnits="userSpaceOnUse">
<stop stop-color="#FFEADB"/>
<stop offset="0.99" stop-color="#D177F4"/>
</linearGradient>
<linearGradient id="Girl4P7_linear" x1="87.5267" y1="240.512" x2="87.5267" y2="19.4194" gradientUnits="userSpaceOnUse">
<stop stop-color="#FFAA96"/>
<stop offset="0.43" stop-color="#F9AB99"/>
<stop offset="0.55" stop-color="#FBA38F"/>
<stop offset="0.78" stop-color="#FE9983"/>
<stop offset="1" stop-color="#FF967F"/>
</linearGradient>
<linearGradient id="Girl4P8_linear" x1="5812.76" y1="18776.5" x2="5812.76" y2="14913.8" gradientUnits="userSpaceOnUse">
<stop stop-color="#FFEADB"/>
<stop offset="0.99" stop-color="#D177F4"/>
</linearGradient>
<linearGradient id="Girl4P9_linear" x1="-34270.6" y1="17611.2" x2="-34270.6" y2="14217.1" gradientUnits="userSpaceOnUse">
<stop stop-color="#FFEADB"/>
<stop offset="0.99" stop-color="#D177F4"/>
</linearGradient>
<linearGradient id="Girl4P10_linear" x1="3899.15" y1="29349.3" x2="3899.15" y2="18916.4" gradientUnits="userSpaceOnUse">
<stop stop-color="#FFEADB"/>
<stop offset="0.99" stop-color="#D177F4"/>
</linearGradient>
<linearGradient id="Girl4P11_linear" x1="-29205.8" y1="29349.3" x2="-29205.8" y2="18916.4" gradientUnits="userSpaceOnUse">
<stop stop-color="#FFEADB"/>
<stop offset="0.99" stop-color="#D177F4"/>
</linearGradient>
<linearGradient id="Girl4P12_linear" x1="89.4201" y1="181.789" x2="89.4201" y2="157.041" gradientUnits="userSpaceOnUse">
<stop stop-color="#F97A7E"/>
<stop offset="0.08" stop-color="#FA7D7E"/>
<stop offset="0.54" stop-color="#FE897F"/>
<stop offset="1" stop-color="#FF8D7F"/>
</linearGradient>
<linearGradient id="Girl4P13_linear" x1="553.102" y1="3780.16" x2="553.102" y2="3641.16" gradientUnits="userSpaceOnUse">
<stop stop-color="#FFEADB"/>
<stop offset="0.99" stop-color="#D177F4"/>
</linearGradient>
<linearGradient id="Girl4P14_linear" x1="-324.722" y1="3780.16" x2="-324.722" y2="3641.16" gradientUnits="userSpaceOnUse">
<stop stop-color="#FFEADB"/>
<stop offset="0.99" stop-color="#D177F4"/>
</linearGradient>
<linearGradient id="Girl4P15_linear" x1="91.5402" y1="282.408" x2="91.5402" y2="263.047" gradientUnits="userSpaceOnUse">
<stop stop-color="#C71D4B"/>
<stop offset="1" stop-color="#FF1D3B"/>
</linearGradient>
<linearGradient id="Girl4P16_linear" x1="128.129" y1="153.934" x2="128.129" y2="121.212" gradientUnits="userSpaceOnUse">
<stop stop-color="#EEE2FF"/>
<stop offset="1" stop-color="#BDC9FB"/>
</linearGradient>
<linearGradient id="Girl4P17_linear" x1="127.502" y1="151.787" x2="127.502" y2="128.066" gradientUnits="userSpaceOnUse">
<stop stop-color="#ACA1DB"/>
<stop offset="1" stop-color="#6A518A"/>
</linearGradient>
<linearGradient id="Girl4P18_linear" x1="127.502" y1="151.094" x2="127.502" y2="128.759" gradientUnits="userSpaceOnUse">
<stop stop-color="#BAA9CC"/>
<stop offset="0.96" stop-color="#404577"/>
</linearGradient>
<linearGradient id="Girl4P19_linear" x1="127.489" y1="147.173" x2="127.489" y2="132.693" gradientUnits="userSpaceOnUse">
<stop stop-color="#A79ABD"/>
<stop offset="0.99" stop-color="#724A60"/>
</linearGradient>
<linearGradient id="Girl4P20_linear" x1="50.2046" y1="153.934" x2="50.2046" y2="121.212" gradientUnits="userSpaceOnUse">
<stop stop-color="#EEE2FF"/>
<stop offset="1" stop-color="#BDC9FB"/>
</linearGradient>
<linearGradient id="Girl4P21_linear" x1="50.8313" y1="151.787" x2="50.8313" y2="128.066" gradientUnits="userSpaceOnUse">
<stop stop-color="#ACA1DB"/>
<stop offset="1" stop-color="#6A518A"/>
</linearGradient>
<linearGradient id="Girl4P22_linear" x1="50.8312" y1="151.094" x2="50.8312" y2="128.759" gradientUnits="userSpaceOnUse">
<stop stop-color="#BAA9CC"/>
<stop offset="0.96" stop-color="#404577"/>
</linearGradient>
<linearGradient id="Girl4P23_linear" x1="50.8446" y1="147.173" x2="50.8446" y2="132.693" gradientUnits="userSpaceOnUse">
<stop stop-color="#A79ABD"/>
<stop offset="0.99" stop-color="#724A60"/>
</linearGradient>
</defs>
</svg>
