<svg width="212" height="250" viewBox="0 0 212 250" fill="none" xmlns="http://www.w3.org/2000/svg">
<g id="Group">
<g id="Group_2">
<g id="Group_3">
<g id="Group_4">
<g id="Group_5">
<path id="Vector" d="M58.84 172C58.84 172 57.67 217.45 56.58 221.66C55.49 225.87 0 249.51 0 249.51H212C212 249.51 151.68 228.2 150.06 223.33C148.44 218.46 149.87 173.23 149.87 173.23L58.84 172Z" fill="url(#paint0_linear)"/>
<path id="Vector_2" d="M56.79 220.47C56.79 220.47 52.37 219.95 51.89 220.47C51.41 220.99 51.89 224.47 51.89 224.47L0 249.51H212L156 225.68C156 225.68 154.07 220.38 150 223.33L151.38 225.33C151.38 225.33 132.6 245.44 101.3 245.44C92.3537 245.489 83.548 243.214 75.7455 238.836C67.943 234.459 61.4112 228.13 56.79 220.47Z" fill="#8460B8"/>
<g id="Vector_3" style="mix-blend-mode:multiply" opacity="0.6">
<path d="M58.53 191.85C58.53 191.85 68.98 194.79 71.53 199.31C74.08 203.83 90.31 237.77 103.13 238.31C115.95 238.85 124.26 220.79 130.76 216.64C137.26 212.49 149 212.18 149 212.18L149.85 173.18L58.85 171.99L58.53 191.85Z" fill="#B42F97"/>
</g>
<path id="Vector_4" style="mix-blend-mode:multiply" opacity="0.6" d="M120.72 189.33L116.55 232.07C116.55 232.07 124.55 223.15 128.55 216.65C132.55 210.15 140.19 178.65 140.19 178.65L120.72 189.33Z" fill="url(#paint1_linear)"/>
<path id="Vector_5" style="mix-blend-mode:multiply" opacity="0.6" d="M156 225.68C156 225.68 142.38 237.96 128.36 243.68C128.36 243.68 156.19 234.83 163.98 229.03L156 225.68Z" fill="url(#paint2_linear)"/>
<path id="Vector_6" style="mix-blend-mode:multiply" opacity="0.6" d="M51.89 224.47C59.1453 231.512 66.961 237.954 75.26 243.73C75.26 243.73 57.65 239 42.55 229L51.89 224.47Z" fill="url(#paint3_linear)"/>
<g id="Vector_7" style="mix-blend-mode:multiply" opacity="0.6">
<path d="M65 230.76C65 230.76 79.2 243.76 103.81 243.76C128.42 243.76 143.32 232.1 143.32 232.1C131.05 240.751 116.413 245.412 101.4 245.45C76.39 245.42 65 230.76 65 230.76Z" fill="#B42F97"/>
</g>
</g>
<g id="Group_6">
<path id="Vector_8" d="M164.89 102.52C164.89 102.52 173.75 88.9998 179.77 88.9998C183.43 88.9998 192.27 96.7098 192.17 104C192.04 113.83 183.34 125 181.17 130.71C179 136.42 173.39 143.9 169.66 144.63C165.93 145.36 161.07 138.28 161.07 138.28C161.07 138.28 162.88 111.42 164.89 102.52Z" fill="url(#paint4_linear)"/>
<path id="Vector_9" style="mix-blend-mode:multiply" opacity="0.6" d="M165.54 116.89C165.54 116.89 180.1 98.8898 185.4 98.8898C190.7 98.8898 190.7 109.13 188.56 114.97C187.08 118.97 184.19 124.85 184.19 124.85C184.19 124.85 186.48 118.58 186.76 113.85C187.18 106.63 185.57 101.38 183.76 101.39C180.4 101.39 177.76 106 177.34 107.62C176.92 109.24 179.99 116.38 179.18 121.35C178.37 126.32 175.39 128.21 174.4 127.67C173.41 127.13 174.94 121.53 174.03 119.54C173.12 117.55 170.51 114.67 168.98 115.3C167.45 115.93 165.54 116.89 165.54 116.89Z" fill="url(#paint5_linear)"/>
<path id="Vector_10" style="mix-blend-mode:multiply" opacity="0.6" d="M165.54 116.89C165.54 116.89 169.13 114.75 170.22 115.43C171.31 116.11 174.08 118.61 174.22 120.18C174.36 121.75 173.34 126.18 174.22 126.99C175.1 127.8 178.27 122.73 178.41 118.29C178.55 113.85 176 108.72 176 108.11C176 107.5 176.58 104.66 176.58 104.66C176.58 104.66 168.16 112.67 165.54 116.89Z" fill="url(#paint6_linear)"/>
</g>
<g id="Group_7">
<path id="Vector_11" d="M46.23 102.52C46.23 102.52 37.36 88.9998 31.34 88.9998C27.68 88.9998 18.84 96.7098 18.94 104C19.07 113.83 27.77 125 29.94 130.71C32.11 136.42 37.72 144 41.45 144.71C45.18 145.42 50.05 138.36 50.05 138.36C50.05 138.36 48.23 111.42 46.23 102.52Z" fill="url(#paint7_linear)"/>
<path id="Vector_12" style="mix-blend-mode:multiply" opacity="0.6" d="M45.57 116.89C45.57 116.89 31 98.8998 25.71 98.8998C20.42 98.8998 20.41 109.14 22.55 114.98C24.03 118.98 26.92 124.86 26.92 124.86C26.92 124.86 24.63 118.59 24.36 113.86C23.94 106.64 25.54 101.39 27.36 101.4C30.71 101.4 33.36 106.01 33.77 107.63C34.18 109.25 31.12 116.39 31.93 121.36C32.74 126.33 35.72 128.22 36.72 127.68C37.72 127.14 36.18 121.54 37.08 119.55C37.98 117.56 40.6 114.68 42.08 115.31C43.56 115.94 45.57 116.89 45.57 116.89Z" fill="url(#paint8_linear)"/>
<path id="Vector_13" style="mix-blend-mode:multiply" opacity="0.6" d="M45.57 116.89C45.57 116.89 41.98 114.75 40.89 115.43C39.8 116.11 37.03 118.61 36.89 120.18C36.75 121.75 37.77 126.18 36.89 126.99C36.01 127.8 32.89 122.73 32.7 118.29C32.51 113.85 35.05 108.72 35.05 108.11C35.05 107.5 34.47 104.66 34.47 104.66C34.47 104.66 43 112.67 45.57 116.89Z" fill="url(#paint9_linear)"/>
</g>
<g id="Group_8">
<path id="Vector_14" d="M168.39 74.7298C168.39 86.7298 167.82 98.8598 167.39 103.84C166.39 113.92 164.39 123.31 163.89 133.84C163.39 144.37 162.12 152.84 160.76 156.84C159.895 159.369 158.745 161.792 157.33 164.06C157.25 164.19 157.17 164.33 157.08 164.46C155.979 166.181 154.767 167.828 153.45 169.39C151.477 171.712 149.335 173.885 147.04 175.89C134.77 186.65 119.41 192.7 118.3 193.13C113.3 195.13 99.1 195.01 94.05 193.03C92.44 192.4 77.35 187.74 65.11 177.84C61.7376 175.165 58.714 172.077 56.11 168.65C54.7036 166.77 53.4782 164.761 52.45 162.65C51.5371 160.787 50.8038 158.842 50.26 156.84C49.15 152.73 44.6 113.89 43.64 103.84C43.21 99.2498 42.72 88.5698 42.64 77.5398C42.51 64.3498 42.93 50.6398 44.64 46.2698C47.78 38.2698 84.85 16.7198 105.56 16.7198C120.1 16.7198 142.71 27.3298 155.96 36.4298C161.6 40.2998 165.54 43.8898 166.48 46.2698C167.93 49.9798 168.48 60.4198 168.48 71.5698C168.39 72.6098 168.39 73.6698 168.39 74.7298Z" fill="url(#paint10_linear)"/>
<path id="Vector_15" style="mix-blend-mode:multiply" opacity="0.6" d="M168.39 74.7298C168.39 86.7298 167.82 98.8598 167.39 103.84C166.39 113.92 164.39 123.31 163.89 133.84C163.39 144.37 162.12 152.84 160.76 156.84C159.895 159.369 158.745 161.792 157.33 164.06C157.25 164.19 157.17 164.33 157.08 164.46C155.979 166.181 154.767 167.828 153.45 169.39C151.477 171.712 149.335 173.885 147.04 175.89C149.82 169.22 153.28 143.63 155.64 134.83C158.1 125.64 161.11 113.32 161.11 113.32C160.4 108.07 155.9 108.07 155.9 108.07C141.9 115.71 121.49 109.39 121.49 109.39C119.05 97.7898 119.9 77.6998 119.9 77.6998L120.45 73.7598L158.35 71.8998C158.35 71.8998 154.98 63.8398 155.28 58.8998C155.58 53.9598 157.39 40.8998 155.9 37.4098C161.54 41.4698 165.48 45.2498 166.42 47.7498C167.75 51.3398 168.3 60.9098 168.42 71.5398C168.39 72.6098 168.39 73.6698 168.39 74.7298Z" fill="url(#paint11_linear)"/>
<path id="Vector_16" style="mix-blend-mode:multiply" opacity="0.6" d="M89.5 109.42C89.5 109.42 69.09 115.74 55.09 108.1C55.09 108.1 50.59 108.1 49.88 113.35C49.88 113.35 52.88 125.67 55.35 134.86C57.82 144.05 61.47 171.5 64.35 176.68C64.5567 177.06 64.8067 177.46 65.1 177.88C61.7276 175.205 58.704 172.117 56.1 168.69C54.6936 166.81 53.4682 164.801 52.44 162.69V162.69C51.5271 160.827 50.7938 158.882 50.25 156.88C49.14 152.77 44.59 113.93 43.63 103.88C43.2 99.2898 42.71 88.6098 42.63 77.5798C42.63 64.7198 43.07 52.0698 44.63 47.8198C45.57 45.3198 49.51 41.5398 55.15 37.4798C53.66 40.9598 55.45 54.0398 55.77 58.9698C56.09 63.8998 52.7 71.9698 52.7 71.9698L90.6 73.8298L91.15 77.7698C91.15 77.7698 91.94 97.8198 89.5 109.42Z" fill="url(#paint12_linear)"/>
<g id="Vector_17" style="mix-blend-mode:multiply" opacity="0.6">
<path d="M157.63 163.8C157.43 164.02 157.23 164.25 157.04 164.49C155.745 166.069 154.533 167.714 153.41 169.42C140.95 184.24 119.57 192.66 118.25 193.17C113.25 195.17 99.05 195.05 94 193.07C92 192.27 68.16 184.96 56.07 168.69C54.85 166.56 53.65 164.53 52.41 162.69C52.86 163.14 59.11 169.48 66.35 175.49C73.86 181.72 86.51 191.83 105.66 191.83C124.81 191.83 138.96 179.41 141.94 177.23C144.63 175.29 155.22 165.88 157.29 164.07L157.63 163.8Z" fill="#CB4397"/>
</g>
<path id="Vector_18" style="mix-blend-mode:multiply" opacity="0.5" d="M161.07 113.35C161.07 113.35 155.07 131.64 153.12 144.76C151.17 157.88 148.77 169.76 148.77 169.76C148.77 169.76 157.77 149.46 159.02 139.76C160.27 130.06 161.07 113.35 161.07 113.35Z" fill="url(#paint13_linear)"/>
<path id="Vector_19" style="mix-blend-mode:multiply" opacity="0.5" d="M49.34 113.35C49.34 113.35 55.34 131.64 57.29 144.76C59.24 157.88 61.64 169.76 61.64 169.76C61.64 169.76 54.2 149.46 52.97 139.76C51.74 130.06 49.34 113.35 49.34 113.35Z" fill="url(#paint14_linear)"/>
</g>
</g>
<g id="Group_9">
<g id="Group_10">
<path id="Vector_20" d="M91 135C91 135 87.16 117.6 105.3 117.6C123.44 117.6 120.41 134.66 120.41 134.66L119.6 135C119.6 135 114.6 138.86 105.3 138.86C96 138.86 91 135 91 135Z" fill="url(#paint15_linear)"/>
<g id="Vector_21" style="mix-blend-mode:multiply" opacity="0.6">
<path d="M105.31 133.64C95.82 133.64 91 135 91 135C95.86 134.84 99.76 138.81 105.3 138.86C110.84 138.91 114.74 134.86 119.6 135C114.902 134.015 110.109 133.559 105.31 133.64V133.64Z" fill="#B42F97"/>
</g>
<path id="Vector_22" style="mix-blend-mode:multiply" opacity="0.5" d="M112.7 136.86C113.531 135.89 114.635 135.194 115.868 134.862C117.1 134.53 118.405 134.578 119.61 135L112.7 136.86Z" fill="url(#paint16_linear)"/>
<path id="Vector_23" style="mix-blend-mode:multiply" opacity="0.5" d="M91 135C91 135 93.86 133.26 97.67 136.76L91 135Z" fill="url(#paint17_linear)"/>
<g id="Vector_24" style="mix-blend-mode:multiply" opacity="0.6">
<path d="M92.84 122.76C92.84 122.76 88.69 127.23 90.68 134.66C90.8814 130.616 91.6074 126.616 92.84 122.76V122.76Z" fill="#B42F97"/>
</g>
<g id="Vector_25" style="mix-blend-mode:multiply" opacity="0.6">
<path d="M118.26 122.76C118.26 122.76 122.41 127.23 120.42 134.66C120.219 130.616 119.493 126.616 118.26 122.76Z" fill="#B42F97"/>
</g>
<g id="Vector_26" style="mix-blend-mode:multiply" opacity="0.6">
<path d="M91 135C91 135 98.8 143.38 105.3 143.38C111.8 143.38 119.6 135 119.6 135C119.6 135 103.66 132.05 91 135Z" fill="#B42F97"/>
</g>
<path id="Vector_27" d="M111.47 130.72C111.41 129.72 112.41 128.61 113.18 128.72C113.95 128.83 113.56 130.98 113.18 131.39C112.8 131.8 111.47 130.72 111.47 130.72Z" fill="#FFCCB8"/>
</g>
<path id="Vector_28" style="mix-blend-mode:multiply" opacity="0.6" d="M92.84 122.76C92.84 122.76 94.18 125.33 95.58 133.64C95.58 133.64 97.66 125.83 94.21 119.56L92.84 122.76Z" fill="url(#paint18_linear)"/>
<path id="Vector_29" style="mix-blend-mode:multiply" opacity="0.6" d="M118.26 122.76C118.26 122.76 116.92 125.33 115.52 133.64C115.52 133.64 113.44 125.83 116.89 119.56L118.26 122.76Z" fill="url(#paint19_linear)"/>
</g>
<g id="Group_11">
<path id="Vector_30" d="M165.35 84.7798C165.35 84.7798 160.43 76.3098 155.49 76.0498C154.193 76.0157 152.896 76.1162 151.62 76.3498C140.97 78.0998 121.51 86.3498 121.51 86.3498C121.51 86.3498 118.3 77.9998 118.65 74.5798L119.76 74.0798C119.76 74.0798 120.91 79.3798 121.67 80.0798L121.53 73.2398C121.53 73.2398 137 70.9998 147.07 69.4898L148.74 69.2498L151.94 68.7898C154 68.4998 155.32 68.3298 155.4 68.3498C155.82 68.4598 156.71 68.7698 156.82 68.8098L156.28 67.3298C156.28 67.3298 161.52 72.7598 165.35 84.7798Z" fill="url(#paint20_linear)"/>
<g id="Vector_31" style="mix-blend-mode:multiply" opacity="0.6">
<path d="M165.35 84.7798C165.35 84.7798 160.43 76.3098 155.49 76.0498C154.193 76.0157 152.896 76.1162 151.62 76.3498L147.07 69.4898L148.74 69.2498C151.47 69.7198 159.06 75.1898 159.06 75.1898C156.96 71.1298 152.21 68.9198 151.95 68.7898C154.01 68.4998 155.33 68.3298 155.41 68.3498C155.83 68.4598 156.72 68.7698 156.83 68.8098L156.29 67.3298C156.29 67.3298 161.52 72.7598 165.35 84.7798Z" fill="#B42F97"/>
</g>
</g>
<g id="Group_12">
<path id="Vector_32" d="M46.13 84.7798C46.13 84.7798 51.05 76.3098 55.99 76.0498C57.2869 76.0157 58.5839 76.1162 59.86 76.3498C70.51 78.0998 90 86.3898 90 86.3898C90 86.3898 93.18 77.9998 92.83 74.5798L91.72 74.0798C91.72 74.0798 90.57 79.3798 89.81 80.0798L90 73.2898C90 73.2898 74.44 70.9998 64.41 69.4898L62.74 69.2498L59.54 68.7898C57.48 68.4998 56.16 68.3298 56.08 68.3498C55.66 68.4598 54.77 68.7698 54.65 68.8098L55.2 67.3298C55.2 67.3298 50 72.7598 46.13 84.7798Z" fill="url(#paint21_linear)"/>
<g id="Vector_33" style="mix-blend-mode:multiply" opacity="0.6">
<path d="M46.13 84.7798C46.13 84.7798 51.05 76.3098 55.99 76.0498C57.2869 76.0157 58.5839 76.1162 59.86 76.3498L64.41 69.4898L62.74 69.2498C60.01 69.7198 52.42 75.1898 52.42 75.1898C54.52 71.1298 59.27 68.9198 59.53 68.7898C57.47 68.4998 56.15 68.3298 56.07 68.3498C55.65 68.4598 54.76 68.7698 54.64 68.8098L55.19 67.3298C55.19 67.3298 50 72.7598 46.13 84.7798Z" fill="#B42F97"/>
</g>
</g>
<g id="Group_13">
<g id="Vector_34" style="mix-blend-mode:multiply" opacity="0.6">
<path d="M82.54 156.58C82.54 156.58 91.96 169.66 105.19 169.66C118.42 169.66 128.56 156.17 128.56 156.17L82.54 156.58Z" fill="#B42F97"/>
</g>
<path id="Vector_35" d="M78.92 152.48C78.92 152.48 88.18 166 104.41 166C120.64 166 132.46 152.53 132.46 152.53C132.46 152.53 115.46 156.7 103.85 156.7C92.24 156.7 78.92 152.48 78.92 152.48Z" fill="#EF7172"/>
<path id="Vector_36" d="M105.69 151.06C95.69 147.06 89.16 157.65 79.29 151.68C79.29 151.68 77.51 156.68 105.69 156.68V151.06Z" fill="#DD5656"/>
<path id="Vector_37" d="M105.69 151.06C117.08 145.65 121.35 157.06 131.22 151.06C131.22 151.06 133.87 156.66 105.69 156.66V151.06Z" fill="#DD5656"/>
<path id="Vector_38" d="M77.94 151.78C78.4581 151.443 79.0534 151.243 79.67 151.2C80.32 151.3 85.14 156.66 105.67 156.66C126.2 156.66 130.36 150.87 131.2 151.06C131.955 151.262 132.699 151.502 133.43 151.78C133.43 151.78 128.19 157 105.69 157C83.19 157 77.94 151.78 77.94 151.78Z" fill="#862254"/>
<g id="Vector_39" style="mix-blend-mode:soft-light">
<path d="M113.33 160.48L114.84 163.22C114.84 163.22 123.02 160.54 128.56 156.17L113.33 160.48Z" fill="#FFCCB8"/>
</g>
</g>
<g id="Group_14">
<g id="Group_15">
<path id="Vector_40" d="M124.32 104C124.24 105.53 136.24 105.63 143.59 104.62C150.94 103.61 154.36 97.7298 154.54 96.1498C154.72 94.5698 152.72 90.1498 142.54 91.1498C132.36 92.1498 124.52 100.52 124.32 104Z" fill="url(#paint22_linear)"/>
<g id="Group_16">
<path id="Vector_41" d="M146.37 97.7698C146.05 102.31 142.37 105.71 138.25 105.36C134.13 105.01 130.97 101.05 131.25 96.5098C131.53 91.9698 135.25 88.5798 139.37 88.9298C143.49 89.2798 146.69 93.2398 146.37 97.7698Z" fill="url(#paint23_linear)"/>
<path id="Vector_42" d="M145.93 97.7398C145.63 102.01 142.21 105.21 138.29 104.88C134.37 104.55 131.43 100.82 131.73 96.5498C132.03 92.2798 135.45 89.0798 139.38 89.4098C143.31 89.7398 146.23 93.4698 145.93 97.7398Z" fill="url(#paint24_linear)"/>
<path id="Vector_43" style="mix-blend-mode:multiply" d="M143.44 97.5298C143.422 98.1642 143.278 98.7886 143.016 99.3665C142.753 99.9444 142.378 100.464 141.913 100.895C141.447 101.327 140.9 101.66 140.304 101.878C139.708 102.095 139.074 102.191 138.44 102.16C137.165 101.995 136.006 101.337 135.21 100.328C134.414 99.3187 134.044 98.038 134.18 96.7598C134.197 96.125 134.34 95.4999 134.602 94.9214C134.863 94.3429 135.238 93.8225 135.704 93.3911C136.17 92.9597 136.718 92.6258 137.315 92.4092C137.912 92.1926 138.546 92.0976 139.18 92.1298C140.455 92.295 141.614 92.9526 142.41 93.9617C143.207 94.9709 143.576 96.2516 143.44 97.5298Z" fill="url(#paint25_linear)"/>
</g>
<path id="Vector_44" d="M123.83 104.67C123.83 104.67 130.13 89.5498 140.38 87.6698C148.83 86.0898 155.07 94.3498 155.07 94.3498C150.38 92.0452 145.05 91.3865 139.94 92.4798C131.48 94.2998 123.83 104.67 123.83 104.67Z" fill="#E56D5C"/>
<path id="Vector_45" d="M125.06 102L127.2 105C127.2 105 124.11 104.7 123.83 104.59C123.55 104.48 125.06 102 125.06 102Z" fill="#DD4C6A"/>
<path id="Vector_46" d="M131.27 105.25C131.27 105.25 141.45 106.25 147.27 104.05C149.044 103.441 150.639 102.398 151.908 101.017C153.178 99.6356 154.082 97.9592 154.54 96.1398C153.883 97.9674 152.796 99.6102 151.37 100.929C149.945 102.249 148.223 103.206 146.35 103.72C140.55 105.48 131.27 105.25 131.27 105.25Z" fill="#DD4C6A"/>
<path id="Vector_47" d="M145.68 99.5098C145 99.9398 147.68 100.64 149.77 100.22C151.68 99.8498 152.77 98.7898 152.63 98.5298C152.49 98.2698 148.33 97.8098 145.68 99.5098Z" fill="white"/>
<path id="Vector_48" d="M144.07 99.7298C143.36 99.2898 142.41 99.5298 142.29 99.9598C142.17 100.39 143.02 101.13 143.48 101.04C143.94 100.95 144.46 99.9998 144.07 99.7298Z" fill="white"/>
<g id="Vector_49" style="mix-blend-mode:multiply" opacity="0.6">
<path d="M124.28 103.86C124.28 103.86 137.72 89.8598 154.54 96.1398C154.54 96.1398 149.89 90.7698 139.69 91.6098C129.49 92.4498 124.28 103.86 124.28 103.86Z" fill="#B42F97"/>
</g>
<path id="Vector_50" d="M123.83 104.67C123.83 104.67 130.29 94.6698 139.83 93.6698C149.37 92.6698 154.51 96.1298 154.51 96.1298L155.38 94.5498C155.38 94.5498 147 90.0698 138.62 92.3298C128.62 95.0498 123.83 104.67 123.83 104.67Z" fill="#270039"/>
<path id="Vector_51" d="M123.83 104.67C123.83 104.67 128.3 88.3898 135 83.3798C135 83.3798 127.31 95.4698 123.83 104.67Z" fill="#DD4C6A"/>
</g>
<g id="Group_17">
<path id="Vector_52" d="M87.94 104C88.03 105.53 76.02 105.63 68.67 104.62C61.32 103.61 57.91 97.7298 57.73 96.1498C57.55 94.5698 59.54 90.1498 69.73 91.1498C79.92 92.1498 87.74 100.52 87.94 104Z" fill="url(#paint26_linear)"/>
<g id="Group_18">
<path id="Vector_53" d="M65.89 97.7698C66.21 102.31 69.89 105.71 74.01 105.36C78.13 105.01 81.3 101.05 81.01 96.5098C80.72 91.9698 77.01 88.5798 72.89 88.9298C68.77 89.2798 65.57 93.2398 65.89 97.7698Z" fill="url(#paint27_linear)"/>
<path id="Vector_54" d="M66.33 97.7398C66.64 102.01 70.06 105.21 73.98 104.88C77.9 104.55 80.84 100.82 80.54 96.5498C80.24 92.2798 76.81 89.0798 72.89 89.4098C68.97 89.7398 66 93.4698 66.33 97.7398Z" fill="url(#paint28_linear)"/>
<path id="Vector_55" style="mix-blend-mode:multiply" d="M68.83 97.5298C68.8465 98.1646 68.9899 98.7897 69.2517 99.3682C69.5135 99.9468 69.8883 100.467 70.3543 100.899C70.8202 101.33 71.3678 101.664 71.9647 101.88C72.5616 102.097 73.1958 102.192 73.83 102.16C75.0894 101.976 76.2282 101.31 77.0061 100.302C77.7841 99.295 78.1404 98.0249 78 96.7598C77.9848 96.1246 77.8424 95.4989 77.5811 94.9197C77.3198 94.3405 76.9449 93.8196 76.4787 93.3879C76.0125 92.9562 75.4644 92.6224 74.8669 92.4063C74.2693 92.1902 73.6345 92.0962 73 92.1298C71.7406 92.3139 70.6018 92.9798 69.8239 93.9872C69.0459 94.9946 68.6896 96.2648 68.83 97.5298V97.5298Z" fill="url(#paint29_linear)"/>
</g>
<path id="Vector_56" d="M88.44 104.67C88.44 104.67 82.14 89.5498 71.89 87.6698C63.44 86.0898 57.2 94.3498 57.2 94.3498C61.8865 92.0445 67.2131 91.3857 72.32 92.4798C80.79 94.2998 88.44 104.67 88.44 104.67Z" fill="#E56D5C"/>
<path id="Vector_57" d="M87.21 102L85.06 105C85.06 105 88.15 104.7 88.43 104.59C88.71 104.48 87.21 102 87.21 102Z" fill="#DD4C6A"/>
<path id="Vector_58" d="M81 105.25C81 105.25 70.82 106.25 65 104.05C63.2256 103.441 61.6313 102.398 60.3618 101.017C59.0923 99.6356 58.1877 97.9592 57.73 96.1398C58.385 97.9687 59.4715 99.6127 60.8973 100.932C62.323 102.252 64.046 103.208 65.92 103.72C71.72 105.48 81 105.25 81 105.25Z" fill="#DD4C6A"/>
<path id="Vector_59" d="M66.59 99.5098C67.26 99.9398 64.59 100.64 62.5 100.22C60.58 99.8498 59.5 98.7898 59.63 98.5298C59.76 98.2698 63.93 97.8098 66.59 99.5098Z" fill="white"/>
<path id="Vector_60" d="M68.2 99.7298C68.9 99.2898 69.86 99.5298 69.97 99.9598C70.08 100.39 69.25 101.13 68.79 101.04C68.33 100.95 67.81 99.9998 68.2 99.7298Z" fill="white"/>
<g id="Vector_61" style="mix-blend-mode:multiply" opacity="0.6">
<path d="M88 103.86C88 103.86 74.57 89.8598 57.75 96.1398C57.75 96.1398 62.4 90.7698 72.6 91.6098C82.8 92.4498 88 103.86 88 103.86Z" fill="#B42F97"/>
</g>
<path id="Vector_62" d="M88.44 104.67C88.44 104.67 81.97 94.6698 72.44 93.6698C62.91 92.6698 57.76 96.1298 57.76 96.1298L56.88 94.5498C56.88 94.5498 65.27 90.0698 73.64 92.3298C83.64 95.0498 88.44 104.67 88.44 104.67Z" fill="#270039"/>
<path id="Vector_63" d="M88.44 104.67C88.44 104.67 84 88.3898 77.29 83.3798C77.29 83.3798 85 95.4698 88.44 104.67Z" fill="#DD4C6A"/>
</g>
</g>
</g>
<g id="Group_19">
<path id="Vector_64" d="M175 234.6C180.31 224.36 179.33 211.17 179.33 211.17C175.99 220.05 168.73 227.17 168.73 227.17L171.45 218.55C166.51 228.14 154.68 236.38 154.68 236.38C154.68 236.38 164.7 147.89 161 112.79C157.3 77.6898 150.17 42.3498 146.47 35.1098C142.77 27.8698 133.59 23.9998 123.54 20.7998C113.49 17.5998 89.83 17.7998 87.02 20.7998C84.21 23.7998 47.58 94.2598 43.78 146.41C39.98 198.56 55.78 236.41 55.78 236.41C50.72 236.2 41.9 228.56 41.9 228.56L35 223.11V227.2C20.67 209.72 18.17 179.2 18.17 179.2C17.42 206.05 28.88 225 28.88 225C5.43 209.44 6.37 148.91 15.88 125C25.07 101.82 20.69 64.0998 27.58 50.2398C27.58 50.2398 27.58 50.2398 27.58 50.1798C27.7499 49.8095 27.9401 49.449 28.15 49.0998C33.6 40.0998 47.94 31.2298 58.48 25.2998L59 24.9998L60.29 24.2998C63.97 22.2498 67.04 20.6298 68.87 19.5498C76 15.3998 83.27 1.99981 89.37 0.209815C92.64 -0.730185 97.69 1.62981 103.37 4.46981C108.28 6.93981 113.64 9.75982 118.6 11.0598C119.39 10.8298 132.32 6.91981 137.67 6.54981C138.581 6.5331 139.48 6.75366 140.28 7.18981C140.28 7.18981 140.28 7.18981 140.28 7.18981C144.69 9.25981 151 15.9998 156.75 22.0798C159.08 24.5298 161.33 26.8698 163.31 28.7398C171.31 36.2598 181.68 45.3198 184.31 75.1398C187.39 109.65 192.98 121.89 197.18 134.99C200.271 144.447 202.005 154.295 202.33 164.24C204.09 199.37 175.81 233.58 175 234.6Z" fill="url(#paint30_linear)"/>
<path id="Vector_65" style="mix-blend-mode:multiply" d="M35 223.11V227.2C20.67 209.72 18.17 179.2 18.17 179.2C17.42 206.05 28.88 225 28.88 225C5.43 209.44 6.37 148.91 15.88 125C25.07 101.82 20.69 64.0998 27.58 50.2398C23.84 59.7398 28.8 87.4498 23.28 100.65C17.76 113.85 13.44 153.39 13.44 153.39C13.44 153.39 24.37 133.29 30.1 115.47C35.83 97.6498 31.86 70.1998 39.15 50.4698C44.83 35.1098 54.51 27.7698 58.52 25.2798L59 24.9998C59.84 24.4998 60.33 24.2698 60.33 24.2698C32.38 46.2698 41.54 74.9198 30.49 135.27C19.44 195.62 35 223.11 35 223.11Z" fill="url(#paint31_linear)"/>
<path id="Vector_66" style="mix-blend-mode:multiply" d="M70.6 20.9198C70.44 21.2998 69.93 22.5398 69.13 24.5398C69.66 23.0898 70.16 21.8598 70.6 20.9198Z" fill="url(#paint32_linear)"/>
<path id="Vector_67" style="mix-blend-mode:multiply" d="M175 234.6C180.31 224.36 179.33 211.17 179.33 211.17C175.99 220.05 168.73 227.17 168.73 227.17L171.45 218.55C166.51 228.14 154.68 236.38 154.68 236.38C154.68 236.38 164.7 147.89 161 112.79C157.3 77.6898 150.17 42.3498 146.47 35.1098C142.77 27.8698 133.59 23.9998 123.54 20.7998C113.49 17.5998 89.83 17.7998 87.02 20.7998C84.21 23.7998 47.58 94.2598 43.78 146.41C39.98 198.56 55.78 236.41 55.78 236.41C50.72 236.2 41.9 228.56 41.9 228.56L35 223.11C28.55 201.35 30.6 156.56 41.88 109.64C51.14 71.1598 64.53 36.0798 69.05 24.6398C62.53 42.3798 49.2 93.8098 48.75 95.5598C63.17 63.6398 82.27 5.80981 88.3 2.27981C90.97 0.719814 97.21 2.27981 103.3 4.46981C108.494 6.38388 113.579 8.58391 118.53 11.0598V11.0598C119.53 10.5598 139.18 6.53981 141.94 11.7398L140.22 7.20981C143.05 12.6098 157.52 63.9098 160.9 101.37C164.28 138.83 165.45 199.17 165.45 199.17C165.45 199.17 167.57 182.61 169.86 160.12C172.15 137.63 175.2 101.32 171.52 70.8198C168 41.3398 157.5 23.3198 156.8 22.1398C157.89 23.3998 175.91 44.6598 174.75 71.9798C173.55 100.16 177.51 111.6 177.2 140.79C176.89 169.98 172.2 214.51 172.2 214.51C172.2 214.51 178.9 205.85 185.41 183.32C191.7 161.55 188.41 127.51 188.18 125.26C195.82 167.93 183.36 208.67 183.36 208.67C183.36 208.67 190.53 202.3 196.41 183.32C200.86 168.95 198.56 145.52 197.21 134.99C200.301 144.447 202.035 154.295 202.36 164.24C204.09 199.37 175.81 233.58 175 234.6Z" fill="url(#paint33_linear)"/>
<path id="Vector_68" style="mix-blend-mode:multiply" d="M179.28 211.17C179.28 211.17 190.85 173.09 190.57 149.1C190.57 149.1 189.36 210.65 174.95 234.6C178.34 227.278 179.829 219.22 179.28 211.17V211.17Z" fill="url(#paint34_linear)"/>
<path id="Vector_69" style="mix-blend-mode:multiply" d="M35 223.11C35 223.11 25.85 185.35 35.76 140.11C35.76 140.11 33.53 213.28 45.96 231.75L35 223.11Z" fill="url(#paint35_linear)"/>
<path id="Vector_70" style="mix-blend-mode:multiply" d="M171.4 218.58C171.4 218.58 176.35 173.58 176.78 155.05C176.78 155.05 171.17 212.58 165.1 227.2C165.1 227.2 169.92 222.1 171.4 218.58Z" fill="url(#paint36_linear)"/>
<g id="Vector_71" style="mix-blend-mode:soft-light">
<path d="M46.69 41.9098C46.69 41.9098 61 38.4098 63.85 35.0798L57.85 51.3798C57.85 51.3798 55.19 48.8098 53.22 48.3798C51.25 47.9498 43.36 50.2498 43.36 50.2498C44.0696 47.3262 45.1908 44.5182 46.69 41.9098V41.9098Z" fill="#C4D9E0"/>
</g>
<g id="Vector_72" style="mix-blend-mode:soft-light">
<path d="M42.36 41.3198C40.7361 40.9867 39.1306 40.5694 37.55 40.0698C34.7917 42.0373 32.3904 44.4623 30.45 47.2398C30.45 47.2398 35.26 49.6798 38 49.2398C39.2962 46.5163 40.752 43.8717 42.36 41.3198Z" fill="#C4D9E0"/>
</g>
<g id="Vector_73" style="mix-blend-mode:soft-light">
<path d="M60.69 51.6998C60.69 51.6998 64.46 50.9098 67.69 44.6998C70.92 38.4898 71.46 34.4698 71.46 34.4698H67.13C67.13 34.4698 61.5 48.8598 60.69 51.6998Z" fill="#C4D9E0"/>
</g>
<g id="Vector_74" style="mix-blend-mode:soft-light">
<path d="M150.18 38.4598C150.18 38.4598 159.91 42.9198 165.53 43.2298C165.53 43.2298 169.63 54.4798 170.32 65.4298C170.32 65.4298 163.69 59.8098 160.25 59.0698C158.246 58.6257 156.19 58.4574 154.14 58.5698L150.18 38.4598Z" fill="#C4D9E0"/>
</g>
<g id="Vector_75" style="mix-blend-mode:soft-light">
<path d="M170.32 43.2298C170.32 43.2298 175.44 56.4098 176.03 64.0898C176.03 64.0898 180.9 62.6698 181.25 60.5498C181.6 58.4298 177.96 47.5498 175.79 45.4098C174.263 44.0904 172.336 43.3226 170.32 43.2298Z" fill="#C4D9E0"/>
</g>
</g>
</g>
</g>
<defs>
<linearGradient id="paint0_linear" x1="106" y1="249.51" x2="106" y2="172.04" gradientUnits="userSpaceOnUse">
<stop stop-color="#FFB381"/>
<stop offset="0.23" stop-color="#FF9B7D"/>
<stop offset="0.48" stop-color="#FF877A"/>
<stop offset="0.74" stop-color="#FF7B78"/>
<stop offset="1" stop-color="#FF7777"/>
</linearGradient>
<linearGradient id="paint1_linear" x1="128.39" y1="232.07" x2="128.39" y2="178.66" gradientUnits="userSpaceOnUse">
<stop stop-color="#FFEADB"/>
<stop offset="0.99" stop-color="#D177F4"/>
</linearGradient>
<linearGradient id="paint2_linear" x1="5336" y1="4612.82" x2="5336" y2="4287.92" gradientUnits="userSpaceOnUse">
<stop stop-color="#FFEADB"/>
<stop offset="0.99" stop-color="#D177F4"/>
</linearGradient>
<linearGradient id="paint3_linear" x1="1969.5" y1="4918.71" x2="1969.5" y2="4547.76" gradientUnits="userSpaceOnUse">
<stop stop-color="#FFEADB"/>
<stop offset="0.99" stop-color="#D177F4"/>
</linearGradient>
<linearGradient id="paint4_linear" x1="176.62" y1="144.76" x2="176.62" y2="89.0298" gradientUnits="userSpaceOnUse">
<stop stop-color="#FF847C"/>
<stop offset="0.03" stop-color="#FF837A"/>
<stop offset="0.35" stop-color="#FF7466"/>
<stop offset="0.68" stop-color="#FF6B5A"/>
<stop offset="1" stop-color="#FF6856"/>
</linearGradient>
<linearGradient id="paint5_linear" x1="4494.78" y1="3788.36" x2="4494.78" y2="2954.05" gradientUnits="userSpaceOnUse">
<stop stop-color="#FFEADB"/>
<stop offset="0.99" stop-color="#D177F4"/>
</linearGradient>
<linearGradient id="paint6_linear" x1="2379.75" y1="2952.83" x2="2379.75" y2="2450.71" gradientUnits="userSpaceOnUse">
<stop stop-color="#FFEADB"/>
<stop offset="0.99" stop-color="#D177F4"/>
</linearGradient>
<linearGradient id="paint7_linear" x1="11288.7" y1="8160.84" x2="11288.7" y2="5053.33" gradientUnits="userSpaceOnUse">
<stop stop-color="#FF847C"/>
<stop offset="0.03" stop-color="#FF837A"/>
<stop offset="0.35" stop-color="#FF7466"/>
<stop offset="0.68" stop-color="#FF6B5A"/>
<stop offset="1" stop-color="#FF6856"/>
</linearGradient>
<linearGradient id="paint8_linear" x1="8731.16" y1="3788.37" x2="8731.16" y2="2954.06" gradientUnits="userSpaceOnUse">
<stop stop-color="#FFEADB"/>
<stop offset="0.99" stop-color="#D177F4"/>
</linearGradient>
<linearGradient id="paint9_linear" x1="4509.5" y1="2952.83" x2="4509.5" y2="2450.71" gradientUnits="userSpaceOnUse">
<stop stop-color="#FFEADB"/>
<stop offset="0.99" stop-color="#D177F4"/>
</linearGradient>
<linearGradient id="paint10_linear" x1="105.46" y1="194.61" x2="105.46" y2="16.7198" gradientUnits="userSpaceOnUse">
<stop stop-color="#E9A691"/>
<stop offset="0.08" stop-color="#ECA78E"/>
<stop offset="0.51" stop-color="#F9AB80"/>
<stop offset="0.57" stop-color="#FAA67D"/>
<stop offset="0.78" stop-color="#FE9A75"/>
<stop offset="1" stop-color="#FF9673"/>
</linearGradient>
<linearGradient id="paint11_linear" x1="144.05" y1="175.92" x2="144.05" y2="37.4398" gradientUnits="userSpaceOnUse">
<stop stop-color="#FFEADB"/>
<stop offset="0.99" stop-color="#D17EAE"/>
</linearGradient>
<linearGradient id="paint12_linear" x1="3296.3" y1="25011.8" x2="3296.3" y2="5294.06" gradientUnits="userSpaceOnUse">
<stop stop-color="#FFEADB"/>
<stop offset="0.99" stop-color="#D17EAE"/>
</linearGradient>
<linearGradient id="paint13_linear" x1="2054.29" y1="9688.95" x2="2054.29" y2="6507.42" gradientUnits="userSpaceOnUse">
<stop stop-color="#FFEADB"/>
<stop offset="0.99" stop-color="#D177F4"/>
</linearGradient>
<linearGradient id="paint14_linear" x1="3465.64" y1="9688.95" x2="3465.64" y2="6507.42" gradientUnits="userSpaceOnUse">
<stop stop-color="#FFEADB"/>
<stop offset="0.99" stop-color="#D177F4"/>
</linearGradient>
<linearGradient id="paint15_linear" x1="105.64" y1="138.86" x2="105.64" y2="117.6" gradientUnits="userSpaceOnUse">
<stop stop-color="#F97A7E"/>
<stop offset="0.15" stop-color="#FB7F78"/>
<stop offset="0.57" stop-color="#FE8A6C"/>
<stop offset="1" stop-color="#FF8D68"/>
</linearGradient>
<linearGradient id="paint16_linear" x1="112.7" y1="135.76" x2="119.61" y2="135.76" gradientUnits="userSpaceOnUse">
<stop offset="0.02" stop-color="#7C51B3"/>
<stop offset="0.99" stop-color="#BD89C4"/>
</linearGradient>
<linearGradient id="paint17_linear" x1="698.037" y1="432.003" x2="742.525" y2="432.003" gradientUnits="userSpaceOnUse">
<stop offset="0.02" stop-color="#7C51B3"/>
<stop offset="0.99" stop-color="#BD89C4"/>
</linearGradient>
<linearGradient id="paint18_linear" x1="410.575" y1="2001.21" x2="410.575" y2="1802.96" gradientUnits="userSpaceOnUse">
<stop stop-color="#FFEADB"/>
<stop offset="0.99" stop-color="#D177F4"/>
</linearGradient>
<linearGradient id="paint19_linear" x1="482.957" y1="2001.21" x2="482.957" y2="1802.96" gradientUnits="userSpaceOnUse">
<stop stop-color="#FFEADB"/>
<stop offset="0.99" stop-color="#D177F4"/>
</linearGradient>
<linearGradient id="paint20_linear" x1="118.62" y1="76.8498" x2="165.35" y2="76.8498" gradientUnits="userSpaceOnUse">
<stop stop-color="#36063B"/>
<stop offset="1" stop-color="#4D0E2E"/>
</linearGradient>
<linearGradient id="paint21_linear" x1="3793.14" y1="1532.09" x2="1609.59" y2="1532.09" gradientUnits="userSpaceOnUse">
<stop stop-color="#36063B"/>
<stop offset="1" stop-color="#4D0E2E"/>
</linearGradient>
<linearGradient id="paint22_linear" x1="139.747" y1="105.031" x2="138.905" y2="91.307" gradientUnits="userSpaceOnUse">
<stop stop-color="#EEE2FF"/>
<stop offset="1" stop-color="#BDC9FB"/>
</linearGradient>
<linearGradient id="paint23_linear" x1="138.24" y1="106.151" x2="139.558" y2="89.6806" gradientUnits="userSpaceOnUse">
<stop stop-color="#4D0E2E"/>
<stop offset="1" stop-color="#36063B"/>
</linearGradient>
<linearGradient id="paint24_linear" x1="2111.52" y1="1701.43" x2="2111.52" y2="1460.76" gradientUnits="userSpaceOnUse">
<stop stop-color="#4D0E2E"/>
<stop offset="1" stop-color="#36063B"/>
</linearGradient>
<linearGradient id="paint25_linear" x1="138.497" y1="102.941" x2="139.302" y2="92.8806" gradientUnits="userSpaceOnUse">
<stop stop-color="#CAA7DB"/>
<stop offset="0.99" stop-color="#8460B8"/>
</linearGradient>
<linearGradient id="paint26_linear" x1="-1448.06" y1="1437.62" x2="-1436.28" y2="1241.31" gradientUnits="userSpaceOnUse">
<stop stop-color="#EEE2FF"/>
<stop offset="1" stop-color="#BDC9FB"/>
</linearGradient>
<linearGradient id="paint27_linear" x1="-506.279" y1="1978.17" x2="-527.992" y2="1706.75" gradientUnits="userSpaceOnUse">
<stop stop-color="#4D0E2E"/>
<stop offset="1" stop-color="#36063B"/>
</linearGradient>
<linearGradient id="paint28_linear" x1="-473.715" y1="1860.55" x2="-492.968" y2="1619.89" gradientUnits="userSpaceOnUse">
<stop stop-color="#4D0E2E"/>
<stop offset="1" stop-color="#36063B"/>
</linearGradient>
<linearGradient id="paint29_linear" x1="-292.565" y1="1209.83" x2="-300.648" y2="1108.8" gradientUnits="userSpaceOnUse">
<stop stop-color="#CAA7DB"/>
<stop offset="0.99" stop-color="#8460B8"/>
</linearGradient>
<linearGradient id="paint30_linear" x1="106" y1="236.41" x2="106" y2="-0.000183185" gradientUnits="userSpaceOnUse">
<stop stop-color="#36062C"/>
<stop offset="1" stop-color="#441B3E"/>
</linearGradient>
<linearGradient id="paint31_linear" x1="1782.33" y1="46130" x2="1782.33" y2="4951.41" gradientUnits="userSpaceOnUse">
<stop stop-color="#FFEADB"/>
<stop offset="0.99" stop-color="#D177F4"/>
</linearGradient>
<linearGradient id="paint32_linear" x1="170.751" y1="103.202" x2="172.912" y2="103.202" gradientUnits="userSpaceOnUse">
<stop stop-color="#FFEADB"/>
<stop offset="0.99" stop-color="#D177F4"/>
</linearGradient>
<linearGradient id="paint33_linear" x1="20030.9" y1="55501.6" x2="20030.9" y2="389.005" gradientUnits="userSpaceOnUse">
<stop stop-color="#FFEADB"/>
<stop offset="0.99" stop-color="#D177F4"/>
</linearGradient>
<linearGradient id="paint34_linear" x1="182.76" y1="234.6" x2="182.76" y2="149.1" gradientUnits="userSpaceOnUse">
<stop offset="0.01" stop-color="#D177F4"/>
<stop offset="1" stop-color="#FFEADB"/>
</linearGradient>
<linearGradient id="paint35_linear" x1="602.687" y1="21375.8" x2="602.687" y2="12978" gradientUnits="userSpaceOnUse">
<stop offset="0.01" stop-color="#D177F4"/>
<stop offset="1" stop-color="#FFEADB"/>
</linearGradient>
<linearGradient id="paint36_linear" x1="2161.68" y1="16547.5" x2="2161.68" y2="11341.9" gradientUnits="userSpaceOnUse">
<stop offset="0.01" stop-color="#D177F4"/>
<stop offset="1" stop-color="#FFEADB"/>
</linearGradient>
</defs>
</svg>
