<svg width="182" height="259" viewBox="0 0 182 259" fill="none" xmlns="http://www.w3.org/2000/svg">
<g id="Man6 4">
<g id="Man6 3">
<g id="Man6">
<g id="Man6_2">
<g id="Man6_3">
<g id="Man6_4">
<g id="Man6_5">
<path id="Man6V" d="M50.8392 172C50.8392 172 49.5002 221.458 48.5732 226.342C47.6462 231.226 0.0348206 258.606 0.0348206 258.606H182C182 258.606 130.2 233.883 128.784 228.186C127.368 222.49 127.351 175.364 127.351 175.364L50.8392 172Z" fill="url(#Man6paint0_linear)"/>
<path id="Man6V_2" d="M48.753 224.903C48.753 224.903 44.9506 224.312 44.5386 224.903C44.1266 225.495 44.5386 229.544 44.5386 229.544L0 258.548H182L133.933 230.901C133.933 230.901 132.277 224.752 128.783 228.175L129.968 230.495C129.968 230.495 113.849 253.826 86.9829 253.826C79.3026 253.896 71.7407 251.267 65.0387 246.197C58.3367 241.126 52.7247 233.789 48.753 224.903V224.903Z" fill="white"/>
<g id="Man6V_3" style="mix-blend-mode:multiply" opacity="0.6">
<path d="M50 200.512C50 200.512 59.0143 202.504 61.2032 205.567C63.3921 208.629 77.3875 231.626 88.4442 231.992C99.5008 232.358 106.645 220.121 112.255 217.309C117.865 214.497 128 214.287 128 214.287L127.457 190.992L50.6119 189L50 200.512Z" fill="#D177B8"/>
</g>
<path id="Man6V_4" style="mix-blend-mode:multiply" opacity="0.6" d="M102.879 199.113L100.047 238.373C100.047 238.373 106.913 228.024 110.347 220.483C113.78 212.942 120.346 183.358 120.346 183.358L102.879 199.113Z" fill="url(#Man6paint1_linear)"/>
<path id="Man6V_5" style="mix-blend-mode:multiply" opacity="0.35" d="M133.933 230.959C133.933 230.959 122.243 245.194 110.209 251.9C110.209 251.9 134.105 241.633 140.783 234.892L133.933 230.959Z" fill="url(#Man6paint2_linear)"/>
<path id="Man6V_6" style="mix-blend-mode:multiply" opacity="0.35" d="M44.5386 229.555C50.768 237.728 57.4794 245.201 64.6063 251.9C64.6063 251.9 49.4826 246.447 36.5219 234.788L44.5386 229.555Z" fill="url(#Man6paint3_linear)"/>
<g id="Man6V_7" style="mix-blend-mode:multiply" opacity="0.6">
<path d="M55.7655 236.853C55.7655 236.853 67.9537 251.935 89.0772 251.935C110.201 251.935 122.99 238.407 122.99 238.407C112.458 248.444 99.8947 253.852 87.0086 253.896C65.5676 253.861 55.7655 236.853 55.7655 236.853Z" fill="#D177B8"/>
</g>
</g>
<g id="Man6_6">
<path id="Man6V_8" d="M152.739 119.38C152.739 119.38 159.768 106.827 164.541 106.85C167.437 106.85 174.444 114.009 174.368 120.83C174.26 129.961 167.372 140.321 165.69 145.646C164.009 150.971 159.529 157.897 156.568 158.559C153.607 159.22 149.756 152.677 149.756 152.677C149.756 152.677 151.145 127.652 152.739 119.38Z" fill="url(#Man6paint4_linear)"/>
<path id="Man6V_9" style="mix-blend-mode:multiply" opacity="0.6" d="M153.26 132.768C153.26 132.768 164.801 116.062 168.999 116.062C173.197 116.062 173.197 125.564 171.504 130.982C170.333 134.741 168.044 140.17 168.044 140.17C169.062 136.863 169.742 133.448 170.073 129.984C170.409 123.267 169.14 118.382 167.686 118.382C165.029 118.382 162.935 122.663 162.61 124.183C162.284 125.703 164.703 132.304 164.063 136.945C163.423 141.585 161.059 143.314 160.267 142.815C159.475 142.316 160.701 137.107 159.985 135.263C159.269 133.418 157.186 130.738 155.972 131.318C154.757 131.898 153.26 132.768 153.26 132.768Z" fill="url(#Man6paint5_linear)"/>
<path id="Man6V_10" style="mix-blend-mode:multiply" opacity="0.6" d="M153.26 132.768C153.26 132.768 156.102 130.773 156.969 131.411C157.837 132.049 160.028 134.358 160.126 135.82C160.224 137.281 159.421 141.423 160.126 142.142C160.831 142.862 163.326 138.186 163.445 134.021C163.564 129.856 161.579 125.134 161.579 124.578C161.579 124.021 162.035 121.376 162.035 121.376C162.035 121.376 155.332 128.812 153.26 132.768Z" fill="url(#Man6paint6_linear)"/>
</g>
<g id="Man6_7">
<path id="Man6V_11" d="M26.0894 119.38C26.0894 119.38 18.6592 106.827 13.6153 106.85C10.5456 106.85 3.13712 114.009 3.2239 120.83C3.33237 129.961 10.6216 140.321 12.4439 145.646C14.2662 150.971 18.952 157.897 22.0868 158.559C25.2216 159.22 29.2893 152.677 29.2893 152.677C29.2893 152.677 27.7707 127.652 26.0894 119.38Z" fill="url(#Man6paint7_linear)"/>
<path id="Man6V_12" style="mix-blend-mode:multiply" opacity="0.6" d="M25.5362 132.768C25.5362 132.768 13.3333 116.062 8.89687 116.062C4.46044 116.062 4.46044 125.564 6.25019 130.982C7.48675 134.741 9.90566 140.17 9.90566 140.17C8.8243 136.874 8.0965 133.456 7.73626 129.984C7.37831 123.267 8.72331 118.382 10.2527 118.382C13.0621 118.382 15.2749 122.663 15.622 124.183C15.9691 125.703 13.4526 132.304 14.0817 136.945C14.7109 141.585 17.2599 143.314 18.0951 142.815C18.9304 142.316 17.6396 137.107 18.3989 135.263C19.1581 133.418 21.3492 130.738 22.6292 131.318C23.9091 131.898 25.5362 132.768 25.5362 132.768Z" fill="url(#Man6paint8_linear)"/>
<path id="Man6V_13" style="mix-blend-mode:multiply" opacity="0.6" d="M25.5362 132.768C25.5362 132.768 22.5316 130.773 21.6204 131.411C20.7093 132.049 18.3663 134.358 18.2795 135.82C18.1928 137.281 19.0171 141.423 18.2795 142.142C17.5419 142.862 14.8953 138.186 14.776 134.021C14.6566 129.856 16.7393 125.134 16.7393 124.578C16.7393 124.021 16.2511 121.376 16.2511 121.376C16.2511 121.376 23.3451 128.812 25.5362 132.768Z" fill="url(#Man6paint9_linear)"/>
</g>
<g id="Man6_8">
<path id="Man6V_14" d="M156.525 109.851C155.44 121.391 153.271 132.157 152.728 144.219C152.186 156.282 146.979 165.282 145.135 169.772C144.289 171.788 144.235 172.899 142.348 175.013C137.011 181.05 131.305 189.179 125.557 195.161C123.544 197.248 121.368 199.169 119.048 200.904V200.904C115.997 203.232 112.684 205.192 109.178 206.744C103.7 209 89.4902 209 89.4902 209C89.4902 209 75.2915 209 69.8137 206.744C63.6104 203.975 57.9891 200.044 53.2504 195.161C46.4601 188.133 35.8951 180.56 31.1441 173.608C30.4813 172.661 29.9144 171.649 29.452 170.589C27.5863 166.1 26.5884 156.293 26.0678 144.219C25.5471 132.146 23.3126 121.391 22.2713 109.851C21.23 98.3114 19.9283 53.1119 23.356 43.9151C26.7837 34.7183 66.9718 10.0699 89.436 10.0699C105.208 10.0699 129.733 22.2198 144.105 32.6479C150.223 37.072 154.496 41.1909 155.516 43.9151C158.868 53.1119 157.566 98.3114 156.525 109.851Z" fill="url(#Man6paint10_linear)"/>
<path id="Man6V_15" style="mix-blend-mode:multiply" opacity="0.6" d="M156.525 115.637C155.44 126.436 153.271 136.515 152.728 147.815C152.186 159.115 146.979 167.538 145.135 171.788C141.881 179.045 133.345 188.024 125.557 195.575C123.532 197.537 121.356 199.333 119.048 200.947C119.949 200.174 131.164 190.519 134.126 185.463C137.206 180.178 141.176 152.163 143.888 142.781C146.6 133.399 149.68 120.791 149.68 120.791C149.551 119.36 148.905 118.026 147.864 117.04C146.823 116.055 145.459 115.486 144.029 115.441C128.843 123.232 106.704 116.781 106.704 116.781C104.058 104.947 104.98 84.4399 104.98 84.4399L105.576 80.419L146.687 78.523C146.687 78.523 150.407 65.447 150.743 60.4236C151.08 55.4002 153.629 42.9889 152.012 39.3821C158.119 43.5337 154.42 51.3684 155.44 53.8747C158.868 62.4831 157.566 104.817 156.525 115.637Z" fill="url(#Man6paint11_linear)" fill-opacity="0.31"/>
<path id="Man6V_16" style="mix-blend-mode:multiply" opacity="0.6" d="M23.0848 115.637C24.1695 126.436 26.3389 136.515 26.8813 147.815C27.4236 159.115 32.6193 167.538 34.4742 171.788C37.7283 179.045 46.2649 188.024 53.9988 195.575C56.0251 197.534 58.2012 199.33 60.507 200.947C59.6175 200.174 48.3909 190.519 45.4405 185.463C42.3599 180.178 38.3899 152.163 35.6782 142.781C32.9664 133.399 29.7449 120.835 29.7449 120.835C29.8715 119.405 30.5152 118.07 31.5545 117.085C32.5938 116.099 33.9566 115.53 35.3853 115.485C50.5711 123.276 72.7207 116.825 72.7207 116.825C75.3674 104.991 74.4454 84.4835 74.4454 84.4835L73.8488 80.4626L32.7278 78.5666C32.7278 78.5666 29.0181 65.4906 28.6819 60.4672C28.3456 55.4438 25.7966 43.0325 27.4128 39.4257C21.3059 43.5773 24.9939 51.412 23.9851 53.9183C20.731 62.4831 22.0435 104.817 23.0848 115.637Z" fill="url(#Man6paint12_linear)" fill-opacity="0.25"/>
<g id="Man6V_17" style="mix-blend-mode:multiply" opacity="0.6">
<path d="M144 172C138.582 178.043 130.997 189.121 125.297 195.098C123.287 197.194 121.112 199.123 118.795 200.867C115.747 203.205 112.437 205.175 108.934 206.734C103.462 209 89.2663 209 89.2663 209C89.2663 209 75.0817 209 69.6094 206.734C63.42 203.95 57.8118 200.001 53.0842 195.098C46.3007 188.037 35.7463 180.429 31 173.445C31 173.445 38.672 180.648 46.81 187.479C54.948 194.309 68.4825 207.314 89.1905 207.314C109.898 207.314 125.492 191.77 128.721 189.394C131.95 187.019 143.523 172.317 144 172Z" fill="#D177B8"/>
</g>
</g>
</g>
<g id="Man6_9">
<g id="Man6_10">
<path id="Man6V_18" d="M73.4583 149.393C73.4583 149.393 69.3799 131.144 88.6442 131.144C107.908 131.144 104.611 149.011 104.611 149.011L103.754 149.37C103.754 149.37 98.5041 153.419 88.5682 153.419C78.6324 153.419 73.4583 149.393 73.4583 149.393Z" fill="url(#Man6paint13_linear)" fill-opacity="0.42"/>
<g id="Man6V_19" style="mix-blend-mode:multiply" opacity="0.6">
<path d="M88.6007 147.955C78.5564 147.955 73.4149 149.393 73.4149 149.393C78.5564 149.219 82.6891 153.384 88.6007 153.442C94.5123 153.5 98.6125 149.219 103.787 149.393C98.7855 148.347 93.6957 147.865 88.6007 147.955V147.955Z" fill="#D177B8"/>
</g>
<path id="Man6V_20" style="mix-blend-mode:multiply" opacity="0.5" d="M96.4323 151.331C97.3517 150.293 98.5296 149.558 99.8269 149.212C101.124 148.867 102.487 148.926 103.754 149.382L96.4323 151.331Z" fill="url(#Man6paint14_linear)"/>
<path id="Man6V_21" style="mix-blend-mode:multiply" opacity="0.5" d="M73.4583 149.393C73.4583 149.393 76.4846 147.56 80.5197 151.226L73.4583 149.393Z" fill="url(#Man6paint15_linear)"/>
<g id="Man6V_22" style="mix-blend-mode:multiply" opacity="0.6">
<path d="M75.3891 136.55C74.0316 138.242 73.108 140.282 72.7087 142.47C72.3094 144.658 72.4481 146.92 73.1112 149.034C73.3223 144.779 74.089 140.577 75.3891 136.55V136.55Z" fill="#D177B8"/>
</g>
<g id="Man6V_23" style="mix-blend-mode:multiply" opacity="0.6">
<path d="M102.322 136.55C103.679 138.238 104.603 140.273 105.004 142.457C105.405 144.641 105.27 146.899 104.611 149.01C104.391 144.764 103.621 140.57 102.322 136.55V136.55Z" fill="#D177B8"/>
</g>
<g id="Man6V_24" style="mix-blend-mode:multiply" opacity="0.6">
<path d="M73.4583 149.393C73.4583 149.393 81.7129 158.176 88.6441 158.176C95.5754 158.176 103.83 149.393 103.83 149.393C103.83 149.393 86.8544 146.296 73.4583 149.393Z" fill="#D177B8"/>
</g>
<path id="Man6V_25" d="M95.1306 144.904C95.0655 143.859 96.1285 142.676 96.9421 142.792C97.7556 142.908 97.3434 145.112 96.9421 145.6C96.5407 146.087 95.1306 144.904 95.1306 144.904Z" fill="#FFCCB8"/>
</g>
<path id="Man6V_26" style="mix-blend-mode:multiply" opacity="0.6" d="M75.3891 136.55C75.3891 136.55 76.81 139.242 78.2961 147.955C78.2961 147.955 80.4655 139.776 76.8426 133.186L75.3891 136.55Z" fill="url(#Man6paint16_linear)"/>
<path id="Man6V_27" style="mix-blend-mode:multiply" opacity="0.6" d="M102.322 136.55C102.322 136.55 100.901 139.242 99.4261 147.955C99.4261 147.955 97.2567 139.776 100.869 133.186L102.322 136.55Z" fill="url(#Man6paint17_linear)"/>
</g>
<g id="Man6_11">
<path id="Man6V_28" d="M71.0177 110.238C70.8984 113.44 61.1578 115.54 52.8815 114.299C44.8873 113.138 40.6461 107.802 41.1342 101.224C41.6223 94.6455 47.3712 90.7822 56.0597 92.65C65.5617 94.7035 71.278 102.604 71.0177 110.238Z" fill="url(#Man6paint18_linear)"/>
<path id="Man6V_29" d="M68.7941 101.699C68.7941 101.699 64.4553 92.418 55.4848 91.1186C46.5143 89.8192 43.3795 95.6432 43.3795 95.6432C43.3795 95.6432 59.65 89.4712 68.7941 101.699Z" fill="#DD4C6A"/>
<path id="Man6V_30" d="M70.7357 106.85C70.826 108.982 70.1286 111.065 68.7941 112.651C68.7941 112.651 71.3106 112.117 71.5384 110.54C71.5644 109.257 71.2884 107.989 70.7357 106.85Z" fill="#DD4C6A"/>
<g id="Man6_12">
<path id="Man6V_31" d="M66.1682 108.441C68.0697 103.499 65.8657 97.8447 61.2455 95.811C56.6253 93.7772 51.3384 96.1345 49.437 101.076C47.5355 106.018 49.7394 111.672 54.3597 113.706C58.9799 115.74 64.2667 113.383 66.1682 108.441Z" fill="url(#Man6paint19_linear)"/>
<path id="Man6V_32" d="M59.1489 113.751C63.7905 112.943 66.9411 108.264 66.186 103.3C65.4309 98.3351 61.056 94.9652 56.4144 95.7729C51.7727 96.5805 48.6221 101.26 49.3772 106.224C50.1323 111.189 54.5072 114.559 59.1489 113.751Z" fill="url(#Man6paint20_linear)"/>
<path id="Man6V_33" style="mix-blend-mode:multiply" d="M52.2741 104.75C52.2741 105.918 52.5979 107.06 53.2046 108.031C53.8113 109.002 54.6735 109.759 55.6824 110.206C56.6912 110.653 57.8014 110.77 58.8724 110.542C59.9433 110.314 60.9271 109.752 61.6992 108.926C62.4714 108.1 62.9972 107.048 63.2103 105.902C63.4233 104.757 63.314 103.57 62.8961 102.491C62.4782 101.412 61.7706 100.489 60.8626 99.8404C59.9547 99.1915 58.8872 98.8452 57.7952 98.8452C56.3309 98.8452 54.9266 99.4674 53.8912 100.575C52.8558 101.682 52.2741 103.184 52.2741 104.75V104.75Z" fill="url(#Man6paint21_linear)"/>
</g>
<path id="Man6V_34" d="M51.4388 102.755C51.9812 103.231 49.443 103.347 47.5556 102.616C45.8635 101.966 45.0391 100.91 45.2018 100.713C47.4289 100.683 49.6093 101.396 51.4388 102.755V102.755Z" fill="white"/>
<path id="Man6V_35" d="M52.8707 103.231C53.5974 102.987 54.4326 103.358 54.4652 103.73C54.4977 104.101 53.6082 104.565 53.1961 104.414C52.7839 104.263 52.4802 103.37 52.8707 103.231Z" fill="white"/>
<g id="Man6V_36" style="mix-blend-mode:multiply" opacity="0.6">
<path d="M70.2909 105.087C70.2909 105.087 58.663 91.9424 41.2101 100.284L41.4487 99.1237C41.4487 99.1237 42.3382 94.1931 54.5411 94.1931C57.894 94.062 61.2035 95.037 64.0209 96.9857C66.8383 98.9344 69.0272 101.763 70.2909 105.087V105.087Z" fill="#D177B8"/>
</g>
<path id="Man6V_37" d="M69.651 103.393C69.651 103.393 65.4206 96.4322 55.4848 95.7709C45.5489 95.1096 41.4813 99.2513 41.4813 99.2513C41.4009 98.2657 41.5003 97.2728 41.7741 96.3277C42.1863 95.6432 62.2425 87.1045 69.651 103.393Z" fill="#5B164A"/>
<path id="Man6V_38" d="M68.7941 112.674C63.6229 115.176 57.8894 116.037 52.2741 115.157C50.2566 114.951 48.3199 114.205 46.6424 112.989C44.9649 111.772 43.6004 110.124 42.6745 108.196C42.6745 108.196 51.5148 115.447 68.7941 112.674Z" fill="#DD4C6A"/>
</g>
<g id="Man6_13">
<path id="Man6V_39" d="M110.025 110.238C110.145 113.44 119.885 115.54 128.161 114.299C136.156 113.138 140.397 107.802 139.909 101.224C139.421 94.6455 133.672 90.7822 124.983 92.65C115.481 94.7035 109.765 102.604 110.025 110.238Z" fill="url(#Man6paint22_linear)"/>
<path id="Man6V_40" d="M112.249 101.699C112.249 101.699 116.588 92.418 125.558 91.1186C134.529 89.8192 137.663 95.6432 137.663 95.6432C137.663 95.6432 121.393 89.4712 112.249 101.699Z" fill="#DD4C6A"/>
<path id="Man6V_41" d="M110.307 106.85C110.217 108.982 110.914 111.065 112.249 112.651C112.249 112.651 109.732 112.117 109.505 110.54C109.479 109.257 109.755 107.989 110.307 106.85Z" fill="#DD4C6A"/>
<g id="Man6_14">
<path id="Man6V_42" d="M114.875 108.441C112.973 103.499 115.177 97.8447 119.797 95.811C124.418 93.7772 129.705 96.1345 131.606 101.076C133.507 106.018 131.304 111.672 126.683 113.706C122.063 115.74 116.776 113.383 114.875 108.441Z" fill="url(#Man6paint23_linear)"/>
<path id="Man6V_43" d="M121.894 113.751C117.252 112.943 114.102 108.264 114.857 103.3C115.612 98.3351 119.987 94.9652 124.629 95.7729C129.27 96.5805 132.421 101.26 131.666 106.224C130.911 111.189 126.536 114.559 121.894 113.751Z" fill="url(#Man6paint24_linear)"/>
<path id="Man6V_44" style="mix-blend-mode:multiply" d="M128.769 104.75C128.769 105.918 128.445 107.06 127.838 108.031C127.232 109.002 126.369 109.759 125.361 110.206C124.352 110.653 123.242 110.77 122.171 110.542C121.1 110.314 120.116 109.752 119.344 108.926C118.572 108.1 118.046 107.048 117.833 105.902C117.62 104.757 117.729 103.57 118.147 102.491C118.565 101.412 119.272 100.489 120.18 99.8404C121.088 99.1915 122.156 98.8452 123.248 98.8452C124.712 98.8452 126.116 99.4674 127.152 100.575C128.187 101.682 128.769 103.184 128.769 104.75V104.75Z" fill="url(#Man6paint25_linear)"/>
</g>
<path id="Man6V_45" d="M129.604 102.755C129.062 103.231 131.6 103.347 133.487 102.616C135.179 101.966 136.004 100.91 135.841 100.713C133.614 100.683 131.434 101.396 129.604 102.755V102.755Z" fill="white"/>
<path id="Man6V_46" d="M128.172 103.231C127.446 102.987 126.61 103.358 126.578 103.73C126.545 104.101 127.435 104.565 127.847 104.414C128.259 104.263 128.563 103.37 128.172 103.231Z" fill="white"/>
<g id="Man6V_47" style="mix-blend-mode:multiply" opacity="0.6">
<path d="M110.752 105.087C110.752 105.087 122.38 91.9424 139.832 100.284L139.594 99.1237C139.594 99.1237 138.704 94.1931 126.501 94.1931C123.148 94.062 119.839 95.037 117.022 96.9857C114.204 98.9344 112.015 101.763 110.752 105.087V105.087Z" fill="#D177B8"/>
</g>
<path id="Man6V_48" d="M111.392 103.393C111.392 103.393 115.622 96.4322 125.558 95.7709C135.494 95.1096 139.562 99.2513 139.562 99.2513C139.642 98.2657 139.543 97.2728 139.269 96.3277C138.857 95.6432 118.801 87.1045 111.392 103.393Z" fill="#5B164A"/>
<path id="Man6V_49" d="M112.249 112.674C117.42 115.176 123.154 116.037 128.769 115.157C130.786 114.951 132.723 114.205 134.401 112.989C136.078 111.772 137.443 110.124 138.368 108.196C138.368 108.196 129.528 115.447 112.249 112.674Z" fill="#DD4C6A"/>
</g>
<g id="Man6_15">
<path id="Man6V_50" d="M148.151 89.4016C148.151 89.4016 143.638 84.761 139.094 84.645C137.906 84.6266 136.718 84.6808 135.536 84.8074C125.773 85.7587 107.908 90.2717 107.908 90.2717C107.908 90.2717 104.947 85.7123 105.273 83.8445L106.292 83.5776C106.292 83.5776 107.377 86.4548 108.049 86.8725L107.919 83.1368C107.919 83.1368 122.151 81.8606 131.37 81.0717L132.9 80.9325L135.839 80.6888C137.738 80.5264 138.953 80.4336 139.028 80.4452C139.408 80.4452 140.232 80.6772 140.33 80.7004L139.831 79.8883C143.278 82.2988 146.132 85.5619 148.151 89.4016Z" fill="url(#Man6paint26_linear)"/>
<g id="Man6V_51" style="mix-blend-mode:multiply" opacity="0.6">
<path d="M148.151 89.4016C148.151 89.4016 143.638 84.761 139.094 84.645C137.906 84.6266 136.718 84.6808 135.536 84.8074L131.37 81.0717L132.9 80.9325C135.406 81.1877 142.369 84.1693 142.369 84.1693C140.449 81.965 136.089 80.7584 135.861 80.6888C137.759 80.5264 138.974 80.4336 139.05 80.4452C139.43 80.4452 140.254 80.6772 140.352 80.7004L139.853 79.8883C143.292 82.3016 146.138 85.5645 148.151 89.4016Z" fill="#D177B8"/>
</g>
</g>
<g id="Man6_16">
<path id="Man6V_52" d="M32.923 89.4016C32.923 89.4016 37.4354 84.761 41.9803 84.645C43.1645 84.6264 44.3488 84.6806 45.5273 84.8074C55.2896 85.7587 73.1654 90.2717 73.1654 90.2717C73.1654 90.2717 76.1267 85.7123 75.8013 83.8445L74.7816 83.5776C74.7816 83.5776 73.6969 86.4548 73.0244 86.8725L73.1546 83.1368C73.1546 83.1368 58.9233 81.8606 49.7033 81.0717L48.1739 80.9325L45.2344 80.6888C43.3361 80.5264 42.1213 80.4336 42.0453 80.4452C41.6657 80.4452 40.8413 80.6772 40.7437 80.7004L41.2427 79.8883C37.7954 82.2988 34.9417 85.5619 32.923 89.4016V89.4016Z" fill="url(#Man6paint27_linear)"/>
<g id="Man6V_53" style="mix-blend-mode:multiply" opacity="0.6">
<path d="M32.923 89.4016C32.923 89.4016 37.4354 84.761 41.9803 84.645C43.1645 84.6264 44.3488 84.6806 45.5273 84.8074L49.7033 81.0717L48.1739 80.9325C45.6683 81.1877 38.7045 84.1693 38.7045 84.1693C40.6244 81.965 44.9849 80.7584 45.2127 80.6888C43.3145 80.5264 42.0996 80.4336 42.0237 80.4452C41.644 80.4452 40.8196 80.6772 40.722 80.7004L41.221 79.8883C37.7816 82.3016 34.9355 85.5645 32.923 89.4016V89.4016Z" fill="#D177B8"/>
</g>
</g>
<g id="Man6_17">
<g id="Man6V_54" style="mix-blend-mode:multiply" opacity="0.6">
<path d="M75.2264 174.72C78.9183 178.677 83.8957 180.959 89.1214 181.089C97.5929 181.089 104.752 174.754 104.752 174.754L75.2264 174.72Z" fill="#D177B8"/>
</g>
<path id="Man6V_55" d="M66.039 167.457C66.039 167.457 75.2481 178.641 90.0217 178.641C104.795 178.641 113.994 167.457 113.994 167.457C113.994 167.457 106.021 168.246 98.9813 169.29C92.425 170.37 85.7527 170.37 79.1964 169.29C72.7641 168.188 66.8742 167.747 66.039 167.457Z" fill="#EF7172"/>
<path id="Man6V_56" d="M104.958 168.153C93.2758 166.993 90.0217 168.838 90.0217 168.838C90.0217 168.838 87.1039 167.028 75.0854 168.153C71.3898 168.553 67.6579 168.029 64.1841 166.622C64.1841 166.622 65.5292 167.991 73.7621 168.768C79.259 169.352 84.7012 170.423 90.0326 171.97C95.3592 170.411 100.798 169.328 106.292 168.733C114.525 167.956 115.87 166.587 115.87 166.587C112.399 168.022 108.66 168.558 104.958 168.153Z" fill="#DD4C6A"/>
<path id="Man6V_57" d="M112.898 165.798C114.967 166.154 116.937 166.994 118.669 168.258C118.669 168.258 117.519 165.241 115.415 164.951C113.31 164.661 112.898 165.798 112.898 165.798Z" fill="#DD6B7C"/>
<path id="Man6V_58" d="M67.0694 165.798C65.0008 166.156 63.0309 166.996 61.2988 168.258C61.2988 168.258 62.4486 165.241 64.5529 164.951C66.6573 164.661 67.0694 165.798 67.0694 165.798Z" fill="#DD6B7C"/>
<g id="Man6V_59" style="mix-blend-mode:soft-light">
<path d="M97.0072 173.977L99.3284 176.077C99.3284 176.077 105.164 173.942 106.813 171.97L97.0072 173.977Z" fill="#FFCCB8"/>
</g>
</g>
</g>
</g>
</g>
<g id="Man6_18">
<g id="Man6_19">
<path id="Man6V_60" d="M161.202 30.4416C161.202 30.2653 161.202 30.1142 161.037 29.938L160.684 29.0567C160.605 28.8073 160.51 28.5635 160.402 28.3266C160.402 28.1756 160.402 28.0245 160.214 27.8483C159.308 25.1715 157.789 22.7817 155.794 20.8991C149.988 17.072 133.014 18.5576 133.014 18.5576C133.014 18.5576 151.187 9.14098 164.563 12.5652C164.563 12.5652 156.547 6.32107 148.436 7.27783C141.689 8.08353 134.331 16.1656 126.103 17.6763C124.492 17.966 122.847 17.966 121.236 17.6763V17.6763C120.112 17.3996 119.034 16.9412 118.039 16.3167C110.657 12.0616 98.5266 -0.149679 90.6747 0.0013892C81.5297 0.177635 69.399 7.25265 48.1939 14.2018C42.1671 16.1293 36.6229 19.4853 31.9727 24.0211V24.0211C21.5347 34.2686 15.7749 50.3322 13.424 69.6941C12.405 80.0466 13.2267 90.5122 15.8455 100.537C18.509 111.012 22.1068 121.189 26.5892 130.927L27.6471 133.168C27.6471 132.966 27.4355 131.758 27.1533 129.869C26.2835 123.625 24.5673 109.903 25.4606 101.721C25.8028 99.0132 26.5992 96.3945 27.8115 93.9908V93.9908C31.4789 86.4374 38.5552 79.4379 44.8321 71.3306C47.5122 67.8561 51.0855 63.2485 55.3641 58.5402C68.4821 56.3246 106.802 48.469 125.726 30.4164C131.947 33.6867 137.191 38.7533 140.866 45.0448C146.861 55.4937 148.507 79.3876 151.046 95.1994C153.585 111.011 154.29 121.813 154.29 121.813C160.901 108.236 165.29 93.5457 167.267 78.3805C168.607 62.1164 166.535 45.7371 161.202 30.4416V30.4416ZM90.5336 36.2829C82.7057 41.6163 74.6318 46.5238 66.3428 50.9868C63.9919 52.2961 61.3824 53.5046 58.914 54.688C67.5888 45.8505 78.5675 37.5922 90.5336 36.2829Z" fill="url(#Man6paint28_linear)"/>
<g id="Man6V_61" style="mix-blend-mode:multiply" opacity="0.6">
<path d="M30.7737 50.5839C24.6143 70.7263 27.7646 94.0663 27.7646 94.0663C26.5523 96.47 25.7559 99.0887 25.4137 101.796C24.5204 109.979 26.2365 123.701 27.1063 129.945L26.5421 131.002C22.0717 121.239 18.4896 111.036 15.8455 100.537C15.3518 94.016 14.9991 86.8151 14.8816 79.0602C14.3174 43.811 29.7393 26.0102 31.6435 23.9708C26.5736 31.3339 23.3009 39.9365 22.1224 48.9977C20.7578 60.5082 20.7578 72.1573 22.1224 83.6678C22.8528 65.8951 28.1043 48.6741 37.3092 33.8657C34.6219 39.1943 32.4327 44.7942 30.7737 50.5839Z" fill="#D177B8" fill-opacity="0.88"/>
</g>
<g id="Man6V_62" style="mix-blend-mode:multiply" opacity="0.6">
<path d="M160.214 27.8225C160.22 27.7725 160.22 27.722 160.214 27.6721V27.6721V27.8225Z" fill="#D177B8"/>
</g>
<g id="Man6V_63" style="mix-blend-mode:multiply" opacity="0.6">
<path d="M160.402 28.3267C160.509 28.5643 160.603 28.808 160.684 29.0568L160.402 28.3267Z" fill="#D177B8"/>
</g>
<g id="Man6V_64" style="mix-blend-mode:multiply" opacity="0.6">
<path d="M167.267 78.2798C165.29 93.445 160.901 108.135 154.29 121.712C154.29 121.712 153.608 110.91 151.046 95.0987C148.483 79.2869 146.861 55.393 140.866 44.9441C137.191 38.6526 131.947 33.586 125.726 30.3157C106.919 48.4186 68.4821 56.2239 55.3641 58.4395C51.0855 63.1478 47.5121 67.7553 44.8321 71.2299C38.5552 79.3876 31.4789 86.3367 27.8115 93.8901C28.6343 91.4982 42.6457 52.5227 63.075 40.0847C84.0685 27.244 105.767 14.7305 105.767 14.7305C97.9418 13.8551 90.045 14.0242 82.2584 15.2341C72.3846 17.3238 58.2792 26.3124 48.1704 36.2325C39.331 44.8937 33.1011 66.3202 31.7141 71.4817C33.3597 64.9858 41.5878 34.5456 51.6261 28.1001C62.8634 20.874 91.5914 -2.44087 100.76 5.2636C106.095 9.592 111.916 13.1869 118.086 15.9642C119.873 16.7699 121.095 17.2483 121.283 17.3238H126.197C125.994 18.4958 125.541 19.6015 124.872 20.5539C124.203 21.5063 123.336 22.2795 122.341 22.8127C119.191 24.0716 90.7215 36.1066 90.7215 36.1066C78.7555 37.3404 67.7769 45.6743 59.0786 54.537C61.4295 53.4039 64.0389 52.145 66.5073 50.8358L63.0045 53.3536C63.0045 53.3536 85.1735 51.5911 98.268 45.8002C111.362 40.0093 125.256 25.6578 125.256 25.6578C125.256 25.6578 137.34 30.0387 142.653 40.1099C147.966 50.1811 158.098 94.9979 158.098 94.9979C158.098 94.9979 163.2 51.0624 150.317 35.0743C143.264 26.4886 131.133 22.3343 129.488 21.9566C131.416 22.2084 148.577 24.8772 153.302 34.747C158.286 45.2462 164.469 86.3116 164.469 86.3116C168.286 67.5813 167.096 48.0781 161.037 30.0387C166.476 45.4124 168.605 61.9023 167.267 78.2798Z" fill="#D177B8"/>
</g>
<g id="Man6V_65" style="mix-blend-mode:multiply" opacity="0.6">
<path d="M30.9382 85.9339C30.9382 85.9339 37.9909 63.0974 46.0309 48.8215C50.3176 40.6693 56.5167 33.8565 64.0153 29.0568C50.4281 46.1627 39.2814 65.3298 30.9382 85.9339V85.9339Z" fill="#D177B8"/>
</g>
<g id="Man6V_66" style="mix-blend-mode:soft-light">
<path d="M139.926 34.0924C142.363 38.1336 144.464 42.3968 146.203 46.8325C146.203 46.8325 147.872 41.7969 151.398 40.4625C150.162 37.273 148.584 34.2481 146.696 31.4487C146.696 31.4487 142.911 33.1356 139.926 34.0924Z" fill="#FFD9BB"/>
</g>
<g id="Man6V_67" style="mix-blend-mode:soft-light">
<path d="M148.107 27.6721C151.131 29.9141 153.463 33.0695 154.807 36.7362C156.479 34.253 157.854 31.5546 158.898 28.7044C159.415 26.1866 155.653 21.151 155.653 21.151C155.653 21.151 151.093 19.0864 148.107 27.6721Z" fill="#FFD9BB"/>
</g>
<g id="Man6V_68" style="mix-blend-mode:soft-light">
<path d="M64.0154 39.128C65.7246 36.6713 67.2947 34.1069 68.7171 31.4487C69.7986 28.9309 64.0154 24.8018 64.0154 24.8018L70.5039 21.0251C70.5039 21.0251 74.8295 24.6507 74.7119 27.672C74.5944 30.6934 78.4028 30.1898 78.4028 30.1898L64.0154 39.128Z" fill="#FFD9BB"/>
</g>
<g id="Man6V_69" style="mix-blend-mode:soft-light">
<path d="M62.7459 20.4712C60.6767 18.7688 58.4181 17.348 56.0222 16.2412C53.3187 15.2845 54.6353 11.7847 54.6353 11.7847L58.5377 10.3495C59.1913 12.3149 60.3285 14.0547 61.829 15.3851C64.1799 17.3994 70.1982 15.3851 70.1982 15.3851L62.7459 20.4712Z" fill="#FFD9BB"/>
</g>
<g id="Man6V_70" style="mix-blend-mode:soft-light">
<path d="M78.4029 45.4981C83.1714 47.1066 88.2138 47.5623 93.1666 46.8325C97.3514 46.4126 101.303 44.5785 104.451 41.5954C104.451 41.5954 93.237 41.4192 90.1574 39.0776L78.4029 45.4981Z" fill="#FFD9BB"/>
</g>
</g>
</g>
</g>
<g id="Frame" clip-path="url(#clip0)">
<g id="Man6_20">
<g id="Man6_21">
<path id="Man6V_71" d="M133.911 107.57C131.012 107.184 128.091 106.994 125.166 107H124.238C118.305 107.074 111.154 107.932 105.342 109.93C96.2675 112.853 94.4445 113.282 89.5069 113.282C84.5694 113.282 82.78 112.826 73.6785 109.93C67.8665 107.919 60.7158 107.074 54.7827 107H53.8544C50.9299 106.994 48.0082 107.184 45.1094 107.57C37.0079 108.489 28.9637 109.854 21.0137 111.66V121.133C23.2874 121.133 24.135 122.83 25.4063 131.532C26.1934 139.122 29.2877 146.336 33.0077 149.159C36.7277 151.982 44.7394 154 52.4081 154C58.3614 154 66.6893 152.82 72.5215 147.208C77.3252 142.448 80.8845 136.587 82.8877 130.138V130.138C82.8877 130.098 82.8877 130.057 82.9213 130.017C83.1904 129.139 83.4191 128.281 83.594 127.436C85.5313 120.986 89.48 121.321 89.48 121.321C89.48 121.321 93.274 121.147 95.3728 127.436C95.5611 128.281 95.7966 129.139 96.0455 130.017C96.0455 130.057 96.0455 130.098 96.0791 130.138C98.0851 136.586 101.644 142.446 106.445 147.208C112.284 152.82 120.605 154 126.565 154C134.234 154 142.205 151.989 145.966 149.159C149.726 146.33 152.773 139.102 153.567 131.532C154.839 122.816 155.693 121.133 157.96 121.133V111.66C150.025 109.855 141.997 108.49 133.911 107.57V107.57Z" fill="#FF5E46"/>
<g id="Man6_22" style="mix-blend-mode:multiply">
<g id="Man6V_72" style="mix-blend-mode:multiply">
<path d="M87.4819 119.317C87.4819 119.317 83.5333 118.981 81.5959 125.431C81.4008 126.276 81.1721 127.134 80.9232 128.013C80.9232 128.053 80.9232 128.093 80.8896 128.133C78.8864 134.582 75.3271 140.444 70.5234 145.203C64.6912 150.815 56.3633 151.995 50.41 151.995C42.7615 151.995 34.8103 149.984 31.0433 147.175C31.6183 147.925 32.2849 148.6 33.0277 149.186C36.7813 152.036 44.7594 154.027 52.4281 154.027C58.3814 154.027 66.7093 152.847 72.5415 147.235C77.3452 142.475 80.9045 136.614 82.9076 130.165V130.165C82.9076 130.125 82.9077 130.084 82.9413 130.044C83.2104 129.166 83.4391 128.308 83.614 127.463C85.5513 121.013 89.5 121.348 89.5 121.348C90.3058 121.383 91.085 121.646 91.7468 122.106C89.7489 119.223 87.4819 119.317 87.4819 119.317Z" fill="#FF5E46"/>
</g>
<g id="Man6V_73" style="mix-blend-mode:multiply">
<path d="M21 120.074V121.134C21.2028 121.131 21.4054 121.147 21.6054 121.18C21.4504 120.788 21.247 120.417 21 120.074V120.074Z" fill="#FF5E46"/>
</g>
<g id="Man6V_74" style="mix-blend-mode:multiply">
<path d="M156.009 111.211V119.122C153.742 119.122 152.888 120.818 151.616 129.521C150.822 137.111 147.735 144.325 144.015 147.148C140.295 149.97 132.283 151.989 124.614 151.989C118.816 151.989 110.791 150.856 104.985 145.626C105.476 146.169 105.988 146.699 106.512 147.208C112.351 152.82 120.672 154 126.632 154C134.301 154 142.273 151.989 146.033 149.159C149.793 146.33 152.84 139.102 153.634 131.533C154.906 122.816 155.76 121.134 158.027 121.134V111.66C158.027 111.66 157.267 111.485 156.009 111.211Z" fill="#FF5E46"/>
</g>
</g>
<path id="Man6V_75" d="M32.3079 117.01C26.5766 125.056 30.5657 141.985 35.5772 145.78C40.5887 149.575 60.3053 153.055 69.5615 144.151C78.8177 135.247 82.087 120.798 78.8244 117.553C71.5258 110.279 41.0798 108.274 32.3079 117.01Z" fill="#42C5ED"/>
<g id="Man6_23">
<g id="Man6V_76" style="mix-blend-mode:overlay">
<path d="M42.5193 112.33L29.5768 125.559C29.29 130.028 29.8912 134.51 31.346 138.747L58.1392 111.412C52.9147 111.029 47.6625 111.338 42.5193 112.33V112.33Z" fill="white"/>
</g>
<g id="Man6V_77" style="mix-blend-mode:overlay">
<path d="M62.7135 111.821L32.9066 142.307C33.5508 143.639 34.4674 144.822 35.5974 145.78C35.8373 145.958 36.0865 146.124 36.3441 146.276L68.9426 112.974C66.8902 112.471 64.8104 112.086 62.7135 111.821V111.821Z" fill="white"/>
</g>
<g id="Man6V_78" style="mix-blend-mode:overlay">
<path d="M63.0902 148.053L76.7794 134.06C78.485 130.685 79.5739 127.035 79.9949 123.279L54.1233 149.716C57.1793 149.616 60.2026 149.055 63.0902 148.053V148.053Z" fill="white"/>
</g>
</g>
<path id="Man6V_79" d="M26.8524 116.152C26.8524 116.822 25.9107 117.359 24.7536 117.359C23.5966 117.359 22.6481 116.822 22.6481 116.152C22.6481 115.481 23.5899 114.952 24.7536 114.952C25.9174 114.952 26.8524 115.488 26.8524 116.152Z" fill="#FFE274"/>
<path id="Man6V_80" d="M146.699 117.01C152.43 125.056 148.441 141.985 143.43 145.78C138.418 149.575 118.701 153.055 109.445 144.151C100.189 135.247 96.913 120.798 100.176 117.553C107.481 110.279 137.927 108.274 146.699 117.01Z" fill="#42C5ED"/>
<g id="Man6_24">
<g id="Man6V_81" style="mix-blend-mode:overlay">
<path d="M112.688 112.397L99.4087 125.968C100.228 129.744 101.647 133.365 103.613 136.695L128.429 111.325C123.158 111.063 117.874 111.423 112.688 112.397V112.397Z" fill="white"/>
</g>
<g id="Man6V_82" style="mix-blend-mode:overlay">
<path d="M139.131 113.007C137.131 112.429 135.089 112.005 133.023 111.74L105.618 139.739C106.65 141.167 107.792 142.512 109.035 143.762L139.131 113.007Z" fill="white"/>
</g>
<g id="Man6V_83" style="mix-blend-mode:overlay">
<path d="M149.282 124.238L124.392 149.716C126.936 149.853 129.487 149.758 132.014 149.434L149.282 131.774C149.598 129.272 149.598 126.74 149.282 124.238Z" fill="white"/>
</g>
</g>
<path id="Man6V_84" d="M152.127 116.152C152.127 116.822 153.069 117.359 154.233 117.359C155.397 117.359 156.338 116.822 156.338 116.152C156.338 115.481 155.397 114.952 154.233 114.952C153.069 114.952 152.127 115.488 152.127 116.152Z" fill="#FFE274"/>
<g id="Man6V_85" style="mix-blend-mode:multiply" opacity="0.3">
<path d="M32.3079 123.715C41.0529 114.999 71.5257 117.01 78.8244 124.258C79.2051 124.671 79.4878 125.163 79.6518 125.699C80.385 121.918 80.1227 118.847 78.8244 117.553C71.5257 110.279 41.0798 108.274 32.3079 117.01C29.7382 120.611 29.1261 126.001 29.6844 131.197C29.9265 128.526 30.8277 125.955 32.3079 123.715V123.715Z" fill="#31AFB4"/>
</g>
<g id="Man6V_86" style="mix-blend-mode:multiply" opacity="0.3">
<path d="M100.176 124.258C107.474 116.983 137.92 114.979 146.692 123.715C148.172 125.955 149.073 128.526 149.316 131.197C149.874 126.001 149.262 120.611 146.692 117.01C137.947 108.294 107.474 110.305 100.176 117.553C98.8773 118.847 98.6149 121.918 99.3482 125.699C99.5121 125.163 99.7949 124.671 100.176 124.258Z" fill="#31AFB4"/>
</g>
</g>
</g>
</g>
</g>
<defs>
<linearGradient id="Man6paint0_linear" x1="90.9918" y1="258.606" x2="90.9918" y2="172" gradientUnits="userSpaceOnUse">
<stop stop-color="#FFB39D"/>
<stop offset="0.23" stop-color="#FF9B8E"/>
<stop offset="0.48" stop-color="#FF8781"/>
<stop offset="0.74" stop-color="#FF7B7A"/>
<stop offset="1" stop-color="#FF7777"/>
</linearGradient>
<linearGradient id="Man6paint1_linear" x1="110.201" y1="238.373" x2="110.201" y2="183.393" gradientUnits="userSpaceOnUse">
<stop stop-color="#FFEADB"/>
<stop offset="0.99" stop-color="#D177F4"/>
</linearGradient>
<linearGradient id="Man6paint2_linear" x1="12038.8" y1="7506.65" x2="12038.8" y2="7128.66" gradientUnits="userSpaceOnUse">
<stop stop-color="#FFEADB"/>
<stop offset="0.99" stop-color="#D177F4"/>
</linearGradient>
<linearGradient id="Man6paint3_linear" x1="8542.47" y1="7992.98" x2="8542.47" y2="7562.63" gradientUnits="userSpaceOnUse">
<stop stop-color="#FFEADB"/>
<stop offset="0.99" stop-color="#D177F4"/>
</linearGradient>
<linearGradient id="Man6paint4_linear" x1="162.035" y1="158.605" x2="162.035" y2="106.85" gradientUnits="userSpaceOnUse">
<stop stop-color="#F36B7C"/>
<stop offset="0.42" stop-color="#FB7379"/>
<stop offset="1" stop-color="#FF7777"/>
</linearGradient>
<linearGradient id="Man6paint5_linear" x1="8206.78" y1="6521.84" x2="8206.78" y2="5901.12" gradientUnits="userSpaceOnUse">
<stop stop-color="#FFEADB"/>
<stop offset="0.99" stop-color="#D177F4"/>
</linearGradient>
<linearGradient id="Man6paint6_linear" x1="4361.85" y1="5083.74" x2="4361.85" y2="4710.07" gradientUnits="userSpaceOnUse">
<stop stop-color="#FFEADB"/>
<stop offset="0.99" stop-color="#D177F4"/>
</linearGradient>
<linearGradient id="Man6paint7_linear" x1="2594.77" y1="13163.1" x2="2594.77" y2="10854.3" gradientUnits="userSpaceOnUse">
<stop stop-color="#F36B7C"/>
<stop offset="0.42" stop-color="#FB7379"/>
<stop offset="1" stop-color="#FF7777"/>
</linearGradient>
<linearGradient id="Man6paint8_linear" x1="1924.98" y1="6521.84" x2="1924.98" y2="5901.12" gradientUnits="userSpaceOnUse">
<stop stop-color="#FFEADB"/>
<stop offset="0.99" stop-color="#D177F4"/>
</linearGradient>
<linearGradient id="Man6paint9_linear" x1="863.283" y1="5083.74" x2="863.283" y2="4710.07" gradientUnits="userSpaceOnUse">
<stop stop-color="#FFEADB"/>
<stop offset="0.99" stop-color="#D177F4"/>
</linearGradient>
<linearGradient id="Man6paint10_linear" x1="89.3926" y1="209.022" x2="89.3926" y2="10.0699" gradientUnits="userSpaceOnUse">
<stop stop-color="#D58F9D"/>
<stop offset="0.28" stop-color="#EBA09B"/>
<stop offset="0.51" stop-color="#F9AB99"/>
<stop offset="0.61" stop-color="#FBA38F"/>
<stop offset="0.81" stop-color="#FE9983"/>
<stop offset="1" stop-color="#FF967F"/>
</linearGradient>
<linearGradient id="Man6paint11_linear" x1="20605.8" y1="48407.2" x2="20605.8" y2="24458.4" gradientUnits="userSpaceOnUse">
<stop stop-color="#FFEADB" stop-opacity="0.24"/>
<stop offset="0.99" stop-color="#D177F4"/>
</linearGradient>
<linearGradient id="Man6paint12_linear" x1="-16339.4" y1="48394.2" x2="-16339.4" y2="24451.8" gradientUnits="userSpaceOnUse">
<stop stop-color="#FFEADB"/>
<stop offset="0.99" stop-color="#D177F4"/>
</linearGradient>
<linearGradient id="Man6paint13_linear" x1="88.9479" y1="153.442" x2="88.9479" y2="131.144" gradientUnits="userSpaceOnUse">
<stop stop-color="#F97A7E"/>
<stop offset="0.08" stop-color="#FA7D7E"/>
<stop offset="0.54" stop-color="#FE897F"/>
<stop offset="1" stop-color="#FF8D7F"/>
</linearGradient>
<linearGradient id="Man6paint14_linear" x1="96.4323" y1="150.182" x2="103.754" y2="150.182" gradientUnits="userSpaceOnUse">
<stop offset="0.02" stop-color="#7C51B3"/>
<stop offset="0.99" stop-color="#BD89C4"/>
</linearGradient>
<linearGradient id="Man6paint15_linear" x1="2437.11" y1="710.124" x2="2483.08" y2="710.124" gradientUnits="userSpaceOnUse">
<stop offset="0.02" stop-color="#7C51B3"/>
<stop offset="0.99" stop-color="#BD89C4"/>
</linearGradient>
<linearGradient id="Man6paint16_linear" x1="1276.28" y1="3723.34" x2="1276.28" y2="3535.33" gradientUnits="userSpaceOnUse">
<stop stop-color="#FFEADB"/>
<stop offset="0.99" stop-color="#D177F4"/>
</linearGradient>
<linearGradient id="Man6paint17_linear" x1="-435.392" y1="3723.34" x2="-435.392" y2="3535.33" gradientUnits="userSpaceOnUse">
<stop stop-color="#FFEADB"/>
<stop offset="0.99" stop-color="#D177F4"/>
</linearGradient>
<linearGradient id="Man6paint18_linear" x1="56.0597" y1="114.658" x2="56.0597" y2="92.186" gradientUnits="userSpaceOnUse">
<stop stop-color="#EEE2FF"/>
<stop offset="1" stop-color="#BDC9FB"/>
</linearGradient>
<linearGradient id="Man6paint19_linear" x1="59.0492" y1="113.568" x2="59.0231" y2="94.317" gradientUnits="userSpaceOnUse">
<stop stop-color="#A93749"/>
<stop offset="1" stop-color="#751540"/>
</linearGradient>
<linearGradient id="Man6paint20_linear" x1="57.447" y1="114.814" x2="57.4267" y2="96.5474" gradientUnits="userSpaceOnUse">
<stop stop-color="#FE6E49"/>
<stop offset="1" stop-color="#751540"/>
</linearGradient>
<linearGradient id="Man6paint21_linear" x1="57.7952" y1="110.667" x2="57.7952" y2="98.8452" gradientUnits="userSpaceOnUse">
<stop stop-color="#A79ABD"/>
<stop offset="0.99" stop-color="#724A60"/>
</linearGradient>
<linearGradient id="Man6paint22_linear" x1="124.983" y1="114.658" x2="124.983" y2="92.186" gradientUnits="userSpaceOnUse">
<stop stop-color="#EEE2FF"/>
<stop offset="1" stop-color="#BDC9FB"/>
</linearGradient>
<linearGradient id="Man6paint23_linear" x1="121.994" y1="113.568" x2="122.02" y2="94.317" gradientUnits="userSpaceOnUse">
<stop stop-color="#A93749"/>
<stop offset="1" stop-color="#751540"/>
</linearGradient>
<linearGradient id="Man6paint24_linear" x1="123.596" y1="114.814" x2="123.616" y2="96.5474" gradientUnits="userSpaceOnUse">
<stop stop-color="#FE6E49"/>
<stop offset="1" stop-color="#751540"/>
</linearGradient>
<linearGradient id="Man6paint25_linear" x1="123.248" y1="110.667" x2="123.248" y2="98.8452" gradientUnits="userSpaceOnUse">
<stop stop-color="#A79ABD"/>
<stop offset="0.99" stop-color="#724A60"/>
</linearGradient>
<linearGradient id="Man6paint26_linear" x1="105.24" y1="85.0858" x2="148.151" y2="85.0858" gradientUnits="userSpaceOnUse">
<stop stop-color="#70253B"/>
<stop offset="1" stop-color="#4D0E2E"/>
</linearGradient>
<linearGradient id="Man6paint27_linear" x1="-13082.1" y1="2041.32" x2="-14778.9" y2="2041.32" gradientUnits="userSpaceOnUse">
<stop stop-color="#70253B"/>
<stop offset="1" stop-color="#4D0E2E"/>
</linearGradient>
<linearGradient id="Man6paint28_linear" x1="90.2044" y1="133.243" x2="90.2044" y2="-0.174856" gradientUnits="userSpaceOnUse">
<stop stop-color="#A84051"/>
<stop offset="1" stop-color="#BF5E4B"/>
</linearGradient>
<clipPath id="clip0">
<rect width="137" height="47" fill="white" transform="translate(21 107)"/>
</clipPath>
</defs>
</svg>
