<svg width="224" height="289" viewBox="0 0 224 289" fill="none" xmlns="http://www.w3.org/2000/svg">
<g id="Man-4">
<g id="Man-4_2">
<g id="Man-4_3">
<g id="Man-4_4">
<g id="Man-4_5">
<g id="Man-4_6">
<path id="Man-4_V" d="M61.9839 193.392C61.9839 193.392 60.7543 249.277 59.5985 254.454C58.4427 259.631 0 288.649 0 288.649H223.307C223.307 288.649 159.774 262.459 158.065 256.458C156.355 250.458 157.868 194.856 157.868 194.856L61.9839 193.392Z" fill="url(#PaintMan30_linear)"/>
<path id="Man-4_V_2" d="M59.8198 252.941C59.8198 252.941 55.1596 252.302 54.6555 252.941C54.1514 253.581 54.6555 257.86 54.6555 257.86L0 288.599H223.307L164.286 259.298C164.286 259.298 162.257 252.781 158.015 256.409L159.466 258.868C159.466 258.868 139.694 283.583 106.717 283.583C73.7389 283.583 59.8198 252.941 59.8198 252.941Z" fill="#DB2E2E"/>
<g id="Man-4_V_3" style="mix-blend-mode:multiply" opacity="0.6">
<path d="M61.6519 217.799C61.6519 217.799 72.6568 221.402 75.3251 226.96C77.9933 232.518 95.0969 274.262 108.61 274.914C122.123 275.566 130.866 253.372 137.715 248.269C144.564 243.166 156.97 242.785 156.97 242.785L157.868 194.831L61.9593 193.367L61.6519 217.799Z" fill="#B42F97"/>
</g>
<path id="Man-4_V_4" style="mix-blend-mode:multiply" opacity="0.6" d="M127.153 214.652L122.763 267.204C122.763 267.204 131.149 256.237 135.428 248.244C139.707 240.252 147.724 201.52 147.724 201.52L127.153 214.652Z" fill="url(#PaintMan31_linear)"/>
<path id="Man-4_V_5" style="mix-blend-mode:multiply" opacity="0.6" d="M164.335 259.347C164.335 259.347 149.998 274.447 135.231 281.554C135.231 281.554 164.544 270.66 172.746 263.528L164.335 259.347Z" fill="url(#PaintMan32_linear)"/>
<path id="Man-4_V_6" style="mix-blend-mode:multiply" opacity="0.6" d="M54.6555 257.86C62.1906 266.417 70.4155 274.342 79.2474 281.554C66.8846 277.361 55.2643 271.235 44.8188 263.405L54.6555 257.86Z" fill="url(#PaintMan33_linear)"/>
<g id="Man-4_V_7" style="mix-blend-mode:multiply" opacity="0.6">
<path d="M68.427 265.594C79.4929 275.98 94.1347 281.705 109.311 281.578C135.231 281.578 150.933 267.229 150.933 267.229C150.933 267.229 133.079 283.644 106.766 283.644C80.4524 283.644 68.427 265.594 68.427 265.594Z" fill="#B42F97"/>
</g>
</g>
<g id="Man-4_7">
<path id="Man-4_V_8" d="M170.84 123.883C170.84 123.883 176.914 111.427 181.033 111.452C183.493 111.452 189.641 118.559 189.53 125.321C189.432 134.371 183.48 144.663 181.992 149.913C180.505 155.164 176.656 162.074 174.111 162.738C171.566 163.402 168.221 156.885 168.221 156.885C168.221 156.885 169.463 132.084 170.84 123.883Z" fill="url(#PaintMan34_linear)"/>
<path id="Man-4_V_9" style="mix-blend-mode:multiply" opacity="0.6" d="M171.332 137.126C171.332 137.126 181.304 120.551 184.931 120.551C188.559 120.551 188.62 129.982 187.095 135.367C186.087 139.056 184.107 144.479 184.107 144.479C184.997 141.169 185.586 137.786 185.866 134.371C186.149 127.707 185.054 122.875 183.8 122.887C181.501 122.887 179.693 127.129 179.41 128.629C179.128 130.129 181.23 136.695 180.64 141.269C180.05 145.843 178.045 147.589 177.369 147.098C176.693 146.606 177.738 141.441 177.123 139.609C176.508 137.777 174.664 135.109 173.656 135.699C172.648 136.289 171.332 137.126 171.332 137.126Z" fill="url(#PaintMan35_linear)"/>
<path id="Man-4_V_10" style="mix-blend-mode:multiply" opacity="0.6" d="M171.332 137.126C171.332 137.126 173.791 135.158 174.541 135.785C175.291 136.412 177.185 138.712 177.271 140.163C177.357 141.614 176.656 145.72 177.271 146.434C177.886 147.147 180.037 142.511 180.136 138.417C180.234 134.322 178.525 129.6 178.525 129.035C178.525 128.469 178.919 125.862 178.919 125.862C178.919 125.862 173.078 133.24 171.332 137.126Z" fill="url(#PaintMan36_linear)"/>
</g>
<g id="Man-4_8">
<path id="Man-4_V_11" d="M53.8194 124.203C53.8194 124.203 46.5402 111.907 41.5849 111.907C38.5847 111.907 31.3178 118.94 31.4039 125.653C31.5146 134.629 38.6585 144.835 40.4414 150.073C42.2243 155.311 46.8353 162.123 49.897 162.787C52.9587 163.451 56.9672 156.984 56.9672 156.984C56.9672 156.984 55.4671 132.342 53.8194 124.203Z" fill="url(#PaintMan37_linear)"/>
<path id="Man-4_V_12" style="mix-blend-mode:multiply" opacity="0.6" d="M53.2907 137.347C53.2907 137.347 41.3144 120.895 36.9616 120.895C32.6089 120.895 32.6088 130.252 34.3672 135.589C35.5968 139.277 37.9576 144.626 37.9576 144.626C36.9005 141.37 36.1956 138.011 35.855 134.605C35.5107 128.002 36.8264 123.194 38.3142 123.207C41.0685 123.207 43.2326 127.424 43.5769 128.9C43.9212 130.375 41.4005 136.904 42.0768 141.454C42.753 146.003 45.1876 147.725 46.0114 147.221C46.8353 146.716 45.5565 141.614 46.3066 139.843C47.0566 138.072 49.1961 135.392 50.4626 135.97C51.7291 136.548 53.2907 137.347 53.2907 137.347Z" fill="url(#PaintMan38_linear)"/>
<path id="Man-4_V_13" style="mix-blend-mode:multiply" opacity="0.6" d="M53.2907 137.347C53.2907 137.347 50.3397 135.38 49.4421 136.007C48.5445 136.634 46.2697 138.908 46.1713 140.347C46.073 141.786 46.8968 145.856 46.1713 146.569C45.4459 147.282 42.8391 142.683 42.7285 138.613C42.6178 134.543 44.6835 129.871 44.6835 129.268C44.6835 128.666 44.204 126.108 44.204 126.108C44.204 126.108 51.1389 133.486 53.2907 137.347Z" fill="url(#PaintMan39_linear)"/>
</g>
<g id="Man-4_9">
<path id="Man-4_V_14" d="M172.746 82.0028C172.746 96.7579 172.18 111.673 171.713 117.796C170.742 130.191 168.713 141.737 168.233 154.684C167.754 167.632 166.475 178.047 165.122 182.965C164.28 186.028 163.14 189.002 161.716 191.843L161.471 192.334C160.391 194.427 159.183 196.452 157.856 198.396C155.933 201.211 153.808 203.882 151.498 206.389C143.269 215.06 133.607 222.248 122.935 227.636C117.918 230.095 103.864 229.948 98.8472 227.513C97.2487 226.738 82.26 221.009 70.0993 208.836C66.675 205.446 63.6772 201.651 61.1724 197.536C59.7364 195.185 58.5024 192.717 57.4836 190.158C56.5747 187.836 55.8471 185.448 55.3072 183.014C54.2129 177.96 49.6879 130.203 48.7411 117.845C48.3108 112.202 47.819 99.0696 47.7083 85.5071C47.5853 69.2887 48.0034 52.431 49.688 47.0576C52.8111 37.2209 89.6375 10.7231 110.209 10.7231C124.644 10.7231 147.097 23.7691 160.266 34.9584C165.872 39.717 169.783 44.1312 170.717 47.0576C172.156 51.6194 172.672 64.4564 172.709 78.1664C172.746 79.396 172.746 80.6994 172.746 82.0028Z" fill="url(#PaintMan310_linear)"/>
<path id="Man-4_V_15" style="mix-blend-mode:multiply" opacity="0.6" d="M172.746 82.0027C172.746 96.7579 172.18 111.673 171.713 117.796C170.742 130.191 168.713 141.737 168.233 154.684C167.754 167.632 166.475 178.046 165.122 182.965C164.28 186.028 163.14 189.002 161.716 191.843L161.471 192.334C160.391 194.427 159.183 196.452 157.855 198.396C155.933 201.211 153.808 203.882 151.498 206.389C154.253 198.187 157.646 166.722 160.032 155.901C162.491 144.601 165.467 129.453 165.467 129.453C164.766 122.997 160.29 122.997 160.29 122.997C146.383 132.392 126.12 124.621 126.12 124.621C123.66 110.357 124.533 85.6546 124.533 85.6546L125.074 80.81L162.725 78.5599C162.725 78.5599 159.38 68.6493 159.675 62.5751C159.97 56.5009 161.778 40.4424 160.29 36.1511C165.897 41.1433 169.807 45.7912 170.742 48.8651C172.07 53.2794 172.611 65.0466 172.734 78.1172C172.746 79.396 172.746 80.6994 172.746 82.0027Z" fill="url(#PaintMan311_linear)"/>
<path id="Man-4_V_16" style="mix-blend-mode:multiply" opacity="0.6" d="M94.3715 124.657C94.3715 124.657 74.1077 132.428 60.201 123.034C60.201 123.034 55.7253 123.034 55.0244 129.49C55.0244 129.49 58.0123 144.638 60.4592 155.938C62.9061 167.238 66.5334 200.991 69.3492 207.36C69.5582 207.827 69.8164 208.319 70.0992 208.836C66.675 205.446 63.6772 201.651 61.1724 197.536C59.7364 195.185 58.5024 192.717 57.4836 190.158C56.5747 187.836 55.8471 185.448 55.3072 183.014C54.2129 177.96 49.6879 130.203 48.7411 117.845C48.3108 112.202 47.8189 99.0696 47.7083 85.5071C47.7083 69.6945 48.151 54.1401 49.7248 48.9143C50.6593 45.8403 54.5694 41.1925 60.1764 36.2003C58.6886 40.4793 60.4715 56.5624 60.7912 62.6243C61.1109 68.6862 57.7418 78.6091 57.7418 78.6091L95.3797 80.8961L95.933 85.7407C95.933 85.7407 96.8061 110.394 94.3715 124.657Z" fill="url(#PaintMan312_linear)"/>
<g id="Man-4_V_17" style="mix-blend-mode:multiply" opacity="0.6">
<path d="M162.048 191.523C161.852 191.793 161.655 192.076 161.471 192.371C160.241 194.142 159.011 196.22 157.855 198.433C145.51 216.656 124.251 227.009 122.935 227.636C117.918 230.095 103.864 229.948 98.8472 227.513C96.806 226.529 73.1732 217.541 61.1724 197.536C59.9428 194.917 58.7132 192.42 57.4836 190.158C57.9262 190.711 64.1357 198.507 71.3288 205.897C78.7925 213.557 91.3589 225.988 110.381 225.988C129.403 225.988 143.457 210.717 146.42 208.036C149.088 205.651 159.614 194.08 161.667 191.855L162.048 191.523Z" fill="#CB4397"/>
</g>
<path id="Man-4_V_18" style="mix-blend-mode:multiply" opacity="0.5" d="M165.467 129.49C165.467 129.49 159.528 151.979 157.573 168.099C155.618 184.219 153.257 198.839 153.257 198.839C153.257 198.839 162.221 173.878 163.438 161.951C164.655 150.024 165.467 129.49 165.467 129.49Z" fill="url(#PaintMan313_linear)"/>
<path id="Man-4_V_19" style="mix-blend-mode:multiply" opacity="0.5" d="M54.5203 129.49C54.5203 129.49 60.4715 151.979 62.4266 168.099C64.3816 184.219 66.7301 198.839 66.7301 198.839C66.7301 198.839 59.3526 173.878 58.123 161.951C56.8934 150.024 54.5203 129.49 54.5203 129.49Z" fill="url(#PaintMan314_linear)"/>
</g>
</g>
<g id="Man-4_10">
<g id="Man-4_11">
<path id="Man-4_V_20" d="M98.1095 158.877C98.1095 158.877 94.5805 131.101 111.254 131.101C127.927 131.101 125.148 158.336 125.148 158.336L124.398 158.877C122.793 160.805 120.784 162.356 118.512 163.421C116.24 164.485 113.763 165.037 111.254 165.037C108.745 165.037 106.267 164.485 103.996 163.421C101.724 162.356 99.7146 160.805 98.1095 158.877Z" fill="url(#PaintMan315_linear)"/>
<g id="Man-4_V_21" style="mix-blend-mode:multiply" opacity="0.6">
<path d="M111.254 156.701C102.536 156.701 98.1095 158.877 98.1095 158.877C102.573 158.619 106.163 164.964 111.254 165.025C116.344 165.087 119.935 158.607 124.398 158.877C120.194 157.328 115.733 156.589 111.254 156.701Z" fill="#B42F97"/>
</g>
<path id="Man-4_V_22" style="mix-blend-mode:multiply" opacity="0.5" d="M118.053 161.853C118.053 161.853 120.304 156.688 124.398 158.877L118.053 161.853Z" fill="url(#PaintMan316_linear)"/>
<path id="Man-4_V_23" style="mix-blend-mode:multiply" opacity="0.5" d="M98.1095 158.877C98.1095 158.877 100.741 156.098 104.257 161.681L98.1095 158.877Z" fill="url(#PaintMan317_linear)"/>
<g id="Man-4_V_24" style="mix-blend-mode:multiply" opacity="0.6">
<path d="M99.794 139.339C99.794 139.339 95.9699 146.471 97.8143 158.336C97.9904 151.963 98.6522 145.612 99.794 139.339Z" fill="#B42F97"/>
</g>
<g id="Man-4_V_25" style="mix-blend-mode:multiply" opacity="0.6">
<path d="M123.156 139.339C123.156 139.339 126.98 146.471 125.148 158.336C124.965 151.963 124.299 145.612 123.156 139.339Z" fill="#B42F97"/>
</g>
<path id="Man-4_V_26" d="M116.922 152.053C116.861 150.467 117.783 148.671 118.496 148.844C119.209 149.016 118.84 152.446 118.496 153.11C118.152 153.774 116.922 152.053 116.922 152.053Z" fill="#FFCCB8"/>
</g>
<path id="Man-4_V_27" style="mix-blend-mode:multiply" opacity="0.6" d="M99.794 139.339C99.794 139.339 101.024 143.446 102.315 156.701C102.315 156.701 104.221 144.245 101.085 134.224L99.794 139.339Z" fill="url(#PaintMan318_linear)"/>
<path id="Man-4_V_28" style="mix-blend-mode:multiply" opacity="0.6" d="M123.156 139.339C123.156 139.339 121.927 143.446 120.697 156.701C120.697 156.701 118.779 144.245 121.927 134.224L123.156 139.339Z" fill="url(#PaintMan319_linear)"/>
</g>
<g id="Man-4_12">
<path id="Man-4_V_29" d="M173.029 101.627C173.029 101.627 166.979 95.2578 160.905 95.0611C159.315 95.0404 157.726 95.1185 156.146 95.2947C143.051 96.5981 119.123 102.832 119.123 102.832C119.123 102.832 115.176 96.5366 115.607 93.9667L116.971 93.5855C116.971 93.5855 118.398 97.5694 119.32 98.135L119.148 92.9953C119.148 92.9953 138.219 91.2247 150.552 90.1304L152.605 89.9459L156.54 89.6017C159.073 89.3803 160.696 89.2574 160.807 89.2697C161.311 89.3557 162.417 89.5894 162.553 89.614L161.876 88.5073C166.592 91.9227 170.417 96.4226 173.029 101.627Z" fill="url(#PaintMan320_linear)"/>
<g id="Man-4_V_30" style="mix-blend-mode:multiply" opacity="0.6">
<path d="M173.029 101.627C173.029 101.627 166.979 95.2578 160.905 95.0611C159.315 95.0404 157.726 95.1185 156.146 95.2947L150.552 90.1304L152.605 89.9459C155.962 90.3025 165.295 94.4094 165.295 94.4094C162.712 91.36 156.884 89.7 156.552 89.6017C159.085 89.3803 160.708 89.2574 160.819 89.2697C161.323 89.3557 162.43 89.5894 162.565 89.614L161.889 88.5073C166.6 91.9242 170.421 96.424 173.029 101.627Z" fill="#B42F97"/>
</g>
</g>
<g id="Man-4_13">
<path id="Man-4_V_31" d="M49.2699 101.898C49.2699 101.898 55.3072 95.2455 61.3814 95.0365C62.9753 95.0147 64.569 95.0968 66.1523 95.2824C79.2352 96.6473 103.163 103.152 103.163 103.152C103.163 103.152 107.122 96.5735 106.692 93.8807L105.315 93.4995C105.315 93.4995 103.901 97.6555 102.966 98.2457L103.139 92.8724C103.139 92.8724 84.0306 91.028 71.7346 89.9214L69.6935 89.7246L65.7588 89.3681C63.2135 89.1344 61.5905 89.0115 61.4921 89.0238C60.9757 89.1098 59.8813 89.3557 59.7461 89.3803L60.4101 88.2245C55.6532 91.8221 51.8322 96.512 49.2699 101.898Z" fill="url(#PaintMan321_linear)"/>
<g id="Man-4_V_32" style="mix-blend-mode:multiply" opacity="0.6">
<path d="M49.2699 101.898C49.2699 101.898 55.3072 95.2455 61.3814 95.0365C62.9753 95.0147 64.569 95.0968 66.1523 95.2824L71.7346 89.9214L69.6935 89.7246C66.3367 90.0935 57.0041 94.3971 57.0041 94.3971C59.5739 91.2124 65.4145 89.4787 65.7465 89.3681C63.2012 89.1344 61.5782 89.0115 61.4798 89.0238C60.9634 89.1098 59.869 89.3557 59.7338 89.3803L60.3978 88.2245C55.6454 91.8236 51.8287 96.5133 49.2699 101.898Z" fill="#B42F97"/>
</g>
</g>
<g id="Man-4_14">
<g id="Man-4_V_33" style="mix-blend-mode:multiply" opacity="0.6">
<path d="M83.1945 182.745C83.1945 182.745 94.7649 199 111.045 199C127.325 199 139.768 182.235 139.768 182.235L83.1945 182.745Z" fill="#B42F97"/>
</g>
<path id="Man-4_V_34" d="M78.731 177.633C78.731 177.633 90.1171 194.386 110.073 194.386C130.03 194.386 144.564 177.633 144.564 177.633C144.564 177.633 123.66 182.832 109.385 182.832C95.1092 182.832 78.731 177.633 78.731 177.633Z" fill="#EF7172"/>
<path id="Man-4_V_35" d="M111.647 175.867C99.3513 170.892 91.3221 184.063 79.186 176.638C79.186 176.638 76.9973 182.856 111.647 182.856V175.867Z" fill="#DD5656"/>
<path id="Man-4_V_36" d="M111.647 175.867C125.652 169.138 130.915 183.329 143.039 175.867C143.039 175.867 146.31 182.819 111.647 182.819V175.867Z" fill="#DD5656"/>
<path id="Man-4_V_37" d="M77.526 176.762C78.162 176.343 78.8953 176.098 79.6532 176.053C80.4525 176.165 86.3914 182.832 111.623 182.832C136.854 182.832 141.994 175.63 143.014 175.879C143.943 176.126 144.858 176.421 145.756 176.762C145.756 176.762 139.289 183.205 111.623 183.205C83.9568 183.205 77.526 176.762 77.526 176.762Z" fill="#862254"/>
<g id="Man-4_V_38" style="mix-blend-mode:soft-light">
<path d="M121.041 187.595L122.898 190.99C122.898 190.99 132.956 187.657 139.768 182.284L121.041 187.595Z" fill="#FFCCB8"/>
</g>
</g>
<g id="Man-4_15">
<g id="Man-4_16">
<path id="Man-4_V_39" d="M129.722 118.042C129.624 119.05 141.699 119.112 149.088 118.448C156.478 117.784 159.897 113.898 160.081 112.853C160.266 111.808 158.261 108.845 148.043 109.509C137.825 110.173 129.919 115.743 129.722 118.042Z" fill="url(#PaintMan322_linear)"/>
<g id="Man-4_17">
<path id="Man-4_V_40" d="M151.88 113.935C151.56 116.923 147.908 119.173 143.715 118.94C139.522 118.706 136.338 116.099 136.719 113.099C137.1 110.099 140.69 107.849 144.883 108.083C149.076 108.316 152.199 110.935 151.88 113.935Z" fill="url(#PaintMan323_linear)"/>
<path id="Man-4_V_41" d="M151.437 113.911C151.13 116.727 147.687 118.829 143.752 118.62C139.817 118.411 136.854 115.94 137.161 113.124C137.469 110.308 140.85 108.205 144.846 108.402C148.843 108.599 151.732 111.083 151.437 113.911Z" fill="url(#PaintMan324_linear)"/>
<path id="Man-4_V_42" style="mix-blend-mode:multiply" d="M148.929 113.763C148.732 115.595 146.469 116.973 144.01 116.825C141.551 116.677 139.534 115.091 139.731 113.259C139.928 111.427 142.19 110.062 144.711 110.197C147.232 110.333 149.125 111.931 148.929 113.763Z" fill="url(#PaintMan325_linear)"/>
</g>
<path id="Man-4_V_43" d="M129.218 118.485C129.218 118.485 135.551 108.488 145.855 107.234C151.159 106.735 156.45 108.318 160.61 111.648C155.702 110.094 150.506 109.674 145.412 110.419C136.903 111.636 129.218 118.485 129.218 118.485Z" fill="#E56D5C"/>
<path id="Man-4_V_44" d="M130.46 116.751L132.612 118.706C132.612 118.706 129.513 118.522 129.231 118.448C128.948 118.374 130.46 116.751 130.46 116.751Z" fill="#DD4C6A"/>
<path id="Man-4_V_45" d="M136.694 118.878C136.694 118.878 146.924 119.53 152.777 118.079C159.097 116.518 160.081 112.853 160.081 112.853C160.081 112.853 158.507 116.542 151.855 117.858C146.839 118.619 141.767 118.961 136.694 118.878Z" fill="#DD4C6A"/>
<path id="Man-4_V_46" d="M151.179 115.079C150.503 115.362 153.146 115.829 155.298 115.546C157.216 115.3 158.298 114.599 158.175 114.427C155.825 114.08 153.425 114.304 151.179 115.079Z" fill="white"/>
<path id="Man-4_V_47" d="M149.556 115.226C148.855 114.931 147.896 115.091 147.773 115.374C147.65 115.657 148.498 116.149 149.002 116.087C149.507 116.026 149.949 115.386 149.556 115.226Z" fill="white"/>
<g id="Man-4_V_48" style="mix-blend-mode:multiply" opacity="0.6">
<path d="M129.685 117.956C129.685 117.956 143.211 108.722 160.081 112.853C160.081 112.853 155.409 109.3 145.166 109.853C142.157 110.021 139.218 110.83 136.548 112.228C133.878 113.626 131.538 115.579 129.685 117.956Z" fill="#B42F97"/>
</g>
<path id="Man-4_V_49" d="M129.218 118.485C133.634 114.344 139.3 111.788 145.326 111.218C154.941 110.579 160.081 112.853 160.081 112.853L160.966 111.808C155.535 110.05 149.775 109.546 144.121 110.333C138.352 111.222 133.079 114.107 129.218 118.485Z" fill="#270039"/>
<path id="Man-4_V_50" d="M129.218 118.485C129.218 118.485 133.706 107.726 140.432 104.418C140.432 104.418 132.723 112.411 129.218 118.485Z" fill="#DD4C6A"/>
</g>
<g id="Man-4_18">
<path id="Man-4_V_51" d="M93.1542 118.042C93.2525 119.05 81.1779 119.112 73.788 118.448C66.3982 117.784 62.9799 113.898 62.7955 112.853C62.611 111.808 64.6152 108.845 74.8332 109.509C85.0511 110.173 92.9574 115.743 93.1542 118.042Z" fill="url(#PaintMan326_linear)"/>
<g id="Man-4_19">
<path id="Man-4_V_52" d="M70.9968 113.935C71.3165 116.923 74.9685 119.173 79.1614 118.94C83.3543 118.706 86.4775 116.099 86.1578 113.099C85.8381 110.099 82.1862 107.849 77.9932 108.083C73.8003 108.316 70.6771 110.935 70.9968 113.935Z" fill="url(#PaintMan327_linear)"/>
<path id="Man-4_V_53" d="M71.4395 113.911C71.7469 116.727 75.1898 118.829 79.1245 118.62C83.0592 118.411 86.0225 115.94 85.7151 113.124C85.4077 110.308 82.0263 108.205 78.0302 108.402C74.034 108.599 71.1444 111.083 71.4395 113.911Z" fill="url(#PaintMan328_linear)"/>
<path id="Man-4_V_54" style="mix-blend-mode:multiply" d="M73.9478 113.763C74.1446 115.595 76.4071 116.973 78.9277 116.825C81.4484 116.677 83.4034 115.091 83.2067 113.259C83.01 111.427 80.7475 110.062 78.2269 110.197C75.7062 110.333 73.7511 111.931 73.9478 113.763Z" fill="url(#PaintMan329_linear)"/>
</g>
<path id="Man-4_V_55" d="M93.6583 118.485C93.6583 118.485 87.3259 108.488 77.0219 107.234C71.7171 106.735 66.4261 108.318 62.2667 111.648C67.1745 110.094 72.3708 109.674 77.4645 110.419C85.9611 111.636 93.6583 118.485 93.6583 118.485Z" fill="#E56D5C"/>
<path id="Man-4_V_56" d="M92.4164 116.751L90.2646 118.706C90.2646 118.706 93.3632 118.522 93.646 118.448C93.9288 118.374 92.4164 116.751 92.4164 116.751Z" fill="#DD4C6A"/>
<path id="Man-4_V_57" d="M86.1824 118.878C86.1824 118.878 75.9522 119.53 70.0993 118.079C63.7792 116.518 62.7955 112.853 62.7955 112.853C62.7955 112.853 64.3694 116.542 71.0215 117.858C76.0379 118.619 81.1091 118.961 86.1824 118.878Z" fill="#DD4C6A"/>
<path id="Man-4_V_58" d="M71.7346 115.079C72.4109 115.362 69.7673 115.829 67.6155 115.546C65.6973 115.3 64.6153 114.599 64.7382 114.427C67.0889 114.08 69.4885 114.304 71.7346 115.079Z" fill="white"/>
<path id="Man-4_V_59" d="M73.3208 115.226C74.0217 114.931 74.9807 115.091 75.1037 115.374C75.2267 115.657 74.3782 116.149 73.8741 116.087C73.37 116.026 72.9642 115.386 73.3208 115.226Z" fill="white"/>
<g id="Man-4_V_60" style="mix-blend-mode:multiply" opacity="0.6">
<path d="M93.1911 117.956C93.1911 117.956 79.6655 108.722 62.7955 112.853C62.7955 112.853 67.4679 109.3 77.7104 109.853C80.7197 110.021 83.6582 110.83 86.3284 112.228C88.9986 113.626 91.3386 115.579 93.1911 117.956Z" fill="#B42F97"/>
</g>
<path id="Man-4_V_61" d="M93.6583 118.485C89.2428 114.344 83.5768 111.788 77.5506 111.218C67.9352 110.579 62.7955 112.853 62.7955 112.853L61.9102 111.808C67.3418 110.05 73.1011 109.546 78.7556 110.333C84.5242 111.222 89.7979 114.107 93.6583 118.485Z" fill="#270039"/>
<path id="Man-4_V_62" d="M93.6583 118.485C93.6583 118.485 89.1703 107.726 82.4444 104.418C82.4444 104.418 90.1785 112.411 93.6583 118.485Z" fill="#DD4C6A"/>
</g>
</g>
</g>
<g id="Man-4_20">
<path id="Man-4_V_63" d="M99.1669 9.59186C105.358 6.40463 112.28 4.9074 119.234 5.25139C131.075 5.74322 144.527 12.1248 144.527 12.1248L111.992 29.6712L97.3348 24.2978L99.1669 9.59186Z" fill="url(#PaintMan330_linear)"/>
<path id="Man-4_V_64" d="M181.07 61.8374L177.812 59.4889L172.266 103.976C172.266 103.976 173.594 88.9254 171.541 80.6133C169.488 72.3013 169.967 55.6402 169.967 55.6402C169.967 55.6402 157.474 40.4547 145.818 36.9627C145.818 36.9627 130.559 38.7702 107.7 39.6186C84.8421 40.467 71.6363 40.0982 71.6363 40.0982C71.6363 40.0982 56.3401 48.5332 51.5201 56.9682C51.5201 56.9682 51.6553 69.7437 51.2864 76.4942C50.9176 83.2447 47.5977 106.349 47.5977 106.349C47.5977 106.349 47.5977 106.263 47.5977 106.103C47.4132 103.213 45.5196 75.8548 43.5154 64.5548C43.4416 64.1613 43.3679 63.7556 43.3064 63.3252C43.0851 61.8989 42.9129 60.448 42.7777 58.9971C42.7777 58.9971 42.7777 58.9233 42.7777 58.8741C42.3798 54.1716 42.2894 49.4481 42.5072 44.7337C42.5072 44.4796 42.5072 44.2214 42.5072 43.9591C42.5072 43.7009 42.5072 43.4673 42.5072 43.2336C42.5072 43 42.5072 42.8156 42.5072 42.6311C42.5072 42.4467 42.5072 42.2131 42.5072 42.0286C42.5072 41.5737 42.5686 41.1556 42.5932 40.799C42.6178 40.4425 42.5932 40.3933 42.5932 40.2211C42.5864 40.1928 42.5864 40.1633 42.5932 40.135C42.5932 39.9506 42.5932 39.7908 42.5932 39.6309C42.5932 39.4711 42.6547 39.0407 42.6547 38.8686C42.6596 38.8318 42.6596 38.7946 42.6547 38.7579C42.6504 38.7088 42.6504 38.6594 42.6547 38.6104L43.0604 38.7333L45.8885 44.1927L46.073 43.996C46.8845 43.0369 49.5036 40.0244 53.2661 36.102C53.4629 35.8806 53.6719 35.6593 53.8809 35.4503C53.9318 35.3831 53.9895 35.3213 54.053 35.2659C54.385 34.9093 54.7908 34.4912 55.2826 34.0363C55.4056 33.9297 55.5286 33.8067 55.6515 33.6674C59.2788 29.9786 63.6808 25.7611 68.4393 21.7772L68.5254 21.6911L69.0295 21.2976C70.7386 19.8713 72.4847 18.4696 74.2799 17.1416C84.1773 10.009 95.02 4.28975 106.495 0.148585H114.279C114.279 0.148585 105.241 15.0759 103.212 24.4208C103.483 23.8183 112.25 4.42758 119.418 0.148585C124.489 -0.238089 129.573 0.698253 134.174 2.86599C134.174 2.86599 121.091 13.9324 117.857 22.5395C118.398 22.0969 139.928 4.09559 155.642 13.4897C152.628 12.9151 149.548 12.7702 146.494 13.0593C146.494 13.0593 151.044 14.9529 158.151 22.8961C159.196 24.0642 160.376 25.4906 161.63 27.1136C169.168 36.3725 179.066 52.1605 181.07 61.8374Z" fill="url(#PaintMan331_linear)"/>
<path id="Man-4_V_65" d="M110 37.1346C110 37.1346 129.883 -3.09774 156.098 10.9934C156.098 10.9934 131.235 9.06296 113.652 36.9748L110 37.1346Z" fill="url(#PaintMan332_linear)"/>
<path id="Man-4_V_66" d="M119.689 0.00101928C119.689 0.00101928 103.704 16.8342 101.331 39.5079H109.852C109.852 39.5079 111.721 17.3752 128.776 0.738775C125.774 0.228867 122.733 -0.0179879 119.689 0.00101928Z" fill="url(#PaintMan333_linear)"/>
<path id="Man-4_V_67" d="M106.754 0.0010376C106.754 0.0010376 93.978 17.4736 92.9575 40.0244C95.3145 25.5262 101.107 11.8028 109.852 0.0010376H106.754Z" fill="url(#PaintMan334_linear)"/>
<path id="Man-4_V_68" d="M44.6835 43.6763C47.1438 47.6689 49.8159 51.5272 52.6882 55.2345L51.557 56.9559V61.8743C47.857 59.9013 44.8333 56.8647 42.876 53.1565V38.5858L44.6835 43.6763Z" fill="url(#PaintMan335_linear)"/>
<path id="Man-4_V_69" d="M66.6318 23.2404C66.6318 23.2404 60.3977 30.618 58.8116 48.8652L61.861 46.406C61.861 46.406 61.3445 30.9008 71.2059 19.5024L66.6318 23.2404Z" fill="url(#PaintMan336_linear)"/>
<path id="Man-4_V_70" d="M126.993 38.5858C126.993 38.5858 139.289 22.9699 160.29 22.601L159.22 23.7199L166.684 25.5029C158.858 27.4838 151.665 31.4232 145.781 36.9504L126.993 38.5858Z" fill="url(#PaintMan337_linear)"/>
<g id="Man-4_V_71" style="mix-blend-mode:multiply" opacity="0.6">
<path d="M128.456 36.9503H145.818C145.818 36.9503 130.558 38.7579 107.7 39.6063C84.8421 40.4547 71.6363 40.0858 71.6363 40.0858C71.6363 40.0858 56.3401 48.5208 51.5201 56.9559C51.5201 56.9559 51.6553 69.7314 51.2864 76.4819C50.9176 83.2323 47.5976 106.336 47.5976 106.336C47.5976 106.336 47.5976 106.25 47.5976 106.091C47.3148 103.164 44.6958 75.5351 43.3064 63.3498C43.0973 61.5054 42.9129 60.0176 42.7776 59.0216C42.7776 59.0216 42.7776 58.9478 42.7776 58.8986C42.2657 53.9432 42.1876 48.9526 42.544 43.9836C42.544 43.7254 42.544 43.4918 42.544 43.2582C42.544 43.0245 42.544 42.8401 42.544 42.6557C42.544 42.4712 42.544 42.2376 42.544 42.0532C42.544 41.5982 42.6055 41.1802 42.6301 40.8236C42.6547 40.467 42.6301 40.4178 42.6301 40.2457C42.6233 40.2174 42.6233 40.1879 42.6301 40.1596C42.6301 39.9751 42.6301 39.8153 42.6301 39.6554C42.6301 39.4956 42.6916 39.0652 42.6916 38.8931C42.6965 38.8564 42.6965 38.8192 42.6916 38.7824C42.6873 38.7334 42.6873 38.684 42.6916 38.6349L43.0973 38.7578L45.9254 44.2173C46.6755 43.4057 50.6962 38.8931 53.9178 35.4748C53.9687 35.4076 54.0264 35.3458 54.0899 35.2904C54.4219 34.9338 54.8277 34.5158 55.3195 34.0608C59.0821 30.372 66.3859 23.7076 68.4762 21.7648L68.5623 21.6788L69.2754 21.064C68.3901 30.3843 71.1936 36.2618 71.1936 36.2618C87.7194 37.7373 128.456 36.9503 128.456 36.9503Z" fill="#8C2F7E"/>
</g>
<g id="Man-4_V_72" style="mix-blend-mode:multiply" opacity="0.6">
<path d="M181.07 61.8374L177.812 59.4888L172.266 103.976C172.266 103.976 173.594 88.9254 171.541 80.6133C169.488 72.3012 169.967 55.6402 169.967 55.6402C169.967 55.6402 157.474 40.4547 145.818 36.9626L146.838 36.0036L161.876 27.0029C169.168 36.3724 179.066 52.1605 181.07 61.8374Z" fill="#8C2F7E"/>
</g>
<path id="Man-4_V_73" d="M159.343 45.0288C162.511 43.9774 165.847 43.527 169.18 43.7009C170.876 43.8159 172.519 44.3416 173.967 45.2327C175.415 46.1238 176.625 47.3535 177.492 48.816C172.373 47.332 167.037 46.7373 161.716 47.0577L159.343 45.0288Z" fill="url(#PaintMan338_linear)"/>
<path id="Man-4_V_74" d="M57.3114 50.1686C57.3114 50.1686 46.823 40.0244 52.6267 28.0358C52.6267 28.0358 54.3481 35.1306 58.9222 47.7094L57.3114 50.1686Z" fill="url(#PaintMan339_linear)"/>
</g>
</g>
<path id="Man-4_V_75" d="M173.693 113.185C171.934 111.304 169.783 109.742 168.282 107.677C166.626 105.367 164.188 103.738 161.421 103.09C151.712 100.402 141.571 99.6334 131.567 100.828C126.464 101.516 121.546 102.967 118.164 107.357C117.393 108.552 116.309 109.513 115.03 110.135C113.751 110.757 112.326 111.017 110.91 110.886C108.45 110.751 106.643 110.259 105.167 108.242C102.856 105.121 99.5521 102.879 95.7978 101.885C91.2613 100.688 86.5823 100.117 81.8911 100.188C79.727 100.348 76.4686 100.385 73.5544 100.668C68.9519 101.071 64.4124 102.012 60.0289 103.471C57.8337 104.129 55.9154 105.49 54.5695 107.345C53.1961 109.305 51.5385 111.05 49.6511 112.521C48.8551 113.049 48.2233 113.79 47.8277 114.66C47.4321 115.529 47.2885 116.493 47.4132 117.44C47.3901 118.375 47.4229 119.311 47.5116 120.243C47.6099 120.735 48.1633 121.473 48.5321 121.473C50.0691 121.547 50.3888 122.444 50.5856 123.772C51.1147 127.992 52.2753 132.108 54.0284 135.982C57.0164 142.228 61.5782 146.372 68.5992 146.876C71.827 147.12 75.0665 147.173 78.3006 147.036C83.0488 146.942 87.7385 145.97 92.1336 144.171C93.5622 143.568 94.8639 142.7 95.9699 141.614C100.438 136.928 103.612 131.161 105.18 124.879C105.721 122.887 106.409 120.907 107.073 118.964C107.737 117.022 109.385 116.395 111.377 116.407C112.256 116.308 113.142 116.506 113.896 116.969C114.649 117.433 115.225 118.135 115.533 118.964C116.086 120.391 116.529 121.854 116.959 123.329C118.717 129.477 120.98 135.269 125.21 140.15C127.133 142.478 129.699 144.189 132.587 145.069C139.89 147.207 147.558 147.797 155.101 146.802C160.585 146.138 164.471 142.942 167.311 138.195C169.789 133.742 171.368 128.846 171.959 123.784C172.168 122.432 172.537 121.596 174.012 121.51C174.248 121.447 174.464 121.325 174.638 121.155C174.813 120.985 174.94 120.772 175.008 120.538C175.177 118.903 175.177 117.255 175.008 115.62C174.812 114.699 174.355 113.854 173.693 113.185V113.185ZM103.778 116.874C103.284 124.461 100.459 131.71 95.6872 137.63C92.1582 141.982 87.3013 143.999 81.9402 144.761C79.2228 145.155 68.7713 145.61 65.9555 144.995C62.8083 144.274 60.0474 142.395 58.2214 139.732C53.5366 131.851 51.5938 123.366 53.4136 114.157C53.7471 112.014 54.6788 110.01 56.1015 108.374C57.5242 106.738 59.38 105.538 61.4552 104.91C65.9631 103.451 70.6515 102.623 75.3865 102.451C81.3078 101.891 87.28 102.248 93.0927 103.508C94.264 103.8 95.411 104.183 96.5233 104.652C101.995 106.951 104.282 110.751 103.778 116.849V116.874ZM165.258 138.54C163.032 142.819 159.11 144.515 154.659 145.069C149.132 145.227 143.601 144.939 138.12 144.208C135.144 143.595 132.342 142.329 129.915 140.5C127.489 138.671 125.499 136.326 124.091 133.633C121.198 128.672 119.411 123.144 118.853 117.427C118.25 110.726 120.623 106.521 126.857 104.394C129.915 103.353 133.092 102.705 136.313 102.463C143.978 101.81 151.698 102.408 159.171 104.234C165.504 105.82 168.922 109.792 169.684 116.37C170.486 124.038 168.915 131.768 165.184 138.515L165.258 138.54Z" fill="black"/>
</g>
</g>
<defs>
<linearGradient id="PaintMan30_linear" x1="111.647" y1="288.649" x2="111.647" y2="193.392" gradientUnits="userSpaceOnUse">
<stop stop-color="#FFB381"/>
<stop offset="0.23" stop-color="#FF9B7D"/>
<stop offset="0.48" stop-color="#FF877A"/>
<stop offset="0.74" stop-color="#FF7B78"/>
<stop offset="1" stop-color="#FF7777"/>
</linearGradient>
<linearGradient id="PaintMan31_linear" x1="135.231" y1="267.204" x2="135.231" y2="201.532" gradientUnits="userSpaceOnUse">
<stop stop-color="#FFEADB"/>
<stop offset="0.99" stop-color="#D177F4"/>
</linearGradient>
<linearGradient id="PaintMan32_linear" x1="14687.3" y1="7917.26" x2="14687.3" y2="7516.21" gradientUnits="userSpaceOnUse">
<stop stop-color="#FFEADB"/>
<stop offset="0.99" stop-color="#D177F4"/>
</linearGradient>
<linearGradient id="PaintMan33_linear" x1="10825.1" y1="8428.85" x2="10825.1" y2="7972.26" gradientUnits="userSpaceOnUse">
<stop stop-color="#FFEADB"/>
<stop offset="0.99" stop-color="#D177F4"/>
</linearGradient>
<linearGradient id="PaintMan34_linear" x1="178.869" y1="162.812" x2="178.869" y2="111.452" gradientUnits="userSpaceOnUse">
<stop stop-color="#FF847C"/>
<stop offset="0.03" stop-color="#FF837A"/>
<stop offset="0.35" stop-color="#FF7466"/>
<stop offset="0.68" stop-color="#FF6B5A"/>
<stop offset="1" stop-color="#FF6856"/>
</linearGradient>
<linearGradient id="PaintMan35_linear" x1="6999.81" y1="6393.14" x2="6999.81" y2="5816.39" gradientUnits="userSpaceOnUse">
<stop stop-color="#FFEADB"/>
<stop offset="0.99" stop-color="#D177F4"/>
</linearGradient>
<linearGradient id="PaintMan36_linear" x1="3743.33" y1="4977.69" x2="3743.33" y2="4631.07" gradientUnits="userSpaceOnUse">
<stop stop-color="#FFEADB"/>
<stop offset="0.99" stop-color="#D177F4"/>
</linearGradient>
<linearGradient id="PaintMan37_linear" x1="2890.76" y1="12756.4" x2="2890.76" y2="10647" gradientUnits="userSpaceOnUse">
<stop stop-color="#FF847C"/>
<stop offset="0.03" stop-color="#FF837A"/>
<stop offset="0.35" stop-color="#FF7466"/>
<stop offset="0.68" stop-color="#FF6B5A"/>
<stop offset="1" stop-color="#FF6856"/>
</linearGradient>
<linearGradient id="PaintMan38_linear" x1="2145.41" y1="6345.04" x2="2145.41" y2="5777.75" gradientUnits="userSpaceOnUse">
<stop stop-color="#FFEADB"/>
<stop offset="0.99" stop-color="#D177F4"/>
</linearGradient>
<linearGradient id="PaintMan39_linear" x1="939.53" y1="4954.31" x2="939.53" y2="4612.21" gradientUnits="userSpaceOnUse">
<stop stop-color="#FFEADB"/>
<stop offset="0.99" stop-color="#D177F4"/>
</linearGradient>
<linearGradient id="PaintMan310_linear" x1="110.233" y1="229.394" x2="110.233" y2="10.6739" gradientUnits="userSpaceOnUse">
<stop stop-color="#E9A691"/>
<stop offset="0.08" stop-color="#ECA78E"/>
<stop offset="0.51" stop-color="#F9AB80"/>
<stop offset="0.57" stop-color="#FAA67D"/>
<stop offset="0.78" stop-color="#FE9A75"/>
<stop offset="1" stop-color="#FF9673"/>
</linearGradient>
<linearGradient id="PaintMan311_linear" x1="148.572" y1="206.426" x2="148.572" y2="36.1511" gradientUnits="userSpaceOnUse">
<stop stop-color="#FFEADB"/>
<stop offset="0.99" stop-color="#D17EAE"/>
</linearGradient>
<linearGradient id="PaintMan312_linear" x1="15584" y1="49359.8" x2="15584" y2="25114.9" gradientUnits="userSpaceOnUse">
<stop stop-color="#FFEADB"/>
<stop offset="0.99" stop-color="#D17EAE"/>
</linearGradient>
<linearGradient id="PaintMan313_linear" x1="4942.84" y1="19379.4" x2="4942.84" y2="15468.1" gradientUnits="userSpaceOnUse">
<stop stop-color="#FFEADB"/>
<stop offset="0.99" stop-color="#D177F4"/>
</linearGradient>
<linearGradient id="PaintMan314_linear" x1="294.162" y1="19379.4" x2="294.162" y2="15468.1" gradientUnits="userSpaceOnUse">
<stop stop-color="#FFEADB"/>
<stop offset="0.99" stop-color="#D177F4"/>
</linearGradient>
<linearGradient id="PaintMan315_linear" x1="111.561" y1="165.037" x2="111.561" y2="131.101" gradientUnits="userSpaceOnUse">
<stop stop-color="#F97A7E"/>
<stop offset="0.15" stop-color="#FB7F78"/>
<stop offset="0.57" stop-color="#FE8A6C"/>
<stop offset="1" stop-color="#FF8D68"/>
</linearGradient>
<linearGradient id="PaintMan316_linear" x1="118.053" y1="160.094" x2="124.398" y2="160.094" gradientUnits="userSpaceOnUse">
<stop offset="0.02" stop-color="#7C51B3"/>
<stop offset="0.99" stop-color="#BD89C4"/>
</linearGradient>
<linearGradient id="PaintMan317_linear" x1="2203.49" y1="1017.78" x2="2234.16" y2="1017.78" gradientUnits="userSpaceOnUse">
<stop offset="0.02" stop-color="#7C51B3"/>
<stop offset="0.99" stop-color="#BD89C4"/>
</linearGradient>
<linearGradient id="PaintMan318_linear" x1="1167.61" y1="5603.11" x2="1167.61" y2="5192.23" gradientUnits="userSpaceOnUse">
<stop stop-color="#FFEADB"/>
<stop offset="0.99" stop-color="#D177F4"/>
</linearGradient>
<linearGradient id="PaintMan319_linear" x1="-426.651" y1="5603.11" x2="-426.651" y2="5192.23" gradientUnits="userSpaceOnUse">
<stop stop-color="#FFEADB"/>
<stop offset="0.99" stop-color="#D177F4"/>
</linearGradient>
<linearGradient id="PaintMan320_linear" x1="115.57" y1="95.6759" x2="173.029" y2="95.6759" gradientUnits="userSpaceOnUse">
<stop stop-color="#36063B"/>
<stop offset="1" stop-color="#4D0E2E"/>
</linearGradient>
<linearGradient id="PaintMan321_linear" x1="-9735.53" y1="2979.34" x2="-12419.8" y2="2979.34" gradientUnits="userSpaceOnUse">
<stop stop-color="#36063B"/>
<stop offset="1" stop-color="#4D0E2E"/>
</linearGradient>
<linearGradient id="PaintMan322_linear" x1="145.109" y1="118.765" x2="144.557" y2="109.769" gradientUnits="userSpaceOnUse">
<stop stop-color="#EEE2FF"/>
<stop offset="1" stop-color="#BDC9FB"/>
</linearGradient>
<linearGradient id="PaintMan323_linear" x1="144.325" y1="121.359" x2="145.199" y2="110.44" gradientUnits="userSpaceOnUse">
<stop stop-color="#4D0E2E"/>
<stop offset="1" stop-color="#36063B"/>
</linearGradient>
<linearGradient id="PaintMan324_linear" x1="5584.81" y1="2283.3" x2="5584.81" y2="2197.66" gradientUnits="userSpaceOnUse">
<stop stop-color="#4D0E2E"/>
<stop offset="1" stop-color="#36063B"/>
</linearGradient>
<linearGradient id="PaintMan325_linear" x1="144.495" y1="119.232" x2="145.029" y2="112.555" gradientUnits="userSpaceOnUse">
<stop stop-color="#CAA7DB"/>
<stop offset="0.99" stop-color="#8460B8"/>
</linearGradient>
<linearGradient id="PaintMan326_linear" x1="-9189.89" y1="1531.91" x2="-9185.72" y2="1462.48" gradientUnits="userSpaceOnUse">
<stop stop-color="#EEE2FF"/>
<stop offset="1" stop-color="#BDC9FB"/>
</linearGradient>
<linearGradient id="PaintMan327_linear" x1="-4328.15" y1="2851.84" x2="-4335.89" y2="2755.13" gradientUnits="userSpaceOnUse">
<stop stop-color="#4D0E2E"/>
<stop offset="1" stop-color="#36063B"/>
</linearGradient>
<linearGradient id="PaintMan328_linear" x1="-4073.17" y1="2687" x2="-4080.02" y2="2601.35" gradientUnits="userSpaceOnUse">
<stop stop-color="#4D0E2E"/>
<stop offset="1" stop-color="#36063B"/>
</linearGradient>
<linearGradient id="PaintMan329_linear" x1="-2626.24" y1="1772.48" x2="-2629.12" y2="1736.45" gradientUnits="userSpaceOnUse">
<stop stop-color="#CAA7DB"/>
<stop offset="0.99" stop-color="#8460B8"/>
</linearGradient>
<linearGradient id="PaintMan330_linear" x1="97.3348" y1="17.4367" x2="144.527" y2="17.4367" gradientUnits="userSpaceOnUse">
<stop stop-color="#36062C"/>
<stop offset="1" stop-color="#441B3E"/>
</linearGradient>
<linearGradient id="PaintMan331_linear" x1="49063.9" y1="21506.9" x2="49063.9" y2="12306.8" gradientUnits="userSpaceOnUse">
<stop stop-color="#36063B"/>
<stop offset="1" stop-color="#4D0E2E"/>
</linearGradient>
<linearGradient id="PaintMan332_linear" x1="16335.4" y1="3974.97" x2="18063.6" y2="3974.97" gradientUnits="userSpaceOnUse">
<stop stop-color="#36062C"/>
<stop offset="1" stop-color="#441B3E"/>
</linearGradient>
<linearGradient id="PaintMan333_linear" x1="9571.64" y1="5212.68" x2="10183.6" y2="5212.68" gradientUnits="userSpaceOnUse">
<stop stop-color="#36062C"/>
<stop offset="1" stop-color="#441B3E"/>
</linearGradient>
<linearGradient id="PaintMan334_linear" x1="5807.74" y1="5289.09" x2="6039.53" y2="5289.09" gradientUnits="userSpaceOnUse">
<stop stop-color="#36062C"/>
<stop offset="1" stop-color="#441B3E"/>
</linearGradient>
<linearGradient id="PaintMan335_linear" x1="2961.9" y1="3688.13" x2="3040.11" y2="3688.13" gradientUnits="userSpaceOnUse">
<stop stop-color="#36062C"/>
<stop offset="1" stop-color="#441B3E"/>
</linearGradient>
<linearGradient id="PaintMan336_linear" x1="3907.13" y1="4238.64" x2="4032.07" y2="4238.64" gradientUnits="userSpaceOnUse">
<stop stop-color="#36062C"/>
<stop offset="1" stop-color="#441B3E"/>
</linearGradient>
<linearGradient id="PaintMan337_linear" x1="14651.6" y1="2272.45" x2="15932.9" y2="2272.45" gradientUnits="userSpaceOnUse">
<stop stop-color="#36062C"/>
<stop offset="1" stop-color="#441B3E"/>
</linearGradient>
<linearGradient id="PaintMan338_linear" x1="7278.23" y1="834.318" x2="7545.38" y2="834.318" gradientUnits="userSpaceOnUse">
<stop stop-color="#36062C"/>
<stop offset="1" stop-color="#441B3E"/>
</linearGradient>
<linearGradient id="PaintMan339_linear" x1="2497.05" y1="3296.38" x2="2549.75" y2="3296.38" gradientUnits="userSpaceOnUse">
<stop stop-color="#36062C"/>
<stop offset="1" stop-color="#441B3E"/>
</linearGradient>
</defs>
</svg>
