<svg width="225" height="249" viewBox="0 0 225 249" fill="none" xmlns="http://www.w3.org/2000/svg">
<g id="black">
<g id="Man-5_">
<g id="Man-5__2">
<path id="Man-5-V" d="M62.8196 169.044C62.8196 169.044 61.1639 214.298 60.0177 218.767C58.8715 223.235 0 248.25 0 248.25H225C225 248.25 160.949 225.665 159.198 220.496C157.447 215.328 157.426 172.175 157.426 172.175L62.8196 169.044Z" fill="url(#Man-5-V0_linear)"/>
<path id="Man-5-V_2" d="M60.2406 217.472C60.2406 217.472 55.5389 216.93 55.0295 217.472C54.5201 218.013 55.0295 221.717 55.0295 221.717L0 248.25H225L165.566 222.948C165.566 222.948 163.518 217.334 159.198 220.465L160.663 222.587C160.663 222.587 140.731 243.93 107.512 243.93C98.0152 243.995 88.6649 241.59 80.3779 236.951C72.0908 232.313 65.1516 225.6 60.2406 217.472V217.472Z" fill="url(#Man-5-V1_linear)"/>
<g id="Man-5-V_3" style="mix-blend-mode:multiply">
<path d="M62.0767 187.086C62.0767 187.086 73.1781 190.206 75.8738 194.993C78.5696 199.78 95.8055 235.822 109.422 236.384C123.039 236.947 131.837 217.801 138.746 213.386C145.656 208.971 158.137 208.663 158.137 208.663L157.468 172.175L62.8302 169.044L62.0767 187.086Z" fill="#D0478C"/>
</g>
<path id="Man-5-V_4" style="mix-blend-mode:multiply" opacity="0.85" d="M127.167 193.857L123.665 229.772C123.665 229.772 132.156 220.305 136.401 213.396C140.646 206.487 148.765 179.434 148.765 179.434L127.167 193.857Z" fill="url(#Man-5-V2_linear)"/>
<path id="Man-5-V_5" style="mix-blend-mode:multiply" opacity="0.85" d="M165.566 222.98C165.566 222.98 151.111 236.013 136.231 242.147C136.231 242.147 165.778 232.755 174.035 226.588L165.566 222.98Z" fill="url(#Man-5-V3_linear)"/>
<path id="Man-5-V_6" style="mix-blend-mode:multiply" opacity="0.85" d="M55.0295 221.717C62.7321 229.193 71.0307 236.029 79.8432 242.158C79.8432 242.158 61.1427 237.159 45.1168 226.504L55.0295 221.717Z" fill="url(#Man-5-V4_linear)"/>
<g id="Man-5-V_7" style="mix-blend-mode:multiply" opacity="0.6">
<path d="M68.9116 228.382C68.9116 228.382 83.9823 242.179 110.101 242.179C136.221 242.179 152.034 229.804 152.034 229.804C139.012 238.986 123.477 243.933 107.544 243.973C81.0318 243.941 68.9116 228.382 68.9116 228.382Z" fill="#D177B8"/>
</g>
</g>
<g id="Man-5__3">
<path id="Man-5-V_8" d="M173.303 92.2359C173.303 92.2359 178.864 77.8974 182.643 77.9293C184.935 77.9293 190.486 86.112 190.422 93.8491C190.337 104.271 184.882 116.137 183.524 122.197C182.165 128.257 178.641 136.196 176.296 136.96C173.95 137.724 170.904 130.231 170.904 130.231C170.904 130.231 172.04 101.724 173.303 92.2359Z" fill="url(#Man-5-V5_linear)"/>
<path id="Man-5-V_9" style="mix-blend-mode:multiply" opacity="0.85" d="M173.706 107.529C173.706 107.529 182.844 88.4257 186.166 88.4257C189.488 88.4257 189.499 99.2936 188.151 105.481C187.228 109.726 185.413 115.978 185.413 115.978C186.23 112.13 186.769 108.228 187.026 104.303C187.281 96.6403 186.283 91.0684 185.137 91.079C183.014 91.079 181.369 95.9717 181.114 97.691C180.86 99.4104 182.77 106.988 182.261 112.263C181.751 117.538 179.883 119.544 179.257 118.971C178.631 118.397 179.597 112.454 179.034 110.342C178.472 108.23 176.827 105.163 175.85 105.842C174.874 106.521 173.706 107.529 173.706 107.529Z" fill="url(#Man-5-V6_linear)"/>
<path id="Man-5-V_10" style="mix-blend-mode:multiply" opacity="0.85" d="M173.706 107.529C173.706 107.529 175.956 105.258 176.646 105.98C177.336 106.702 179.066 109.355 179.14 111.021C179.215 112.687 178.588 117.389 179.14 118.238C179.692 119.087 181.687 113.728 181.772 109.015C181.857 104.303 180.297 98.8479 180.297 98.2111C180.297 97.5743 180.658 94.5495 180.658 94.5495C180.658 94.5495 175.351 103.051 173.706 107.529Z" fill="url(#Man-5-V7_linear)"/>
</g>
<g id="Man-5__4">
<path id="Man-5-V_11" d="M50.816 92.2359C50.816 92.2359 45.5731 77.8974 42.0177 77.9293C39.895 77.9293 34.5884 86.112 34.6946 93.8491C34.7689 104.271 39.9056 116.137 41.1898 122.197C42.474 128.257 45.7854 136.196 47.9929 136.96C50.2005 137.724 53.0766 130.231 53.0766 130.231C53.0766 130.231 52.0047 101.724 50.816 92.2359Z" fill="url(#Man-5-V8_linear)"/>
<path id="Man-5-V_12" style="mix-blend-mode:multiply" opacity="0.85" d="M50.4339 107.529C50.4339 107.529 41.8266 88.4257 38.6957 88.4257C35.5648 88.4257 35.5649 99.2936 36.8278 105.481C37.6981 109.726 39.4068 115.978 39.4068 115.978C38.6375 112.125 38.1304 108.224 37.8892 104.303C37.6451 96.6403 38.5896 91.0684 39.6722 91.079C41.6568 91.079 43.217 95.9717 43.4611 97.691C43.7052 99.4104 41.8903 106.988 42.3998 112.263C42.9092 117.538 44.6391 119.544 45.2229 118.971C45.8066 118.397 44.9045 112.454 45.4351 110.342C45.9658 108.23 47.5578 105.163 48.4281 105.842C49.2983 106.521 50.4339 107.529 50.4339 107.529Z" fill="url(#Man-5-V9_linear)"/>
<path id="Man-5-V_13" style="mix-blend-mode:multiply" opacity="0.85" d="M50.434 107.529C50.434 107.529 48.3114 105.258 47.664 105.98C46.4715 107.438 45.6617 109.171 45.3078 111.021C45.2442 112.687 45.8279 117.389 45.3078 118.238C44.7878 119.087 42.9199 113.728 42.835 109.015C42.75 104.303 44.2253 98.8479 44.2253 98.2111C44.2253 97.5743 43.8857 94.5495 43.8857 94.5495C43.8857 94.5495 48.8845 103.051 50.434 107.529Z" fill="url(#Man-5-V10_linear)"/>
</g>
<g id="Man-5__5">
<path id="Man-5-V_14" d="M177.57 98.4021C176.508 109.642 174.386 120.127 173.855 131.876C173.324 143.625 172.369 153.188 170.533 157.56C169.498 159.793 168.107 161.843 166.415 163.631C161.193 169.511 152.883 175.688 147.258 181.482C145.29 183.515 143.16 185.385 140.89 187.075V187.075C137.905 189.343 134.663 191.252 131.232 192.764C125.873 194.961 111.969 194.961 111.969 194.961C111.969 194.961 98.0767 194.961 92.717 192.764C86.6521 190.069 81.1557 186.244 76.5213 181.493C69.8774 174.647 59.5401 167.271 54.8915 160.5C54.243 159.578 53.6883 158.593 53.2359 157.56C51.4104 153.188 50.434 143.636 49.9246 131.876C49.4151 120.117 47.2288 109.642 46.21 98.4021C45.1911 87.1627 43.9175 43.1392 47.2713 34.1816C50.625 25.2241 89.947 1.21698 111.927 1.21698C127.359 1.21698 151.355 13.0507 165.417 23.2076C171.403 27.5165 175.585 31.5283 176.583 34.1816C179.862 43.1392 178.588 87.1627 177.57 98.4021Z" fill="url(#Man-5-V11_linear)"/>
<path id="Man-5-V_15" style="mix-blend-mode:multiply" opacity="0.85" d="M177.57 98.4021C176.508 109.642 174.386 120.127 173.855 131.876C173.324 143.625 172.369 153.188 170.533 157.56C167.349 165.106 154.868 173.65 147.248 181.493C145.279 183.526 143.149 185.396 140.88 187.086C141.761 186.28 152.735 176.239 155.632 170.986C158.646 165.488 162.531 136.344 165.184 126.601C167.837 116.859 170.873 103.772 170.873 103.772C170.119 98.2005 165.343 98.2005 165.343 98.2005C150.485 106.309 128.823 99.6014 128.823 99.6014C126.234 87.2901 127.136 65.9682 127.136 65.9682L127.719 61.7866L167.943 59.8125C167.943 59.8125 164.367 51.2583 164.685 46.0154C165.004 40.7724 166.925 26.9116 165.343 23.2076C171.329 27.5165 175.511 31.5283 176.508 34.1816C179.862 43.1392 178.589 87.1628 177.57 98.4021Z" fill="url(#Man-5-V12_linear)"/>
<path id="Man-5-V_16" style="mix-blend-mode:multiply" opacity="0.85" d="M46.2312 98.4021C47.2925 109.642 49.4151 120.127 49.9458 131.876C50.4765 143.625 51.4317 153.188 53.2677 157.56C56.4517 165.106 68.9328 173.65 76.5531 181.493C78.5218 183.526 80.6514 185.396 82.921 187.086C82.0402 186.28 71.0661 176.239 68.1687 170.986C65.1545 165.488 61.2701 136.344 58.6168 126.601C55.9635 116.859 52.8114 103.772 52.8114 103.772C53.5649 98.2005 58.3409 98.2005 58.3409 98.2005C73.1993 106.309 94.8609 99.6014 94.8609 99.6014C97.4505 87.2901 96.5484 65.9682 96.5484 65.9682L95.9647 61.7866L55.7406 59.8125C55.7406 59.8125 59.3173 51.2583 58.9989 46.0154C58.6805 40.7724 56.7595 26.9116 58.3409 23.2076C52.355 27.5165 48.1734 31.5283 47.1758 34.1816C43.9387 43.1392 45.2123 87.1628 46.2312 98.4021Z" fill="url(#Man-5-V13_linear)"/>
<g id="Man-5-V_17" style="mix-blend-mode:multiply">
<path d="M166.405 163.642C161.183 169.521 152.873 175.698 147.248 181.493C145.279 183.526 143.149 185.396 140.88 187.086V187.086C137.894 189.354 134.653 191.263 131.222 192.775C125.862 194.972 111.959 194.972 111.959 194.972C111.959 194.972 98.0661 194.972 92.7064 192.775C86.6444 190.075 81.1516 186.246 76.5213 181.493C69.8774 174.647 59.5401 167.271 54.8915 160.5C54.8915 160.5 62.4057 167.483 70.3762 174.106C78.3467 180.729 91.6026 193.337 111.884 193.337C132.166 193.337 147.439 178.267 150.601 175.963C153.764 173.66 165.991 163.96 166.405 163.642Z" fill="#D0478C"/>
</g>
<path id="Man-5-V_18" style="mix-blend-mode:multiply" opacity="0.6" d="M170.873 103.772C170.873 103.772 164.505 123.184 162.435 137.098C160.366 151.012 157.829 163.631 157.829 163.631C157.829 163.631 167.381 142.086 168.697 131.791C170.013 121.496 170.873 103.772 170.873 103.772Z" fill="url(#Man-5-V14_linear)"/>
<path id="Man-5-V_19" style="mix-blend-mode:multiply" opacity="0.6" d="M52.3232 103.772C52.3232 103.772 58.6911 123.184 60.8137 137.098C62.9364 151.012 65.4199 163.631 65.4199 163.631C65.4199 163.631 57.5237 142.086 56.2182 131.791C54.9128 121.496 52.3232 103.772 52.3232 103.772Z" fill="url(#Man-5-V15_linear)"/>
</g>
</g>
<g id="Man-5__6">
<g id="Man-5__7">
<path id="Man-5-V_20" d="M88.217 128.873C88.217 128.873 81.8491 108.782 112.065 108.782C142.281 108.782 137.261 128.48 137.261 128.48L135.913 128.873C135.913 128.873 127.645 133.32 112.065 133.32C96.4847 133.32 88.217 128.873 88.217 128.873Z" fill="url(#Man-5-V16_linear)"/>
<g id="Man-5-V_21" style="mix-blend-mode:multiply" opacity="0.6">
<path d="M112.065 127.259C96.2406 127.259 88.217 128.841 88.217 128.841C96.3149 128.65 102.821 133.235 112.065 133.288C121.309 133.341 127.815 128.65 135.913 128.841C128.017 127.69 120.043 127.161 112.065 127.259Z" fill="#D177B8"/>
</g>
<path id="Man-5-V_22" style="mix-blend-mode:multiply" opacity="0.5" d="M124.387 131.017C124.387 131.017 128.473 127.281 135.913 128.894L124.387 131.017Z" fill="url(#Man-5-V17_linear)"/>
<path id="Man-5-V_23" style="mix-blend-mode:multiply" opacity="0.5" d="M88.217 128.873C88.217 128.873 92.9823 126.856 99.3502 130.889L88.217 128.873Z" fill="url(#Man-5-V18_linear)"/>
<g id="Man-5-V_24" style="mix-blend-mode:multiply" opacity="0.6">
<path d="M91.2736 114.736C89.2607 116.336 87.821 118.546 87.1704 121.033C86.5198 123.521 86.6934 126.152 87.6651 128.533C88.0157 123.752 89.2387 119.076 91.2736 114.736Z" fill="#D177B8"/>
</g>
<g id="Man-5-V_25" style="mix-blend-mode:multiply" opacity="0.6">
<path d="M133.663 114.736C135.672 116.338 137.109 118.549 137.757 121.036C138.406 123.523 138.232 126.153 137.261 128.533C136.91 123.753 135.691 119.078 133.663 114.736V114.736Z" fill="#D177B8"/>
</g>
<g id="Man-5-V_26" style="mix-blend-mode:multiply">
<path d="M88.217 128.873C88.217 128.873 101.218 138.531 112.065 138.531C122.912 138.531 135.913 128.873 135.913 128.873C135.913 128.873 109.316 125.455 88.217 128.873Z" fill="#D077B7"/>
</g>
<path id="Man-5-V_27" d="M122.338 123.927C122.243 122.781 123.909 121.486 125.193 121.603C126.478 121.719 125.83 124.213 125.193 124.691C124.557 125.169 122.338 123.927 122.338 123.927Z" fill="#FFCCB8"/>
</g>
<path id="Man-5-V_28" style="mix-blend-mode:multiply" opacity="0.85" d="M91.2736 114.736C91.2736 114.736 93.5023 117.708 95.8372 127.291C95.8372 127.291 99.3078 118.281 93.5554 111.042L91.2736 114.736Z" fill="url(#Man-5-V19_linear)"/>
<path id="Man-5-V_29" style="mix-blend-mode:multiply" opacity="0.85" d="M133.663 114.736C133.663 114.736 131.434 117.708 129.099 127.291C129.099 127.291 125.618 118.281 131.381 111.042L133.663 114.736Z" fill="url(#Man-5-V20_linear)"/>
</g>
<g id="Man-5__8">
<path id="Man-5-V_30" d="M175.447 73.4505C175.447 73.4505 170.225 64.4505 164.982 64.1851C163.606 64.1489 162.229 64.2556 160.875 64.5035C149.583 66.3502 128.929 75.1167 128.929 75.1167C128.929 75.1167 125.512 66.2229 125.883 62.5932L127.061 62.0625C127.061 62.0625 128.292 67.6769 129.088 68.4835L128.94 61.224C128.94 61.224 145.401 58.7724 156.014 57.2123L157.787 56.9575L161.183 56.4693C163.369 56.1509 164.77 55.9811 164.866 56.0024C165.301 56.1191 166.256 56.4481 166.373 56.4906L165.789 54.9198C165.789 54.9198 171.382 60.6934 175.447 73.4505Z" fill="url(#Man-5-V21_linear)"/>
<g id="Man-5-V_31" style="mix-blend-mode:multiply" opacity="0.6">
<path d="M175.447 73.4505C175.447 73.4505 170.225 64.4505 164.982 64.1851C163.606 64.1489 162.229 64.2556 160.875 64.5035L156.014 57.2123L157.787 56.9575C160.684 57.4564 168.739 63.2618 168.739 63.2618C166.521 58.9528 161.48 56.6073 161.193 56.4693C163.38 56.1509 164.781 55.9811 164.876 56.0024C165.311 56.1191 166.267 56.4481 166.383 56.4906L165.8 54.9198C165.8 54.9198 171.382 60.6934 175.447 73.4505Z" fill="#D177B8"/>
</g>
</g>
<g id="Man-5__9">
<path id="Man-5-V_32" d="M48.9163 73.4505C48.9163 73.4505 54.138 64.4505 59.3809 64.1852C60.7608 64.1493 62.1408 64.2559 63.4988 64.5036C74.7912 66.3503 95.4446 75.1168 95.4446 75.1168C95.4446 75.1168 98.862 66.2229 98.4905 62.5932L97.3019 62.0625C97.3019 62.0625 96.0813 67.6769 95.2747 68.4835L95.4233 61.2241C95.4233 61.2241 78.9729 58.7406 68.3172 57.1911L66.5448 56.9364L63.1486 56.4481C60.9623 56.1297 59.5613 55.9599 59.4764 55.9812C59.0307 56.0979 58.0861 56.4269 57.9693 56.4694L58.5424 54.8986C58.5424 54.8986 52.9811 60.6934 48.9163 73.4505Z" fill="url(#Man-5-V22_linear)"/>
<g id="Man-5-V_33" style="mix-blend-mode:multiply" opacity="0.6">
<path d="M48.9163 73.4505C48.9163 73.4505 54.138 64.4505 59.3809 64.1851C60.7608 64.1492 62.1408 64.2559 63.4988 64.5035L68.3172 57.2229L66.5448 56.9682C63.6474 57.467 55.592 63.2724 55.592 63.2724C57.8208 58.9634 62.862 56.6179 63.138 56.4799C60.9516 56.1615 59.5507 55.9917 59.4658 56.013C59.02 56.1297 58.0754 56.4587 57.9587 56.5012L58.5318 54.9304C58.5318 54.9304 52.9811 60.6934 48.9163 73.4505Z" fill="#D177B8"/>
</g>
</g>
<g id="Man-5__10">
<g id="Man-5-V_34" style="mix-blend-mode:multiply">
<path d="M89.3738 154.652C89.3738 154.652 99.2759 171.506 112.128 171.506C124.981 171.506 134.788 157.083 134.788 157.083L89.3738 154.652Z" fill="#D0478C"/>
</g>
<path id="Man-5-V_35" d="M85.7017 148.104C85.7017 148.104 93.4599 167.59 111.375 167.59C133.822 167.59 140.476 147.679 140.476 147.679C140.476 147.679 122.137 151.351 110.823 151.351C99.5095 151.351 85.7017 148.104 85.7017 148.104Z" fill="#EF7172"/>
<path id="Man-5-V_36" d="M82.783 146.151C82.783 146.151 85.2241 151.341 112.606 151.341C139.978 151.341 142.419 146.151 142.419 146.151C137.759 149.239 124.259 137.788 112.097 137.873C99.2547 137.968 87.7182 149.409 82.783 146.151Z" fill="#9E1636"/>
<path id="Man-5-V_37" d="M82.783 146.151C83.3436 145.793 83.9868 145.584 84.651 145.546C85.3408 145.642 90.5307 151.341 112.606 151.341C134.682 151.341 139.139 145.185 140.031 145.397C140.922 145.61 142.419 146.151 142.419 146.151C142.419 146.151 136.783 151.67 112.617 151.67C88.4505 151.67 82.783 146.151 82.783 146.151Z" fill="#72093B"/>
<g id="Man-5-V_38" style="mix-blend-mode:soft-light">
<path d="M120.035 155.395L121.5 158.292C126.107 157.414 130.428 155.421 134.087 152.487L120.035 155.395Z" fill="#FFCCB8"/>
</g>
<g id="Man-5-V_39" style="mix-blend-mode:multiply">
<path d="M91.5814 148.794C93.9673 145.525 97.0977 142.871 100.713 141.053C104.329 139.235 108.326 138.305 112.373 138.34C116.569 138.379 120.714 139.263 124.561 140.939C128.409 142.615 131.879 145.048 134.767 148.093L138.258 146.374C136.698 147.138 122.71 137.989 112.107 137.883C101.813 137.767 89.066 147.435 85.7017 146.692L91.5814 148.794Z" fill="#D077B7"/>
</g>
</g>
<path id="Man-5-V_40" d="M43.8962 88.7229C43.8962 88.7229 53.066 76.1463 52.3019 63.5165C51.5377 50.8868 50.2853 40.3479 53.4481 35.572C56.6108 30.796 81.2759 32.8019 116.183 32.8019C151.09 32.8019 168.57 30.2017 172.263 32.5154C175.956 34.829 175.075 56.8196 174.853 66.7536C174.63 76.6875 184.404 90.2088 184.404 90.2088C184.404 90.2088 186.527 44.7312 182.197 36.3467C177.867 27.9623 144.255 0.69696 113.487 0.69696C82.7193 0.69696 46.8573 25.7654 42.8455 35.6356C38.8337 45.5059 43.8962 88.7229 43.8962 88.7229Z" fill="url(#Man-5-V23_linear)"/>
<g id="Man-5-V_41" style="mix-blend-mode:soft-light">
<path d="M50.3597 26.763C50.3597 26.763 75.5342 32.8019 116.162 32.8019C156.789 32.8019 173.388 26.763 173.388 26.763C173.388 26.763 146.675 0.69696 113.445 0.69696C80.2146 0.69696 50.3597 26.763 50.3597 26.763Z" fill="#A1A690"/>
</g>
<g id="Man-5__11">
<g id="Man-5__12">
<path id="Man-5-V_42" d="M131.604 91.6203C131.179 93.8278 142.567 95.4304 150.389 94.4964C160.917 93.2441 164.929 87.2476 165.46 84.9445C165.991 82.6415 164.239 77.3667 153.425 76.6769C142.61 75.987 132.591 86.6214 131.604 91.6203Z" fill="url(#Man-5-V24_linear)"/>
<g id="Man-5__13">
<path id="Man-5-V_43" d="M156.492 85.9316C156.305 87.6619 155.61 89.2981 154.493 90.6331C153.377 91.9682 151.89 92.9421 150.22 93.4318C148.55 93.9215 146.772 93.905 145.111 93.3842C143.451 92.8635 141.982 91.8619 140.891 90.5063C139.799 89.1507 139.134 87.5018 138.98 85.7683C138.826 84.0348 139.189 82.2945 140.024 80.7676C140.859 79.2407 142.129 77.9957 143.671 77.19C145.214 76.3844 146.961 76.0544 148.691 76.2417C151.01 76.4928 153.135 77.6546 154.597 79.4717C156.06 81.2887 156.742 83.6123 156.492 85.9316V85.9316Z" fill="url(#Man-5-V25_linear)"/>
<path id="Man-5-V_44" d="M150.897 92.429C154.605 89.7739 155.459 84.6155 152.803 80.9074C150.148 77.1994 144.99 76.3458 141.282 79.001C137.574 81.6561 136.72 86.8145 139.375 90.5226C142.031 94.2306 147.189 95.0841 150.897 92.429Z" fill="url(#Man-5-V26_linear)"/>
<path id="Man-5-V_45" style="mix-blend-mode:multiply" d="M153.085 85.5708C152.97 86.6263 152.544 87.6239 151.862 88.4377C151.18 89.2514 150.272 89.8448 149.253 90.1427C148.234 90.4407 147.15 90.4298 146.137 90.1116C145.124 89.7934 144.228 89.1821 143.562 88.3549C142.897 87.5277 142.491 86.5217 142.397 85.4642C142.303 84.4066 142.525 83.3449 143.034 82.4131C143.543 81.4814 144.317 80.7215 145.258 80.2295C146.198 79.7374 147.264 79.5353 148.32 79.6486C149.736 79.8035 151.034 80.5141 151.927 81.6243C152.82 82.7345 153.237 84.1538 153.085 85.5708V85.5708Z" fill="url(#Man-5-V27_linear)"/>
</g>
<path id="Man-5-V_46" d="M132.304 89.7099C132.304 89.7099 136.263 74.4693 149.211 75.3078C159.294 75.9552 164.367 81.2406 164.367 81.2406C164.367 81.2406 156.099 76.2417 147.067 77.77C138.035 79.2983 132.304 89.7099 132.304 89.7099Z" fill="#B21D51"/>
<path id="Man-5-V_47" d="M132.814 88.9352L134.416 93.7111C134.416 93.7111 131.232 92.6498 130.988 92.4057C130.744 92.1616 132.814 88.9352 132.814 88.9352Z" fill="#880A2C"/>
<path id="Man-5-V_48" d="M135.722 93.8172C135.722 93.8172 146.08 96.6191 152.703 94.7724C161.692 92.2465 164.993 86.2819 164.993 86.2819C161.701 90.3109 157.147 93.1116 152.066 94.2312C145.613 95.6321 135.722 93.8172 135.722 93.8172Z" fill="#880A2C"/>
<path id="Man-5-V_49" d="M155.643 85.401C154.91 85.7937 157.68 86.5684 159.962 86.2288C162 85.921 163.146 84.934 163.051 84.6793C162.955 84.4246 158.508 83.8302 155.643 85.401Z" fill="white"/>
<path id="Man-5-V_50" d="M153.891 85.5602C153.159 85.1144 152.14 85.3055 152.013 85.7194C151.886 86.1333 152.735 86.8868 153.233 86.7807C153.732 86.6746 154.337 85.868 153.891 85.5602Z" fill="white"/>
<g id="Man-5-V_51" style="mix-blend-mode:multiply" opacity="0.6">
<path d="M132.814 88.9351C132.814 88.9351 147.842 76.5389 165.502 83.1616L165.142 82.408C165.142 82.408 160.376 77.0165 149.53 77.5047C138.683 77.9929 132.814 88.9351 132.814 88.9351Z" fill="#D177B8"/>
</g>
<path id="Man-5-V_52" d="M132.304 89.7099C133.939 86.5772 136.343 83.9118 139.292 81.9642C142.24 80.0166 145.635 78.8509 149.158 78.5767C160.44 77.6745 165.141 82.408 165.141 82.408L166.118 80.901C166.118 80.901 160.97 76.7087 147.821 76.0932C136.91 75.5731 132.304 89.7099 132.304 89.7099Z" fill="#42003D"/>
</g>
<g id="Man-5__14">
<path id="Man-5-V_53" d="M93.5978 91.6203C94.0224 93.8278 82.645 95.4304 74.8124 94.4964C64.2841 93.2441 60.283 87.2476 59.7523 84.9445C59.2216 82.6415 60.9729 77.3667 71.7877 76.6769C82.6026 75.987 92.632 86.6214 93.5978 91.6203Z" fill="url(#Man-5-V28_linear)"/>
<g id="Man-5__15">
<path id="Man-5-V_54" d="M80.0956 93.4155C84.7343 91.9681 87.3212 87.0343 85.8738 82.3957C84.4263 77.7571 79.4926 75.1702 74.854 76.6176C70.2154 78.065 67.6285 82.9987 69.0759 87.6373C70.5233 92.276 75.457 94.8629 80.0956 93.4155Z" fill="url(#Man-5-V29_linear)"/>
<path id="Man-5-V_55" d="M69.2512 85.8679C69.4285 87.4951 70.0841 89.0332 71.1353 90.2879C72.1865 91.5425 73.586 92.4574 75.157 92.9168C76.728 93.3763 78.4 93.3597 79.9616 92.8692C81.5232 92.3787 82.9043 91.4363 83.9304 90.1611C84.9565 88.8858 85.5816 87.335 85.7266 85.7046C85.8716 84.0743 85.53 82.4375 84.745 81.0012C83.96 79.5649 82.7668 78.3936 81.3163 77.6352C79.8657 76.8768 78.223 76.5655 76.5955 76.7405C74.4118 76.9782 72.4117 78.073 71.0346 79.7844C69.6575 81.4958 69.0161 83.6839 69.2512 85.8679V85.8679Z" fill="url(#Man-5-V30_linear)"/>
<path id="Man-5-V_56" style="mix-blend-mode:multiply" d="M72.1698 85.5708C72.285 86.6263 72.7104 87.6239 73.3924 88.4377C74.0744 89.2514 74.9823 89.8448 76.0014 90.1427C77.0205 90.4407 78.105 90.4298 79.1179 90.1116C80.1309 89.7934 81.0267 89.1821 81.6923 88.3549C82.3579 87.5277 82.7634 86.5217 82.8575 85.4642C82.9516 84.4066 82.7301 83.3449 82.221 82.4131C81.7119 81.4814 80.9381 80.7215 79.9972 80.2295C79.0564 79.7374 77.9908 79.5353 76.9351 79.6486C75.5185 79.8035 74.2212 80.5141 73.3279 81.6243C72.4345 82.7345 72.018 84.1538 72.1698 85.5708Z" fill="url(#Man-5-V31_linear)"/>
</g>
<path id="Man-5-V_57" d="M92.9186 89.7099C92.9186 89.7099 88.9598 74.4693 76.0117 75.3078C65.9398 75.9552 60.8667 81.2406 60.8667 81.2406C60.8667 81.2406 69.1344 76.2417 78.1662 77.77C87.1981 79.2983 92.9186 89.7099 92.9186 89.7099Z" fill="#B21D51"/>
<path id="Man-5-V_58" d="M92.4092 88.9352L90.8172 93.7111C90.8172 93.7111 94.0011 92.6498 94.2452 92.4057C94.4893 92.1616 92.4092 88.9352 92.4092 88.9352Z" fill="#880A2C"/>
<path id="Man-5-V_59" d="M89.5118 93.8172C89.5118 93.8172 79.1533 96.6191 72.5307 94.7724C63.5413 92.2465 60.2406 86.2819 60.2406 86.2819C63.5436 90.3348 68.123 93.1483 73.2312 94.263C79.5991 95.6321 89.5118 93.8172 89.5118 93.8172Z" fill="#880A2C"/>
<path id="Man-5-V_60" d="M69.5908 85.401C70.3125 85.7937 67.5424 86.5684 65.2606 86.2288C63.2229 85.921 62.0766 84.934 62.1722 84.6793C62.2677 84.4246 66.7146 83.8302 69.5908 85.401Z" fill="white"/>
<path id="Man-5-V_61" d="M71.2995 85.5602C72.0318 85.1144 73.0507 85.3055 73.1887 85.7194C73.3266 86.1333 72.4564 86.8868 71.9575 86.7807C71.4587 86.6746 70.8962 85.868 71.2995 85.5602Z" fill="white"/>
<g id="Man-5-V_62" style="mix-blend-mode:multiply" opacity="0.6">
<path d="M92.4092 88.9351C92.4092 88.9351 77.3809 76.5389 59.7205 83.1616L60.0814 82.408C60.0814 82.408 64.8573 77.0165 75.6934 77.5047C86.5295 77.9929 92.4092 88.9351 92.4092 88.9351Z" fill="#D177B8"/>
</g>
<path id="Man-5-V_63" d="M92.9186 89.7099C91.2841 86.5772 88.8796 83.9118 85.9312 81.9642C82.9829 80.0166 79.5877 78.8509 76.0649 78.5767C64.7831 77.6745 60.0814 82.408 60.0814 82.408L59.105 80.901C59.105 80.901 64.2524 76.7087 77.4021 76.0932C88.3656 75.5731 92.9186 89.7099 92.9186 89.7099Z" fill="#42003D"/>
</g>
</g>
</g>
<defs>
<linearGradient id="Man-5-V0_linear" x1="112.468" y1="248.282" x2="112.468" y2="169.044" gradientUnits="userSpaceOnUse">
<stop stop-color="#C34433"/>
<stop offset="0.08" stop-color="#B73B31"/>
<stop offset="0.31" stop-color="#9B272C"/>
<stop offset="0.54" stop-color="#871828"/>
<stop offset="0.77" stop-color="#7B0F26"/>
<stop offset="1" stop-color="#770C25"/>
</linearGradient>
<linearGradient id="Man-5-V1_linear" x1="112.468" y1="248.282" x2="112.468" y2="217.206" gradientUnits="userSpaceOnUse">
<stop offset="0.01" stop-color="#8684F4"/>
<stop offset="1" stop-color="#839AF2"/>
</linearGradient>
<linearGradient id="Man-5-V2_linear" x1="136.221" y1="229.772" x2="136.221" y2="179.476" gradientUnits="userSpaceOnUse">
<stop stop-color="#FFE9DA"/>
<stop offset="0.99" stop-color="#B44CF3"/>
</linearGradient>
<linearGradient id="Man-5-V3_linear" x1="14885.9" y1="6955.55" x2="14885.9" y2="6609.38" gradientUnits="userSpaceOnUse">
<stop stop-color="#FFE9DA"/>
<stop offset="0.99" stop-color="#B44CF3"/>
</linearGradient>
<linearGradient id="Man-5-V4_linear" x1="10562.7" y1="7401.64" x2="10562.7" y2="7007.94" gradientUnits="userSpaceOnUse">
<stop stop-color="#FFE9DA"/>
<stop offset="0.99" stop-color="#B44CF3"/>
</linearGradient>
<linearGradient id="Man-5-V5_linear" x1="180.658" y1="137.098" x2="180.658" y2="77.9611" gradientUnits="userSpaceOnUse">
<stop stop-color="#C3313B"/>
<stop offset="0.08" stop-color="#B72B38"/>
<stop offset="0.31" stop-color="#9B1E2F"/>
<stop offset="0.54" stop-color="#87142A"/>
<stop offset="0.77" stop-color="#7B0E26"/>
<stop offset="1" stop-color="#770C25"/>
</linearGradient>
<linearGradient id="Man-5-V6_linear" x1="6515.36" y1="7298.49" x2="6515.36" y2="6413.01" gradientUnits="userSpaceOnUse">
<stop stop-color="#FFE9DA"/>
<stop offset="0.99" stop-color="#B44CF3"/>
</linearGradient>
<linearGradient id="Man-5-V7_linear" x1="3494" y1="5672.42" x2="3494" y2="5139.79" gradientUnits="userSpaceOnUse">
<stop stop-color="#FFE9DA"/>
<stop offset="0.99" stop-color="#B44CF3"/>
</linearGradient>
<linearGradient id="Man-5-V8_linear" x1="1799.28" y1="14983.4" x2="1799.28" y2="11691.2" gradientUnits="userSpaceOnUse">
<stop stop-color="#C3313B"/>
<stop offset="0.08" stop-color="#B72B38"/>
<stop offset="0.31" stop-color="#9B1E2F"/>
<stop offset="0.54" stop-color="#87142A"/>
<stop offset="0.77" stop-color="#7B0E26"/>
<stop offset="1" stop-color="#770C25"/>
</linearGradient>
<linearGradient id="Man-5-V9_linear" x1="1317.54" y1="7298.49" x2="1317.54" y2="6413.01" gradientUnits="userSpaceOnUse">
<stop stop-color="#FFE9DA"/>
<stop offset="0.99" stop-color="#B44CF3"/>
</linearGradient>
<linearGradient id="Man-5-V10_linear" x1="535.615" y1="5672.42" x2="535.615" y2="5139.79" gradientUnits="userSpaceOnUse">
<stop stop-color="#FFE9DA"/>
<stop offset="0.99" stop-color="#B44CF3"/>
</linearGradient>
<linearGradient id="Man-5-V11_linear" x1="111.884" y1="194.993" x2="111.884" y2="1.21698" gradientUnits="userSpaceOnUse">
<stop stop-color="#C1492C"/>
<stop offset="0.17" stop-color="#C44038"/>
<stop offset="0.43" stop-color="#C73646"/>
<stop offset="0.52" stop-color="#B72B3E"/>
<stop offset="0.68" stop-color="#A31D35"/>
<stop offset="0.84" stop-color="#97152F"/>
<stop offset="1" stop-color="#93122D"/>
</linearGradient>
<linearGradient id="Man-5-V12_linear" x1="20186.1" y1="49083.5" x2="20186.1" y2="23779" gradientUnits="userSpaceOnUse">
<stop stop-color="#FFE9DA"/>
<stop offset="0.99" stop-color="#B44CF3"/>
</linearGradient>
<linearGradient id="Man-5-V13_linear" x1="2286" y1="49083.5" x2="2286" y2="23779" gradientUnits="userSpaceOnUse">
<stop stop-color="#FFE9DA"/>
<stop offset="0.99" stop-color="#B44CF3"/>
</linearGradient>
<linearGradient id="Man-5-V14_linear" x1="164.377" y1="163.631" x2="164.377" y2="103.772" gradientUnits="userSpaceOnUse">
<stop stop-color="#FFEADB"/>
<stop offset="0.99" stop-color="#D177F4"/>
</linearGradient>
<linearGradient id="Man-5-V15_linear" x1="267.012" y1="16700.7" x2="267.012" y2="13324.7" gradientUnits="userSpaceOnUse">
<stop stop-color="#FFEADB"/>
<stop offset="0.99" stop-color="#D177F4"/>
</linearGradient>
<linearGradient id="Man-5-V16_linear" x1="112.617" y1="133.32" x2="112.617" y2="108.782" gradientUnits="userSpaceOnUse">
<stop stop-color="#C81D20"/>
<stop offset="0.29" stop-color="#C11F30"/>
<stop offset="0.65" stop-color="#BB213C"/>
<stop offset="1" stop-color="#B92240"/>
</linearGradient>
<linearGradient id="Man-5-V17_linear" x1="124.387" y1="129.743" x2="135.913" y2="129.743" gradientUnits="userSpaceOnUse">
<stop offset="0.02" stop-color="#7C51B3"/>
<stop offset="0.99" stop-color="#BD89C4"/>
</linearGradient>
<linearGradient id="Man-5-V18_linear" x1="3730.12" y1="746.503" x2="3846.91" y2="746.503" gradientUnits="userSpaceOnUse">
<stop offset="0.02" stop-color="#7C51B3"/>
<stop offset="0.99" stop-color="#BD89C4"/>
</linearGradient>
<linearGradient id="Man-5-V19_linear" x1="1954.53" y1="4059.99" x2="1954.53" y2="3811.22" gradientUnits="userSpaceOnUse">
<stop stop-color="#FFE9DA"/>
<stop offset="0.99" stop-color="#B44CF3"/>
</linearGradient>
<linearGradient id="Man-5-V20_linear" x1="-494.431" y1="4059.99" x2="-494.431" y2="3811.22" gradientUnits="userSpaceOnUse">
<stop stop-color="#FFE9DA"/>
<stop offset="0.99" stop-color="#B44CF3"/>
</linearGradient>
<linearGradient id="Man-5-V21_linear" x1="125.851" y1="65.0342" x2="175.447" y2="65.0342" gradientUnits="userSpaceOnUse">
<stop stop-color="#590E3B"/>
<stop offset="1" stop-color="#4D002E"/>
</linearGradient>
<linearGradient id="Man-5-V22_linear" x1="-8998.23" y1="3782.52" x2="-11316.2" y2="3782.52" gradientUnits="userSpaceOnUse">
<stop stop-color="#590E3B"/>
<stop offset="1" stop-color="#4D002E"/>
</linearGradient>
<linearGradient id="Man-5-V23_linear" x1="113.094" y1="90.2087" x2="113.094" y2="0.69696" gradientUnits="userSpaceOnUse">
<stop stop-color="#860E3B"/>
<stop offset="1" stop-color="#39002E"/>
</linearGradient>
<linearGradient id="Man-5-V24_linear" x1="147.815" y1="95.3406" x2="149.868" y2="76.3155" gradientUnits="userSpaceOnUse">
<stop stop-color="#EEE2FF"/>
<stop offset="1" stop-color="#BDC9FB"/>
</linearGradient>
<linearGradient id="Man-5-V25_linear" x1="146.802" y1="93.7475" x2="148.691" y2="76.2419" gradientUnits="userSpaceOnUse">
<stop stop-color="#3780A9"/>
<stop offset="1" stop-color="#153364"/>
</linearGradient>
<linearGradient id="Man-5-V26_linear" x1="147.614" y1="95.0744" x2="149.399" y2="78.5613" gradientUnits="userSpaceOnUse">
<stop stop-color="#4997FE"/>
<stop offset="0.96" stop-color="#021F40"/>
<stop offset="1" stop-color="#152C39"/>
</linearGradient>
<linearGradient id="Man-5-V27_linear" x1="147.17" y1="90.3393" x2="148.323" y2="79.6502" gradientUnits="userSpaceOnUse">
<stop stop-color="#CAA7DB"/>
<stop offset="0.99" stop-color="#8460B8"/>
</linearGradient>
<linearGradient id="Man-5-V28_linear" x1="-5459.2" y1="4852.01" x2="-5495.16" y2="4528.34" gradientUnits="userSpaceOnUse">
<stop stop-color="#EEE2FF"/>
<stop offset="1" stop-color="#BDC9FB"/>
</linearGradient>
<linearGradient id="Man-5-V29_linear" x1="-2647.72" y1="4403.55" x2="-2679.99" y2="4113.92" gradientUnits="userSpaceOnUse">
<stop stop-color="#3780A9"/>
<stop offset="1" stop-color="#153364"/>
</linearGradient>
<linearGradient id="Man-5-V30_linear" x1="-2491.79" y1="4129.96" x2="-2520.22" y2="3874.1" gradientUnits="userSpaceOnUse">
<stop stop-color="#4997FE"/>
<stop offset="0.96" stop-color="#021F40"/>
<stop offset="1" stop-color="#152C39"/>
</linearGradient>
<linearGradient id="Man-5-V31_linear" x1="-1645.7" y1="2679.27" x2="-1657.67" y2="2571.56" gradientUnits="userSpaceOnUse">
<stop stop-color="#CAA7DB"/>
<stop offset="0.99" stop-color="#8460B8"/>
</linearGradient>
</defs>
</svg>
