<svg width="270" height="293" viewBox="0 0 270 293" fill="none" xmlns="http://www.w3.org/2000/svg">
<g id="Group">
<g id="Group_2">
<g id="Group_3">
<g id="Group_4">
<g id="Group_5">
<path id="Vector" d="M72.5521 193.251C72.5521 193.251 71.1321 239.562 69.7973 243.859C68.4625 248.155 0.970276 272.218 0.970276 272.218H258.855C258.855 272.218 185.484 250.509 183.51 245.546C181.536 240.583 183.283 194.499 183.283 194.499L72.5521 193.251Z" fill="url(#paint0_linear)"/>
<path id="Vector_2" d="M70.0529 242.526C70.0529 242.526 64.6711 242.001 64.0889 242.526C63.5067 243.05 64.0889 246.61 64.0889 246.61L0.970276 272.133H258.855L190.695 247.843C190.695 247.843 188.352 242.455 183.453 245.461L185.129 247.475C185.129 247.475 162.296 267.964 124.211 267.964C86.1272 267.964 70.0529 242.526 70.0529 242.526Z" fill="black"/>
<g id="Vector_3" style="mix-blend-mode:multiply" opacity="0.6">
<path d="M72.1687 213.372C72.1687 213.372 84.8776 216.364 87.959 220.958C91.0404 225.552 110.792 260.165 126.398 260.662C142.004 261.158 152.1 242.88 160.009 238.626C167.919 234.372 182.246 234.075 182.246 234.075L183.283 194.371L72.5237 193.152L72.1687 213.372Z" fill="#B42F97"/>
</g>
<path id="Vector_4" style="mix-blend-mode:multiply" opacity="0.6" d="M147.812 210.791L142.742 254.352C147.97 249.448 152.857 244.194 157.368 238.626C162.31 231.99 171.568 199.915 171.568 199.915L147.812 210.791Z" fill="url(#paint1_linear)"/>
<path id="Vector_5" style="mix-blend-mode:multiply" opacity="0.6" d="M190.752 247.829C190.752 247.829 174.195 260.35 157.141 266.263C157.141 266.263 190.994 257.244 200.465 251.331L190.752 247.829Z" fill="url(#paint2_linear)"/>
<path id="Vector_6" style="mix-blend-mode:multiply" opacity="0.6" d="M64.0889 246.61C73.0308 253.878 82.5261 260.439 92.4887 266.234C92.4887 266.234 71.0611 261.442 52.729 251.204L64.0889 246.61Z" fill="url(#paint3_linear)"/>
<g id="Vector_7" style="mix-blend-mode:multiply" opacity="0.6">
<path d="M79.9928 253.019C79.9928 253.019 97.2741 266.234 127.208 266.234C157.141 266.234 175.274 254.352 175.274 254.352C175.274 254.352 154.656 267.95 124.268 267.95C93.8803 267.95 79.9928 253.019 79.9928 253.019Z" fill="#B42F97"/>
</g>
</g>
<g id="Group_6">
<path id="Vector_8" d="M196.915 135.567C196.915 135.567 200.82 125.244 203.475 125.273C205.094 125.273 208.985 131.157 208.942 136.772C208.942 144.274 205.052 152.796 204.1 157.163C203.149 161.53 200.664 167.245 199.017 167.798C197.369 168.351 195.239 162.948 195.239 162.948C195.239 162.948 195.992 142.373 196.915 135.567Z" fill="url(#paint4_linear)"/>
<path id="Vector_9" style="mix-blend-mode:multiply" opacity="0.6" d="M197.213 146.557C197.213 146.557 203.617 132.816 205.96 132.816C208.303 132.816 208.289 140.629 207.38 145.082C206.727 148.173 205.449 152.64 205.449 152.64C206.023 149.876 206.403 147.076 206.585 144.259C206.77 138.743 206.06 134.731 205.25 134.745C203.83 134.745 202.609 138.261 202.41 139.509C202.212 140.757 203.589 146.188 203.22 149.988C202.851 153.788 201.558 155.22 201.118 154.809C200.678 154.398 201.36 150.116 200.962 148.598C200.564 147.081 199.414 144.883 198.733 145.365C198.051 145.848 197.213 146.557 197.213 146.557Z" fill="url(#paint5_linear)"/>
<path id="Vector_10" style="mix-blend-mode:multiply" opacity="0.6" d="M197.213 146.557C197.213 146.557 198.789 144.912 199.272 145.436C200.158 146.476 200.76 147.726 201.019 149.066C201.019 150.257 200.635 153.675 201.019 154.256C201.402 154.838 202.808 151.009 202.865 147.62C202.767 145.003 202.42 142.401 201.828 139.849C201.828 139.382 202.084 137.212 202.084 137.212C200.239 140.207 198.611 143.33 197.213 146.557V146.557Z" fill="url(#paint6_linear)"/>
</g>
<g id="Group_7">
<path id="Vector_11" d="M64.7279 135.837C64.7279 135.837 60.0561 125.599 56.8611 125.627C54.9299 125.627 50.2582 131.455 50.315 136.971C50.315 144.401 54.9868 152.867 56.1227 157.206C57.2587 161.545 60.2407 167.132 62.2145 167.741C64.1883 168.351 66.7585 162.934 66.7585 162.934C66.7585 162.934 65.7929 142.586 64.7279 135.837Z" fill="url(#paint7_linear)"/>
<path id="Vector_12" style="mix-blend-mode:multiply" opacity="0.6" d="M64.3871 146.727C64.3871 146.727 56.6908 133.1 53.8934 133.1C51.096 133.1 51.0534 140.856 52.2178 145.28C52.9988 148.343 54.5324 152.767 54.5324 152.767C53.8479 150.041 53.3966 147.261 53.1834 144.458C52.9562 138.984 53.8082 135 54.7738 135.014C56.5346 135.014 57.9404 138.502 58.1534 139.736C58.3664 140.97 56.7334 146.372 57.1878 150.13C57.6422 153.888 59.19 155.334 59.7154 154.923C60.2408 154.511 59.4314 150.272 59.9 148.769C60.3686 147.266 61.7601 145.068 62.5837 145.55C63.4073 146.032 64.3871 146.727 64.3871 146.727Z" fill="url(#paint8_linear)"/>
<path id="Vector_13" style="mix-blend-mode:multiply" opacity="0.6" d="M64.3871 146.727C64.3871 146.727 62.4985 145.096 61.9163 145.621C60.873 146.615 60.1426 147.891 59.8147 149.293C59.7437 150.47 60.2833 153.859 59.8147 154.441C59.3462 155.022 57.6706 151.222 57.5996 147.847C57.7266 145.243 58.1409 142.661 58.835 140.147C58.835 139.693 58.5368 137.538 58.5368 137.538C60.7224 140.445 62.6785 143.517 64.3871 146.727V146.727Z" fill="url(#paint9_linear)"/>
</g>
<g id="Group_8">
<path id="Vector_14" d="M200.465 100.855C200.465 113.064 199.812 125.457 199.272 130.519C198.15 140.799 195.807 150.371 195.254 161.105C194.7 171.839 193.223 180.489 191.732 184.559C190.728 187.163 189.407 189.635 187.799 191.918C187.699 192.06 187.614 192.201 187.515 192.329C186.239 194.095 184.845 195.773 183.34 197.349C181.064 199.738 178.61 201.952 175.998 203.971C161.912 214.946 144.219 221.114 142.941 221.61C137.148 223.624 120.917 223.525 115.123 221.511C113.277 220.873 95.9678 216.123 81.924 206.027C78.1134 203.345 74.6506 200.201 71.6149 196.668C69.9966 194.781 68.5696 192.739 67.3549 190.571V190.571C66.321 188.684 65.479 186.698 64.8415 184.644C63.5777 180.461 58.3521 140.885 57.2587 130.604C56.7617 125.939 56.1937 115.006 56.0659 103.804C55.9239 90.3759 56.4068 76.3946 58.3522 71.9421C61.9589 63.7887 104.488 41.8383 128.244 41.8383C144.915 41.8383 170.844 52.6434 186.052 61.917C192.527 65.859 197.043 69.5174 198.122 71.9421C199.783 75.7282 200.38 86.3631 200.422 97.7211C200.465 98.6995 200.465 99.7772 200.465 100.855Z" fill="url(#paint10_linear)"/>
<path id="Vector_15" style="mix-blend-mode:multiply" opacity="0.6" d="M200.465 100.855C200.465 113.064 199.812 125.457 199.272 130.519C198.15 140.799 195.807 150.371 195.254 161.105C194.7 171.839 193.223 180.489 191.732 184.559C190.728 187.163 189.407 189.635 187.799 191.918C187.699 192.06 187.614 192.201 187.515 192.329C186.239 194.096 184.845 195.773 183.34 197.349C181.064 199.738 178.61 201.952 175.999 203.971C179.179 197.179 183.098 171.102 185.853 162.14C188.693 152.767 192.13 140.218 192.13 140.218C191.942 138.759 191.235 137.415 190.137 136.434C189.04 135.452 187.625 134.898 186.151 134.872C170.091 142.657 146.69 136.205 146.69 136.205C143.85 124.393 144.858 103.918 144.858 103.918L145.483 99.9048L188.892 98.0047C188.892 98.0047 185.03 89.7946 185.37 84.7607C185.711 79.7269 187.799 66.412 186.08 62.867C192.556 66.9934 197.071 70.8503 198.15 73.4027C199.684 77.0611 200.309 86.8026 200.451 97.636C200.465 98.6995 200.465 99.7772 200.465 100.855Z" fill="url(#paint11_linear)"/>
<path id="Vector_16" style="mix-blend-mode:multiply" opacity="0.6" d="M109.955 136.205C109.955 136.205 86.5532 142.657 70.4931 134.872C69.0198 134.898 67.6049 135.452 66.5072 136.434C65.4095 137.415 64.7023 138.759 64.5149 140.218C64.5149 140.218 67.9655 152.767 70.7913 162.14C73.617 171.513 77.806 199.476 81.0578 204.751C81.2992 205.133 81.5974 205.545 81.924 205.97C78.1134 203.288 74.6506 200.145 71.6149 196.611C69.9966 194.725 68.5696 192.682 67.3549 190.514V190.514C66.321 188.627 65.479 186.641 64.8415 184.587C63.5777 180.404 58.3521 140.828 57.2587 130.547C56.7617 125.882 56.1937 114.95 56.0659 103.748C56.0659 90.6454 56.5772 77.7559 58.3948 73.431C59.474 70.8787 63.9895 67.0218 70.4647 62.8954C68.7465 66.4404 70.8055 79.7694 71.1747 84.7891C71.5439 89.8088 67.6531 98.0331 67.6531 98.0331L111.119 99.9332L111.758 103.946C111.758 103.946 112.766 124.393 109.955 136.205Z" fill="url(#paint12_linear)"/>
<g id="Vector_17" style="mix-blend-mode:multiply" opacity="0.6">
<path d="M188.111 191.62C187.884 191.847 187.657 192.088 187.444 192.329C185.962 193.926 184.569 195.601 183.269 197.349C168.984 212.45 144.46 221.029 142.941 221.554C137.148 223.567 120.917 223.468 115.123 221.454C112.766 220.632 85.474 213.188 71.6149 196.611C70.1949 194.442 68.7749 192.357 67.3549 190.514C67.8661 190.968 75.0371 197.434 83.344 203.559C92.0202 209.912 106.532 220.192 128.5 220.192C150.467 220.192 166.698 207.544 170.12 205.318C173.201 203.333 185.356 193.747 187.728 191.904L188.111 191.62Z" fill="#CB4397"/>
</g>
<path id="Vector_18" style="mix-blend-mode:multiply" opacity="0.5" d="M192.059 140.218C192.059 140.218 185.2 158.85 182.942 172.222C180.684 185.594 177.958 197.746 177.958 197.746C177.958 197.746 188.31 177.057 189.716 167.146C191.121 157.234 192.059 140.218 192.059 140.218Z" fill="url(#paint13_linear)"/>
<path id="Vector_19" style="mix-blend-mode:multiply" opacity="0.5" d="M63.9327 140.218C63.9327 140.218 70.8055 158.85 73.0633 172.222C75.321 185.594 78.0332 197.746 78.0332 197.746C78.0332 197.746 69.5133 177.057 68.0933 167.146C66.6733 157.234 63.9327 140.218 63.9327 140.218Z" fill="url(#paint14_linear)"/>
</g>
</g>
<g id="Group_9">
<g id="Group_10">
<path id="Vector_20" d="M114.271 164.579C114.271 164.579 110.196 141.565 129.451 141.565C148.706 141.565 145.497 164.125 145.497 164.125L144.631 164.579C144.631 164.579 139.377 169.684 129.451 169.684C119.525 169.684 114.271 164.579 114.271 164.579Z" fill="url(#paint15_linear)"/>
<g id="Vector_21" style="mix-blend-mode:multiply" opacity="0.6">
<path d="M129.451 162.778C119.383 162.778 114.271 164.579 114.271 164.579C119.426 164.366 123.572 169.613 129.451 169.684C135.33 169.755 139.476 164.366 144.631 164.579C139.679 163.281 134.57 162.675 129.451 162.778V162.778Z" fill="#B42F97"/>
</g>
<path id="Vector_22" style="mix-blend-mode:multiply" opacity="0.5" d="M137.304 167.032C138.049 165.836 139.188 164.937 140.525 164.489C141.863 164.041 143.314 164.073 144.631 164.579L137.304 167.032Z" fill="url(#paint16_linear)"/>
<path id="Vector_23" style="mix-blend-mode:multiply" opacity="0.5" d="M114.271 164.579C114.271 164.579 117.31 162.268 121.371 166.905L114.271 164.579Z" fill="url(#paint17_linear)"/>
<g id="Vector_24" style="mix-blend-mode:multiply" opacity="0.6">
<path d="M116.217 148.386C116.217 148.386 111.801 154.299 113.931 164.125C114.136 158.813 114.903 153.537 116.217 148.386Z" fill="#B42F97"/>
</g>
<g id="Vector_25" style="mix-blend-mode:multiply" opacity="0.6">
<path d="M143.197 148.386C143.197 148.386 147.613 154.299 145.497 164.125C145.282 158.813 144.511 153.538 143.197 148.386V148.386Z" fill="#B42F97"/>
</g>
<path id="Vector_26" d="M135.997 158.921C135.926 157.603 136.991 156.085 137.815 156.256C138.638 156.426 138.212 159.247 137.815 159.786C137.417 160.325 135.997 158.921 135.997 158.921Z" fill="#FFCCB8"/>
</g>
<path id="Vector_27" style="mix-blend-mode:multiply" opacity="0.6" d="M116.217 148.386C116.217 148.386 117.637 151.789 119.128 162.778C119.128 162.778 121.329 152.441 117.708 144.146L116.217 148.386Z" fill="url(#paint18_linear)"/>
<path id="Vector_28" style="mix-blend-mode:multiply" opacity="0.6" d="M143.197 148.386C143.197 148.386 141.777 151.789 140.357 162.778C140.357 162.778 138.141 152.441 141.777 144.146L143.197 148.386Z" fill="url(#paint19_linear)"/>
</g>
<g id="Group_11">
<path id="Vector_29" d="M189.758 103.081C189.758 103.081 182.914 97.4942 178.143 98.7421C176.901 99.107 175.694 99.5816 174.536 100.16C164.866 104.74 148.507 117.332 148.507 117.332C148.507 117.332 143.296 111.32 142.742 108.384L143.68 107.647C143.68 107.647 146.136 111.688 147.045 112.099L145.156 106.428C145.156 106.428 159.285 99.919 168.458 95.7643L169.978 95.0695L172.889 93.7366C174.777 92.8858 175.984 92.3186 176.07 92.3186C176.496 92.3186 177.419 92.3186 177.49 92.3186L176.595 91.2551C176.595 91.2551 183.027 94.247 189.758 103.081Z" fill="url(#paint20_linear)"/>
<g id="Vector_30" style="mix-blend-mode:multiply" opacity="0.6">
<path d="M189.758 103.081C189.758 103.081 182.914 97.4943 178.143 98.7421C176.901 99.1071 175.694 99.5816 174.536 100.16L168.458 95.8069L169.978 95.112C172.69 94.7008 181.338 96.998 181.338 96.998C178.299 94.2471 173.215 93.8075 172.931 93.7791C174.82 92.9284 176.027 92.3612 176.112 92.3612C176.538 92.3612 177.461 92.3612 177.532 92.3612L176.637 91.2977C176.637 91.2977 183.027 94.2471 189.758 103.081Z" fill="#B42F97"/>
</g>
</g>
<g id="Group_12">
<g id="Vector_31" style="mix-blend-mode:multiply" opacity="0.6">
<path d="M97.0469 184.261C97.0469 184.261 110.409 197.59 129.21 197.59C148.01 197.59 162.381 183.85 162.381 183.85L97.0469 184.261Z" fill="#B42F97"/>
</g>
<path id="Vector_32" d="M91.8924 180.078C91.8924 180.078 105.041 193.818 128.088 193.818C151.134 193.818 167.919 180.078 167.919 180.078C167.919 180.078 143.779 184.332 127.293 184.332C110.807 184.332 91.8924 180.078 91.8924 180.078Z" fill="#EF7172"/>
<path id="Vector_33" d="M129.906 178.631C115.706 174.562 106.433 185.353 92.4177 179.269C92.4177 179.269 89.8901 184.346 129.906 184.346V178.631Z" fill="#DD5656"/>
<path id="Vector_34" d="M129.906 178.631C146.079 173.13 152.157 184.729 166.158 178.631C166.158 178.631 169.935 184.303 129.906 184.303V178.631Z" fill="#DD5656"/>
<path id="Vector_35" d="M90.5007 179.369C91.2734 179.015 92.1082 178.818 92.9573 178.787C93.8803 178.887 100.739 184.346 129.877 184.346C159.015 184.346 164.951 178.447 166.13 178.674C167.308 178.901 169.296 179.397 169.296 179.397C169.296 179.397 161.827 184.686 129.877 184.686C97.9273 184.686 90.5007 179.369 90.5007 179.369Z" fill="#862254"/>
<g id="Vector_36" style="mix-blend-mode:soft-light">
<path d="M140.754 188.245L142.898 191.081C142.898 191.081 154.514 188.359 162.381 183.906L140.754 188.245Z" fill="#FFCCB8"/>
</g>
</g>
<g id="Group_13">
<g id="Group_14">
<path id="Vector_37" d="M149.402 124.748C149.516 126.038 160.35 126.875 169.552 126.379C178.441 125.897 183.169 123.77 182.616 121.132C182.062 118.495 175.686 116.949 166.03 117.701C155.451 118.523 149.132 121.713 149.402 124.748Z" fill="url(#paint21_linear)"/>
<path id="Vector_38" d="M149.7 123.401C149.7 123.401 149.445 124.819 151.859 125.726C151.859 125.726 149.019 125.514 148.806 124.876C148.593 124.237 149.7 123.401 149.7 123.401Z" fill="#DD4C6A"/>
<g id="Group_15">
<path id="Vector_39" d="M164.397 126.832C168.93 126.832 172.605 124.814 172.605 122.323C172.605 119.833 168.93 117.814 164.397 117.814C159.864 117.814 156.19 119.833 156.19 122.323C156.19 124.814 159.864 126.832 164.397 126.832Z" fill="url(#paint22_linear)"/>
<path id="Vector_40" d="M164.397 126.563C168.663 126.563 172.122 124.665 172.122 122.323C172.122 119.982 168.663 118.083 164.397 118.083C160.131 118.083 156.672 119.982 156.672 122.323C156.672 124.665 160.131 126.563 164.397 126.563Z" fill="url(#paint23_linear)"/>
<path id="Vector_41" style="mix-blend-mode:multiply" d="M164.397 125.074C167.166 125.074 169.41 123.842 169.41 122.323C169.41 120.804 167.166 119.572 164.397 119.572C161.629 119.572 159.385 120.804 159.385 122.323C159.385 123.842 161.629 125.074 164.397 125.074Z" fill="url(#paint24_linear)"/>
</g>
<path id="Vector_42" d="M171.171 121.756C170.56 121.94 173.371 121.983 175.43 121.756C177.319 121.487 178.27 121.061 178.043 120.99C175.729 120.955 173.42 121.212 171.171 121.756V121.756Z" fill="white"/>
<path id="Vector_43" d="M169.566 121.94C168.968 121.827 168.349 121.896 167.791 122.139C167.791 122.295 168.742 122.479 169.211 122.422C169.68 122.366 170.006 121.997 169.566 121.94Z" fill="white"/>
<g id="Vector_44" style="mix-blend-mode:multiply" opacity="0.6">
<path d="M150.197 122.692C150.197 122.692 163.133 117.417 182.502 120.778L182.232 120.324C182.232 120.324 181.238 118.353 167.677 118.353C154.116 118.353 150.197 122.692 150.197 122.692Z" fill="#B42F97"/>
</g>
<path id="Vector_45" d="M151.859 125.726C157.906 126.919 164.081 127.329 170.233 126.946C178.299 126.549 180.912 123.926 180.912 123.926C180.912 123.926 171.085 126.832 151.859 125.726Z" fill="#DD4C6A"/>
<path id="Vector_46" d="M151.859 121.331C151.859 121.331 156.048 116.254 166.059 115.744C176.07 115.233 180.173 118.877 180.173 118.877C180.173 118.877 162.054 116.424 151.859 121.331Z" fill="#E56D5C"/>
<path id="Vector_47" d="M150.907 122.011C150.907 122.011 154.968 119.586 166.016 119.303C177.063 119.019 182.232 120.324 182.232 120.324C182.232 120.324 182.36 119.416 181.906 119.161C181.451 118.906 159.143 115.474 150.907 122.011Z" fill="#270039"/>
<path id="Vector_48" d="M148.806 124.876C148.806 124.876 151.859 118.353 166.017 115.744C166.017 115.744 154.245 114.95 148.806 124.876Z" fill="#D43B5C"/>
</g>
<g id="Group_16">
<path id="Vector_49" d="M108.393 124.748C108.265 126.038 97.4303 126.875 88.243 126.379C79.3396 125.897 74.6253 123.77 75.1791 121.132C75.7329 118.495 82.1086 116.949 91.7646 117.701C102.273 118.523 108.691 121.713 108.393 124.748Z" fill="url(#paint25_linear)"/>
<path id="Vector_50" d="M108.094 123.401C108.094 123.401 108.35 124.819 105.936 125.726C105.936 125.726 108.776 125.514 108.975 124.876C109.174 124.237 108.094 123.401 108.094 123.401Z" fill="#DD4C6A"/>
<g id="Group_17">
<path id="Vector_51" d="M93.3976 126.832C97.9305 126.832 101.605 124.814 101.605 122.323C101.605 119.833 97.9305 117.814 93.3976 117.814C88.8646 117.814 85.19 119.833 85.19 122.323C85.19 124.814 88.8646 126.832 93.3976 126.832Z" fill="url(#paint26_linear)"/>
<path id="Vector_52" d="M93.3976 126.563C97.6638 126.563 101.122 124.665 101.122 122.323C101.122 119.982 97.6638 118.083 93.3976 118.083C89.1313 118.083 85.6728 119.982 85.6728 122.323C85.6728 124.665 89.1313 126.563 93.3976 126.563Z" fill="url(#paint27_linear)"/>
<path id="Vector_53" style="mix-blend-mode:multiply" d="M88.385 122.352C88.385 123.883 90.6286 125.188 93.3976 125.188C96.1665 125.188 98.4101 123.954 98.4101 122.352C98.4101 120.749 96.1665 119.516 93.3976 119.516C90.6286 119.516 88.385 120.806 88.385 122.352Z" fill="url(#paint28_linear)"/>
</g>
<path id="Vector_54" d="M86.6526 121.756C87.2632 121.94 84.4374 121.983 82.3926 121.756C80.5182 121.487 79.5526 121.061 79.7798 120.99C82.0939 120.956 84.403 121.213 86.6526 121.756V121.756Z" fill="white"/>
<path id="Vector_55" d="M88.2288 121.94C88.8223 121.826 89.4366 121.895 89.9896 122.139C89.9896 122.295 89.0382 122.479 88.5696 122.422C88.101 122.366 87.7886 121.997 88.2288 121.94Z" fill="white"/>
<g id="Vector_56" style="mix-blend-mode:multiply" opacity="0.6">
<path d="M107.597 122.692C107.597 122.692 94.6614 117.417 75.2927 120.778L75.5625 120.324C75.5625 120.324 76.5423 118.353 90.1174 118.353C103.693 118.353 107.597 122.692 107.597 122.692Z" fill="#B42F97"/>
</g>
<path id="Vector_57" d="M105.936 125.726C99.8889 126.918 93.7133 127.328 87.5614 126.946C79.4959 126.549 76.8831 123.926 76.8831 123.926C76.8831 123.926 86.6526 126.832 105.936 125.726Z" fill="#DD4C6A"/>
<path id="Vector_58" d="M105.936 121.331C105.936 121.331 101.676 116.254 91.7362 115.744C81.7962 115.233 77.6215 118.877 77.6215 118.877C77.6215 118.877 95.7263 116.424 105.936 121.331Z" fill="#E56D5C"/>
<path id="Vector_59" d="M106.887 122.011C106.887 122.011 102.812 119.586 91.7646 119.303C80.717 119.019 75.5625 120.324 75.5625 120.324C75.5625 120.324 75.4347 119.416 75.8891 119.161C76.3435 118.906 98.6515 115.474 106.887 122.011Z" fill="#270039"/>
<path id="Vector_60" d="M108.975 124.876C108.975 124.876 105.936 118.353 91.7646 115.744C91.7646 115.744 103.536 114.95 108.975 124.876Z" fill="#D43B5C"/>
</g>
</g>
<g id="Group_18">
<path id="Vector_61" d="M67.4259 101.337C67.4259 101.337 74.2703 95.7501 79.0415 96.9979C80.2834 97.3629 81.4904 97.8374 82.6482 98.4159C92.3041 102.982 108.677 115.588 108.677 115.588C108.677 115.588 113.888 109.575 114.442 106.64L113.505 105.903C113.505 105.903 111.048 109.944 110.139 110.355L112.028 104.683C112.028 104.683 97.8989 98.2458 88.7258 93.9918L87.2064 93.3112L84.2954 91.9783C82.4068 91.1275 81.1998 90.5603 81.1146 90.5603C80.6886 90.5603 79.7656 90.5603 79.6946 90.5603L80.6034 89.4968C80.6034 89.4968 74.1566 92.5738 67.4259 101.337Z" fill="url(#paint29_linear)"/>
<g id="Vector_62" style="mix-blend-mode:multiply" opacity="0.6">
<path d="M67.4259 101.337C67.4259 101.337 74.2703 95.7501 79.0415 96.9979C80.2834 97.3629 81.4904 97.8374 82.6482 98.4159L88.7258 94.0627L87.2064 93.3821C84.4942 92.9567 75.8465 95.268 75.8465 95.268C78.8853 92.5171 83.9688 92.0775 84.2528 92.0492C82.3642 91.1984 81.1572 90.6312 81.072 90.6312C80.646 90.6312 79.723 90.6312 79.652 90.6312L80.5608 89.5677C80.5608 89.5677 74.1566 92.5738 67.4259 101.337Z" fill="#B42F97"/>
</g>
</g>
</g>
<g id="Group_19">
<path id="Vector_63" d="M116.572 28.254C123.485 24.5893 131.262 22.8597 139.079 23.2486C152.356 23.8158 167.479 31.1751 167.479 31.1751L130.971 51.4523L114.513 45.2557L116.572 28.254Z" fill="url(#paint30_linear)"/>
<path id="Vector_64" d="M208.431 88.5042L204.782 85.7959L198.562 137.099C198.562 137.099 199.982 119.742 197.739 110.157C195.495 100.571 195.992 81.3718 195.992 81.3718C195.992 81.3718 181.962 63.8455 168.899 59.8184C168.899 59.8184 151.788 61.9028 126.1 62.8812C100.412 63.8597 85.6586 63.4343 85.6586 63.4343C85.6586 63.4343 68.5051 73.1616 63.1092 82.9032C63.1092 82.9032 63.2369 97.6361 62.8393 105.407C62.4418 113.177 58.6787 139.835 58.6787 139.835C58.6727 139.741 58.6727 139.646 58.6787 139.552C58.4657 136.219 56.3358 104.669 54.078 91.638C54.007 91.1842 53.9218 90.7163 53.865 90.22C53.6094 88.5893 53.4106 86.9161 53.2544 85.2429C53.2614 85.1959 53.2614 85.1481 53.2544 85.1011C52.8092 79.6726 52.7048 74.2216 52.942 68.7801V67.8867C52.942 67.6031 52.942 67.3195 52.942 67.0643C52.942 66.8091 52.942 66.568 52.942 66.3553V65.6605C52.942 65.15 53.013 64.6537 53.0414 64.2425C53.0698 63.8313 53.0414 63.7888 53.0414 63.5902V63.4768C53.0414 63.2641 53.0414 63.0798 53.0414 62.9096C53.0414 62.5126 53.0698 62.2148 53.1266 62.0163V61.8887C53.1236 61.832 53.1236 61.7752 53.1266 61.7185L53.581 61.8603L56.7476 68.1562V68.0852L56.9606 67.8442C57.8694 66.7382 60.8087 63.2641 65.0261 58.7407L65.7077 57.9892L65.9065 57.7765L67.2555 56.3585L67.6531 55.9473C71.7285 51.6933 76.6701 46.8155 82.0092 42.2212L82.1086 42.1361C82.2932 41.9801 82.4778 41.81 82.6624 41.6682C84.5794 40.0233 86.5532 38.4068 88.5554 36.8896C99.6116 28.6779 111.779 22.0751 124.694 17.2788H133.413C133.413 17.2788 123.274 34.4932 121.045 45.2699C121.357 44.5751 131.184 22.2134 139.221 17.2788C144.902 16.8401 150.598 17.9218 155.721 20.4126C155.721 20.4126 141.052 33.1745 137.432 43.1004C138.042 42.5899 162.196 21.8306 179.804 32.6782C176.43 32.0078 172.976 31.8359 169.552 32.1677C169.552 32.1677 174.649 34.3514 182.616 43.5116C183.794 44.8445 185.115 46.5035 186.521 48.3611C195.083 59.1378 206.188 77.3447 208.431 88.5042Z" fill="url(#paint31_linear)"/>
<path id="Vector_65" d="M128.528 62.7961C128.528 62.7961 150.836 16.3997 180.244 32.664C180.244 32.664 152.341 30.4377 132.632 62.6118L128.528 62.7961Z" fill="url(#paint32_linear)"/>
<path id="Vector_66" d="M139.618 17.2079C139.618 17.2079 121.641 36.606 119 62.7961H128.528C128.528 62.7961 130.63 37.2724 149.757 18.0871C146.41 17.4978 143.017 17.2036 139.618 17.2079V17.2079Z" fill="url(#paint33_linear)"/>
<path id="Vector_67" d="M125.092 17.2079C125.092 17.2079 110.764 37.3574 109.614 63.3491C112.225 46.7051 118.702 30.9028 128.528 17.2079H125.092Z" fill="url(#paint34_linear)"/>
<path id="Vector_68" d="M55.4128 67.5606C58.1659 72.159 61.1616 76.6083 64.3871 80.8896L63.1233 82.8748V88.5467C58.9439 86.2465 55.5546 82.7434 53.3963 78.4932V61.6901L55.4128 67.5606Z" fill="url(#paint35_linear)"/>
<path id="Vector_69" d="M80.0922 43.9937C80.0922 43.9937 73.0917 52.5016 71.3167 73.5445L74.7388 70.7085C74.7388 70.7085 74.1566 52.8703 85.2326 39.7255L80.0922 43.9937Z" fill="url(#paint36_linear)"/>
<path id="Vector_70" d="M147.783 61.6901C147.783 61.6901 161.628 43.6817 185.129 43.2563L183.922 44.5325L192.3 46.5886C183.49 48.8994 175.428 53.4472 168.899 59.79L147.783 61.6901Z" fill="url(#paint37_linear)"/>
<g id="Vector_71" style="mix-blend-mode:multiply" opacity="0.6">
<path d="M149.43 59.8042H168.899C168.899 59.8042 151.788 61.8886 126.1 62.867C100.412 63.8455 85.6586 63.4201 85.6586 63.4201C85.6586 63.4201 68.5051 73.1474 63.1091 82.889C63.1091 82.889 63.2369 97.6219 62.8393 105.392C62.4417 113.163 58.6787 139.821 58.6787 139.821C58.6727 139.727 58.6727 139.632 58.6787 139.538C58.3521 136.163 55.4128 104.301 53.865 90.2483C53.6236 88.1214 53.4248 86.4056 53.2544 85.2712C53.2614 85.2242 53.2614 85.1764 53.2544 85.1294C52.6704 79.4096 52.5801 73.6503 52.9846 67.9151C52.9846 67.6315 52.9846 67.3479 52.9846 67.0926C52.9846 66.8374 52.9846 66.5963 52.9846 66.3836V65.6888C52.9846 65.1783 53.0555 64.682 53.0839 64.2708C53.1123 63.8596 53.0839 63.8171 53.0839 63.6186V63.5051C53.0839 63.2924 53.0839 63.1081 53.0839 62.9379C53.0839 62.5409 53.1124 62.2431 53.1692 62.0446V61.917C53.1662 61.8603 53.1662 61.8035 53.1692 61.7468L53.6235 61.8886L56.7901 68.1845V68.1136C57.6279 67.1635 62.1435 61.9737 65.7503 58.0175L65.9491 57.8048L67.2981 56.3868C71.5581 52.1329 79.6946 44.4474 82.0518 42.207L82.1512 42.1219L82.705 41.5973C81.7252 52.3456 84.8634 59.1236 84.8634 59.1236C103.692 60.7117 149.43 59.8042 149.43 59.8042Z" fill="#8C2F7E"/>
</g>
<g id="Vector_72" style="mix-blend-mode:multiply" opacity="0.6">
<path d="M208.431 88.5042L204.782 85.7959L198.562 137.099C198.562 137.099 199.982 119.742 197.739 110.157C195.495 100.571 195.992 81.3718 195.992 81.3718C195.992 81.3718 181.962 63.8454 168.899 59.8184L170.049 58.7265L186.904 48.3327C195.083 59.1377 206.188 77.3447 208.431 88.5042Z" fill="#8C2F7E"/>
</g>
<path id="Vector_73" d="M184.078 69.1345C187.599 67.9214 191.321 67.3967 195.041 67.5889C196.96 67.7406 198.814 68.3586 200.44 69.3892C202.066 70.4198 203.415 71.8317 204.37 73.5019C198.639 71.7842 192.649 71.0929 186.677 71.46L184.078 69.1345Z" fill="url(#paint38_linear)"/>
<path id="Vector_74" d="M69.6127 75.0475C69.6127 75.0475 57.8552 63.3491 64.3587 49.5238C64.3587 49.5238 66.2899 57.6914 71.4587 72.2115L69.6127 75.0475Z" fill="url(#paint39_linear)"/>
</g>
</g>
<g id="Group_20">
<path id="Vector_75" d="M59.6728 226.545C59.5047 226.419 59.3107 226.332 59.1048 226.29C58.3096 223.274 57.4434 220.292 56.5062 217.342L54.9016 217.981C55.2282 217.853 56.6624 222.844 57.7416 226.971C57.0664 228.193 56.5419 229.493 56.1796 230.842C55.3137 233.266 54.6859 235.769 54.3052 238.314C53.9075 240.851 53.7506 243.42 53.8366 245.986C53.8366 247.262 53.9786 248.552 54.1348 249.814C54.4867 250.996 54.7011 252.214 54.7738 253.444C55.2022 251.95 55.8278 250.52 56.634 249.19C56.4064 250.752 56.0936 252.3 55.6968 253.827C55.4484 255.662 55.4484 257.522 55.6968 259.357C56.1645 263.626 56.8805 267.863 57.841 272.048L58.7356 269C58.707 270.473 58.7781 271.946 58.9485 273.41C59.9141 280.287 65.0687 285.207 66.5597 291.928C69.9109 286.852 70.6067 279.89 70.8197 273.324C70.9199 271.78 70.8485 270.23 70.6067 268.702C70.3177 267.401 69.8842 266.135 69.3145 264.93C68.2701 262.548 67.0895 260.228 65.7787 257.982L70.8907 266.858C72.4669 257.84 69.5701 248.425 65.2959 240.881C66.9487 243.364 68.4656 245.934 69.8399 248.581C69.9961 239.633 65.8923 230.842 59.6728 226.545Z" fill="#D37F39"/>
<path id="Vector_76" d="M47.0064 152.569C47.9294 178.802 56.5346 204.184 55.8672 230.43C55.7072 236.317 55.0804 242.183 53.9928 247.971C58.9343 234.713 58.7071 219.37 56.8327 204.949C54.9584 190.528 51.451 176.462 50.173 161.942C48.3128 140.842 52.1042 122.238 57.4575 102.542C51.593 104.712 50.3576 117.332 49.1506 123.699C47.3911 133.216 46.6722 142.896 47.0064 152.569V152.569Z" fill="#4C4C4C"/>
<path id="Vector_77" d="M198.165 106.413C199.491 111.507 202.029 116.206 205.563 120.111C209.453 124.365 214.281 126.917 218.456 130.675C226.692 138.091 232.102 150.13 232.869 162.722C235.081 154.006 236.441 145.098 236.93 136.12C237.441 126.917 236.859 116.992 232.372 109.646C229.437 105.096 225.258 101.48 220.331 99.2242C215.748 96.9259 210.798 95.4478 205.705 94.8568C202.098 94.4456 198.321 94.4456 195.14 92.3045C200.163 91.3212 205.26 90.7521 210.376 90.6029C219.535 90.3476 228.836 91.4962 237.427 95.5517C240.75 97.1256 243.931 99.125 247.282 100.628C254.382 103.818 261.993 104.726 269.008 108.115C256.427 85.5974 235.397 70.8929 213.415 68.4114C206.159 67.6174 197.952 68.5532 193.124 75.3312C191.244 77.899 190.338 81.0496 190.568 84.222C190.908 87.4266 193.095 90.4185 195.708 90.4611L198.165 106.413Z" fill="#3A3A3A"/>
<g id="Group_21">
<path id="Vector_78" d="M196.063 92.9709L195.949 92.2619L195.14 92.4179C195.436 92.6208 195.744 92.8055 196.063 92.9709V92.9709Z" fill="#282828"/>
<path id="Vector_79" d="M205.563 120.21C209.453 124.464 214.281 127.031 218.456 130.789C226.266 137.878 231.534 149.01 232.656 160.878C233.026 158.958 233.211 157.006 233.21 155.05C232.995 149.6 231.732 144.242 229.49 139.268C226.162 131.04 221.744 123.295 216.355 116.24C214.935 114.453 213.515 111.376 215.162 109.902C217.192 108.016 220.387 112.624 222.347 110.625C222.708 110.138 222.927 109.562 222.982 108.96C223.037 108.357 222.926 107.751 222.659 107.207C222.152 106.216 221.327 105.422 220.316 104.953C218.229 103.847 215.772 103.535 214.196 101.45C213.176 99.7637 212.343 97.9712 211.711 96.1046C209.72 95.5807 207.694 95.2016 205.648 94.9703C202.396 94.5874 198.988 94.559 196.006 92.9709L198.108 106.513C199.447 111.613 202.005 116.313 205.563 120.21V120.21Z" fill="#282828"/>
<path id="Vector_80" d="M268.61 107.534C267.894 106.94 267.089 106.461 266.225 106.116C263.112 104.629 260.181 102.787 257.492 100.628C253.672 97.5652 250.236 93.8359 246.515 90.5887C236.029 81.0864 222.447 75.7055 208.289 75.4446C203.859 75.4446 199.144 76.0969 195.665 79.5142C193.608 81.696 192.142 84.3656 191.405 87.2706C191.744 88.1651 192.318 88.9513 193.069 89.5456C193.819 90.1399 194.716 90.5199 195.665 90.6454L195.907 92.2903C200.668 91.4021 205.492 90.8854 210.334 90.7447C219.493 90.4895 228.794 91.638 237.385 95.6934C240.708 97.2674 243.888 99.2668 247.24 100.77C254.339 103.96 261.951 104.868 268.965 108.243C268.88 107.987 268.752 107.761 268.61 107.534Z" fill="#282828"/>
</g>
<path id="Vector_81" d="M96.2944 90.2058C109.448 87.5039 122.815 85.9712 136.239 85.6258C148.287 85.3093 160.319 86.6937 171.98 89.7379C185.001 93.1411 192.698 102.145 198.69 115.786C202.552 104.442 200.877 94.162 200.792 85.6825C200.792 82.5629 201.005 79.4433 200.99 76.3238C200.99 60.967 195.85 43.6108 187.046 32.82C178.242 22.0291 154.897 -7.30901 114.399 2.12059C98.0723 5.79463 83.2294 14.2876 71.7995 26.4957C48.469 52.1471 53.0982 72.3392 52.4308 82.0524C53.4106 82.1659 54.0212 83.4704 53.9786 84.7182C53.8496 85.9014 53.5283 87.0557 53.0272 88.1356C51.6584 91.8599 51.0632 95.8236 51.278 99.7851C51.4929 103.747 52.5132 107.623 54.2768 111.178C57.5996 104.683 66.0485 100.812 71.6149 98.0757C79.4703 94.4087 87.7645 91.7638 96.2944 90.2058V90.2058Z" fill="#303030"/>
<path id="Vector_82" opacity="0.36" d="M200.621 115.474C204.526 104.13 202.836 93.8501 202.751 85.3705C202.751 82.2368 202.964 79.1314 202.95 76.0118C202.95 60.655 197.753 43.2989 188.849 32.508C181.849 24.0001 165.732 4.06323 139.235 0.504089C154.855 8.48735 168.103 23.7307 183.453 33.1178C185.896 34.5357 188.494 36.0813 190.056 38.7897C178.181 35.5259 166.077 33.1559 153.847 31.6998C137.46 29.7571 119.866 29.828 105.893 40.5196C117.253 46.8155 132.348 37.6836 142.416 46.7729C139.61 45.4342 136.48 44.9232 133.394 45.3C130.307 45.6768 127.392 46.9257 124.992 48.8999C143.23 48.4913 161.334 52.1031 178.015 59.4781C180.684 60.655 183.794 62.6969 183.794 66.1852C175.856 69.0211 167.379 67.4188 159.129 66.6673C145.123 65.3832 130.999 66.6614 117.452 70.4391C139.587 70.6782 161.648 73.0525 183.326 77.529C183.979 79.6844 181.054 80.4643 179.236 79.9396C150.566 71.6728 120.59 77.3163 91.5516 83.2577C82.6766 85.0727 73.6313 86.987 65.7503 92.2477C60.45 96.0094 55.9994 100.84 52.6864 106.428C53.1555 107.953 53.759 109.433 54.4898 110.852C57.8552 104.343 66.4035 100.486 72.0409 97.7495C79.9924 94.0942 88.3755 91.4594 96.9901 89.908C110.306 87.2096 123.834 85.6818 137.417 85.3421C149.598 85.0146 161.766 86.3795 173.57 89.3976C186.776 92.8149 194.572 101.819 200.621 115.474Z" fill="#231D1C"/>
<path id="Vector_83" opacity="0.21" d="M82.847 24.8792C75.5634 32.1631 69.7157 40.7492 65.6083 50.1903C65.1005 51.1796 64.7917 52.2587 64.6995 53.3666C64.6474 53.8992 64.7544 54.4353 65.0072 54.9072C65.2599 55.3792 65.647 55.7658 66.1195 56.0182C66.4626 56.0827 66.8151 56.0784 67.1564 56.0053C67.4977 55.9323 67.8211 55.792 68.1075 55.5928C73.1372 53.061 78.4595 51.156 83.9546 49.9208C83.1398 51.3841 81.8391 52.5175 80.2768 53.1255L62.4701 62.2431C62.1335 62.4393 61.7624 62.5693 61.3768 62.626C60.3402 62.626 59.4739 61.52 59.2609 60.258C59.1238 58.9868 59.2593 57.701 59.6585 56.4861C62.5695 45.6953 68.8885 36.8896 75.4347 28.9063C80.1206 23.2344 86.6384 15.8041 93.7383 16.4564C93.8235 19.0088 90.8984 19.108 89.4784 19.8028C87.0091 21.1281 84.77 22.8423 82.847 24.8792Z" fill="white"/>
<path id="Vector_84" opacity="0.21" d="M108.35 68.0002C106.878 66.5748 104.966 65.69 102.926 65.4904C114.854 59.9319 127.861 59.4214 140.598 58.9677C135.174 55.9615 128.968 56.2451 123.047 56.8265C114.549 57.666 106.105 58.9869 97.757 60.7827C97.1099 60.8394 96.4836 61.0394 95.9236 61.3681C95.3635 61.6967 94.8839 62.1458 94.5194 62.6828C94.1928 63.2783 94.0508 64.0157 93.6816 64.5687C93.2718 65.114 92.7153 65.532 92.077 65.774L69.7547 76.6641C65.4947 78.7627 57.0884 80.5778 56.634 87.8378C56.1796 95.0979 64.7563 85.4273 67.0709 83.8391C72.9993 79.781 79.3565 76.3858 86.0278 73.7147C89.6276 72.2744 93.318 71.0713 97.0753 70.113C98.9497 69.6309 106.873 66.5964 108.35 68.0002Z" fill="white"/>
<path id="Vector_85" d="M48.3128 251.729C49.1329 250.515 50.1392 249.439 51.2948 248.538C50.6406 249.884 49.9007 251.186 49.0796 252.438C48.3068 254.083 47.7759 255.831 47.5034 257.627C46.6901 261.845 46.1259 266.106 45.8136 270.389L47.5318 267.95C47.0681 269.34 46.7074 270.762 46.4526 272.204C45.345 279.053 48.7104 285.959 48.1566 292.907C52.7574 289.66 55.4412 283.491 57.5285 277.465C58.0758 276.043 58.4616 274.563 58.6787 273.055C58.7826 271.689 58.7445 270.316 58.5652 268.957C58.2952 266.246 57.8733 263.553 57.3013 260.889L59.4739 271.467C63.5777 263.767 63.6203 253.685 61.8311 244.724C62.6405 247.744 63.2511 250.835 63.8191 253.955C65.1497 249.794 65.5582 245.395 65.0163 241.061C64.4744 236.727 62.9951 232.562 60.6809 228.856C59.2609 226.715 57.3298 229.934 56.208 231.31C54.6729 233.199 53.3536 235.254 52.2746 237.435C51.1646 239.656 50.2706 241.978 49.605 244.369C49.2784 245.589 48.9944 246.822 48.7672 248.084C48.7489 249.312 48.5965 250.534 48.3128 251.729V251.729Z" fill="#CEA24A"/>
<path id="Vector_86" d="M58.7072 218.775L60.3827 218.902C60.4563 230.846 59.3816 242.769 57.1735 254.508C56.4777 258.18 55.6683 261.839 54.859 265.483C53.5526 271.339 52.303 277.224 50.9398 283.08C51.9196 275.607 53.0982 268.517 54.5608 261.158C56.4497 252.194 57.7682 243.12 58.5083 233.99C58.5935 232.628 59.261 218.775 58.7072 218.775Z" fill="#F4BD5B"/>
<path id="Vector_87" d="M53.7088 226.488C53.4471 226.585 53.2166 226.751 53.0416 226.968C52.8666 227.186 52.7537 227.446 52.7148 227.722C52.7185 227.944 52.7936 228.159 52.9292 228.335C53.0647 228.512 53.2534 228.64 53.4674 228.7C53.8746 228.749 54.2852 228.643 54.6176 228.403C54.1774 228.984 53.2828 229.154 53.1976 229.948C53.188 230.186 53.2668 230.419 53.4188 230.602C53.5709 230.785 53.7854 230.906 54.0212 230.941C54.4514 230.942 54.872 230.813 55.2282 230.572C57.2366 229.537 59.4072 228.851 61.6465 228.544C61.9449 228.531 62.2341 228.438 62.4843 228.275C62.65 228.127 62.7719 227.936 62.837 227.724C62.902 227.511 62.9077 227.285 62.8535 227.07C62.8367 226.969 62.798 226.874 62.7401 226.79C62.6821 226.706 62.6065 226.636 62.5184 226.584C62.4303 226.533 62.332 226.502 62.2304 226.492C62.1288 226.483 62.0264 226.496 61.9305 226.531C62.1839 226.432 62.4127 226.279 62.6014 226.083C62.7901 225.887 62.9343 225.653 63.0239 225.397C63.9327 221.922 54.6033 226.035 53.7088 226.488Z" fill="#282828"/>
<g id="Group_22">
<path id="Vector_88" d="M61.6466 205.36C61.6466 209.458 58.9769 212.776 55.6684 212.776C52.3598 212.776 49.6902 209.458 49.6902 205.36C49.6902 201.262 52.3598 197.93 55.6684 197.93C58.9769 197.93 61.6466 201.262 61.6466 205.36Z" fill="#B24930"/>
<path id="Vector_89" d="M59.3035 199.462C59.9003 200.675 60.2066 202.01 60.1981 203.361C60.1981 207.459 57.5143 210.777 54.2058 210.777C52.8434 210.758 51.541 210.215 50.5706 209.26C51.0054 210.264 51.7138 211.126 52.615 211.747C53.5163 212.369 54.5742 212.726 55.6684 212.777C58.9769 212.777 61.6465 209.458 61.6465 205.36C61.6699 204.271 61.4746 203.188 61.0722 202.175C60.6698 201.161 60.0684 200.239 59.3035 199.462Z" fill="#893727"/>
<path id="Vector_90" opacity="0.13" d="M52.7432 201.844C52.1048 202.963 51.8179 204.247 51.9196 205.531C51.8867 205.795 51.9209 206.063 52.0189 206.311C52.1129 206.47 52.258 206.593 52.4306 206.66C52.6032 206.727 52.7934 206.733 52.9704 206.679C53.1797 206.651 53.3801 206.577 53.5569 206.461C53.7338 206.346 53.8827 206.193 53.9928 206.013C54.3052 205.375 54.1206 204.595 54.3194 203.843C54.6034 202.836 55.5689 202.425 56.0233 201.489C56.0597 201.439 56.0848 201.381 56.097 201.32C56.1093 201.259 56.1084 201.196 56.0944 201.135C56.0715 201.071 56.0316 201.015 55.979 200.973C55.9265 200.93 55.8632 200.903 55.7961 200.894C55.2519 200.711 54.6637 200.704 54.1155 200.875C53.5673 201.046 53.087 201.385 52.7432 201.844V201.844Z" fill="white"/>
</g>
<g id="Group_23">
<path id="Vector_91" d="M57.2304 177.653C57.2304 181.751 54.5466 185.083 51.2522 185.083C47.9578 185.083 45.274 181.751 45.274 177.653C45.274 173.555 47.9436 170.223 51.2522 170.223C54.5608 170.223 57.2304 173.484 57.2304 177.653Z" fill="#B24930"/>
<path id="Vector_92" d="M54.8874 171.683C55.473 172.9 55.774 174.233 55.7678 175.583C55.7678 179.681 53.0982 183.013 49.7896 183.013C48.4259 182.988 47.1243 182.439 46.1544 181.482C46.5872 182.488 47.2946 183.353 48.196 183.977C49.0974 184.602 50.1565 184.96 51.2522 185.012C54.5466 185.012 57.2304 181.68 57.2304 177.582C57.2537 176.493 57.0584 175.409 56.656 174.396C56.2536 173.383 55.6523 172.461 54.8874 171.683V171.683Z" fill="#893727"/>
<path id="Vector_93" opacity="0.13" d="M48.3128 174.066C47.6768 175.186 47.3854 176.468 47.475 177.752C47.4561 178.016 47.4899 178.281 47.5744 178.532C47.6709 178.693 47.8184 178.816 47.9935 178.883C48.1685 178.95 48.361 178.956 48.54 178.901C48.7456 178.857 48.9388 178.768 49.1058 178.641C49.2728 178.513 49.4093 178.35 49.5056 178.163C49.818 177.525 49.6334 176.745 49.8322 175.994C50.1162 174.987 51.0818 174.576 51.5362 173.64C51.5725 173.589 51.5976 173.532 51.6099 173.47C51.6221 173.409 51.6212 173.346 51.6072 173.286C51.5798 173.225 51.5386 173.172 51.4868 173.13C51.435 173.088 51.3741 173.059 51.309 173.045C50.7653 172.882 50.1844 172.893 49.6473 173.076C49.1102 173.259 48.6437 173.605 48.3128 174.066V174.066Z" fill="white"/>
</g>
<g id="Group_24">
<path id="Vector_94" d="M52.8426 167.132C52.714 167.722 52.4207 168.265 51.9966 168.696C51.5724 169.127 51.0348 169.43 50.4456 169.569C49.8565 169.709 49.2399 169.679 48.6672 169.483C48.0944 169.287 47.5888 168.933 47.2087 168.463C46.8286 167.992 46.5896 167.424 46.5192 166.824C46.4488 166.223 46.5499 165.615 46.8109 165.069C47.0719 164.524 47.4821 164.063 47.9941 163.741C48.5061 163.418 49.099 163.247 49.7044 163.246C50.6318 163.357 51.4791 163.825 52.0655 164.551C52.6518 165.277 52.9307 166.203 52.8426 167.132Z" fill="#CEA24A"/>
<path id="Vector_95" d="M51.6072 164.04C51.9199 164.68 52.0803 165.384 52.0758 166.096C52.1639 167.025 51.885 167.951 51.2987 168.677C50.7123 169.403 49.865 169.871 48.9376 169.982C48.2261 169.964 47.547 169.681 47.0348 169.188C47.2626 169.713 47.6335 170.165 48.1054 170.491C48.5773 170.817 49.1313 171.004 49.7044 171.031C50.6345 170.92 51.4841 170.45 52.0708 169.721C52.6575 168.992 52.9346 168.062 52.8426 167.132C52.8553 166.56 52.7525 165.991 52.5402 165.46C52.3279 164.929 52.0106 164.446 51.6072 164.04V164.04Z" fill="#B28A42"/>
<path id="Vector_96" opacity="0.13" d="M48.1708 165.302C47.8385 165.888 47.6854 166.559 47.7306 167.231C47.7018 167.366 47.7018 167.506 47.7306 167.642C47.7784 167.726 47.8545 167.791 47.9454 167.825C48.0364 167.858 48.1363 167.859 48.2276 167.826C48.3354 167.803 48.4368 167.757 48.525 167.691C48.6133 167.625 48.6861 167.54 48.7388 167.444C48.9092 167.117 48.8098 166.678 48.9092 166.309C49.0086 165.94 49.5624 165.543 49.8038 165.075C49.8233 165.016 49.8233 164.951 49.8038 164.891C49.7915 164.858 49.7706 164.829 49.7431 164.806C49.7156 164.784 49.6827 164.769 49.6476 164.764C49.3756 164.698 49.0904 164.714 48.8277 164.81C48.565 164.906 48.3364 165.077 48.1708 165.302V165.302Z" fill="white"/>
</g>
<path id="Vector_97" d="M49.8464 191.266C50.1549 193.181 50.6642 195.058 51.3658 196.867C51.4808 197.245 51.669 197.596 51.9196 197.902C52.1497 198.109 52.4279 198.255 52.729 198.327C53.7818 198.632 54.8995 198.632 55.9524 198.327C56.1513 198.289 56.3286 198.178 56.4494 198.015C56.563 197.831 57.8694 196.002 57.2304 191.237C56.936 189.589 56.5231 187.963 55.995 186.374C55.8535 185.87 55.6331 185.391 55.3418 184.956C55.1021 184.564 54.7632 184.242 54.3593 184.023C53.9555 183.804 53.5008 183.695 53.0414 183.708C49.8464 183.949 49.4062 188.104 49.8464 191.266Z" fill="#CEA24A"/>
<path id="Vector_98" opacity="0.45" d="M51.1528 188.075C51.0034 189.509 51.1583 190.959 51.6072 192.329C51.7123 192.723 51.9066 193.086 52.1752 193.393C52.2909 193.527 52.4527 193.613 52.6288 193.634C52.8049 193.655 52.9825 193.609 53.1266 193.506C53.2604 193.37 53.3598 193.203 53.4166 193.021C53.4734 192.838 53.4859 192.645 53.4532 192.457C53.4049 192.071 53.3194 191.691 53.1976 191.322C52.9422 190.4 52.8699 189.437 52.9846 188.486C53.0698 187.792 53.6236 186.657 53.2118 186.019C52.2746 184.658 51.2238 187.154 51.1528 188.075Z" fill="white"/>
</g>
<g id="Group_25">
<path id="Vector_99" d="M99.1769 168.124C93.7667 170.847 89.9044 174.874 85.4172 178.376C80.93 181.879 75.179 185.041 68.6329 185.097C67.5175 185.174 66.4005 184.974 65.3811 184.516C64.4723 184.006 63.9611 182.999 64.6143 182.304C63.1943 184.133 64.5149 186.558 66.7159 187.891C71.0752 190.542 77.7066 189.89 82.7192 187.891C87.7318 185.891 91.8213 182.942 96.7629 180.9C102.1 178.768 107.833 177.801 113.576 178.064C117.907 178.249 122.55 179.057 126.356 177.554C129.877 176.136 131.737 172.874 130.545 170.081C126.938 161.573 106.291 164.537 99.1769 168.124Z" fill="#3D3D3D"/>
<path id="Vector_100" d="M158.206 167.202C163.886 169.613 168.146 173.427 172.974 176.675C177.802 179.922 183.851 182.758 190.397 182.46C191.506 182.47 192.6 182.201 193.578 181.68C194.43 181.141 194.799 180.106 194.118 179.44C195.694 181.198 194.643 183.694 192.584 185.112C188.509 187.948 181.82 187.706 176.637 186.047C171.455 184.388 167.053 181.609 161.926 179.851C156.445 178.018 150.64 177.356 144.886 177.908C140.627 178.319 136.04 179.326 132.107 178.107C128.457 176.93 126.27 173.725 127.165 170.875C129.849 162.183 150.737 164.026 158.206 167.202Z" fill="#3D3D3D"/>
<path id="Vector_101" d="M194.856 181.056C194.448 181.634 193.944 182.138 193.365 182.545C189.29 185.381 182.601 185.14 177.418 183.481C172.236 181.822 167.819 179.043 162.693 177.284C157.186 175.572 151.405 174.913 145.653 175.342C133.896 175.937 128.812 170.747 128.613 171.215C128.301 172.236 116.842 175.724 112.511 175.554C106.768 175.291 101.035 176.258 95.6979 178.39C90.7564 180.432 86.6526 183.438 81.6542 185.381C76.6559 187.324 70.0103 187.99 65.6509 185.381C65.0297 184.999 64.4736 184.52 64.0037 183.963C64.0947 184.787 64.3871 185.576 64.855 186.261C65.323 186.946 65.9522 187.506 66.6875 187.891C71.0327 190.542 77.6782 189.89 82.6908 187.891C87.7034 185.891 91.7929 182.942 96.7203 180.9C102.063 178.768 107.8 177.801 113.547 178.064C117.878 178.249 122.522 179.057 126.327 177.554C127.189 177.22 127.986 176.74 128.684 176.136C129.619 177.029 130.746 177.699 131.979 178.093C135.955 179.369 140.499 178.305 144.759 177.894C150.512 177.34 156.318 178.002 161.799 179.837C166.925 181.595 171.327 184.374 176.51 186.033C181.693 187.692 188.395 187.99 192.456 185.097C193.174 184.69 193.772 184.104 194.193 183.395C194.614 182.686 194.843 181.88 194.856 181.056Z" fill="#282828"/>
</g>
<g id="Group_26">
<path id="Vector_102" d="M114.811 227.013C118.574 230.501 123.09 233.337 126.384 237.223C128.764 240.024 130.413 243.37 131.184 246.963C131.954 250.555 131.823 254.282 130.8 257.812C132.845 256.601 134.59 254.944 135.903 252.965C137.216 250.986 138.064 248.736 138.383 246.383L138.894 253.118C153.804 236.726 159.612 213.727 154.06 192.996C150.524 192.811 147.144 194.173 143.779 195.193C132.459 198.566 120.36 198.273 109.216 194.357C104.275 192.584 103.11 193.322 102.841 197.93C102.637 201.6 103.006 205.278 103.934 208.834C105.742 215.809 109.517 222.119 114.811 227.013V227.013Z" fill="#3D3D3D"/>
<path id="Vector_103" d="M154.06 192.996C152.314 192.944 150.571 193.159 148.891 193.634C149.576 206.594 146.287 219.456 139.462 230.501C139.839 227.531 139.392 224.515 138.17 221.781C137.67 228.381 136.097 234.856 133.512 240.952C133.679 236.92 132.886 232.906 131.198 229.239C130.999 230.657 130.814 232.075 130.63 233.493C129.125 229.055 124.694 226.02 120.25 223.78C115.805 221.54 110.977 219.682 107.47 216.321C106.897 215.765 106.361 215.173 105.865 214.549C107.94 219.269 110.966 223.512 114.754 227.013C118.517 230.501 123.033 233.337 126.327 237.223C128.707 240.024 130.356 243.37 131.127 246.963C131.898 250.555 131.766 254.282 130.743 257.812C132.789 256.601 134.533 254.944 135.846 252.965C137.159 250.986 138.007 248.735 138.326 246.383L138.837 253.118C153.804 236.726 159.612 213.727 154.06 192.996Z" fill="#282828"/>
<path id="Vector_104" d="M119.312 218.775C118.358 217.566 117.596 216.217 117.055 214.776C120.207 217.555 123.203 220.471 126.043 223.525C125.498 221.248 124.796 219.012 123.942 216.832C124.538 217.541 125.12 218.25 125.702 218.987C123.287 215.101 121.549 210.834 120.562 206.367C119.786 209.215 119.835 212.224 120.704 215.045C117.942 211.196 116.008 206.817 115.024 202.184C114.421 205.365 114.421 208.631 115.024 211.812C114.555 209.402 112.567 206.778 111.744 204.382C111.034 202.354 110.863 199.703 109.784 197.888C107.668 200.397 108.719 205.587 109.713 208.338C111.412 212.944 114.861 216.694 119.312 218.775V218.775Z" fill="#494949"/>
</g>
</g>
<defs>
<linearGradient id="paint0_linear" x1="129.906" y1="272.119" x2="129.906" y2="193.18" gradientUnits="userSpaceOnUse">
<stop stop-color="#FFB381"/>
<stop offset="0.23" stop-color="#FF9B7D"/>
<stop offset="0.48" stop-color="#FF877A"/>
<stop offset="0.74" stop-color="#FF7B78"/>
<stop offset="1" stop-color="#FF7777"/>
</linearGradient>
<linearGradient id="paint1_linear" x1="157.141" y1="254.352" x2="157.141" y2="199.929" gradientUnits="userSpaceOnUse">
<stop stop-color="#FFEADB"/>
<stop offset="0.99" stop-color="#D177F4"/>
</linearGradient>
<linearGradient id="paint2_linear" x1="16962.5" y1="6634.59" x2="16962.5" y2="6395.32" gradientUnits="userSpaceOnUse">
<stop stop-color="#FFEADB"/>
<stop offset="0.99" stop-color="#D177F4"/>
</linearGradient>
<linearGradient id="paint3_linear" x1="12502.3" y1="7046.05" x2="12502.3" y2="6774.44" gradientUnits="userSpaceOnUse">
<stop stop-color="#FFEADB"/>
<stop offset="0.99" stop-color="#D177F4"/>
</linearGradient>
<linearGradient id="paint4_linear" x1="202.084" y1="167.826" x2="202.084" y2="125.273" gradientUnits="userSpaceOnUse">
<stop stop-color="#FF847C"/>
<stop offset="0.03" stop-color="#FF837A"/>
<stop offset="0.35" stop-color="#FF7466"/>
<stop offset="0.68" stop-color="#FF6B5A"/>
<stop offset="1" stop-color="#FF6856"/>
</linearGradient>
<linearGradient id="paint5_linear" x1="4541.14" y1="6043.86" x2="4541.14" y2="5700.59" gradientUnits="userSpaceOnUse">
<stop stop-color="#FFEADB"/>
<stop offset="0.99" stop-color="#D177F4"/>
</linearGradient>
<linearGradient id="paint6_linear" x1="2473.96" y1="4712.99" x2="2473.96" y2="4506.72" gradientUnits="userSpaceOnUse">
<stop stop-color="#FFEADB"/>
<stop offset="0.99" stop-color="#D177F4"/>
</linearGradient>
<linearGradient id="paint7_linear" x1="1681.74" y1="11807.5" x2="1681.74" y2="10552.7" gradientUnits="userSpaceOnUse">
<stop stop-color="#FF847C"/>
<stop offset="0.03" stop-color="#FF837A"/>
<stop offset="0.35" stop-color="#FF7466"/>
<stop offset="0.68" stop-color="#FF6B5A"/>
<stop offset="1" stop-color="#FF6856"/>
</linearGradient>
<linearGradient id="paint8_linear" x1="1191.28" y1="5999.96" x2="1191.28" y2="5662.19" gradientUnits="userSpaceOnUse">
<stop stop-color="#FFEADB"/>
<stop offset="0.99" stop-color="#D177F4"/>
</linearGradient>
<linearGradient id="paint9_linear" x1="371.469" y1="4676.83" x2="371.469" y2="4473.97" gradientUnits="userSpaceOnUse">
<stop stop-color="#FFEADB"/>
<stop offset="0.99" stop-color="#D177F4"/>
</linearGradient>
<linearGradient id="paint10_linear" x1="128.273" y1="223.014" x2="128.273" y2="41.7532" gradientUnits="userSpaceOnUse">
<stop stop-color="#E9A691"/>
<stop offset="0.08" stop-color="#ECA78E"/>
<stop offset="0.51" stop-color="#F9AB80"/>
<stop offset="0.57" stop-color="#FAA67D"/>
<stop offset="0.78" stop-color="#FE9A75"/>
<stop offset="1" stop-color="#FF9673"/>
</linearGradient>
<linearGradient id="paint11_linear" x1="172.548" y1="203.971" x2="172.548" y2="62.867" gradientUnits="userSpaceOnUse">
<stop stop-color="#FFEADB"/>
<stop offset="0.99" stop-color="#D17EAE"/>
</linearGradient>
<linearGradient id="paint12_linear" x1="17998.1" y1="43553.3" x2="17998.1" y2="29114.2" gradientUnits="userSpaceOnUse">
<stop stop-color="#FFEADB"/>
<stop offset="0.99" stop-color="#D17EAE"/>
</linearGradient>
<linearGradient id="paint13_linear" x1="5709.18" y1="17290.9" x2="5709.18" y2="14959.3" gradientUnits="userSpaceOnUse">
<stop stop-color="#FFEADB"/>
<stop offset="0.99" stop-color="#D177F4"/>
</linearGradient>
<linearGradient id="paint14_linear" x1="340.681" y1="17290.9" x2="340.681" y2="14959.3" gradientUnits="userSpaceOnUse">
<stop stop-color="#FFEADB"/>
<stop offset="0.99" stop-color="#D177F4"/>
</linearGradient>
<linearGradient id="paint15_linear" x1="129.806" y1="169.684" x2="129.806" y2="141.565" gradientUnits="userSpaceOnUse">
<stop stop-color="#F97A7E"/>
<stop offset="0.15" stop-color="#FB7F78"/>
<stop offset="0.57" stop-color="#FE8A6C"/>
<stop offset="1" stop-color="#FF8D68"/>
</linearGradient>
<linearGradient id="paint16_linear" x1="137.304" y1="165.586" x2="144.631" y2="165.586" gradientUnits="userSpaceOnUse">
<stop offset="0.02" stop-color="#7C51B3"/>
<stop offset="0.99" stop-color="#BD89C4"/>
</linearGradient>
<linearGradient id="paint17_linear" x1="2545.65" y1="963.099" x2="2581.08" y2="963.099" gradientUnits="userSpaceOnUse">
<stop offset="0.02" stop-color="#7C51B3"/>
<stop offset="0.99" stop-color="#BD89C4"/>
</linearGradient>
<linearGradient id="paint18_linear" x1="1349.38" y1="5240.27" x2="1349.38" y2="4995.45" gradientUnits="userSpaceOnUse">
<stop stop-color="#FFEADB"/>
<stop offset="0.99" stop-color="#D177F4"/>
</linearGradient>
<linearGradient id="paint19_linear" x1="-491.745" y1="5240.27" x2="-491.745" y2="4995.45" gradientUnits="userSpaceOnUse">
<stop stop-color="#FFEADB"/>
<stop offset="0.99" stop-color="#D177F4"/>
</linearGradient>
<linearGradient id="paint20_linear" x1="144.49" y1="108.556" x2="189.04" y2="94.7107" gradientUnits="userSpaceOnUse">
<stop stop-color="#36063B"/>
<stop offset="1" stop-color="#4D0E2E"/>
</linearGradient>
<linearGradient id="paint21_linear" x1="166.016" y1="126.52" x2="166.016" y2="117.516" gradientUnits="userSpaceOnUse">
<stop stop-color="#EEE2FF"/>
<stop offset="1" stop-color="#BDC9FB"/>
</linearGradient>
<linearGradient id="paint22_linear" x1="164.397" y1="126.832" x2="164.397" y2="117.814" gradientUnits="userSpaceOnUse">
<stop stop-color="#4D0E2E"/>
<stop offset="1" stop-color="#36063B"/>
</linearGradient>
<linearGradient id="paint23_linear" x1="1934.75" y1="873.611" x2="1934.75" y2="822.819" gradientUnits="userSpaceOnUse">
<stop stop-color="#4D0E2E"/>
<stop offset="1" stop-color="#36063B"/>
</linearGradient>
<linearGradient id="paint24_linear" x1="164.397" y1="125.088" x2="164.397" y2="119.572" gradientUnits="userSpaceOnUse">
<stop stop-color="#A79ABD"/>
<stop offset="0.99" stop-color="#724A60"/>
</linearGradient>
<linearGradient id="paint25_linear" x1="-8636.01" y1="2352.19" x2="-8636.01" y2="2294.96" gradientUnits="userSpaceOnUse">
<stop stop-color="#EEE2FF"/>
<stop offset="1" stop-color="#BDC9FB"/>
</linearGradient>
<linearGradient id="paint26_linear" x1="-3872.46" y1="2130.53" x2="-3872.46" y2="2073.17" gradientUnits="userSpaceOnUse">
<stop stop-color="#4D0E2E"/>
<stop offset="1" stop-color="#36063B"/>
</linearGradient>
<linearGradient id="paint27_linear" x1="-3622.99" y1="1995.55" x2="-3622.99" y2="1944.76" gradientUnits="userSpaceOnUse">
<stop stop-color="#4D0E2E"/>
<stop offset="1" stop-color="#36063B"/>
</linearGradient>
<linearGradient id="paint28_linear" x1="-2594.52" y1="1520.09" x2="-2594.52" y2="1498.02" gradientUnits="userSpaceOnUse">
<stop stop-color="#A79ABD"/>
<stop offset="0.99" stop-color="#724A60"/>
</linearGradient>
<linearGradient id="paint29_linear" x1="-13653.4" y1="5048.41" x2="-15128.4" y2="4589.99" gradientUnits="userSpaceOnUse">
<stop stop-color="#36063B"/>
<stop offset="1" stop-color="#4D0E2E"/>
</linearGradient>
<linearGradient id="paint30_linear" x1="114.513" y1="37.3008" x2="167.45" y2="37.3008" gradientUnits="userSpaceOnUse">
<stop stop-color="#36062C"/>
<stop offset="1" stop-color="#441B3E"/>
</linearGradient>
<linearGradient id="paint31_linear" x1="55133.5" y1="31577.9" x2="55133.5" y2="20961.2" gradientUnits="userSpaceOnUse">
<stop stop-color="#36063B"/>
<stop offset="1" stop-color="#4D0E2E"/>
</linearGradient>
<linearGradient id="paint32_linear" x1="18357.9" y1="6449.2" x2="20241.5" y2="6449.2" gradientUnits="userSpaceOnUse">
<stop stop-color="#36062C"/>
<stop offset="1" stop-color="#441B3E"/>
</linearGradient>
<linearGradient id="paint33_linear" x1="10754.2" y1="8538.11" x2="11420.4" y2="8538.11" gradientUnits="userSpaceOnUse">
<stop stop-color="#36062C"/>
<stop offset="1" stop-color="#441B3E"/>
</linearGradient>
<linearGradient id="paint34_linear" x1="6524.76" y1="8651.16" x2="6776.7" y2="8651.16" gradientUnits="userSpaceOnUse">
<stop stop-color="#36062C"/>
<stop offset="1" stop-color="#441B3E"/>
</linearGradient>
<linearGradient id="paint35_linear" x1="3346.01" y1="5746.71" x2="3430.97" y2="5746.71" gradientUnits="userSpaceOnUse">
<stop stop-color="#36062C"/>
<stop offset="1" stop-color="#441B3E"/>
</linearGradient>
<linearGradient id="paint36_linear" x1="4415.86" y1="6758.2" x2="4552.1" y2="6758.2" gradientUnits="userSpaceOnUse">
<stop stop-color="#36062C"/>
<stop offset="1" stop-color="#441B3E"/>
</linearGradient>
<linearGradient id="paint37_linear" x1="16443.1" y1="3651.12" x2="17838.7" y2="3651.12" gradientUnits="userSpaceOnUse">
<stop stop-color="#36062C"/>
<stop offset="1" stop-color="#441B3E"/>
</linearGradient>
<linearGradient id="paint38_linear" x1="8130.51" y1="1308.19" x2="8420.48" y2="1308.19" gradientUnits="userSpaceOnUse">
<stop stop-color="#36062C"/>
<stop offset="1" stop-color="#441B3E"/>
</linearGradient>
<linearGradient id="paint39_linear" x1="2834.38" y1="5221.65" x2="2892" y2="5221.65" gradientUnits="userSpaceOnUse">
<stop stop-color="#36062C"/>
<stop offset="1" stop-color="#441B3E"/>
</linearGradient>
</defs>
</svg>
