<svg width="250" height="253" viewBox="0 0 250 253" fill="none" xmlns="http://www.w3.org/2000/svg">
<g id="GroupGirl2">
<g id="GroupGirl2_2">
<g id="GroupGirl2_3">
<g id="GroupGirl2_4">
<path id="Girl2Vector" d="M154.92 230.97C153.92 224.34 154.92 189.36 154.92 189.36L126.92 191.18L98.92 189.36C98.92 189.36 99.92 224.36 98.92 230.97C98.92 230.97 83.11 247.84 56.16 252.57H197.68C170.73 247.84 154.92 230.97 154.92 230.97Z" fill="url(#PaintGirl20_linear)"/>
<g id="Girl2Vector_2" style="mix-blend-mode:multiply" opacity="0.6">
<path d="M99.32 209.18C99.32 209.18 123.78 230.27 154.48 221.43L154.92 189.36C154.92 189.36 138.74 200.9 98.92 190.93L99.32 209.18Z" fill="#ECECEC"/>
</g>
<path id="Girl2Vector_3" d="M201.54 252.58H51.63C51.63 252.58 77.63 244.43 82.39 240.16C83.5229 239.129 84.5853 238.023 85.57 236.85C87.0212 235.108 88.3766 233.289 89.63 231.4L89.69 231.31C90.1043 230.629 90.5654 229.977 91.07 229.36C91.44 229.19 98.44 230.87 98.86 230.97L95.37 234.19C95.37 234.19 103.46 246.31 126.92 246.31C142.58 246.31 151 240.62 154.87 236.84C155.917 235.864 156.834 234.759 157.6 233.55L154.87 230.98L162.77 229.35C163.076 230.777 163.521 232.17 164.1 233.51C164.721 235.01 165.52 236.43 166.48 237.74C167.378 238.982 168.473 240.069 169.72 240.96C175.26 244.82 201.54 252.58 201.54 252.58Z" fill="url(#PaintGirl21_linear)"/>
<g id="Girl2Vector_4" style="mix-blend-mode:multiply" opacity="0.6">
<path d="M162.82 229.35L154.92 236.85C155.967 235.874 156.884 234.769 157.65 233.56L154.92 230.99L162.82 229.35Z" fill="#ECECEC"/>
</g>
<g id="Girl2Vector_5" style="mix-blend-mode:multiply" opacity="0.6">
<path d="M98.91 230.98L95.42 234.2L91.1 229.36C91.47 229.19 98.47 230.87 98.89 230.97L98.91 230.98Z" fill="#ECECEC"/>
</g>
<path id="Girl2Vector_6" style="mix-blend-mode:multiply" opacity="0.6" d="M89.72 231.31C89.72 231.31 88.94 238.31 98.91 246.01C106.48 251.88 117.11 252.57 117.11 252.57C117.11 252.57 98.21 252.13 85.57 236.85L89.72 231.31Z" fill="url(#PaintGirl22_linear)"/>
<path id="Girl2Vector_7" style="mix-blend-mode:multiply" opacity="0.6" d="M164.15 233.51C164.15 233.51 158.45 245.28 146.47 250.11C146.47 250.11 161.71 247.06 166.53 237.74L164.15 233.51Z" fill="url(#PaintGirl23_linear)"/>
</g>
<g id="GroupGirl2_5">
<g id="GroupGirl2_6">
<path id="Girl2Vector_8" d="M218.74 118.47C218.37 120.27 217.95 121.89 217.51 123.35V123.42C214.3 133.77 209.43 136.2 207.51 140.87C205.82 144.87 199.15 153.01 192.56 144.58C192.56 144.58 195.7 110.3 198.22 104.07C198.22 104.07 201.86 94.73 208.4 93.32C216.72 91.48 222.02 102.54 218.74 118.47Z" fill="url(#PaintGirl24_linear)"/>
<path id="Girl2Vector_9" style="mix-blend-mode:multiply" opacity="0.6" d="M194.75 123.3C194.75 123.3 207.92 104.18 214.22 102.92C220.52 101.66 217.36 117.92 216.1 123.3C215.448 126.297 214.381 129.188 212.93 131.89C213.857 128.097 214.492 124.24 214.83 120.35C215.28 112.93 212.92 106.56 210.27 107.17C207.62 107.78 204.08 117.1 203.85 118.17C203.62 119.24 205.6 121.17 205.48 126.89C205.36 132.61 202.62 138.89 201.12 138.83C199.62 138.77 200.27 134.09 200.27 128.71C200.27 123.33 196.06 124.38 194.2 127.87L194.75 123.3Z" fill="url(#PaintGirl25_linear)"/>
<path id="Girl2Vector_10" style="mix-blend-mode:multiply" opacity="0.6" d="M194.2 127.86C194.2 127.86 197.59 122.74 199.62 125.06C201.65 127.38 200.19 133.84 201.75 134.62C203.31 135.4 205.39 130.17 204.98 125.4C204.57 120.63 202.68 116.4 199.98 117.16L194.74 123.3L194.2 127.86Z" fill="url(#PaintGirl26_linear)"/>
<path id="Girl2Vector_11" d="M217.48 123.42C214.27 133.77 209.4 136.2 207.48 140.87C205.79 144.87 199.12 153.01 192.53 144.58C192.92 144.9 196.74 148 200.61 146.58C204.69 145.09 205.99 141.28 207.72 138.32C209.45 135.36 213.83 133.36 217.48 123.42Z" fill="#DD6B7C"/>
</g>
<g id="GroupGirl2_7">
<path id="Girl2Vector_12" d="M32.51 118.47C32.88 120.27 33.3 121.89 33.74 123.35V123.42C36.95 133.77 41.82 136.2 43.74 140.87C45.43 144.87 52.1 153.01 58.69 144.58C58.69 144.58 55.63 110.28 53.13 104.05C53.13 104.05 49.49 94.7101 42.95 93.3001C34.53 91.4801 29.23 102.54 32.51 118.47Z" fill="url(#PaintGirl27_linear)"/>
<path id="Girl2Vector_13" style="mix-blend-mode:multiply" opacity="0.6" d="M56.5 123.3C56.5 123.3 43.33 104.18 37.03 102.92C30.73 101.66 33.89 117.92 35.15 123.3C35.8024 126.297 36.8693 129.188 38.32 131.89C37.3929 128.098 36.7577 124.24 36.42 120.35C35.97 112.93 38.33 106.56 40.98 107.17C43.63 107.78 47.17 117.1 47.4 118.17C47.63 119.24 45.65 121.17 45.77 126.89C45.89 132.61 48.64 138.89 50.13 138.83C51.62 138.77 50.98 134.09 50.98 128.71C50.98 123.33 55.19 124.38 57.05 127.87L56.5 123.3Z" fill="url(#PaintGirl28_linear)"/>
<path id="Girl2Vector_14" style="mix-blend-mode:multiply" opacity="0.6" d="M57.05 127.86C57.05 127.86 53.63 122.74 51.63 125.06C49.63 127.38 51.06 133.84 49.5 134.62C47.94 135.4 45.86 130.17 46.27 125.4C46.68 120.63 48.57 116.4 51.27 117.16L56.51 123.3L57.05 127.86Z" fill="url(#PaintGirl29_linear)"/>
<path id="Girl2Vector_15" d="M33.77 123.42C36.98 133.77 41.85 136.2 43.77 140.87C45.46 144.87 52.13 153.01 58.72 144.58C58.33 144.9 54.51 148 50.64 146.58C46.56 145.09 45.26 141.28 43.53 138.32C41.8 135.36 37.43 133.36 33.77 123.42Z" fill="#DD6B7C"/>
</g>
<path id="Girl2Vector_16" d="M195.44 132.38C195.44 132.55 195.35 132.85 195.27 133.27C194.027 140.554 192.388 147.765 190.36 154.87C184.66 173.06 155.36 196.81 125.6 196.81C95.84 196.81 66.54 173.06 60.84 154.87C60.17 152.69 59.43 149.94 58.63 146.69C55.2443 131.394 52.7468 115.915 51.15 100.33C49.15 80.78 48.74 61.72 52.26 52.6C54.73 46.21 60.89 38.78 69.87 32.19C83.17 22.41 102.67 14.47 125.56 14.47C163.9 14.47 192.72 36.75 198.86 52.61C204.43 66.86 200.28 105.63 195.44 132.38Z" fill="url(#PaintGirl210_linear)"/>
<path id="Girl2Vector_17" style="mix-blend-mode:multiply" opacity="0.6" d="M142.06 86.3606C142.06 86.3606 141.06 128.061 147.24 134.691C153.42 141.321 171.98 140.241 184.04 132.301C196.1 124.361 194.89 95.0006 194.89 95.0006C191.116 91.1075 186.515 88.1122 181.428 86.2359C176.341 84.3596 170.898 83.6504 165.5 84.1606C146.92 85.8606 142.06 86.3606 142.06 86.3606Z" fill="url(#PaintGirl211_linear)"/>
<path id="Girl2Vector_18" style="mix-blend-mode:multiply" opacity="0.6" d="M109.74 83.43C109.74 83.43 110.74 125.13 104.56 131.76C98.38 138.39 79.82 137.31 67.77 129.37C55.72 121.43 56.91 92.07 56.91 92.07C60.6839 88.177 65.2843 85.1816 70.3714 83.3054C75.4584 81.4291 80.902 80.7198 86.3 81.23C104.88 82.93 109.74 83.43 109.74 83.43Z" fill="url(#PaintGirl212_linear)"/>
<g id="GroupGirl2_8" opacity="0.5">
<path id="Girl2Vector_19" opacity="0.5" d="M90.54 145.62C90.2377 145.877 90.0329 146.23 89.96 146.62C89.9343 146.769 89.9397 146.921 89.9759 147.067C90.012 147.213 90.0781 147.351 90.17 147.47C90.6004 147.832 91.1171 148.077 91.67 148.18C91.9604 148.235 92.2599 148.216 92.5411 148.125C92.8224 148.034 93.0764 147.874 93.28 147.66C93.6707 147.245 93.9072 146.709 93.95 146.14C94.029 145.569 93.9128 144.987 93.62 144.49C93.4674 144.294 93.2929 144.116 93.1 143.96C92.8551 143.838 92.5834 143.78 92.31 143.79C92.006 143.867 91.7291 144.026 91.51 144.25C91.3266 144.382 91.1675 144.544 91.04 144.73C90.93 144.87 90.77 144.96 90.65 145.1C90.53 145.24 90.5 145.63 90.35 145.86L90.54 145.62Z" fill="#E76965"/>
<path id="Girl2Vector_20" opacity="0.5" d="M99.82 140.22C100.324 140.29 100.838 140.259 101.33 140.13C101.56 140.02 101.77 139.87 102 139.74C102.238 139.637 102.458 139.495 102.65 139.32L102.85 138.98C102.947 138.894 103.038 138.801 103.12 138.7C103.43 138.32 103.89 136.97 103.05 136.99C102.586 137.023 102.142 137.198 101.78 137.49C101.48 137.77 101.16 138.02 100.87 138.32C100.385 138.869 100.027 139.517 99.82 140.22Z" fill="#E76965"/>
<path id="Girl2Vector_21" opacity="0.5" d="M101.34 142.02C101.63 141.84 101.89 141.58 102.17 141.85C102.29 141.96 102.29 142.1 102.33 142.25C102.347 142.332 102.347 142.416 102.33 142.498C102.313 142.58 102.278 142.657 102.229 142.725C102.18 142.793 102.118 142.85 102.046 142.892C101.973 142.934 101.893 142.961 101.81 142.97C101.48 142.97 101.25 142.97 101.12 142.7C101.06 142.56 101 142.46 101.12 142.3C101.24 142.14 101.33 142.16 101.36 142.02H101.34Z" fill="#E76965"/>
<path id="Girl2Vector_22" opacity="0.5" d="M107.68 132.54C107.43 132.82 107.24 132.98 107.58 133.18C107.74 133.255 107.916 133.285 108.092 133.27C108.268 133.254 108.436 133.192 108.58 133.09C109.25 132.73 109.76 132.09 109.35 131.31C109.282 131.203 109.191 131.112 109.084 131.045C108.976 130.978 108.855 130.937 108.729 130.923C108.603 130.91 108.475 130.925 108.356 130.968C108.237 131.01 108.129 131.08 108.04 131.17C107.805 131.413 107.627 131.705 107.52 132.025C107.413 132.345 107.379 132.685 107.42 133.02L107.68 132.54Z" fill="#E76965"/>
<path id="Girl2Vector_23" opacity="0.5" d="M112.04 131.82C111.83 131.93 111.6 131.99 111.55 132.24C111.5 132.49 111.55 132.56 111.79 132.58C111.929 132.596 112.07 132.575 112.198 132.519C112.327 132.463 112.438 132.373 112.52 132.26C112.557 132.184 112.576 132.1 112.576 132.015C112.576 131.93 112.557 131.846 112.52 131.77C112.33 131.51 112.05 131.71 111.84 131.88L112.04 131.82Z" fill="#E76965"/>
<path id="Girl2Vector_24" opacity="0.5" d="M119.3 128.15C119.374 127.983 119.505 127.848 119.67 127.77C119.872 127.662 120.102 127.617 120.33 127.64C120.521 127.636 120.709 127.686 120.872 127.786C121.035 127.885 121.166 128.029 121.25 128.2C121.41 128.55 121.25 128.78 121.03 129.08C120.697 129.518 120.224 129.828 119.69 129.96C119.2 130.13 117.9 130.49 117.97 129.54C118.007 129.35 118.084 129.169 118.194 129.009C118.304 128.849 118.445 128.713 118.61 128.61L118.93 128.34C118.99 128.28 119.09 128.23 119.12 128.15H119.3Z" fill="#E76965"/>
<path id="Girl2Vector_25" opacity="0.5" d="M126.95 129.04C126.83 129.3 126.81 129.31 127.05 129.46C127.266 129.599 127.528 129.649 127.78 129.6C127.908 129.568 128.023 129.496 128.109 129.396C128.195 129.296 128.248 129.172 128.26 129.04C128.26 128.76 127.93 128.61 127.69 128.59C127.529 128.594 127.371 128.637 127.23 128.716C127.089 128.794 126.969 128.905 126.88 129.04H126.95Z" fill="#E76965"/>
<path id="Girl2Vector_26" opacity="0.5" d="M140.9 130.36C140.927 130.576 141.01 130.782 141.139 130.957C141.269 131.132 141.441 131.271 141.64 131.36C141.838 131.495 142.07 131.573 142.309 131.587C142.548 131.602 142.787 131.551 143 131.44C143.58 131.11 143.44 130.51 143.23 130C143.13 129.712 143.003 129.434 142.85 129.17C142.667 128.899 142.424 128.673 142.14 128.51C141.66 128.2 140.63 128.07 140.65 128.89C140.64 129.037 140.64 129.184 140.65 129.33C140.65 129.45 140.71 129.56 140.72 129.68C140.723 129.918 140.785 130.152 140.9 130.36Z" fill="#E76965"/>
<path id="Girl2Vector_27" opacity="0.5" d="M143.05 133.33C143.05 133.15 143.05 133.05 143.24 132.95C143.32 132.896 143.415 132.869 143.511 132.873C143.607 132.877 143.7 132.912 143.775 132.972C143.85 133.033 143.903 133.116 143.928 133.209C143.952 133.302 143.946 133.401 143.91 133.49C143.86 133.68 143.73 133.74 143.53 133.71C143.413 133.697 143.303 133.652 143.21 133.58C143.1 133.51 143.08 133.43 142.99 133.33H143.05Z" fill="#E76965"/>
<path id="Girl2Vector_28" opacity="0.5" d="M74.34 142.81C74.25 143.18 74.19 143.58 74.53 143.81C75.0262 144.099 75.5968 144.235 76.17 144.2C76.85 144.28 78.1 144.2 78.17 143.26C78.17 143.08 78.09 143.02 78 142.88C77.8572 142.661 77.6739 142.471 77.46 142.32C77.3 142.21 77.13 142.12 76.97 142.02C76.7389 141.907 76.487 141.842 76.23 141.83C75.7776 141.761 75.3152 141.798 74.88 141.94C74.5 142.1 74.12 142.28 74.34 142.81Z" fill="#E76965"/>
<path id="Girl2Vector_29" opacity="0.5" d="M67.45 132.13C67.39 132.32 67.33 132.4 67.51 132.52C67.7638 132.668 68.0571 132.735 68.35 132.71C68.62 132.71 69.04 132.62 68.75 132.29C68.5885 132.088 68.3787 131.93 68.14 131.83C68.0586 131.789 67.9706 131.761 67.88 131.75C67.67 131.75 67.57 132 67.45 132.13Z" fill="#E76965"/>
<path id="Girl2Vector_30" opacity="0.5" d="M132.69 131.88C132.771 132.302 132.976 132.69 133.279 132.994C133.582 133.299 133.969 133.506 134.39 133.59C134.645 133.703 134.921 133.761 135.2 133.761C135.479 133.761 135.755 133.703 136.01 133.59C137.01 133.03 136.32 131.49 135.59 130.94C135.024 130.572 134.417 130.274 133.78 130.05C133.592 129.927 133.377 129.853 133.153 129.835C132.929 129.818 132.704 129.857 132.5 129.95C131.69 130.43 132.25 131.48 132.5 132.09L132.69 131.88Z" fill="#E76965"/>
<path id="Girl2Vector_31" opacity="0.5" d="M172.86 137.56C173.22 138.21 173.13 138.2 173.59 138.33C174.09 138.472 174.611 138.526 175.13 138.49C176.057 138.364 176.948 138.051 177.75 137.57C178.75 136.95 179.07 135.51 177.89 134.98C177.291 134.736 176.644 134.636 175.999 134.688C175.355 134.741 174.732 134.943 174.18 135.28C173.674 135.597 173.225 135.996 172.85 136.46C172.64 136.763 172.545 137.13 172.582 137.497C172.619 137.863 172.784 138.205 173.05 138.46L172.86 137.56Z" fill="#E76965"/>
<path id="Girl2Vector_32" opacity="0.5" d="M183.28 133.21C183.55 132.75 183.55 132.4 184.04 132.48C184.252 132.552 184.446 132.668 184.61 132.82C184.72 132.89 184.812 132.985 184.879 133.097C184.945 133.209 184.985 133.335 184.995 133.465C185.005 133.595 184.984 133.726 184.934 133.846C184.885 133.967 184.808 134.074 184.71 134.16C184.542 134.271 184.353 134.345 184.155 134.378C183.957 134.41 183.754 134.401 183.56 134.35C183.02 134.23 183.1 133.88 183.09 133.35L183.28 133.21Z" fill="#E76965"/>
<path id="Girl2Vector_33" opacity="0.5" d="M149.75 141.92C150.58 142.76 151.67 144.27 152.98 144.22C153.252 144.189 153.513 144.094 153.739 143.941C153.966 143.788 154.153 143.582 154.284 143.342C154.414 143.101 154.485 142.833 154.489 142.559C154.494 142.286 154.432 142.015 154.31 141.77C154.058 141.31 153.703 140.914 153.273 140.614C152.843 140.314 152.349 140.118 151.83 140.04C151.358 139.947 150.869 140.003 150.43 140.2C149.43 140.73 149.85 142.12 150.32 142.87L149.75 141.92Z" fill="#E76965"/>
<path id="Girl2Vector_34" opacity="0.5" d="M155.05 138.51C155.707 138.471 156.352 138.322 156.96 138.07C156.67 137.9 156.42 137.56 156.15 137.41C155.809 137.3 155.441 137.3 155.1 137.41C154.41 137.6 153.84 138.51 155.05 138.5V138.51Z" fill="#E76965"/>
<path id="Girl2Vector_35" opacity="0.5" d="M171.92 139.84C171.47 140.31 171.28 140.39 171.38 140.96C171.445 141.274 171.614 141.556 171.86 141.76C171.956 141.84 172.069 141.898 172.19 141.931C172.311 141.963 172.437 141.969 172.56 141.948C172.684 141.927 172.801 141.88 172.905 141.81C173.008 141.739 173.095 141.647 173.16 141.54C173.245 141.359 173.277 141.158 173.252 140.96C173.228 140.761 173.147 140.574 173.021 140.419C172.894 140.264 172.727 140.149 172.537 140.085C172.348 140.022 172.144 140.013 171.95 140.06V140.22L171.92 139.84Z" fill="#E76965"/>
<path id="Girl2Vector_36" opacity="0.5" d="M123.03 121.69C123.7 121.793 124.334 122.065 124.87 122.48C124.772 122.75 124.578 122.973 124.325 123.108C124.072 123.243 123.778 123.279 123.5 123.21C123.07 123.11 122.24 122.35 122.84 121.88L123.03 121.69Z" fill="#E76965"/>
</g>
<g id="Girl2Vector_37" style="mix-blend-mode:multiply" opacity="0.6">
<path d="M195.27 133.27C194.027 140.554 192.388 147.765 190.36 154.87C184.66 173.06 155.36 196.81 125.6 196.81C95.84 196.81 66.54 173.06 60.84 154.87C60.17 152.69 59.43 149.94 58.63 146.69L58.72 144.62C58.72 144.62 59.85 155.35 68.93 167.42C78.01 179.49 102.18 193.94 125.57 193.94C148.96 193.94 174.25 176.34 182.71 166.19C190.15 157.26 194.34 137.96 195.27 133.27Z" fill="#D177B8"/>
</g>
<path id="Girl2Vector_38" style="mix-blend-mode:multiply" opacity="0.6" d="M65.04 77.5C62.42 86.64 51.55 99.85 51.19 100.28C49.19 80.73 48.78 61.67 52.3 52.55C54.77 46.16 60.93 38.73 69.91 32.14C62.25 45.69 67.7 68.22 65.04 77.5Z" fill="url(#PaintGirl213_linear)"/>
<path id="Girl2Vector_39" style="mix-blend-mode:multiply" opacity="0.6" d="M186.16 77.5C188.78 86.64 199.65 99.85 200.01 100.28C202.01 80.73 202.42 61.67 198.9 52.55C196.43 46.16 190.27 38.73 181.29 32.14C188.95 45.69 183.5 68.22 186.16 77.5Z" fill="url(#PaintGirl214_linear)"/>
</g>
<g id="GroupGirl2_9">
<path id="Girl2Vector_40" d="M142.63 144.61C142.63 144.61 142.33 145.54 138.77 145.67C135.21 145.8 131.9 148.91 125.88 148.91C119.86 148.91 116.88 145.81 113.28 145.67C109.68 145.53 109.13 144.61 109.13 144.61C108.674 142.439 108.834 140.185 109.59 138.1C109.594 138.077 109.594 138.053 109.59 138.03C110.333 135.93 111.44 133.977 112.86 132.26C116.896 130.241 121.347 129.19 125.86 129.19C130.373 129.19 134.824 130.241 138.86 132.26C139.849 133.444 140.686 134.747 141.35 136.14C142.731 138.734 143.183 141.723 142.63 144.61Z" fill="url(#PaintGirl215_linear)"/>
<path id="Girl2Vector_41" d="M134.52 146.82C135.366 146.137 136.359 145.66 137.422 145.427C138.484 145.195 139.586 145.213 140.64 145.48L134.52 146.82Z" fill="#842751"/>
<path id="Girl2Vector_42" d="M111.41 145.51C112.614 145.244 113.863 145.26 115.06 145.556C116.257 145.853 117.369 146.422 118.31 147.22L111.41 145.51Z" fill="#842751"/>
<g id="Girl2Vector_43" style="mix-blend-mode:multiply" opacity="0.6">
<path d="M142.63 144.61C142.63 144.61 142.33 145.54 138.77 145.67C135.21 145.8 131.9 148.91 125.88 148.91C119.86 148.91 116.88 145.81 113.28 145.67C109.68 145.53 109.13 144.61 109.13 144.61C108.674 142.439 108.834 140.185 109.59 138.1C109.46 138.66 108.71 142.33 110.13 143.22C111.55 144.11 120.4 143.62 125.88 143.62C131.36 143.62 140.69 143.62 141.74 142.18C142.79 140.74 141.49 136.55 141.37 136.18C142.735 138.765 143.18 141.738 142.63 144.61Z" fill="#D177B8"/>
</g>
<path id="Girl2Vector_44" style="mix-blend-mode:multiply" opacity="0.6" d="M138.82 132.25C138.82 132.25 136.87 138.3 137.1 142.53C137.1 142.53 135.65 138.4 137.58 131.68L138.82 132.25Z" fill="url(#PaintGirl216_linear)"/>
<path id="Girl2Vector_45" style="mix-blend-mode:multiply" opacity="0.6" d="M113.14 132.25C113.14 132.25 115.14 138.3 114.86 142.53C114.86 142.53 116.32 138.4 114.39 131.68L113.14 132.25Z" fill="url(#PaintGirl217_linear)"/>
<g id="Girl2Vector_46" style="mix-blend-mode:multiply" opacity="0.6">
<path d="M110.08 143.22C109.69 143.64 109.354 144.107 109.08 144.61C108.9 145.09 116.87 152.61 125.83 152.61C134.79 152.61 142.42 145.54 142.58 144.61C142.74 143.68 141.28 142.53 141.28 142.53C136.161 143.249 130.999 143.614 125.83 143.62C117.38 143.62 110.08 143.22 110.08 143.22Z" fill="#D177B8"/>
</g>
<path id="Girl2Vector_47" d="M132.97 141.56C131.7 140.84 133.97 138.74 134.55 138.83C135.13 138.92 135.48 140.27 135.15 141.14C134.82 142.01 133.51 141.87 132.97 141.56Z" fill="#FFCFBF"/>
</g>
<path id="Girl2Vector_48" d="M110.85 85.95C110.284 87.071 109.478 88.0535 108.49 88.8278C107.501 89.6021 106.354 90.1492 105.13 90.43C105.13 90.43 80.92 82.51 73.95 82.88C66.98 83.25 60.29 90.43 60.29 90.43C60.29 90.43 68.63 78.86 72.46 77.9C79.28 76.19 106.71 83.81 106.71 83.81C106.71 83.81 105.96 87.22 104.71 88.57C106.411 87.396 107.942 85.9928 109.26 84.4L110.85 85.95Z" fill="url(#PaintGirl218_linear)"/>
<path id="Girl2Vector_49" d="M141.25 85.95C141.816 87.071 142.622 88.0535 143.61 88.8278C144.599 89.6021 145.746 90.1492 146.97 90.43C146.97 90.43 171.18 82.51 178.15 82.88C185.12 83.25 191.81 90.43 191.81 90.43C191.81 90.43 183.47 78.86 179.64 77.9C172.82 76.19 145.39 83.81 145.39 83.81C145.39 83.81 146.14 87.22 147.39 88.57C145.689 87.396 144.158 85.9928 142.84 84.4L141.25 85.95Z" fill="url(#PaintGirl219_linear)"/>
<g id="GroupGirl2_10">
<g id="Girl2Vector_50" style="mix-blend-mode:multiply" opacity="0.6">
<path d="M103.13 168.59C103.13 168.59 107.42 177.85 114.19 180.69C120.96 183.53 126.1 178.69 133.88 174.64C133.88 174.64 123.1 176.8 115.21 173.96C111.033 172.53 106.99 170.733 103.13 168.59Z" fill="#D177B8"/>
</g>
<path id="Girl2Vector_51" d="M100.1 162.61C100.1 162.61 109.22 187.09 127.53 177.86C148.39 167.34 155.7 163.05 155.7 163.05C155.7 163.05 145.7 170.45 127.9 170.45C110.1 170.45 100.1 162.61 100.1 162.61Z" fill="#FF6563"/>
<path id="Girl2Vector_52" d="M97.37 160.69C97.37 160.69 111.37 171.51 127.47 171.51C143.57 171.51 159.16 161.22 159.16 161.22C159.16 161.22 147.21 168.4 126.34 168.81C116.087 169.073 105.992 166.244 97.37 160.69Z" fill="#842751"/>
<g id="Girl2Vector_53" style="mix-blend-mode:multiply" opacity="0.6">
<path d="M143.28 165.69C147.49 165.262 151.643 164.39 155.67 163.09C155.595 163.146 155.515 163.192 155.43 163.23L154.99 163.47C154.8 163.58 154.57 163.68 154.32 163.81C152.957 164.476 151.516 164.966 150.03 165.27C147.785 165.628 145.512 165.775 143.24 165.71L143.28 165.69Z" fill="#D177B8"/>
</g>
<g id="Girl2Vector_54" style="mix-blend-mode:multiply" opacity="0.6">
<path d="M115.57 165.83C113.521 166.012 111.459 165.968 109.42 165.7C107.173 165.424 104.987 164.779 102.95 163.79L102.54 163.58L101.92 163.26L101.59 163.08C106.126 164.543 110.818 165.467 115.57 165.83Z" fill="#D177B8"/>
</g>
<path id="Girl2Vector_55" d="M101.56 163.06C105.66 165.06 118.17 162.58 128.63 162.5C137.93 162.42 145.63 165.7 155.7 163.05C146.291 166.913 136.289 169.132 126.13 169.61C110.42 170.41 101.56 163.06 101.56 163.06Z" fill="#DC3F57"/>
<g id="Girl2Vector_56" style="mix-blend-mode:multiply" opacity="0.6">
<path d="M127.47 171.55C132.558 171.574 137.635 171.098 142.63 170.13C149.4 168.61 151.91 165.34 151.91 165.34C144.144 168.694 135.895 170.79 127.47 171.55Z" fill="#D177B8"/>
</g>
<path id="Girl2Vector_57" d="M122.2 170.22C122.2 170.22 131.48 171.76 138.06 170.49C144.64 169.22 151.06 164.84 151.06 164.84C151.06 164.84 136.08 170.17 122.2 170.22Z" fill="#E5C7FF"/>
</g>
</g>
<g id="GroupGirl2_11">
<g id="GroupGirl2_12">
<path id="Girl2Vector_58" d="M12.28 126.5C12.84 122.25 13.41 117.79 13.93 113.18V113.11C14.15 111.21 14.37 109.29 14.58 107.33C16.41 90.7401 18.02 72.8 19.5 56.93V56.82C19.4941 56.7068 19.4941 56.5933 19.5 56.48C19.55 55.73 19.63 54.99 19.7 54.25L20.28 48.1C20.28 48.1 20.28 47.9 20.33 47.52L20.39 46.97C20.39 46.63 20.46 46.29 20.49 45.97V45.92C20.49 45.61 20.55 45.32 20.59 45.03C20.63 44.74 20.66 44.36 20.69 43.98C22.43 26.21 23.97 12.98 25.47 10.68C26.4063 9.53872 27.7242 8.77498 29.18 8.53004C30.28 6.32004 33.91 1.25004 40.58 3.03004C48.37 5.03004 69.81 20.1801 69.81 20.1801L61.63 28.69L60.02 30.35C60.02 30.35 48.64 27.1501 45.22 33.35C41.8 39.55 47.22 67.26 54.12 101.89C61.02 136.52 63.39 175.78 63.12 208.54C62.91 235.78 48.92 247.46 44.21 250.59C48.12 247.38 50.65 238.77 50.82 238.17C48.9806 240.793 46.7516 243.12 44.21 245.07C43.0874 245.92 41.908 246.691 40.68 247.38C40.01 247.76 39.34 248.11 38.68 248.38C34.6165 250.326 30.1845 251.383 25.68 251.48C25.68 251.48 33.21 251.13 32.86 237.27C32.63 227.91 20.72 200.71 14.77 170.58C14.7767 170.53 14.7767 170.48 14.77 170.43C13.5585 164.343 12.6573 158.199 12.07 152.02C11.82 149.27 11.64 146.5 11.55 143.75V143.28C11.3354 137.676 11.5796 132.064 12.28 126.5Z" fill="url(#PaintGirl220_linear)"/>
<path id="Girl2Vector_59" style="mix-blend-mode:multiply" d="M50.82 238.15C50.65 238.75 48.12 247.36 44.21 250.57C48.92 247.44 62.91 235.76 63.12 208.52C63.38 175.76 60.97 136.52 54.12 101.87C47.27 67.2201 41.78 39.5501 45.22 33.3301C48.66 27.1101 60.02 30.3301 60.02 30.3301L61.63 28.6901L61.43 25.3601C61.43 25.3601 38.52 13.5401 30.81 14.0601C24.81 14.4601 21.81 35.0001 20.81 43.9801C20.81 44.3601 20.74 44.7101 20.71 45.0301C20.68 45.3501 20.65 45.6101 20.61 45.9201V45.9701C20.61 46.3201 20.54 46.6601 20.51 46.9701L20.45 47.5201C20.45 47.9001 20.4 48.1001 20.4 48.1001L19.82 54.2501L19.58 56.8201C19.5741 56.7068 19.5741 56.5933 19.58 56.4801C20.19 52.1001 25.26 17.0401 31.38 16.8201C35.2136 16.6747 39.0336 17.3568 42.58 18.8201C42.58 18.8201 37.44 17.5401 28.86 43.8201C20.28 70.1001 17.1 95.9901 21.86 117.17C26.62 138.35 39.63 153.41 52.88 186.69C66.13 219.97 50.88 238.1 50.88 238.1C50.88 238.1 52.97 211.19 34.27 172.79C15.57 134.39 14.63 107.33 14.63 107.33C14.42 109.33 14.2 111.21 13.98 113.11V113.18C14.6341 128.464 18.081 143.498 24.15 157.54C34.27 180.87 55.79 215.26 44.26 245.05C46.7838 243.096 48.9958 240.769 50.82 238.15Z" fill="url(#PaintGirl221_linear)"/>
<g id="Girl2Vector_60" style="mix-blend-mode:multiply" opacity="0.6">
<path d="M61.42 25.3301C61.42 25.3301 46.76 16.5201 40.63 18.7901C34.5 21.0601 23.13 64.7901 23.13 64.7901C23.13 64.7901 35.13 47.5501 44.37 45.3801C44.37 45.3801 43.22 34.2901 48.48 31.3201C53.74 28.3501 59.98 30.3201 59.98 30.3201L61.42 25.3301Z" fill="#D177B8"/>
</g>
<path id="Girl2Vector_61" d="M73.56 19.6901C73.56 19.6901 59.43 13.5301 60.03 33.3301C63.3494 27.7397 67.9967 23.0546 73.56 19.6901Z" fill="#7A81F4"/>
<path id="Girl2Vector_62" d="M13.07 120.39C13.07 120.39 3.91 146.23 1.16 173.14C-1.59 200.05 31.01 229.38 33.92 235.56C36.83 241.74 33.92 244.64 33.92 244.64C33.92 244.64 39.02 242.45 36.12 233.26C33.22 224.07 2.71 197.15 3.22 172.26C3.73 147.37 11.49 143.78 13.07 120.39Z" fill="url(#PaintGirl222_linear)"/>
</g>
<g id="GroupGirl2_13">
<g id="GroupGirl2_14">
<path id="Girl2Vector_63" d="M242.57 126.5C242.01 122.25 241.45 117.79 240.93 113.18V113.11C240.71 111.21 240.49 109.29 240.27 107.33C238.45 90.74 236.84 72.8 235.35 56.93V56.82C235.357 56.7068 235.357 56.5932 235.35 56.48C235.29 55.73 235.22 54.99 235.15 54.25L234.57 48.1C234.57 48.1 234.57 47.9 234.57 47.52L234.51 46.97C234.51 46.63 234.44 46.29 234.4 45.97C234.4 45.97 234.4 45.97 234.4 45.92C234.4 45.61 234.4 45.32 234.31 45.03C234.22 44.74 234.24 44.36 234.2 43.98C232.47 26.21 230.93 12.98 229.42 10.68C228.484 9.53869 227.166 8.77496 225.71 8.53001C224.6 6.32001 220.11 -1.46998 213.44 0.290016C205.65 2.34002 185.07 20.18 185.07 20.18L193.35 28.69L194.96 30.35C194.96 30.35 206.34 27.15 209.76 33.35C213.18 39.55 207.76 67.26 200.86 101.89C193.96 136.52 191.59 175.78 191.86 208.54C192.08 235.78 206.07 247.46 210.78 250.59C206.87 247.38 204.33 238.77 204.17 238.17C206.009 240.793 208.238 243.12 210.78 245.07C211.901 245.922 213.081 246.694 214.31 247.38C214.98 247.76 215.65 248.11 216.31 248.38C220.374 250.325 224.806 251.381 229.31 251.48C229.31 251.48 221.78 251.13 222.12 237.27C222.36 227.91 234.27 200.71 240.22 170.58C240.213 170.53 240.213 170.48 240.22 170.43C241.423 164.342 242.321 158.198 242.91 152.02C243.17 149.27 243.35 146.5 243.44 143.75V143.28C243.608 137.672 243.317 132.06 242.57 126.5ZM214.57 3.12002C216.224 3.15349 217.842 3.61626 219.263 4.46298C220.685 5.3097 221.862 6.51131 222.68 7.95002C214.45 6.95002 201.98 8.95002 201.98 8.95002C201.98 8.95002 207.9 2.76002 214.57 3.12002Z" fill="url(#PaintGirl223_linear)"/>
<path id="Girl2Vector_64" style="mix-blend-mode:multiply" d="M204.04 238.15C204.2 238.75 206.74 247.36 210.65 250.57C205.94 247.44 191.95 235.76 191.73 208.52C191.48 175.76 193.89 136.52 200.73 101.87C207.57 67.22 213.07 39.55 209.63 33.33C206.19 27.11 194.83 30.33 194.83 30.33L193.24 28.69L193.44 25.36C193.44 25.36 216.35 13.54 224.06 14.06C230.06 14.46 233.06 35 234.06 43.98C234.06 44.36 234.14 44.71 234.17 45.03C234.2 45.35 234.23 45.61 234.26 45.92C234.26 45.92 234.26 45.92 234.26 45.97C234.26 46.32 234.33 46.66 234.37 46.97L234.43 47.52C234.43 47.9 234.43 48.1 234.43 48.1L235.01 54.25L235.24 56.82C235.247 56.7068 235.247 56.5932 235.24 56.48C234.62 52.1 229.55 17.04 223.44 16.82C219.603 16.6753 215.78 17.3574 212.23 18.82C212.23 18.82 217.37 17.54 225.95 43.82C234.53 70.1 237.72 95.99 232.95 117.17C228.18 138.35 215.16 153.42 201.95 186.71C188.74 220 203.95 238.12 203.95 238.12C203.95 238.12 201.87 211.21 220.57 172.81C239.27 134.41 240.2 107.34 240.2 107.34C240.42 109.34 240.64 111.22 240.86 113.12V113.19C240.205 128.474 236.755 143.509 230.68 157.55C220.63 180.87 199.12 215.26 210.63 245.05C208.096 243.098 205.873 240.771 204.04 238.15Z" fill="url(#PaintGirl224_linear)"/>
<g id="Girl2Vector_65" style="mix-blend-mode:multiply" opacity="0.6">
<path d="M193.44 25.33C193.44 25.33 208.09 16.52 214.19 18.79C220.29 21.06 231.7 64.79 231.7 64.79C231.7 64.79 219.7 47.55 210.46 45.38C210.46 45.38 211.6 34.29 206.35 31.32C201.1 28.35 194.85 30.32 194.85 30.32L193.44 25.33Z" fill="#D177B8"/>
</g>
<path id="Girl2Vector_66" d="M181.29 19.69C181.29 19.69 195.43 13.52 194.83 33.32C191.507 27.7316 186.856 23.0498 181.29 19.69Z" fill="#7A81F4"/>
<path id="Girl2Vector_67" d="M231.7 22.06C231.7 22.06 239.15 56.69 247.38 85.69C255.61 114.69 241.48 162.83 241.48 162.83C241.48 162.83 252.48 121.44 247.55 94.83C242.62 68.22 232.13 39.62 231.7 31.56C231.27 23.5 231.7 22.06 231.7 22.06Z" fill="url(#PaintGirl225_linear)"/>
</g>
<path id="Girl2Vector_68" style="mix-blend-mode:multiply" d="M243.39 144.53C243.261 153.266 242.174 161.961 240.15 170.46C240.143 170.51 240.143 170.56 240.15 170.61C238.869 176.074 237.232 181.449 235.25 186.7C226.38 210.04 212.62 233.92 216.25 248.41C215.58 248.11 214.91 247.76 214.25 247.41C214.25 247.41 212.64 218.8 228.59 192.21C236.088 179.969 240.961 166.303 242.9 152.08C243.203 149.574 243.366 147.054 243.39 144.53Z" fill="url(#PaintGirl226_linear)"/>
</g>
</g>
</g>
<g id="GroupGirl2_15">
<path id="Girl2Vector_69" d="M72.17 177.25C73.26 177.47 74.07 177.57 74.54 177.63C73.7373 177.602 72.9413 177.474 72.17 177.25Z" fill="url(#PaintGirl227_linear)"/>
<path id="Girl2Vector_70" d="M186.11 186.69C186.11 186.69 198 168.97 197.31 142.11C197.223 138.923 196.98 135.773 196.58 132.66C193.8 109.33 184.01 87.0001 185.58 59.4301C186.75 38.2201 171.77 29.1401 156.93 25.3201C156.921 25.3156 156.91 25.3133 156.9 25.3133C156.89 25.3133 156.879 25.3156 156.87 25.3201C147.764 23.1422 138.389 22.3001 129.04 22.8201C129.04 22.8201 111.3 20.56 93.8 26.55C76.3 32.54 77.29 46.3501 74.56 61.7701C71.83 77.19 66.97 105.61 51.75 122.24C37.49 137.82 56.97 172.86 72.06 177.24C66.5 176.14 54.49 172.32 47.34 159.63C37.8 142.71 43.94 127.09 53.34 115.92C62.74 104.75 62.63 78.6301 62.63 78.6301L54.09 107.33C54.09 107.33 43.45 61.81 54.78 36.86C56.6041 32.5636 59.4622 28.7848 63.1 25.86C86.87 7.58004 110.1 12.4 127.5 12.4C144.9 12.4 175.23 8.49004 191.75 28.61C192.11 29.07 192.47 29.5201 192.8 30.0101C207.88 51.4201 199.08 110.06 199.37 127.22C199.37 127.99 199.42 128.79 199.46 129.64C200.55 147.91 209.27 181.54 186.11 186.69Z" fill="url(#PaintGirl228_linear)"/>
<path id="Girl2Vector_71" d="M131.9 21.92C131.9 21.92 164.38 24.65 174 34.78C183.62 44.91 184.61 81.58 191.74 94.62C198.87 107.66 204.38 120.62 205.12 130.45C205.86 140.28 200.63 149.45 200.63 149.45C200.63 149.45 203.3 132.22 199.63 119.32C195.96 106.42 179.49 85.8401 177.44 63.0401C175.39 40.2401 171.52 36.3501 159.72 29.4901C153.01 25.5901 126.18 22.4901 126.18 22.4901L131.9 21.92Z" fill="url(#PaintGirl229_linear)"/>
<path id="Girl2Vector_72" d="M128.99 22.82C128.99 22.82 126.44 16.71 105.18 18.09C83.92 19.47 84.18 40.45 77.75 59.24C71.32 78.03 67.55 92.3 67.55 92.3L64.08 101.86C70.9133 86.1077 76.7025 69.9227 81.41 53.41C89.03 26.51 114.19 20.47 128.99 22.82Z" fill="url(#PaintGirl230_linear)"/>
<g id="Girl2Vector_73" style="mix-blend-mode:multiply">
<path d="M128.99 22.82C128.99 22.82 114.58 17.63 102.33 20.63C90.08 23.63 83.72 46.97 83.72 46.97C83.72 46.97 93.63 19.69 128.99 22.82Z" fill="#D177B8"/>
</g>
<path id="Girl2Vector_74" style="mix-blend-mode:multiply" d="M199.39 127.21C199.39 127.98 199.44 128.78 199.48 129.63L196.86 133.09L196.63 132.69C193.85 109.36 184.06 87.03 185.63 59.46C186.8 38.25 171.82 29.17 156.98 25.35C158.71 25.49 177.84 27.35 184.5 39.48C191.5 52.17 192.92 30.02 192.92 30.02C207.9 51.41 199.1 110.05 199.39 127.21Z" fill="url(#PaintGirl231_linear)"/>
<path id="Girl2Vector_75" style="mix-blend-mode:multiply" d="M70.49 33.3301C70.49 33.3301 65.02 57.7801 62.65 78.6301L54.11 107.33C54.11 107.33 43.47 61.8101 54.8 36.8601C57.13 37.4501 62.85 38.0901 70.49 33.3301Z" fill="url(#PaintGirl232_linear)"/>
<g id="Girl2Vector_76" style="mix-blend-mode:soft-light">
<path d="M161.63 24.14C161.63 24.14 176.63 29.14 180.78 34.81C180.78 34.81 177.92 30.4 178.18 28.81C178.44 27.22 180 26.41 181.27 24.09C182.54 21.77 179.63 18.7901 179.63 18.7901L176.95 17.4901C176.95 17.4901 178.07 18.49 177.3 21.23C176.53 23.97 174.55 24.4 171.59 24.83C168.63 25.26 161.63 24.14 161.63 24.14Z" fill="#FFD9BB"/>
</g>
<g id="Girl2Vector_77" style="mix-blend-mode:soft-light">
<path d="M77.92 17.1601C77.92 17.1601 77.98 21.0601 80.15 22.8901C82.32 24.7201 89.93 25.3301 89.93 25.3301C92.1242 22.9882 94.7354 21.0756 97.63 19.6901C97.63 19.6901 90.63 21.3301 85.93 20.1301C81.23 18.9301 81.37 15.8201 81.37 15.8201L77.92 17.1601Z" fill="#FFD9BB"/>
</g>
</g>
<g id="GroupGirl2_16">
<g id="GroupGirl2_17">
<path id="Girl2Vector_78" d="M156.56 124.488C156.56 124.488 172.376 127.445 183.142 117.277L182.345 113.61C182.345 113.61 173.717 122.984 156.56 124.488Z" fill="#DD6B7C"/>
<path id="Girl2Vector_79" d="M147.666 107.439C147.666 107.439 150.413 93.1097 163.648 90.4003C176.884 87.691 183.94 99.6203 183.94 99.6203C183.94 99.6203 162.197 83.4777 147.666 107.439Z" fill="#DD4C6A"/>
<path id="Girl2Vector_80" d="M147.544 118.441C148.851 124.241 158.254 126.126 169.054 123.592C184.56 119.904 185.269 109.108 182.932 103.195C180.595 97.2819 173.827 90.0914 160.78 93.6351C147.732 97.1789 145.805 110.602 147.544 118.441Z" fill="url(#PaintGirl233_linear)"/>
<path id="Girl2Vector_81" d="M147.234 116.731C147.234 116.731 145.251 101.887 159.628 96.025C172.332 90.8742 181.337 99.1154 183.176 103.864C183.176 103.864 186.498 100.774 186.432 99.3936C186.144 94.1089 177.715 89.7101 165.387 91.4717C153.06 93.2332 145.805 102.484 147.234 116.731Z" fill="#4E1B3D"/>
<path id="Girl2Vector_82" d="M147.234 116.731C147.234 116.731 147.234 121.006 147.92 122.531C148.607 124.056 157.025 124.519 157.025 124.519C157.025 124.519 148.142 124.045 147.234 116.731Z" fill="#DD6B7C"/>
<path id="Girl2Vector_83" d="M162.74 121.614C169.304 121.614 174.625 116.665 174.625 110.561C174.625 104.456 169.304 99.507 162.74 99.507C156.177 99.507 150.856 104.456 150.856 110.561C150.856 116.665 156.177 121.614 162.74 121.614Z" fill="url(#PaintGirl234_linear)"/>
<path id="Girl2Vector_84" d="M162.74 120.965C168.919 120.965 173.927 116.307 173.927 110.56C173.927 104.814 168.919 100.156 162.74 100.156C156.562 100.156 151.553 104.814 151.553 110.56C151.553 116.307 156.562 120.965 162.74 120.965Z" fill="url(#PaintGirl235_linear)"/>
<path id="Girl2Vector_85" style="mix-blend-mode:multiply" d="M162.74 117.308C166.747 117.308 169.995 114.287 169.995 110.561C169.995 106.834 166.747 103.813 162.74 103.813C158.733 103.813 155.485 106.834 155.485 110.561C155.485 114.287 158.733 117.308 162.74 117.308Z" fill="url(#PaintGirl236_linear)"/>
<g id="Girl2Vector_86" style="mix-blend-mode:multiply" opacity="0.6">
<path d="M147.234 116.731C147.234 116.731 148.397 103.947 161.212 100.156C175.666 95.891 183.176 103.864 183.176 103.864C183.176 103.864 179.653 92.3576 163.693 94.4591C147.732 96.5606 146.968 109.705 147.234 116.731Z" fill="#D177B8"/>
</g>
<path id="Girl2Vector_87" d="M172.443 108.201C171.734 108.789 175.057 108.933 177.549 108.026C179.764 107.213 180.872 105.884 180.628 105.647C180.384 105.41 175.278 105.904 172.443 108.201Z" fill="white"/>
<path id="Girl2Vector_88" d="M170.549 108.83C169.607 108.531 168.511 108.984 168.467 109.448C168.422 109.912 169.574 110.478 170.139 110.303C170.704 110.128 171.081 108.995 170.549 108.83Z" fill="white"/>
</g>
</g>
<g id="GroupGirl2_18">
<g id="GroupGirl2_19">
<path id="Girl2Vector_89" d="M94.8732 125.488C94.8732 125.488 79.0565 128.445 68.2906 118.277L69.088 114.61C69.088 114.61 77.7163 123.984 94.8732 125.488Z" fill="#DD6B7C"/>
<path id="Girl2Vector_90" d="M103.767 108.439C103.767 108.439 101.02 94.1097 87.7845 91.4003C74.5486 88.691 67.4932 100.62 67.4932 100.62C67.4932 100.62 89.2355 84.4777 103.767 108.439Z" fill="#DD4C6A"/>
<path id="Girl2Vector_91" d="M103.889 119.441C102.582 125.241 93.1785 127.126 82.3793 124.592C66.8728 120.904 66.164 110.108 68.501 104.195C70.8381 98.2819 77.6056 91.0914 90.6532 94.6351C103.701 98.1789 105.628 111.602 103.889 119.441Z" fill="url(#PaintGirl237_linear)"/>
<path id="Girl2Vector_92" d="M104.199 117.731C104.199 117.731 106.182 102.887 91.8051 97.025C79.1008 91.8742 70.096 100.115 68.2573 104.864C68.2573 104.864 64.9345 101.774 65.001 100.394C65.289 95.1089 73.7179 90.7101 86.0455 92.4717C98.3732 94.2332 105.628 103.484 104.199 117.731Z" fill="#4E1B3D"/>
<path id="Girl2Vector_93" d="M104.199 117.731C104.199 117.731 104.199 122.006 103.513 123.531C102.826 125.056 94.408 125.519 94.408 125.519C94.408 125.519 103.291 125.045 104.199 117.731Z" fill="#DD6B7C"/>
<path id="Girl2Vector_94" d="M88.6928 122.614C82.1291 122.614 76.8081 117.665 76.8081 111.561C76.8081 105.456 82.1291 100.507 88.6928 100.507C95.2565 100.507 100.577 105.456 100.577 111.561C100.577 117.665 95.2565 122.614 88.6928 122.614Z" fill="url(#PaintGirl238_linear)"/>
<path id="Girl2Vector_95" d="M88.6927 121.965C82.5144 121.965 77.5059 117.307 77.5059 111.56C77.5059 105.814 82.5144 101.156 88.6927 101.156C94.8711 101.156 99.8796 105.814 99.8796 111.56C99.8796 117.307 94.8711 121.965 88.6927 121.965Z" fill="url(#PaintGirl239_linear)"/>
<path id="Girl2Vector_96" style="mix-blend-mode:multiply" d="M88.6928 118.308C84.686 118.308 81.4379 115.287 81.4379 111.561C81.4379 107.834 84.686 104.813 88.6928 104.813C92.6995 104.813 95.9476 107.834 95.9476 111.561C95.9476 115.287 92.6995 118.308 88.6928 118.308Z" fill="url(#PaintGirl240_linear)"/>
<g id="Girl2Vector_97" style="mix-blend-mode:multiply" opacity="0.6">
<path d="M104.199 117.731C104.199 117.731 103.036 104.947 90.2213 101.156C75.767 96.891 68.2574 104.864 68.2574 104.864C68.2574 104.864 71.7796 93.3576 87.7402 95.4591C103.701 97.5606 104.465 110.705 104.199 117.731Z" fill="#D177B8"/>
</g>
<path id="Girl2Vector_98" d="M78.9901 109.201C79.6989 109.789 76.3761 109.933 73.884 109.026C71.6688 108.213 70.5612 106.884 70.8048 106.647C71.0485 106.41 76.1546 106.904 78.9901 109.201Z" fill="white"/>
<path id="Girl2Vector_99" d="M80.8841 109.83C81.8256 109.531 82.9221 109.984 82.9664 110.448C83.0107 110.912 81.8588 111.478 81.2939 111.303C80.729 111.128 80.3524 109.995 80.8841 109.83Z" fill="white"/>
</g>
</g>
</g>
<defs>
<linearGradient id="PaintGirl20_linear" x1="126.92" y1="252.57" x2="126.92" y2="189.36" gradientUnits="userSpaceOnUse">
<stop stop-color="#DC9584"/>
<stop offset="0.23" stop-color="#FF9B8E"/>
<stop offset="0.48" stop-color="#E99583"/>
<stop offset="0.74" stop-color="#D78776"/>
<stop offset="1" stop-color="#E29280"/>
</linearGradient>
<linearGradient id="PaintGirl21_linear" x1="126.59" y1="252.58" x2="126.59" y2="229.35" gradientUnits="userSpaceOnUse">
<stop stop-color="#D177F4"/>
<stop offset="1" stop-color="#FFC5E0"/>
</linearGradient>
<linearGradient id="PaintGirl22_linear" x1="85.57" y1="241.94" x2="117.11" y2="241.94" gradientUnits="userSpaceOnUse">
<stop offset="0.01" stop-color="#D177F4"/>
<stop offset="1" stop-color="#FFEADB"/>
</linearGradient>
<linearGradient id="PaintGirl23_linear" x1="146.47" y1="241.81" x2="166.53" y2="241.81" gradientUnits="userSpaceOnUse">
<stop stop-color="#FFEADB"/>
<stop offset="0.99" stop-color="#D177F4"/>
</linearGradient>
<linearGradient id="PaintGirl24_linear" x1="6045.18" y1="14296.4" x2="6045.18" y2="11254.2" gradientUnits="userSpaceOnUse">
<stop stop-color="#FFB39D"/>
<stop offset="0.23" stop-color="#FF9B8E"/>
<stop offset="0.48" stop-color="#FF8781"/>
<stop offset="0.74" stop-color="#FF7B7A"/>
<stop offset="1" stop-color="#FF7777"/>
</linearGradient>
<linearGradient id="PaintGirl25_linear" x1="5325.75" y1="9030.51" x2="5325.75" y2="7736.68" gradientUnits="userSpaceOnUse">
<stop stop-color="#FFEADB"/>
<stop offset="0.99" stop-color="#D177F4"/>
</linearGradient>
<linearGradient id="PaintGirl26_linear" x1="2458.07" y1="4417.98" x2="2458.07" y2="4107.22" gradientUnits="userSpaceOnUse">
<stop stop-color="#FFEADB"/>
<stop offset="0.99" stop-color="#D177F4"/>
</linearGradient>
<linearGradient id="PaintGirl27_linear" x1="-4544.61" y1="14300.5" x2="-4544.61" y2="11257.5" gradientUnits="userSpaceOnUse">
<stop stop-color="#FFB39D"/>
<stop offset="0.23" stop-color="#FF9B8E"/>
<stop offset="0.48" stop-color="#FF8781"/>
<stop offset="0.74" stop-color="#FF7B7A"/>
<stop offset="1" stop-color="#FF7777"/>
</linearGradient>
<linearGradient id="PaintGirl28_linear" x1="-3964.45" y1="9030.51" x2="-3964.45" y2="7736.68" gradientUnits="userSpaceOnUse">
<stop stop-color="#FFEADB"/>
<stop offset="0.99" stop-color="#D177F4"/>
</linearGradient>
<linearGradient id="PaintGirl29_linear" x1="-1649.91" y1="4417.98" x2="-1649.91" y2="4107.22" gradientUnits="userSpaceOnUse">
<stop stop-color="#FFEADB"/>
<stop offset="0.99" stop-color="#D177F4"/>
</linearGradient>
<linearGradient id="PaintGirl210_linear" x1="125.6" y1="196.81" x2="125.6" y2="14.41" gradientUnits="userSpaceOnUse">
<stop stop-color="#D29586"/>
<stop offset="0.43" stop-color="#E29684"/>
<stop offset="0.55" stop-color="#DF907E"/>
<stop offset="0.78" stop-color="#E89583"/>
<stop offset="1" stop-color="#FF967F"/>
</linearGradient>
<linearGradient id="PaintGirl211_linear" x1="9602.62" y1="13590.5" x2="9602.62" y2="10561.9" gradientUnits="userSpaceOnUse">
<stop stop-color="#CFA07E"/>
<stop offset="0.99" stop-color="#D9D2FF"/>
</linearGradient>
<linearGradient id="PaintGirl212_linear" x1="-14495.7" y1="13587.6" x2="-14495.7" y2="10558.9" gradientUnits="userSpaceOnUse">
<stop stop-color="#DCDBFF"/>
<stop offset="0.99" stop-color="#C5C4FF"/>
</linearGradient>
<linearGradient id="PaintGirl213_linear" x1="1449.7" y1="14313.6" x2="1449.7" y2="9670.54" gradientUnits="userSpaceOnUse">
<stop stop-color="#FFEADB"/>
<stop offset="0.99" stop-color="#D177F4"/>
</linearGradient>
<linearGradient id="PaintGirl214_linear" x1="-11139.8" y1="14313.6" x2="-11139.8" y2="9670.54" gradientUnits="userSpaceOnUse">
<stop stop-color="#FFEADB"/>
<stop offset="0.99" stop-color="#D177F4"/>
</linearGradient>
<linearGradient id="PaintGirl215_linear" x1="125.83" y1="148.91" x2="125.83" y2="129.19" gradientUnits="userSpaceOnUse">
<stop stop-color="#B17678"/>
<stop offset="0.08" stop-color="#DA9585"/>
<stop offset="0.54" stop-color="#E59381"/>
<stop offset="1" stop-color="#DB9585"/>
</linearGradient>
<linearGradient id="PaintGirl216_linear" x1="466.415" y1="2864.14" x2="466.415" y2="2746.42" gradientUnits="userSpaceOnUse">
<stop stop-color="#FFEADB"/>
<stop offset="0.99" stop-color="#D177F4"/>
</linearGradient>
<linearGradient id="PaintGirl217_linear" x1="-333.112" y1="2864.14" x2="-333.112" y2="2746.42" gradientUnits="userSpaceOnUse">
<stop stop-color="#FFEADB"/>
<stop offset="0.99" stop-color="#D177F4"/>
</linearGradient>
<linearGradient id="PaintGirl218_linear" x1="110.85" y1="84.04" x2="60.29" y2="84.04" gradientUnits="userSpaceOnUse">
<stop stop-color="#3B3BFF"/>
<stop offset="1" stop-color="#5A365D"/>
</linearGradient>
<linearGradient id="PaintGirl219_linear" x1="141.25" y1="84.04" x2="191.81" y2="84.04" gradientUnits="userSpaceOnUse">
<stop stop-color="#1744FF"/>
<stop offset="1" stop-color="#5A365D"/>
</linearGradient>
<linearGradient id="PaintGirl220_linear" x1="40.66" y1="251.51" x2="40.66" y2="2.63005" gradientUnits="userSpaceOnUse">
<stop stop-color="#9259D1"/>
<stop offset="1" stop-color="#9A2542"/>
</linearGradient>
<linearGradient id="PaintGirl221_linear" x1="-56531.9" y1="85135.3" x2="-56531.9" y2="29184.9" gradientUnits="userSpaceOnUse">
<stop offset="0.01" stop-color="#D177F4"/>
<stop offset="1" stop-color="#FFEADB"/>
</linearGradient>
<linearGradient id="PaintGirl222_linear" x1="19.01" y1="244.64" x2="19.01" y2="120.39" gradientUnits="userSpaceOnUse">
<stop stop-color="#9281EF"/>
<stop offset="1" stop-color="#9A2542"/>
</linearGradient>
<linearGradient id="PaintGirl223_linear" x1="13244.6" y1="90727" x2="13244.6" y2="27485.7" gradientUnits="userSpaceOnUse">
<stop stop-color="#8D26FF"/>
<stop offset="1" stop-color="#6377E0"/>
</linearGradient>
<linearGradient id="PaintGirl224_linear" x1="11283.8" y1="85135.3" x2="11283.8" y2="29184.9" gradientUnits="userSpaceOnUse">
<stop offset="0.01" stop-color="#D177F4"/>
<stop offset="1" stop-color="#FFEADB"/>
</linearGradient>
<linearGradient id="PaintGirl225_linear" x1="4844.87" y1="38332.6" x2="4844.87" y2="18515" gradientUnits="userSpaceOnUse">
<stop stop-color="#9281EF"/>
<stop offset="1" stop-color="#9A2542"/>
</linearGradient>
<linearGradient id="PaintGirl226_linear" x1="7164.42" y1="37304.5" x2="7164.42" y2="26513.4" gradientUnits="userSpaceOnUse">
<stop offset="0.01" stop-color="#D177F4"/>
<stop offset="1" stop-color="#FFEADB"/>
</linearGradient>
<linearGradient id="PaintGirl227_linear" x1="73.36" y1="177.63" x2="73.36" y2="177.25" gradientUnits="userSpaceOnUse">
<stop stop-color="#DB6A4B"/>
<stop offset="1" stop-color="#B63651"/>
</linearGradient>
<linearGradient id="PaintGirl228_linear" x1="122.23" y1="186.7" x2="122.23" y2="11.81" gradientUnits="userSpaceOnUse">
<stop stop-color="#DB6A4B"/>
<stop offset="1" stop-color="#5E48FF"/>
</linearGradient>
<linearGradient id="PaintGirl229_linear" x1="13957.2" y1="33025.4" x2="13957.2" y2="16757.7" gradientUnits="userSpaceOnUse">
<stop stop-color="#DB6A4B"/>
<stop offset="1" stop-color="#B63651"/>
</linearGradient>
<linearGradient id="PaintGirl230_linear" x1="6938.05" y1="17750.5" x2="6938.05" y2="10699.2" gradientUnits="userSpaceOnUse">
<stop stop-color="#DB6A4B"/>
<stop offset="1" stop-color="#B63651"/>
</linearGradient>
<linearGradient id="PaintGirl231_linear" x1="8592.76" y1="26141.5" x2="8592.76" y2="14531.5" gradientUnits="userSpaceOnUse">
<stop offset="0.01" stop-color="#D177F4"/>
<stop offset="1" stop-color="#FFEADB"/>
</linearGradient>
<linearGradient id="PaintGirl232_linear" x1="1500.79" y1="16064.7" x2="1500.79" y2="10588.7" gradientUnits="userSpaceOnUse">
<stop offset="0.01" stop-color="#D177F4"/>
<stop offset="1" stop-color="#FFEADB"/>
</linearGradient>
<linearGradient id="PaintGirl233_linear" x1="165.465" y1="124.684" x2="165.465" y2="92.6668" gradientUnits="userSpaceOnUse">
<stop stop-color="#EEE2FF"/>
<stop offset="1" stop-color="#BDC9FB"/>
</linearGradient>
<linearGradient id="PaintGirl234_linear" x1="162.74" y1="121.614" x2="162.74" y2="99.5173" gradientUnits="userSpaceOnUse">
<stop stop-color="#A93749"/>
<stop offset="1" stop-color="#751540"/>
</linearGradient>
<linearGradient id="PaintGirl235_linear" x1="162.74" y1="120.965" x2="162.74" y2="100.156" gradientUnits="userSpaceOnUse">
<stop stop-color="#FE6E49"/>
<stop offset="1" stop-color="#751540"/>
</linearGradient>
<linearGradient id="PaintGirl236_linear" x1="162.74" y1="117.308" x2="162.74" y2="103.813" gradientUnits="userSpaceOnUse">
<stop stop-color="#CAA7DB"/>
<stop offset="0.99" stop-color="#8460B8"/>
</linearGradient>
<linearGradient id="PaintGirl237_linear" x1="85.968" y1="125.684" x2="85.968" y2="93.6668" gradientUnits="userSpaceOnUse">
<stop stop-color="#EEE2FF"/>
<stop offset="1" stop-color="#BDC9FB"/>
</linearGradient>
<linearGradient id="PaintGirl238_linear" x1="88.6928" y1="122.614" x2="88.6928" y2="100.517" gradientUnits="userSpaceOnUse">
<stop stop-color="#A93749"/>
<stop offset="1" stop-color="#751540"/>
</linearGradient>
<linearGradient id="PaintGirl239_linear" x1="88.6927" y1="121.965" x2="88.6927" y2="101.156" gradientUnits="userSpaceOnUse">
<stop stop-color="#FE6E49"/>
<stop offset="1" stop-color="#751540"/>
</linearGradient>
<linearGradient id="PaintGirl240_linear" x1="88.6928" y1="118.308" x2="88.6928" y2="104.813" gradientUnits="userSpaceOnUse">
<stop stop-color="#CAA7DB"/>
<stop offset="0.99" stop-color="#8460B8"/>
</linearGradient>
</defs>
</svg>
