<svg width="213" height="259" viewBox="0 0 213 259" fill="none" xmlns="http://www.w3.org/2000/svg">
<g id="Group">
<path id="Vector" d="M35.8815 200.944C35.8815 200.944 71.6615 200.834 102.752 201.264C133.842 201.694 176.682 203.264 176.682 203.264C176.682 203.264 186.352 186.054 187.102 154.744C187.852 123.434 175.632 28.154 111.892 20.824C48.1515 13.494 14.3015 137.604 18.0915 158.664C21.8815 179.724 35.8815 200.944 35.8815 200.944Z" fill="#9C1E52"/>
<g id="Group_2">
<path id="Vector_2" d="M133.922 237.384C132.922 230.754 133.922 195.774 133.922 195.774L105.922 197.594L77.9215 195.774C77.9215 195.774 78.9215 230.774 77.9215 237.384C77.9215 237.384 62.1115 254.254 35.1615 258.984H176.682C149.732 254.254 133.922 237.384 133.922 237.384Z" fill="url(#paint0_linear)"/>
<g id="Vector_3" style="mix-blend-mode:multiply" opacity="0.6">
<path d="M78.3215 215.594C78.3215 215.594 102.782 236.684 133.482 227.844L133.922 195.774C133.922 195.774 117.742 207.314 77.9215 197.344L78.3215 215.594Z" fill="#D177B8"/>
</g>
<path id="Vector_4" d="M180.542 258.994H30.6315C30.6315 258.994 56.6315 250.844 61.3915 246.574C62.5244 245.543 63.5868 244.437 64.5715 243.264C66.0228 241.522 67.3781 239.703 68.6315 237.814L68.6915 237.724C69.1059 237.043 69.567 236.391 70.0715 235.774C70.4415 235.604 77.4415 237.284 77.8615 237.384L74.3715 240.604C74.3715 240.604 82.4615 252.724 105.922 252.724C121.582 252.724 130.002 247.034 133.872 243.254C134.918 242.278 135.836 241.173 136.602 239.964L133.872 237.394L141.772 235.764C142.077 237.191 142.523 238.584 143.102 239.924C143.723 241.424 144.522 242.844 145.482 244.154C146.38 245.396 147.474 246.483 148.722 247.374C154.262 251.234 180.542 258.994 180.542 258.994Z" fill="url(#paint1_linear)"/>
<g id="Vector_5" style="mix-blend-mode:multiply" opacity="0.6">
<path d="M141.822 235.764L133.922 243.264C134.968 242.288 135.886 241.183 136.652 239.974L133.922 237.404L141.822 235.764Z" fill="#D177B8"/>
</g>
<g id="Vector_6" style="mix-blend-mode:multiply" opacity="0.6">
<path d="M77.9115 237.394L74.4215 240.614L70.1015 235.774C70.4715 235.604 77.4715 237.284 77.8915 237.384L77.9115 237.394Z" fill="#D177B8"/>
</g>
<path id="Vector_7" style="mix-blend-mode:multiply" opacity="0.6" d="M68.7215 237.724C68.7215 237.724 67.9415 244.724 77.9115 252.424C85.4815 258.294 96.1115 258.984 96.1115 258.984C96.1115 258.984 77.2115 258.544 64.5715 243.264L68.7215 237.724Z" fill="url(#paint2_linear)"/>
<path id="Vector_8" style="mix-blend-mode:multiply" opacity="0.6" d="M143.152 239.924C143.152 239.924 137.452 251.694 125.472 256.524C125.472 256.524 140.712 253.474 145.532 244.154L143.152 239.924Z" fill="url(#paint3_linear)"/>
</g>
<g id="Group_3">
<g id="Group_4">
<path id="Vector_9" d="M197.742 124.884C197.372 126.684 196.952 128.304 196.512 129.764V129.834C193.302 140.184 188.432 142.614 186.512 147.284C184.822 151.284 178.152 159.424 171.562 150.994C171.562 150.994 174.702 116.714 177.222 110.484C177.222 110.484 180.862 101.144 187.402 99.734C195.722 97.894 201.022 108.954 197.742 124.884Z" fill="url(#paint4_linear)"/>
<path id="Vector_10" style="mix-blend-mode:multiply" opacity="0.6" d="M173.752 129.714C173.752 129.714 186.922 110.594 193.222 109.334C199.522 108.074 196.362 124.334 195.102 129.714C194.449 132.711 193.382 135.602 191.932 138.304C192.859 134.511 193.494 130.653 193.832 126.764C194.282 119.344 191.922 112.974 189.272 113.584C186.622 114.194 183.082 123.514 182.852 124.584C182.622 125.654 184.602 127.584 184.482 133.304C184.362 139.024 181.622 145.304 180.122 145.244C178.622 145.184 179.272 140.504 179.272 135.124C179.272 129.744 175.062 130.794 173.202 134.284L173.752 129.714Z" fill="url(#paint5_linear)"/>
<path id="Vector_11" style="mix-blend-mode:multiply" opacity="0.6" d="M173.202 134.274C173.202 134.274 176.592 129.154 178.622 131.474C180.652 133.794 179.192 140.254 180.752 141.034C182.312 141.814 184.392 136.584 183.982 131.814C183.572 127.044 181.682 122.814 178.982 123.574L173.742 129.714L173.202 134.274Z" fill="url(#paint6_linear)"/>
<path id="Vector_12" d="M196.482 129.834C193.272 140.184 188.402 142.614 186.482 147.284C184.792 151.284 178.122 159.424 171.532 150.994C171.922 151.314 175.742 154.414 179.612 152.994C183.692 151.504 184.992 147.694 186.722 144.734C188.452 141.774 192.832 139.774 196.482 129.834Z" fill="#DD6B7C"/>
</g>
<g id="Group_5">
<path id="Vector_13" d="M11.5115 124.884C11.8815 126.684 12.3015 128.304 12.7415 129.764V129.834C15.9515 140.184 20.8215 142.614 22.7415 147.284C24.4315 151.284 31.1015 159.424 37.6915 150.994C37.6915 150.994 34.6315 116.694 32.1315 110.464C32.1315 110.464 28.4915 101.124 21.9515 99.714C13.5315 97.894 8.23153 108.954 11.5115 124.884Z" fill="url(#paint7_linear)"/>
<path id="Vector_14" style="mix-blend-mode:multiply" opacity="0.6" d="M35.5015 129.714C35.5015 129.714 22.3315 110.594 16.0315 109.334C9.73153 108.074 12.8915 124.334 14.1515 129.714C14.8039 132.711 15.8708 135.602 17.3215 138.304C16.3945 134.511 15.7593 130.654 15.4215 126.764C14.9715 119.344 17.3315 112.974 19.9815 113.584C22.6315 114.194 26.1715 123.514 26.4015 124.584C26.6315 125.654 24.6515 127.584 24.7715 133.304C24.8915 139.024 27.6415 145.304 29.1315 145.244C30.6215 145.184 29.9815 140.504 29.9815 135.124C29.9815 129.744 34.1915 130.794 36.0515 134.284L35.5015 129.714Z" fill="url(#paint8_linear)"/>
<path id="Vector_15" style="mix-blend-mode:multiply" opacity="0.6" d="M36.0515 134.274C36.0515 134.274 32.6315 129.154 30.6315 131.474C28.6315 133.794 30.0615 140.254 28.5015 141.034C26.9415 141.814 24.8615 136.584 25.2715 131.814C25.6815 127.044 27.5715 122.814 30.2715 123.574L35.5115 129.714L36.0515 134.274Z" fill="url(#paint9_linear)"/>
<path id="Vector_16" d="M12.7715 129.834C15.9815 140.184 20.8515 142.614 22.7715 147.284C24.4615 151.284 31.1315 159.424 37.7215 150.994C37.3315 151.314 33.5115 154.414 29.6415 152.994C25.5615 151.504 24.2615 147.694 22.5315 144.734C20.8015 141.774 16.4315 139.774 12.7715 129.834Z" fill="#DD6B7C"/>
</g>
<path id="Vector_17" d="M174.442 138.794C174.442 138.964 174.352 139.264 174.272 139.684C173.029 146.968 171.39 154.179 169.362 161.284C163.662 179.474 134.362 203.224 104.602 203.224C74.8415 203.224 45.5415 179.474 39.8415 161.284C39.1715 159.104 38.4315 156.354 37.6315 153.104C34.2458 137.808 31.7483 122.329 30.1515 106.744V106.744C28.1515 87.194 27.7415 68.134 31.2615 59.014C33.7315 52.624 39.8915 45.194 48.8715 38.604C62.1715 28.824 81.6715 20.884 104.562 20.884C142.902 20.884 171.722 43.164 177.862 59.024C183.432 73.274 179.282 112.044 174.442 138.794Z" fill="url(#paint10_linear)"/>
<path id="Vector_18" style="mix-blend-mode:multiply" opacity="0.6" d="M121.992 89.844C121.992 89.844 120.992 131.544 127.172 138.174C133.352 144.804 151.912 143.724 163.972 135.784C176.032 127.844 174.822 98.484 174.822 98.484C171.048 94.5909 166.447 91.5956 161.36 89.7193C156.273 87.843 150.829 87.1338 145.432 87.644C126.852 89.344 121.992 89.844 121.992 89.844Z" fill="url(#paint11_linear)"/>
<path id="Vector_19" style="mix-blend-mode:multiply" opacity="0.6" d="M88.7415 89.844C88.7415 89.844 89.7415 131.544 83.5615 138.174C77.3815 144.804 58.8215 143.724 46.7715 135.784C34.7215 127.844 35.9115 98.484 35.9115 98.484C39.6854 94.5909 44.2859 91.5956 49.3729 89.7193C54.4599 87.843 59.9036 87.1338 65.3015 87.644C83.8815 89.344 88.7415 89.844 88.7415 89.844Z" fill="url(#paint12_linear)"/>
<g id="Group_6" opacity="0.5">
<path id="Vector_20" opacity="0.5" d="M69.5415 152.034C69.2393 152.291 69.0345 152.644 68.9615 153.034C68.9359 153.183 68.9413 153.335 68.9774 153.481C69.0136 153.627 69.0797 153.765 69.1715 153.884C69.6019 154.246 70.1187 154.491 70.6715 154.594C70.962 154.649 71.2615 154.63 71.5427 154.539C71.8239 154.448 72.0779 154.288 72.2815 154.074C72.6723 153.659 72.9088 153.122 72.9515 152.554C73.0306 151.983 72.9143 151.401 72.6215 150.904C72.4689 150.708 72.2945 150.53 72.1015 150.374C71.8566 150.252 71.585 150.193 71.3115 150.204C71.0076 150.281 70.7307 150.44 70.5115 150.664C70.3281 150.795 70.1691 150.958 70.0415 151.144C69.9315 151.284 69.7715 151.374 69.6515 151.514C69.5315 151.654 69.5015 152.044 69.3515 152.274L69.5415 152.034Z" fill="#E76965"/>
<path id="Vector_21" opacity="0.5" d="M78.8215 146.634C79.3259 146.704 79.8391 146.673 80.3315 146.544C80.5615 146.434 80.7715 146.284 81.0015 146.154C81.24 146.051 81.4597 145.909 81.6515 145.734L81.8515 145.394C81.949 145.308 82.0393 145.215 82.1215 145.114C82.4315 144.734 82.8915 143.384 82.0515 143.404C81.5871 143.437 81.1439 143.612 80.7815 143.904C80.4815 144.184 80.1615 144.434 79.8715 144.734C79.3866 145.283 79.0282 145.931 78.8215 146.634V146.634Z" fill="#E76965"/>
<path id="Vector_22" opacity="0.5" d="M80.3415 148.434C80.6315 148.254 80.8915 147.994 81.1715 148.264C81.2915 148.374 81.2915 148.514 81.3315 148.664C81.3488 148.746 81.3487 148.83 81.3314 148.912C81.3141 148.994 81.2798 149.071 81.2308 149.139C81.1819 149.207 81.1193 149.264 81.0471 149.306C80.9749 149.348 80.8946 149.375 80.8115 149.384C80.4815 149.384 80.2515 149.384 80.1215 149.114C80.0615 148.974 80.0015 148.874 80.1215 148.714C80.2415 148.554 80.3315 148.574 80.3615 148.434H80.3415Z" fill="#E76965"/>
<path id="Vector_23" opacity="0.5" d="M86.6815 138.954C86.4315 139.234 86.2415 139.394 86.5815 139.594C86.7413 139.668 86.918 139.699 87.0936 139.684C87.2693 139.668 87.4376 139.606 87.5815 139.504C88.2515 139.144 88.7615 138.504 88.3515 137.724C88.2839 137.617 88.1929 137.526 88.0853 137.459C87.9778 137.392 87.8564 137.35 87.7304 137.337C87.6044 137.324 87.477 137.339 87.3577 137.382C87.2384 137.424 87.1303 137.494 87.0415 137.584C86.8066 137.826 86.6289 138.118 86.5216 138.439C86.4143 138.759 86.3801 139.099 86.4215 139.434L86.6815 138.954Z" fill="#E76965"/>
<path id="Vector_24" opacity="0.5" d="M91.0415 138.234C90.8315 138.344 90.6015 138.404 90.5515 138.654C90.5015 138.904 90.5515 138.974 90.7915 138.994C90.9307 139.01 91.0716 138.989 91.1998 138.933C91.3281 138.877 91.4391 138.787 91.5215 138.674C91.5587 138.598 91.578 138.514 91.578 138.429C91.578 138.344 91.5587 138.26 91.5215 138.184C91.3315 137.924 91.0515 138.124 90.8415 138.294L91.0415 138.234Z" fill="#E76965"/>
<path id="Vector_25" opacity="0.5" d="M98.3015 134.564C98.3752 134.397 98.5066 134.262 98.6715 134.184C98.8739 134.076 99.1035 134.031 99.3315 134.054C99.5223 134.05 99.7103 134.1 99.8734 134.2C100.036 134.299 100.168 134.443 100.252 134.614C100.412 134.964 100.252 135.194 100.032 135.494C99.6984 135.932 99.2255 136.242 98.6915 136.374C98.2015 136.544 96.9015 136.904 96.9715 135.954C97.0089 135.763 97.0851 135.583 97.1951 135.423C97.3052 135.263 97.4469 135.127 97.6115 135.024L97.9315 134.754C97.9915 134.694 98.0915 134.644 98.1215 134.564H98.3015Z" fill="#E76965"/>
<path id="Vector_26" opacity="0.5" d="M105.952 135.454C105.832 135.714 105.812 135.724 106.052 135.874C106.268 136.013 106.529 136.063 106.782 136.014C106.91 135.982 107.024 135.91 107.11 135.81C107.196 135.71 107.249 135.585 107.262 135.454C107.262 135.174 106.932 135.024 106.692 135.004C106.53 135.008 106.372 135.051 106.231 135.13C106.09 135.208 105.97 135.319 105.882 135.454H105.952Z" fill="#E76965"/>
<path id="Vector_27" opacity="0.5" d="M119.902 136.774C119.929 136.99 120.011 137.196 120.141 137.371C120.27 137.546 120.443 137.685 120.642 137.774C120.84 137.909 121.071 137.987 121.311 138.001C121.55 138.015 121.789 137.965 122.002 137.854C122.582 137.524 122.442 136.924 122.232 136.414C122.132 136.126 122.004 135.848 121.852 135.584C121.668 135.313 121.426 135.087 121.142 134.924C120.662 134.614 119.632 134.484 119.652 135.304C119.642 135.451 119.642 135.598 119.652 135.744C119.652 135.864 119.712 135.974 119.722 136.094C119.725 136.332 119.787 136.566 119.902 136.774V136.774Z" fill="#E76965"/>
<path id="Vector_28" opacity="0.5" d="M122.052 139.744C122.052 139.564 122.052 139.464 122.242 139.364C122.321 139.31 122.416 139.283 122.513 139.287C122.609 139.291 122.701 139.326 122.776 139.386C122.851 139.447 122.905 139.53 122.929 139.623C122.954 139.716 122.947 139.815 122.912 139.904C122.862 140.094 122.732 140.154 122.532 140.124C122.415 140.111 122.304 140.066 122.212 139.994C122.102 139.924 122.082 139.844 121.992 139.744H122.052Z" fill="#E76965"/>
<path id="Vector_29" opacity="0.5" d="M53.3415 149.224C53.2515 149.594 53.1915 149.994 53.5315 150.224C54.0277 150.513 54.5984 150.649 55.1715 150.614C55.8515 150.694 57.1015 150.614 57.1715 149.674C57.1715 149.494 57.0915 149.434 57.0015 149.294C56.8587 149.075 56.6755 148.885 56.4615 148.734C56.3015 148.624 56.1315 148.534 55.9715 148.434C55.7405 148.321 55.4886 148.256 55.2315 148.244C54.7791 148.175 54.3168 148.212 53.8815 148.354C53.5015 148.514 53.1215 148.694 53.3415 149.224Z" fill="#E76965"/>
<path id="Vector_30" opacity="0.5" d="M46.4515 138.544C46.3915 138.734 46.3315 138.814 46.5115 138.934C46.7654 139.082 47.0587 139.148 47.3515 139.124C47.6215 139.124 48.0415 139.034 47.7515 138.704C47.5901 138.502 47.3803 138.344 47.1415 138.244C47.0601 138.203 46.9722 138.175 46.8815 138.164C46.6715 138.164 46.5715 138.414 46.4515 138.544V138.544Z" fill="#E76965"/>
<path id="Vector_31" opacity="0.5" d="M111.692 138.294C111.773 138.716 111.978 139.104 112.281 139.408C112.584 139.713 112.97 139.92 113.392 140.004C113.647 140.117 113.923 140.175 114.202 140.175C114.481 140.175 114.756 140.117 115.012 140.004C116.012 139.444 115.322 137.904 114.592 137.354C114.026 136.986 113.418 136.687 112.782 136.464C112.594 136.341 112.378 136.267 112.154 136.249C111.931 136.232 111.706 136.271 111.502 136.364C110.692 136.844 111.252 137.894 111.502 138.504L111.692 138.294Z" fill="#E76965"/>
<path id="Vector_32" opacity="0.5" d="M151.862 143.974C152.222 144.624 152.132 144.614 152.592 144.744C153.092 144.886 153.613 144.94 154.132 144.904C155.058 144.778 155.95 144.465 156.752 143.984C157.752 143.364 158.072 141.924 156.892 141.394C156.293 141.15 155.645 141.05 155.001 141.102C154.356 141.154 153.733 141.357 153.182 141.694C152.676 142.011 152.226 142.409 151.852 142.874C151.642 143.177 151.547 143.544 151.583 143.911C151.62 144.277 151.786 144.619 152.052 144.874L151.862 143.974Z" fill="#E76965"/>
<path id="Vector_33" opacity="0.5" d="M162.282 139.624C162.552 139.164 162.552 138.814 163.042 138.894C163.253 138.966 163.447 139.082 163.612 139.234C163.721 139.304 163.813 139.399 163.88 139.511C163.947 139.623 163.987 139.749 163.996 139.879C164.006 140.009 163.985 140.139 163.936 140.26C163.887 140.381 163.81 140.488 163.712 140.574C163.544 140.685 163.355 140.759 163.157 140.791C162.959 140.824 162.756 140.815 162.562 140.764C162.022 140.644 162.102 140.294 162.092 139.764L162.282 139.624Z" fill="#E76965"/>
<path id="Vector_34" opacity="0.5" d="M128.752 148.334C129.582 149.174 130.672 150.684 131.982 150.634C132.253 150.603 132.514 150.508 132.741 150.355C132.968 150.202 133.155 149.996 133.285 149.756C133.416 149.515 133.486 149.247 133.491 148.973C133.496 148.699 133.434 148.429 133.312 148.184C133.06 147.724 132.705 147.328 132.274 147.028C131.844 146.728 131.35 146.532 130.832 146.454C130.36 146.361 129.87 146.417 129.432 146.614C128.432 147.144 128.852 148.534 129.322 149.284L128.752 148.334Z" fill="#E76965"/>
<path id="Vector_35" opacity="0.5" d="M134.052 144.924C134.708 144.885 135.354 144.736 135.962 144.484C135.672 144.314 135.422 143.974 135.152 143.824C134.81 143.714 134.443 143.714 134.102 143.824C133.412 144.014 132.842 144.924 134.052 144.914V144.924Z" fill="#E76965"/>
<path id="Vector_36" opacity="0.5" d="M150.922 146.254C150.472 146.724 150.282 146.804 150.382 147.374C150.446 147.687 150.615 147.97 150.862 148.174C150.958 148.254 151.07 148.312 151.191 148.345C151.312 148.377 151.439 148.383 151.562 148.362C151.685 148.341 151.803 148.294 151.906 148.224C152.01 148.153 152.097 148.061 152.162 147.954C152.246 147.773 152.278 147.572 152.254 147.374C152.229 147.175 152.149 146.988 152.022 146.833C151.896 146.678 151.728 146.563 151.539 146.499C151.349 146.436 151.146 146.427 150.952 146.474V146.634L150.922 146.254Z" fill="#E76965"/>
<path id="Vector_37" opacity="0.5" d="M102.032 128.104C102.702 128.207 103.335 128.479 103.872 128.894C103.774 129.163 103.58 129.387 103.327 129.522C103.074 129.657 102.78 129.693 102.502 129.624C102.072 129.524 101.242 128.764 101.842 128.294L102.032 128.104Z" fill="#E76965"/>
</g>
<g id="Vector_38" style="mix-blend-mode:multiply" opacity="0.6">
<path d="M174.272 139.684C173.029 146.968 171.39 154.179 169.362 161.284C163.662 179.474 134.362 203.224 104.602 203.224C74.8415 203.224 45.5415 179.474 39.8415 161.284C39.1715 159.104 38.4315 156.354 37.6315 153.104L37.7215 151.034C37.7215 151.034 38.8515 161.764 47.9315 173.834C57.0115 185.904 81.1815 200.354 104.572 200.354C127.962 200.354 153.252 182.754 161.712 172.604C169.152 163.674 173.342 144.374 174.272 139.684Z" fill="#D177B8"/>
</g>
<path id="Vector_39" style="mix-blend-mode:multiply" opacity="0.6" d="M44.0415 83.914C41.4215 93.054 30.5515 106.264 30.1915 106.694C28.1915 87.144 27.7815 68.084 31.3015 58.964C33.7715 52.574 39.9315 45.144 48.9115 38.554C41.2515 52.104 46.7015 74.634 44.0415 83.914Z" fill="url(#paint13_linear)"/>
<path id="Vector_40" style="mix-blend-mode:multiply" opacity="0.6" d="M165.162 83.914C167.782 93.054 178.652 106.264 179.012 106.694C181.012 87.144 181.422 68.084 177.902 58.964C175.432 52.574 169.272 45.144 160.292 38.554C167.952 52.104 162.502 74.634 165.162 83.914Z" fill="url(#paint14_linear)"/>
</g>
<g id="Group_7">
<path id="Vector_41" d="M172.542 94.654C172.132 94.274 169.542 92.194 159.882 90.994C155.586 90.592 151.266 90.5351 146.962 90.824C137.072 91.304 126.892 92.674 126.892 92.674C123.367 91.2476 120.473 88.5993 118.742 85.214H119.822C121.277 87.3159 123.075 89.1583 125.142 90.664L121.142 85.274C121.142 85.274 127.392 85.404 137.922 84.874C144.006 84.6 150.061 83.8578 156.032 82.654L155.492 82.264H155.622C162.355 84.6441 168.24 88.9531 172.542 94.654V94.654Z" fill="url(#paint15_linear)"/>
<g id="Vector_42" style="mix-blend-mode:multiply" opacity="0.6">
<path d="M172.542 94.654C172.132 94.274 169.542 92.194 159.882 90.994C155.586 90.592 151.266 90.5352 146.962 90.824C161.432 88.824 163.372 88.984 163.372 88.984C161.608 85.9651 158.877 83.6292 155.622 82.354C162.344 84.7097 168.227 88.9864 172.542 94.654V94.654Z" fill="#D177B8"/>
</g>
</g>
<g id="Group_8">
<path id="Vector_43" d="M39.4115 95.304C39.8115 94.914 42.4115 92.774 51.9815 91.304C56.2651 90.7994 60.582 90.6355 64.8915 90.814C74.7915 91.054 85.0015 92.184 85.0015 92.184C88.5031 90.6765 91.3435 87.9568 93.0015 84.524L91.9215 84.604C90.5237 86.7382 88.7759 88.6213 86.7515 90.174L90.6115 84.694C90.6115 84.694 84.3615 84.984 73.8315 84.694C67.729 84.5855 61.6441 84.0038 55.6315 82.954L56.1715 82.554H56.0415C49.3671 85.0799 43.5835 89.5141 39.4115 95.304V95.304Z" fill="url(#paint16_linear)"/>
<g id="Vector_44" style="mix-blend-mode:multiply" opacity="0.6">
<path d="M39.4115 95.304C39.8115 94.914 42.4115 92.774 51.9815 91.304C56.2651 90.7994 60.582 90.6355 64.8915 90.814C50.3715 89.204 48.4415 89.384 48.4415 89.384C50.1367 86.325 52.8094 83.9235 56.0315 82.564C49.362 85.0889 43.5823 89.5193 39.4115 95.304Z" fill="#D177B8"/>
</g>
</g>
<g id="Group_9">
<path id="Vector_45" d="M121.632 151.024C121.632 151.024 121.332 151.954 117.772 152.084C114.212 152.214 110.902 155.324 104.882 155.324C98.8615 155.324 95.8815 152.224 92.2815 152.084C88.6815 151.944 88.1315 151.024 88.1315 151.024C87.6757 148.853 87.8351 146.599 88.5915 144.514V144.514C88.5959 144.491 88.5959 144.467 88.5915 144.444C89.3348 142.344 90.4417 140.391 91.8615 138.674C95.8977 136.655 100.349 135.604 104.862 135.604C109.374 135.604 113.825 136.655 117.862 138.674C118.851 139.858 119.687 141.161 120.352 142.554V142.554C121.733 145.148 122.185 148.137 121.632 151.024V151.024Z" fill="url(#paint17_linear)"/>
<path id="Vector_46" d="M113.522 153.234C114.367 152.551 115.361 152.074 116.423 151.841C117.486 151.609 118.587 151.627 119.642 151.894L113.522 153.234Z" fill="#842751"/>
<path id="Vector_47" d="M90.4115 151.924C91.6156 151.658 92.865 151.674 94.0619 151.97C95.2588 152.267 96.371 152.836 97.3115 153.634L90.4115 151.924Z" fill="#842751"/>
<g id="Vector_48" style="mix-blend-mode:multiply" opacity="0.6">
<path d="M121.632 151.024C121.632 151.024 121.332 151.954 117.772 152.084C114.212 152.214 110.902 155.324 104.882 155.324C98.8615 155.324 95.8815 152.224 92.2815 152.084C88.6815 151.944 88.1315 151.024 88.1315 151.024C87.6757 148.853 87.8351 146.599 88.5915 144.514C88.4615 145.074 87.7115 148.744 89.1315 149.634C90.5515 150.524 99.4015 150.034 104.882 150.034C110.362 150.034 119.692 150.034 120.742 148.594C121.792 147.154 120.492 142.964 120.372 142.594C121.737 145.179 122.181 148.152 121.632 151.024V151.024Z" fill="#D177B8"/>
</g>
<path id="Vector_49" style="mix-blend-mode:multiply" opacity="0.6" d="M117.822 138.664C117.822 138.664 115.872 144.714 116.102 148.944C116.102 148.944 114.652 144.814 116.582 138.094L117.822 138.664Z" fill="url(#paint18_linear)"/>
<path id="Vector_50" style="mix-blend-mode:multiply" opacity="0.6" d="M92.1415 138.664C92.1415 138.664 94.1415 144.714 93.8615 148.944C93.8615 148.944 95.3215 144.814 93.3915 138.094L92.1415 138.664Z" fill="url(#paint19_linear)"/>
<g id="Vector_51" style="mix-blend-mode:multiply" opacity="0.6">
<path d="M89.0815 149.634C88.6915 150.054 88.3556 150.521 88.0815 151.024C87.9015 151.504 95.8715 159.024 104.832 159.024C113.792 159.024 121.422 151.954 121.582 151.024C121.742 150.094 120.282 148.944 120.282 148.944C115.163 149.663 110.001 150.028 104.832 150.034C96.3815 150.034 89.0815 149.634 89.0815 149.634Z" fill="#D177B8"/>
</g>
<path id="Vector_52" d="M111.972 147.974C110.702 147.254 112.972 145.154 113.552 145.244C114.132 145.334 114.482 146.684 114.152 147.554C113.822 148.424 112.512 148.284 111.972 147.974Z" fill="#FFCFBF"/>
</g>
<g id="Group_10">
<path id="Vector_53" d="M130.132 136.304C130.912 139.374 150.782 141.144 159.002 134.614C167.772 127.614 168.502 109.894 156.752 106.964C145.002 104.034 124.452 113.824 130.132 136.304Z" fill="url(#paint20_linear)"/>
<path id="Vector_54" d="M129.702 123.234C129.702 123.234 132.752 104.924 147.152 102.954C160.072 101.184 164.052 112.954 164.052 112.954C164.052 112.954 144.282 91.264 129.702 123.234Z" fill="#DD4C6A"/>
<path id="Vector_55" d="M129.372 133.294C130.628 135.036 132.026 136.671 133.552 138.184C133.552 138.184 129.812 137.874 129.372 136.804C129.14 135.645 129.14 134.453 129.372 133.294V133.294Z" fill="#DD6B7C"/>
<path id="Vector_56" d="M139.332 138.984C139.332 138.984 152.502 139.984 159.692 132.574C165.942 126.114 165.582 120.314 165.582 120.314C165.582 120.314 166.882 128.224 159.422 134.694C151.962 141.164 139.332 138.984 139.332 138.984Z" fill="#DD6B7C"/>
<g id="Group_11">
<path id="Vector_57" d="M145.642 132.484C152.319 132.484 157.732 127.071 157.732 120.394C157.732 113.717 152.319 108.304 145.642 108.304C138.964 108.304 133.552 113.717 133.552 120.394C133.552 127.071 138.964 132.484 145.642 132.484Z" fill="url(#paint21_linear)"/>
<path id="Vector_58" d="M145.642 131.774C151.927 131.774 157.022 126.679 157.022 120.394C157.022 114.109 151.927 109.014 145.642 109.014C139.357 109.014 134.262 114.109 134.262 120.394C134.262 126.679 139.357 131.774 145.642 131.774Z" fill="url(#paint22_linear)"/>
<path id="Vector_59" style="mix-blend-mode:multiply" d="M145.642 127.784C149.723 127.784 153.032 124.475 153.032 120.394C153.032 116.313 149.723 113.004 145.642 113.004C141.56 113.004 138.252 116.313 138.252 120.394C138.252 124.475 141.56 127.784 145.642 127.784Z" fill="url(#paint23_linear)"/>
</g>
<path id="Vector_60" d="M129.162 128.724C129.162 128.724 129.462 113.214 145.332 108.724C161.202 104.234 165.142 115.934 165.142 115.934C165.142 115.934 166.272 105.354 153.702 104.644C138.192 103.814 128.952 118.364 129.162 128.724Z" fill="#4E1B3D"/>
<path id="Vector_61" d="M153.802 118.804C153.092 119.434 156.402 119.584 158.872 118.614C161.082 117.744 162.152 116.324 161.942 116.074C161.732 115.824 156.632 116.304 153.802 118.804Z" fill="white"/>
<path id="Vector_62" d="M151.922 119.434C150.982 119.114 149.922 119.594 149.842 120.094C149.762 120.594 150.962 121.214 151.502 121.014C152.042 120.814 152.442 119.614 151.922 119.434Z" fill="white"/>
<g id="Vector_63" style="mix-blend-mode:multiply" opacity="0.6">
<path d="M129.262 131.184C129.262 131.184 132.432 115.184 147.162 112.104C161.892 109.024 165.292 116.684 165.292 116.684L165.142 115.974C165.142 115.974 163.572 105.604 146.692 107.184C129.812 108.764 128.702 127.384 129.262 131.184Z" fill="#D177B8"/>
</g>
</g>
<g id="Group_12">
<path id="Vector_64" d="M79.7915 136.304C79.0115 139.374 59.1415 141.144 50.9215 134.614C42.1515 127.614 41.4215 109.894 53.1715 106.964C64.9215 104.034 85.4715 113.824 79.7915 136.304Z" fill="url(#paint24_linear)"/>
<path id="Vector_65" d="M80.2215 123.234C80.2215 123.234 77.2215 104.924 62.7715 102.954C49.8515 101.184 45.8615 112.954 45.8615 112.954C45.8615 112.954 65.6315 91.264 80.2215 123.234Z" fill="#DD4C6A"/>
<path id="Vector_66" d="M80.5515 133.294C79.2948 135.036 77.8967 136.671 76.3715 138.184C76.3715 138.184 80.1015 137.874 80.5515 136.804C80.7835 135.645 80.7835 134.453 80.5515 133.294V133.294Z" fill="#DD6B7C"/>
<path id="Vector_67" d="M70.6315 138.984C70.6315 138.984 57.4615 139.984 50.2715 132.574C44.0215 126.114 44.3815 120.314 44.3815 120.314C44.3815 120.314 43.0815 128.224 50.5415 134.694C58.0015 141.164 70.6315 138.984 70.6315 138.984Z" fill="#DD6B7C"/>
<g id="Group_13">
<path id="Vector_68" d="M64.2715 132.484C70.9487 132.484 76.3615 127.071 76.3615 120.394C76.3615 113.717 70.9487 108.304 64.2715 108.304C57.5944 108.304 52.1815 113.717 52.1815 120.394C52.1815 127.071 57.5944 132.484 64.2715 132.484Z" fill="url(#paint25_linear)"/>
<path id="Vector_69" d="M64.2715 131.774C70.5565 131.774 75.6515 126.679 75.6515 120.394C75.6515 114.109 70.5565 109.014 64.2715 109.014C57.9865 109.014 52.8915 114.109 52.8915 120.394C52.8915 126.679 57.9865 131.774 64.2715 131.774Z" fill="url(#paint26_linear)"/>
<path id="Vector_70" style="mix-blend-mode:multiply" d="M64.2715 127.784C68.3529 127.784 71.6615 124.475 71.6615 120.394C71.6615 116.313 68.3529 113.004 64.2715 113.004C60.1901 113.004 56.8815 116.313 56.8815 120.394C56.8815 124.475 60.1901 127.784 64.2715 127.784Z" fill="url(#paint27_linear)"/>
</g>
<path id="Vector_71" d="M80.7615 128.724C80.7615 128.724 80.4515 113.214 64.5815 108.724C48.7115 104.234 44.7815 115.934 44.7815 115.934C44.7815 115.934 43.6315 105.394 56.2215 104.684C71.7315 103.814 80.9715 118.364 80.7615 128.724Z" fill="#4E1B3D"/>
<path id="Vector_72" d="M56.1215 118.804C56.8315 119.434 53.5215 119.584 51.0515 118.614C48.8415 117.744 47.7715 116.324 47.9815 116.074C48.1915 115.824 53.3015 116.304 56.1215 118.804Z" fill="white"/>
<path id="Vector_73" d="M58.0015 119.434C58.9415 119.114 60.0015 119.594 60.0815 120.094C60.1615 120.594 58.9615 121.214 58.4215 121.014C57.8815 120.814 57.4815 119.614 58.0015 119.434Z" fill="white"/>
<g id="Vector_74" style="mix-blend-mode:multiply" opacity="0.6">
<path d="M80.6315 131.184C80.6315 131.184 77.4615 115.184 62.7315 112.104C48.0015 109.024 44.6315 116.684 44.6315 116.684L44.7815 115.974C44.7815 115.974 46.3415 105.604 63.2215 107.184C80.1015 108.764 81.2215 127.384 80.6315 131.184Z" fill="#D177B8"/>
</g>
</g>
<g id="Group_14">
<g id="Vector_75" style="mix-blend-mode:multiply" opacity="0.6">
<path d="M84.1415 177.504C84.1415 177.504 91.4815 191.254 104.482 191.254C117.482 191.254 125.482 176.824 125.482 176.824C125.482 176.824 99.7815 187.434 84.1415 177.504Z" fill="#D177B8"/>
</g>
<path id="Vector_76" d="M78.7115 168.444C78.7115 168.444 85.9515 187.844 104.602 187.844C123.252 187.844 130.242 168.444 130.242 168.444C130.242 168.444 121.952 173.684 104.602 172.974C87.2515 172.264 78.7115 168.444 78.7115 168.444Z" fill="#FF6563"/>
<path id="Vector_77" d="M127.172 170.224C127.172 170.224 126.402 170.834 123.282 171.454C120.424 171.981 117.534 172.315 114.632 172.454C104.072 173.164 103.932 173.824 103.932 173.824C99.3428 172.975 94.696 172.477 90.0315 172.334C88.0708 172.344 86.1239 172.005 84.2815 171.334C82.7417 170.795 81.2843 170.045 79.9515 169.104C81.5427 169.716 83.2653 169.906 84.9515 169.654C87.3515 169.144 92.9515 164.474 104.642 164.474C116.332 164.474 120.862 170.174 127.172 170.224Z" fill="#DC3F57"/>
<g id="Group_15">
<path id="Vector_78" d="M77.4315 167.104L76.8315 166.474C76.8315 166.474 77.0415 166.754 77.4315 167.104Z" fill="#842751"/>
<path id="Vector_79" d="M132.372 166.504L131.782 167.134C131.99 166.935 132.187 166.725 132.372 166.504V166.504Z" fill="#842751"/>
<path id="Vector_80" d="M104.632 173.494C101.012 171.154 88.7015 171.944 84.3115 170.924C81.7127 170.302 79.3336 168.981 77.4315 167.104C80.4315 170.284 82.4315 171.814 90.4315 172.374C95.235 172.682 99.9937 173.486 104.632 174.774V174.774C109.281 173.496 114.049 172.702 118.862 172.404C126.862 171.844 128.862 170.314 131.862 167.134C129.958 168.993 127.588 170.302 125.002 170.924C120.542 171.944 108.222 171.154 104.632 173.494Z" fill="#842751"/>
</g>
<g id="Vector_81" style="mix-blend-mode:multiply" opacity="0.6">
<path d="M127.172 170.224C127.172 170.224 126.402 170.834 123.282 171.454L122.032 171.314C122.032 171.314 114.202 164.724 103.552 164.914C93.6915 165.094 85.4415 170.534 84.2815 171.334C82.7417 170.795 81.2843 170.045 79.9515 169.104C81.5427 169.716 83.2653 169.906 84.9515 169.654C87.3515 169.144 92.9515 164.474 104.642 164.474C116.332 164.474 120.862 170.174 127.172 170.224Z" fill="#D177B8"/>
</g>
<path id="Vector_82" d="M129.822 164.904C132.032 165.815 133.912 167.378 135.212 169.384C135.212 169.384 135.552 166.504 134.002 164.824C132.452 163.144 129.822 164.904 129.822 164.904Z" fill="#DD6B7C"/>
<path id="Vector_83" d="M79.8415 164.904C77.6313 165.815 75.7511 167.378 74.4515 169.384C74.4515 169.384 74.1115 166.504 75.6615 164.824C77.2115 163.144 79.8415 164.904 79.8415 164.904Z" fill="#DD6B7C"/>
<g id="Vector_84" style="mix-blend-mode:soft-light">
<path d="M111.412 176.734C111.412 176.734 114.522 179.234 115.292 181.604L118.172 179.654C117.225 178.115 116.09 176.7 114.792 175.444L111.412 176.734Z" fill="#FFFCB8"/>
</g>
<g id="Vector_85" style="mix-blend-mode:soft-light">
<path d="M115.952 175.104C117.13 176.359 118.111 177.785 118.862 179.334L119.382 178.564C118.907 177.119 118.102 175.804 117.032 174.724L115.952 175.104Z" fill="#FFFCB8"/>
</g>
</g>
<g id="Group_16">
<path id="Vector_86" d="M206.032 129.764C206.029 129.717 206.029 129.671 206.032 129.624C204.652 125.134 203.232 120.624 201.982 116.234C200.613 111.533 199.541 106.75 198.772 101.914C198.092 97.364 197.542 93.414 197.052 89.914C195.212 76.434 194.392 69.114 191.192 57.504C187.142 42.854 155.352 33.374 149.672 29.714C134.912 20.214 127.032 2.17399 103.912 0.153987C80.7915 -1.86601 68.7515 16.314 44.5915 35.514L40.7315 38.584C19.7715 55.104 14.7315 59.284 9.25153 72.624C3.44153 86.754 9.25153 106.964 4.70153 128.064C2.73125 136.951 1.464 145.978 0.911531 155.064C0.570635 160.621 0.744709 166.199 1.43153 171.724C2.43153 178.724 4.43153 184.934 7.99153 189.494C11.6464 194.07 16.2529 197.796 21.4915 200.414C22.6136 202.062 23.8785 203.608 25.2715 205.034C26.9721 205.907 28.7217 206.682 30.5115 207.354L30.6315 207.404H30.7115C31.9815 207.894 33.4715 208.404 35.1315 208.954C39.6271 210.381 44.2327 211.434 48.9015 212.104H48.9615H49.1115C51.0215 212.384 53.0215 212.604 55.1115 212.744H55.2115C58.3303 212.959 61.4589 212.992 64.5815 212.844C64.5815 212.844 40.4215 184.294 37.6915 142.294C37.9815 144.234 42.6915 175.424 50.2115 186.634C48.0502 176.101 46.4844 165.454 45.5215 154.744C45.5215 154.744 45.5215 154.674 45.5215 154.644C44.3936 143.187 44.0595 131.667 44.5215 120.164C46.1215 86.324 63.7615 48.164 77.1115 38.504C90.4615 28.844 124.582 27.784 135.942 36.114L135.292 32.514L138.722 35.354L139.102 35.674L140.102 34.674L144.022 36.824L142.252 38.514C145.11 41.2413 147.814 44.1258 150.352 47.154V47.154C157.202 55.224 166.502 68.154 170.352 82.524C176.812 106.584 169.622 179.784 162.992 203.154C162.992 203.154 172.522 190.804 176.732 177.824C174.552 186.034 170.142 198.924 162.032 209.824C162.032 209.824 171.222 212.254 181.832 206.224C189.712 201.744 198.572 190.634 204.072 180.874C203.592 181.874 197.352 195.304 188.712 203.084C187.593 204.104 186.392 205.031 185.122 205.854C185.882 205.504 210.122 193.954 212.382 169.904C213.682 155.904 210.002 142.674 206.032 129.764ZM11.7715 175.674C10.2115 166.884 10.6315 155.604 14.6315 141.104C14.3715 142.354 9.51153 166.894 15.4915 187.314C13.7037 183.631 12.4511 179.711 11.7715 175.674V175.674Z" fill="url(#paint28_linear)"/>
<path id="Vector_87" style="mix-blend-mode:multiply" d="M138.742 35.404L135.312 32.564L135.962 36.164C124.602 27.834 90.4715 28.894 77.1315 38.554C63.7915 48.214 46.1315 86.374 44.5415 120.214C44.0795 131.717 44.4136 143.237 45.5415 154.694C39.8115 113.634 47.7915 80.884 47.7915 80.884C40.9927 103.984 36.767 127.765 35.1915 151.794C32.7015 190.704 54.5815 212.154 55.1915 212.794H55.1015L49.1015 212.154H48.9515H48.8915C48.4415 211.834 34.1715 201.154 32.8915 170.084C31.6115 139.404 42.0315 98.774 42.5915 96.614C35.4874 117.757 30.3785 139.519 27.3315 161.614C24.3315 184.094 28.1915 197.054 31.4815 203.614C31.6215 203.894 31.7615 204.164 31.9115 204.424C32.7661 206.116 33.8571 207.679 35.1515 209.064L30.7315 207.514H30.6515L30.5315 207.464C30.0415 207.234 28.2215 206.204 26.5315 202.774C26.0641 201.804 25.6664 200.801 25.3415 199.774C23.4915 193.874 22.4715 183.604 25.2515 165.864C31.1715 127.914 45.6315 76.404 45.6315 76.404C45.6315 76.404 23.3215 106.774 14.6315 141.094C10.7415 156.514 10.6315 167.834 11.7315 175.624C13.0115 184.774 15.9015 189.054 16.1315 189.384C15.7315 189.184 5.21153 183.624 1.39153 171.624C-0.195125 166.48 -0.429324 161.015 0.711528 155.754C0.761528 155.494 0.821528 155.234 0.871528 154.964C5.96153 131.434 33.1415 90.714 48.8715 65.474C64.6015 40.234 76.6615 21.364 77.0315 20.774C62.4815 29.484 41.2915 38.214 40.6415 38.484L44.5015 35.414C44.8115 35.294 49.9215 33.244 63.0815 26.414C76.6515 19.414 102.082 -0.996017 116.322 5.41398C130.562 11.824 140.062 34.594 140.062 34.594L138.742 35.404Z" fill="url(#paint29_linear)"/>
<path id="Vector_88" style="mix-blend-mode:multiply" d="M212.372 170.044C210.132 194.094 185.872 205.644 185.112 205.994C186.382 205.171 187.583 204.244 188.702 203.224V203.224C197.342 195.444 203.582 182.054 204.062 181.014C198.562 190.774 189.702 201.884 181.822 206.364C171.212 212.364 162.022 209.964 162.022 209.964C170.132 199.044 174.542 186.154 176.722 177.964C172.512 190.964 162.982 203.294 162.982 203.294C169.612 179.924 176.802 106.724 170.342 82.664C166.482 68.284 157.182 55.364 150.342 47.294C151.452 48.224 169.182 63.564 176.432 97.184C183.802 131.354 174.512 179.464 174.222 180.944C174.622 179.614 189.802 128.814 183.932 95.694C184.312 97.424 192.042 133.944 187.082 162.694C182.082 191.694 176.792 200.964 176.632 201.244C177.062 201.044 206.942 198.874 206.562 160.324C206.272 130.894 198.032 109.704 196.952 89.944C196.952 89.944 199.142 101.294 201.882 116.314C204.192 128.914 206.882 144.094 209.022 157.314C213.162 182.954 194.022 199.264 189.542 202.664C193.982 199.364 213.322 183.734 211.492 164.064C209.552 143.264 206.362 131.284 205.972 129.864C210.002 142.674 213.682 155.904 212.372 170.044Z" fill="url(#paint30_linear)"/>
<path id="Vector_89" style="mix-blend-mode:multiply" d="M16.1715 189.434C11.4781 184.874 7.89471 179.298 5.69795 173.134C3.50118 166.97 2.74972 160.384 3.50152 153.884C5.87152 131.184 26.1515 103.324 26.1515 103.324C26.1515 103.324 21.0615 119.104 14.7015 138.524C8.34152 157.944 8.37153 172.174 16.1715 189.434Z" fill="url(#paint31_linear)"/>
<path id="Vector_90" style="mix-blend-mode:multiply" d="M49.1115 212.104C49.1115 212.104 22.5615 186.474 36.2415 127.214C36.2415 127.214 24.2415 176.514 55.1015 212.744L49.1115 212.104Z" fill="url(#paint32_linear)"/>
<path id="Vector_91" style="mix-blend-mode:multiply" d="M142.262 38.554C152.981 45.0046 162.8 52.846 171.462 61.874C185.212 76.394 197.012 88.774 197.012 88.774L196.632 87.004C189.556 77.5441 181.724 68.6749 173.212 60.484C164.789 52.306 155.384 45.205 145.212 39.344C145.212 39.344 162.452 44.594 176.852 56.254C191.252 67.914 194.852 74.784 194.852 74.784L193.852 68.884C193.852 68.884 183.242 55.684 169.642 48.764C161.025 44.4475 152.073 40.8389 142.872 37.974L142.262 38.554Z" fill="url(#paint33_linear)"/>
<g id="Vector_92" style="mix-blend-mode:soft-light">
<path d="M29.8515 47.224C29.8515 47.224 27.9515 51.224 30.6915 54.164C33.4315 57.104 45.5215 53.224 48.9115 53.164C52.3015 53.104 58.1815 50.764 58.1815 50.764L45.7215 70.614C45.7215 70.614 46.8015 68.094 44.2415 65.344C41.6815 62.594 30.0315 66.954 24.1615 64.344C18.2915 61.734 21.5715 54.344 21.5715 54.344L29.8515 47.224Z" fill="#FFD9BB"/>
</g>
<g id="Vector_93" style="mix-blend-mode:soft-light">
<path d="M163.362 63.374C163.362 63.374 171.002 77.714 174.822 90.314C175.4 87.0413 176.754 83.9549 178.772 81.314C182.182 76.764 184.202 76.834 184.202 76.834L173.202 63.704L163.362 63.374Z" fill="#FFD9BB"/>
</g>
<g id="Vector_94" style="mix-blend-mode:soft-light">
<path d="M174.852 62.104L180.082 58.934C182.941 61.3202 185.665 63.8642 188.242 66.554L184.862 72.634C184.862 72.634 176.502 63.704 174.852 62.104Z" fill="#FFD9BB"/>
</g>
</g>
</g>
<defs>
<linearGradient id="paint0_linear" x1="105.922" y1="258.984" x2="105.922" y2="195.774" gradientUnits="userSpaceOnUse">
<stop stop-color="#FFB39D"/>
<stop offset="0.23" stop-color="#FF9B8E"/>
<stop offset="0.48" stop-color="#FF8781"/>
<stop offset="0.74" stop-color="#FF7B7A"/>
<stop offset="1" stop-color="#FF7777"/>
</linearGradient>
<linearGradient id="paint1_linear" x1="105.592" y1="258.994" x2="105.592" y2="235.764" gradientUnits="userSpaceOnUse">
<stop stop-color="#FFAED8"/>
<stop offset="1" stop-color="#FFC5E0"/>
</linearGradient>
<linearGradient id="paint2_linear" x1="64.5715" y1="248.354" x2="96.1115" y2="248.354" gradientUnits="userSpaceOnUse">
<stop offset="0.01" stop-color="#D177F4"/>
<stop offset="1" stop-color="#FFEADB"/>
</linearGradient>
<linearGradient id="paint3_linear" x1="125.472" y1="248.224" x2="145.532" y2="248.224" gradientUnits="userSpaceOnUse">
<stop stop-color="#FFEADB"/>
<stop offset="0.99" stop-color="#D177F4"/>
</linearGradient>
<linearGradient id="paint4_linear" x1="6024.18" y1="14302.8" x2="6024.18" y2="11260.7" gradientUnits="userSpaceOnUse">
<stop stop-color="#FFB39D"/>
<stop offset="0.23" stop-color="#FF9B8E"/>
<stop offset="0.48" stop-color="#FF8781"/>
<stop offset="0.74" stop-color="#FF7B7A"/>
<stop offset="1" stop-color="#FF7777"/>
</linearGradient>
<linearGradient id="paint5_linear" x1="5304.75" y1="9036.93" x2="5304.75" y2="7743.09" gradientUnits="userSpaceOnUse">
<stop stop-color="#FFEADB"/>
<stop offset="0.99" stop-color="#D177F4"/>
</linearGradient>
<linearGradient id="paint6_linear" x1="2437.08" y1="4424.39" x2="2437.08" y2="4113.63" gradientUnits="userSpaceOnUse">
<stop stop-color="#FFEADB"/>
<stop offset="0.99" stop-color="#D177F4"/>
</linearGradient>
<linearGradient id="paint7_linear" x1="-4565.61" y1="14306.9" x2="-4565.61" y2="11263.9" gradientUnits="userSpaceOnUse">
<stop stop-color="#FFB39D"/>
<stop offset="0.23" stop-color="#FF9B8E"/>
<stop offset="0.48" stop-color="#FF8781"/>
<stop offset="0.74" stop-color="#FF7B7A"/>
<stop offset="1" stop-color="#FF7777"/>
</linearGradient>
<linearGradient id="paint8_linear" x1="-3985.44" y1="9036.93" x2="-3985.44" y2="7743.09" gradientUnits="userSpaceOnUse">
<stop stop-color="#FFEADB"/>
<stop offset="0.99" stop-color="#D177F4"/>
</linearGradient>
<linearGradient id="paint9_linear" x1="-1670.91" y1="4424.39" x2="-1670.91" y2="4113.63" gradientUnits="userSpaceOnUse">
<stop stop-color="#FFEADB"/>
<stop offset="0.99" stop-color="#D177F4"/>
</linearGradient>
<linearGradient id="paint10_linear" x1="104.602" y1="203.224" x2="104.602" y2="20.824" gradientUnits="userSpaceOnUse">
<stop stop-color="#FFAA96"/>
<stop offset="0.43" stop-color="#F9AB99"/>
<stop offset="0.55" stop-color="#FBA38F"/>
<stop offset="0.78" stop-color="#FE9983"/>
<stop offset="1" stop-color="#FF967F"/>
</linearGradient>
<linearGradient id="paint11_linear" x1="9582.55" y1="13594" x2="9582.55" y2="10565.4" gradientUnits="userSpaceOnUse">
<stop stop-color="#FFEADB"/>
<stop offset="0.99" stop-color="#D177F4"/>
</linearGradient>
<linearGradient id="paint12_linear" x1="-14516.7" y1="13594" x2="-14516.7" y2="10565.4" gradientUnits="userSpaceOnUse">
<stop stop-color="#FFEADB"/>
<stop offset="0.99" stop-color="#D177F4"/>
</linearGradient>
<linearGradient id="paint13_linear" x1="1428.7" y1="14320" x2="1428.7" y2="9676.96" gradientUnits="userSpaceOnUse">
<stop stop-color="#FFEADB"/>
<stop offset="0.99" stop-color="#D177F4"/>
</linearGradient>
<linearGradient id="paint14_linear" x1="-11160.8" y1="14320" x2="-11160.8" y2="9676.96" gradientUnits="userSpaceOnUse">
<stop stop-color="#FFEADB"/>
<stop offset="0.99" stop-color="#D177F4"/>
</linearGradient>
<linearGradient id="paint15_linear" x1="118.691" y1="86.493" x2="172.797" y2="88.9026" gradientUnits="userSpaceOnUse">
<stop stop-color="#B34349"/>
<stop offset="1" stop-color="#9C2740"/>
</linearGradient>
<linearGradient id="paint16_linear" x1="-12106" y1="3369.54" x2="-15008.5" y2="3572.72" gradientUnits="userSpaceOnUse">
<stop stop-color="#B34349"/>
<stop offset="1" stop-color="#9C2740"/>
</linearGradient>
<linearGradient id="paint17_linear" x1="104.832" y1="155.324" x2="104.832" y2="135.604" gradientUnits="userSpaceOnUse">
<stop stop-color="#F97A7E"/>
<stop offset="0.08" stop-color="#FA7D7E"/>
<stop offset="0.54" stop-color="#FE897F"/>
<stop offset="1" stop-color="#FF8D7F"/>
</linearGradient>
<linearGradient id="paint18_linear" x1="445.416" y1="2870.56" x2="445.416" y2="2752.83" gradientUnits="userSpaceOnUse">
<stop stop-color="#FFEADB"/>
<stop offset="0.99" stop-color="#D177F4"/>
</linearGradient>
<linearGradient id="paint19_linear" x1="-354.11" y1="2870.56" x2="-354.11" y2="2752.83" gradientUnits="userSpaceOnUse">
<stop stop-color="#FFEADB"/>
<stop offset="0.99" stop-color="#D177F4"/>
</linearGradient>
<linearGradient id="paint20_linear" x1="147.372" y1="139.064" x2="147.372" y2="106.454" gradientUnits="userSpaceOnUse">
<stop stop-color="#EEE2FF"/>
<stop offset="1" stop-color="#BDC9FB"/>
</linearGradient>
<linearGradient id="paint21_linear" x1="145.642" y1="132.484" x2="145.642" y2="108.304" gradientUnits="userSpaceOnUse">
<stop stop-color="#ACA1DB"/>
<stop offset="1" stop-color="#6A518A"/>
</linearGradient>
<linearGradient id="paint22_linear" x1="145.642" y1="131.784" x2="145.642" y2="109.014" gradientUnits="userSpaceOnUse">
<stop stop-color="#BAA9CC"/>
<stop offset="0.96" stop-color="#F812FF"/>
</linearGradient>
<linearGradient id="paint23_linear" x1="145.642" y1="127.784" x2="145.642" y2="113.014" gradientUnits="userSpaceOnUse">
<stop stop-color="#A79ABD"/>
<stop offset="0.99" stop-color="#724A60"/>
</linearGradient>
<linearGradient id="paint24_linear" x1="-9038.7" y1="7994.67" x2="-9038.7" y2="6931.54" gradientUnits="userSpaceOnUse">
<stop stop-color="#EEE2FF"/>
<stop offset="1" stop-color="#BDC9FB"/>
</linearGradient>
<linearGradient id="paint25_linear" x1="-5854.47" y1="5697.19" x2="-5854.47" y2="5112.52" gradientUnits="userSpaceOnUse">
<stop stop-color="#ACA1DB"/>
<stop offset="1" stop-color="#6A518A"/>
</linearGradient>
<linearGradient id="paint26_linear" x1="64.2815" y1="131.784" x2="64.2815" y2="109.024" gradientUnits="userSpaceOnUse">
<stop stop-color="#BAA9CC"/>
<stop offset="0.96" stop-color="#404577"/>
</linearGradient>
<linearGradient id="paint27_linear" x1="-3480.13" y1="3419.61" x2="-3480.13" y2="3201.31" gradientUnits="userSpaceOnUse">
<stop stop-color="#A79ABD"/>
<stop offset="0.99" stop-color="#724A60"/>
</linearGradient>
<linearGradient id="paint28_linear" x1="106.702" y1="212.984" x2="106.702" y2="-0.0560116" gradientUnits="userSpaceOnUse">
<stop stop-color="#C7544B"/>
<stop offset="1" stop-color="#B63651"/>
</linearGradient>
<linearGradient id="paint29_linear" x1="14069.2" y1="65860" x2="14069.2" y2="22365" gradientUnits="userSpaceOnUse">
<stop stop-color="#FFEADB"/>
<stop offset="0.99" stop-color="#D177F4"/>
</linearGradient>
<linearGradient id="paint30_linear" x1="13351" y1="51158.7" x2="13351" y2="24538.5" gradientUnits="userSpaceOnUse">
<stop offset="0.01" stop-color="#D177F4"/>
<stop offset="1" stop-color="#FFEADB"/>
</linearGradient>
<linearGradient id="paint31_linear" x1="1036.8" y1="25275.9" x2="1036.8" y2="17860.9" gradientUnits="userSpaceOnUse">
<stop stop-color="#FFEADB"/>
<stop offset="0.99" stop-color="#D177F4"/>
</linearGradient>
<linearGradient id="paint32_linear" x1="1719.61" y1="27127.3" x2="1719.61" y2="19811.9" gradientUnits="userSpaceOnUse">
<stop offset="0.01" stop-color="#D177F4"/>
<stop offset="1" stop-color="#FFEADB"/>
</linearGradient>
<linearGradient id="paint33_linear" x1="11092.8" y1="9774.81" x2="11092.8" y2="7194.17" gradientUnits="userSpaceOnUse">
<stop stop-color="#FFEADB"/>
<stop offset="0.99" stop-color="#D177F4"/>
</linearGradient>
</defs>
</svg>
