<?xml version="1.0" standalone="no"?>
<!DOCTYPE svg PUBLIC "-//W3C//DTD SVG 20010904//EN"
 "http://www.w3.org/TR/2001/REC-SVG-20010904/DTD/svg10.dtd">
<svg version="1.0" xmlns="http://www.w3.org/2000/svg"
 width="175.000000pt" height="175.000000pt" viewBox="0 0 175.000000 175.000000"
 preserveAspectRatio="xMidYMid meet">
<metadata>
Created by potrace 1.14, written by Peter Selinger 2001-2017
</metadata>
<g transform="translate(0.000000,175.000000) scale(0.100000,-0.100000)"
fill="#000000" stroke="none">
<path d="M737 1654 c-1 -1 -45 -4 -98 -8 -53 -4 -107 -9 -120 -11 -13 -2 -51
-6 -84 -10 -33 -3 -82 -10 -110 -15 -60 -11 -103 -18 -173 -26 -28 -4 -52 -10
-52 -14 0 -8 200 -280 322 -438 71 -93 76 -101 64 -123 -8 -13 -39 -67 -71
-119 -85 -139 -418 -799 -397 -786 4 2 115 56 247 121 231 112 364 165 451
180 43 7 42 6 105 119 40 74 43 74 90 -6 56 -98 63 -105 117 -114 139 -22 170
-35 550 -222 89 -44 162 -78 162 -76 0 10 -45 104 -165 344 -137 277 -161 322
-252 472 l-65 107 48 63 c45 58 183 243 260 348 19 25 37 50 42 55 31 39 51
74 45 78 -5 2 -30 8 -56 11 -27 4 -56 9 -65 11 -10 1 -39 6 -67 9 -27 4 -75
11 -105 16 -56 9 -128 17 -231 25 -31 2 -61 5 -65 6 -5 1 -20 1 -34 0 -25 -2
-31 -8 -103 -113 l-33 -47 -56 82 c-41 60 -62 83 -77 83 -12 0 -23 -1 -24 -2z"/>
</g>
</svg>
