<svg xmlns="http://www.w3.org/2000/svg" width="161" height="217" fill="none" viewBox="0 0 161 217">
  <g filter="url(#filter0_d)">
    <path fill="#EFF2E0" d="M135.24 16.703L10.73 160.81l8.409 7.262L143.648 23.964l-8.408-7.261z"/>
    <path fill="#76AAC4" d="M44.492 112.794L126.048 9.459 157 0l-4.845 31.988-90.391 95.714-17.272-14.908z"/>
    <path fill="#D4E9F4" d="M48.92 118.661L153.428 4.134l-98.14 120.039-6.37-5.512z"/>
    <path fill="#EFF2E0" d="M51.029 130.542a36.475 36.475 0 01-.961 1.629c-.647 1.044-1.337 2.088-2.088 3.236a51.98 51.98 0 01-1.066 1.545c-.71 1.002-1.482 2.088-2.297 3.069-.334.481-.73 1.003-1.128 1.483-.772.981-1.587 1.963-2.422 2.986-.376.438-.773.918-1.17 1.357l-2.548 2.84c-.439.48-.877.939-1.274 1.399l-2.715 2.735c-.439.438-.877.877-1.316 1.274a104.37 104.37 0 01-2.84 2.63c-.501.418-.982.836-1.462 1.211-5.806 4.886-10.443 7.267-12.197 5.784-1.755-1.482 0-6.41 3.905-12.82a27.84 27.84 0 01.982-1.608c.69-1.023 1.4-2.088 2.089-3.194.355-.481.71-.982 1.107-1.483.71-1.023 1.482-2.088 2.318-3.069.355-.481.752-.961 1.148-1.462.794-.981 1.63-1.963 2.465-2.944l.104-.146 1.107-1.253c.877-.96 1.734-1.921 2.59-2.819l1.295-1.378c.94-.939 1.838-1.858 2.736-2.693l1.357-1.295a74.017 74.017 0 012.903-2.547l1.462-1.211c5.2-4.176 9.357-6.097 10.923-4.719 1.567 1.378.334 5.763-3.007 11.463z"/>
    <path fill="#A5D2EB" d="M29.851 171.133a3.172 3.172 0 01-4.177 2.38h-.167a40.411 40.411 0 01-21.01-18.145l-.105-.167a3.173 3.173 0 011.755-4.531l12.113-1.19a28.61 28.61 0 0011.048 9.312l.543 12.341z"/>
    <path fill="#fff" d="M129.16 19.565l-4.783-5.993 6.015 4.782 5.994-4.782-4.782 5.993 4.782 6.013-5.994-4.781-6.015 4.781 4.783-6.013z"/>
    <path fill="#76AAC4" d="M29.162 156.788c-.501.417-.982.835-1.462 1.211l-8.354-7.037c.292-.522.627-1.065.982-1.607l8.834 7.433zM33.318 152.883a37.14 37.14 0 01-1.316 1.274l-9.44-7.997c.355-.48.71-.981 1.107-1.483l9.649 8.206zM37.307 148.749c-.438.48-.877.94-1.274 1.399l-10.046-8.477c.355-.48.752-.961 1.15-1.462l10.17 8.54zM41.046 144.49c-.376.438-.773.918-1.17 1.357l-10.254-8.707.104-.146 1.107-1.253 10.213 8.749zM44.596 140.021c-.334.48-.73 1.002-1.128 1.483l-10.066-8.519 1.294-1.378 9.9 8.414zM47.959 135.407c-.335.501-.69 1.023-1.066 1.545l-9.46-8.039 1.357-1.294 9.169 7.788zM51.029 130.542a35.899 35.899 0 01-.961 1.628l-8.354-7.099 1.462-1.211 7.853 6.682z"/>
    <path fill="#A5D2EB" d="M74.274 134.634l-5.326 6.264a4.928 4.928 0 01-6.934.501L31 114.527a4.927 4.927 0 01-.522-6.932l5.325-6.16a4.171 4.171 0 013.793-1.436 4.182 4.182 0 013.225 2.459 46.964 46.964 0 0029.406 25.39 4.178 4.178 0 012.047 6.786z"/>
    <path fill="#76AAC4" d="M38.498 107.824a2.907 2.907 0 012.847 3.469 2.902 2.902 0 01-5.75-.566 2.88 2.88 0 011.788-2.687 2.877 2.877 0 011.115-.216zm0-1.712a4.617 4.617 0 00-4.527 5.515 4.618 4.618 0 003.626 3.625 4.619 4.619 0 004.738-1.962 4.613 4.613 0 00-3.837-7.178zM65.168 130.834a2.908 2.908 0 012.697 1.777 2.903 2.903 0 11-2.697-1.777zm0-1.712a4.617 4.617 0 00-4.527 5.515 4.611 4.611 0 003.627 3.625 4.62 4.62 0 004.738-1.962 4.615 4.615 0 00-3.838-7.178zM51.091 121.501a1.436 1.436 0 011.332.889 1.442 1.442 0 01-1.883 1.883 1.447 1.447 0 01-.89-1.332 1.439 1.439 0 011.441-1.44zm0-1.733a3.173 3.173 0 100 6.347 3.173 3.173 0 000-6.347z"/>
    <path fill="#FF4252" d="M38.498 114.527a3.76 3.76 0 01-2.658-6.416 3.757 3.757 0 015.783.569c.414.618.634 1.345.634 2.088a3.779 3.779 0 01-3.76 3.759zM65.168 137.495a3.76 3.76 0 01-2.658-6.416 3.757 3.757 0 015.784.569c.413.618.633 1.345.633 2.088a3.778 3.778 0 01-3.759 3.759z"/>
    <path fill="#FFDB57" d="M51.092 125.238a2.296 2.296 0 11.04-4.592 2.296 2.296 0 01-.04 4.592z"/>
    <path fill="#76AAC4" d="M18.49 156.704a2.904 2.904 0 012.053 4.955 2.902 2.902 0 11-2.053-4.955zm0-1.733a4.64 4.64 0 00-4.57 5.527 4.633 4.633 0 003.637 3.653 4.636 4.636 0 10.933-9.18z"/>
    <path fill="#FF4252" d="M18.49 163.344a3.76 3.76 0 110-7.518 3.76 3.76 0 010 7.518z"/>
  </g>
  <defs>
    <filter id="filter0_d" width="161" height="216.696" x="0" y="0" color-interpolation-filters="sRGB" filterUnits="userSpaceOnUse">
      <feFlood flood-opacity="0" result="BackgroundImageFix"/>
      <feColorMatrix in="SourceAlpha" result="hardAlpha" values="0 0 0 0 0 0 0 0 0 0 0 0 0 0 0 0 0 0 127 0"/>
      <feOffset dy="39"/>
      <feGaussianBlur stdDeviation="2"/>
      <feComposite in2="hardAlpha" operator="out"/>
      <feColorMatrix values="0 0 0 0 0 0 0 0 0 0 0 0 0 0 0 0 0 0 0.25 0"/>
      <feBlend in2="BackgroundImageFix" result="effect1_dropShadow"/>
      <feBlend in="SourceGraphic" in2="effect1_dropShadow" result="shape"/>
    </filter>
  </defs>
</svg>
