<svg xmlns="http://www.w3.org/2000/svg" width="438" height="520" fill="none" viewBox="0 0 438 520">
  <g filter="url(#filter0_d)">
    <path fill="url(#paint0_linear)" fill-rule="evenodd" d="M19.48 492.203l9.287-49.016L4 26.553 14.771 1.09s266.372 25.463 393.43 0L434 48.769l-22.122 392.826 3.611 43.733-29.217 23.807S181.56 488.192 83.589 512l-64.11-19.797z" clip-rule="evenodd"/>
    <path fill="url(#paint1_linear)" fill-rule="evenodd" d="M29.67 16.815L14.062 39.477l18.381 403.202 9.481 31.32 48.953 21.961 210.969-10.949 67.915 2.164 31.733-40.613 27.282-391.171-57.338-38.449-241.024 12.095L29.67 16.815z" clip-rule="evenodd"/>
    <path fill="#9E98BB" fill-rule="evenodd" d="M14.771.964L29.67 16.815l100.744 12.222 241.024-12.095L407.943.964S241.09 23.5 14.771.964z" clip-rule="evenodd"/>
    <path fill="#8079A5" fill-rule="evenodd" d="M371.438 16.942l57.338 38.449 4.708-6.748L407.943.964l-36.505 15.978zM14.771.964l14.899 15.85L14.06 39.478 4 22.99 14.771.964z" clip-rule="evenodd"/>
    <path fill="#3A2F66" fill-rule="evenodd" d="M90.877 496.024l-7.74 15.85a1194.535 1194.535 0 01303.135-2.737l-16.253-21.771-73.397-1.909-205.745 10.567z" clip-rule="evenodd"/>
    <path fill="#4F3D70" fill-rule="evenodd" d="M414.974 485.139l-13.48-38.577-31.733 40.614 16.253 21.834 28.96-23.871zM83.331 511.874l7.546-15.914-48.953-21.961-22.445 18.205 63.852 19.67z" clip-rule="evenodd"/>
    <path fill="#8079A5" fill-rule="evenodd" d="M19.48 492.204l22.444-18.205-9.48-31.32-3.677.51-9.288 49.015z" clip-rule="evenodd"/>
    <path fill="#4F3D70" fill-rule="evenodd" d="M417.295 220.262l-17.478 22.217-4.579 5.729 18.252 26.417 3.805-18.206v-36.157z" clip-rule="evenodd"/>
    <path fill="#8579A3" fill-rule="evenodd" d="M27.283 329.688v24.445l3.419 37.494 4.256-31.001-7.675-30.938z" clip-rule="evenodd"/>
    <path fill="#BEBAD3" fill-rule="evenodd" d="M24.317 24.581l19.349-6.111-13.996-1.655-5.354 7.766zM354.282 18.28l28.572 6.301V11.977l-28.572 6.302z" clip-rule="evenodd"/>
    <path fill="#8579A3" fill-rule="evenodd" d="M346.413 485.266l33.603-11.267-10.255 13.177-23.348-1.91zM395.238 248.208l15.866 5.347 6.191 2.865-3.805 18.205-18.252-26.417zM417.296 220.262l-2.322-47.87 6.707-15.532-4.385-13.686 7.61-32.21-7.61 109.298zM411.362 305.053l-5.096 16.933 1.677 32.21 3.419-19.861v-29.282z" clip-rule="evenodd"/>
    <path fill="url(#paint2_linear)" fill-rule="evenodd" d="M221.225 214.852a26.458 26.458 0 01-2.257 7.065 23.79 23.79 0 01-8.298 10.696 24.257 24.257 0 01-12.857 4.518 20.051 20.051 0 01-9.387-2.502 19.757 19.757 0 01-7.06-6.601 15.433 15.433 0 01-.709-2.864 11.383 11.383 0 010-4.902c3.999-17.887 43.922-24.317 40.568-5.41z" clip-rule="evenodd"/>
    <path fill="url(#paint3_linear)" fill-rule="evenodd" d="M321.196 455.156a3.47 3.47 0 01-.452.828 6.036 6.036 0 01-2.474 2.211 6.144 6.144 0 01-3.286.584 6.103 6.103 0 01-3.1-1.222 5.982 5.982 0 01-1.975-2.655v-.319c-.065-8.657 13.931-5.984 11.287.573z" clip-rule="evenodd"/>
    <path fill="url(#paint4_linear)" fill-rule="evenodd" d="M394.657 289.585a9.357 9.357 0 01-.774 1.846c-4.837 9.166-18.381 1.782-14.834-3.756a5.96 5.96 0 011.935-1.846c3.225-8.721 16.769-5.411 13.673 3.756z" clip-rule="evenodd"/>
    <path fill="url(#paint5_linear)" fill-rule="evenodd" d="M50.244 148.712a16.325 16.325 0 01-.967 3.692c-3.225 7.894-12.9 9.803-10.384-1.91h-.516c.116-1.648.353-3.287.71-4.901.773-3.756 2.321-8.021 5.288-8.276 5.03-.445 6.514 8.276 5.87 11.395z" clip-rule="evenodd"/>
    <path fill="url(#paint6_linear)" fill-rule="evenodd" d="M52.244 117.138a21.23 21.23 0 01-4.782 9.151 21.606 21.606 0 01-8.57 5.872 12.316 12.316 0 01-8.108-3.866 12.006 12.006 0 01-3.242-8.292 32.205 32.205 0 011.999-14.96 33.862 33.862 0 011.354-3.564c2.903-6.812 7.804-19.097 17.35-13.05 8.062 5.093 6.127 21.07 3.999 28.709z" clip-rule="evenodd"/>
    <path fill="url(#paint7_linear)" fill-rule="evenodd" d="M65.788 77.543c-2.45 2.42-7.288 3.247-8.32-1.336v-.446c.02-.47.153-.927.387-1.337a5.616 5.616 0 011.546-1.848 5.707 5.707 0 012.186-1.042 5.749 5.749 0 014.653.917c.353.342.625.758.797 1.216a3.27 3.27 0 01-.25 2.816c-.25.422-.59.784-.999 1.06z" clip-rule="evenodd"/>
    <path fill="#8579A3" fill-rule="evenodd" d="M217.033 230.384a23.713 23.713 0 01-8.263 10.688 24.195 24.195 0 01-12.827 4.526 19.997 19.997 0 01-9.392-2.496 19.684 19.684 0 01-7.055-6.607 11.66 11.66 0 01-.71-2.865v-4.901s6.45 14.131 20.188 11.267a33.617 33.617 0 0018.059-9.612zM321.195 455.156a3.413 3.413 0 01-.451.828 6.032 6.032 0 01-2.475 2.211 6.13 6.13 0 01-6.385-.638 5.985 5.985 0 01-1.976-2.655v-.319a6.43 6.43 0 002.242 1.623 6.52 6.52 0 002.725.542 10.16 10.16 0 006.32-1.592zM393.883 291.431c-4.837 9.166-18.381 1.782-14.834-3.756a9.819 9.819 0 003.357 3.038 9.964 9.964 0 004.383 1.227 33.526 33.526 0 007.094-.509zM52.244 117.138a21.23 21.23 0 01-4.782 9.151 21.616 21.616 0 01-8.57 5.872 12.316 12.316 0 01-8.108-3.866 12.006 12.006 0 01-3.242-8.292 32.203 32.203 0 011.999-14.96 22.45 22.45 0 001.17 9.812 22.682 22.682 0 005.28 8.394c7.61 6.493 16.253-6.111 16.253-6.111zM49.277 152.659c-3.225 7.893-12.9 9.803-10.384-1.91h-.516c.116-1.649.353-3.287.71-4.902.45 2.674 1.934 8.976 5.095 8.912a7.529 7.529 0 005.095-2.1zM65.788 77.544c-2.45 2.419-7.288 3.246-8.32-1.337v-.446c.02-.47.153-.927.387-1.337.328.893.953 1.65 1.773 2.147.82.497 1.786.705 2.742.59a8.293 8.293 0 013.418.383z" clip-rule="evenodd"/>
    <g>
      <path fill="#8275A0" fill-rule="evenodd" d="M299.073 400.411c-8.191-16.487 21.8-26.863 22.832-9.867a12.591 12.591 0 01-1.451 8.063 12.84 12.84 0 01-6.126 5.523 13.052 13.052 0 01-8.267.697 12.912 12.912 0 01-6.988-4.416z" clip-rule="evenodd"/>
      <path fill="#8579A3" fill-rule="evenodd" d="M97.391 429.057c-8.126-16.487 21.8-26.863 22.832-9.931a12.587 12.587 0 01-1.411 8.094 12.839 12.839 0 01-6.126 5.559 13.062 13.062 0 01-8.29.711 12.92 12.92 0 01-7.005-4.433zM331.902 365.782c-10.835 4.965 1.871 11.967 6.45 6.366.461-.5.807-1.092 1.013-1.736a4.592 4.592 0 00-.511-3.88 4.672 4.672 0 00-1.428-1.423 4.752 4.752 0 00-3.927-.539 4.737 4.737 0 00-1.768.985 4.654 4.654 0 00-1.183 1.627l1.354-1.4zM86.75 120.448c-4.064 1.846.71 4.456 2.257 2.228a1.708 1.708 0 00.395-1.364 1.734 1.734 0 00-1.468-1.448 1.749 1.749 0 00-1.83.966l.646-.382zM326.291 326.569c-9.933 4.52 1.677 10.885 5.611 5.538a4.17 4.17 0 00.74-3.25 4.22 4.22 0 00-1.889-2.76 4.303 4.303 0 00-4.883.204 4.212 4.212 0 00-1.127 1.287l1.548-1.019zM40.183 38.076c-4.063 1.846.645 4.456 2.257 2.292a1.711 1.711 0 00.395-1.364 1.705 1.705 0 00-.78-1.193 1.754 1.754 0 00-1.421-.208 1.75 1.75 0 00-1.096.919l.645-.446zM272.371 78.244c-3.998 1.846.71 4.456 2.322 2.228a1.702 1.702 0 00-.384-2.557 1.752 1.752 0 00-1.422-.208 1.747 1.747 0 00-1.096.919l.58-.382z" clip-rule="evenodd"/>
    </g>
  </g>
  <defs>
    <linearGradient id="paint0_linear" x1="218.774" x2="218.774" y1="511.873" y2=".963" gradientUnits="userSpaceOnUse">
      <stop stop-color="#634175"/>
      <stop offset="1" stop-color="#686370"/>
    </linearGradient>
    <linearGradient id="paint1_linear" x1="221.419" x2="221.419" y1="495.96" y2="16.815" gradientUnits="userSpaceOnUse">
      <stop stop-color="#7A5E89"/>
      <stop offset="1" stop-color="#787291"/>
    </linearGradient>
    <linearGradient id="paint2_linear" x1="200.973" x2="200.973" y1="237.131" y2="203.393" gradientUnits="userSpaceOnUse">
      <stop stop-color="#705F84"/>
      <stop offset="1" stop-color="#4F4170"/>
    </linearGradient>
    <linearGradient id="paint3_linear" x1="1983.85" x2="1983.85" y1="2984.01" y2="2969.16" gradientUnits="userSpaceOnUse">
      <stop stop-color="#705F84"/>
      <stop offset="1" stop-color="#4F4170"/>
    </linearGradient>
    <linearGradient id="paint4_linear" x1="2960.53" x2="2960.53" y1="3817.92" y2="3782.47" gradientUnits="userSpaceOnUse">
      <stop stop-color="#705F84"/>
      <stop offset="1" stop-color="#4F4170"/>
    </linearGradient>
    <linearGradient id="paint5_linear" x1="1263.1" x2="1263.1" y1="4737.59" y2="4665.14" gradientUnits="userSpaceOnUse">
      <stop stop-color="#705F84"/>
      <stop offset="1" stop-color="#4F4170"/>
    </linearGradient>
    <linearGradient id="paint6_linear" x1="2739.14" x2="2739.14" y1="9601.85" y2="9278.91" gradientUnits="userSpaceOnUse">
      <stop stop-color="#705F84"/>
      <stop offset="1" stop-color="#4F4170"/>
    </linearGradient>
    <linearGradient id="paint7_linear" x1="1081.87" x2="1081.87" y1="1708.25" y2="1697.69" gradientUnits="userSpaceOnUse">
      <stop stop-color="#705F84"/>
      <stop offset="1" stop-color="#4F4170"/>
    </linearGradient>
    <filter id="filter0_d" width="438" height="519.036" x="0" y=".964" color-interpolation-filters="sRGB" filterUnits="userSpaceOnUse">
      <feFlood flood-opacity="0" result="BackgroundImageFix"/>
      <feColorMatrix in="SourceAlpha" result="hardAlpha" values="0 0 0 0 0 0 0 0 0 0 0 0 0 0 0 0 0 0 127 0"/>
      <feOffset dy="4"/>
      <feGaussianBlur stdDeviation="2"/>
      <feComposite in2="hardAlpha" operator="out"/>
      <feColorMatrix values="0 0 0 0 0 0 0 0 0 0 0 0 0 0 0 0 0 0 0.25 0"/>
      <feBlend in2="BackgroundImageFix" result="effect1_dropShadow"/>
      <feBlend in="SourceGraphic" in2="effect1_dropShadow" result="shape"/>
    </filter>
  </defs>
</svg>
