<svg xmlns="http://www.w3.org/2000/svg" width="4274" height="873" fill="none" viewBox="0 0 4274 873">
  <path fill="url(#paint0_linear)" fill-rule="evenodd" d="M3522.78 867.028c-335.33-40.395-832.79-46.45-1099.44-46.45-167.24 0-281.36 2.24-282.54 2.323h-7.67c-1.07 0-115.2-2.323-282.44-2.323-266.64 0-764.21 6.055-1099.541 46.45L701.766 873l-39.997-17.916c-78.721-37.085-150.652-82.255-213.851-134.289-36.237 8.968-74.071 13.419-112.098 13.189-40.893-.184-81.57-4.619-120.951-13.189l-15.359-3.235-13.012-5.723c-8.426-3.732-205.425-91.986-184.306-251.905l3.093-23.474-3.093-23.473c-21.332-159.836 175.88-248.173 184.306-251.822l13.012-5.723 15.359-3.235c39.265-8.592 79.841-13.028 120.631-13.189 38.017-.213 75.842 4.209 112.098 13.106 63.281-52.042 135.325-97.186 214.171-134.206L701.766 0l49.383 5.972c335.441 40.395 832.901 46.45 1099.651 46.45 167.24 0 281.26-2.323 282.43-2.323h7.57c1.18 0 115.09 2.323 282.44 2.323 266.64 0 764.21-6.055 1099.54-46.45L3572.16 0l40.11 17.916c78.71 37.06 150.64 82.201 213.85 134.206 36.25-8.903 74.08-13.326 112.1-13.106 40.79.167 81.36 4.603 120.63 13.189l15.25 3.235 13.01 5.723c8.43 3.649 205.43 91.986 184.31 251.822l-3.52 23.473 3.09 23.474c21.33 159.919-175.88 248.173-184.3 251.905l-13.02 5.723-15.25 3.235c-39.28 8.548-79.84 12.983-120.63 13.189-38.03.236-75.86-4.216-112.1-13.189-63.18 52.044-135.12 97.214-213.85 134.289L3571.74 873l-48.96-5.972z" clip-rule="evenodd"/>
  <path fill="#FC8B4F" fill-rule="evenodd" d="M701.765 0l27.092 68.845s1582.813 117.699 2815.793 0L3571.74 0s-606.89 49.767-1435.2 49.767C1308.23 49.767 701.765 0 701.765 0z" clip-rule="evenodd"/>
  <path fill="#590A43" fill-rule="evenodd" d="M3572.16 873l-27.09-94.558s-1279.9-116.87-2815.787 0L702.192 873s1646.918-113.718 2869.968 0z" clip-rule="evenodd"/>
  <path fill="url(#paint1_linear)" fill-rule="evenodd" d="M4161.24 439.112c16.85 126.741-140.58 195.586-140.58 195.586-148.14 31.768-215.66-27.87-215.66-27.87l27.84-52.422c-91.94 136.363-287.98 223.953-287.98 223.953-525.4-63.204-2290.82-63.204-2815.79 0 0 0-195.932-87.59-287.978-223.953l27.731 52.422s-67.408 59.638-215.557 27.87c0 0-157.428-68.845-140.683-195.586l153.269-28.367-153.375-28.367C95.731 255.803 253.159 186.793 253.159 186.793c148.149-31.603 215.558 28.035 215.558 28.035l-27.732 52.256c91.94-136.279 287.979-223.953 287.979-223.953C1254.36 106.502 2136.86 88.585 2136.86 88.585s882.71 17.917 1407.89-45.454h.64c9.92 4.48 149.97 69.26 245.32 171.697 15.56 16.529 29.57 33.909 41.91 52.007l-27.83-52.256s67.51-59.637 215.66-28.035c0 0 157.43 69.01 140.58 195.585l-153.17 28.367 153.38 28.616z" clip-rule="evenodd"/>
  <path fill="#590A43" fill-rule="evenodd" d="M4161.24 382.378l106.66 54.08s7.57 47.362 3.2 69.84l-109.86-66.688-153.16-28.367 153.16-28.865z" clip-rule="evenodd"/>
  <path fill="#FC8B4F" fill-rule="evenodd" d="M3805.32 214.828l20.8-62.707s125.54-39.896 247.98 3.318l-53.33 31.354s-154.12-33.013-215.45 28.035zM199.829 155.439l53.33 31.354s132.363-34.588 215.45 28.035l-20.691-62.706c-81.244-18.323-167.704-17.166-248.089 3.317z" clip-rule="evenodd"/>
  <path fill="#590A43" fill-rule="evenodd" d="M5.604 436.458l106.659-54.08 153.162 28.45-152.949 28.782L1.551 491.7s-5.44-34.92 4.053-55.242zM3826.12 720.795l-20.8-114.05s67.73 52.671 215.56 28.036l53.33 82.945s-126.29 41.141-248.09 3.069zM468.609 606.745l-20.691 114.05s-98.233 32.681-248.089-3.235l53.33-82.945s163.508 30.441 215.45-27.87z" clip-rule="evenodd"/>
  <path fill="#52134C" fill-rule="evenodd" d="M447.917 152.122l20.799 62.707-27.625 52.338-56.102 78.052-76.688 65.609 94.073-63.204 100.153-132.795 32.744-49.104-87.354-13.603z" clip-rule="evenodd"/>
  <path fill="#D9772F" fill-rule="evenodd" d="M2136.97 226.938v120.271l2003.69-65.693 22.07 46.201-3896.985 82.945-153.268-28.284C95.731 255.803 253.159 186.793 253.159 186.793c148.149-31.602 215.558 28.035 215.558 28.035l-27.732 52.256c91.94-136.279 287.979-223.953 287.979-223.953C1254.36 106.502 2136.86 88.585 2136.86 88.585s882.71 17.917 1407.89-45.454h.64c118.39 33.178 259.5 171.448 259.5 171.448h-14.08l-1653.84 12.359z" clip-rule="evenodd" opacity=".2"/>
  <path fill="url(#paint2_linear)" fill-rule="evenodd" d="M111.303 491.037L3805.43 606.745l-46.19 31.188-3617.752-91.904-30.185-54.992z" clip-rule="evenodd" opacity=".2" style="mix-blend-mode:multiply"/>
  <path fill="url(#paint3_linear)" fill-rule="evenodd" d="M1275.48 744.186l311.77-90.245 417.78-37.325 573.61-8.71 84.05 2.157-830.34 40.643-217.27 25.299-150.39 62.623-189.21 5.558z" clip-rule="evenodd" opacity=".2" style="mix-blend-mode:multiply"/>
  <path fill="url(#paint4_linear)" fill-rule="evenodd" d="M2086.73 730.997l160.52-39.648 158.71-32.514 554.3-41.224 323.07 8.211-292.56 44.791-346.32-13.188-167.14 9.787-79.35 4.811-170.23 40.809-29.22 18.165h-111.78z" clip-rule="evenodd" opacity=".2" style="mix-blend-mode:multiply"/>
  <path fill="#D37B4F" fill-rule="evenodd" d="M3464.23 51.924l149.1 19.409-54.07-38.404-95.03 18.995zM668.914 74.153L802.558 51.26l-93.007-31.436-40.637 54.33z" clip-rule="evenodd"/>
  <path fill="#934A4D" fill-rule="evenodd" d="M663.369 744.186l188.465 22.229-133.856 50.099-54.609-72.328zM3410.15 765.42l200.52-21.234-59.41 55.573-141.11-34.339zM3975.33 640.255l77.12-22.644-22.51 31.104-54.61-8.46z" clip-rule="evenodd"/>
  <path fill="#D37B4F" fill-rule="evenodd" d="M219.988 204.958l161.482-27.869H236.52l-16.532 27.869z" clip-rule="evenodd"/>
  <path fill="#CC654F" fill-rule="evenodd" d="M402.375 347.624l87.673-79.13 45.223-102.769-132.896 181.899z" clip-rule="evenodd"/>
  <path fill="url(#paint5_linear)" fill-rule="evenodd" d="M1501.28 87.59l221 20.239 802.07 44.293-681.98-60.55-341.09-3.982z" clip-rule="evenodd"/>
  <path fill="#CC654F" fill-rule="evenodd" d="M1501.28 87.59l130.23 1.493 892.84 63.039-771.78-39.399-251.29-25.133z" clip-rule="evenodd"/>
  <path fill="url(#paint6_linear)" fill-rule="evenodd" d="M1004.04 759.696l233.69-142.085-106.45 135.367-127.24 6.718z" clip-rule="evenodd"/>
  <path fill="#CC654F" fill-rule="evenodd" d="M1131.28 752.978l-28.58-8.793 135.03-126.574-106.45 135.367z" clip-rule="evenodd"/>
  <path fill="url(#paint7_linear)" fill-rule="evenodd" d="M3805.32 214.828l-222.81 125.248 178.65-164.979 44.16 39.731z" clip-rule="evenodd"/>
  <path fill="#CC654F" fill-rule="evenodd" d="M3805.32 214.828l-21.65-4.147-201.16 129.395 222.81-125.248z" clip-rule="evenodd"/>
  <path fill="#52134C" fill-rule="evenodd" d="M3761.16 175.098l64.96-22.976-42.45 58.559-201.16 129.395 178.65-164.978z" clip-rule="evenodd"/>
  <defs>
    <linearGradient id="paint0_linear" x1="2136.97" x2="2136.97" y1="873" y2="0" gradientUnits="userSpaceOnUse">
      <stop stop-color="#651D32"/>
      <stop offset="1" stop-color="#893928"/>
    </linearGradient>
    <linearGradient id="paint1_linear" x1="2136.97" x2="2136.97" y1="778.359" y2="43.131" gradientUnits="userSpaceOnUse">
      <stop stop-color="#8C3832"/>
      <stop offset="1" stop-color="#AC4A31"/>
    </linearGradient>
    <linearGradient id="paint2_linear" x1="111.303" x2="3805.43" y1="564.443" y2="564.443" gradientUnits="userSpaceOnUse">
      <stop stop-color="#C77CBD"/>
      <stop offset="1" stop-color="#974577"/>
    </linearGradient>
    <linearGradient id="paint3_linear" x1="167185" x2="347605" y1="11714.7" y2="11714.7" gradientUnits="userSpaceOnUse">
      <stop stop-color="#C77CBD"/>
      <stop offset="1" stop-color="#974577"/>
    </linearGradient>
    <linearGradient id="paint4_linear" x1="236226" x2="370461" y1="9835.91" y2="9835.91" gradientUnits="userSpaceOnUse">
      <stop stop-color="#C77CBD"/>
      <stop offset="1" stop-color="#974577"/>
    </linearGradient>
    <linearGradient id="paint5_linear" x1="145519" x2="243652" y1="1020.07" y2="1020.07" gradientUnits="userSpaceOnUse">
      <stop stop-color="#651D32"/>
      <stop offset="1" stop-color="#893928"/>
    </linearGradient>
    <linearGradient id="paint6_linear" x1="23005.9" x2="28126" y1="12415" y2="12415" gradientUnits="userSpaceOnUse">
      <stop stop-color="#651D32"/>
      <stop offset="1" stop-color="#893928"/>
    </linearGradient>
    <linearGradient id="paint7_linear" x1="78424.4" x2="83078.9" y1="5299.32" y2="5299.32" gradientUnits="userSpaceOnUse">
      <stop stop-color="#651D32"/>
      <stop offset="1" stop-color="#893928"/>
    </linearGradient>
  </defs>
</svg>
