<svg width="520" height="424" viewBox="0 0 520 424" fill="none" xmlns="http://www.w3.org/2000/svg">
<g id="Group" filter="url(#filter0_d)">
<path id="Vector" fill-rule="evenodd" clip-rule="evenodd" d="M4.59031 404.857L20.3967 389.911L43.1047 405.452L26.6474 415.562L4.59031 404.857Z" fill="#8079A5"/>
<path id="Vector_2" fill-rule="evenodd" clip-rule="evenodd" d="M515.295 334.785L499.359 327.286L477.542 376.304L495.814 398.694L515.295 334.785Z" fill="#4F3D70"/>
<path id="Vector_3" fill-rule="evenodd" clip-rule="evenodd" d="M222.696 1.68487L244.964 19.0977L250.706 23.66L277.07 5.32925L258.853 1.57785L222.696 1.68487Z" fill="#4F3D70"/>
<path id="Vector_4" fill-rule="evenodd" clip-rule="evenodd" d="M333.276 391.371L347.408 391.33L357.72 391.299L395.204 387.77L364.19 383.605L333.276 391.371Z" fill="#8579A3"/>
<path id="Vector_5" fill-rule="evenodd" clip-rule="evenodd" d="M28.1786 395.241L22.0103 375.911L20.3966 389.911L28.1786 395.241Z" fill="#BEBAD3"/>
<path id="Vector_6" fill-rule="evenodd" clip-rule="evenodd" d="M20.9 65.2959L27.1175 36.7053L14.5135 36.7426L20.9 65.2959Z" fill="#BEBAD3"/>
<path id="Vector_7" fill-rule="evenodd" clip-rule="evenodd" d="M487.908 71.7823L476.541 38.213L489.749 48.4289L487.908 71.7823Z" fill="#8579A3"/>
<path id="Vector_8" fill-rule="evenodd" clip-rule="evenodd" d="M250.706 23.66L256.007 7.77808L258.853 1.57792L277.07 5.32933L250.706 23.66Z" fill="#8579A3"/>
<path id="Vector_9" fill-rule="evenodd" clip-rule="evenodd" d="M187.147 140.545L160.83 100.49L158.718 83.7039L147.987 74.1429L138.181 42.5319L187.147 140.545Z" fill="#8579A3"/>
<path id="Vector_10" fill-rule="evenodd" clip-rule="evenodd" d="M307.504 7.36764L324.452 12.4128L356.657 10.6405L336.786 7.28097L307.504 7.36764Z" fill="#8579A3"/>
<g id="Group_2">
<path id="Vector_11" fill-rule="evenodd" clip-rule="evenodd" d="M226.443 202.266C228.892 202.675 231.272 203.428 233.516 204.502V204.502C237.801 206.151 241.524 209.022 244.235 212.768C246.946 216.514 248.529 220.975 248.792 225.612C248.748 228.903 247.898 232.131 246.317 235.007C244.737 237.882 242.476 240.315 239.738 242.086C238.808 242.416 237.85 242.656 236.875 242.803C235.262 243.164 233.59 243.169 231.974 242.818C214.075 238.872 207.527 198.968 226.443 202.266Z" fill="url(#paint0_linear)"/>
<path id="Vector_12" fill-rule="evenodd" clip-rule="evenodd" d="M457.873 97.0891C458.168 97.1996 458.447 97.3508 458.702 97.5382C459.655 98.1342 460.424 98.9892 460.921 100.006C461.418 101.023 461.623 102.16 461.514 103.29C461.405 104.419 460.985 105.494 460.302 106.394C459.619 107.293 458.701 107.98 457.652 108.377L457.334 108.378C448.676 108.468 451.309 94.4641 457.873 97.0891Z" fill="url(#paint1_linear)"/>
<path id="Vector_13" fill-rule="evenodd" clip-rule="evenodd" d="M292.085 24.118C292.726 24.3071 293.346 24.5648 293.933 24.8866C303.114 29.6967 295.77 43.2628 290.221 39.7318C289.468 39.2391 288.835 38.5794 288.37 37.8025C279.639 34.6035 282.909 21.0493 292.085 24.118Z" fill="url(#paint2_linear)"/>
<path id="Vector_14" fill-rule="evenodd" clip-rule="evenodd" d="M152.232 368.946C153.496 369.119 154.736 369.44 155.927 369.903C163.83 373.104 165.769 382.773 154.048 380.292L154.05 380.808C152.401 380.698 150.762 380.465 149.146 380.113C145.388 379.351 141.119 377.815 140.855 374.849C140.395 369.82 149.111 368.311 152.232 368.946Z" fill="url(#paint3_linear)"/>
<path id="Vector_15" fill-rule="evenodd" clip-rule="evenodd" d="M120.653 367.04C124.045 367.843 127.192 369.476 129.817 371.795C132.443 374.115 134.468 377.051 135.715 380.347C135.498 383.45 134.125 386.353 131.873 388.467C129.622 390.582 126.661 391.75 123.59 391.734C118.52 392.277 113.394 391.608 108.625 389.779C107.412 389.398 106.221 388.95 105.056 388.435C98.2366 385.553 85.9364 380.687 91.9555 371.124C97.0242 363.047 113.008 364.935 120.653 367.04Z" fill="url(#paint4_linear)"/>
<path id="Vector_16" fill-rule="evenodd" clip-rule="evenodd" d="M81.0181 353.613C83.4443 356.057 84.2862 360.892 79.706 361.937L79.2604 361.939C78.7909 361.919 78.3326 361.788 77.9225 361.556C77.2024 361.184 76.5703 360.658 76.0695 360.015C75.5687 359.373 75.2111 358.628 75.0213 357.832C74.8315 357.036 74.8139 356.208 74.9698 355.404C75.1257 354.601 75.4512 353.841 75.9243 353.177C76.2655 352.822 76.68 352.549 77.1379 352.376C77.5958 352.203 78.0859 352.135 78.5728 352.177C79.0598 352.218 79.5316 352.369 79.9544 352.617C80.3772 352.866 80.7405 353.206 81.0181 353.613V353.613Z" fill="url(#paint5_linear)"/>
<path id="Vector_17" fill-rule="evenodd" clip-rule="evenodd" d="M233.41 201.916C237.691 203.554 241.412 206.413 244.123 210.148C246.834 213.883 248.419 218.334 248.686 222.962C248.648 226.254 247.8 229.484 246.219 232.361C244.638 235.237 242.374 237.669 239.632 239.435C238.711 239.795 237.75 240.036 236.77 240.153L231.868 240.168C231.868 240.168 245.981 233.676 243.076 219.947C241.796 213.06 238.415 206.753 233.41 201.916Z" fill="#8579A3"/>
<path id="Vector_18" fill-rule="evenodd" clip-rule="evenodd" d="M457.873 97.0895C458.168 97.2 458.447 97.3511 458.702 97.5385C459.655 98.1346 460.424 98.9896 460.921 100.006C461.418 101.023 461.624 102.161 461.514 103.29C461.405 104.419 460.985 105.495 460.302 106.394C459.619 107.293 458.701 107.98 457.652 108.377L457.334 108.378C458.027 107.757 458.579 106.991 458.95 106.132C459.321 105.273 459.503 104.343 459.483 103.405C459.654 101.177 459.087 98.9552 457.873 97.0895V97.0895Z" fill="#8579A3"/>
<path id="Vector_19" fill-rule="evenodd" clip-rule="evenodd" d="M293.933 24.8866C303.114 29.6967 295.77 43.2628 290.222 39.7318C291.476 38.8644 292.513 37.7116 293.25 36.3656C293.987 35.0195 294.402 33.5175 294.464 31.9797C294.539 29.6029 294.361 27.2248 293.933 24.8866Z" fill="#8579A3"/>
<path id="Vector_20" fill-rule="evenodd" clip-rule="evenodd" d="M120.653 367.04C124.045 367.843 127.192 369.476 129.817 371.795C132.443 374.115 134.468 377.051 135.715 380.347C135.498 383.45 134.125 386.353 131.873 388.467C129.622 390.582 126.66 391.75 123.59 391.734C118.52 392.277 113.394 391.608 108.625 389.779C111.942 390.112 115.29 389.703 118.433 388.579C121.576 387.455 124.437 385.644 126.812 383.275C133.282 375.646 120.653 367.04 120.653 367.04Z" fill="#8579A3"/>
<path id="Vector_21" fill-rule="evenodd" clip-rule="evenodd" d="M156.182 369.902C164.085 373.104 166.023 382.772 154.303 380.292L154.304 380.808C152.655 380.697 151.016 380.465 149.401 380.113C152.073 379.653 158.371 378.151 158.298 374.991C158.259 373.083 157.502 371.263 156.182 369.902V369.902Z" fill="#8579A3"/>
<path id="Vector_22" fill-rule="evenodd" clip-rule="evenodd" d="M81.0182 353.613C83.4444 356.057 84.2863 360.892 79.7061 361.937L79.2604 361.939C78.791 361.919 78.3327 361.788 77.9226 361.555C78.8143 361.225 79.5691 360.597 80.0637 359.776C80.5584 358.954 80.7638 357.988 80.6464 357.033C80.53 355.879 80.6567 354.713 81.0182 353.613V353.613Z" fill="#8579A3"/>
</g>
<g id="Group_3">
<path id="Vector_23" fill-rule="evenodd" clip-rule="evenodd" d="M403.194 119.373C386.731 127.613 376.266 97.6531 393.26 96.5708C396.03 96.1334 398.866 96.6351 401.327 97.9981C403.787 99.361 405.735 101.509 406.868 104.108C408 106.707 408.254 109.613 407.59 112.373C406.925 115.133 405.38 117.594 403.194 119.373Z" fill="#8275A0"/>
<path id="Vector_24" fill-rule="evenodd" clip-rule="evenodd" d="M432.436 320.969C415.973 329.145 405.509 299.249 422.438 298.167C425.215 297.711 428.062 298.199 430.536 299.555C433.01 300.911 434.971 303.059 436.113 305.664C437.255 308.268 437.514 311.182 436.849 313.951C436.183 316.72 434.632 319.188 432.436 320.969Z" fill="#8579A3"/>
<path id="Vector_25" fill-rule="evenodd" clip-rule="evenodd" d="M368.467 86.6471C373.465 97.4678 380.429 84.7413 374.814 80.1786C374.314 79.7185 373.72 79.3746 373.075 79.1707C372.43 78.9668 371.749 78.9078 371.079 78.998C370.409 79.0881 369.767 79.3252 369.197 79.6927C368.627 80.0602 368.143 80.5493 367.778 81.1258C367.414 81.7023 367.178 82.3524 367.087 83.0308C366.996 83.7092 367.052 84.3996 367.251 85.0538C367.451 85.708 367.788 86.3102 368.241 86.8186C368.694 87.327 369.25 87.7293 369.872 87.9974L368.467 86.6471Z" fill="#8579A3"/>
<path id="Vector_26" fill-rule="evenodd" clip-rule="evenodd" d="M123.861 332.525C125.719 336.582 128.314 331.802 126.082 330.261C125.895 330.101 125.676 329.983 125.441 329.916C125.205 329.848 124.958 329.833 124.716 329.87C124.474 329.907 124.243 329.996 124.038 330.131C123.832 330.266 123.658 330.444 123.526 330.653C123.394 330.861 123.308 331.096 123.273 331.342C123.237 331.587 123.255 331.837 123.323 332.075C123.391 332.314 123.508 332.534 123.667 332.723C123.826 332.911 124.023 333.063 124.244 333.168L123.861 332.525Z" fill="#8579A3"/>
<path id="Vector_27" fill-rule="evenodd" clip-rule="evenodd" d="M329.272 92.3747C333.821 102.294 340.152 90.6655 334.793 86.7471C334.329 86.4071 333.801 86.1669 333.241 86.0413C332.682 85.9156 332.103 85.9072 331.541 86.0165C330.978 86.1258 330.444 86.3505 329.97 86.6768C329.496 87.0031 329.093 87.4241 328.786 87.9139C328.479 88.4038 328.274 88.9521 328.184 89.5252C328.093 90.0983 328.119 90.6841 328.261 91.2466C328.402 91.8091 328.655 92.3364 329.005 92.796C329.355 93.2557 329.794 93.638 330.295 93.9195L329.272 92.3747Z" fill="#8579A3"/>
<path id="Vector_28" fill-rule="evenodd" clip-rule="evenodd" d="M41.6268 379.335C43.4848 383.393 46.0808 378.677 43.9117 377.071C43.7247 376.911 43.5061 376.793 43.2706 376.726C43.0351 376.659 42.7881 376.643 42.5461 376.68C42.3042 376.717 42.0728 376.806 41.8676 376.941C41.6623 377.076 41.4879 377.254 41.356 377.463C41.224 377.672 41.1376 377.907 41.1025 378.152C41.0674 378.397 41.0844 378.648 41.1524 378.886C41.2204 379.124 41.3378 379.345 41.4968 379.533C41.6558 379.722 41.8527 379.874 42.0743 379.979L41.6268 379.335Z" fill="#8579A3"/>
<path id="Vector_29" fill-rule="evenodd" clip-rule="evenodd" d="M81.1068 147.029C82.9647 151.022 85.5607 146.306 83.3279 144.7C83.1409 144.54 82.9223 144.423 82.6868 144.355C82.4513 144.288 82.2043 144.272 81.9624 144.309C81.7204 144.346 81.489 144.435 81.2838 144.57C81.0785 144.705 80.9041 144.883 80.7722 145.092C80.6402 145.301 80.5537 145.536 80.5186 145.781C80.4835 146.027 80.5006 146.277 80.5686 146.515C80.6366 146.753 80.754 146.974 80.913 147.162C81.072 147.351 81.2688 147.503 81.4904 147.608L81.1068 147.029Z" fill="#8579A3"/>
</g>
</g>
<defs>
<filter id="filter0_d" x="0.546204" y="1.52393" width="518.938" height="422.104" filterUnits="userSpaceOnUse" color-interpolation-filters="sRGB">
<feFlood flood-opacity="0" result="BackgroundImageFix"/>
<feColorMatrix in="SourceAlpha" type="matrix" values="0 0 0 0 0 0 0 0 0 0 0 0 0 0 0 0 0 0 127 0" result="hardAlpha"/>
<feOffset dy="4"/>
<feGaussianBlur stdDeviation="2"/>
<feComposite in2="hardAlpha" operator="out"/>
<feColorMatrix type="matrix" values="0 0 0 0 0 0 0 0 0 0 0 0 0 0 0 0 0 0 0.25 0"/>
<feBlend mode="normal" in2="BackgroundImageFix" result="effect1_dropShadow"/>
<feBlend mode="normal" in="SourceGraphic" in2="effect1_dropShadow" result="shape"/>
</filter>
<linearGradient id="paint0_linear" x1="248.783" y1="222.452" x2="215.045" y2="222.552" gradientUnits="userSpaceOnUse">
<stop stop-color="#705F84"/>
<stop offset="1" stop-color="#4F4170"/>
</linearGradient>
<linearGradient id="paint1_linear" x1="2981.8" y1="-1573.04" x2="2966.94" y2="-1573" gradientUnits="userSpaceOnUse">
<stop stop-color="#705F84"/>
<stop offset="1" stop-color="#4F4170"/>
</linearGradient>
<linearGradient id="paint2_linear" x1="3812.81" y1="-2552.18" x2="3777.36" y2="-2552.08" gradientUnits="userSpaceOnUse">
<stop stop-color="#705F84"/>
<stop offset="1" stop-color="#4F4170"/>
</linearGradient>
<linearGradient id="paint3_linear" x1="4737.5" y1="-857.484" x2="4665.05" y2="-857.27" gradientUnits="userSpaceOnUse">
<stop stop-color="#705F84"/>
<stop offset="1" stop-color="#4F4170"/>
</linearGradient>
<linearGradient id="paint4_linear" x1="9597.37" y1="-2347.91" x2="9274.43" y2="-2346.96" gradientUnits="userSpaceOnUse">
<stop stop-color="#705F84"/>
<stop offset="1" stop-color="#4F4170"/>
</linearGradient>
<linearGradient id="paint5_linear" x1="1708.71" y1="-667.291" x2="1698.15" y2="-667.26" gradientUnits="userSpaceOnUse">
<stop stop-color="#705F84"/>
<stop offset="1" stop-color="#4F4170"/>
</linearGradient>
</defs>
</svg>
