<svg xmlns="http://www.w3.org/2000/svg" width="307" height="528" fill="none" viewBox="0 0 307 528">
  <path fill="#FF4252" d="M182.263 83.254a12.475 12.475 0 01-7.644 11.577 12.457 12.457 0 01-13.611-2.656 12.482 12.482 0 01-2.736-13.602 12.468 12.468 0 0111.524-7.717c3.294 0 6.453 1.304 8.789 3.627a12.476 12.476 0 013.678 8.77z"/>
  <path fill="#A5D2EB" d="M307 374.416c0 30.386-9.008 60.089-25.885 85.35a153.522 153.522 0 01-68.925 56.565 153.423 153.423 0 01-88.719 8.701 153.469 153.469 0 01-78.591-42.096 153.606 153.606 0 01-41.958-78.695 153.663 153.663 0 018.827-88.755 153.564 153.564 0 0156.635-68.879 153.435 153.435 0 01193.737 19.289A153.627 153.627 0 01307 374.416z"/>
  <path fill="#A5D2EB" d="M200.136 88.814H107.39v162.45h92.746V88.814z"/>
  <path fill="#D4E9F4" d="M170.322 88.814h-33.118V284.1h33.118V88.814z"/>
  <path fill="#A5D2EB" d="M215.305 83.329H92.22v51.169h123.085v-51.17z"/>
  <path fill="#FF4252" d="M162.362 364.348a172.12 172.12 0 01-127.667 15.027 119 119 0 0011.673 47.068 118.934 118.934 0 0029.479 38.493 118.828 118.828 0 00136.717 13.148 118.897 118.897 0 0036.267-32.17 118.987 118.987 0 0021.596-92.461 136.007 136.007 0 00-108.065 10.895z"/>
  <path fill="#D4E9F4" d="M153.725 255.397a118.92 118.92 0 00-84.113 34.86 119.05 119.05 0 00-34.842 84.159v4.358a172.12 172.12 0 00127.667-15.027 136.02 136.02 0 01108.291-11.196 118.96 118.96 0 00-40.948-69.74 118.843 118.843 0 00-76.055-27.414z"/>
  <path fill="#FF4252" d="M121.658 346.39a8.491 8.491 0 01-5.238 7.844 8.476 8.476 0 01-9.248-1.841 8.493 8.493 0 011.286-13.063 8.48 8.48 0 014.714-1.431 8.56 8.56 0 018.486 8.491zM164.314 310.098a10.368 10.368 0 01-6.397 9.58 10.365 10.365 0 01-14.131-7.557 10.367 10.367 0 0110.165-12.392 10.36 10.36 0 017.328 3.037 10.373 10.373 0 013.035 7.332zM180.911 358.938a7.516 7.516 0 01-4.636 6.942 7.512 7.512 0 01-9.812-9.818 7.512 7.512 0 016.938-4.638 7.513 7.513 0 017.51 7.514zM164.765 63.793a7.519 7.519 0 01-4.636 6.942 7.507 7.507 0 01-10.24-5.476 7.52 7.52 0 013.194-7.714 7.507 7.507 0 0111.682 6.248zM150.12 371.862a13.002 13.002 0 01-7.985 12.07 12.986 12.986 0 01-14.193-2.804 13.001 13.001 0 019.262-22.19 12.91 12.91 0 019.133 3.785 12.925 12.925 0 013.783 9.139z"/>
  <path fill="#D4E9F4" d="M190.674 422.806a13.002 13.002 0 01-8.021 12.009 12.98 12.98 0 01-14.158-2.817 13.01 13.01 0 01-2.816-14.167 12.99 12.99 0 0112.003-8.024 12.906 12.906 0 019.208 3.785 12.923 12.923 0 013.784 9.214zM111.746 413.188a12.996 12.996 0 01-15.508 12.828 12.992 12.992 0 01-10.23-10.235 13.006 13.006 0 015.575-13.357 12.983 12.983 0 017.246-2.16c3.426 0 6.711 1.362 9.133 3.785a12.926 12.926 0 013.784 9.139zM216.132 376.22a9.397 9.397 0 01-5.795 8.677 9.386 9.386 0 01-12.799-6.845 9.388 9.388 0 013.991-9.642 9.385 9.385 0 015.215-1.583 9.313 9.313 0 019.388 9.393z"/>
  <path fill="#FF4252" d="M139.081 56.279a12.997 12.997 0 01-15.526 12.75 13 13 0 01-9.469-17.724 12.99 12.99 0 0124.995 4.974zM170.322 12.924a12.995 12.995 0 01-15.48 12.833 12.993 12.993 0 01-10.248-10.194 13.001 13.001 0 015.51-13.367 12.987 12.987 0 0116.386 1.585 13.005 13.005 0 013.832 9.143z"/>
  <path fill="#fff" d="M55.648 303.561l-25.233-31.634 31.616 25.172 31.691-25.172-25.233 31.634 25.233 31.633-31.691-25.247-31.616 25.247 25.233-31.633z"/>
</svg>
