<svg width="484" height="362" viewBox="0 0 484 362" fill="none" xmlns="http://www.w3.org/2000/svg">
<path d="M224.884 267.324C214.373 253.668 203.995 240.493 193.544 226.257C203.524 224.731 213.569 223.678 223.678 223.099C230.067 232.501 236.491 241.855 242.964 251.558H243.495C250.112 241.915 256.754 232.67 263.275 223.292C272.279 223.895 281.283 224.883 290.227 226.257C279.825 240.493 269.446 253.668 258.887 267.324C271.117 285.495 282.092 304.479 291.734 324.146C282.27 319.509 272.229 316.161 261.877 314.189C254.861 302.304 247.822 291.42 240.831 281.042H240.3C233.068 291.552 225.908 302.642 218.748 314.792C209.501 316.822 200.53 319.95 192.025 324.11C201.673 304.455 212.651 285.483 224.884 267.324V267.324Z" stroke="#ED1E79" stroke-width="33.9793"/>
<path d="M224.884 267.324C214.373 253.668 203.995 240.493 193.544 226.257C203.524 224.731 213.569 223.678 223.678 223.099C230.067 232.501 236.491 241.855 242.964 251.558H243.495C250.112 241.915 256.754 232.67 263.275 223.292C272.279 223.895 281.283 224.883 290.227 226.257C279.825 240.493 269.446 253.668 258.887 267.324C271.117 285.495 282.092 304.479 291.734 324.146C282.27 319.509 272.229 316.161 261.877 314.189C254.861 302.304 247.822 291.42 240.831 281.042H240.3C233.068 291.552 225.908 302.642 218.748 314.792C209.501 316.822 200.53 319.95 192.025 324.11C201.673 304.455 212.651 285.483 224.884 267.324V267.324Z" stroke="#192230" stroke-width="23.4017"/>
<path d="M224.884 267.324C214.373 253.668 203.995 240.493 193.544 226.257C203.524 224.731 213.569 223.678 223.678 223.099C230.067 232.501 236.491 241.855 242.964 251.558H243.495C250.112 241.915 256.754 232.67 263.275 223.292C272.279 223.895 281.283 224.883 290.227 226.257C279.825 240.493 269.446 253.668 258.887 267.324C271.117 285.495 282.092 304.479 291.734 324.146C282.27 319.509 272.229 316.161 261.877 314.189C254.861 302.304 247.822 291.42 240.831 281.042H240.3C233.068 291.552 225.908 302.642 218.748 314.792C209.501 316.822 200.53 319.95 192.025 324.11C201.673 304.455 212.651 285.483 224.884 267.324V267.324Z" fill="url(#paint0_radial)"/>
<path d="M32 49.5256C42.7921 47.814 53.5962 46.2389 64.4125 44.8005C75.4778 43.33 83.5658 45.4876 88.6164 50.8997C93.6669 56.3119 96.162 65.2075 96.0896 77.6711V84.0716C96.2338 91.1524 95.0312 98.1962 92.5459 104.828C90.4059 110.261 86.7645 114.972 82.0471 118.413V118.883C92.6784 120.787 97.9459 130.683 97.8495 148.571C97.8495 153.115 97.7892 157.672 97.7651 162.216C97.6928 174.511 94.8602 184.648 89.3275 192.989C83.7949 201.33 75.7068 207.538 65.2201 211.793C54.1065 216.277 43.0653 221.179 32.0964 226.498L32 49.5256ZM61.628 113.676C65.5329 112.876 68.9833 110.611 71.271 107.347C73.4286 104.177 74.5255 99.4763 74.5496 93.1963C74.5496 90.1346 74.5496 87.073 74.5496 84.0113C74.5496 77.9845 73.718 73.8862 71.9702 71.4996C70.2224 69.1129 67.4621 68.233 63.6893 68.8839C60.2419 69.4745 56.8066 70.0892 53.3592 70.716C53.3592 85.7511 53.319 100.778 53.2387 115.797C56.0512 115.042 58.8477 114.334 61.628 113.676ZM65.2442 187.963C68.7128 186.812 71.6631 184.473 73.5733 181.357C75.3894 178.304 76.3135 173.812 76.3457 167.881L76.418 153.561C76.418 146.048 75.3733 141.134 73.284 138.82C71.1626 136.505 67.6308 135.987 62.7249 137.385C59.5588 138.277 56.3967 139.201 53.2387 140.158L53.094 192.543C57.12 190.928 61.162 189.385 65.2201 187.914L65.2442 187.963Z" stroke="#ED1E79" stroke-width="63.8943"/>
<path d="M127.634 37.8818C137.39 37.0782 147.145 36.351 156.901 35.7001C164.073 84.9516 171.293 133.335 178.597 181.152C171.365 182.173 164.101 183.378 156.804 184.769C155.551 175.126 154.297 165.483 153.044 155.84C153.044 155.984 153.044 156.129 153.044 156.261C144.823 157.684 136.618 159.291 128.43 161.083C127.04 171.377 125.662 181.723 124.295 192.121C117.618 193.873 110.96 195.778 104.322 197.835C112.085 142.906 119.884 89.7128 127.634 37.8818ZM150.536 136.325C147.467 112.137 144.409 87.74 141.364 63.1344H140.966C137.663 88.407 134.356 113.937 131.045 139.724C137.611 138.494 144.136 137.361 150.621 136.325H150.536Z" stroke="#ED1E79" stroke-width="63.8943"/>
<path d="M197.546 54.4798C189.992 54.7932 182.442 55.195 174.897 55.6852L175.005 34.6755C197.281 33.5505 219.576 32.992 241.891 33.0001V53.4914C234.338 53.4914 226.78 53.5758 219.218 53.7445C219.13 94.9201 219.05 136.092 218.977 177.259C211.673 177.637 204.376 178.183 197.088 178.898C197.257 137.434 197.409 95.9607 197.546 54.4798Z" stroke="#ED1E79" stroke-width="63.8943"/>
<path d="M271.266 53.9374C263.713 53.7284 256.159 53.5999 248.605 53.5516C248.605 46.7051 248.605 39.8747 248.605 33.0603C270.905 33.1728 293.196 33.8398 315.479 35.0612C315.479 42.1006 315.52 49.14 315.6 56.1793C308.054 55.6409 300.505 55.1869 292.951 54.8173C293.136 96.4428 293.309 138.064 293.469 179.682C286.189 178.878 278.896 178.227 271.592 177.729C271.479 136.449 271.371 95.1852 271.266 53.9374Z" stroke="#ED1E79" stroke-width="63.8943"/>
<path d="M325.882 35.6278C333.114 36.0778 340.314 36.5841 347.482 37.1466C347.771 80.6284 348.057 124.098 348.338 167.556C360.207 170.111 372.036 173.093 383.824 176.5C383.872 184.053 383.917 191.615 383.957 199.185C365.207 193.193 346.106 188.362 326.762 184.72C326.473 135.003 326.179 85.3052 325.882 35.6278Z" stroke="#ED1E79" stroke-width="63.8943"/>
<path d="M393.371 41.5582C412.962 43.7841 432.505 46.44 452 49.5257V74.8385C439.689 72.3314 427.354 70.0452 414.995 67.98L415.176 111.928C424.972 114.242 434.735 116.757 444.466 119.473C444.466 127.791 444.466 136.108 444.466 144.425C434.767 141.291 425.032 138.378 415.26 135.686L415.477 186.757C427.724 191.129 439.89 195.95 451.976 201.222V226.535C433.235 217.421 413.962 209.443 394.263 202.644C393.965 148.957 393.668 95.2616 393.371 41.5582Z" stroke="#ED1E79" stroke-width="63.8943"/>
<path d="M32 49.5256C42.7921 47.814 53.5962 46.2389 64.4125 44.8005C75.4778 43.33 83.5658 45.4876 88.6164 50.8997C93.6669 56.3119 96.162 65.2075 96.0896 77.6711V84.0716C96.2338 91.1524 95.0312 98.1962 92.5459 104.828C90.4059 110.261 86.7645 114.972 82.0471 118.413V118.883C92.6784 120.787 97.9459 130.683 97.8495 148.571C97.8495 153.115 97.7892 157.672 97.7651 162.216C97.6928 174.511 94.8602 184.648 89.3275 192.989C83.7949 201.33 75.7068 207.538 65.2201 211.793C54.1065 216.277 43.0653 221.179 32.0964 226.498L32 49.5256ZM61.628 113.676C65.5329 112.876 68.9833 110.611 71.271 107.347C73.4286 104.177 74.5255 99.4763 74.5496 93.1963C74.5496 90.1346 74.5496 87.073 74.5496 84.0113C74.5496 77.9845 73.718 73.8862 71.9702 71.4996C70.2224 69.1129 67.4621 68.233 63.6893 68.8839C60.2419 69.4745 56.8066 70.0892 53.3592 70.716C53.3592 85.7511 53.319 100.778 53.2387 115.797C56.0512 115.042 58.8477 114.334 61.628 113.676ZM65.2442 187.963C68.7128 186.812 71.6631 184.473 73.5733 181.357C75.3894 178.304 76.3135 173.812 76.3457 167.881L76.418 153.561C76.418 146.048 75.3733 141.134 73.284 138.82C71.1626 136.505 67.6308 135.987 62.7249 137.385C59.5588 138.277 56.3967 139.201 53.2387 140.158L53.094 192.543C57.12 190.928 61.162 189.385 65.2201 187.914L65.2442 187.963Z" stroke="white" stroke-width="45.6388"/>
<path d="M127.634 37.8818C137.39 37.0782 147.145 36.351 156.901 35.7001C164.073 84.9516 171.293 133.335 178.597 181.152C171.365 182.173 164.101 183.378 156.804 184.769C155.551 175.126 154.297 165.483 153.044 155.84C153.044 155.984 153.044 156.129 153.044 156.261C144.823 157.684 136.618 159.291 128.43 161.083C127.04 171.377 125.662 181.723 124.295 192.121C117.618 193.873 110.96 195.778 104.322 197.835C112.085 142.906 119.884 89.7128 127.634 37.8818ZM150.536 136.325C147.467 112.137 144.409 87.74 141.364 63.1344H140.966C137.663 88.407 134.356 113.937 131.045 139.724C137.611 138.494 144.136 137.361 150.621 136.325H150.536Z" stroke="white" stroke-width="45.6388"/>
<path d="M197.546 54.4798C189.992 54.7932 182.442 55.195 174.897 55.6852L175.005 34.6755C197.281 33.5505 219.576 32.992 241.891 33.0001V53.4914C234.338 53.4914 226.78 53.5758 219.218 53.7445C219.13 94.9201 219.05 136.092 218.977 177.259C211.673 177.637 204.376 178.183 197.088 178.898C197.257 137.434 197.409 95.9607 197.546 54.4798Z" stroke="white" stroke-width="45.6388"/>
<path d="M271.266 53.9374C263.713 53.7284 256.159 53.5999 248.605 53.5516C248.605 46.7051 248.605 39.8747 248.605 33.0603C270.905 33.1728 293.196 33.8398 315.479 35.0612C315.479 42.1006 315.52 49.14 315.6 56.1793C308.054 55.6409 300.505 55.1869 292.951 54.8173C293.136 96.4428 293.309 138.064 293.469 179.682C286.189 178.878 278.896 178.227 271.592 177.729C271.479 136.449 271.371 95.1852 271.266 53.9374Z" stroke="white" stroke-width="45.6388"/>
<path d="M325.882 35.6278C333.114 36.0778 340.314 36.5841 347.482 37.1466C347.771 80.6284 348.057 124.098 348.338 167.556C360.207 170.111 372.036 173.093 383.824 176.5C383.872 184.053 383.917 191.615 383.957 199.185C365.207 193.193 346.106 188.362 326.762 184.72C326.473 135.003 326.179 85.3052 325.882 35.6278Z" stroke="white" stroke-width="45.6388"/>
<path d="M393.371 41.5582C412.962 43.7841 432.505 46.44 452 49.5257V74.8385C439.689 72.3314 427.354 70.0452 414.995 67.98L415.176 111.928C424.972 114.242 434.735 116.757 444.466 119.473C444.466 127.791 444.466 136.108 444.466 144.425C434.767 141.291 425.032 138.378 415.26 135.686L415.477 186.757C427.724 191.129 439.89 195.95 451.976 201.222V226.535C433.235 217.421 413.962 209.443 394.263 202.644C393.965 148.957 393.668 95.2616 393.371 41.5582Z" stroke="white" stroke-width="45.6388"/>
<path d="M32 49.5256C42.7921 47.814 53.5962 46.2389 64.4125 44.8005C75.4778 43.33 83.5658 45.4876 88.6164 50.8997C93.6669 56.3119 96.162 65.2075 96.0896 77.6711V84.0716C96.2338 91.1524 95.0312 98.1962 92.5459 104.828C90.4059 110.261 86.7645 114.972 82.0471 118.413V118.883C92.6784 120.787 97.9459 130.683 97.8495 148.571C97.8495 153.115 97.7892 157.672 97.7651 162.216C97.6928 174.511 94.8602 184.648 89.3275 192.989C83.7949 201.33 75.7068 207.538 65.2201 211.793C54.1065 216.277 43.0653 221.179 32.0964 226.498L32 49.5256ZM61.628 113.676C65.5329 112.876 68.9833 110.611 71.271 107.347C73.4286 104.177 74.5255 99.4763 74.5496 93.1963C74.5496 90.1346 74.5496 87.073 74.5496 84.0113C74.5496 77.9845 73.718 73.8862 71.9702 71.4996C70.2224 69.1129 67.4621 68.233 63.6893 68.8839C60.2419 69.4745 56.8066 70.0892 53.3592 70.716C53.3592 85.7511 53.319 100.778 53.2387 115.797C56.0512 115.042 58.8477 114.334 61.628 113.676ZM65.2442 187.963C68.7128 186.812 71.6631 184.473 73.5733 181.357C75.3894 178.304 76.3135 173.812 76.3457 167.881L76.418 153.561C76.418 146.048 75.3733 141.134 73.284 138.82C71.1626 136.505 67.6308 135.987 62.7249 137.385C59.5588 138.277 56.3967 139.201 53.2387 140.158L53.094 192.543C57.12 190.928 61.162 189.385 65.2201 187.914L65.2442 187.963Z" stroke="#192230" stroke-width="47.6068"/>
<path d="M127.634 37.8818C137.39 37.0782 147.145 36.351 156.901 35.7001C164.073 84.9516 171.293 133.335 178.597 181.152C171.365 182.173 164.101 183.378 156.804 184.769C155.551 175.126 154.297 165.483 153.044 155.84C153.044 155.984 153.044 156.129 153.044 156.261C144.823 157.684 136.618 159.291 128.43 161.083C127.04 171.377 125.662 181.723 124.295 192.121C117.618 193.873 110.96 195.778 104.322 197.835C112.085 142.906 119.884 89.7128 127.634 37.8818ZM150.536 136.325C147.467 112.137 144.409 87.74 141.364 63.1344H140.966C137.663 88.407 134.356 113.937 131.045 139.724C137.611 138.494 144.136 137.361 150.621 136.325H150.536Z" stroke="#192230" stroke-width="47.6068"/>
<path d="M197.546 54.4798C189.992 54.7932 182.442 55.195 174.897 55.6852L175.005 34.6755C197.281 33.5505 219.576 32.992 241.891 33.0001V53.4914C234.338 53.4914 226.78 53.5758 219.218 53.7445C219.13 94.9201 219.05 136.092 218.977 177.259C211.673 177.637 204.376 178.183 197.088 178.898C197.257 137.434 197.409 95.9607 197.546 54.4798Z" stroke="#192230" stroke-width="47.6068"/>
<path d="M271.266 53.9374C263.713 53.7284 256.159 53.5999 248.605 53.5516C248.605 46.7051 248.605 39.8747 248.605 33.0603C270.905 33.1728 293.196 33.8398 315.479 35.0612C315.479 42.1006 315.52 49.14 315.6 56.1793C308.054 55.6409 300.505 55.1869 292.951 54.8173C293.136 96.4428 293.309 138.064 293.469 179.682C286.189 178.878 278.896 178.227 271.592 177.729C271.479 136.449 271.371 95.1852 271.266 53.9374Z" stroke="#192230" stroke-width="47.6068"/>
<path d="M325.882 35.6278C333.114 36.0778 340.314 36.5841 347.482 37.1466C347.771 80.6284 348.057 124.098 348.338 167.556C360.207 170.111 372.036 173.093 383.824 176.5C383.872 184.053 383.917 191.615 383.957 199.185C365.207 193.193 346.106 188.362 326.762 184.72C326.473 135.003 326.179 85.3052 325.882 35.6278Z" stroke="#192230" stroke-width="47.6068"/>
<path d="M393.371 41.5582C412.962 43.7841 432.505 46.44 452 49.5257V74.8385C439.689 72.3314 427.354 70.0452 414.995 67.98L415.176 111.928C424.972 114.242 434.735 116.757 444.466 119.473C444.466 127.791 444.466 136.108 444.466 144.425C434.767 141.291 425.032 138.378 415.26 135.686L415.477 186.757C427.724 191.129 439.89 195.95 451.976 201.222V226.535C433.235 217.421 413.962 209.443 394.263 202.644C393.965 148.957 393.668 95.2616 393.371 41.5582Z" stroke="#192230" stroke-width="47.6068"/>
<path d="M32 49.5256C42.7921 47.814 53.5962 46.2389 64.4125 44.8005C75.4778 43.33 83.5658 45.4876 88.6164 50.8997C93.6669 56.3119 96.162 65.2075 96.0896 77.6711V84.0716C96.2338 91.1524 95.0312 98.1962 92.5459 104.828C90.4059 110.261 86.7645 114.972 82.0471 118.413V118.883C92.6784 120.787 97.9459 130.683 97.8495 148.571C97.8495 153.115 97.7892 157.672 97.7651 162.216C97.6928 174.511 94.8602 184.648 89.3275 192.989C83.7949 201.33 75.7068 207.538 65.2201 211.793C54.1065 216.277 43.0653 221.179 32.0964 226.498L32 49.5256ZM61.628 113.676C65.5329 112.876 68.9833 110.611 71.271 107.347C73.4286 104.177 74.5255 99.4763 74.5496 93.1963C74.5496 90.1346 74.5496 87.073 74.5496 84.0113C74.5496 77.9845 73.718 73.8862 71.9702 71.4996C70.2224 69.1129 67.4621 68.233 63.6893 68.8839C60.2419 69.4745 56.8066 70.0892 53.3592 70.716C53.3592 85.7511 53.319 100.778 53.2387 115.797C56.0512 115.042 58.8477 114.334 61.628 113.676ZM65.2442 187.963C68.7128 186.812 71.6631 184.473 73.5733 181.357C75.3894 178.304 76.3135 173.812 76.3457 167.881L76.418 153.561C76.418 146.048 75.3733 141.134 73.284 138.82C71.1626 136.505 67.6308 135.987 62.7249 137.385C59.5588 138.277 56.3967 139.201 53.2387 140.158L53.094 192.543C57.12 190.928 61.162 189.385 65.2201 187.914L65.2442 187.963Z" fill="url(#paint1_radial)"/>
<path d="M127.634 37.8818C137.39 37.0782 147.145 36.351 156.901 35.7001C164.073 84.9516 171.293 133.335 178.597 181.152C171.365 182.173 164.101 183.378 156.804 184.769C155.551 175.126 154.297 165.483 153.044 155.84C153.044 155.984 153.044 156.129 153.044 156.261C144.823 157.684 136.618 159.291 128.43 161.083C127.04 171.377 125.662 181.723 124.295 192.121C117.618 193.873 110.96 195.778 104.322 197.835C112.085 142.906 119.884 89.7128 127.634 37.8818ZM150.536 136.325C147.467 112.137 144.409 87.74 141.364 63.1344H140.966C137.663 88.407 134.356 113.937 131.045 139.724C137.611 138.494 144.136 137.361 150.621 136.325H150.536Z" fill="url(#paint2_radial)"/>
<path d="M197.546 54.4798C189.992 54.7932 182.442 55.195 174.897 55.6852L175.005 34.6755C197.281 33.5505 219.576 32.992 241.891 33.0001V53.4914C234.338 53.4914 226.78 53.5758 219.218 53.7445C219.13 94.9201 219.05 136.092 218.977 177.259C211.673 177.637 204.376 178.183 197.088 178.898C197.257 137.434 197.409 95.9607 197.546 54.4798Z" fill="url(#paint3_radial)"/>
<path d="M271.266 53.9374C263.713 53.7284 256.159 53.5999 248.605 53.5516C248.605 46.7051 248.605 39.8747 248.605 33.0603C270.905 33.1728 293.196 33.8398 315.479 35.0612C315.479 42.1006 315.52 49.14 315.6 56.1793C308.054 55.6409 300.505 55.1869 292.951 54.8173C293.136 96.4428 293.309 138.064 293.469 179.682C286.189 178.878 278.896 178.227 271.592 177.729C271.479 136.449 271.371 95.1852 271.266 53.9374Z" fill="url(#paint4_radial)"/>
<path d="M325.882 35.6278C333.114 36.0778 340.314 36.5841 347.482 37.1466C347.771 80.6284 348.057 124.098 348.338 167.556C360.207 170.111 372.036 173.093 383.824 176.5C383.872 184.053 383.917 191.615 383.957 199.185C365.207 193.193 346.106 188.362 326.762 184.72C326.473 135.003 326.179 85.3052 325.882 35.6278Z" fill="url(#paint5_radial)"/>
<path d="M393.371 41.5582C412.962 43.7841 432.505 46.44 452 49.5257V74.8385C439.689 72.3314 427.354 70.0452 414.995 67.98L415.176 111.928C424.972 114.242 434.735 116.757 444.466 119.473C444.466 127.791 444.466 136.108 444.466 144.425C434.767 141.291 425.032 138.378 415.26 135.686L415.477 186.757C427.724 191.129 439.89 195.95 451.976 201.222V226.535C433.235 217.421 413.962 209.443 394.263 202.644C393.965 148.957 393.668 95.2616 393.371 41.5582Z" fill="url(#paint6_radial)"/>
<defs>
<radialGradient id="paint0_radial" cx="0" cy="0" r="1" gradientUnits="userSpaceOnUse" gradientTransform="translate(238.324 353.342) scale(115.309 82.0844)">
<stop stop-color="#E4EAEF"/>
<stop offset="0.6" stop-color="white"/>
<stop offset="1" stop-color="white"/>
</radialGradient>
<radialGradient id="paint1_radial" cx="0" cy="0" r="1" gradientUnits="userSpaceOnUse" gradientTransform="translate(38850.1 51220.2) scale(26202.7 30441)">
<stop stop-color="#E4EAEF"/>
<stop offset="0.6" stop-color="white"/>
<stop offset="1" stop-color="white"/>
</radialGradient>
<radialGradient id="paint2_radial" cx="0" cy="0" r="1" gradientUnits="userSpaceOnUse" gradientTransform="translate(43900.1 45598.1) scale(29554.8 27096.3)">
<stop stop-color="#E4EAEF"/>
<stop offset="0.6" stop-color="white"/>
<stop offset="1" stop-color="white"/>
</radialGradient>
<radialGradient id="paint3_radial" cx="0" cy="0" r="1" gradientUnits="userSpaceOnUse" gradientTransform="translate(39668.8 41038.9) scale(26657.8 24382.9)">
<stop stop-color="#E4EAEF"/>
<stop offset="0.6" stop-color="white"/>
<stop offset="1" stop-color="white"/>
</radialGradient>
<radialGradient id="paint4_radial" cx="0" cy="0" r="1" gradientUnits="userSpaceOnUse" gradientTransform="translate(39742.6 41242) scale(26657.8 24503.7)">
<stop stop-color="#E4EAEF"/>
<stop offset="0.6" stop-color="white"/>
<stop offset="1" stop-color="white"/>
</radialGradient>
<radialGradient id="paint5_radial" cx="0" cy="0" r="1" gradientUnits="userSpaceOnUse" gradientTransform="translate(34549.5 45997.4) scale(23108.6 27334)">
<stop stop-color="#E4EAEF"/>
<stop offset="0.6" stop-color="white"/>
<stop offset="1" stop-color="white"/>
</radialGradient>
<radialGradient id="paint6_radial" cx="0" cy="0" r="1" gradientUnits="userSpaceOnUse" gradientTransform="translate(34944.5 52013) scale(23329.2 30913.7)">
<stop stop-color="#E4EAEF"/>
<stop offset="0.6" stop-color="white"/>
<stop offset="1" stop-color="white"/>
</radialGradient>
</defs>
</svg>
