<svg width="112" height="108" viewBox="0 0 112 108" fill="none" xmlns="http://www.w3.org/2000/svg">
<g id="Group 2">
<g id="Group">
<g id="Group_2">
<path id="Vector" d="M41.7156 40.4139C40.3893 38.39 37.9136 36.5824 35.1824 35.0596L43.7493 38.5669C55.9808 58.0586 71.6508 75.6739 87.1637 81.0283C88.038 82.3054 92.2429 89.4085 93.1369 90.6366C95.923 94.4751 99.1882 97.9418 102.853 100.952C105.801 103.389 108.827 105.72 111.931 107.947C108.296 106.159 94.4141 99.0267 82.7033 88.9861C72.3385 80.0949 58.2109 65.5547 41.7156 40.4139Z" fill="#EDF7F6"/>
<path id="Vector_2" d="M26.1733 31.1003C28.4624 29.2631 33.856 23.9382 35.0153 23.3291C37.6581 28.3887 40.6054 33.5564 43.7493 38.5668L35.1823 35.0595L25.9473 31.2771L26.1733 31.1003Z" fill="#DCF2F0"/>
</g>
<g id="Group_3">
<path id="Vector_3" d="M25.3776 31.6698C25.577 31.553 25.7674 31.4217 25.9474 31.2769L35.1825 35.0593C37.9137 36.5821 40.3894 38.3898 41.7157 40.4136C58.211 65.5544 72.3386 80.0947 82.7034 88.9858C84.7666 90.7542 86.8886 92.4244 89.0206 93.9963C96.2486 99.2927 103.913 103.966 111.931 107.967C111.954 107.971 111.977 107.971 112 107.967C112 107.967 100.682 106.002 90.9658 103.29C85.5034 102.072 79.5203 98.1422 74.9912 94.35C63.418 84.5255 55.0279 68.8063 49.7423 61.7327C39.0435 48.9609 29.8674 44.0978 29.8478 43.9799C29.2485 39.8634 32.2056 35.2656 25.3776 31.6698Z" fill="white"/>
<g id="Group_4">
<path id="Vector_4" d="M111.931 107.966C111.954 107.971 111.977 107.971 112 107.966C112 107.966 100.653 105.019 90.9462 102.298C85.3805 100.897 80.2409 98.1584 75.9737 94.3203L88.9813 93.9961C96.2218 99.2944 103.899 103.968 111.931 107.966V107.966Z" fill="#D6ECEB"/>
<path id="Vector_5" d="M25.3776 31.6698C25.5769 31.553 25.7674 31.4217 25.9474 31.2769L35.1824 35.0593C37.9136 36.5821 40.3894 38.3898 41.7157 40.4136C58.211 65.5544 72.3386 80.0947 82.7034 88.9858C84.7665 90.7542 86.8886 92.4244 89.0205 93.9963L76.0129 94.3205C64.4299 84.496 56.0496 68.7769 50.764 61.7033C40.0652 48.9314 30.8891 44.0192 30.8695 43.9504C30.2407 39.834 32.2056 35.2656 25.3776 31.6698Z" fill="#B7D7D5"/>
</g>
</g>
<g id="Group_5">
<g id="Group_6">
<g id="Group_7">
<path id="Vector_6" d="M7.81144 6.77477C7.97846 6.53898 8.14548 6.30319 8.33214 6.0674C8.51881 5.83161 8.73495 5.57618 8.95109 5.33057L29.4253 24.8518L28.8162 25.5985L25.1222 30.0981L24.1397 31.2574L23.4717 29.823C21.212 24.9107 18.8836 19.7725 15.1012 16.167C14.5567 15.7022 13.85 15.4725 13.1363 15.5284C12.6925 15.5443 12.253 15.6203 11.8297 15.7543C10.8472 16.0589 9.86476 16.2652 9.33424 16.3831C9.12243 16.4399 8.90494 16.4728 8.68582 16.4813C8.26123 16.4895 7.84239 16.3823 7.47389 16.1712C7.10539 15.9601 6.80103 15.6531 6.59322 15.2828C5.48305 13.4751 5.95462 10.174 7.81144 6.77477Z" fill="#661410"/>
<path id="Vector_7" d="M9.66834 4.61328C11.1474 3.1076 13.1163 2.18068 15.2192 2C16.8893 2 18.1076 2.75647 18.3827 4.01401C18.6476 4.88403 18.8189 5.77986 18.8935 6.68626C18.9083 7.29669 19.0695 7.89464 19.3636 8.42977C19.6577 8.96491 20.076 9.42158 20.5833 9.76133C25.3211 12.6448 29.622 16.1913 33.3552 20.2932L34.3867 21.5114L31.5081 22.3563L29.4254 24.9008L8.95116 5.38943C9.1673 5.08487 9.42273 4.80977 9.66834 4.61328Z" fill="#C66D6A"/>
</g>
<g id="Group_8">
<path id="Vector_8" d="M9.68795 6.0083L28.7278 24.1443L24.3657 29.4593C22.0963 24.5471 19.6794 19.2026 15.7496 15.4496C15.1648 14.9791 14.4657 14.6722 13.7236 14.56C12.9815 14.4478 12.2229 14.5344 11.5251 14.811C10.6999 15.0665 9.86479 15.263 9.05918 15.43C6.88798 16.0293 5.94483 12.2468 8.63674 7.33461C8.95613 6.86879 9.30737 6.42562 9.68795 6.0083V6.0083Z" fill="#75221A"/>
<path id="Vector_9" d="M28.7276 24.1439L9.68778 6.00794C12.8414 2.52025 16.9677 2.20588 17.4295 4.29849C17.6737 5.10189 17.835 5.92816 17.9109 6.76442C17.9328 7.53329 18.1409 8.28538 18.5173 8.95615C18.8938 9.62693 19.4274 10.1964 20.0723 10.6156C24.724 13.4387 28.9403 16.9236 32.5886 20.9608L30.9381 21.4422L28.7276 24.1439Z" fill="#973830"/>
<path id="Vector_10" d="M25.3776 31.6691L31.2134 26.5112L33.866 29.046L33.2176 29.6649C28.6197 33.7224 15.1111 40.7469 15.1111 40.7469L25.3776 31.6691Z" fill="#B32534"/>
<path id="Vector_11" d="M34.7107 23.4756L39.9668 18.8286C39.9668 18.8286 38.0019 24.9886 33.8756 29.0854L31.223 26.5507L34.7107 23.4756Z" fill="#E1443D"/>
<path id="Vector_12" d="M30.9479 21.4422L32.5886 20.9608L39.9668 18.7896L34.7009 23.4365L31.223 26.5116L28.7276 24.1439L30.9479 21.4422Z" fill="#E65C34"/>
<path id="Vector_13" d="M24.3657 29.4591L28.7277 24.144L31.2231 26.5117L25.3776 31.6696L15.111 40.7474L24.3657 29.4591Z" fill="#E1443E"/>
</g>
</g>
<g id="Group_9">
<path id="Vector_14" d="M10.8766 8.41559C10.8865 8.75543 10.9968 9.0847 11.1938 9.36182C11.3908 9.63893 11.6655 9.85144 11.9832 9.97246C12.3009 10.0935 12.6474 10.1176 12.9788 10.0417C13.3102 9.96586 13.6117 9.79344 13.8451 9.54627C14.0785 9.2991 14.2335 8.98828 14.2903 8.65308C14.3471 8.31787 14.3032 7.97333 14.1643 7.66304C14.0253 7.35276 13.7975 7.09066 13.5096 6.90984C13.2217 6.72902 12.8866 6.63759 12.5468 6.64717C12.321 6.65353 12.0986 6.70433 11.8924 6.79666C11.6863 6.88899 11.5003 7.02105 11.3452 7.18528C11.1901 7.34951 11.0689 7.5427 10.9885 7.7538C10.9081 7.9649 10.8701 8.18979 10.8766 8.41559V8.41559Z" fill="#F15A29"/>
<path id="Vector_15" d="M11.2203 8.40569C11.2281 8.67521 11.3155 8.93638 11.4716 9.15628C11.6276 9.37619 11.8452 9.54498 12.097 9.64139C12.3489 9.7378 12.6236 9.75753 12.8866 9.69806C13.1495 9.63858 13.389 9.50257 13.5749 9.30718C13.7607 9.1118 13.8845 8.86579 13.9307 8.60015C13.9769 8.3345 13.9435 8.0611 13.8346 7.81444C13.7256 7.56779 13.5461 7.35892 13.3187 7.21412C13.0912 7.06932 12.826 6.99509 12.5564 7.00079C12.1933 7.01109 11.8491 7.16459 11.5987 7.4278C11.3484 7.691 11.2124 8.04254 11.2203 8.40569V8.40569Z" fill="#F7941E"/>
<path id="Vector_16" d="M12.9202 7.67855C12.9228 7.76803 12.9601 7.85297 13.0243 7.91535C13.0885 7.97772 13.1745 8.01261 13.264 8.01258C13.3561 8.01002 13.4436 7.97162 13.5078 7.90557C13.572 7.83952 13.6079 7.751 13.6079 7.65888C13.6066 7.61372 13.5965 7.56924 13.578 7.52801C13.5595 7.48678 13.5331 7.4496 13.5003 7.41857C13.4674 7.38755 13.4288 7.3633 13.3866 7.34722C13.3444 7.33114 13.2994 7.32354 13.2542 7.32485C13.2087 7.32477 13.1636 7.33401 13.1217 7.35202C13.0798 7.37002 13.0421 7.39639 13.0108 7.42952C12.9795 7.46265 12.9553 7.50186 12.9397 7.54468C12.9242 7.5875 12.9175 7.63306 12.9202 7.67855V7.67855Z" fill="white"/>
</g>
</g>
</g>
<g id="Group_10">
<g id="Group_11">
<path id="Vector_17" d="M70.2844 38.4139C71.6107 36.39 74.0864 34.5824 76.8176 33.0596L68.2507 36.5669C56.0192 56.0586 40.3492 73.6739 24.8363 79.0283C23.962 80.3054 19.7571 87.4085 18.8631 88.6366C16.077 92.4751 12.8118 95.9418 9.14666 98.9523C6.19932 101.389 3.17338 103.72 0.0688477 105.947C3.7039 104.159 17.5859 97.0267 29.2967 86.9861C39.6615 78.0949 53.7891 63.5547 70.2844 38.4139Z" fill="#EDF7F6"/>
<path id="Vector_18" d="M85.8267 29.1003C83.5376 27.2631 78.144 21.9382 76.9847 21.3291C74.3419 26.3887 71.3946 31.5564 68.2507 36.5668L76.8177 33.0595L86.0527 29.2771L85.8267 29.1003Z" fill="#DCF2F0"/>
</g>
<g id="Group_12">
<path id="Vector_19" d="M86.6224 29.6698C86.423 29.553 86.2326 29.4217 86.0526 29.2769L76.8175 33.0593C74.0863 34.5821 71.6106 36.3898 70.2843 38.4136C53.789 63.5544 39.6614 78.0947 29.2966 86.9858C27.2334 88.7542 25.1114 90.4244 22.9794 91.9963C15.7514 97.2927 8.08705 101.966 0.068771 105.967C0.0460681 105.971 0.0227029 105.971 0 105.967C0 105.967 11.3178 104.002 21.0342 101.29C26.4966 100.072 32.4797 96.1422 37.0088 92.35C48.582 82.5255 56.9721 66.8063 62.2577 59.7327C72.9565 46.9609 82.1326 42.0978 82.1522 41.9799C82.7515 37.8634 79.7944 33.2656 86.6224 29.6698Z" fill="white"/>
<g id="Group_13">
<path id="Vector_20" d="M0.068771 105.966C0.0460681 105.971 0.0227029 105.971 0 105.966C0 105.966 11.3473 103.019 21.0538 100.298C26.6195 98.8968 31.7591 96.1584 36.0263 92.3203L23.0187 91.9961C15.7782 97.2944 8.10059 101.968 0.068771 105.966V105.966Z" fill="#D6ECEB"/>
<path id="Vector_21" d="M86.6224 29.6698C86.4231 29.553 86.2326 29.4217 86.0526 29.2769L76.8176 33.0593C74.0864 34.5821 71.6106 36.3898 70.2843 38.4136C53.789 63.5544 39.6614 78.0947 29.2966 86.9858C27.2335 88.7542 25.1114 90.4244 22.9795 91.9963L35.9871 92.3205C47.5701 82.496 55.9504 66.7769 61.236 59.7033C71.9348 46.9314 81.1109 42.0192 81.1305 41.9504C81.7593 37.834 79.7944 33.2656 86.6224 29.6698Z" fill="#B7D7D5"/>
</g>
</g>
<g id="Group_14">
<g id="Group_15">
<g id="Group_16">
<path id="Vector_22" d="M104.189 4.77477C104.022 4.53898 103.855 4.30319 103.668 4.0674C103.481 3.83161 103.265 3.57618 103.049 3.33057L82.5747 22.8518L83.1838 23.5985L86.8778 28.0981L87.8603 29.2574L88.5283 27.823C90.788 22.9107 93.1164 17.7725 96.8988 14.167C97.4433 13.7022 98.15 13.4725 98.8637 13.5284C99.3075 13.5443 99.747 13.6203 100.17 13.7543C101.153 14.0589 102.135 14.2652 102.666 14.3831C102.878 14.4399 103.095 14.4728 103.314 14.4813C103.739 14.4895 104.158 14.3823 104.526 14.1712C104.895 13.9601 105.199 13.6531 105.407 13.2828C106.517 11.4751 106.045 8.17403 104.189 4.77477Z" fill="#661410"/>
<path id="Vector_23" d="M102.332 2.61328C100.853 1.1076 98.8837 0.180682 96.7808 0C95.1107 0 93.8924 0.756472 93.6173 2.01401C93.3524 2.88403 93.1811 3.77986 93.1065 4.68626C93.0917 5.29669 92.9305 5.89464 92.6364 6.42977C92.3423 6.96491 91.924 7.42158 91.4167 7.76133C86.6789 10.6448 82.378 14.1913 78.6448 18.2932L77.6133 19.5114L80.4919 20.3563L82.5746 22.9008L103.049 3.38943C102.833 3.08487 102.577 2.80977 102.332 2.61328Z" fill="#C66D6A"/>
</g>
<g id="Group_17">
<path id="Vector_24" d="M102.312 4.0083L83.2722 22.1443L87.6343 27.4593C89.9037 22.5471 92.3206 17.2026 96.2504 13.4496C96.8352 12.9791 97.5343 12.6722 98.2764 12.56C99.0185 12.4478 99.7771 12.5344 100.475 12.811C101.3 13.0665 102.135 13.263 102.941 13.43C105.112 14.0293 106.055 10.2468 103.363 5.33461C103.044 4.86879 102.693 4.42562 102.312 4.0083V4.0083Z" fill="#75221A"/>
<path id="Vector_25" d="M83.2724 22.1439L102.312 4.00794C99.1586 0.520253 95.0323 0.20588 94.5705 2.29849C94.3263 3.10189 94.165 3.92816 94.0891 4.76442C94.0672 5.53329 93.8591 6.28538 93.4827 6.95615C93.1062 7.62693 92.5726 8.19638 91.9277 8.61562C87.276 11.4387 83.0597 14.9236 79.4114 18.9608L81.0619 19.4422L83.2724 22.1439Z" fill="#973830"/>
<path id="Vector_26" d="M86.6224 29.6691L80.7866 24.5112L78.134 27.046L78.7824 27.6649C83.3803 31.7224 96.8889 38.7469 96.8889 38.7469L86.6224 29.6691Z" fill="#B32534"/>
<path id="Vector_27" d="M77.2893 21.4756L72.0332 16.8286C72.0332 16.8286 73.9981 22.9886 78.1244 27.0854L80.777 24.5507L77.2893 21.4756Z" fill="#E1443D"/>
<path id="Vector_28" d="M81.0521 19.4422L79.4114 18.9608L72.0332 16.7896L77.2991 21.4365L80.777 24.5116L83.2724 22.1439L81.0521 19.4422Z" fill="#E65C34"/>
<path id="Vector_29" d="M87.6343 27.4591L83.2723 22.144L80.7769 24.5117L86.6224 29.6696L96.889 38.7474L87.6343 27.4591Z" fill="#E1443E"/>
</g>
</g>
<g id="Group_18">
<path id="Vector_30" d="M101.123 6.41559C101.114 6.75543 101.003 7.0847 100.806 7.36182C100.609 7.63893 100.335 7.85144 100.017 7.97246C99.6991 8.09348 99.3526 8.11758 99.0212 8.04172C98.6898 7.96586 98.3883 7.79344 98.1549 7.54627C97.9215 7.2991 97.7665 6.98828 97.7097 6.65308C97.6529 6.31787 97.6968 5.97333 97.8357 5.66304C97.9747 5.35276 98.2025 5.09066 98.4904 4.90984C98.7783 4.72902 99.1134 4.63759 99.4532 4.64717C99.679 4.65353 99.9014 4.70433 100.108 4.79666C100.314 4.88899 100.5 5.02105 100.655 5.18528C100.81 5.34951 100.931 5.5427 101.012 5.7538C101.092 5.9649 101.13 6.18979 101.123 6.41559V6.41559Z" fill="#F15A29"/>
<path id="Vector_31" d="M100.78 6.40569C100.772 6.67521 100.684 6.93638 100.528 7.15628C100.372 7.37619 100.155 7.54498 99.903 7.64139C99.6511 7.7378 99.3764 7.75753 99.1134 7.69806C98.8505 7.63858 98.611 7.50257 98.4251 7.30718C98.2393 7.1118 98.1155 6.86579 98.0693 6.60015C98.0231 6.3345 98.0565 6.0611 98.1654 5.81444C98.2744 5.56779 98.4539 5.35892 98.6813 5.21412C98.9088 5.06932 99.174 4.99509 99.4436 5.00079C99.8067 5.01109 100.151 5.16459 100.401 5.4278C100.652 5.691 100.788 6.04254 100.78 6.40569V6.40569Z" fill="#F7941E"/>
<path id="Vector_32" d="M99.0798 5.67855C99.0772 5.76803 99.0399 5.85297 98.9757 5.91535C98.9115 5.97772 98.8255 6.01261 98.736 6.01258C98.6439 6.01002 98.5564 5.97162 98.4922 5.90557C98.428 5.83952 98.3921 5.751 98.3921 5.65888C98.3934 5.61372 98.4035 5.56924 98.422 5.52801C98.4405 5.48678 98.4669 5.4496 98.4997 5.41857C98.5326 5.38755 98.5712 5.3633 98.6134 5.34722C98.6556 5.33114 98.7006 5.32354 98.7458 5.32485C98.7913 5.32477 98.8364 5.33401 98.8783 5.35202C98.9202 5.37002 98.9579 5.39639 98.9892 5.42952C99.0205 5.46265 99.0447 5.50186 99.0603 5.54468C99.0758 5.5875 99.0825 5.63306 99.0798 5.67855V5.67855Z" fill="white"/>
</g>
</g>
</g>
</g>
</svg>
